<?xml version="1.0" standalone="no"?>
<!DOCTYPE svg PUBLIC "-//W3C//DTD SVG 20010904//EN"
 "http://www.w3.org/TR/2001/REC-SVG-20010904/DTD/svg10.dtd">
<svg version="1.0" xmlns="http://www.w3.org/2000/svg"
 width="500.000000pt" height="500.000000pt" viewBox="0 0 500.000000 500.000000"
 preserveAspectRatio="xMidYMid meet">
<metadata>
Created by potrace 1.12, written by Peter Selinger 2001-2015
</metadata>
<g transform="translate(0.000000,500.000000) scale(0.100000,-0.100000)"
fill="#000000" stroke="none">
<path d="M2185 4870 c-3 -5 -19 -10 -36 -10 -16 0 -29 -3 -29 -8 0 -4 -17 -18
-37 -31 -21 -12 -49 -40 -63 -62 -13 -21 -28 -39 -32 -39 -4 0 -8 -9 -8 -20 0
-11 -4 -20 -10 -20 -5 0 -10 -9 -10 -20 0 -11 -3 -20 -8 -20 -13 0 -29 -68
-26 -117 5 -83 16 -143 25 -143 5 0 9 -9 9 -19 0 -11 5 -23 10 -26 6 -3 10
-17 10 -31 0 -13 5 -24 10 -24 6 0 10 -9 10 -20 0 -11 5 -20 10 -20 6 0 10 -7
10 -16 0 -32 51 -64 104 -64 20 0 36 5 36 10 0 6 6 10 13 10 7 0 31 16 52 35
21 20 51 43 67 53 15 9 28 19 28 23 0 4 14 12 30 19 17 7 30 16 30 21 0 5 6 9
13 9 7 0 19 9 27 20 8 11 18 20 23 20 13 0 57 48 57 63 0 7 5 18 11 24 14 14
-1 182 -20 228 -38 90 -48 111 -72 136 -15 16 -34 29 -42 29 -9 0 -19 5 -22
10 -3 6 -42 10 -85 10 -43 0 -82 -4 -85 -10z m207 -72 c21 -22 41 -52 44 -66
3 -15 10 -40 15 -56 5 -16 9 -44 9 -62 0 -19 5 -34 10 -34 6 0 10 -24 10 -54
0 -30 -4 -58 -10 -61 -5 -3 -10 -13 -10 -22 0 -17 -67 -83 -85 -83 -6 0 -17
-9 -25 -20 -8 -11 -22 -20 -32 -20 -10 0 -18 -4 -18 -8 0 -5 -12 -15 -27 -23
-16 -8 -45 -31 -65 -51 -32 -34 -42 -38 -87 -38 -41 0 -51 4 -56 20 -3 11 -11
20 -16 20 -5 0 -9 9 -9 20 0 11 -4 20 -10 20 -5 0 -10 14 -10 30 0 17 -4 30
-10 30 -5 0 -10 9 -10 19 0 11 -4 23 -10 26 -5 3 -10 22 -10 41 0 19 -4 34
-10 34 -15 0 -12 146 3 173 6 12 14 24 17 27 3 3 11 15 18 28 45 81 42 78 103
119 49 34 109 44 199 35 35 -4 52 -13 82 -44z"/>
<path d="M2493 4345 c-19 -21 -16 -25 17 -25 17 0 30 5 30 12 0 9 3 9 12 0 7
-7 25 -12 40 -12 15 0 28 -4 28 -10 0 -5 14 -10 30 -10 17 0 30 -4 30 -9 0 -5
9 -11 20 -14 11 -3 20 -12 20 -21 0 -16 35 -23 43 -8 18 31 -78 92 -145 92
-21 0 -38 5 -38 10 0 15 -73 11 -87 -5z"/>
<path d="M2410 4320 c-8 -11 -22 -20 -32 -20 -9 0 -20 -9 -23 -20 -3 -11 -12
-20 -18 -20 -16 -1 -57 -66 -57 -91 0 -12 -12 -27 -29 -37 -28 -15 -29 -20
-29 -83 0 -36 -5 -75 -10 -85 -5 -11 -20 -41 -33 -69 -13 -27 -36 -61 -51 -76
-16 -14 -28 -34 -28 -43 0 -9 -8 -16 -20 -16 -13 0 -20 -7 -20 -19 0 -11 -6
-21 -12 -24 -7 -2 -10 -8 -6 -12 8 -9 138 121 138 137 0 5 9 18 20 30 11 12
20 28 20 35 0 7 5 13 10 13 6 0 10 9 10 20 0 11 3 20 8 20 12 0 32 76 32 120
0 22 5 40 10 40 6 0 10 14 10 30 0 17 4 30 9 30 5 0 13 9 16 20 3 11 12 20 20
20 7 0 19 14 27 30 7 17 19 30 25 30 7 0 13 5 13 10 0 6 5 10 11 10 11 0 39
24 39 34 0 15 -37 4 -50 -14z"/>
<path d="M2784 4245 c14 -66 28 -82 40 -47 3 9 9 23 12 30 4 8 -3 12 -19 12
-14 0 -28 6 -31 13 -3 6 -4 3 -2 -8z"/>
<path d="M2863 4163 c-13 -2 -23 -7 -23 -9 0 -9 28 -34 38 -34 5 0 15 -6 21
-14 6 -7 22 -11 36 -8 26 4 29 -1 25 -45 -1 -15 17 -40 54 -78 62 -61 80 -69
70 -28 -8 32 -47 73 -69 73 -9 0 -15 9 -15 23 0 13 -6 35 -12 50 -10 21 -20
27 -45 27 -26 0 -34 5 -39 25 -3 14 -9 24 -13 24 -3 -1 -16 -4 -28 -6z"/>
<path d="M2583 3975 c-13 -13 -23 -31 -23 -40 0 -8 -4 -15 -10 -15 -5 0 -10
-5 -10 -11 0 -6 6 -9 13 -6 6 2 20 0 29 -4 28 -15 4 -60 -78 -143 -41 -42 -74
-80 -74 -86 0 -5 -5 -10 -10 -10 -14 0 -80 -66 -80 -80 0 -5 -4 -10 -10 -10
-5 0 -10 -7 -10 -15 0 -8 -4 -15 -10 -15 -5 0 -10 -8 -10 -18 0 -10 -9 -24
-20 -32 -11 -8 -20 -18 -20 -23 0 -5 -19 -26 -42 -47 -37 -35 -40 -41 -27 -57
7 -10 14 -20 16 -22 3 -4 33 26 33 33 0 9 31 46 68 80 17 17 32 39 32 48 0 10
5 18 10 18 6 0 10 12 10 26 0 17 6 28 20 31 11 3 20 9 20 14 0 5 7 9 15 9 8 0
15 5 15 10 0 6 11 16 25 22 14 6 25 19 25 30 0 10 5 18 10 18 6 0 10 9 10 20
0 13 7 20 19 20 12 0 25 12 33 30 15 35 19 36 38 11 18 -26 30 -17 30 20 0 17
5 40 11 51 7 13 8 23 1 27 -16 10 -7 53 19 80 35 37 31 56 -11 58 -26 2 -41
-4 -57 -22z m57 -15 c0 -11 -4 -20 -10 -20 -5 0 -10 9 -10 20 0 11 5 20 10 20
6 0 10 -9 10 -20z"/>
<path d="M2474 3873 c-9 -16 -26 -35 -36 -44 -22 -19 -23 -36 -4 -54 18 -19
26 -9 26 32 0 30 3 33 20 28 14 -5 20 -2 20 9 0 9 4 16 9 16 5 0 11 9 14 20 8
31 -27 25 -49 -7z"/>
<path d="M3100 3880 c0 -11 4 -20 8 -20 4 0 16 -14 26 -30 9 -17 28 -41 42
-55 13 -13 24 -31 24 -40 0 -8 5 -15 10 -15 6 0 10 9 10 20 0 11 -4 20 -10 20
-5 0 -10 8 -10 18 -1 9 -14 33 -30 52 -17 19 -30 42 -30 52 0 11 -7 18 -20 18
-13 0 -20 -7 -20 -20z"/>
<path d="M2363 3755 c-13 -13 -23 -28 -23 -32 0 -5 -9 -16 -20 -26 -21 -18
-26 -37 -10 -37 6 0 10 5 10 11 0 6 6 9 13 6 21 -8 47 13 47 38 0 24 9 30 38
26 8 -2 12 5 10 16 -5 27 -40 26 -65 -2z"/>
<path d="M3252 3714 c-8 -9 -11 -22 -6 -32 7 -16 7 -16 11 1 3 9 9 17 14 17
13 0 11 -44 -2 -57 -8 -8 -6 -17 10 -34 11 -13 21 -27 21 -32 0 -9 25 -37 34
-37 18 0 2 50 -25 78 -30 32 -30 34 -10 39 26 7 27 15 1 33 -11 8 -20 20 -20
27 0 17 -12 16 -28 -3z"/>
<path d="M1980 3664 c0 -18 -23 -44 -39 -44 -6 0 -11 -5 -11 -10 0 -6 -15 -25
-34 -43 -18 -17 -39 -42 -45 -54 -10 -20 -9 -22 6 -16 17 6 43 33 95 96 13 15
33 38 46 52 27 30 28 35 2 35 -12 0 -20 -7 -20 -16z"/>
<path d="M2580 3650 c0 -5 5 -10 10 -10 6 0 10 5 10 10 0 6 -4 10 -10 10 -5 0
-10 -4 -10 -10z"/>
<path d="M2221 3600 c-30 -29 -41 -48 -41 -69 0 -16 -6 -31 -12 -34 -7 -2 -9
-8 -5 -13 4 -4 19 5 34 20 20 21 23 30 13 36 -11 7 -10 11 3 24 8 9 20 16 26
16 16 0 61 42 55 52 -11 17 -33 7 -73 -32z"/>
<path d="M3340 3510 c0 -5 4 -10 9 -10 5 0 17 -17 27 -37 l19 -38 3 33 c2 19
-3 38 -12 47 -17 17 -46 20 -46 5z"/>
<path d="M1780 3463 c0 -9 -22 -38 -50 -64 -27 -26 -50 -52 -50 -57 0 -6 -13
-19 -30 -29 -16 -9 -30 -25 -30 -35 0 -11 -7 -18 -20 -18 -11 0 -20 -4 -20
-10 0 -5 9 -10 20 -10 11 0 20 4 20 9 0 5 9 13 20 16 11 3 20 11 20 16 0 6 27
37 60 70 33 32 60 63 60 67 0 4 9 13 20 20 11 7 20 19 20 27 0 8 -9 15 -20 15
-12 0 -20 -7 -20 -17z"/>
<path d="M2100 3450 c0 -23 15 -27 23 -6 3 8 -1 17 -9 20 -9 4 -14 -1 -14 -14z"/>
<path d="M2051 3404 c-12 -14 -12 -17 0 -25 14 -8 49 15 49 33 0 14 -34 8 -49
-8z"/>
<path d="M3400 3407 c0 -7 8 -22 19 -33 19 -21 29 -68 36 -169 2 -33 8 -61 14
-63 6 -2 11 -12 11 -23 0 -10 5 -19 10 -19 6 0 10 -24 10 -54 0 -30 5 -58 10
-61 6 -3 10 -1 10 4 0 6 5 11 10 11 18 0 11 -46 -10 -65 -11 -10 -20 -26 -20
-36 0 -9 -4 -19 -9 -21 -13 -4 -18 -52 -6 -58 6 -3 12 6 13 20 2 14 12 33 23
43 10 10 19 28 19 40 0 13 5 28 11 34 8 8 8 17 0 31 -6 11 -11 47 -11 80 0 62
-14 87 -42 77 -12 -5 -15 9 -17 81 -1 57 -6 91 -14 96 -9 6 -9 10 0 16 10 6 4
18 -21 45 -36 40 -46 45 -46 24z"/>
<path d="M1977 3354 c-11 -11 5 -34 24 -34 23 0 24 7 5 26 -16 16 -20 17 -29
8z"/>
<path d="M2149 3333 c-7 -16 -26 -40 -40 -55 -15 -14 -30 -36 -34 -47 -3 -12
-10 -19 -15 -16 -15 9 -40 -7 -40 -26 0 -20 -44 -69 -62 -69 -18 0 -118 -109
-118 -129 0 -12 -11 -23 -30 -30 -16 -5 -30 -15 -30 -20 0 -13 -122 -136 -143
-144 -9 -3 -17 -13 -17 -22 0 -8 -9 -15 -19 -15 -11 0 -23 -9 -26 -20 -3 -11
-12 -20 -20 -20 -7 0 -15 -6 -18 -12 -3 -9 -13 -5 -31 11 l-26 24 0 -32 0 -33
53 6 c28 3 55 5 58 6 4 0 61 53 128 119 76 74 119 124 116 133 -4 9 2 14 15
15 22 2 50 25 50 42 0 5 14 18 30 28 17 9 30 22 30 28 1 16 42 58 73 74 15 8
27 18 27 22 0 4 14 21 30 37 17 17 30 33 30 36 0 3 12 18 28 33 42 43 56 72
41 89 -16 20 -24 18 -40 -13z"/>
<path d="M2580 3331 c0 -6 5 -13 10 -16 6 -3 10 -17 10 -31 0 -17 5 -24 20
-24 11 0 20 4 20 8 0 5 -9 18 -20 30 -11 12 -20 26 -20 32 0 5 -4 10 -10 10
-5 0 -10 -4 -10 -9z"/>
<path d="M1933 3293 c-15 -31 -12 -36 11 -27 9 3 16 17 16 30 0 32 -12 30 -27
-3z"/>
<path d="M1833 3225 c-7 -8 -13 -24 -13 -36 0 -12 -8 -28 -17 -35 -12 -9 -14
-13 -5 -14 18 0 42 25 42 44 0 9 5 16 10 16 6 0 10 9 10 20 0 23 -10 25 -27 5z"/>
<path d="M1538 3215 c-37 -44 -90 -95 -99 -95 -13 0 -53 -40 -62 -63 -3 -9
-12 -17 -19 -17 -12 0 -78 -64 -78 -75 0 -20 39 6 97 63 38 38 81 77 96 87 15
9 27 23 27 29 0 7 12 19 28 27 30 16 42 28 42 47 0 17 -17 15 -32 -3z"/>
<path d="M2626 3192 c-8 -13 14 -72 26 -72 5 0 8 -7 8 -16 0 -8 7 -22 15 -30
8 -9 15 -19 15 -24 0 -13 -57 -70 -70 -70 -18 0 -62 -50 -58 -67 2 -12 14 -5
46 26 23 22 47 41 53 41 14 0 59 51 59 67 0 6 -5 13 -10 15 -6 2 -12 14 -12
28 -1 14 -11 37 -22 51 -12 15 -26 35 -32 45 -8 13 -13 15 -18 6z"/>
<path d="M1760 3133 c0 -5 -18 -16 -39 -27 -40 -19 -63 -56 -35 -56 8 0 17 7
20 15 4 8 12 15 18 15 12 0 56 44 56 55 0 3 -4 5 -10 5 -5 0 -10 -3 -10 -7z"/>
<path d="M1627 3033 c-14 -13 -6 -33 13 -33 13 0 20 7 20 20 0 19 -20 27 -33
13z"/>
<path d="M1605 2970 c4 -6 11 -8 16 -5 14 9 11 15 -7 15 -8 0 -12 -5 -9 -10z"/>
<path d="M1220 2945 c0 -16 27 -32 37 -22 5 6 -21 37 -31 37 -3 0 -6 -7 -6
-15z"/>
<path d="M1532 2929 c2 -6 8 -10 13 -10 5 0 11 4 13 10 2 6 -4 11 -13 11 -9 0
-15 -5 -13 -11z"/>
<path d="M1496 2895 c-4 -10 -20 -15 -51 -15 -25 0 -45 -4 -45 -10 0 -5 -6
-10 -14 -10 -7 0 -27 -13 -44 -30 -18 -16 -38 -30 -46 -30 -16 0 -29 -27 -20
-41 7 -13 46 0 60 19 6 8 16 12 23 8 14 -9 41 17 41 38 0 34 48 13 63 -27 12
-31 35 3 32 45 -2 24 2 38 11 42 8 3 14 10 14 16 0 15 -17 12 -24 -5z"/>
<path d="M1172 2884 c-7 -8 -12 -19 -10 -25 4 -11 48 18 48 32 0 14 -23 10
-38 -7z"/>
<path d="M2476 2875 c-15 -8 -32 -15 -38 -15 -5 0 -20 -11 -34 -25 -14 -14
-21 -25 -15 -25 5 0 16 7 25 15 8 8 21 15 28 15 22 0 67 24 73 38 6 16 -4 15
-39 -3z"/>
<path d="M1160 2796 c0 -14 5 -28 10 -31 6 -3 10 -15 10 -26 0 -14 7 -19 30
-19 43 0 41 33 -2 45 -26 8 -32 15 -31 33 2 12 -2 22 -7 22 -6 0 -10 -11 -10
-24z"/>
<path d="M2338 2781 c-8 -10 -22 -21 -29 -23 -8 -3 -10 -9 -5 -14 5 -5 11 -4
13 4 3 6 11 12 20 12 14 0 43 23 43 34 0 13 -27 5 -42 -13z"/>
<path d="M3440 2763 c0 -18 5 -24 17 -21 26 5 28 34 3 41 -16 4 -20 0 -20 -20z"/>
<path d="M3366 2715 c-20 -19 -40 -35 -46 -35 -5 0 -10 -4 -10 -10 0 -5 7 -10
15 -10 8 0 15 5 15 10 0 6 8 10 19 10 21 0 36 16 44 48 7 29 4 28 -37 -13z"/>
<path d="M1425 2730 c-3 -5 -1 -10 4 -10 6 0 11 5 11 10 0 6 -2 10 -4 10 -3 0
-8 -4 -11 -10z"/>
<path d="M2238 2706 c-10 -7 -18 -16 -18 -20 0 -11 35 -7 48 6 27 27 2 39 -30
14z"/>
<path d="M1360 2666 c0 -19 5 -38 10 -41 6 -3 10 -15 10 -25 0 -22 15 -26 86
-22 67 5 72 22 7 22 -42 0 -50 3 -60 27 -7 15 -13 37 -13 50 0 16 -6 23 -20
23 -16 0 -20 -7 -20 -34z"/>
<path d="M3520 2691 c0 -5 -13 -14 -30 -21 -16 -7 -30 -16 -30 -21 0 -5 -7 -9
-15 -9 -8 0 -15 -4 -15 -10 0 -5 -7 -10 -15 -10 -8 0 -15 -4 -15 -10 0 -5 -10
-10 -22 -10 -13 0 -34 -9 -47 -19 -19 -14 -31 -17 -53 -10 -22 6 -38 3 -64
-12 -19 -10 -40 -19 -47 -19 -7 0 -26 -14 -44 -30 -18 -17 -39 -30 -47 -30 -9
0 -16 -4 -16 -10 0 -5 -6 -10 -12 -10 -7 0 -22 -7 -32 -15 -16 -12 -17 -17 -6
-30 17 -20 32 -19 58 5 12 11 30 20 41 20 11 0 23 5 26 10 3 6 15 10 27 10 18
0 20 -4 14 -32 -10 -51 -38 -142 -48 -152 -10 -13 -11 -96 0 -96 18 0 32 26
32 61 0 21 5 41 10 44 6 3 10 19 10 35 0 16 5 32 10 35 6 3 10 15 10 26 0 10
5 19 10 19 6 0 10 23 10 50 0 35 4 50 13 50 7 0 23 9 35 20 12 11 28 20 37 20
8 0 15 5 15 10 0 6 9 10 19 10 20 0 104 40 109 53 2 4 10 7 18 7 8 0 14 4 14
8 0 5 12 15 28 23 35 18 53 35 45 43 -9 9 -33 7 -33 -3z"/>
<path d="M2180 2644 c0 -9 -8 -23 -17 -30 -13 -10 -14 -13 -4 -14 16 0 40 28
41 48 0 6 -4 12 -10 12 -5 0 -10 -7 -10 -16z"/>
<path d="M3260 2650 c0 -5 -11 -10 -25 -10 -14 0 -25 -4 -25 -10 0 -5 -11 -10
-25 -10 -14 0 -33 -4 -43 -9 -9 -5 -29 -14 -44 -20 -56 -22 -78 -35 -78 -43 0
-4 -11 -8 -25 -8 -14 0 -35 -9 -47 -20 -12 -11 -32 -20 -44 -20 -13 0 -26 -4
-29 -10 -3 -5 -15 -10 -25 -10 -11 0 -24 -9 -30 -20 -6 -11 -21 -20 -33 -20
-12 0 -29 -9 -37 -20 -8 -11 -21 -20 -28 -20 -17 0 -82 -69 -82 -86 0 -7 -6
-14 -12 -17 -10 -3 -7 -15 10 -46 12 -24 22 -49 22 -57 0 -8 7 -14 16 -14 23
0 43 -25 38 -47 -3 -11 1 -25 10 -32 9 -8 16 -18 16 -23 0 -11 25 -38 37 -38
13 -1 63 -48 63 -60 0 -23 30 -42 55 -36 21 5 25 3 25 -15 0 -24 22 -49 43
-49 7 0 19 -11 25 -24 6 -14 28 -33 49 -42 21 -10 47 -26 57 -36 11 -10 23
-18 27 -18 5 0 26 -18 48 -40 22 -22 45 -40 53 -40 16 0 39 -47 31 -66 -4 -10
0 -12 11 -8 10 4 16 1 16 -9 0 -8 9 -17 20 -20 11 -3 20 -12 20 -21 0 -9 4
-16 8 -16 5 0 19 -20 32 -45 24 -47 173 -207 203 -218 9 -3 17 -12 17 -19 0
-7 9 -19 20 -26 11 -7 20 -18 20 -25 0 -6 11 -25 24 -40 20 -23 28 -27 43 -18
17 10 17 10 1 11 -18 0 -20 4 -22 50 -1 18 -7 25 -21 25 -11 0 -21 8 -23 18
-2 9 -8 17 -13 17 -5 0 -9 10 -9 23 0 14 -11 28 -30 39 -17 9 -30 24 -30 33 0
8 -9 15 -20 15 -13 0 -20 7 -20 20 0 11 -5 20 -10 20 -14 0 -84 70 -77 77 3 3
-3 20 -14 39 -10 19 -19 42 -19 51 0 16 53 73 68 73 4 0 14 9 22 20 8 11 22
20 32 20 10 0 18 5 18 10 0 6 17 10 38 10 43 0 53 6 45 26 -6 15 -53 20 -53 5
0 -5 -13 -11 -29 -14 -15 -3 -49 -22 -75 -41 -25 -20 -50 -36 -54 -36 -4 0
-14 -9 -22 -20 -14 -20 -40 -27 -40 -12 0 5 -11 22 -25 38 -14 16 -25 33 -25
38 0 5 -8 16 -19 25 -10 9 -26 31 -35 49 -9 18 -24 36 -32 39 -7 3 -14 12 -14
20 0 16 -36 53 -51 53 -5 0 -26 17 -46 37 -40 39 -114 66 -152 56 -16 -4 -32
7 -66 42 -25 27 -45 54 -45 62 0 7 -6 13 -14 13 -7 0 -19 6 -26 14 -6 8 -18
12 -26 9 -8 -3 -14 0 -14 6 0 6 5 11 10 11 19 0 10 32 -17 59 -35 34 -53 65
-53 93 0 31 85 109 156 144 32 15 61 32 62 36 2 4 16 8 32 8 16 0 30 3 32 8 5
12 129 72 149 72 10 0 21 5 24 10 3 6 13 10 21 10 8 0 24 9 36 20 12 11 35 20
51 20 25 0 57 19 57 34 0 3 -9 6 -20 6 -11 0 -20 -4 -20 -10z m-220 -740 c15
-16 33 -30 38 -30 6 0 19 -13 29 -30 9 -16 21 -30 25 -30 4 0 8 -9 8 -20 0
-11 -4 -20 -10 -20 -5 0 -10 7 -10 15 0 8 -9 15 -20 15 -11 0 -20 5 -20 11 0
13 -25 39 -39 39 -6 0 -20 14 -33 30 -12 17 -28 30 -35 30 -7 0 -13 5 -13 10
0 22 53 9 80 -20z"/>
<path d="M1535 2610 c-3 -5 -1 -10 4 -10 6 0 22 -10 36 -22 19 -16 25 -31 25
-62 l0 -40 22 21 c18 19 20 26 11 46 -8 17 -8 28 -1 35 17 17 -16 42 -56 42
-19 0 -38 -4 -41 -10z"/>
<path d="M1584 2443 c-3 -10 -10 -26 -15 -35 -5 -10 -7 -23 -5 -30 14 -47 17
-51 27 -41 12 12 49 6 49 -8 0 -5 16 -9 35 -9 19 0 35 -4 35 -10 0 -5 7 -10
16 -10 9 0 28 -8 42 -18 44 -29 82 -46 89 -39 10 11 -50 57 -74 57 -13 0 -23
5 -23 10 0 6 -9 10 -20 10 -11 0 -20 5 -20 10 0 6 -11 10 -24 10 -14 0 -28 5
-31 10 -3 6 -19 10 -35 10 -35 0 -46 25 -25 56 8 13 15 28 15 34 0 17 -30 11
-36 -7z"/>
<path d="M2002 2423 c2 -10 11 -19 21 -21 16 -3 17 -1 5 17 -16 25 -31 27 -26
4z"/>
<path d="M2016 2305 c-6 -18 2 -45 15 -45 5 0 9 14 9 30 0 32 -14 40 -24 15z"/>
<path d="M1534 2264 c3 -9 6 -18 6 -20 0 -2 5 -4 10 -4 6 0 10 9 10 20 0 12
-7 20 -16 20 -11 0 -14 -5 -10 -16z"/>
<path d="M1882 2243 c7 -33 138 -84 138 -53 0 6 -9 10 -19 10 -11 0 -23 5 -26
10 -3 6 -15 10 -26 10 -10 0 -19 3 -19 8 0 4 -12 12 -26 19 -21 10 -25 9 -22
-4z"/>
<path d="M1513 2224 c-7 -7 -13 -20 -13 -28 0 -8 6 -16 13 -19 8 -3 5 -10 -10
-22 -17 -12 -23 -26 -22 -53 0 -31 2 -34 9 -16 5 12 13 25 19 29 6 3 11 15 11
26 0 10 5 19 10 19 12 0 14 67 3 73 -5 3 -14 -1 -20 -9z"/>
<path d="M2060 2236 c0 -2 7 -7 16 -10 8 -3 12 -2 9 4 -6 10 -25 14 -25 6z"/>
<path d="M2060 2192 c0 -4 5 -13 12 -20 18 -18 28 -15 28 8 0 13 -7 20 -20 20
-11 0 -20 -4 -20 -8z"/>
<path d="M3095 2143 c-3 -21 -9 -66 -12 -100 -5 -64 3 -77 27 -48 10 12 10 19
2 27 -15 15 -16 58 -2 58 6 0 10 7 10 15 0 8 5 24 12 34 9 15 9 23 -1 35 -20
24 -28 19 -36 -21z"/>
<path d="M2100 2134 c0 -9 61 -64 71 -64 5 0 9 7 9 15 0 8 -4 15 -9 15 -5 0
-11 9 -14 20 -3 14 -14 20 -31 20 -14 0 -26 -3 -26 -6z"/>
<path d="M1426 2065 c-3 -9 -6 -37 -6 -61 0 -34 4 -44 16 -44 12 0 15 7 12 24
-4 19 -1 22 14 18 14 -3 18 1 18 22 0 16 -7 29 -17 33 -10 4 -21 11 -24 16 -3
5 -9 1 -13 -8z"/>
<path d="M2160 2028 c0 -7 14 -29 30 -48 16 -19 30 -41 30 -47 0 -22 16 -14
29 13 13 30 1 54 -28 54 -9 0 -23 9 -31 20 -16 23 -30 26 -30 8z"/>
<path d="M1380 1920 c0 -11 5 -20 10 -20 6 0 10 -9 10 -20 0 -11 -4 -20 -10
-20 -5 0 -10 -14 -10 -31 0 -17 -4 -28 -10 -24 -6 4 -10 -5 -10 -19 0 -14 -5
-26 -10 -26 -6 0 -5 -8 2 -19 14 -22 30 -18 26 7 -2 20 20 89 39 118 16 25 10
45 -17 62 -17 11 -20 10 -20 -8z"/>
<path d="M2244 1919 c-4 -7 2 -20 14 -30 12 -9 22 -22 22 -28 0 -6 33 -44 73
-85 78 -80 147 -155 147 -162 0 -7 93 -94 101 -94 5 0 14 -9 21 -20 7 -11 18
-20 25 -20 7 0 13 -4 13 -10 0 -6 37 -10 90 -10 50 0 90 3 90 8 0 10 50 32 73
32 26 0 46 -28 47 -62 0 -30 19 -78 31 -78 16 0 19 19 4 33 -18 19 -20 44 -3
49 9 3 6 17 -11 50 -22 44 -22 68 0 68 6 0 28 18 49 40 21 22 46 40 54 40 9 0
16 8 16 20 0 11 5 20 10 20 6 0 10 10 10 23 0 19 -5 17 -43 -23 -72 -75 -139
-130 -166 -137 -14 -3 -33 -14 -42 -25 -9 -10 -24 -18 -33 -18 -9 0 -16 -4
-16 -10 0 -13 -55 -13 -102 1 -22 6 -38 16 -38 25 0 8 -8 18 -17 21 -21 8
-108 95 -146 146 -15 20 -35 37 -43 37 -7 0 -14 4 -14 8 0 5 -31 41 -69 80
-38 40 -71 76 -73 80 -2 4 -17 15 -35 25 -23 13 -34 14 -39 6z"/>
<path d="M1720 1770 c0 -5 10 -10 23 -10 18 0 19 2 7 10 -19 13 -30 13 -30 0z"/>
<path d="M3725 1770 c-11 -5 -39 -9 -62 -9 -24 -1 -43 -5 -43 -11 0 -6 39 -10
97 -10 l97 0 -22 20 c-23 22 -36 23 -67 10z"/>
<path d="M3820 1754 c0 -14 31 -34 54 -34 14 0 26 -3 26 -7 0 -9 49 -33 67
-33 7 0 13 -4 13 -10 0 -5 7 -10 15 -10 17 0 52 -18 73 -37 7 -7 17 -13 21
-13 4 0 18 -9 31 -20 13 -11 31 -20 42 -20 10 0 18 -7 18 -15 0 -8 7 -15 15
-15 8 0 33 -18 55 -40 22 -22 45 -40 51 -40 13 0 48 -36 79 -80 13 -19 32 -42
42 -51 10 -9 18 -24 18 -33 0 -9 5 -16 10 -16 6 0 10 -9 10 -20 0 -11 5 -20
10 -20 6 0 10 -9 10 -20 0 -11 5 -20 10 -20 6 0 10 -18 10 -39 0 -22 5 -43 10
-46 6 -4 10 -68 10 -161 0 -96 -4 -154 -10 -154 -5 0 -10 -11 -10 -25 0 -14
-4 -33 -9 -43 -35 -69 -51 -105 -51 -114 0 -5 -7 -16 -15 -24 -8 -9 -18 -27
-22 -42 -3 -15 -14 -34 -25 -43 -10 -9 -18 -21 -18 -28 0 -6 -4 -11 -10 -11
-5 0 -10 -5 -10 -11 0 -14 -93 -104 -130 -126 -17 -9 -30 -21 -30 -25 0 -4
-13 -8 -30 -8 -16 0 -30 -4 -30 -10 0 -5 -6 -10 -13 -10 -7 0 -32 -9 -55 -20
-22 -11 -57 -20 -76 -20 -19 0 -38 -5 -41 -10 -3 -6 -24 -10 -45 -10 -21 0
-42 -4 -45 -10 -9 -14 -48 -12 -64 2 -11 10 -14 10 -18 1 -5 -15 -43 -18 -43
-4 0 15 -32 22 -46 10 -19 -16 0 -39 32 -39 12 0 26 -4 29 -10 8 -13 65 -13
65 0 0 6 22 10 49 10 28 0 53 5 56 10 3 6 22 10 41 10 19 0 34 5 34 10 0 6 17
10 39 10 22 0 44 6 51 15 7 8 25 15 40 15 15 0 33 7 40 15 7 8 21 15 31 15 11
0 19 5 19 10 0 6 7 10 15 10 8 0 32 18 54 40 22 22 44 40 50 40 5 0 13 9 16
20 3 11 11 20 16 20 5 0 9 7 9 15 0 8 9 20 20 27 11 7 20 18 20 25 0 7 5 13
10 13 6 0 10 9 10 19 0 11 4 21 8 23 9 3 72 131 72 145 0 5 9 15 20 23 14 10
20 26 20 55 0 23 5 46 11 52 8 8 7 17 -2 34 -9 17 -9 24 0 27 14 5 15 218 1
227 -5 3 -10 26 -10 51 0 24 -4 44 -8 44 -4 0 -8 16 -9 35 -1 28 -11 44 -52
84 -28 27 -51 54 -51 60 0 5 -13 22 -30 38 -16 15 -30 36 -30 45 0 10 -4 18
-10 18 -5 0 -10 -4 -10 -10 0 -5 -4 -10 -10 -10 -5 0 -10 7 -10 16 0 18 -24
44 -41 44 -6 0 -25 14 -41 30 -15 17 -34 30 -41 30 -7 0 -18 9 -25 20 -7 11
-21 20 -32 20 -11 0 -20 5 -20 10 0 6 -9 10 -20 10 -11 0 -20 7 -20 16 0 11
-6 14 -20 9 -11 -4 -20 -2 -20 4 0 6 -9 11 -20 11 -11 0 -20 5 -20 10 0 6 -9
10 -19 10 -11 0 -21 3 -23 8 -11 24 -138 67 -138 46z"/>
<path d="M1035 1730 c-3 -5 -22 -10 -41 -10 -19 0 -34 -4 -34 -10 0 -5 23 -10
50 -10 28 0 50 5 50 10 0 6 7 10 15 10 8 0 15 5 15 10 0 6 -11 10 -24 10 -14
0 -28 -4 -31 -10z"/>
<path d="M1200 1724 c0 -9 9 -18 20 -21 11 -3 20 -9 20 -14 0 -5 6 -9 14 -9 8
0 17 -9 21 -19 6 -20 58 -36 63 -20 6 15 42 10 42 -6 0 -8 5 -15 10 -15 6 0
10 5 10 10 0 6 9 10 19 10 19 0 35 23 24 34 -4 3 -16 6 -28 6 -33 0 -75 23
-75 43 0 24 -37 22 -52 -3 -7 -11 -16 -20 -19 -20 -4 0 -9 9 -12 20 -6 25 -57
29 -57 4z"/>
<path d="M1817 1728 c-3 -11 65 -88 78 -88 16 0 0 36 -30 65 -38 39 -41 40
-48 23z"/>
<path d="M1113 1723 c-27 -10 -11 -23 27 -23 40 0 53 13 24 24 -18 7 -33 7
-51 -1z"/>
<path d="M863 1686 c-13 -6 -23 -14 -23 -18 0 -5 -13 -8 -30 -8 -16 0 -30 -4
-30 -10 0 -5 -7 -10 -16 -10 -22 0 -130 -55 -156 -80 -12 -11 -26 -20 -31 -20
-11 0 -37 -26 -37 -37 0 -4 -9 -14 -20 -21 -11 -7 -20 -18 -20 -25 0 -7 -9
-19 -20 -27 -11 -8 -20 -20 -20 -28 0 -7 -11 -24 -24 -37 -14 -13 -27 -34 -31
-45 -3 -11 -10 -20 -14 -20 -18 0 -32 -53 -45 -168 -3 -18 -9 -38 -14 -45 -6
-7 -12 -46 -14 -87 -2 -41 -7 -78 -12 -81 -4 -4 -2 -17 4 -30 10 -17 10 -24 1
-27 -14 -5 -15 -62 -1 -62 6 0 10 -29 10 -67 1 -43 6 -75 15 -87 8 -11 12 -29
9 -43 -5 -19 -2 -23 19 -23 20 0 24 -4 20 -20 -3 -11 -9 -20 -14 -20 -5 0 -9
-4 -9 -10 0 -5 7 -10 15 -10 19 0 56 -31 49 -41 -3 -5 4 -26 15 -48 21 -40 41
-61 41 -42 0 6 5 11 11 11 8 0 8 -5 -1 -15 -11 -13 -9 -19 11 -36 13 -11 31
-18 41 -16 11 3 18 0 18 -10 0 -8 14 -28 32 -45 25 -23 38 -28 60 -24 23 5 28
2 28 -14 0 -13 7 -20 20 -20 11 0 20 -4 20 -10 0 -14 38 -12 43 3 4 13 -46 67
-63 67 -5 0 -10 5 -10 10 0 6 -11 10 -25 10 -14 0 -25 4 -25 9 0 5 -9 7 -20 4
-15 -4 -20 0 -20 15 0 11 -12 28 -28 38 -36 23 -112 105 -112 122 0 4 -9 18
-20 32 -11 14 -20 32 -20 41 0 9 -9 19 -21 22 -17 5 -20 11 -14 36 5 24 2 32
-15 41 -15 8 -18 15 -12 27 11 19 3 106 -11 114 -5 4 -7 19 -3 35 4 16 9 70
11 119 3 52 13 117 25 155 11 36 20 80 20 98 0 17 5 32 10 32 6 0 10 10 10 23
0 13 9 33 20 45 11 12 20 27 20 34 0 8 9 20 20 28 11 8 20 20 20 28 0 17 134
149 160 157 11 3 20 11 20 16 0 5 9 9 20 9 11 0 20 5 20 10 0 6 7 10 16 10 8
0 22 7 31 16 9 8 22 13 30 9 9 -3 23 3 32 13 9 10 37 25 64 32 26 8 47 18 47
22 0 11 -51 8 -77 -6z"/>
<path d="M1460 1620 c0 -11 5 -20 12 -20 6 0 8 3 5 7 -4 3 1 12 11 19 16 12
15 13 -5 14 -16 0 -23 -6 -23 -20z"/>
<path d="M1260 1604 c0 -8 5 -25 11 -37 9 -16 9 -22 0 -25 -14 -5 -15 -42 -1
-42 6 0 10 9 10 20 0 11 5 20 10 20 6 0 10 11 10 25 0 14 -4 25 -10 25 -5 0
-10 7 -10 15 0 8 -4 15 -10 15 -5 0 -10 -7 -10 -16z"/>
<path d="M1500 1590 c0 -5 5 -10 10 -10 6 0 10 -7 10 -16 0 -9 9 -18 19 -21
11 -3 21 -17 25 -33 3 -16 26 -49 51 -75 25 -26 49 -54 55 -63 9 -16 9 -16 10
0 0 11 5 15 15 12 10 -4 13 -13 9 -26 -6 -22 10 -60 39 -92 9 -11 17 -26 17
-34 0 -9 7 -13 20 -9 15 4 20 0 20 -13 0 -11 -4 -22 -10 -25 -16 -10 -12 -25
6 -25 10 0 14 -5 10 -15 -3 -9 0 -25 7 -36 10 -16 9 -21 -2 -28 -10 -6 -11
-18 -6 -42 11 -49 14 -248 4 -255 -5 -3 -9 -14 -9 -25 0 -10 -4 -19 -10 -19
-5 0 -10 -9 -10 -20 0 -11 -4 -20 -10 -20 -5 0 -10 -9 -10 -19 0 -11 -4 -23
-10 -26 -5 -3 -10 -20 -10 -37 0 -20 -9 -39 -30 -58 -16 -15 -30 -35 -30 -44
0 -9 -8 -16 -20 -16 -13 0 -20 -7 -20 -20 0 -11 -4 -20 -9 -20 -5 0 -13 -9
-16 -20 -3 -11 -11 -20 -16 -20 -6 0 -28 -18 -49 -40 -20 -21 -66 -54 -101
-71 -35 -18 -73 -41 -83 -51 -20 -18 -20 -18 2 -18 26 0 72 20 72 32 0 4 9 8
20 8 11 0 20 5 20 10 0 6 7 10 16 10 8 0 21 6 29 12 7 7 40 36 73 63 33 28 66
61 73 75 8 14 31 42 51 62 21 21 38 44 38 52 0 8 5 16 11 18 6 2 13 15 15 28
9 57 18 85 35 103 16 18 23 44 34 127 8 57 5 174 -4 180 -5 3 -10 39 -13 80
-2 44 -11 89 -21 109 -9 19 -17 42 -17 53 0 10 -4 18 -10 18 -5 0 -10 7 -10
15 0 8 -4 15 -10 15 -5 0 -10 7 -10 15 0 8 -4 15 -10 15 -5 0 -10 11 -10 24 0
26 -51 68 -58 48 -6 -18 -22 -14 -22 4 0 18 -25 46 -34 37 -3 -4 -6 3 -6 15 0
12 -9 26 -20 32 -11 6 -19 14 -19 18 3 17 -2 29 -25 55 -23 26 -56 37 -56 17z"/>
<path d="M1960 1550 c0 -5 5 -10 10 -10 6 0 10 5 10 10 0 6 -4 10 -10 10 -5 0
-10 -4 -10 -10z"/>
<path d="M1999 1523 c-13 -15 -12 -15 11 -3 34 17 36 20 18 20 -9 0 -22 -7
-29 -17z"/>
<path d="M2040 1515 c0 -3 14 -19 30 -37 17 -17 30 -35 30 -40 0 -5 27 -36 60
-68 33 -32 60 -61 60 -64 0 -4 8 -15 18 -25 9 -10 29 -33 44 -50 15 -17 35
-31 43 -31 8 0 15 -4 15 -10 0 -5 7 -10 16 -10 9 0 18 -9 21 -19 5 -20 43 -37
43 -19 0 11 -60 68 -72 68 -10 0 -108 102 -108 112 0 13 -49 56 -66 60 -10 2
-26 19 -37 38 -10 19 -23 37 -28 38 -5 2 -9 8 -9 13 0 12 -37 49 -50 49 -5 0
-10 -2 -10 -5z"/>
<path d="M3240 1500 c0 -11 5 -20 10 -20 6 0 10 9 10 20 0 11 -4 20 -10 20 -5
0 -10 -9 -10 -20z"/>
<path d="M1222 1468 c-7 -7 -12 -21 -12 -32 0 -19 2 -19 25 6 14 15 25 30 25
33 0 10 -26 5 -38 -7z"/>
<path d="M3200 1435 c0 -14 5 -25 10 -25 6 0 10 -7 10 -15 0 -8 -3 -15 -7 -15
-17 0 -33 -58 -33 -117 0 -35 -4 -63 -10 -63 -6 0 -10 -32 -10 -75 0 -50 -4
-77 -13 -82 -10 -6 -12 -27 -7 -81 4 -61 2 -76 -12 -89 -12 -11 -25 -13 -45
-7 -39 11 -143 13 -143 3 0 -13 -38 -11 -42 2 -3 9 -20 9 -69 0 -36 -6 -80
-11 -97 -11 -26 0 -32 -4 -32 -21 0 -19 4 -20 48 -14 26 4 119 9 206 10 174 3
186 0 186 -52 0 -15 9 -39 20 -53 11 -14 20 -33 20 -43 0 -23 19 -60 36 -69 6
-5 10 -17 7 -28 -6 -21 10 -42 41 -53 12 -5 17 -14 13 -27 -3 -10 1 -24 8 -30
8 -6 11 -18 8 -26 -3 -8 1 -14 11 -14 10 0 16 -9 16 -22 1 -28 17 -51 49 -67
19 -11 25 -11 32 0 4 7 12 10 16 5 4 -5 2 -11 -4 -13 -22 -8 -15 -32 7 -26 16
4 23 -1 32 -25 16 -43 88 -55 88 -15 0 16 -48 63 -63 63 -12 0 -32 22 -40 43
-7 18 -37 24 -37 7 0 -5 -10 -10 -21 -10 -17 0 -20 5 -17 25 3 13 1 22 -4 19
-17 -11 -38 25 -38 68 0 32 -5 46 -20 56 -11 7 -20 21 -20 32 0 11 -3 20 -7
20 -9 0 -33 49 -33 67 0 7 -4 13 -10 13 -5 0 -10 9 -10 19 0 11 -4 23 -10 26
-5 3 -10 22 -10 41 0 27 -4 34 -20 34 -23 0 -25 6 -7 25 10 10 45 13 126 13
61 -1 114 2 118 6 13 12 -8 20 -49 17 -25 -1 -44 3 -49 11 -6 10 -13 9 -33 -2
-20 -10 -31 -11 -52 -2 -14 7 -29 10 -34 7 -4 -3 -15 -2 -23 1 -18 7 -16 52 2
63 8 6 10 23 5 59 -4 31 -2 57 4 64 12 16 20 63 32 188 5 52 12 114 16 137 4
31 2 47 -9 58 -22 21 -27 19 -27 -10z"/>
<path d="M1180 1390 c0 -5 5 -10 10 -10 6 0 10 5 10 10 0 6 -4 10 -10 10 -5 0
-10 -4 -10 -10z"/>
<path d="M1160 1350 c0 -5 5 -10 10 -10 6 0 10 5 10 10 0 6 -4 10 -10 10 -5 0
-10 -4 -10 -10z"/>
<path d="M2923 1305 c-3 -9 -3 -18 0 -21 9 -9 27 6 27 22 0 19 -19 18 -27 -1z"/>
<path d="M1120 1295 c0 -8 5 -15 10 -15 6 0 10 7 10 15 0 8 -4 15 -10 15 -5 0
-10 -7 -10 -15z"/>
<path d="M3105 1279 c-10 -15 1 -23 20 -15 9 3 13 10 10 16 -8 13 -22 13 -30
-1z"/>
<path d="M2916 1244 c-9 -22 -8 -24 9 -24 8 0 15 9 15 20 0 24 -15 27 -24 4z"/>
<path d="M3075 1230 c-3 -5 1 -10 9 -10 9 0 16 5 16 10 0 6 -4 10 -9 10 -6 0
-13 -4 -16 -10z"/>
<path d="M1100 1211 c0 -5 7 -14 15 -21 13 -10 15 -9 15 9 0 12 -6 21 -15 21
-8 0 -15 -4 -15 -9z"/>
<path d="M1080 1130 c0 -16 4 -30 9 -30 5 0 11 14 13 30 3 20 0 30 -9 30 -8 0
-13 -12 -13 -30z"/>
<path d="M2860 1151 c0 -6 5 -13 10 -16 6 -3 10 1 10 9 0 9 -4 16 -10 16 -5 0
-10 -4 -10 -9z"/>
<path d="M3013 1145 c-7 -8 -10 -21 -7 -29 8 -20 34 -21 34 -2 0 8 3 21 6 30
8 20 -16 21 -33 1z"/>
<path d="M3700 1130 c0 -5 5 -10 10 -10 6 0 10 5 10 10 0 6 -4 10 -10 10 -5 0
-10 -4 -10 -10z"/>
<path d="M2880 1104 c0 -8 6 -21 13 -28 15 -14 67 -19 67 -6 0 6 -9 10 -20 10
-11 0 -20 6 -20 14 0 8 -7 17 -16 20 -22 9 -24 8 -24 -10z"/>
<path d="M3732 1100 c-11 -18 -10 -20 8 -20 22 0 27 -16 8 -22 -8 -3 0 -17 20
-39 l32 -34 0 28 c0 15 -4 27 -10 27 -5 0 -10 10 -10 23 -1 20 -21 57 -31 57
-2 0 -10 -9 -17 -20z"/>
<path d="M2460 1088 c1 -23 27 -48 50 -48 12 0 24 -7 26 -17 3 -10 21 -28 40
-41 19 -12 38 -30 41 -40 7 -17 63 -72 74 -72 4 0 9 6 12 14 6 16 -84 116
-105 116 -7 0 -20 9 -28 20 -8 11 -20 20 -27 20 -6 0 -15 9 -18 20 -3 11 -15
20 -26 20 -10 0 -19 5 -19 10 0 6 -4 10 -10 10 -5 0 -10 -6 -10 -12z"/>
<path d="M2970 1090 c0 -5 7 -10 15 -10 8 0 15 5 15 10 0 6 -7 10 -15 10 -8 0
-15 -4 -15 -10z"/>
<path d="M1040 1070 c0 -5 9 -10 20 -10 11 0 20 5 20 10 0 6 -9 10 -20 10 -11
0 -20 -4 -20 -10z"/>
<path d="M1009 1025 c-12 -20 -19 -65 -10 -65 5 0 18 -3 28 -6 11 -4 14 -3 6
3 -6 4 -13 24 -15 43 -2 19 -6 31 -9 25z"/>
<path d="M3820 975 c0 -26 15 -58 38 -83 10 -11 15 -11 28 3 15 14 14 18 -11
39 -20 17 -25 29 -20 45 5 17 2 21 -14 21 -16 0 -21 -6 -21 -25z"/>
<path d="M1000 909 c0 -5 5 -7 10 -4 6 3 10 8 10 11 0 2 -4 4 -10 4 -5 0 -10
-5 -10 -11z"/>
<path d="M3820 875 c0 -8 5 -15 10 -15 6 0 10 7 10 15 0 8 -4 15 -10 15 -5 0
-10 -7 -10 -15z"/>
<path d="M3483 872 c-29 -2 -43 -8 -43 -18 0 -10 12 -14 40 -14 22 0 40 5 40
10 0 13 37 13 45 0 4 -6 13 -7 24 -1 9 5 54 11 99 12 45 2 82 7 82 12 0 7
-177 7 -287 -1z"/>
<path d="M3533 253 c-26 -10 -13 -33 17 -33 17 0 30 -4 30 -10 0 -5 14 -10 30
-10 40 0 39 24 -2 44 -31 16 -52 19 -75 9z"/>
<path d="M1246 231 c-4 -6 -20 -11 -37 -11 -16 0 -29 -4 -29 -9 0 -4 -26 -9
-57 -9 -32 0 -59 -5 -61 -11 -4 -13 -59 -15 -66 -2 -3 5 -33 9 -67 10 -34 0
-77 6 -96 13 -24 9 -39 9 -50 2 -25 -16 -27 -34 -4 -34 11 0 23 -4 26 -10 9
-15 142 -13 149 3 3 6 4 3 3 -8 -2 -17 5 -20 41 -23 25 -2 42 1 42 7 0 6 22
11 50 11 28 0 50 5 50 10 0 6 22 10 49 10 27 0 51 5 53 10 2 6 14 11 28 11 47
1 70 9 70 24 0 18 -41 20 -58 3 -10 -10 -15 -10 -21 1 -6 9 -11 10 -15 2z"/>
</g>
</svg>
