<?xml version="1.0" encoding="utf-8"?>
<!-- Generator: Adobe Illustrator 18.1.1, SVG Export Plug-In . SVG Version: 6.00 Build 0)  -->
<svg version="1.1" id="Ebene_1" xmlns="http://www.w3.org/2000/svg" xmlns:xlink="http://www.w3.org/1999/xlink" x="0px" y="0px"
	 width="250px" height="250px" viewBox="-18 -60 250 250" enable-background="new -18 -60 250 250" xml:space="preserve">
<g>
	<path d="M66.8,63.5c0.2,0.5,0.8,0.5,1.2,0.8c0.8,0.6,1.9,1.2,0.7,2.4c-0.4,0.5-0.1,0.7,0.4,0.9c1,0.4,1.9,0.9,2.9,1.2
		c0.9,0.3,1.7,0.9,2.3,1.5c1.3,1.3,1.2,1.7,0.1,3.1c-3.7,4.5-7.4,8.9-11,13.4c-1.1,1.3-1,1.7,0.3,2.8c1.2,0.9,2.2,2.1,4,1.9
		c0.7-0.1,1.2,0.6,1.7,1c0.4,0.5,0.2,1.1-0.4,1.3c-0.9,0.2-1.7,0.7-2.4,1.1c-1.4,0.8-2.8,0.4-4-0.1c-1.9-0.8-3.8-1.3-5.7-2.1
		c-2.6-1.1-2.3-2-1.5-4.3c1.1-3.2,3.5-5.5,5.3-8.1c1.2-1.7,2.4-3.4,3.5-5.1c0.4-0.6,0.3-1-0.3-1.4c-0.7-0.4-1.3-0.9-2-1.2
		c-1.4,3-3.5,5.3-6.1,7.2c-3.9,2.8-7.7,5.7-10.1,10c-1.6,2.7-3.9,4.5-7,5.2c-1.1,0.3-1.7-0.2-1.5-1.4c0.3-2.1,1.4-4,2.7-5.6
		c0.4-0.4,1-0.4,1.6-0.2c-0.7,1.5-1.5,3-2.2,4.5c-0.2,0.4-0.5,1,0,1.4c0.5,0.3,0.8-0.3,1.1-0.5c1.6-1.1,2.7-2.6,3.7-4.3
		c1-1.8,2.6-3.2,3.9-4.9c1.7-2.3,4.4-3.2,6.4-5c2.2-2,4.2-4.2,5.8-6.8c0.1-0.1,0-0.3-0.1-0.5c-1.7,1.4-3.7,2.2-5,4.1
		c-0.3,0.4-1,0.7-1.6,1.1c-1.8,1.4-3,3.3-4.7,4.7c-1.8,1.5-3.6,3.1-5.5,4.5c-2.6,1.8-5.4,1.8-8.2,0.6c-0.2-0.1-0.8-0.6-0.8,0.1
		c0,1.6-1.3,2-2.3,2.7c-1.1,0.7-2,1.8-3.1,2.5c-1.1,0.8-0.8,1.9,0.3,2.5c0.7,0.4,1.4,0.7,2,1.2c0.6,0.5,1.3,1.1,1.1,1.9
		c-0.2,0.8-1.1,1.5-2,1.6c-1,0.1-2.1,0.1-3-0.4c-2.2-1.1-3.9-2.8-5.5-4.5c-1.8-2-1.8-1.9,0.1-3.9c1.6-1.7,3.6-3.1,5.1-5.1
		c-1.1-0.2-2.1-0.3-3.1-0.5c-0.5-0.1-0.9-0.3-1-0.8c-0.1-0.5,0.3-0.7,0.7-0.9c3.8-2.1,6.7-5.4,10.2-7.8c3.1-2.2,5-5.5,7.4-8.2
		c1.1-1.2,2.2-2.4,3-3.8c2.1-3.5,4.1-7.2,4-11.4c-0.1-2.5,0.3-4.9,0.6-7.4c0.3-2.7,1-5.4,3.2-7.2c1.3-1,2.4-2.2,3.5-3.4
		c1.1-1.2,0.9-2.5,0.5-3.7c-0.7-2.1-1.7-4.1-3.9-4.9c-2.5-0.9-5-0.9-7.2,0.7c-0.9,0.7-0.9,2.1-0.5,3.4c1,3.8,3.5,6,7.3,7
		c0.1,0,0.2,0.1,0.4,0.2c-1.4,1-2.8,0.5-3.8-0.2c-1.9-1.2-3.9-2.3-4.8-4.6c-0.3-0.8-0.9-1.6-0.9-2.5c-0.1-2.9,0.8-4.2,3.6-5
		c3.3-1,6.4-0.9,9.2,1.5c1.6,1.3,3,5.1,2.5,7c-0.2,0.7-0.8,1.2-1.3,1.7c-0.5,0.5-0.9,1.1-1.2,1.8c0.3,0.2,0.6,0.3,0.9,0.3
		c1.8-0.1,3.3,0.6,4.4,2c0.6,0.7,1.2,0.8,2,0.5c2-0.6,4-1.4,5.9-2.1c3.4-1.3,6.6-3.1,9.5-5.4c0.6-0.5,1.3-1.2,2.5-0.3
		c0.9,0.7,2.6,0.2,4,0.2c0.9,0,1.8,0,2.7,0c0.3,0,0.6-0.1,0.7,0.2c0.1,0.4-0.3,0.5-0.5,0.7c-0.2,0.1-0.4,0.2-0.6,0.1
		c-1.5-0.2-2.5,0.4-3.1,1.8c-0.2,0.4-0.4,0.7-0.9,1.3c2.1,0,3.9,0.8,5.9,0.2c1.3-0.4,2.6,0.1,4-0.1c1.2-0.2,1.1-0.8,0.7-1.6
		c-0.6-1.2-1.6-2.2-2.7-2.8c-3.6-2.2-7.4-4.1-11.5-5.3c-0.8-0.2-1.4-0.1-2,0.2c-0.8,0.4-1.5,0.8-2.3,1.2c-1.7,0.8-2.5-0.1-2.8-1.9
		c-0.1-1,0-2,0-2.9c0-2.4-2.1-5-4.4-5.6c-2.8-0.7-4.7,0.4-5.5,3.2c-0.2,0.7-0.5,1.5-0.5,2.2c-0.2,2.2,0.4,4.1,2.4,5.2
		c2.3,1.3,2,3.1,1.1,4.9c-0.5,1.1-1.4,2-2.2,2.9c-0.3,0.4-0.6,0.8-1.1,0.3c-0.5-0.4,0-0.8,0.2-1.1c0.6-1,1.4-1.9,1.7-3.1
		c0.3-1.5-0.2-2.3-1.4-3c-1.7-1-2.7-2.4-2.7-4.3c0-1.5,0.4-2.9,0.7-4.4c0.4-2,1.6-2.9,3.5-3.5c3.7-1.2,6.6,0,9.1,2.5
		c0.7,0.7,1,1.8,0.8,2.9c-0.2,1.2-0.2,2.3,0.1,3.5c0.3,1.3,0.9,1.6,2,0.8c1.6-1.3,3.4-1.4,5.2-0.7c2.1,0.8,4.4,1.4,6.4,2.5
		c2.5,1.4,5,2.9,7,5c0.7,0.7,1,1.8,0.8,2.7c-0.1,0.8-1.2,0.9-1.9,1c-3.1,0.6-6.1,0.9-9.4,0.6c1.6,0.9,1,2.2,1.1,3.5
		c0.3,3.2-0.3,6.4-0.4,9.6c-0.1,4.8-0.3,9.5,0.9,14.2c0.5,2.1,1.6,4.1,2.1,6.2c0.7,2.9,2.2,5.4,3.9,7.8c0.9,1.2,1.9,2.5,2.3,4.1
		c0.3,1.4,1.7,2.2,2,3.7c0.4,1.7,0.9,3.5,1.2,5.2c0.4,1.9-0.2,3.1-2.1,3.7c-3.1,0.9-5.9,2.6-8.8,4c-0.4,0.2-0.8,0.3-1.3,0.4
		c-1.4,0.2-1.8-0.2-1.5-1.6c0.4-2.2,1.7-3.9,3.4-5.2c1-0.7,1-1.3,0.5-2.3c-0.8-1.5-1.9-2.8-2.7-4.2c-2-3.5-3.7-7.2-4.9-11.1
		c-0.2-0.5-0.4-1-0.7-1.5c-1.7-2.2-2.4-4.8-3.3-7.3c-0.6-1.6-1.5-3.2-2.2-4.8c-0.3-0.7-0.8-0.7-1.3-0.3c-0.5,0.4-0.9,0.8-1.3,1.3
		C69.7,63.3,68.4,63.8,66.8,63.5c1.5-1.4,2.9-3,4.5-4.4c1-0.8,3.2-0.2,3.6,0.9c0.7,2,1.9,3.7,2.6,5.7c0.3,1,0.5,2,1,2.9
		c0.7,1.4,1.5,2.8,2.2,4.2c0.9,1.7,1.2,3.7,2,5.5c1.1,2.4,1.9,5,3.6,7.1c1,1.3,1.8,2.6,2.4,4c0.5,1.1,0.3,2-0.8,2.7
		c-1.5,0.9-2.1,2.6-3.2,3.9c-0.3,0.3-0.5,1.1-0.1,1.5c0.3,0.3,0.9,0,1.3-0.2c2.5-1.5,5.3-2.5,8-3.7c1.8-0.8,1.9-1.2,1.6-3.2
		c-0.4-3.1-1.6-5.8-3.2-8.5c-1.5-2.8-3.8-5-5.1-7.9c-2.3-5.5-5.4-10.8-5-17.1c0.2-3.6,0-7.2,0.2-10.8c0.1-3.1,0.4-6.2-0.2-9.3
		c-0.1-0.3,0.2-0.8-0.4-0.8c-0.4,0-0.9-0.2-1.3,0.2c-0.2,0.2-0.4,0.5-0.6,0.7c-2.8,1.6-5.5,3.3-8.4,4.7c-1.2,0.6-2.4,1.3-3.9,1.5
		c-1.1,0.2-2.1,0.9-3.3,1.4c1.4-0.3,2.3,0.2,3,1.2c0.7,1,0.3,2-0.3,2.9c-0.2,0.3-0.3,0.6-0.4,1c-0.5,4.1-3.3,6.8-5.5,10
		C62.6,61.5,64.7,62.6,66.8,63.5z M67.1,66c-1.7-1.1-3.1-1.9-4.5-2.7c-3.3-2-5.2-4.8-5-8.8c0.1-2.6,0.6-3.3,3-3.9
		c0.9-0.2,1.4-0.8,1.6-1.6c0.2-0.8,0.3-1.6,0.4-2.4c0.1-0.8,0.3-1.6-0.7-2.1c-0.3-0.1-0.4-0.9-0.1-0.9c0.7-0.1,0.5-1.4,1.4-1
		c0.5,0.3,0.8,0.1,1.3,0c5-1.6,9.6-4,14-6.9c-0.4-0.3-1-0.4-1.3-0.9c-0.2-0.4-0.4-0.4-0.8-0.1c-3.6,2.1-7.4,3.8-11.4,5
		c-1.8,0.6-3.6,0.8-5.5,0.8c-0.6,0-1.4-0.2-1.4-0.9c0-0.7,0.8-0.3,1.2-0.4c0.1,0,0.1-0.1,0.2-0.2c-0.7-0.8-1.7-0.9-2.6-1.3
		c-1.6-0.6-3-0.3-3.9,1.1c-1.1,1.7-2.1,3.5-2.3,5.5c-0.4,4.4,0,8.8-1.5,13.1c-0.7,2.1-1.5,4.3-2.9,5.9c-2,2.2-3.3,4.9-5.3,7.1
		c-1.2,1.3-2,2.9-3.3,4c-1.6,1.3-3.2,2.6-4.9,3.8c-1.3,0.9-2.3,2-3.6,2.8c-1,0.6-1.7,1.5-2.6,2.2c1.8-0.4,3.2,0.8,4.8,0.7
		c1.8-0.1,3.2,0.8,4.8,1.5c1.3,0.6,2.7,0.7,4.1,0c3.7-1.7,6.6-4.5,9.4-7.4c3-3.1,6.3-5.8,9.8-8.3C61.6,68,64,66.3,67.1,66z
		 M61.2,70.3c0.9,1.2,2.2,1.7,3.3,2.4c1.7,1.1,2,1.9,1,3.4c-0.8,1.4-1.7,2.8-2.8,4.1c-2.4,2.6-4.4,5.4-6,8.5c-0.8,1.5-0.5,2.4,1,3.1
		c1.4,0.6,2.8,1.2,4.3,1.6c1.8,0.4,3.6,0.8,5.5-0.7c-2.2-0.2-3.6-1.4-5-2.7c-1.5-1.4-1.7-2.4-0.6-3.7c3.6-4.5,7.3-9.1,10.9-13.6
		c1-1.2,1-1.4-0.3-2.3c-0.4-0.2-0.8-0.4-1.2-0.6c-1.3-0.6-2.7-1.1-3.9-1.8c-0.5-0.3-1-0.3-1.5-0.2C64,68.2,62.9,69.6,61.2,70.3z
		 M28.3,84.8c0.9,0.5,0.6,0.8,0.1,1.3c-2.1,1.9-3.9,4.1-6.1,5.9c-0.2,0.2-0.7,0.3-0.3,0.7c1.7,1.7,3.2,3.7,5.4,4.8
		c0.7,0.4,1.5,0.3,2.3,0.1c0.4-0.1,0.9-0.4,1-0.9c0.1-0.5-0.5-0.6-0.8-0.8c-0.9-0.5-1.8-0.9-2.6-1.4c-0.6-0.3-0.9-0.8-0.7-1.6
		c0.4-1.6,1.4-2.7,2.6-3.6c1.6-1.1,2.9-2.4,4.4-3.8C31.8,85.2,30.3,84.4,28.3,84.8z M60.4,57.9c1.1-1.2,1.8-2.7,2.7-4
		c1.4-2,1.3-4.5,2.6-6.5c0.3-0.5-0.1-1-0.2-1.4c-0.1-0.2-0.3-0.4-0.5-0.3c-0.3,0-0.3,0.3-0.3,0.5c0.2,1.3-0.5,2.4-0.8,3.6
		c-0.3,1.1-0.8,2.5-2.6,2.3c-0.6-0.1-1.1,0.3-1.3,0.9C59.6,54.6,59.2,56.3,60.4,57.9z M82.7,32.1c-1.6-0.2-2.9-0.5-4.1,0.6
		c-0.4,0.4-0.4,0.6-0.2,1c0.5,0.8,1.6,1,2.3,0.3C81.3,33.4,81.9,32.8,82.7,32.1z"/>
	<path d="M134,74.2c1.3,1.4,2.9,2.3,4.8,2.8c0.6,0.2,0.6-0.3,0.7-0.6c0.5-0.9,0.8-1.8,1.5-2.6c1.6-1.9,3.6-1.6,5.6-1
		c1.7,0.5,3,1.5,3.8,3.1c0.2,0.4,0.7,0.7,1,1c1.1,1.1,2.5,1.8,3.8,2.5c1.4,0.7,1.9,0.4,2-1.1c0.2-2,0.7-4-0.7-5.7
		c-0.2-0.2-0.2-0.4,0-0.6c0.3-0.3,0.6-0.1,0.8,0.1c1.5,1.2,2.2,2.9,1.9,4.6c-0.3,1.6-0.2,3.3-0.9,4.9c-0.9,2.2-2.2,4.1-3.3,6.2
		c-0.8,1.6-1.8,3.1-2.7,4.7c-0.1,0.2-0.3,0.5-0.1,0.7c0.2,0.3,0.6,0.1,0.9,0c0.7-0.3,1.3-0.8,1.8-1.4c2.6-3,5-6,7.6-9
		c1.2-1.4,1.7-3,1.6-4.7c-0.1-2.7-0.8-5.3-2.3-7.7c-0.8-1.2-1.4-2.6-1.9-4c-0.6-1.8-1.5-3.5-3.3-4.6c-1.4-0.8-2.6-2-3-3.7
		c-0.1-0.5-0.4-0.8-0.8-1c-1.1-0.5-0.8-1,0-1.5c1.6-0.9,3.1-1.9,4-3.6c0.7-1.2,1.2-2.4,1.2-3.8c0.1-2.9-2.5-4.9-5.2-3.7
		c-2.1,0.9-4.2,2.1-4.7,4.8c-0.3,1.6-0.2,3,0.6,4.4c1.2,2,1.2,3.4-0.6,4.9c-1.8,1.5-3.9,2.7-6.5,1.6c-1.3-0.5-2.7-0.1-4,0.3
		c-2.7,1-5.2,2.4-7.8,3.5c-0.6,0.3-0.7,0.8-1.2,1.1c-1.7,1.1-3.2,0.4-4.8,0c-0.3-0.1-0.8-0.6-0.7-0.9c0.1-0.5,0.6-0.4,1-0.3
		c1.9,0.1,3.4-0.6,4.9-1.7c1.8-1.4,4.1-1.9,6.2-2.9c2.1-0.9,4.1-1.2,6.4-0.7c3.5,0.8,4.9-1.1,6.1-3.8c0.2-0.5-0.1-0.9-0.4-1.2
		c-1-1.3-1.1-2.8-1.4-4.3c-0.2-0.8,0.5-1.3,0.8-2c1.9-4.5,6.2-5.4,9.4-4.1c2.1,0.9,3.9,3.7,3.9,6c0,2.8-1.2,4.9-3.5,6.5
		c-1.3,0.9-1.3,3,0.1,4.3c0.7,0.6,1.4,1.1,2.1,1.7c2.3,1.8,3.1,4.5,4.2,7c0.5,1.2,1.1,2.4,1.7,3.7c0.6,1.4,1,2.8,1.2,4.4
		c0.2,1.5-0.4,2.8-0.2,4.1c0.1,0.6-0.2,1.1-0.5,1.4c-1.1,1.1-1.6,2.8-3.2,3.6c-0.6,0.3-1.5,1.2-1.4,2.3c0,0.2-0.1,0.3-0.3,0.4
		c-1.6,1-2.6,2.6-3.7,4.1c-1.2,1.6-4.3,2.1-5.9,1c-0.8-0.6-0.4-1.4,0-1.9c0.7-1.3,1.5-2.5,2.4-3.8c1.1-1.7,1.8-3.6,2.8-5.4
		c0.2-0.4,0.4-0.8-0.4-0.8c-1.9,0-3.2-1.1-4.5-2.2c-0.9-0.8-1.7-1.7-2.5-2.5c-1.6-1.6-3.3-2.7-5.7-2.8c-1.1-0.1-1.7,0.3-2.2,1.1
		c-0.3,0.6-0.5,1.3-0.7,1.9c-0.4,1.3-1.4,1.7-2.5,0.9c-2.1-1.5-4.3-2.6-6.4-4c-2.2-1.5-4.3-3.3-6.5-4.8c-2.7-1.9-5.5-3.6-8.4-5.2
		c-0.3-0.1-0.6-0.3-0.9-0.3c-1.4,0.2-1.8-0.6-1.9-1.8c0-0.4-0.2-0.6-0.4-0.8c-1.8-1.1-3.3-2.6-5.3-3.5c-0.7-0.3-1-0.1-1.3,0.4
		c0,0.1-0.1,0.2-0.1,0.2c-0.6,1.1-1.7,2.1-1.6,3.1c0.1,1,1.8,1.2,2.6,2.1c1.5,1.6,3.2,2.1,5.3,1.2c1.2-0.5,2.2,0.3,3.1,0.9
		c2,1.3,3.8,2.8,5.4,4.5c2.8,2.9,5.9,5.4,8.8,8.2c2.6,2.5,5.5,4.7,7.7,7.6c1,1.3,0.9,1.7-0.7,2.2c-1,0.3-2,0.4-3.1,0.2
		c-0.3-0.1-0.7-0.5-0.9,0.1c-0.2,0.5,0,0.9,0.4,1.2c0.4,0.3,0.8,0.3,1.2,0.2c0.7-0.1,1.4,0.1,1.9,0.5c1.8,1.6,4.1,2.2,5.9,3.7
		c1.1,0.9,2,1.9,3,2.9c1.3,1.2,2.3,2.8,3.6,4c3.5,3.2,6,3.1,10.6,1.1c3.5-1.5,6.3-4,8.3-7.2c1-1.7,1.7-3.5,1.8-5.5
		c0-1.6-1.1-2.7-1.9-3.9c-0.6-0.9-1.3-1.6-1.6-2.8c3.7,2.6,6.2,7.1,4.2,11.8c-2.4,5.6-7,8.5-12.3,10.6c-0.4,0.1-0.8,0.2-1.2,0.1
		c-2.5-0.5-5.2-0.7-7.3-2.5c-0.3-0.3-0.6-0.5-1.1-0.8c-0.2,1,0.1,1.7,0.3,2.5c0.3,1.5,0.6,3,0.6,4.5c0.1,1.9,1.5,3.2,2.7,4.6
		c1.8,2.1,3.4,4.5,5.6,6.3c0.7,0.6,1.6,0.9,2.3,1.6c1.8,1.6,2.2,2.7,0.6,4.5c-2,2.4-4.2,4.6-6.6,6.6c-0.8,0.7-1.3,1.5-2.3,1.9
		c-0.5,0.2-1,0.3-1.6,0.2c-1-0.2-1.3-0.6-0.8-1.6c0.9-1.8,2.2-3.3,3-5.1c0.7-1.7,0.2-2.9-1.4-3.7c-1.3-0.7-2.8-0.7-4-1.6
		c-3.1-2.3-5.5-5.2-6.5-9.1c-0.7-2.6-1.5-5.1-2.3-7.7c-0.3-0.8,0.1-1.7,0-2.5c-0.1-0.5-0.2-1.2-0.7-1.4c-0.6-0.2-0.6,0.6-0.9,1
		c-1.3,2.2-2.6,4.3-3.9,6.4c-1.9,3.4-2.5,6.9-1,10.7c0.8,2.2,2.2,4.1,2.3,6.6c0.1,1.7-1,3-2.6,3c-1.7,0-3,0.9-4.3,1.7
		c-1.9,1.2-3.7,2.5-5.7,3.5c-0.7,0.4-1.5,0.5-2.2,0.4c-1.1-0.1-2.2-0.5-2.5-1.5c-0.3-0.9,0.5-1.6,1.2-2.1c1.2-1,2.5-2.1,3.7-3.1
		c2.5-2.1,2.9-3.6,1.8-7.2c-1.3-4.2-2.7-8.5-4.1-12.7c-0.6-1.9-0.1-3.7,0.8-5.2c1.5-2.5,2.9-5.1,4.7-7.5c1.3-1.8,2.3-4,3.4-5.9
		c0.6-1,1.2-2,1.9-2.9c0.2-0.2,0.5-0.2,0.8-0.3c0.6-0.1,1.4-0.3,0.7-1.2c-0.3-0.5-0.1-0.9,0.3-1.4c1.2-1.5,1.1-1.7-0.2-3
		c-3.2-3.2-6.6-6.1-9.9-9.1c-0.7-0.7-1.3-0.7-2.1-0.2c-0.9,0.5-1.9,0.7-3,0.4c-1.3-0.3-2.7,0-4-0.8c-1.1-0.6-1.8-1.6-1.2-2.8
		c0.4-0.8,0.7-1.8,1.7-2.1c0.3-0.1,0.6-0.4,0.7-0.8c-0.4-0.2-0.7-0.1-1,0c-2.2,1.1-3.9,0.2-5.5-1.1c-0.9-0.7-1.7-1.4-2.8-1.8
		c-1.4-0.5-0.7-1.8-0.4-2.3c0.9-1.5,1.2-3.3,2.3-4.7c0.2-0.2,0.2-0.5,0.6-0.4c1.5,0.6,3.1,1.1,4.2,2.5c0.9,1.1,2.4,1.2,3.4,2.2
		c0.2,0.2,0.6,0.3,0.6,0.5c-0.4,2.7,2.4,1.5,3.3,2.7c0.1,0.2,1,0.4,1.4,0.8c1.3,1.4,3,1.7,4.7,2.3c0.4,0.1,1,0.2,0.5,0.9
		c-0.3,0.4,0.1,0.4,0.4,0.4c1,0.2,1.9,0.3,2.3,1.6c0.1,0.6,1.1,1,2.1,1.3c-0.9-1.2-0.6-1.3,0.5-1.6c2.4-0.5,4.6-1.4,6.7-2.6
		c0.5-0.3,1-0.9,1.5-0.3c0.5,0.6,0.8,1.3,0.3,2.1c-0.7,1.4-1.8,2.6-2.6,3.8c-0.2,0.4-0.7,0.7-0.7,1.1c-0.2,1.5-0.8,0.7-1.3,0.3
		c-0.7-2.1,1.2-3.2,2-4.7c-1.6,1-3.5,1.3-5.3,1.8c-0.3,0.1-0.8,0.2-0.5,0.5C131.6,72.5,132.4,73.9,134,74.2z M118.3,134.5
		c0.8,0.2,1.6-0.1,2.2-0.6c1.9-1.3,4.1-2,6-3.4c1.2-0.9,2.5-1.6,4.1-1.5c0.6,0.1,0.9-0.4,1.2-0.8c0.7-1,0.5-2.1,0.1-3
		c-0.8-1.7-1.3-3.4-2.1-5.1c-1.5-2.8-1-5.7-0.2-8.4c0.7-2.4,2.1-4.7,3.6-6.8c1.5-2.2,2.4-4.7,4-6.9c0.3-0.5,0.4-1,1.1-1.1
		c0.7,0,1.1,0.4,1.4,1.1c0.3,0.6,0.3,1.2,0.2,1.7c-0.7,3.1-0.1,6.2,0.6,9.2c1,4.3,2.2,8.5,5.5,11.7c0.8,0.8,1.6,1.5,2.7,1.8
		c1.8,0.5,3.5,1.4,4.9,2.7c1.1,1.1,1.2,2.3,0.6,3.7c-0.3,0.6-0.9,0.9-1.1,1.5c-0.1,0.2-0.4,0.4-0.1,0.7c0.3,0.2,0.5,0,0.7-0.2
		c2-1.9,4.1-3.7,5.6-6c0.6-1,0.7-1.7-0.5-2.3c-3-1.6-5.1-4.2-7.3-6.7c-1-1.2-1.7-2.5-2.9-3.6c-0.7-0.6-1.3-1.5-1.4-2.4
		c-0.1-3.2-1.3-6.2-1.2-9.4c0-0.2-0.1-0.5-0.2-0.6c-2.8-3.6-5.9-6.9-10.9-7.3c-1.8-0.1-2.9-1.2-3.9-2.4c-0.2-0.3-0.3-0.7-0.7-0.8
		c-2.2,3-3.4,6.6-5.4,9.7c-1,1.6-2,3.2-3,4.9c-1.3,2.2-2.3,4.1-1.4,6.8c1.4,4.1,2.7,8.3,3.9,12.5c0.5,1.6,1.1,3.3-0.1,4.9
		c-0.6,0.8-1.4,1.4-2,2.1C121.3,131.8,119.1,132.4,118.3,134.5z M119.3,70.5c-1.1-1-2-1.7-2.9-2.5c-0.5-0.4-1.1-0.2-1.4,0.1
		c-0.7,0.9-1.8,1.4-2.3,2.7C114.9,70.5,116.9,70.5,119.3,70.5z M135.2,87.3c0.2-0.1,0.7-0.2,0.9-0.5c0.3-0.4-0.2-0.6-0.4-0.9
		c-0.3-0.4-0.6-0.8-0.9-1.1c-0.2-0.2-0.4-0.5-0.6-0.2c-0.5,0.6-1.6,1-1.5,1.8c0.1,0.5,1.1,0.8,1.8,0.8
		C134.7,87.2,134.9,87.3,135.2,87.3z"/>
	<path d="M0.7-10c-1.2-0.8-2.4-1.4-3.3-2.3c-1.8-1.8-2.4-3.8-1-6.2c0.3-0.5,0.4-0.7-0.2-1.2c-0.7-0.7-1.1-1.9-1.1-2.9
		c0-2-0.8-3.9-1-5.9C-6-30.2-9-31-10.3-30c-0.4,0.3-0.7,0.7-1.1,1c-1.1,0.7-2.1,0.3-2.4-1c-0.3-1.2,0.7-3.4,1.7-4.2
		c1.3-1.1,2.5-2.4,4.1-2.9c0.2-0.1,0.3-0.3,0.4-0.3c1.7,0.2,1.8-1.3,2.3-2.3c0.5-1.1,1.5-1.8,2.3-2.6c2.1-2.2,4.7-2.3,7.3-1.5
		c1.4,0.4,2.4,1.7,3.3,3c0.5,0.7-0.2,0.9-0.7,1.1c-1.1,0.5-2.1,1-2.8,2.1c-0.7,1.1-0.1,2,0.3,2.8c1.5,3.2,2.3,6.4,2.3,9.9
		c0,0.3,0.1,0.5,0.2,0.8c0.2,0.7,0,1.1-0.9,1.1c-0.9,0-1.8-0.2-2.7-0.5c-2.3-0.6-5.2,0.8-6.1,3.6c0.9-0.6,1.8-1,2.7-1.3
		c0.9-0.2,1.6-0.3,2.6,0C3.7-20.6,5-20.6,6.1-20c2.3,1.3,2.6,4.2,2.1,6c-0.5,2.2-2.2,3.5-4,4.5C3.8-9.2,3.3-9.2,2.9-9.3
		C3.3-7.6,4.6-6.4,5-4.8C5.7-2,7.4-0.3,9.9,1c3.2,1.7,6.5,3.1,10.2,3c0.3,0,0.5,0,0.8,0c0.9,0,1.7-0.1,0.8-1.3
		c3-0.1,5.6-1.3,8.4-1.8c0.6-0.1,0.7-0.4,0.4-1C30-1,29.7-2,29.4-3c-0.2-0.7,0-1.3,0.8-1.4c5-0.9,9.8-2.5,14.8-3.2
		c1-0.1,1.9-0.5,2.9-0.7c1.2-0.3,1.5,0.4,1.6,1.2c0.2,0.8-0.1,1.6-0.5,2.3c-0.9,1.7-1.8,3.2-3.6,4.2c-0.9,0.5-1.6,1.5-2.7,2.1
		c-2.4,1.3-5,1.9-7.6,2.1c-0.6,0-1.1,0-1.6,0.5c-0.6,0.6-1.3,0.7-2,1c-0.9,0.4-1.9,0.6-2.8,1.1c-1.1,0.6-2.6,0.2-3.9,0.2
		c-0.4,0-0.5-0.2-0.6,0.3c-0.4,1.6-1.9,2.2-3.1,2.3c-1.7,0.2-3.3,0.8-5,0.8c-1.9,0-3.8,0-5.7-0.2C9.1,9.4,7.9,9.3,6.5,8.9
		c1.3,3,2.1,6,3,8.8c0.7,2.3,1.4,4.7,1.7,7.2c0.3,2.3,0.4,4.7,0.9,7c0.5,2.3-0.2,4.5-0.6,6.7C10.9,42.5,8.9,46,8,49.8
		c-0.2,0.8-0.4,1.3,0.8,1.3c2.4,0,4.7,0.8,7.1,1.1c0.7,0.1,1.5,0.5,1.5,1.3c0.1,0.9-0.7,1-1.4,1.3c-2.1,1-4.3,0.8-6.4,0.7
		c-1.6,0-3.3-0.3-4.9,0c-0.9,0.2-1.9,0-2.5-0.4c-1.9-1.1-4.1-0.9-6-1.8c-1-0.5-1.8-0.9-1.7-2.3c0-2.1,0.4-4.1,0.9-6.1
		c0.8-3.3,1.4-6.7,2.2-9.9c0.7-2.8,0.8-5.6,1.2-8.4c0.4-2.2,0.3-4.4,0.3-6.5c0-1.4-1-2.6-1.4-4c-0.8-2.7-1.2-5.6-1.5-8.4
		C-3.9,6.8-4,5.9-4.4,5.1c-0.4-0.7-0.3-1.4-0.2-2.1c0.4-2.5,0.2-5,0.8-7.5C-3.2-6.6-1.9-8.2,0-9.5C0.2-9.6,0.4-9.8,0.7-10z
		 M22.2,5.6c-0.5,0-1,0.1-1.4,0.1c-1.6-0.1-3.2,0.1-4.6-0.4c-1.9-0.7-3.8-1.4-5.6-2.2C7.7,1.7,5.1,0,4-3.3C3.3-5,2.8-6.8,2.1-8.3
		C0.1-7.8-1-6.4-1.6-4.6c-0.7,2.2-2.1,4.5-0.3,6.9c0.2,0.2,0,0.5,0,0.8C-2,4-1.9,5-1.8,5.9c0.2,2.8,1,5.4,1.2,8.2
		c0.2,3,1.8,5.2,3.5,7.4c0.3,0.4,0.6,0.7,1.2,0.6c0.4-0.1,0.7,0.3,0.8,0.8c-0.4,0-0.7-0.5-1-0.1c1.1,0.9,0.5,2.1,0.6,3.1
		c0.2,2.4,0.1,4.8-0.2,7.2c-0.3,2.8-1,5.4-1.5,8.2c-0.6,2.9-0.6,5.9-1,8.8c-0.1,0.9,0.3,2.1,0.4,3.1c0,0.5,0.5,0.5,0.8,0.5
		c2,0.2,3.9,0.4,5.9,0.5c2,0,4.1,0.1,6.3-0.6c-1.7-0.7-3.2-0.8-4.7-0.8c-1.5,0-2.9-0.3-4.2-1.3c-0.4-0.4-0.7-0.7-0.5-1.4
		c0.7-2.4,1.4-4.8,2.3-7.1c1-2.5,1.7-5.1,2-7.7c0.5-4.6-0.4-9.1-1.3-13.6C8.1,18.4,7,15.2,5.9,12C5,9.6,4.6,6.9,2,5.5
		C1.6,5.4,1.3,5.1,1,4.9C0.9,4.8,0.7,4.6,0.8,4.4C1,4.1,1.2,4.1,1.4,4.2C2,4.3,2.5,4.6,3,5C4.7,6.5,6.6,7.6,9,7.9
		c3.3,0.3,6.5,0.1,9.7-0.5C20,7.2,21.4,7.2,22.2,5.6z M-11.2-31.7c0.2,0,0.3,0,0.4,0c2.4-1.2,5.3,0.1,6.3,2.6
		c0.6,1.4,0.9,2.9,1.1,4.4c0.1,1.1,0.4,1.2,1.2,0.6c1.3-0.9,2.6-1.5,4.3-1.2c0.7,0.1,1.3,0.2,2,0.4c0.5,0.1,0.7-0.1,0.6-0.5
		c-0.1-1.6-0.2-3.1-0.5-4.7c-0.5-2.3-1.7-4.3-2.4-6.5c-0.3-0.8-0.2-1.4,0.3-2c0.6-0.8,1.2-1.4,2-2C4.4-41,5.2-40.8,5-41.5
		c-0.1-0.4-0.7-0.6-1.1-0.7c-0.5-0.1-1-0.3-1.6-0.2c-2.5,0.1-3.8,1.7-5.1,3.5c-0.8,1.2-1,3.1-3,3.3C-8.3-35.4-9.9-33.9-11.2-31.7z
		 M47.4-5.9c-1.1,0.2-1.9,0.3-2.8,0.4c-4.2,0.6-8.3,1.8-12.4,2.8c-1.6,0.4-1.6,0.5-1,2.1c0.3,0.7,0.5,1.3,0.8,2
		c0.1,0.2,0,0.6,0.4,0.5c1.1-0.5,2.2,0,3.3-0.4c2.1-0.8,4.5-0.7,6.3-2.2c1.1-0.9,2-1.9,3.3-2.5C46.4-3.7,46.7-4.7,47.4-5.9z
		 M1.6,23.6c0,0.4,0,0.9,0,1.3C1.4,29.1,1.4,33.2,0,37.1c-1.4,4.1-2.3,8.3-3.2,12.5c-0.5,2.5,0.3,3.6,2.7,3.6c0.3,0,0.7,0.2,0.6-0.4
		c-0.4-2.3,0.7-4.6,0.5-6.9c-0.1-2.4,0.6-4.7,0.9-7.1c0.2-1.8,0.4-3.5,0.8-5.3C3.2,30.2,3.3,26.8,1.6,23.6z M5-18.9
		c0,0.5,0,0.8-0.5,1c-0.6,0.2-0.4-0.4-0.7-0.6c-0.7-0.7-1.5-1.1-2.5-0.9c-1.3,0.3-2.1,1.3-2.8,2.3c-1.1,1.5-1,2.8,0.4,4
		c0.8,0.6,1.6,1.1,2.3,1.8c0.7,0.7,1.6,0.4,2.1,0c0.6-0.5,1.3-0.9,1.9-1.5C7-14.4,7-17.4,5-18.9z M24.3,4.8c2-0.4,4-0.3,5.9-1.5
		C27.8,2.8,26,3.3,24.3,4.8z"/>
	<path d="M212.3-10.7c0.6,1.4-0.4,2.7-0.1,4c0.7,3.2-0.1,6.5,0.3,9.7c0.5,4.6,0.9,9.3,0.5,14c-0.1,1.7,0.2,3.6,0.9,5.2
		c0.5,1,1.3,1.7,2.3,2.3c0.6,0.4,1.1,1,1.7,1.5c2.3,2.2,5,4,6.8,6.7c0.8,1.3,1.8,2.6,2.5,3.9c1,1.9,0.1,5-1.6,6.4
		c-2.1,1.7-4.4,2.9-6.8,4.1c-0.6,0.3-1.2,0.4-1.6,0c-0.5-0.5,0.1-1.1,0.3-1.6c0.9-2.4,2.3-4.6,3.4-6.9c0.4-0.9,0.2-1.4-0.7-1.7
		c-2-0.6-3.6-2-5.5-2.9c-0.9-0.4-1.8-0.6-2.7-1.1c-1.9-1-3.6-2.3-5-4c-1.5-1.7-3.1-3.4-4.5-5.4c-0.3-0.4-0.5-0.9-0.8-1.4
		c-0.7,1.2-0.7,2.7-1.1,4c-1.2,4.2-2.2,8.4-3.4,12.5c-0.5,1.7-0.7,3.5-1,5.2c-0.3,1.7-1.1,2.9-2.7,3.5c-1.7,0.7-3.6,1.1-5.3,1.8
		c-1.6,0.7-3.2,0.7-4.8,1c-1.9,0.4-3.8,0.6-5.5-0.8c-1-0.8-1-1.7,0.1-2.3c1.5-0.9,3.2-1.2,4.8-1.7c4.3-1.4,6.6-4.4,7.2-8.9
		c0.5-4,0.1-7.9,0.3-11.9c0.1-1.7-0.2-3.5,0.1-5c0.5-2.8,0.9-5.9,2.9-8.1c2.4-2.7,3.5-5.8,4-9.2c0.3-2.4,0.9-4.8,1.5-7.5
		c-2.5,1.5-4.8,2.7-7.2,3.5c-2.7,1-5.5,1.4-8.3,0.8c-2-0.5-3.4-1.9-4.9-3.2c-1-0.8-1.9-1.6-3-2.3c-1.2-0.9-1.2-1.5-0.1-2.5
		c1.6-1.5,3.5-1.3,5.3-0.9c2.5,0.5,4.9,1.3,7.4,0.3c2.3-1,4.4-2.2,6.3-3.7c1.4-1.1,2.7-2.3,4.5-2.7c1.4-0.3,2.4-1.3,2.6-2.6
		c0.3-1.6-0.3-2.8-1.9-3.7c-1.5-0.9-3.1-1.7-4-3.3c-2-3.4-1.1-5.7,1.7-8c0.8-0.6,1.5-1.7,2.9-1.4c1.9,0.4,3.7,0.7,5.1,2.2
		c0.2,0.2,0.3,0.3,0.5,0.4c2,1.1,2.7,2.7,2.1,5c-0.6,2.6,0.8,5.5,3.2,6.5c0.5,0.2,0.9,0.4,1.4,0.5c3.5,0.7,4.9,3.2,6,6.2
		c0.5,1.2,1.2,2.4,1.8,3.6c0.7,1.4,1.5,2.9,1,4.6c0,0,0,0.1,0,0.1c1,2.8,0.3,5.7,0.1,8.5c-0.2,2.6-0.2,5.4-1.6,7.9
		c-0.6,1-1.1,0.9-2,0.4c-2.2-1.3-2.7-3.3-2.3-5.6c0.4-2.8-0.2-5.4-1-7.9c-0.5-1.6-0.4-3.2-0.5-4.8C213.5-8.6,213.3-9.9,212.3-10.7z
		 M217.8,8.1c0.7-0.9,0.5-2.1,0.8-3.2c1-2.9,0.8-6,0.7-8.9c-0.2-3-1.1-6-2.7-8.7c-0.4-0.7-0.7-1.6-1.1-2.3c-0.9-1.7-1.8-3.4-3.8-4.1
		c-2.7-1-5.3-2.1-6.2-5.3c-0.2-0.8-0.5-1.5-0.3-2.2c0.4-1.4-0.1-2.7-0.5-4c-0.5-1.5-4.2-3.2-5.6-2.5c-1.7,0.9-3.3,2.2-3.5,4.2
		c-0.2,1.7,0.8,3.1,2.2,4.2c1.3,1,2.9,1.6,4,3c1.2,1.6,1.3,4.3,0,5.4c-0.7,0.6-1.4,1.2-2.1,1.6c-2.4,1.6-4.9,3.2-7.3,4.8
		c-1.3,0.9-2.8,1.5-4.3,2c-2.4,0.8-4.7-0.1-7-0.6c-1.4-0.3-2.6,0-3.9,0.2c-0.7,0.1-1.1,0.6-0.2,1.3c1.6,1.3,3.2,2.7,4.8,4
		c0.7,0.6,1.5,1,2.5,1c1.5,0,3-0.1,4.4-0.4c2.6-0.6,4.9-1.7,7.1-3.3c1.2-0.9,2.6-0.9,3.9-0.4c1.1,0.5,0.6,1.6,0.7,2.4
		c0.2,0.8-0.1,1.6-0.3,2.4c-0.5,2.2-0.5,4.6-1.1,6.8c-0.6,1.9-1,4-2.4,5.5c-2.8,2.8-3.6,6.4-3.7,10.1c-0.2,4.5,0.1,9.1,0,13.7
		c0,4-1.5,7.4-4.4,10.2c-0.3,0.3-0.6,0.5-1,0.7c-2.3,0.7-4.6,1.5-6.9,2.3c-0.4,0.1-1.4,0-1.1,0.8c0.2,0.5,0.8,1,1.5,0.9
		c0.3,0,0.6,0,0.9-0.1c2.9-0.5,5.7-1.3,8.5-2.2c1.6-0.5,3.3-1.3,3.8-3.1c0.4-1.8,0.5-3.7,1.1-5.6c0.5-1.7,0.5-3.5,0.9-5.2
		c0.8-3.2,2-6.3,2.6-9.5c0.6-3.2,2.2-5.8,3.6-8.6c0.6-1.3,1.6-0.4,2.3-0.4c1,0,0.7,0.9,0.6,1.4c-0.4,1.5-0.4,3-0.7,4.5
		c-0.2,1.7,0.3,3.2,1.5,4.4c0.7,0.7,1.5,1.4,2.1,2.2c1.4,1.7,2.8,3.4,4.8,4.4c3,1.5,6,3,9.1,4.5c0.8,0.4,1.2,0.9,0.9,2.1
		c-0.3,1.5-1.1,2.7-2,3.8c-0.4,0.6-0.5,1.4-0.3,1.9c0.2,0.5,0.9-0.2,1.4-0.2c0.1,0,0.3-0.1,0.4-0.1c2.8-1.3,4.7-3.6,3.6-6.3
		c-0.5-1.3-1.4-2.5-2.2-3.6c-2.3-3.4-5.8-5.9-8.9-8.4c-2.3-1.9-3.4-4.2-3.8-7c-0.4-2.3-0.1-4.6-0.1-6.9c0-2-0.6-3.9-0.6-5.9
		c-0.1-5.7,0-11.3-0.5-16.9c-0.1-0.6,0-1.5,0.9-1.6c1.2-0.2,3.4,1.2,4,2.3c1.8,3.4,1.3,7.3,2.7,10.8C218.1,2.6,217.6,5.5,217.8,8.1z
		"/>
	<path d="M124.8,1.2c0,3.7-0.6,7.4-1.4,11c-0.1,0.4-0.3,0.9-0.5,1.3c-0.7,1.4-2.5,2-4,1.7c-2.3-0.5-4.5-1.2-6.8-1.3
		c-1.4-0.1-2.3-1-2.9-2c-0.4-0.6-0.1-1.3,0.6-1.8c0.9-0.6,1.9-0.8,2.8-0.9c1.2-0.1,1.9-0.7,2.2-1.8c0.4-1.5,0.7-2.9,0.4-4.5
		c-0.2-0.9,0.2-2,0.1-3.1c-0.2-2.7-0.6-5.5,1-8c1.3-2,2.6-4,4.8-5.1c2.3-1.2,4.4-5.4,4.2-8c-0.2-2.7-0.2-5.5-0.4-8.3
		c-0.1-1.2-0.2-2.4-0.4-3.6c-0.2-1.4-1.1-2.1-2.4-2.1c-2-0.1-4-0.4-6-0.1c-0.6,0.1-1.3-0.1-1.9-0.2c-2-0.4-4-0.5-5.9-0.7
		c-2.8-0.3-5.5-1.2-8.1-2.3c-2.5-1-4.8-2.3-6.8-4c-1-0.8-1.5-2-1.4-3.3c0.1-1,0.7-1.5,1.7-1.1c0.5,0.2,1,0.3,1.6,0.3
		c2.2-0.1,4.3,0.2,6.4,0.8c2.8,0.8,5.5,0.9,8.3-0.1c1.6-0.6,3.3,0.2,4.9,0.1c0.9,0,1.8-0.1,2.8,0c2.7,0.2,5.1,1.3,7.5,2.5
		c0.3,0.1,0.6,0.1,0.9,0.2c0.8,0.2,1.8,0.6,2.3-0.2c0.4-0.7-0.4-1.5-0.8-2.1c-0.2-0.3-0.6-0.4-0.5-0.9c0-0.6-0.4-0.8-1-0.7
		c-0.6,0.1-1.1,0-1.5-0.4c-2-2.2-3.5-4.7-3.8-7.7c-0.2-2.4,0.7-3.4,3.2-4.3c3.3-1.1,6.4,0.1,8,3.2c1,1.8,1.9,3.5,1.8,5.7
		c-0.1,1.6,1,2.8,1.7,4.2c0.2,0.4,0.7,0.6,1.2,0.7c3.9,0.2,8-0.1,11.8,0.8c5.8,1.4,11.7,3,16.5,6.7c0.8,0.6,1.6,1.3,2.3,2.1
		c0.5,0.6,0.6,1.3,0.1,2c-0.7,1-2.5,1.7-3.8,1.3c-1.1-0.3-2.1-0.7-3.1-1.2c-3.8-1.9-7.8-3.1-11.9-4.2c-1.7-0.5-3.4-0.8-5.2-0.5
		c-1.9,0.4-2.2,1-2.6,3c-1.2,5.4,0.3,10.6,1.1,15.8c0.6,3.7,2.4,7.2,4.3,10.4c3.5,6,8.3,10.9,13.6,15.3c1.9,1.5,3.3,3.5,4.9,5.2
		c0.6,0.7,0.6,1.4-0.3,1.9c-0.8,0.5-1.5,1-2.5,1.1c-0.5,0-1.1,0.3-1.5,0.7c-2,1.8-4.6,2.5-6.9,3.8c-0.8,0.4-1.8,0.2-2.2-0.7
		c-0.3-0.8-0.2-1.7,0.6-2.4c0.6-0.6,0.9-1.5,1.7-2.1c0.3-0.2,0.2-1.2-0.4-1.8c-2.9-2.7-5.3-5.8-7.8-8.9c-3.1-3.8-6.7-7.3-8.8-11.9
		c-0.9-2.1-1.7-2-3.3-0.4c-2.1,2.1-4.4,4-7.1,5.3c-0.9,0.4-1.4,1.1-1.4,2C124.8-1.1,124.8,0.1,124.8,1.2z M111.2,11.9
		c2.9-0.1,5.1,1,7.4,1.7c1.6,0.5,2.3-0.1,2.6-1.4c0.7-2.5,1-5.2,1.3-7.8c0.2-1.8,0.6-3.5,0.2-5.3c-0.4-2.2,0.8-3.6,2.4-4.8
		c0.9-0.7,1.9-1.4,3-1.8c1.7-0.6,2.6-2.2,4.2-3c1-0.5,1.9-2,2.9-2.9c1.1-1,1.9-0.7,2.4,0.6c1.1,2.6,2.3,5,4,7.2
		c2.6,3.4,5.5,6.5,8.1,9.9c1.7,2.2,3.8,4,5.4,6.2c0.9,1.2,0.8,2.8-0.2,3.9c-0.5,0.6-0.9,1.3-1.4,1.8c-0.3,0.3-0.1,0.4,0.2,0.6
		c0.2,0.1,0.5,0.3,0.6-0.1c0.1-0.8,0.8-1,1.3-1.1c1.3-0.2,2.2-1,3.2-1.7c0.4-0.3,0.7-0.6,1.2-0.4c0.8,0.2,1.3-0.5,2-0.6
		c0.4-0.1,0.7-0.7,0.2-1.3c-1.4-1.7-2.8-3.3-4.5-4.7c-2.4-1.9-5.3-3.6-6.2-7c-0.1-0.2-0.6-0.5-0.9-0.5c-0.3,0-0.6-0.1-0.7-0.3
		c-1.9-2-3.9-3.9-4.9-6.6c-0.6-1.9-1.6-3.7-2.4-5.5c-1.4-2.8-2.7-5.6-2.9-8.8c-0.1-1-0.1-2-0.3-2.9c-0.4-2-0.7-4-0.8-6
		c-0.1-2.2,0-4.3,0.8-6.4c0.6-1.4,1-3,2.7-3.2c2.3-0.3,4.7-0.5,6.9,0.6c1.4,0.7,2.9,0.9,4.3,1.5c1.9,0.7,3.9,0.9,5.6,2.1
		c1.3,0.9,2.9,1.7,4.6,1.9c1,0.2,1.7-0.2,2.2-0.9c0.4-0.6-0.3-1-0.6-1.5c-1.4-1.9-3.6-2.9-5.5-3.7c-5.6-2.4-11.5-4.1-17.6-4.2
		c-1.5,0-3-0.4-4.6,0c-0.5,0.1-1.1,0.2-1.5,0c-1.7-0.9-3.1-2.1-3.6-4.1c-0.6-2.3-0.6-4.6-1.7-6.8c-1.6-3-4.5-3.9-7.4-2.6
		c-0.6,0.3-0.9,0.8-0.9,1.5c0,1.9,0.9,3.6,1.7,5.2c0.7,1.5,1.3,3.3,3.6,3.3c0.1,0,0.3,0.2,0.3,0.4c0.2,1.6,1.3,2.9,1.8,4.4
		c0.3,0.7,0,1.5-0.8,1.6c-1.3,0.1-2.7,0.3-3.8-0.1c-2.9-1.1-5.7-1.9-8.8-2c-2.2,0-4.5-0.6-6.7-0.1c-2.3,0.5-4.6,0.5-6.8-0.1
		c-2.8-0.6-5.5-1-8.4-1.4c-0.8-0.1-0.7,0.2-0.7,0.7c0,0.5,0.4,0.7,0.7,1c3.3,2.5,7.1,3.9,11,4.9c1.8,0.5,3.9,0,5.6,0.5
		c3.5,0.9,7,0.7,10.5,1c1.2,0.1,2.2,0.6,3.1,1.5c1.7,1.8,2,4,1.9,6.3c-0.1,1.7,0.2,3.3,0.3,4.9c0.1,1.6,0.8,3.2,0.6,5
		c-0.4,2.6-0.9,5-3.2,6.7c-1.5,1.1-2.9,2.2-4.1,3.6c-1.7,2.1-3.2,4.3-2.5,7.4c0.4,2-0.3,4-0.2,6.1c0,1.3-0.2,2.6-0.5,3.9
		c-0.6,2.2-1.5,2.9-3.7,3.1C112.6,11.1,112,11.1,111.2,11.9z"/>
	<path d="M79.3,134.3c-0.1-2.8,0-5.4-1.1-8c-1.3,1.8-1,3.7-1.3,5.5c-0.1,0.6,0.5,1.6-0.5,1.7c-1,0.1-0.7-1-0.8-1.6
		c-0.3-2.1,0.2-4.1,1.1-6c0.8-1.7,1.8-1.7,2.7-0.2c1.3,2.4,1.5,5,0.7,7.6c-0.2,0.7-0.4,1,0.6,1.3c1.2,0.3,1.9,3.2,0.8,3.9
		c-1.6,1.1-1.2,2.7-1.4,4.1c-0.4,2.6-0.4,5.2-0.4,7.7c-0.1,3-0.8,5.9-0.9,9c-0.1,3-0.4,6.1-0.7,9.1c-0.3,3.4-0.9,6.9-0.8,10.3
		c0,1.7-0.2,3.3-0.4,5c-0.1,0.9-0.7,1.7-1.7,1.6c-0.9,0-1.6-0.5-1.8-1.6c-0.4-2.2-0.1-4.5,0-6.7c0.1-5.3,0.1-10.5,0.5-15.8
		c0.2-3.9,0.9-7.8,1.3-11.7c0.3-2.8,0.3-5.7,0.5-8.5c0.1-1-0.3-1.3-1.4-1.2c-2.5,0.3-5,1.2-7.5,1.3c-2.5,0.1-4.9-0.4-6.7-2.1
		c-1.2-1.1-2.5-2.1-3.4-3.4c-0.5-0.7-1.1-0.8-1.8-0.1c-1,0.9-1.9,2-2.2,3.2c-0.6,2.5-1.3,5-1.7,7.6c-0.3,1.9,0.5,3.2,1.9,4.3
		c3.1,2.7,6.4,5.3,8.6,8.9c1,1.6,1.2,3.4,1.4,5.3c0.1,1.6,0.2,3.3,0.5,4.9c0.2,1.1,0.2,2.3,0.2,3.3c-0.1,2,0.5,3.9,0.7,5.9
		c0.2,2.2,1.8,3.4,3.3,4.7c0.5,0.4,1,0.8,1.4,1.3c1.1,1.2,1.1,1.5-0.3,2.5c-1.8,1.3-3.1,1.2-4.8-0.1c-1.4-1.1-2.8-2.2-4.5-3
		c-2-0.9-1.8-2.9-2.1-4.6c-0.4-2.5-0.3-5.1-1.3-7.4c-1.1-2.4-2.3-4.8-2.7-7.4c-0.5-2.5-1.7-4.5-3.9-5.9c-0.8-0.5-1.2-1.4-2.1-2.3
		c-0.7,4.5-2.5,8.5-3.3,12.7c-0.5,2.5-1.8,4.5-3.2,6.4c-1.8,2.4-3.8,4.7-5.5,7.2c-0.6,0.8-0.7,1.4,0.5,1.5c1.8,0.2,2.4,1.7,3.1,3
		c0.2,0.3,0.3,0.8,0.6,1c0.3,0.2,0.7,0.6,0.4,1c-0.3,0.4-0.7,0.5-1.1,0.4c-2.2-0.7-4.6-0.8-6.8-1.8c-1.3-0.6-2.7-0.7-3.8-1.6
		c-0.9-0.8-1.1-1.5-0.6-2.6c1.5-3.4,3.8-6.2,5.5-9.5c2.1-3.9,4.2-7.9,5.4-12.2c0.3-0.9,0.1-1.9,0.1-2.8c-0.1-2.2,0.3-4.4,0.3-6.6
		c0-1.2-0.1-2.4-0.5-3.6c-0.5-1.5-0.9-3-0.4-4.6c0.1-0.4,0-0.9,0-1.3c-3.3,1.1-7.8-1.9-7.9-5.4c-0.1-3.3,0.7-6.4,1.5-9.6
		c0.7-2.6,1.5-5.2,1.7-7.9c0.1-1.1,0.8-1.8,1-2.8c0.1-0.5,0.7-0.6,1.2-0.5c1.9,0.2,3.8,0.4,5.4,1.4c1.5,0.8,2.1,2.1,1.9,3.7
		c-0.2,1.4-0.3,2.9-0.4,4.4c0.6-0.3,0.7-0.8,0.8-1.2c0.5-1.7,1.6-3.2,2.5-4.8c0.1-0.2,0.3-0.4,0.5-0.4c1.6-0.2,2.1-1.7,3.2-2.6
		c0.7-0.6,0.3-1.3,0.1-2c-0.7-2.9-1.2-5.7,0.6-8.4c1.1-1.5,2.5-2.8,4.3-3.3c2.5-0.8,5.4,1.2,5.6,3.8c0.2,2.7,0.2,5.3-1.1,7.8
		c-0.5,1-1.3,1.9-2.3,2.4c-1.3,0.6-1.9,1.8-2.7,2.9c-0.2,0.3-0.4,0.6,0,0.9c0.8,1,1.3,2.1,1.9,3.3c1.5,2.8,4,4.4,6.7,5.7
		c3.3,1.8,7,2.5,10.7,3.1C75,134.1,77.1,133.7,79.3,134.3z M39.1,144.4c-0.3,2.1,0.1,3.5,1.1,4.8c1.2,1.6,3,2.6,4.6,3.7
		c1.4,1,2.8,1.8,3.9,3.1c0.9,1.1,1.8,2.1,2.9,3c1.2,1,2,2.2,2.3,3.8c0.4,2.1,1.1,4.2,2,6.3c0.9,2,1.8,4,2.1,6.3
		c0.1,1.4,0.2,2.9,0.4,4.3c0.1,1.1,0.1,2.6,1.1,3.2c1.9,1.2,3.6,2.6,5.5,3.8c0.8,0.5,1.6,0.5,2.4,0.1c0.5-0.2,0.9-0.6,0.2-1.2
		c-0.7-0.6-1.4-1.2-2-1.8c-1.2-1.1-2.3-2.2-2.7-3.9c-1-4.8-0.8-9.8-1.6-14.6c-0.3-1.7-0.3-3.4-1.2-5c-1-1.6-2.1-3-3.3-4.4
		c-1.7-2-3.9-3.4-5.6-5.3c-1.1-1.2-1.9-2.7-1.7-4.2c0.1-1.8,0.6-3.6,1-5.4c0.6-2.7,1.3-5.2,3.5-7c0.9-0.8,1.6-0.8,2.4,0
		c0.4,0.5,0.8,1,1.2,1.4c2.5,2.9,5.4,4.7,9.5,4.1c4.2-0.7,8.3-1.3,12.5-1.9c0.7-0.1,0.5-0.7,0.5-1.1c0-0.5-0.3-0.5-0.7-0.4
		c-0.4,0.1-0.7-0.1-0.8-0.5c-0.1-0.5-0.6-0.6-1-0.6c-2.6,0.2-5.1-0.6-7.7-1c-7.3-1.2-13.5-4.1-16.8-11.3c-0.1-0.3-0.3-0.8-0.7-0.7
		c-0.9,0.4-0.9-0.2-0.9-0.8c0-0.3,0-0.5-0.3-0.7c-1.5-1.1-4.4-0.6-5.4,1c-1.2,1.9-1.8,4-3,5.9c-0.2,0.3-0.3,0.9-0.6,0.8
		c-0.8-0.1-0.5,0.4-0.6,0.8c-0.6,1.5,0.2,3.1-0.5,4.6c-0.7,1.5-0.8,3.2-1.6,4.7C38.6,140.7,39.6,142.9,39.1,144.4z M37.6,188.9
		c-0.3-2.2-1.7-3.3-3.6-3.8c-1.2-0.3-1.2-0.9-0.6-1.8c1.4-2.1,2.9-4.2,4.4-6.1c1.8-2.2,3.6-4.4,4.2-7.3c1-4.5,2.7-8.9,3.4-13.5
		c0.1-0.7,0-0.9-0.5-1.3c-1.4-1-2.8-2-4.2-3c-0.3-0.2-0.5-0.7-0.9-0.5c-0.2,0.2-0.3,0.6-0.3,1c-0.1,1.6,0,3.2-0.2,4.8
		c-0.2,1.7,0.2,3.4-0.2,5.1c-0.7,2.9-2.2,5.4-3.3,8.1c-0.6,1.5-1.1,3.1-2.1,4.4c-1.8,2.6-3.2,5.3-4.8,8c-1.2,1.9-0.8,2.5,1.3,3.4
		C32.7,187.6,35.1,188.1,37.6,188.9z M31,136.8c-0.3,3.2,2.2,5.1,4.7,5.8c1.1,0.3,2-0.4,2.1-1.5c0.1-1.1,0.5-2.1,0.7-3.2
		c0.3-1.4,1.3-2.6,1.5-4c0.7-3.9,1.1-7.8,1.6-11.8c0.3-2.3-0.9-3.4-3.2-3.5c-0.5,0-1-0.1-1.5-0.2c-1.9-0.5-1.9-0.5-2.4,1.5
		c-0.7,3-1.4,6-2.2,9C31.6,131.6,31,134.3,31,136.8z M49.1,119.5c0.7,0,1.2,0.2,1.8,0.4c1,0.5,1.7,0.4,2.1-0.7c0.4-0.9,1-1.6,1.9-2
		c1.4-0.7,2.3-1.9,2.8-3.4c0.7-2,0.7-4.1,0.5-6.2c-0.1-1.3-1.8-2.6-3-2.4c-2.8,0.6-5.7,3.9-4.7,7c0.4,1.4,0.3,3,0.4,4.5
		C50.9,117.9,49.7,118.4,49.1,119.5z M74.8,184.2c0.8-0.2,0.8-0.8,0.8-1.2c0.3-1.9,0.1-3.9,0.3-5.8c0.5-4.2,0.7-8.3,1.1-12.5
		c0.4-3.3,0.2-6.7,0.7-10c0.7-4.6,0.3-9.4,1-14c0.1-0.4,0.5-1.2-0.4-1.1c-0.6,0-1.5-0.1-1.5,1.2c0.1,2.4,0,4.9-0.2,7.2
		c-0.4,4-0.9,8-1.4,11.9c-0.4,3.6-0.2,7.3-0.3,10.9C74.7,175.2,74.4,179.6,74.8,184.2z"/>
	<path d="M197.5,139c2,0.7,2.1,0.9,1.6,3.2c-0.5,2.5-1.7,4.7-2.5,7.1c-1.1,3.2-1.6,6.5-1.3,9.9c0,0.2,0,0.5,0.1,0.6
		c1.2,1.8,1.6,3.8,1.6,5.9c0,0.7,0.5,1.4,0.7,2.2c0.6,2.1,0.5,4.3,1.3,6.4c0.5,1.3,0.2,2.6-0.4,3.9c-1.2,2.3-2.3,4.7-4.8,5.9
		c-0.4,0.2-1.3,0.5-0.8,1.4c0.4,0.6,0.7,1,1.7,0.7c2.9-0.8,5.5-2.2,7.8-4.1c1-0.8,0.3-1.8,0.1-2.6c-1.2-4.3-2.1-8.6-2.5-13
		c-0.4-4.5-0.6-9.1,1.1-13.5c0.5-1.4,1.2-2.7,2.3-3.8c0.5-0.5,0.9-1.2,1.2-1.9c0.6-1.3,1.1-2.8,1.9-4.1c1.1-1.7,1-3.4,0.5-5.2
		c-1.7-6-3.4-12.1-5.1-18.1c-0.4-1.5-1.9-2.4-2.8-3.6c-0.9-1.2-1.4-2.3-1-3.8c0.2-0.5,0.2-1.1,0-1.6c-0.8-2.2-1.6-4.4-3.7-5.8
		c-1.4-1-2.7-0.8-3.5,0.7c-1.3,2.1-1,4.2,0,6.3c1.1,2.4,3.1,3.8,5.4,4.6c0.8,0.3,1.1,0.7,1.2,1.4c0.2,1.3,0.3,2.5-0.2,3.7
		c-0.7,1.9-0.9,4.2,0,5.5c1.3,2.1-0.1,3.1-0.8,4.3c-1.4,2.6-3.1,5.3-6.1,6.5c-2.4,1-5,1.1-7.5,1.4c-0.8,0.1-1.5,0.4-2.6,0.5
		c0.7-1.3,1.7-1.5,2.8-1.7c2.5-0.5,5-0.7,7.4-1.5c1.9-0.6,2.6-2.3,3.7-3.6c0.4-0.5,0.6-1.1,1-1.6c1-1.3,1.7-2.4,0.2-3.8
		c-0.5-0.5-0.3-1.4-0.2-2.1c0.2-1.7,0.3-3.4,0.9-5.1c0.5-1.4-0.2-2.4-1.6-2.8c-2.8-0.7-4.1-3-5.3-5.3c-1.2-2.3-1-4.4,0.4-6.5
		c0.1-0.1,0.1-0.1,0.2-0.2c0.4-1.3,1.1-2.3,2.7-2.4c2-0.1,3.5,0.7,4.7,2.2c0.8,1.1,1.5,2.3,2,3.7c0.4,1,0.5,2,0.2,3
		c-0.2,0.8-0.4,1.8,0.4,2.4c3.6,2.3,4.4,6.1,5.4,9.8c1.4,5,3.1,9.8,4.1,14.8c0.1,0.3,0.1,0.6,0.1,0.9c-0.9,3.6-1.2,7.3-1.9,10.9
		c-0.3,1.4-0.3,3-0.2,4.4c0.2,1.7,0.2,3.4,0.1,5.1c-0.2,2.3,0.4,4.6,0.9,6.8c0.8,3.3,1.2,6.6,1.3,10c0,1.8-0.3,3.5-0.4,5.2
		c-0.2,2.1-1,2.1-3.3,2.6c-0.5,0.1-1.1,0.1-1.6,0c-2.8-0.5-5.2,0.6-7.8,1.4c-0.9,0.3-1.8,0.6-2.7,0.8c-0.8,0.2-1.6,0-1.9-0.8
		c-0.4-0.8-0.8-1.7,0.3-2.4c2.5-1.5,3.4-4,4.3-6.5c0.8-2.3-0.1-4.6-0.6-6.8c-0.8-3.6-1.7-7.2-2.7-10.7c-0.9-3.2-0.2-6.6,0.9-9.9
		c0.8-2.5,2.1-4.9,2.8-7.4C197.4,141.7,196.9,140.3,197.5,139L197.5,139z M206,148.2c-0.1-0.1-0.2-0.1-0.3-0.2
		c-0.3,1.3-1.1,2.2-1.8,3.2c-0.8,1.3-1.4,2.7-1.6,4.2c-0.5,4.6-0.5,9.1,0.3,13.7c0.4,2.5,0.5,5,1.5,7.3c0.4,1,0.6,2,1,3.1
		c0.5,1.6,0,2.7-1.5,3.4c-0.6,0.3-1,0.6-1.5,1.1c1.3,0,2.4,0,3.6,0c0.5,0,1-0.3,1-0.8c0-1.6,0.6-3,0.6-4.6c0-1-0.3-1.9-0.3-2.9
		c0.1-1.9,0.1-3.9-0.4-5.7c-0.9-3.5-1.3-7-1.1-10.7c0.1-3.4-0.2-6.8,0.7-10.1C206.2,148.8,206.1,148.5,206,148.2z"/>
	<path d="M197.5,139c-0.7,0.7-1,1.7-1.3,2.6c-0.6,1.5-1.7,2.2-3.3,2.4c-3.7,0.6-7.6,0.3-11.3,0.8c-0.7,0.1-1.3-0.2-2.1-0.7
		c0,1.5-0.6,2.7-0.3,4.1c0.2,0.8-0.7,1.4-1,2.1c-1.7,4.2-1.9,8.6-2.9,12.9c-0.4,1.7-1.3,3.3-1.5,5c-0.3,2.6-1.4,3.2-4,3
		c-3.7-0.2-7.5,0.4-11.2,0.8c-3.1,0.3-6.2,0.9-9.2,1.2c-0.4,0-0.9,0.3-1.1-0.1c-0.2-0.4,0.3-0.6,0.4-0.9c0.4-0.8,1.1-1,1.9-1
		c1.5-0.1,3,0,4.4-0.3c3-0.5,6-0.7,9-0.8c2.2-0.1,4.4-0.6,6.6-0.4c0.5,0,1.1,0,1.3-0.3c0.3-0.7,0.4-1.5,0.5-2.3
		c0-0.4-0.4-0.2-0.7-0.2c-2.1-0.6-4.3-0.3-6.4-0.8c-4.3-1.1-8.8-1.5-13.1-2.5c-2.5-0.6-5.1-0.8-7.6-1.3c-0.6-0.1-0.9-0.4-1-0.9
		c-0.5-3-1-6-1.9-8.9c-0.1-0.3,0-0.6,0-0.9c0-0.4,0.1-0.9-0.6-0.7c-0.3,0.1-0.7,0.1-0.8-0.3c-0.1-0.3,0.2-0.6,0.4-0.8
		c0.5-0.5,1-1,1.7-1c2.3-0.1,4.5-0.4,6.9-0.2c2.3,0.2,4.7,0.5,7.1-0.3c0.8-0.3,1.8-0.4,2.7-0.2c1.2,0.3,2.4,0,3.6-0.1
		c3.2-0.2,6.3-0.1,9.5-0.1c1.4,0,2.7-0.8,4.1-0.3c1.1,0.4,1.3-0.1,1.5-1c0.2-1.2,0.5-2.1-0.5-3.2c-1-1.1,0.4-3.6,2.1-4.2
		c0.2-0.1,0.4-0.1,0.6-0.2c0.2,0.4-0.2,0.5-0.3,0.8c-0.1,0.2-0.2,0.3-0.3,0.5c-0.1,0.1,0,0.3-0.1,0.4c1.7-0.2,0.2,1.7,1.5,2.1
		c1.9,0.5,3.7,0.1,5.5,0c1.7-0.1,3.3,0.1,5-0.3c0.8-0.2,1.7-0.2,2.5-0.4c0.4-0.1,0.7-0.4,0.8-0.8c1.3-3.2,3.2-6,5.3-8.6
		c0.1-0.1,0.2-0.3,0.4-0.4c0.2-0.2,0.5-0.5,0.8-0.3c0.3,0.3,0.3,0.7,0,1c-0.3,0.4-0.6,0.8-0.9,1.2
		C199.1,135.6,197.9,137.1,197.5,139C197.5,139,197.5,139,197.5,139z M149.6,150.4c-1.8-0.1-3.7-0.1-5.5,0.2
		c-0.5,0.1-0.9,0.1-0.7,0.9c0.7,2.2,1.2,4.5,1.6,6.9c0.2,1.4,0.5,2.8,2.5,2.3c0.1,0,0.2,0,0.3,0c3.7,0.9,7.5,1.8,11.3,2.4
		c4.2,0.6,8.3,1.8,12.6,2.1c1.4,0.1,1.6-0.4,1.8-1.4c0.4-1.9,0.8-3.9,1.2-5.8c0.5-2.5,1.2-5,1.8-7.5c0.2-0.6,0.3-0.9-0.6-1
		c-3.5-0.2-7-0.1-10.4-0.1C160.2,149.4,154.9,150,149.6,150.4z"/>
	<path d="M104.7,8.7c-0.4,0.1-0.6-0.3-0.9-0.6C100,5,96.8,1.3,93.4-2.3c-1.2-1.3-2.9-1.5-4.7-1.6c-3.5-0.1-6.8-0.9-9.3-3.7
		c-1.8-1.9-3.9-2.9-6.6-3.2c-2.3-0.2-4.6-0.2-6.9-0.9c-1-0.3-1.8-0.7-2.5-1.5c-0.9-1-0.8-2,0.3-2.9c0.8-0.6,1.7-0.8,2.7-1
		c2.6-0.5,5-0.1,7.4,0.5c1.4,0.3,4-0.7,4.4-1.9c0.5-1.4-0.1-2.8-1-3.9c-1-1.2-2.2-2.3-3.3-3.4c-0.7-0.7-0.7-1.5-0.2-2.2
		c0.4-0.7,1.2-1,2-0.8c0.7,0.2,1.5,0.4,2.1,0.8c2.2,1.2,4.6,0.5,5.8-1.8c0.4-0.7,0.7-1.4,1.8-1.3c3.2,0,5.1,2.7,4,5.7
		c-0.7,2-1.9,3.6-3.1,5.2c-1.1,1.5-0.6,3.2-0.8,4.8c-0.1,0.8,0.8,0.9,1.4,1c1.9,0.4,3.9,0.6,5.8,1.1c2.4,0.7,4.2,2.2,5.4,4.5
		c0.4,0.9,1.1,1.4,2.2,1c1-0.3,2.1-0.5,3.1-0.9c2-1,4.3-0.5,6.4-0.8c1-0.1,1.7,1,1.9,2.1c0.2,1.2-0.6,1.7-1.5,2.1
		c-2.1,0.8-4.3,1.1-6.6,1.1c-0.6,0-1.3,0-1.9,0.2c-1.7,0.6-2,1.9-0.7,3.2c2.5,2.5,3.7,5.5,3.8,9C104.9,8.3,105,8.5,104.7,8.7z
		 M110.6-7.6c-1.5-0.5-2.7-0.1-3.9,0c-1.8,0.1-3.5,1-5.2,1.5c-0.8,0.2-1.4,0.1-2.1-0.4c-1-0.7-1.8-1.4-2.2-2.5
		c-0.7-1.7-2-2.4-3.6-2.7c-1.4-0.3-3-0.4-4.4-0.8c-2-0.5-4.5-0.9-5-3.3c-0.5-2.2-0.3-4.5,1.3-6.4c1.4-1.6,2.3-3.4,2.8-5.5
		c0.2-0.6,0.4-1.4-0.4-1.8c-0.8-0.4-1.5-0.3-2,0.4c-0.2,0.2-0.3,0.4-0.5,0.6c-1.9,2.5-3.6,2.9-6.5,1.6c-0.6-0.2-1.2-0.4-1.8-0.6
		c-0.9-0.3-1.5,0.3-1.9,1c-0.4,0.7,0.1,1.1,0.5,1.5c2,1.7,3.6,3.7,4.3,6.4c0.2,0.9-0.3,2.8-1.1,3c-1.5,0.5-3.1,1.1-4.5,0.6
		c-2.4-0.8-4.7-0.7-7.1-0.5c-0.9,0.1-1.6,0.6-2.3,1c-0.2,0.1-0.4,0.4-0.3,0.7c0.1,0.3,0.4,0.4,0.6,0.4c1.2,0.1,2.3,0.5,3.5,0.4
		c1.9-0.1,3.7,0.4,5.5,0.8c2.1,0.4,4,1.6,5.6,3.3c1.9,2.1,4.3,3,7.1,3c1.3,0,2.7,0.1,4,0.6C93-4.5,94.5-3,95.8-1.3
		c2.4,2.9,5,5.6,8,7.9c-0.4-2.6-1.1-4.9-3.2-6.8c-2.3-2.1-1.7-5.2,1.5-5.5c1.7-0.2,3.4,0.1,5.1-0.4C108.3-6.4,109.6-6.5,110.6-7.6z"
		/>
	<path d="M38.2-22.2c-0.3,0.1-0.5-0.3-0.8-0.1c-2.3,1.6-4.9,0.9-7.4,0.9c-1.3,0-1.9-1.9-0.9-3.2c0.4-0.6,0.8-1.2,1.2-1.7
		c1.1-1.4,2.6-2.1,4.5-2.2c2.4,0,4.8,0.1,7.1-0.8c0.7-0.3,1.6-0.4,2-0.9c0.9-1,2.6-1.1,3.1-2.6c0.1-0.4,0.6-0.4,0.9-0.2
		c0.5,0.5,1.3,0.8,1.1,1.7c0,0.3-0.1,0.5-0.3,0.8c-1,1.5-1.4,3.2-2.2,4.8c-0.4,0.9-1.2,1.7-2.2,2c-1.8,0.5-3.7,1-5.5,1.4
		C38.7-22.1,38.4-22.2,38.2-22.2z M45.1-28.2c-0.5,0.4-0.8,0.7-1.2,0.9c-2.2,0.8-4.5,0.9-6.9,0.8c-1.9-0.1-3.7,0.2-5.1,1.8
		c-0.3,0.3-0.9,0.8-0.6,1.2c0.3,0.4,0.9,0.3,1.5,0.2c2.5-0.5,5-1,7.6-1.4C42.5-25,45-25,45.1-28.2z"/>
	<path d="M173.4,42.9c-2.1-0.1-4.1-1.7-5.6-4c-1.2-1.8-1.6-3.9-1.2-6c0.2-1.2,0.8-2.3,2.3-3c1.9-0.9,3.6-1.2,5.5-0.5
		c0.4,0.2,0.7-0.1,1-0.2c1.3-0.6,2.3-0.1,3.4,0.8c2.2,1.9,2.6,4.2,2.2,6.9C180.2,41.1,178.6,42.7,173.4,42.9z M173.5,30.9
		c-2.2-0.1-4.4,1-4.8,2.5c-0.5,2.1-0.1,4,1.1,5.8c1.4,2,3.4,1.6,5.4,1.2c1.5-0.3,2.9-0.8,3.4-2.5c0.2-1,0.3-1.9,0.5-2.9
		c0-0.2,0.1-0.4-0.1-0.6C177.5,32.5,175.7,31.1,173.5,30.9z M178.8,32.4c-0.4-1-0.8-2-2.4-2.1C177.3,31.2,178.3,31.5,178.8,32.4z"/>
	<path d="M168.9,184.6c-1.6-0.2-3-0.4-4-1.8c-0.6-0.8-0.6-1.6-0.1-2.4c0.6-0.9,1.2-1.9,2-2.7c0.6-0.6,0.4-1.5,0.9-2.1
		c1.9-2.2,2.7-2.2,4.9-0.1c1.5,1.5,2.3,3.4,1.1,5.7C172.7,183.3,171.2,184.5,168.9,184.6z M169.7,177c-1.1,0.2-2.5,1.3-3.6,2.8
		c-0.4,0.6-0.3,1.3,0.1,1.9c1.2,1.6,4.1,2,5.7,0.7c0.9-0.8,1.5-2,1-3.1C172.4,178.2,172.1,176.7,169.7,177z"/>
	<path d="M156.6,179.8c0,1.6-1,3-2.3,4.1c-1.8,1.5-4.8-0.5-5.5-2c-0.3-0.6-0.1-1.4-1.1-1.6c-0.2,0-0.2-0.8,0-1.1
		c0.9-2.1,2.3-3.6,4.5-4.4c0.9-0.3,1.3,0.5,1.9,0.8C155.8,176.3,156.8,178,156.6,179.8z M155,180.9c0.1-1.8-1.2-2.8-2.4-3.8
		c-0.8-0.7-1.7-0.4-2.5,0.1c-0.8,0.5-0.7,1.4-0.5,2.2c0.4,1.7,1.6,2.5,3.1,3C154.3,182.9,155,182.5,155,180.9z"/>
</g>
</svg>
