<?xml version="1.0" encoding="utf-8"?>
<!-- Generator: Adobe Illustrator 18.1.1, SVG Export Plug-In . SVG Version: 6.00 Build 0)  -->
<svg version="1.1" id="Ebene_1" xmlns="http://www.w3.org/2000/svg" xmlns:xlink="http://www.w3.org/1999/xlink" x="0px" y="0px"
	 width="250px" height="250px" viewBox="-18 -60 250 250" style="enable-background:new -18 -60 250 250;" xml:space="preserve">
<g>
	<path d="M66,99.4c-2.3-11.5-8.8-20.4-18.6-27C35.4,64.3,19.7,64.2,8,72.5c-5.8,4.1-8.1,10.3-9.3,17c-0.3,1.7,0.4,4.8-1.9,4.9
		c-3.2,0.1-6.7,0.1-9.6-1.8c-1.2-0.8-0.3-2,0.8-2.2c1.3-0.2,2.8-0.3,4.1,0c2.4,0.6,3.6-0.1,3.9-2.6c2.4-23.4,33.1-32.1,52.5-19.2
		c8.8,5.9,15.4,13.6,18.6,23.9c0.5,1.8,1.2,2.7,3.1,2.7c0.9,0,1.7,0.4,2.6,0.3c16.2-1.5,32.4,1,48.7-0.3c10.3-0.8,20.6,0.6,30.9,1.1
		c2,0.1,3.5,0.5,4.2-2.4c3.9-15.4,16.1-24.4,31.9-23.8c15,0.6,27.3,5.5,33.4,20.6c1.1,2.7,3.5,4,5.8,2.8c2.2-1.2,0.3-3.5-0.4-5.1
		c-8.9-20.3-25-31.1-46.1-35.6c-8.9-1.9-17.9-2.8-26.6-5.4c-12.5-3.7-21.8-11.8-30-21c-6.2-7-13.5-10.8-22.3-12.4
		c-16.9-3-33.9-4.2-51-5.4C41.3,8,32.8,11,26.9,19.9c-3.4,5.2-8.1,8-14.8,8.2C-0.8,28.3-2.8,30.2-6.3,42.7
		c-4.2,15-6.8,30.3-8.5,45.8c-0.2,1.5,0.3,3.8-1.8,3.7c-2-0.2-1.4-2.6-1.2-4c0.8-6.4,1.9-12.7,2.9-19.1c1.9-11.3,4.1-22.6,8.1-33.4
		c3.1-8.4,8.9-11.9,17.2-11.5c7.5,0.4,12.7-2.4,16.4-8.8c1.5-2.5,4.1-4.2,6.6-5.9C38.7,6,44.5,5.1,50.5,5.2
		c19.6,0.3,39,2.4,58.2,6.1c7.4,1.4,13.3,5.8,18.1,11.7c11.7,14.5,26.9,22.6,45.5,25c18.9,2.4,36.5,8,48.9,23.9
		c4.9,6.2,8.6,13.1,10.5,20.9c0.7,2.8,0.3,4.8-2.6,4.9c-2.8,0.2-6.5,3.1-8.2-2.1c-5.7-17.7-21.9-22.7-36.3-21.6
		c-14.9,1.2-23.1,9.2-26.1,23.3c-0.5,2.2-1.5,2.8-3.6,2.5c-22.8-3-45.7-0.6-68.5-1.3C79.8,98.3,73.1,99,66,99.4z"/>
	<path d="M119,50.9c-27.7,0-55.3-1.3-82.9-2.5c-12.5-0.5-13.8-2.8-8.1-14.3c2.7-5.5,6.2-10.9,11.3-14.9c5-3.8,10.6-5,16.7-4.3
		c13.5,1.6,27.1,1.8,40.6,3.7c6.5,0.9,11.8,3.3,16.7,7.7c6.1,5.4,11.4,11.7,18.6,15.8c1.6,0.9,3.9,2.1,3,4.9
		c-0.9,2.7-2.9,3.8-5.6,3.9C125.9,51,122.4,50.9,119,50.9z M129.5,46.6c-7.1-5.3-12.8-11.1-18.7-16.8c-3.5-3.4-7.4-6-12.2-6.5
		c-15-1.7-30.1-3.1-45.2-4.6c-5.4-0.5-10.7,0.4-14.4,4.5c-4.3,4.8-8.2,9.9-10.5,16.1c-1.2,3.2,0.1,4.6,3,5c3.6,0.5,7.3,0.9,10.9,1
		c22,0.8,44.1,1.9,66.1,2.1C115.3,47.5,122.2,48.6,129.5,46.6z"/>
	<path d="M51.6,96.5c-1.7,15.5-9.1,23.4-24,23.2C15.9,119.6,5.2,110,6.7,99.5c2.6-18.4,7.1-24.7,23.1-25.3
		C40.2,73.9,51.9,86.4,51.6,96.5z M27.2,116.1c13.1,0.3,21.8-7.1,22-18.6c0.2-8.6-10.6-19.2-19.5-19.3C17.4,78.1,8.9,86.5,8.6,99.2
		C8.4,108.9,16,115.9,27.2,116.1z"/>
	<path d="M191.7,123.4c-11.5,0.8-22.8-12.9-22.7-23.2c0.1-9.6,10-19,20-18c14.8,1.5,24,8.1,23.5,21.9
		C212.3,113,204.2,124.1,191.7,123.4z M190.3,119.9c3.7,0.1,7.3-0.5,10.6-2.3c7.9-4.2,13.4-14.3,5.9-23.6
		c-4.7-5.8-15.7-9.6-23.2-7.6C177.8,88,171,95,171.2,99.9C171.6,110.3,180.7,120.2,190.3,119.9z"/>
</g>
</svg>
