<?xml version="1.0" encoding="utf-8"?>
<!-- Generator: Adobe Illustrator 18.1.1, SVG Export Plug-In . SVG Version: 6.00 Build 0)  -->
<svg version="1.1" id="Ebene_1" xmlns="http://www.w3.org/2000/svg" xmlns:xlink="http://www.w3.org/1999/xlink" x="0px" y="0px"
	 width="250px" height="250px" viewBox="98 -99 250 250" style="enable-background:new 98 -99 250 250;" xml:space="preserve">
<g>
	<path d="M230.1-40.9c6.3-0.5,12.2,0.4,18.3,2.8c12.4,4.7,18.8,14.4,24.1,25.6C276-5.3,279.9,2,284.8,8.2c3.6,4.6,10.3,4.5,16,5.2
		c8.4,1.1,16.6,3.1,24.7,5.1c12.5,3.1,16.9,12.2,18.4,23.7c0.8,6.6,0.9,13.2,0.4,19.8c-0.1,1.1,0.4,2.6-1.4,2.5
		c-1.3,0-1.9-1-2.1-2.4c-0.2-1.6-0.7-3.2-0.8-4.9c-1-9-7.2-12.7-15-14.9c-2.4-0.7-4.7-1.6-7.1-2.2c-5.9-1.4-11.5-0.7-15.4,4.1
		c-4.3,5.2-11.3,8.6-11.5,16.7c0,1.8-1.6,1.3-2.7,1.1c-20.8-2.8-41.6-1.6-62.4-1.5c-14.4,0.1-28.9-0.4-43.3-0.4
		c-4.7,0-7.5-2-8.3-6.7c-0.1-0.3-0.2-0.7-0.2-1c-1.3-17.2-11.3-21.4-28.7-21C134,31.9,131.1,39,128,50.2c-0.4,1.3-0.9,2.6-0.8,3.8
		c0.9,7.5-3.3,7.5-8.7,6.5c-4.1-0.7-8.2-0.9-12.4-1.3c-2.7-0.3-4.2-2-3.1-4.4c2.7-5.6,1.6-11.4,1.9-17.2c0.4-7,0.7-13.1,5.5-19.6
		c8-11,16.1-21.8,25.1-32c13.5-15.3,31-21.7,50.9-23.6c12.4-1.2,24.8-1.6,37.2-3C225.8-40.7,227.9-40.8,230.1-40.9z M341.6,52.1
		c0.9-4.5,0-8.6-0.5-12.7c-1-8.3-6.7-14.3-14.7-16.9c-12.4-4-25.6-4-38-7.8c-1.7-0.5-3.2-0.8-4.1-2.4c-4.8-8.5-10.1-16.7-14.1-25.6
		c-5.7-12.6-14.9-20.7-28.1-23.7c-8-1.8-16.2-0.2-24.3,0.3c-14.2,1-28.5,1.6-42.6,4.3c-13.4,2.6-25.2,7.8-34.8,17.9
		c-9,9.6-18,19.2-24.7,30.5c-2.9,4.8-7.8,8.7-8.1,15.3c-0.3,6.4,0.2,12.9-0.7,19.2c-0.7,4.7,1.6,5.6,5.3,5.8c1,0,2,0,3,0.1
		c2.8,0.1,6.2,2.4,8.1,0.4c1.6-1.7,1-5.3,1.8-8c1.8-5.6,2.6-11.9,7.4-16c9.9-8.5,28.7-6.9,37.7,2.8c3.8,4.1,5.6,9.1,6,14.4
		c0.4,4.7,2.9,6.2,6.9,6.4c9.1,0.3,18.2,0.7,27.2,0.6c11.7-0.1,23.4,0.8,35.2-0.4c13.3-1.3,26.6,0.3,39.8,0.7c1.2,0,2.9,0.8,3.4-1
		c1.5-6.5,7.2-9.8,11.1-14.4c4.8-5.7,11.1-7,18-5.4c6,1.4,11.7,3.5,16.9,7.1C338,45.9,340.8,48,341.6,52.1z"/>
	<path d="M148.8,41.3c10.7,0.1,23.2,11.8,23,21.7c-0.3,12.9-11.2,23.1-24.5,23c-9.3-0.1-19.8-11.2-19.2-21.3
		C128.9,51,135.5,42.2,148.8,41.3z M149.7,45.5c-16,0.1-21.8,18.6-16.9,27.4c3.6,6.4,9.6,10.3,15.6,9.5c9.1-1.1,17.6-7.8,19.6-15.5
		c0.9-3.4,1.2-6.6,0.1-10.2c-0.9-2.7-3.6-0.8-4.6-3.1C160.7,47.4,154.9,46,149.7,45.5z"/>
	<path d="M294,67.5c0.6-7.3,6.9-12.5,14.3-16.7c3.2-1.8,7.1-2.5,10.8-3.4c11.2-2.8,24.4,12.7,18.7,24.1c-3.9,7.9-8.5,15.7-18.4,18.1
		C305.9,92.9,294.1,83.8,294,67.5z M296.9,68.4c0.2,13.2,8.6,20.1,18.6,18.4C325.7,85,331,77.9,335,69.4c4.5-9.4-5.8-19.7-14-18.3
		c-4,0.7-8,1.2-11.4,3.3C303.3,58.4,297.2,62.8,296.9,68.4z"/>
	<path d="M235.8,13.5c-14.2,0.6-30.8-0.8-47.5,0.2c-15.5,0.9-30.9,1.8-46.4,2.3c-3.4,0.1-6.8,0.8-10.2-0.4c-3.7-1.3-3.6-4.1-2.1-6.3
		c7.8-10.9,17.9-19.3,29.6-25.9c14.2-8.1,30.2-8.4,45.8-10.6c7-1,14-1.9,21-1.4c14.5,1.2,26.7,7.1,35,19.4c2.2,3.2,4.7,6.3,5.4,10.5
		c0.9,5.4-0.6,8.6-6,10C253.1,13.2,245.7,13.5,235.8,13.5z M132.7,10.9c1.9,1.4,3.6,1.2,5.3,1.4c7.4,1,14.8-0.8,22.1-1.3
		c22.6-1.4,45.1-1.8,67.7-1.5c10.3,0.1,20.6,0,30.8-1.7c4.9-0.8,6.8-3.3,5.1-7.1c-5.8-13-16.1-21.1-29.6-24.2c-11.9-2.8-24-1-36,0.7
		c-12.9,1.8-25.8,3.2-37.6,10.1C149.8-6.3,140.7,1.4,132.7,10.9z"/>
</g>
</svg>
