<?xml version="1.0" encoding="utf-8"?>
<!-- Generator: Adobe Illustrator 18.1.1, SVG Export Plug-In . SVG Version: 6.00 Build 0)  -->
<svg version="1.1" id="Ebene_1" xmlns="http://www.w3.org/2000/svg" xmlns:xlink="http://www.w3.org/1999/xlink" x="0px" y="0px"
	 width="250px" height="250px" viewBox="-18 -60 250 250" style="enable-background:new -18 -60 250 250;" xml:space="preserve">
<g>
	<path d="M200-12.8c3.6-2.3,4,2.1,4.5,3c5,9.9,12.3,18.6,15.1,29.5c2.5,10.1,4.9,20.3,6.9,30.6c0.5,2.8-1.8,5.4-2,8.6
		c-0.6,12.7,1.6,25.6-1.4,38.2c-7.6,31.8-25.4,55.8-54.4,71.6c-16.9,9.2-34.9,15.7-53.9,15.8c-30.7,0.2-60.3-5.2-85.1-26.2
		C7.6,139.6-4.6,115.8-11.9,88.5c-4.3-16-0.7-30.9,2-46.4C-7.2,25.7,0.2,11.5,9.2-1.7c9.9-14.6,21.3-29,36.9-37.1
		C65.8-49.1,87.3-55.1,110-53.6c3.1,0.2,6.1,0.4,9.6,0.6c-2.1,3.6-5.5,3.2-8.1,2.9c-18.9-1.7-36.6,2.8-53.9,9.8
		c-1,0.4-2.7,0.4-2.5,1.9c0.1,0.6,1.4,1.6,2.3,1.6c6.9,0.4,13.9,2.1,20.6-1.1c0,0,0.1,0.2,0.1,0.2S78-37.8,78-37.8
		c2.4-2.2,4.8-4.5,7.3-6.6c0.9-0.8,2.3-1,3.1,0.1c0.8,1.1-0.3,1.8-1.1,2.4c-3.9,3.4-5.8,9.1-11.6,10.3c-0.1,0-0.3,0.2-0.4,0.3
		c-1.8,2,2,17.9,4.7,18.7c9,2.7,17.4,7,25.7,11.2c5.6,2.9,11.7,4.9,16.1,9.9c4.1,4.7,8.9,1.9,11.8-1.2c4-4.3,9.4-3.8,13.9-6.1
		c3.8-1.9,6.5-3.4,8-8.2c3.2-10.3-0.3-20.5,1.3-30.7c0.4-2.7-2.6-3.1-4.7-3.3c-8.8-1.1-17.6-1.9-26.4-3c-1.2-0.1-3.3,0.1-3.3-1.5
		c-0.1-1.9,2.3-2.3,3.4-2c4.7,1.1,9.5-2.7,14.3,0.8c2.2,1.7,5-0.8,8-0.4c17.7,2.2,31.4,12.2,45.6,21.5C198-22.5,195.9-16,200-12.8z
		 M62-2.8c0.2-0.2,0.4-0.3,0.6-0.5C62.4-3.2,62.2-3,62-2.8L62-2.8z M68.9-7.7c0-0.4,0-0.8,0-1.2c1.1-0.8,2-1.3,2.5-3.2
		c1.2-5.1-1-9.5-1.6-14.2c-0.5-4.2-1.7-5.9-6.2-5.3c-3.9,0.5-7.8-0.2-11.4-2.6c-3.1-2.1-6-1.4-9.1,1.1c-7.7,6.4-14.6,13.5-21.3,20.9
		C1.3,10.8-9.3,37.8-9.6,68.1C-9.8,90-2.3,110,10,128.4c9.3,14,20.8,25.2,35,34.1c1,0.6,2.8,2.2,2.9-0.3c0.2-5.9,1.5-12.8-2.7-17.2
		c-6.2-6.4-9.5-14.7-15.5-21C19.4,113.4,14.6,97.9,0.2,91.1c-1-0.5-3.3-1.5-2-3.3c1.2-1.6,2.9-1.2,4.9-0.2c4.1,2.1,8.4,8.3,12.7,0
		c0.2-0.4,1.5-0.3,2.3-0.4l0.1,0.1L18,87.2c0.2-1.3,1.8-1.4,2.1-3c1.6-7.4,5.9-13.4,10.9-19l0,0c1.4-9,1.1-18.2,2.1-27.1
		C34.7,23,31.3,12.4,15.9,7.6c-1.3-0.4-2.2-1.9-3.3-2.8C13.3,4.2,14,3.4,14.9,3c2.1-1,3.9,0.3,4.6,1.8c0.8,1.8,2,3.2,3.5,2.7
		c3.7-1.3,6.1,1.2,7.7,3.2c4.7,5.7,7.3,2,10.3-1.5l0,0c3.9-3.4,8.3-6,13-8.1L54,1.2c2.9-3.6,6.8-5.7,11.1-7.1l0.1,0.2L65-5.8
		c0.9-1.6,1.1-4.2,4-3.1C69-8.5,69-8.1,68.9-7.7c0.4,0.6,0.7,1.3,1.1,1.9c-4.3,4.4-8.9,8.3-15,10L55,4.2c-3.3,1.1-4,5.9-8,6
		c-0.3-0.5-0.5-1-0.8-1.5c-0.3,0.3-0.6,0.7-0.9,1c0.6,0.2,1.1,0.3,1.7,0.5c-1.5,1.7-2.7,4-4.5,5.1c-4.9,2.9-6,6.8-6.4,12.5
		c-0.2,3.5,2,7.1-0.1,10.5c0-0.1-0.1-0.2-0.1-0.4c0-0.1-0.1-0.1-0.2-0.2c0.1,0.2,0.3,0.3,0.4,0.5c2.9,7.4,0.5,14.7-0.6,21.9
		c-0.4,2.8,1.5,7.5-2.6,7.9c-3.1,0.3-3.5,2.2-3.7,3.5c-0.6,4.3-3.5,6.9-6.2,9.6l0,0c-1.3,3.2-0.1,7.8-5,9.1L17.9,90l0.2,0.1
		c0.6,3.1-4.4,4.9-2.2,7.9c4,5.5,5.6,12.8,11.1,17c3.7,2.8,5.3,6.3,7.1,10.1l0,0c3.5-1.5,3.3,1.7,3.8,3.3c3.8,10.7,8.8,13,18.8,8.3
		c2.5-1.2,4.9-2.4,7.4-3.6c0.3,0.3,0.7,0.7,1,1c0.1,3.4-3.1,3.5-5,4.8c-3,2.1-7.7,3.7-7.9,7.4c-0.5,6.7-0.9,13.6,0.8,20.2
		c0.3,1,2.4,1.6,3.7,2.3c11.8,5.7,24.6,7.5,37.4,9.6c12.2,2,24.3,2.8,36.4-0.4c3-0.8,3.8-1.5,2.4-4.9c-1.5-3.9-2.8-7.9-2.8-12.5
		c0.1-8.6-3.2-12.4-11.6-14.8c-11.3-3.3-22.7-6.4-34-9.6c-1.3-0.4-3.6-0.3-3.1-2.4c0.4-1.7,2.2-2.3,4.1-1.9c1,0.2,2,0.2,2.9,0.6
		c11.3,4.2,22.9,7.5,34.5,10.6c6.2,1.7,10.3-0.1,13.4-4.3c3.8-5.2,8.4-9.3,13.8-12.6l0,0c2.6-3.6,5.3-7.2,10.3-7.4
		c4.9-0.2,4.8-2.7,2.5-6c-0.5-0.7-1-1.4-1.2-2.2c-2.1-11.4-4-22.8-3.7-34.4c0.9-0.3,0.8-0.7,0-1c-2.1-4.4-4.7-8.8-9.7-10.1
		c-8.1-2.1-16.4-7.9-24.8-1.1c-13.5,11-28.7,19.4-43,29.2c-1.2,0.8-1.4,1.2-1.2,2.6c1.3,7.9,2.9,15.8,3.5,23.8
		c0.4,5.1,1.3,11.1-7.2,11.9c-2,0.2-5.8,0.2-7.4,3.7c-0.7,1.6-2.3,0.1-3.2-0.8c-0.3-0.3-0.7-0.7-1-1c3.9-2.1,7.4-5,11.9-5.8
		c1.5-0.3,2.8-0.7,2.6-2.8c-0.8-9.1-1.4-18.3-2.4-27.3c-0.2-2.1-1.5-4.8-3.2-5.9c-8.1-5.2-16.1-11-26.2-12
		c-4.5-0.4-8.6-2.3-12.7-4.1c-1-0.4-1.8-1-1.6-2.2c0.2-0.9,0.6-1.5,1.7-1.1c3.6,1.4,7.3,2.8,10.9,4.1l0,0c3.8-0.5,7.4,0.2,11.1,1
		c-0.2,0.3-0.4,0.7-0.5,1c0.2,0,0.4,0.1,0.7,0.1c-0.1-0.4-0.1-0.8-0.2-1.2c4.9,1.3,9.4,3.5,13.1,7.1L69,84.2
		c1.8-0.1,3.5,0.4,4.5,1.6c3.9,4.4,8.1,2.3,11.5,0c12.3-8.1,24.4-16.5,36.5-25c1.6-1.2,3.7-2.3,3.6-5.3c-0.2-8.9,0.8-17.8-0.1-26.6
		c-0.9-8.3-2.4-16.5-11.8-21c-7.9-3.8-15.5-8.3-23.4-12.2C83.4-7.4,77.1-12.1,70-5.7C69.6-6.4,69.3-7.1,68.9-7.7z M162-31.8
		c0.5,7.1,0.8,14.2-0.4,21.2c-1.3,8.1,1.6,14.3,6.7,20.1c3.9,4.4,7.9,8.7,11.2,13.8c3,4.6,7,8.8,13.7,10.5
		c5.9,1.5,12.9,2.3,17.8,7.4c1,1.1,4,0.5,6.1,0.3c1-0.1,1.3-1.5,1-2.5c-2.3-6.6-1.3-14-4.7-20.2c-4.7-8.8-9.2-17.7-14.4-26.2
		c-8-13-19.5-21.4-32.6-28.2c-3.1-1.6-4.8-0.9-4.4,2.9c-0.5,0.2-0.9,0.5-1.4,0.7C161.1-32,161.6-31.9,162-31.8z M163.8,106l0.3,0.3
		c0.2,0.5,0.4,0.9,0.5,1.4c2.7,7.5,2.7,17.2,14.7,17c2.4-0.1,5.7,1.4,5.8,4.5c0.3,4.9,2.7,9.1,3.4,13.7c0.2,1.3,2.5,3.3-0.2,4.1
		c-2.2,0.7-4.1-1.2-4.4-3.1c-1.2-11.2-6.8-17.6-18.2-19.9c-4-0.8-6.5-0.1-8.6,2.3c-5.3,6-11.7,10.6-17.3,16.3
		c-5.6,5.8-10.6,10.2-5.9,18.7c0.7,1.3,0.3,3.2,0.4,4.9c0.4,7.6,3.4,9.6,10.6,8.2c8.7-1.7,16.1-6,23.8-9.9
		c26.7-13.5,41.6-36.2,48.3-64.3c4.3-18.2,2.7-37.1,1.5-56.1c-3,1.3-5.6,1.5-8.4,0.3c-4.7-2.1-9.6-3.6-14.4-5.6
		c-4.2-1.8-7.3-0.4-10.9,2.2c-7.9,5.7-11.2,15.4-19,21.1c-5.7,4.2-6.3,9.2-3.7,15.2c0.3,0.6,0.7,1.3,0.6,1.8
		C161.1,88.1,162.7,97,163.8,106z M128.5,34.2c0.7,7,1.3,13.2,1.8,19.5c0.2,2.5,1.6,3.6,3.7,4c6.7,1.3,13.1,3.5,19.4,6.3
		c1.7,0.8,3.1,1.4,4.8-0.5c8.1-9.1,16.3-18.1,24.5-27.2c1.3-1.4,2.5-2.6,0.7-4.7c-5.5-6.2-10.9-12.5-16.3-18.8
		c-5.6-6.8-11.1-13.6-21-6.5c-0.1,0.1-0.3,0-0.5,0.1c-6.8,1.7-12.8,5.7-17.5,10.1c-3.2,3,0.8,9.3,0.5,14.3
		C128.4,32.2,128.5,33.6,128.5,34.2z M211.5,5c-0.1-0.1-0.1-0.2-0.2-0.4c-0.1,0.2-0.3,0.3-0.4,0.5c0.1,0.1,0.3,0.2,0.4,0.2
		C211.4,5.3,211.5,5.1,211.5,5z M156.4,122.8l0.2-0.4l-0.3-0.1L156.4,122.8z M57.6,1.3l-0.3,0l0.1,0.3L57.6,1.3z"/>
	<path d="M158,75.1c0,0.4,0,0.7,0,1.1c-0.1-0.3-0.3-0.5-0.3-0.8C157.7,75.4,157.9,75.3,158,75.1z"/>
	<polygon points="163.8,106 164.2,106 164.2,106.4 	"/>
	<path d="M162-31.7c0-0.4,0-0.8,0-1.1C162-32.5,162-32.1,162-31.7z"/>
</g>
</svg>
