<?xml version="1.0" encoding="utf-8"?>
<!-- Generator: Adobe Illustrator 18.1.1, SVG Export Plug-In . SVG Version: 6.00 Build 0)  -->
<svg version="1.1" id="Ebene_1" xmlns="http://www.w3.org/2000/svg" xmlns:xlink="http://www.w3.org/1999/xlink" x="0px" y="0px"
	 width="250px" height="250px" viewBox="-172 295.9 250 250" style="enable-background:new -172 295.9 250 250;"
	 xml:space="preserve">
<g>
	<path d="M-120.8,381.6c17.3,0,34.6,0.3,52-0.1c30.5-0.6,61,0.8,91.4,1.2c14,0.2,28.1,1.3,42,3.9c7.2,1.3,10.3,5,10.4,12.3
		c0.1,7.4-0.1,14.8,0.1,22.2c0.2,6.6,0.8,13.1,1,19.7c0.2,6.5-1.4,7.9-7.8,7.8c-2.3,0-4.6-0.1-6.9,0c-7.8,0.1-8.2,0.1-8.1,7.5
		c0.1,3.7-2.1,4.2-4.4,4.2c-7.1,0.2-14.2,0.3-21.2,0.1c-4.1-0.1-6.4-2.9-6.6-6.8c-0.2-3.4-1.8-4.5-4.7-4.1
		c-10.2,1.4-20.5,0.9-30.7,1.2c-8.1,0.3-16.4-0.3-24.6-0.4c-6.6-0.1-13.3-1.5-19.5-1c-11.9,0.9-23.7-1.7-35.5-0.2
		c-3.5,0.4-6.6,0.5-10,0.3c-1.8-0.1-5.1-0.8-4.5,3.4c1.1,7.9-0.7,9.9-8.7,9.5c-5.7-0.3-11.4-0.9-17.2-0.9c-4.9,0-7.9-3.2-7.4-8.5
		c0.4-4.1-1.1-5.5-5-5.1c-2.3,0.2-4.6-0.1-6.9,0.1c-8.9,1-16.2-3.6-15.3-14.3c1.1-12.9,0-25.8,0.7-38.7c0.3-6,2.2-8.4,7.9-9.6
		C-147.3,382.6-134.1,381.9-120.8,381.6z M71.1,408.5c0-3.5-0.3-7.5,0.1-11.4c0.4-4.2-2.3-5.9-5.4-6.2c-14-1.6-28-3.3-42.1-4.1
		c-18.5-1.2-37-1.1-55.6-1.7c-16.5-0.5-33.1,0.5-49.7,0.7c-14.7,0.2-29.4,0.1-44.2,0.1c-10.6,0-21.1,0.9-31.6,2.7
		c-4.7,0.8-7,2.9-6.8,8.4c0.7,12.1,0.6,24.4-1.5,36.3c-1.2,6.7,1.5,10.4,8.3,10.2c5.3-0.2,10.8-1.1,15.8-0.6
		c14.3,1.5,28.6,1.9,42.9,2.1c19.6,0.3,39.2,1.3,58.8,1.2c16.7-0.1,33.5,1.2,50.2-0.6c3.5-0.4,6.8-1.7,10.4-1.1
		c8.1,1.3,16.2,1.4,24.3,0.1c7-1.1,14.1-1.3,21.2-1c6.3,0.3,6.9,0,6.7-6.2C72.6,427.9,70.3,418.6,71.1,408.5z M-133.8,446.4
		c-3-0.5-4.3,0.3-3.3,3.6c0.4,1.3,0.3,3-0.1,4.4c-0.5,1.9,0.5,2.1,1.7,2.1c5-0.2,9.8,0.5,14.8,1.1c2.2,0.3,5.1,0.2,7.7-1.2
		c4.3-2.3-0.2-4.8,0.6-7.3c0.7-2.1-1.5-1.6-2.6-1.6C-121.3,447.2-127.7,447.7-133.8,446.4z M36.4,455.9c0,0.1,0,0.1,0,0.2
		c3.6-0.2,7.2-0.3,10.9-0.6c1.9-0.1,3.7-0.1,3.1-3.1c-0.4-2.2-0.9-3.9-3.5-3.5c-6.4,1-12.8,0.7-19.3,0.6c-1.3,0-4.2-1.6-3.6,2.1
		c0.4,2.3,0.4,4.7,4,4.3C30.7,455.6,33.6,455.9,36.4,455.9z"/>
	<path d="M-11.8,411.4c-1.1-9.7,6.4-17.2,19.5-19.3c6.5-1,11.6,0.7,16.5,4.2C30.6,401.1,36.5,407,37,415c1,13.9-4.2,23.2-20.6,24.8
		c-13.6,1.3-20-6.1-26-15.7C-11.8,420.5-11.6,416.2-11.8,411.4z M-7.1,415.3c0.7,15.4,6.9,20.6,23.8,19.8
		c11.6-0.5,16.1-9.4,16.2-21.9c0.1-8.8-10.6-17-19.1-16.9C-0.2,396.4-8.9,403.5-7.1,415.3z"/>
	<path d="M-64.7,419.8c-17.2,1-34.1,1.4-51.1,0.5c-11.2-0.6-22.5-0.7-33.8-1.1c-0.8,0-1.7,0.1-2.4-0.2c-1.1-0.5-3-0.7-2.6-2.5
		c0.3-1.6,2-0.8,3-0.8c12.3,0.3,24.6,0.7,37,1.2c10.3,0.3,20.6,0.7,30.9-0.1c4.7-0.4,9.4-0.4,14.1-0.3
		C-67.6,416.5-65.7,417.3-64.7,419.8z"/>
	<path d="M-142.6,430.5c8.6,0,17.2,0.3,25.8-0.1c15.3-0.7,30.3,3.3,45.6,2.1c1.3-0.1,4.3-1.4,4.1,1.8c-0.1,2.7-2.6,2-4.3,2
		c-14.4-0.1-28.7-1.7-43.1-2.3c-13-0.5-25.8-0.1-38.8,0.3c-1.8,0.1-1.8-1.1-2.1-2.2c-0.3-1.4,0.6-1.8,1.7-1.8c3.7,0,7.3,0,11,0
		C-142.6,430.4-142.6,430.5-142.6,430.5z"/>
	<path d="M-154.8,402.4c7.7-1.7,15.4-1.1,23-0.9c17.6,0.5,35.2,1.5,52.9-0.5c2.9-0.3,5.9,0.1,8.9,0.2c2.2,0.1,3.7,1.2,3.9,3.3
		C-95.8,407.5-125.3,404.5-154.8,402.4z"/>
</g>
</svg>
