<?xml version="1.0" encoding="utf-8"?>
<!-- Generator: Adobe Illustrator 18.1.1, SVG Export Plug-In . SVG Version: 6.00 Build 0)  -->
<svg version="1.1" id="Ebene_1" xmlns="http://www.w3.org/2000/svg" xmlns:xlink="http://www.w3.org/1999/xlink" x="0px" y="0px"
	 width="250px" height="250px" viewBox="0 0 250 250" style="enable-background:new 0 0 250 250;" xml:space="preserve">
<g>
	<path d="M225.8,11.9c0.8,6.4,1.8,12.5,1.3,18.9c-0.3,4.4,0.5,8.9,0.9,13.4c1.1,10.4,1.9,20.8,2.1,31.3c0.1,5.9-1.5,10.5-5.3,14.4
		c-2.8,2.9-3.7,6.2-3.7,9.9c0,7,0.3,14,0.2,20.9c-0.2,7-0.4,14-0.2,20.9c0.2,8.2,1,16.5,2.2,24.6c0.8,5.9,0.8,11.9,2.1,17.7
		c1.6,7.1,2.2,14.3,2.9,21.5c0.9,9,0.8,18.4-1.5,27.3c-1.1,4.2-3.6,7.8-7.4,10.3c-6.2,4-16.3,1.8-19.1-7.2c-3-9.8-2.4-19.4-1.2-29.2
		c0.8-6.3,1.5-12.5,1.7-18.8c0.1-5.5,1.3-10.8,2-16.2c0.8-6.2,1-12.5,1.5-18.7c1-13,0-26.1,1-39.2c0.5-5.8-0.8-11.8-1.3-17.7
		c-0.2-2.5-1.6-4.4-3.3-6c-6.4-6.4-6-14.2-4.8-22.1c1-7.3,1.2-14.6,1.9-21.9c0.6-6.3,1.1-12.7,2.3-18.9c0.8-4.2,1.2-8.4,0.7-12.7
		c3.2,0,3.5,0.4,3.9,3.3c0.5,3.9-0.5,7.6-1.1,11.4c-1.5,10.9-2.4,21.7-3,32.7c-0.3,5.2-0.8,10.4-0.9,15.7c-0.1,4.8,2.2,8.7,5.1,12.1
		c2.9,3.4,3.9,7.1,4.2,11.4c1.2,14.9-0.1,29.8-0.4,44.7c-0.2,12-1,24.1-3.2,36.1c-1,5.5-0.9,11.2-1.3,16.8
		c-0.6,8.2-1.5,16.4-1.9,24.7c-0.2,5,1.2,9.8,3.4,14.3c1.7,3.4,6,5.3,9.1,4.7c3.5-0.7,7.7-5,8.3-9c1.4-9.4,1.1-18.7,0.5-28.2
		c-0.9-13.1-4-25.9-4.7-39c-0.4-7.6-2.1-15.1-2-22.7c0-11.9,0-23.8,0.1-35.8c0-1.7-0.2-3.3-0.3-4.9c-0.1-4.8,0.2-10,4-13.4
		c4.7-4.2,5.3-9.4,5.4-15.1c0.1-6.8-1.1-13.5-0.7-20.2c0.1-2.2-0.9-4.5-1.3-6.7c-1.4-8,0-16.2-1.3-24.2c-0.4-2.4-0.4-4.9-0.6-7.4
		C221.9,13.3,223.1,12.3,225.8,11.9z"/>
	<path d="M25.6,4.4c5.7-0.4,8.5,3.6,11.5,7c3.3,3.9,4.2,9,5.7,13.7c4.4,13.8,6.1,28.1,7.5,42.4c0.7,7.3,0.5,14.6,1.5,21.8
		c0.9,6.2,0.4,6.5-5.1,9c-3,1.4-6,2.7-8.6,5.4c0,8.6,1,17.3,1.1,26.1c0.1,11.9-0.4,23.9,0.1,35.8c0.3,9.4,0.5,18.9,0.7,28.3
		c0.2,11.4-0.9,22.7-3.9,33.7c-0.7,2.6-2.2,4.9-3.5,7.1c-1.4,2.3-3.6,3.6-6.4,2.8c-2.6-0.7-3.5-2.9-3.5-5.4c0-9.7-2.7-19.2-2.6-28.9
		c0.1-7.5-0.2-15-0.5-22.5c-0.2-4.6-0.2-9.2-0.4-13.7c-0.4-9.3,2.2-18.3,2.4-27.4c0.2-10.2,0.4-20.5,0.5-30.7c0-9-0.4-18.1,0.6-27.3
		c0.7-7.1-0.4-14.5-0.9-21.8c-0.1-2.5-0.6-4.9,0.1-7.4c0.3-0.9,0.3-2,0.2-3C20.3,38,22.8,26.5,22.8,15C22.8,11.1,24.9,8.1,25.6,4.4z
		 M29.4,8.7c-3.4,0.9-4.2,3.6-4.2,6c0.1,10-1.4,19.9-1,29.9c0.2,4.1,0.2,8.2-0.1,12.3c-0.1,1.5,0.1,3,0.3,4.5
		c0.7,6.2,1.8,12.5,1.2,18.8c-1,9.9-0.5,19.8-0.2,29.7c0.3,10.3,0.5,20.7-0.8,30.7c-2.1,15.9-1.6,31.8-1.3,47.6
		c0.2,13.7,1,27.5,3.1,41.1c0.3,1.7-0.2,3.7,1.8,5.1c2.7-1.6,3.2-4.4,4-7c4.7-16.2,4-32.8,3.5-49.3c-0.3-7.9-1-15.9-0.3-23.8
		c0.5-5.1,0.2-10.2,0.2-15.2c0-9.3-0.6-18.7-1.3-28.1c-0.7-8.8,0.7-9.4,7-12.5c2.1-1,4-2.3,5.7-3.4c0-7.6,0.7-15.1-0.2-22.5
		c-1.9-15.5-2.7-31.2-8-46.2C36.6,20,35,13.3,29.4,8.7z"/>
	<path d="M128.2,240.4c-6.2-4.5-7.2-11.6-9-18.2c-1.8-6.3-0.4-12.5,0.1-18.7c0.4-4.6,1.3-9.1,1.6-13.8c0.4-6.1,2.5-12,3.6-18
		c1.6-8.9,3.5-18,3.2-27c-0.5-13.4,0.2-26.8-1.7-40.2c-0.3-2.1-1.3-3.7-2.7-5.2c-2.3-2.6-4.7-5.1-7-7.7c-7.3-8.3-8.7-18.1-7.2-28.6
		c1.2-8.2,2.8-16.4,6.1-24.1c3.7-8.7,8.3-16.9,14.2-24.3c2.4-3,8.9-3,11.6,0c3.7,4.2,6.8,9.1,8.6,14.4c2.5,7.7,5.2,15.3,6.7,23.3
		c1.6,8.2,1,16-1.1,24c-2.3,8.9-7.4,16.2-12.3,23.6c-2.3,3.5-3.5,7.2-3.4,11.2c0.2,5.9,0,11.9,1.2,17.8c0.4,1.8,0.4,3.7,0.2,5.5
		c-1,8.3-0.4,16.6,0.3,24.7c1,12.5,2.2,25,3.5,37.5c1.1,10.5,3.1,21.4-0.7,31.9c-0.7,1.9-1.4,3.7-2.4,5.4
		C138.4,239,134.2,241.5,128.2,240.4z M131,138.4c0.3,10.3-0.2,18.2-1.7,26.1c-2.6,13.1-5.7,26.1-6.6,39.5
		c-0.6,7.9-1.1,15.8,1.5,23.6c1,3,2.2,5.9,4.3,8.2c2,2.2,5.1,2.5,7.2,0.8c2.4-1.9,4.6-4.2,5.2-7.2c1.4-7.3,2.8-14.7,1.8-22.2
		c-1.4-10.8-3.1-21.6-3.6-32.5c-0.4-7.6-1.6-15.2-1.8-22.7c-0.4-12.1-0.4-24.1-1.5-36.2c-0.5-5.7-0.1-12,3.7-17.2
		c4.1-5.6,7.8-11.3,10.6-17.8c2.9-6.7,4.7-13.6,3.9-20.7c-1.6-15-6.9-28.9-14-42.1c-2.2-4.2-5.5-4.6-8.8-1.2
		c-2.9,3.2-5.5,6.7-7.6,10.4c-5.5,9.9-9.1,20.6-10.7,31.8c-1,7.5-2.1,15.2,1.4,22.5c2.2,4.6,5.2,8.8,9.1,12.3
		c3.5,3,5.8,6.6,6.2,11.5C130.5,117.1,130.1,128.9,131,138.4z"/>
	<path d="M217.6,72.1c-2.3-0.2-2.5-2.1-2.4-3.6c0.5-7.8,0-15.6,1.2-23.4c0.2-1.5,0-2.9-0.2-4.4c-0.8-8.5-2.5-17-0.6-25.7
		c0.4-1.7,0.5-3.3,2.6-3.4c0.9,0.6,0.8,1.5,0.7,2.3c-1.4,9.4,0.8,18.7,1,28c0.2,9.2,0.1,18.5-1,27.7
		C218.9,70.7,218.9,71.7,217.6,72.1z"/>
	<path d="M211.7,12.7c1.1,19.9,0.2,39.7-0.2,60c-0.7,1.2-2.5,0-3.6,0.8c-0.7-0.3-0.8-0.8-0.7-1.3c0.9-7.3-0.3-14.7,0.9-22
		c1.1-7.2,1-14.4,0.4-21.6c-0.4-4.6-1.1-9.2,0.4-13.8C209.3,13.5,209.5,12.5,211.7,12.7z"/>
</g>
</svg>
