<?xml version="1.0" encoding="utf-8"?>
<!-- Generator: Adobe Illustrator 18.1.1, SVG Export Plug-In . SVG Version: 6.00 Build 0)  -->
<svg version="1.1" id="Ebene_1" xmlns="http://www.w3.org/2000/svg" xmlns:xlink="http://www.w3.org/1999/xlink" x="0px" y="0px"
	 width="250px" height="250px" viewBox="0 0 250 250" style="enable-background:new 0 0 250 250;" xml:space="preserve">
<g>
	<path d="M14.7,127.1c6.3-19.2,22.1-23.8,39.2-27c20.3-3.7,40.1-0.7,59.9,3.4c10.7,2.2,21.6,0.7,32.4,1.1c7.9,0.3,14.1,3.2,18.5,9.8
		c1.3,2,2.2,2.2,4.3,0.9c3.9-2.3,7.9-4.6,12.8-3.9c0.8,0.1,1.8-0.2,2.4-0.7c11.2-9,24.4-5.8,37-5.7c3.4,0,6.6,0.9,9.9,2
		c2.5,0.9,5,1.5,8-0.6c2.1-1.5,6.2-0.9,9.3-0.5c2.1,0.3,1.7,2.5,1.4,4.2c-0.8,4.3-1.6,8.6-2.3,13c-0.9,5.6-1,11.1,1.2,16.5
		c1.2,3,0.2,4.5-3.1,4.6c-2,0.1-4.1,0.4-6.1,0.1c-5-0.8-5.8,2-5.1,5.9c0.6,2.9,0.4,5.7-0.3,8.5c-1.1,4.5-3.7,6-8.1,4.8
		c-1.9-0.5-2.1-1.8-2.1-3.5c0.1-3.5-0.2-7.1,0-10.6c0.1-2.3-0.1-3.2-2.9-3.2c-15-0.1-29.9-0.8-44.9-0.7c-25.2,0.2-50.4-0.7-75.5,1.1
		c-19.7,1.4-39.5,1-59.3,1.6c-4.4,0.1-8.7-1.3-13.1-0.2c-2.6,0.6-3.7,1.1-3.2,4.3c0.6,4.2,1.3,8.4,2.9,12.3c1.5,3.6,0.2,4.4-3.1,4.7
		c-6.7,0.7-7.5,0.1-8-6.7c-0.1-1.5-0.4-3-0.7-4.5c-1.5-7.3-1.5-7.4-8.7-7.2c-3.9,0.1-6.3-0.5-5.9-5.6c0.8-11.1,0.7-22.3-1.2-33.4
		c-0.2-1-0.6-2.5,0.4-2.7c4.1-0.7,8.2-1.1,12.3-1.3c1,0,0.8,1.6,1,2.6C15,115.9,14.8,121.4,14.7,127.1z M18.5,128.5
		c11.3-0.7,22.2,0.4,32.9-0.1c15.4-0.7,30.8-0.1,46.1,0c19.1,0.2,38.2,0.5,57.2,1c23.7,0.6,47.5-0.7,71.2-1.5
		c12.2-0.4,12.1-0.3,11.6-12.5c-0.1-2.2-0.7-3.5-2.9-4c-3.4-0.8-6.8-2.1-10.3-2.4c-13.7-1.1-27.1-2.8-40.3,4.8
		c-6.2,3.6-14.5,4-20.3,9.5c-0.8,0.8-2,0.8-2.7-0.2c-0.6-0.8,0-1.7,0.8-2.1c3.5-2.1,1.6-4,0-6.1c-6.1-7.5-14.5-7.4-22.8-6.7
		c-9.5,0.7-19,0.4-28.3-1.7c-19.2-4.4-38.4-6.2-57.9-2.5C38.1,106.7,24.5,111.4,18.5,128.5z M162,141.9c15.7,0,26.8,0,37.8,0
		c7.6,0,15.2,0.1,22.8,0c3.9,0,5.7,1.6,5.2,5.5c-0.3,2.3-0.8,4.8-0.5,7.1c0.3,2.1-1,5.9,1.7,5.9c2.8,0,2.3-3.9,2.7-6.3
		c0-0.2,0-0.3,0-0.5c0-3.5-2.2-7.5,0.1-10.4c2.6-3.1,7-1.3,10.6-1.4c3.1-0.1,3.3-1.5,2.4-3.9c-1.6-3.9-1.5-7.9-1-12
		c0.5-4.4,0.7-8.8,1.8-13.1c0.4-1.8,1-3.9-2-4.1c-2.8-0.2-1.9,1.7-2.2,3.3c-0.5,3.3-0.9,6.7-0.7,10c0.4,8-1,9.3-9.2,8.9
		c-10.9-0.4-22-0.4-32.8,0.1c-15.3,0.6-30.6,1.4-45.9,1.1c-18.8-0.3-37.6-1-56.3-0.8c-26.9,0.3-53.8-0.8-80.6,0.3
		c-2.8,0.1-4-1-3.9-3.9c0.1-3.9,0.1-7.8-0.2-11.6c-0.2-2.4,0-5.1-4.2-4.7c-3.8,0.4-3.8,2.6-3.4,5.3c1.1,7.7,0.9,15.5,0.9,23.3
		c0,7.7-0.1,8,7.3,7.4c4.6-0.3,6,1.4,6.4,5.6c0.3,3.7,1.2,7.3,1.9,11c0.3,1.7,1.4,2.3,2.9,2c1.8-0.3,1.2-1.6,0.9-2.8
		c-0.6-2.3-1.5-4.5-1.8-6.9c-1.5-10.7-0.1-12.1,10.8-12.1c13.5,0,27,0.7,40.5,0C104.8,142.9,135.7,141.2,162,141.9z"/>
</g>
</svg>
