<?xml version="1.0" encoding="utf-8"?>
<!-- Generator: Adobe Illustrator 18.1.1, SVG Export Plug-In . SVG Version: 6.00 Build 0)  -->
<svg version="1.1" id="Ebene_1" xmlns="http://www.w3.org/2000/svg" xmlns:xlink="http://www.w3.org/1999/xlink" x="0px" y="0px"
	 width="250px" height="250px" viewBox="0 0 250 250" style="enable-background:new 0 0 250 250;" xml:space="preserve">
<g>
	<path d="M52,82.4c12.9,2,26,2.2,38.9,3.6c6.7,0.7,13.2-0.9,19.6-2.4c1.5-0.3,3.5-1.1,2.2-3.6c-0.3-0.6-0.4-1.4-0.2-2
		c3.3-9.1-1.2-15-7.4-20.9c-10.5-10-12.2-26-4.7-38.4c4.1-6.9,8.7-13.5,16.7-16.5c12.1-4.5,24.5-2.2,31.4,9.8
		c5.9,10.3,10.8,21,6.4,33.2c-2.2,6.2-7.1,10.7-11,15.8c-2.1,2.7-4.4,5.2-5.9,8.3c-3.5,6.9-2.4,10.2,5.1,12.5c5.3,1.6,11,3,16.5,3.1
		c13.1,0.1,25.7,2.7,38.4,4.7c5.3,0.9,10.9-0.1,15.6,3.7c3.5,2.8,5.9,8,4,11c-2.4,3.6-6,5.5-10.5,4.4c-7.3-1.8-14.7-0.8-22.1-1.3
		c-4.3-0.3-8.6-1.2-12.9-1.9c-0.8-0.1-1.7-0.4-2.5-0.4c-9.8-0.2-13.2,4.2-11.2,15.3c3,16.1,0.5,32.2,0.5,48.2c0,9.5-1,19-0.5,28.5
		c0.7,12.9,1.3,25.7,2.3,38.6c0.6,6.9-4.6,16.2-13.2,14.1c-4.2-1-6.4-3.5-7.4-7.3c-0.1-0.3-0.1-0.7-0.1-1
		c0.2-12.5-3.6-24.4-5.5-36.5c-1-6.4-0.5-12.9-2.3-19.2c-2.3-8.3-4.6-9.9-13.1-8.9c-2.7,0.3-3.7,1.2-4.2,3.9
		c-2.9,17.2-6,34.5-9.2,51.7c-1,5.2-2.5,10.3-7.7,13.3c-4.2,2.4-7.3,1.2-9-3.4c-2-5.4-0.2-10.8-0.2-16.2c0.2-15.8,0.7-31.6,1-47.4
		c0.1-7.8,2.6-15.4,2.2-23.3c-0.6-13.6,2.3-27,1.9-40.6c-0.3-8.1-4.7-12.2-12.9-11.8c-5.6,0.3-11.2,1-16.7,1.7
		c-9.3,1.2-18.3,0.6-27-3.3c-6.7-3.1-7.6-7.7-2.7-13.2C39.4,82.7,45.6,82.4,52,82.4z M92.6,218.8c0,2,0,4.1,0,6.1
		c0,4.6-0.1,9.2-0.1,13.8c0,1.9,0.1,4.2,2.1,4.8c1.9,0.6,2.8-1.5,3.8-2.7c1.8-2.2,2.6-4.6,3.1-7.4c3.4-18.3,8.6-36.3,10-55
		c0.2-2,1.2-3.8,3.3-4c3.5-0.5,7.1-0.9,10.6-0.7c5.1,0.4,8.8,5.6,10,13.2c1.5,9.4,0.8,19.1,4.4,28.2c1.7,4.2,2,8.6,2.7,12.9
		c0.9,5,0.2,10.3,2.2,15.1c1,2.3,2.5,4,5.4,4.1c3.1,0,4.2-2.2,4.8-4.5c0.7-2.6,1.6-5.1,1.2-7.9c-1.6-11.5-1.9-23.1-1.8-34.7
		c0.2-19.4,0.9-38.8,1.2-58.2c0.2-11,0-22.1-0.1-33.1c0-3,1.3-5.2,4-5.8c3.6-0.9,7.4-1.8,11.1-1c12.5,2.8,25.4,2,38,3.8
		c2.8,0.4,5.2-0.4,6-3.5c0.7-2.8-0.6-4.6-2.9-6.4c-4.1-3.2-8.8-1.8-13.1-2.6c-13.5-2.6-27.2-4.4-41-4.5c-4.7,0-9.4-0.6-13.5-2.4
		c-12.2-5.3-15.4-9.9-7.9-22c1.9-3.2,4.8-5.7,7.3-8.6c10.4-11.8,12.1-24.2,4.8-37.5c-3-5.4-6.5-10.5-12.8-12.4
		c-11.6-3.4-21-0.2-28.5,9.3c-8.7,11.1-11.5,27.2-1.5,38.4c6.4,7.2,12.6,13.7,12,24.7c-0.4,6.5,0.7,6.9-6.1,8.7
		c-17.3,4.8-34.5,2.2-51.7,0.2c-6.3-0.7-12.5-1.7-18.7,0.3c-3,1-5.8,2.8-5.8,6.3c0,3.2,3,4.3,5.4,5.4c1.7,0.7,3.6,1,5.4,1.4
		c10.7,2.7,21.3,1.1,31.8-0.9c11.9-2.2,18.5,3.5,19.3,16.1c0.7,11.3-2.2,22.7-1.7,34.1c0.3,6.1-0.4,12.2-1,18.3
		C92.8,185,92.6,201.9,92.6,218.8z"/>
</g>
</svg>
