<?xml version="1.0" standalone="no"?>
<!DOCTYPE svg PUBLIC "-//W3C//DTD SVG 20010904//EN"
 "http://www.w3.org/TR/2001/REC-SVG-20010904/DTD/svg10.dtd">
<svg version="1.0" xmlns="http://www.w3.org/2000/svg"
 width="130.000000pt" height="130.000000pt" viewBox="0 0 130.000000 130.000000"
 preserveAspectRatio="xMidYMid meet">
<metadata>
Created by potrace 1.12, written by Peter Selinger 2001-2015
</metadata>
<g transform="translate(0.000000,130.000000) scale(0.100000,-0.100000)"
fill="#000000" stroke="none">
<path d="M657 1006 c-190 -10 -210 -13 -224 -31 -12 -17 -14 -50 -8 -220 4
-110 7 -210 6 -223 -1 -34 15 -60 50 -78 25 -12 61 -15 178 -14 80 1 151 1
158 1 7 -1 13 -21 15 -48 3 -46 4 -48 38 -54 25 -5 15 -7 -37 -8 l-73 -1 6 44
c4 27 2 46 -5 50 -7 5 -11 -4 -11 -27 l0 -34 -71 -7 c-72 -6 -109 -19 -109
-36 0 -11 387 -14 414 -4 37 14 15 32 -47 38 -77 9 -82 12 -90 57 -5 36 -5 37
31 42 20 2 78 5 127 6 139 3 137 2 131 75 -3 33 -8 120 -11 191 -13 302 -9
296 -159 293 -56 -1 -195 -7 -309 -12z m423 -26 c5 -8 10 -24 11 -35 0 -11 2
-31 4 -45 2 -14 6 -112 10 -217 l8 -193 -54 0 c-30 0 -86 -5 -124 -10 -39 -5
-155 -10 -258 -11 -151 -2 -191 1 -202 12 -15 15 -23 102 -29 319 -5 190 -12
178 103 180 53 1 155 5 226 8 213 11 294 9 305 -8z m-342 -647 c-10 -2 -26 -2
-35 0 -10 3 -2 5 17 5 19 0 27 -2 18 -5z"/>
<path d="M815 959 c-44 -4 -135 -7 -203 -8 -68 0 -127 -3 -132 -6 -5 -3 -9
-67 -10 -143 -1 -75 -2 -150 -2 -167 -4 -85 30 -150 78 -150 43 1 245 16 279
21 39 6 162 5 200 -2 18 -3 38 1 49 9 19 14 19 20 8 154 -7 76 -12 171 -12
210 0 47 -4 75 -12 80 -15 10 -132 10 -243 2z m236 -134 c3 -66 10 -162 14
-214 l8 -94 -34 6 c-53 10 -143 9 -289 -2 -222 -17 -227 -17 -246 22 -10 17
-17 52 -17 77 0 25 1 105 2 179 l2 134 42 -5 c23 -2 128 1 232 8 105 6 210 11
235 10 l45 -1 6 -120z"/>
<path d="M126 955 c-14 -14 -16 -53 -13 -323 1 -169 6 -313 10 -319 6 -9 40
-12 128 -9 66 2 122 6 124 8 5 4 9 315 7 485 -1 105 -5 134 -17 147 -9 9 -22
16 -28 16 -7 0 -53 3 -104 5 -75 5 -94 3 -107 -10z m216 -15 c15 0 17 -15 18
-137 1 -76 2 -165 3 -198 2 -99 -5 -262 -12 -271 -3 -5 -52 -9 -108 -10 l-103
0 -1 115 c-1 64 -3 202 -4 306 -2 105 -1 193 1 197 2 3 46 4 97 2 50 -2 100
-4 109 -4z"/>
<path d="M147 914 c-2 -5 -2 -24 0 -42 l5 -33 92 3 91 3 3 33 3 32 -64 0 c-36
0 -78 3 -95 6 -16 3 -32 2 -35 -2z m173 -35 c0 -5 -31 -9 -70 -9 -38 0 -73 0
-77 -1 -5 0 -9 6 -11 13 -2 10 16 12 78 10 44 -2 80 -8 80 -13z"/>
<path d="M217 526 c-9 -23 1 -43 25 -49 32 -9 49 3 46 32 -2 21 -9 27 -34 29
-21 2 -33 -2 -37 -12z m53 -17 c0 -11 -27 -12 -34 0 -3 4 -3 11 0 14 8 8 34
-3 34 -14z"/>
</g>
</svg>
