<?xml version="1.0" encoding="utf-8"?>
<!-- Generator: Adobe Illustrator 18.1.1, SVG Export Plug-In . SVG Version: 6.00 Build 0)  -->
<svg version="1.1" id="Ebene_1" xmlns="http://www.w3.org/2000/svg" xmlns:xlink="http://www.w3.org/1999/xlink" x="0px" y="0px"
	 width="250px" height="250px" viewBox="98 -99 250 250" style="enable-background:new 98 -99 250 250;" xml:space="preserve">
<g>
	<path d="M104.1,27.5c-0.6-13.8-1.4-27.5-1.8-41.3c-0.2-9.4,0.8-18.8,0.3-28.1C102.1-52,102-62.1,102-72.3c0.1-12,11-21,22.9-19.4
		c6.2,0.8,12.4-0.4,18.6-0.2c11.4,0.4,22.8-0.5,34.2-0.9c12.4-0.5,24.8-1,37.2-1.8c12.4-0.9,24.7,1.2,37.1,0.2
		c13.5-1.1,27.1-1.5,40.6-1.9c10.3-0.3,20.6,0.1,30.8-0.4c8.5-0.4,15.9,5.9,18.7,13.9c3,8.4,2.9,16.8,2.6,25.5
		c-0.6,20.5-0.5,41.1-0.9,61.6c-0.2,10-0.5,19.9-1.2,29.9c-0.5,7.3,0.6,14.5,1.6,21.7c0.7,5.1-0.8,9.7-3.5,14.1
		c-2.8,4.5-7.4,4.9-11.6,5.2c-11.4,1-22.8,1.1-34.3,1.1c-11.3,0-22.7-2.1-34.1,0.3c-5.4,1.1-7.1,2.9-5,8c1.2,3.2,3.1,6.2,4.3,9.4
		c1.7,4.5,0.3,6.7-4.5,7.9c-7.9,1.9-16.1,2.5-24,2.4c-7.8-0.1-15.4,1.7-23.1,1.6c-4.4,0-8.8,0.1-13.2,0.5c-4.7,0.4-7.3-7.3-4.1-11.6
		c1.9-2.5,3.7-5.1,5-8c2.4-5.1,0.3-8.9-5.3-8.6c-12.3,0.6-24.5,0.4-36.8,0.7c-8.6,0.2-17.2-0.8-25.7-1.8c-3.2-0.4-6.3-0.3-9.4-0.5
		c-9.4-0.8-15.9-7.7-15.9-17C103,48.8,104.4,38.2,104.1,27.5z M341.8-53.9c0.7-8.5,0.2-15.9-0.8-23.4c-1.1-9-6.5-14.6-15.5-15.1
		c-12.5-0.8-25.1-0.3-37.6-0.3c-14.3,0-28.6,2.7-42.8,1.9c-16.7-0.9-33.2-0.3-49.8,0.7c-24.5,1.4-49,0.2-73.5,1.4
		c-9,0.4-16.8,7.1-16.7,16c0.2,16.8,0.4,33.6,0.7,50.4c0.3,17.4,0.7,34.8,1,52.2c0.2,9.9-0.5,19.8,0,29.7c0.3,6,2.3,10.8,8.1,11.7
		c10.4,1.6,20.7,4.1,31.4,4.3c14.3,0.3,28.5-0.7,42.7-1.1c10.7-0.3,21.4-1.4,32.2-1.8c8.9-0.3,17.8,0.5,26.7,0.1
		c10.9-0.4,21.8-1,32.8-0.5c15.2,0.6,30.4,1.8,45.7,0c10.3-1.2,16-5.5,14.7-16.6c-0.8-6.5-1.1-12.9-1-19.4
		C340.6,5.9,341.2-24.5,341.8-53.9z M197.7,77.7c2.6,4,1,7.4-0.9,10.8c-1.4,2.5-2.7,5-4.2,7.3c-1.4,2-1.5,4.1-0.5,6.1
		c1.1,2.2,3.3,1.7,5.3,1.6c13.3-0.8,26.6-1.3,39.8-2.5c5.6-0.5,11.3,0,16.8-1.5c5-1.4,6-3,3.6-7.7c-1.5-3.1-3.1-6.2-4.6-9.3
		c-1-2,1.9-5.6-1.4-6c-2.4-0.3-5.1-1.3-7.8-0.3c-0.7,0.3-1.6-0.1-2.4-0.1C227,76.1,212.5,76.1,197.7,77.7z"/>
	<path d="M300.6,134.5c-1.5,0.1-3.1,0.4-3.7-1.6c-1-3.8-4.4-6.2-6-9.6c-2.3-4.9-5.7-5.9-10.7-5.9c-21.2-0.3-42.5-0.4-63.7,0.5
		c-16.6,0.7-33.2,1.1-49.8,1.2c-2.7,0-2.9,1.7-3.7,3.2c-3.6,7.1-6.6,14.4-9.5,22.4c49.5-2.2,99-1.6,149.2-4.1
		c-1.5-1.7-1.6-3.2-1.8-4.7c0.4,0.5,0.7,1.1,1.1,1.6c1.3,1.8,4.6,3,3.5,5.3c-0.7,1.3-4.1,1.5-6.4,1.8c-12.6,1.3-25.2,0.5-37.7,1.1
		c-17.4,0.7-34.8,0.7-52.3,0.7c-16.7,0-33.3,0.6-50,1.9c-9.4,0.7-10.5-0.6-7.2-9.1c3.2-8.1,6.8-16.1,10.1-24.2
		c0.6-1.3,1.4-1.3,2.3-0.6c4.9,3.6,10.6,1.6,15.7,1.6c17-0.1,34.1-0.9,51.1-1.8c16.7-0.9,33.5-0.1,50.2,0.1c5.4,0.1,8.6,0.9,11,6.1
		C294.8,125.2,298.2,129.6,300.6,134.5z"/>
	<path d="M325.9,44.4c-14-0.1-28.1,0-42.1,0.3c-8.9,0.2-17.7,1.3-26.7,1c-9.1-0.3-18.2-1.4-27.5-1c-8.4,0.4-16.9,0.4-25.4,0.9
		c-10.7,0.7-21.4,0.5-32,1.1c-16.9,1-33.8,3-50.8,1.6c-1.5-0.1-2.9,0-4.4-0.7c-1.4-0.7-2.5-2.2-2.1-3.1c4.2-9,0-18,0.4-27.1
		c0.4-9.4-0.2-19-0.9-28.4c-0.8-10.1-0.1-20.3-1.3-30.4c-1-8.5-0.9-17.2-1.3-25.8c-0.4-7.6,1.7-11.4,9.1-12.8
		c10.2-1.9,20.5-3.5,30.8-3.5c9.9,0,19.8,0.8,29.8,1c18.5,0.5,37-1.2,55.5-1.5c12-0.2,23.9,0,35.9-0.1c12.8-0.2,25.7,0.4,38.4-1.8
		c14.8-2.6,23.9,11.5,22.1,25.3c-0.9,6.6-0.4,14-0.5,21c0,9.6,0.5,19.2-0.6,28.8c-1,8.6,0,17.5-0.1,26.3c0,5.9-0.5,11.8-0.6,17.8
		c0,3-1,6.4,2.9,8.2c0.7,0.3,1.2,1.2,0.8,2.1c-0.4,0.9-1.2,0.9-2.1,0.9C330.9,44.3,328.4,44.4,325.9,44.4z M119.1,16.4
		c0.1,8.4-0.4,16.9,1.2,25.3c0.2,1.3-0.3,2.5,1.9,2.5c8.3-0.1,16.5,1,24.8,0.3c8.3-0.7,16.5-1.6,24.8-1.3c7.8,0.3,15.6,0.4,23.3-0.3
		c14.1-1.3,28.2-1.6,42.3-1.5c11.6,0.1,23.2,1.4,34.8,1.3c17.7-0.1,35.4-1.2,53.1-1.3c2.6,0,7.2,0.6,3.2-4.6
		c-0.9-1.2-0.5-3.6-0.4-5.4c0.6-19.9,1.9-39.8,1.8-59.7c-0.1-13.9,0.3-27.9-1.6-41.9c-1.2-8.6-5.5-13.1-13.5-12
		c-4.7,0.7-9.4,1-14.1,1.4c-11.9,0.9-23.8,0.2-35.7,0.4c-15.1,0.2-30.3-0.3-45.4,0.4c-15.3,0.6-30.6,0.9-45.9,0.2
		c-12-0.6-23.9-1.2-35.8,0.4c-5.5,0.7-10.9,2.4-16.6,2.4c-2.7,0-6.2,1.7-6.2,5.8c0.1,6.4-0.4,13,0.5,19.3
		C118.4-29.2,117.7-6.4,119.1,16.4z"/>
</g>
</svg>
