<?xml version="1.0" encoding="utf-8"?>
<!-- Generator: Adobe Illustrator 18.1.1, SVG Export Plug-In . SVG Version: 6.00 Build 0)  -->
<svg version="1.1" id="Ebene_1" xmlns="http://www.w3.org/2000/svg" xmlns:xlink="http://www.w3.org/1999/xlink" x="0px" y="0px"
	 width="250px" height="250px" viewBox="112 -113 250 250" style="enable-background:new 112 -113 250 250;" xml:space="preserve">
<g>
	<path d="M187.8,26.6c0.6-3.2,3.1-3.8,5.6-4.5c2.1-0.6,3.6-1.1,2.1-4.2c-1.6-3-0.5-6.7-0.1-10.1c0.2-1.9,1.3-3.9-0.4-6.6
		c-2.4,5.7-4.7,10.8-6.9,16c-2.3,5.5-5.4,10.5-8.8,15.3c-1.1,1.6-2.1,3.3-4.5,2.2c-2.1-0.9-2-2.6-1.8-4.7
		c1.2-13.8,4.3-26.9,10.7-39.3c3-5.8,3.6-12.7,8.5-17.8c2.4-2.5,5.5-3.4,8.2-5c2-1.2,3-2.2,2.9-4.7c-0.4-8.2,6.4-18.6,13.8-21.7
		c3.2-1.4,14.6,1.1,17.2,3.7c3.6,3.7,4,8.7,1.2,14.8c-0.3,0.6-0.6,1.2-0.9,1.8c-3.2,7.9-2,9.4,6.6,9.4c7.8,0.1,14.7,3.1,20.5,8.3
		c3.2,2.9,4.7,6.6,4.5,11c-0.3,7.2-1.4,14.3-2.7,21.4c-0.9,4.9-5,7.1-8.4,9.9C249,26.8,243,31.6,237,36.4c-3.3,2.6-5.7,1.6-7.3-2
		c-1.1-2.5-3.1-5-2.2-7.7c1.6-4.8-1.2-4.2-4.1-4c-5.5,0.5-10.9,0.8-16.4,0.3c-4.8-0.5-9,1.4-13.4,2.6
		C191.8,26.1,189.9,27,187.8,26.6z M198.7-8.9c1.9,1.8,3,3.8,2.2,7c-1.3,4.8-1.5,9.7-2.6,14.6c-1.5,6.4-0.6,7,6.2,7.3
		c1.5,0.1,3.1,0.5,4.6,0.4c9-0.4,18.7,2.2,26.2-4.9c4.7-4.5,10.7-8.9,7.4-17.4c-1.3-3.3-0.1-7.1,0.5-10.6c0.3-1.6,1.3-3.3,3.1-3.7
		c1.6-0.4,2.2,1.4,3,2.4c4,4.9,3.9,14.4-0.5,19.6c-4.4,5.2-8.7,10.6-14.1,14.8c-2.4,1.8-3.5,4.3-4.4,6.8c-0.9,2.5,0.3,5.2,2.2,6.9
		c1.9,1.7,3.5-0.6,4.8-1.6c3.5-2.7,6.4-6.3,10.1-8.6c10.6-6.6,14.9-16,15.5-28.2c0.5-11.5-1.9-15.8-12.8-19.5
		c-4.9-1.7-10.1-1.6-15.1-2.8c-4-1-5.8-3.2-4.9-7.4c0.7-3.4,1.5-6.6,3-9.8c2.1-4.6,1.2-9.2-2.1-11c-4.5-2.4-9.7-0.4-13.9,0
		c-6.4,0.6-12.8,13.4-11.8,20.1c0.6,3.8-0.9,5.3-4,5.5c-5.8,0.4-8.6,4.9-10.1,9c-3.8,10.2-8.4,20.1-11.9,30.4
		c-2.1,6.3-2.2,13-2.5,19.7C186.7,18.4,188.5,2.5,198.7-8.9z M247-11.6c-1.1,3.8-2.1,7.7-0.1,12.2C249.4-4,248.8-7.8,247-11.6z"/>
	<path d="M193.5,52.5c5.7-2.1,11.7-1.8,17.1,0c9,3,18.3,4.3,27.7,5c10.1,0.8,20.1-0.4,30-2.4c11.1-2.2,22.2-2,33.5-1.2
		c12.6,0.9,25.3,0.5,37.9,0.6c4.8,0,9.5,1.1,14.3,0.1c1.3-0.3,3-0.1,2.9-2c-0.2-7.2,2.4-14.2,1.9-21.4c-0.1-2,0-4.9-2.3-5.2
		c-2.7-0.4-3.2,2.6-3.8,4.7c-1.3,4.9-4,9-7,12.9c-1.9,2.5-4.3,3-7.2,2.9c-8.3-0.2-16.3-2.2-24.4-3.3c-12.9-1.8-25.9-1.9-38.9-1.2
		c-6.3,0.3-10.9-1.5-14.1-7.2c-1.9-3.4-4.4-6.4-7.4-10.6c5.1,2.6,7.6,6.2,9.6,10c2.3,4.3,5.7,5.1,10.3,4.9
		c14.8-0.7,29.6-1.6,44.4,1.5c6.5,1.4,13.2,1.9,19.7,2.9c2.5,0.4,4.2-0.8,5.6-2.8c3.1-4.1,5.4-8.6,7.1-13.5c0.7-2.1,1.1-5.4,4.1-5
		c3.1,0.4,5.5,2.4,6.4,5.9c1.6,6,0.5,11.9-0.3,17.8c-0.3,2-0.7,4-0.8,6.1c-0.4,6.4-0.6,6.8-7.3,6.5c-21.4-1.2-42.8-0.7-64.1-2.2
		c-6.1-0.4-12.8,0-19.2,1.9c-10.3,3.1-20.9,3.2-31.5,2.1c-9.5-1-19-2-28.1-5.5C204.7,52.7,199,53.7,193.5,52.5z"/>
	<path d="M200.7,32.9c-5.7,0-9.2,2.9-13.4,4.3c-8.1,2.6-16.6,3.3-25.2,3.2c-13.9-0.2-27.6-1.8-41.2-5c-1.3-0.3-2.8-0.3-4.1,0
		c-2.3,0.4-3,1.7-1,3.5c2,1.8,4,3.7,6.8,4.3c10,2.1,19.7,5.4,29.9,7c10.8,1.7,20.6-1.4,30.5-4.6c3.6-1.2,7.2-2.2,10.8-3.2
		c2-0.6,4-0.6,4.3,2c0.2,2.2-2,2.2-3.4,2c-4.1-0.5-8.1,0.7-11.3,2.4c-14.2,7.6-28.7,5-43,1.6c-8.5-2.1-17.5-3.5-24.8-9.3
		c-2-1.6-4.6-3.1-3.5-6.1c1-2.9,4-2.4,6.3-2.1c5.1,0.6,10.1,1.7,15.1,2.5c5,0.8,10,1.8,15.4,1.3c-0.9-2.7-3.3-4.3-4.9-6.4
		c-4.2-5.3-5-9.6-2.3-14c2.6-4.3,7.8-6.2,13.9-5.1c7.1,1.4,14.3,8.7,15.4,15.6c0.1,0.8,0.3,1.7-0.7,2.3c-2.4-0.8-2.2-3.2-2.9-5
		c-2.5-6.3-9.5-10.5-15.9-9.6c-7.8,1.1-9.9,7.7-6.1,14.5c5.3,9.3,13.4,9.2,21.8,8.2c4.7-0.5,9.5,0.1,14.1-1.6
		c2.1-0.7,4.1-1.3,5.8-2.9C190.9,29.4,195.4,29.3,200.7,32.9z"/>
</g>
</svg>
