<?xml version="1.0" encoding="utf-8"?>
<!-- Generator: Adobe Illustrator 18.1.1, SVG Export Plug-In . SVG Version: 6.00 Build 0)  -->
<svg version="1.1" id="Ebene_1" xmlns="http://www.w3.org/2000/svg" xmlns:xlink="http://www.w3.org/1999/xlink" x="0px" y="0px"
	 width="250px" height="250px" viewBox="112 -113 250 250" style="enable-background:new 112 -113 250 250;" xml:space="preserve">
<g>
	<path d="M183.3,126.6c-2.5-1.4-4.8-2.7-7.2-3.9c-4.9-2.4-7.4-6.1-7.3-11.8c0.2-13.5,0.6-26.9-1.6-40.3c-2.1-13.2-6.3-25.9-8.7-38.9
		c-1.4-7.4-3.7-14.5-5.6-21.8c-2-7.6-0.4-14.8,2.4-22c0.9-2.4,2.3-4.5,2.6-7.2c0.4-3.2-0.1-5.6-2.5-8.1c-4.5-4.8-6.1-11.8-11.9-16.2
		c3.9-0.5,4.7-0.3,6.9,3.7c3.5,6.3,7.3,12.6,13.3,16.6c6.3,4.2,12,8.9,17,14.5c2.8,3.1,16.5,4.5,20.2,2.6c1.2-0.6,2.5-1.3,2.5-3
		c0-1.5-0.8-2.6-2.4-2.9c-10.1-2-15-10.9-21.7-17.2c-7.2-6.8-12.5-15.4-19.7-22.2c-0.8-0.7-2.4-1.6-1.1-2.9c1.3-1.4,2.2,0.4,2.8,1.1
		c5.2,5.6,10.6,11.2,15.4,17.1c4.7,5.7,10.4,10.3,15.3,15.8c2.2,2.4,4.5,3.7,6.3-0.4c4.4-9.6,21.8-8.3,27.8-0.2
		c0.9,1.2,2.1,2.3,2.8,3.6c1.7,3.1,3.6,3,6,0.9c0.9-0.8,2-1.2,3.1-1.6c1.2-0.4,2.8,2,3.6,0.1c0.7-1.7-1-3.2-1.9-4.5
		c-6.4-9.1-15.7-13.5-26.3-15.2c-7.6-1.2-13.8,2.8-19.9,6.9c-1.8,1.2-3,3.2-5.4,3.7c3.5-9,18.2-15.9,28.1-13.4
		c3.6,0.9,7.3,1.9,10.9,3.1c9.1,3,13.1,10.9,17,18.6c1.4,2.9-1.2,4.1-3.6,4c-2.4-0.1-4.5,0.1-6,2c-2.2,3-3.8,2.6-5.5-0.4
		c-1.8-3-4.2-5.4-6.9-7.5c-4.9-3.7-15.5-4.3-20.4-0.7c-2.3,1.7-3.5,4.1-0.1,6.1c2.5,1.4,4.3,3.5,3.7,6.2c-0.8,3.4,1,4.9,3.3,6
		c4.7,2.4,9.6,4.5,14.4,6.7c15.7,7.2,27.3,18.8,36.4,33.3c2.1,3.4,2.9,6.9,1.2,10.7c-2.5,5.6-4.9,11.3-7.6,16.8
		c-1.3,2.5-1.7,4.2,0,6.9c5.8,9.2,6.9,19.4,5.9,30c-0.2,2.3-1.1,4.4-2.8,5.9c-6.3,5.7-13.4,10.7-21.7,12.1
		c-11.9,2-22.1-2.7-29.6-12.3c-2.9-3.8-5.6-7.7-7.6-12.2c-1.2-2.6-1.5-3.8,1.6-4.8c3-1,5.9-3.8,8.8-3.7c3.7,0.1,3.5,4.9,5.3,7.5
		c5.2,7.6,20.7,9.8,27.7,3.8c3.1-2.7,3-6.9-0.3-10.9c-2.6-3.1-5.9-5.3-9.5-6.9c-12.2-5.7-23.2-13.3-33.2-22.1
		c-14.2-12.4-18.3-29.4-6.2-45.4c1.4-1.8,1-2.3-0.7-3.4c-5.2-3.3-7.3-8.7-10.1-14c-2.8-5.3-7.8-9.7-13.3-12.8c-1.9-1.1-3.8-2.2-6-4
		c0.2,6.7-3.6,11.8-5.2,17.7c-2.1,7.8-0.3,15.4,1.6,22.7c4.8,19,9.6,38,13.2,57.3c2.1,11.1,1.4,22.5,0.9,33.6
		c-0.3,5.9,2.1,9.1,6.7,11.3c2.8,1.4,5.4,3,7.6,5.2c0.8,0.8,2.6,1,2.1,2.5c-0.5,1.7-2.3,1.3-3.5,1.4c-6.7,0.5-13.1-1.8-19.7-2.7
		c-0.7-0.1-1.3-0.4-2-0.5c-11.5-1.9-11.4-1.9-13.4-13.4c-3.3-19-6.2-38.1-10.2-57c-3.2-14.8-6.7-29.6-18.2-41.1
		c-4.9-4.9-5.9-11.8-5.1-18.7c1.6-13.7,1.9-27.6,6.2-41c3.7-11.7,8.6-22.7,19.5-29.6c4-2.6,3.9-6.4,3.2-10.5
		c-2.1-12.2,3.6-20.6,12.9-26.1c8.1-4.8,15.7-1.9,19.8,6.7c2.6,5.4,3.4,11.1,2.8,17c-0.7,7.3-3.3,9.9-10.5,10.7
		c-5.8,0.6-10.3,8-8.2,13.4c1.5,4,1.5,4-0.3,6.9c-1.5-5.7-4.2-11.1-0.6-17c1.9-3.1,3.6-5.5,7.6-6c7.8-1,9.1-2.7,9.5-10.4
		c0.2-4.3,0.1-8.5-1.5-12.6c-3.3-8.5-12.8-10.8-19.6-4.8c-7.2,6.4-11.5,13.6-9.2,23.9c1.5,6.8-1.4,10.5-7.9,12.7
		c-3.7,1.2-5.3,4.9-6.9,7.8c-8,14.6-12.5,30.2-12.9,46.9c-0.1,5.3-0.7,10.6-1.1,15.8c-0.4,5.5,1.2,10.6,5,14.1
		c11.7,10.8,15.2,25.5,18.5,39.9c4.2,18.6,6.8,37.6,10.1,56.4c0.2,1.2,0.2,2.4,0.4,3.5c1.2,8.6,1.3,9.6,8.8,10
		c5.9,0.3,11.6,2.2,17.5,3.2C180.2,127.5,181.6,128.1,183.3,126.6z M184.5-3.7c1.1,4.2,3.4,7.2,6.7,9.6c3.6,2.6,5.1,5.2,2.4,10.2
		C186,30,187.1,44.3,197,53.5c9.6,8.9,20.7,16.2,32.3,22.4c6.9,3.7,13.3,7.7,16.1,15.6c1.4,3.9,0.7,6.5-2.9,8.9
		c-11,7.3-27.6,3.5-33.7-8.2c-0.9-1.7-1.6-3.4-3.7-1.7c-1.6,1.3-6,1.1-4.4,4.3c4.1,8.3,8.9,16.3,17.8,20.4
		c9.5,4.3,18.4,2.3,26.6-3.2c3.7-2.5,9.2-4,10.1-8.9c1.4-7.6,2.8-16.1-1.3-23c-5.1-8.8-5.1-16.2,0.9-24.2c6.7-9,3.3-17.1-3-25
		c-13-16.4-31.4-24.7-49.5-33.6c-0.4-0.2-1-0.2-1.5-0.2C195.4-2.4,190.1-3.3,184.5-3.7z"/>
	<path d="M351.1,24.7c-1.3,6.1-7,9.4-9.5,15c-6.7,14.7-9.4,30-9.3,46c0.1,10.7,1,21.4,2.7,32c0.8,4.8-0.4,9.5-1.7,14.1
		c-0.8,2.7-2.6,4.3-5.6,4.4c-7.7,0.3-15.3,0.6-23,0.8c-1.5,0-3.4,0.3-4.1-1.3c-0.9-1.9,0.8-3.1,2.1-4.2c1.5-1.3,3-3.1,4.8-3.8
		c9.6-3.3,10.4-10.5,7.2-20.3c-3-9.3-5.5-18.7-7.5-28.2c-1.4-6.9-0.6-13.6,2-20.1c6.2-15,7.4-30.8,8.3-46.7c0.2-3.9,1-7.8,0.6-11.8
		c-0.3-2.7-0.9-4.1-4.1-2.6c-6.2,3-13.2,2.2-19.7,2c-7.4-0.1-14.1,2.3-21,3.8c-2.7,0.6-5.4,1.1-8.1,1.2c-3.8,0.2-5.4-2.3-6.4-5.5
		c-0.9-2.5-1.7-4.9,1-6.9c0.8-0.6,1.5-1.3,2.7-1.2c9.1,0.6,17.9-2.2,26.9-2.7c14.2-0.9,24.3-12.3,25-26.4c0.3-5.8,2-11.4,3.8-16.9
		c0.9-2.6,0.3-3.5-1.9-4.8c-7.3-4.2-11.6-11.2-14.2-18.8c-3-8.6,3.6-16.5,12.9-17.6c4.4-0.5,8,0.2,11.6,2.2
		c4.7,2.7,6.4,6.6,5.9,11.9c-0.6,6.7-1.2,13.5-0.8,20.3c0.7,13,1.7,11,10.6,14.3c4,1.5,6.5,4.2,7.7,8.1c5.2,16.8,6.3,34.1,6,51.6
		c-0.1,4.5-2.6,8.4-5.1,12.1c0.2-6.1,3.4-11.6,3.3-18c-0.1-11.5-1-22.8-3.6-34c-2-8.8-3.2-18.3-15.3-20.1c-4.7-0.7-6.9-6.2-6.4-12.1
		c0.6-7,1.2-13.9,1.9-20.8c0.8-7.7-2.8-13.1-10.4-13.8c-4.8-0.5-10-0.7-13.1,4.6c-2.9,4.9-3.9,9.6-0.5,14.8c3.3,5,6.6,9.9,11.1,13.9
		c1.9,1.7,3.9,3.1,3.1,6.8c-1.3,6-3.8,11.8-4.1,18.1c-0.3,5.6-1.3,11.1-5.7,15.4c-6.7,6.6-14.8,10.5-23.9,12
		C280-7.1,272.5-6.7,265-6.1c-3.6,0.3-4.8,2-3.4,5.4c1.7,4.4,4.9,4,8.5,3c8-2.2,15.7-5.1,24.4-4.6c7,0.4,14.2,0.4,21.1-2.4
		c2.5-1,4.2,0.3,5,3.4c1.3,5-0.1,9.8-0.4,14.7c-0.7,13.9,0,28.1-5.6,41.3c-3.4,8-6.1,16.1-4.2,24.8c2,9,4.6,17.8,7.1,26.7
		c3.6,13,3.7,16.9-8.5,23c-2.2,1.1-4.5,2.2-5.3,5.2c7.7,0.4,15-1.1,22.3-0.2c2.2,0.3,4-1.1,4.7-3.3c1.5-4.9,2.9-9.9,2-15.1
		c-3.7-21.2-4.8-42.4,1-63.3C336.6,41.7,340.9,31.3,351.1,24.7z"/>
	<path d="M248.4,47.6c-0.3,2-0.5,4-0.9,6c-0.6,3.2-2.8,5.4-4.8,7.7c-3.5,3.9-5.4-0.8-7.7-1.8c-9.4-4.4-18.5-9.6-27.9-13.9
		c-8.6-3.9-14.5-20.8-5.3-29.8c1.8-1.7,3-2.3,5.2-1c8.6,5.1,18,8.1,27.4,11.2C241.9,28.5,248,38.1,248.4,47.6z M245.5,50.5
		c-0.2-12.2-4.9-18.9-15.3-22.8c-7-2.6-14.1-5.2-21-8c-4.8-2-8.2-1.1-8.6,3.8c-0.8,9,0,16.3,9.6,21c9,4.4,18,9.1,26.9,13.7
		c4.1,2.1,6.5,1.3,7.7-3.2C245.4,53.2,245.4,51.3,245.5,50.5z"/>
</g>
</svg>
