<?xml version="1.0" encoding="utf-8"?>
<!-- Generator: Adobe Illustrator 18.1.1, SVG Export Plug-In . SVG Version: 6.00 Build 0)  -->
<svg version="1.1" id="Ebene_1" xmlns="http://www.w3.org/2000/svg" xmlns:xlink="http://www.w3.org/1999/xlink" x="0px" y="0px"
	 width="250px" height="250px" viewBox="-18 -60 250 250" enable-background="new -18 -60 250 250" xml:space="preserve">
<g>
	<path d="M223.6,45.1c-0.1-0.1-0.1-0.2-0.2-0.4c-0.3-0.7-0.7-1.6-1.8-1.8c-0.9-0.2-1.7-0.5-2.5-0.8c-0.4-0.2-0.8-0.3-1.3-0.5
		c-0.1,0-0.3-0.1-0.4-0.2c-0.1-0.1,0-0.4,0.1-0.6l0.1-0.2c0.6-1.4,1.2-2.8,1.1-4.3c-0.1-2.1,0.5-4.2,1-6.2c0.1-0.5,0.3-1,0.4-1.6
		c0.4-1.7,0.4-3.3,0-4.8c-0.3-0.9-0.8-1.4-1.7-1.6c-1.4-0.3-3.2-0.6-5.2-0.6l-0.3,0c-1.6,0-2.7-0.3-3.5-0.8
		c-0.3-0.2-0.3-0.7-0.1-1.5c0.1-0.5,0.2-0.9,0.2-1.4c0-0.2,0-0.5,0-0.7c0-0.2,0-0.3,0-0.5c-0.1-1.7,0.1-3.3,0.3-5.2
		c0.1-0.9,0.2-1.9,0.3-2.8c0.4-2.8,0.7-5.7,0.6-8.7l0-0.7c-0.2-2.5-0.3-5.2-2.7-7c-0.4-0.3-0.6-0.6-0.7-0.9c0-0.4,0.2-0.8,0.7-1.3
		c0.3-0.4,0.7-0.8,0.8-1.5l0-0.2c0,0.2,0.1,0.4,0.2,0.6l0.2,0.3l0.5-0.4c0.1-0.1,0.3-0.2,0.4-0.3c2.6-2,3.2-5.2,1.5-8.2
		c-1.2-2.1-3.3-2.9-4.8-3.2c-0.3-0.1-0.7-0.1-1.1-0.1c-2.1,0-4.5,1.3-4.8,3.3c-0.3,2.4-0.7,5,0.5,7.5c0.4,0.8,0.4,1.4-0.1,2.1
		c-0.1,0.2-0.3,0.4-0.4,0.6c-0.2,0.2-0.4,0.5-0.5,0.7c-0.3,0.4-0.6,0.8-1,1.2c-0.8,1-1.7,2-1.9,3.5l0,0.2c-0.1,0.9-0.2,2-0.7,2.9
		c-0.9,1.6-1.4,3.3-1.8,5.4c-0.1,0.4-0.2,0.8-0.2,1.2c-0.2,1-0.3,2-0.8,2.9c-0.1-0.1-0.2-0.2-0.3-0.3c-1-1.4-2.3-3.2-4.6-3.2
		c-0.3,0-0.5,0-0.8,0.1c-0.1,0-0.2,0-0.3,0c-0.1,0-0.3,0-0.4-0.4c-0.4-1-1.1-1.7-1.9-2.3L185.4,2c-1.4-1.3-3.2-1.9-4.9-2.5
		c-0.7-0.2-1.4-0.5-2-0.8c-0.4-0.2-0.8-0.4-1.3-0.7c-1-0.6-2-1.1-3.2-1.1c0,0-0.1,0-0.1,0c0,0,0-0.1,0-0.2c0-0.1,0-0.2,0-0.3
		c-0.2-0.5-0.6-0.7-1-0.8c-0.1,0-0.2-0.1-0.3-0.1c-0.3-0.1-0.6,0-0.8,0.5c-0.2,0.6,0.2,0.9,0.5,1.1c0.1,0,0.1,0.1,0.2,0.1
		c1.4,1.3,3.2,2,4.8,2.7c0.9,0.4,1.8,0.7,2.6,1.2c0.5,0.2,0.9,0.5,1.4,0.7c1.7,0.8,3.3,1.6,4.2,3.3c0.1,0.1,0.2,0.2,0.3,0.3
		c0.2,0.2,0.2,0.2,0.1,0.3c-0.1,0.2-0.4,0.3-0.6,0.2c-0.7-0.2-1.3-0.2-2-0.3c-0.9-0.1-1.8-0.2-2.8-0.5c-2.1-0.8-4.1-1.9-6-2.9
		l-1-0.5c-1.6-0.9-3.3-1.8-4.8-2.7c-1.1-0.7-2.3-1.4-3.4-2c-1.2-0.6-1.8-1.5-2-2.7c0-0.1,0-0.3-0.1-0.4c-0.1-0.5-0.1-1.1-0.6-1.6
		l-0.4-0.5l-0.1,0.6c-0.6,3.3-0.1,4.4,2.7,5.9c0.8,0.5,1.7,1,2.5,1.6c0.3,0.2,0.5,0.4,0.6,0.8c0.7,3.7,0.5,7.6-0.7,12
		c-0.1,0.3-0.1,0.6-0.2,0.8c-0.1,0.5-0.2,1-0.4,1.5c-1.3,2.5-2.2,5.3-3,8l-0.1,0.4c-0.1,0.2-0.1,0.4-0.2,0.6
		c-0.2,0.4-0.3,0.9-0.4,1.3c-0.1,2-0.5,4-0.8,5.9l0,0.1c-0.1,0.8-0.3,1.7-0.4,2.5c-0.5,2.7-0.9,5.4-1.2,8.2c-0.1,1.5,1.2,4,2.7,4.2
		c0.7,0.1,1.3,0.3,2,0.6c0.9,0.3,1.8,0.6,2.8,0.6c0.8,0,1.4,0.2,1.6,0.4c0.1,0.1,0.1,0.2,0.1,0.4c0,0.2-0.4,0.2-0.7,0.2
		c-0.4,0-0.8-0.1-1.3-0.2c-1.9-0.6-3.9-0.8-6.1-0.8c-0.9,0-1.7,0-2.7,0.1c-0.7,0.1-1.2-0.1-1.5-0.4c-0.3-0.4-0.3-0.9-0.2-1.6
		c0.1-0.3,0.2-0.7,0.3-1c0.1-0.4,0.3-0.7,0.4-1.2c0.7-2.9,1-5.8,1-8.6c0-0.7,0-1.4,0-2.1c0.1-2.8,0.1-5.7-1-8.5l-0.1-0.2l0.1-0.2
		c0.3-0.7,0.6-1.7-0.2-2.4c-0.3-0.2-0.5-0.4-0.8-0.4c-0.4,0-0.8,0.3-1.2,0.5c-1.9,1.3-3.1,3.1-4.2,5c-0.2,0.3-0.4,0.6-0.6,1
		c-0.7,1.2-1.4,2.4-1.9,3.6c-0.7,1.4-1.4,2.9-2.4,4.2c-0.3,0.4-0.5,1-0.7,1.5c-0.1,0.2-0.2,0.5-0.3,0.7c-0.2,0.5-0.4,1.1-0.6,1.6
		c-0.3,0.8-0.5,1.5-0.9,2.1c-0.8,1.3-0.7,2.4,0.3,3.5c0.6,0.6,1.1,1.3,1.7,2c0.1,0.1,0.2,0.3,0.3,0.4c-1.5-0.4-2.7-1.3-3.8-2.1
		c-0.6-0.4-1.3-0.9-2-1.3c-0.9-0.5-1-1.1-0.5-2.1c0.2-0.4,0.4-0.7,0.6-1.1l0.1-0.2c1-1.8,2-3.6,2.9-5.4c0.8-1.6,1.7-3.2,2.5-4.7
		c1.3-2.4,2.5-4.9,3.7-7.4c0.6-1.2,1.1-2.4,1.7-3.6c1-2,1.6-3.6,1.9-5.5c0.1-0.4,0.1-1-0.4-1.4c0.2-0.1,0.4-0.3,0.4-0.6
		c0.1-0.8,0.2-1.7-0.1-2.6c-0.1-0.4-0.3-0.6-0.4-0.7c0.1-0.1,0.1-0.1,0.2-0.2c0.4-0.4,0.3-0.9,0.2-1.3c0-0.1,0-0.1,0-0.2
		c-0.1-0.4-0.4-0.6-0.8-0.5c-0.6,0.2-0.6,0.7-0.6,1c0,0.1,0,0.2,0,0.3c-0.1,0.3-0.1,0.6-0.1,0.9c0,0.1,0,0.1,0,0.2l-0.1,0l0.1,0.2
		l0,0.1c0,0,0,0.1,0,0.1l0,0.4l0.1-0.1c0.1,0.2,0.2,0.3,0.3,0.4c0,0,0,0,0.1,0.1c-0.7,0.4-0.6,1-0.5,1.4c0,0.1,0,0.3,0,0.4
		c0,0.1-0.1,0.5,0.1,0.7c0,0,0.1,0.1,0.2,0.1c-0.1,0.1-0.2,0.2-0.3,0.3c-0.1,0.1-0.4,0.4-0.3,0.7c0.1,0.3,0.3,0.4,0.6,0.5
		c0,0,0,0.1-0.1,0.1c-0.2,0.6-0.5,1.1-0.8,1.6c-0.7,1.2-1.4,2.5-1.5,4c-0.7,0-0.9,0.6-1,1l0,0.2c-0.5,1.5-1.2,2.9-2,4.2
		c-0.4,0.8-0.9,1.5-1.2,2.3c-0.2,0.5-0.4,1-0.7,1.5c-0.4,1.1-0.9,2.2-1.6,3.2c-1,1.4-1.8,3-2.5,4.6c-0.6,1.4-1.3,2.8-2.1,4
		c-0.8,1.2-0.7,2.2,0.1,2.9c2.9,2.3,5.4,4.1,8.5,5.1c0.1,0,0.3,0.1,0.4,0.1c0.2,0,0.5-0.1,0.6-0.3c0.3-0.3,0.1-0.6,0-0.8
		c0,0-0.1-0.1-0.1-0.1c-0.4-1.1-1.2-1.7-1.9-2.4l-0.3-0.2c-0.8-0.7-1-1.4-0.5-2.6c0.7-1.6,1.4-3.4,2.3-5c0.4-0.7,0.7-1.4,1.1-2.1
		c1.7-3.3,3.4-6.6,5.4-9.8c0.4-0.6,0.8-1.1,1.3-1.6c0.3-0.3,0.6-0.7,0.9-1c0.2-0.2,0.3-0.3,0.3-0.3c0.2,0,0.4,0.5,0.6,0.8
		c0.1,0.1,0.1,0.3,0.2,0.4l0,0.5c0,1.3,0,2.7,0.1,4c0.1,1.3,0.1,2.6,0.1,4c-0.1,4.9-0.6,8.9-1.9,12.5c-0.4,1.1-0.2,2.2,0.4,3.1
		c0.8,1.1,2.1,1.6,3.4,1.4c2.2-0.4,4.5-0.3,7.2,0.4l0.5,0.1c0.8,0.2,1.5,0.4,2.3,0.4c0.6,0,1.2-0.1,1.7-0.4c0.4-0.2,0.7-0.4,0.8-0.6
		c0.1-0.3-0.2-0.5-0.5-0.8l-0.1-0.1c-1.4-1.4-3-1.7-4.8-2.1l-0.9-0.2c-2.9-0.6-3.7-0.7-3.4-4.6c0.1-1.6,0.4-3.2,0.7-4.8
		c0.3-1.7,0.6-3.5,0.7-5.2c0.2-2.3,0.7-4.5,1.3-6.6c0.2-0.6,0.3-1.2,0.5-1.8c0.4-1.7,1-3.4,1.6-5c0.8-2.3,1.7-4.8,2-7.3
		c0.1-0.5,0.2-0.9,0.3-1.4c0.3-1.2,0.5-2.5,0.2-3.8c-0.2-0.8-0.2-1.6-0.3-2.4c0-0.4-0.1-0.8-0.1-1.2c0-0.3,0-0.5,0-0.5
		c0.1,0,0.5,0.2,0.6,0.2c0.6,0.4,1.2,0.7,1.8,1.1c2,1.2,4,2.4,6.2,3.3c2.3,1,4.7,1.6,7.1,1.8c0.8,0.1,1.5-0.2,1.9-0.7
		c0.4-0.5,0.8-0.7,1.3-0.7c0.4,0,0.9,0.1,1.3,0.2c1.2,0.3,3,2.9,3,4.2c0,0.3,0.1,0.6,0.3,0.8c0.1,0.1,0.2,0.1,0.4,0.1
		c0.1,0,0.2,0,0.3,0c0.1,0,0.2,0,0.2,0c0,0.1-0.1,0.3-0.1,0.4c-0.1,0.2-0.1,0.4-0.1,0.5c0,1-0.1,2-0.2,3c-0.2,1.4-0.4,2.9-0.2,4.4
		c0,0.4,0,0.7-0.1,0.8c-0.1,0.2-0.4,0.2-0.8,0.1c-0.3-0.1-0.6-0.1-0.9-0.1c-1,0-2,0.3-2.8,0.5c-1.7,0.5-3.5,1.1-4.2,2.9
		c-0.4,0.9-1,1.5-1.6,2.2l-0.2,0.2c-1.5,1.6-3.1,3.3-3.7,5.6c-0.4,1.4-0.7,2.9-1.1,4.3c-0.2,0.9-0.4,1.8-0.6,2.6
		c-0.1,0.4,0.1,0.6,0.3,0.8c0.7,0.8,1.2,1.5,1.2,2.4c0,0.7,0.3,1.4,0.7,1.9c2.4,2.9,4.9,4.8,7.9,6c2.3,0.9,4.5,1.3,6.8,1.3
		c3.2,0,6.4-0.8,10-2.5c4.5-2.1,7.8-8.5,6.8-13.2c-0.2-1.1-0.5-2.2-0.7-3.2c-0.2-0.8-0.4-1.5-0.5-2.3c0.7,0.3,1.1,0.9,1.5,1.5
		c0.1,0.1,0.2,0.2,0.2,0.4c1.6,2.5,1.9,5,0.9,7.5c-0.2,0.5-0.4,0.9-0.6,1.4c-0.3,0.7-0.6,1.3-0.9,2c-0.3,0.7-0.2,1.4,0.2,2
		c0.4,0.6,1.1,0.9,1.9,0.8c2.5-0.3,4.5-0.3,6.5,0.3l0.4,0.1c0.6,0.2,1.3,0.4,1.9,0.4c0.5,0,0.9-0.1,1.3-0.3l0.1,0
		c0.4-0.2,0.9-0.4,1-0.8C223.7,45.5,223.7,45.3,223.6,45.1z M179.3,40.3c0.1-0.3,0.6-0.5,1.2-0.6c1.5-0.5,3-1,4.5-1.7
		c0.2-0.1,0.5-0.2,0.8-0.2c0.3-0.1,0.6-0.1,1-0.2l0.4-0.2l-0.3-0.3c-0.5-0.5-1.1-0.8-1.8-0.8c-0.4,0-0.7,0.1-1.2,0.2
		c-0.7,0.3-1.4,0.5-2.1,0.8c-0.7,0.3-1.4,0.5-2.2,0.8c-0.4,0.1-0.6,0.1-0.6,0.1c0,0-0.1-0.2-0.1-0.7c0.1-2,0.6-4,1.5-6.2l0.1-0.2
		c0-0.1,0.1-0.3,0.1-0.3c0,0,0.1,0,0.5,0.4c1.1,1.1,2.6,2,4.6,2.8c0.9,0.3,1.8,0.8,2.8,1.5c-0.3,0.2-0.6,0.3-1,0.4
		c-0.3,0.1-0.5,0.1-0.8,0.2l-0.2,0.1l0.1,0.3c0.2,0.7,0.7,0.9,1,0.9c0.1,0,0.2,0,0.4,0c0.5-0.1,1.1-0.2,1.8-0.2c0.2,0,0.5,0,0.7,0
		c1.2,0,1.5,0.4,1.5,1.6c0,1.5-0.5,3-1.3,4.6c-0.8,1.4-1.1,3-1.4,4.5c-0.1,0.4-0.2,0.8-0.3,1.3c-3.8-1.1-6.8-3.6-9-7.4
		C179.3,40.9,179.2,40.5,179.3,40.3z M189,30.3l0.1,0.3c0.2,0.5,0.4,1.1,0.6,1.7c0.2,0.5,0.4,1.1,0.6,1.6c0,0.1,0.1,0.2,0.1,0.2
		c0.2,0.3,0.1,0.3,0.1,0.4c-0.2,0.1-0.4,0-0.7-0.2c-1.7-0.9-3.4-2-4.8-2.9c-0.2-0.2-0.5-0.3-0.7-0.5c-0.8-0.5-1.6-1.1-2.5-1.4
		c-0.2-0.1-0.3-0.1-0.3-0.1c0,0,0-0.1,0.2-0.2c1.4-1.5,2.9-3,4.6-4.8c0,0,0.1-0.1,0.1-0.1c0,0,0.1,0,0.2,0.2
		c0.1,0.1,0.2,0.3,0.3,0.4c0.4,0.6,0.8,1.1,0.9,1.8c0,0.4,0.3,0.6,0.5,0.7c0.2,0.1,0.2,0.1,0.2,0.2l0,0.1
		C188.4,28.8,188.7,29.6,189,30.3z M205.8,30c-2.3,1.2-4.3,1.8-6.3,2.1c-0.8,0.1-1.6,0.5-2.3,0.9c-0.5,0.3-1,0.5-1.5,0.7
		c-0.1,0-0.3,0.1-0.4,0.2c-0.2,0.1-0.3,0.2-0.5,0.2c0,0-0.1,0-0.2-0.1c-0.1-0.1-0.1-0.1,0.1-0.4c0.1-0.1,0.2-0.3,0.2-0.5
		c0.4-2.8,1-5.7,1.9-9.3c0.1-0.3,0.1-0.4,0.2-0.4c0,0,0.1,0,0.2,0.1c0.7,0.4,1.4,0.7,2.2,1.1c2.4,1.2,5,2.4,6.7,4.6l0.1,0.2
		c0.2,0.2,0.3,0.4,0.5,0.6C206.4,29.8,206.1,29.9,205.8,30z M194.9,23.8c0,0.1,0,0.3,0,0.4c-0.1,1-0.3,2-0.5,3
		c-0.1,0.6-0.3,1.1-0.4,1.7c-0.1,0.5-0.2,1.1-0.3,1.6c-0.2,1-0.4,2.1-0.6,3.1c-0.1,0.7-0.5,0.8-0.9,0.8c-0.2,0-0.3-0.1-0.3-0.6
		l0-0.1c-0.3-2.7-1.4-5-2.5-7.3c-0.4-0.7-0.7-1.5-1.1-2.3c-0.2-0.4-0.2-0.6-0.2-0.8c0.1-0.1,0.3-0.3,0.7-0.4
		c0.6-0.2,1.3-0.3,2.1-0.3c0.8,0,1.6,0.1,2.4,0.2c0.4,0.1,0.7,0.1,1.1,0.1C195,23.1,195,23.2,194.9,23.8z M191.1,46.7
		c0-0.3,0.1-0.5,0.2-0.8c0.2-0.9,0.5-1.7,0.8-2.5c0.3-0.8,0.6-1.7,0.8-2.6c0-0.1,0.1-0.2,0.1-0.2c0.1,0.1,0.3,0.2,0.3,0.3
		c0.6,0.6,0.9,1.4,1.3,2.2c0.2,0.4,0.3,0.7,0.5,1c0.3,0.5,0.6,1,0.9,1.5c0.6,1,1.2,2,1.5,3.1c0.1,0.3,0.2,0.9,0.7,1
		c-1.2,0.3-2.4,0.4-3.6,0.4c-0.4,0-0.9,0-1.3-0.1c-1-0.1-1.9-0.3-2.9-0.6c-0.2,0-0.3-0.1-0.5-0.1C190.8,48.6,191,47.6,191.1,46.7z
		 M198.8,49.5c0.3-0.2,0.6-0.5,0.7-0.8c0.1-0.3,0-0.7-0.2-1c-0.2-0.4-0.4-0.8-0.6-1.2c-0.3-0.8-0.7-1.6-1.3-2.3
		c-0.7-0.8-1.1-1.7-1.5-2.7c-0.3-0.8-0.7-1.6-1.2-2.4c0.1-0.5-0.3-0.7-0.5-0.8c-0.1,0-0.2-0.1-0.2-0.1c0,0,0-0.1,0.1-0.1
		c0.3-0.3,0.7-0.1,1,0.2c0.1,0.1,0.3,0.2,0.4,0.3c2,1.2,4.6,2.6,7.4,3.9c0.2,0.1,0.3,0.1,0.5,0.2c0.9,0.4,1.7,0.8,2.3,1.6
		c0.3,0.4,0.6,0.4,1,0.5c0,0,0,0,0.1,0c-1.3,1.8-2.5,2.8-4.1,3.4C201.3,48.8,200,49.2,198.8,49.5C198.8,49.5,198.8,49.5,198.8,49.5z
		 M204.9,41.7c-0.7-0.4-1.5-0.9-2.3-1.2c-1.3-0.5-2.6-1.2-3.7-1.9c-1.5-0.9-3-1.8-4.8-2.2c-0.1,0-0.1,0-0.1,0
		c0.1-0.1,0.1-0.3,0.1-0.5c0.1-0.3,0.1-0.4,0.2-0.4c1.4,0,2.6-0.6,3.7-1.1c1-0.4,1.9-0.9,2.9-1c1.3-0.2,2.5-0.7,3.7-1.2
		c0.6-0.3,1.3-0.6,1.9-0.8c0.3-0.1,0.6-0.3,0.7-0.5c0.7,0.6,0.9,1.6,1.1,2.5c0.1,0.3,0.1,0.6,0.2,0.8c0.7,2.9,0.7,5.4-0.2,7.6
		c0,0.1-0.1,0.2-0.1,0.3c-0.2,0.6-0.3,0.8-0.6,0.8c-0.2,0-0.5-0.1-0.8-0.2C206.1,42.5,205.5,42.1,204.9,41.7z M208.9-12l-0.5,0.2
		c-1.4,0.5-2.2,1.2-2.5,2c-0.2,0.7,0,1.5,0.7,2.5c2.4,3.3,2.4,7,2.2,10.8c-0.1,2-0.4,4.1-0.7,6.1c-0.3,2.5-0.7,5.1-0.7,7.8
		c0,0.2,0,0.4,0,0.6c0,1.3,0,2.5-1.3,3.4l-0.6,0.4l0.7,0.1c0.2,0,0.4,0.1,0.6,0.1c0.4,0.1,0.7,0.1,1.1,0.2c1.8,0.4,3.6,0.6,5.4,0.7
		c1.1,0.1,2.2,0.2,3.2,0.3c0.8,0.1,1.6,0.3,1.7,1c0.4,1.4,0.4,2.6,0.1,3.7c-0.7,2.6-1.3,5.2-1.4,8c0,1.5-0.4,3.1-1.1,5
		c-0.2,0.6-0.3,1.1-0.1,1.4c0.2,0.4,0.5,0.6,1.1,0.8c1,0.4,2,0.8,2.9,1.2c0.3,0.1,0.7,0.3,1,0.4c0.4,0.2,0.7,0.4,0.7,0.5
		c0,0.1,0,0.1-0.1,0.1c-0.1,0-0.3,0-0.4-0.1c-0.1,0-0.2-0.1-0.3-0.1c-2.2-0.5-3.9-0.7-5.6-0.7c-0.7,0-1.4,0-2.1,0.1
		c-0.6,0.1-1,0-1.2-0.2c-0.1-0.2-0.1-0.5,0-1c0.4-1.2,0.9-2.4,1.5-3.6c1.1-2.5,1.1-5.4,0-7.8c-0.7-1.4-2.1-3.2-4.9-3.9
		c-1.1-0.2-2-0.8-2.7-1.6c-2.3-2.6-5.3-4.2-9.8-5.1c-0.7-0.1-1-0.3-1-1l0.1-1.5c0.1-1.4,0.2-2.9,0.2-4.3c0.1-2.4,0.5-4.8,1-6.9
		c0.4-2.2,1.1-4.3,1.7-6.4c0.5-1.8,1.1-3.6,1.5-5.5c0.2-1,0.6-1.7,1.1-2.3c1.1-1.2,1.9-2.2,2.7-3.2l0.1-0.1c0.3-0.3,0.7-0.9,0.3-1.5
		c-0.9-1.5-0.9-3.1-0.9-4.8c0-0.5,0-0.9,0-1.4c0-1.5,0.4-2.8,1.2-3.6c0.9-0.9,2.1-1.1,3.3-0.6c1.9,0.8,3.4,2.4,3.8,4.2
		c0.4,1.7-0.2,3.4-1.6,4.8C209.1-12.3,209-12.2,208.9-12z"/>
	<path d="M111.1,38.7c-0.2,0.4-0.3,0.8-0.1,1.4c0.4,1.5,1,3,1.5,4.4c0.2,0.4,0.5,0.9,1,1c1.2,0.4,1.4,1.2,1.3,2.5
		c0,0.6,0.1,1.1,0.2,1.7l0,0.2c0.1,0.5,0,0.7-0.6,1c-1.1,0.5-2.2,0.7-3.5,0.9c-1.2,0.2-2.5,0.4-3.7,0.9c-0.1,0.1-0.2,0.1-0.3,0.1
		c-0.4,0.1-1,0.3-0.8,1.2c0.2,0.9,0.8,0.9,1.1,0.9l0.3,0l0.1,0c0.8,0,1.6,0.1,2.4,0.1c1.8,0,3.3-0.1,4.7-0.4c0.1,0,0.2,0,0.3,0
		c0.2,0,0.3,0.1,0.3,0.1c0.1,0.1,0.1,0.3,0.1,0.5c0,1.3-0.1,2.4-1,3.4c-1.4,1.8-3,2.8-4.9,2.9c-1.5,0.1-3-0.1-4.5-0.3
		c-1.2-0.1-2.4-0.3-3.6-0.3c-0.4,0-0.8-0.1-1.2-0.2c-0.7-0.2-0.8-0.5-0.6-1.1c0.3-1.2,0.9-2.2,1.6-3.3l0.3-0.5
		c0.9-1.6,1.2-2.9,0.9-4c-0.7-2.2-2-5.2-5.5-5.9c-2.7-0.5-4.8,0-6,1.4c-1,1.2-1.4,2.9-1,5c0.2,1.5,1,3.1,2.2,4.6
		c0.7,0.8,1.3,1.7,1.7,2.5c0.4,0.7,0.1,1-0.1,1.2c-0.1,0.1-0.3,0.2-0.4,0.3c-0.7,0.5-1.3,1-2.2,0.8c-0.6-0.1-1.2,0-1.8,0.5
		c-0.4,0.3-0.7,0.5-1.1,0.5c0,0,0,0,0,0c-1.7-0.1-2.7,0.9-3.7,1.8c-0.3,0.3-0.6,0.6-1,0.9c-0.7,0.5-1.3,1.2-1.9,2.2
		c-0.4,0.7-0.7,1.4-0.9,2.1c-0.2,0.7-0.4,1.3-0.8,1.9c-0.4,0.7-0.9,1.6-0.9,2.8c0,3.5,1.6,6,4.8,7.7c0,0.1,0.1,0.1,0.1,0.2
		c0.1,0.2,0.2,0.4,0.2,0.6c-0.1,1-0.2,2.1-0.3,3.1c-0.2,1.6-0.4,3.3-0.5,5c-0.1,0.9-0.2,1.8-0.4,2.7c-0.2,1.1-0.4,2.2-0.5,3.3
		c0,2.2,0.5,3.1,2.5,4c0.8,0.4,1.7,0.4,2.5,0.5c0.4,0,0.8,0.1,1.2,0.1c0.1,0,0.1,0,0.2,0c0,0,0,0,0,0c0.1,1,0.2,2.1,0.3,3.1
		c0.2,1.8,0.4,3.7,0.5,5.6c0.1,2.7,0.4,5.4,0.7,8.1c0.1,1,0.2,2,0.3,3.1c0.3,3.4,2.7,4.4,5,5c0.2,0.1,0.4,0.1,0.6,0.1
		c0.4,0,1.1-0.2,1.4-1.3c0.5-2,0.7-3.6,0.8-5.3c0.1-1.9,0.1-3.7,0.2-5.6c0.1-1.1,0.1-2.2,0.1-3.2c0.2-4.3,0.2-8.5,0.1-12.6
		c0-0.3,0-0.5-0.1-0.8c-0.1-0.7-0.1-1.4,0.2-2l0.1-0.1c0.1-0.2,0.2-0.3,0.4-0.3c0.1,0,0.3,0.1,0.4,0.4c0.1,0.3,0.2,0.6,0.2,0.9
		c0.2,0.9,0.5,1.7,0.5,2.6c0.1,2.3,0.5,4.6,0.9,6.9c0.1,0.6,0.2,1.1,0.3,1.7c0.1,0.7,0.3,1.5,0.4,2.2c0.4,1.9,0.8,3.9,0.8,6
		c-0.1,1.8,0.2,3.2,0.8,4.4c0.5,1.2,1.5,1.8,2.9,1.8l0.2,0c1.4-0.1,1.6-1.2,1.9-2.1l0-0.1c0.4-2,0.6-4,0.7-6l0-0.5
		c0.4-4.5,0-9-0.4-13.3c-0.1-1.2-0.2-2.4-0.3-3.5c-0.1-1.1-0.2-2.2-0.3-3.3c-0.2-1.6-0.4-3.3-0.4-4.9c-0.1-3.5,0.5-6.9,1-10.2
		c0.5-3,1.5-5.5,3-7.6c1.4-2,3.3-3.5,5.1-4.9c0.4-0.3,0.8-0.6,1.2-0.9c2.4-1.9,3.9-4.3,4.5-7.4c0.1-0.7,0.4-1.8-0.7-2.5
		c-0.1,0-0.1-0.1-0.1-0.1c0,0,0.1,0,0.4,0c2.5,0.1,4.9-0.3,7.7-0.8c0.6-0.1,1-0.3,1.1-0.6c0.2-0.4,0-0.8-0.2-1.2
		c-0.3-0.6-0.7-1-1.3-1.1c-0.6-0.1-1.1-0.4-1.6-0.6c-0.5-0.2-1-0.4-1.5-0.5c-0.7-0.2-0.8-0.4-0.7-1.1c0.1-0.9,0.2-1.7,0.3-2.6
		c0.2-1.6,0.4-3.2,0.6-4.8c0.3-1.5-0.2-2.6-1.4-3.4c-1-0.7-1.5-1.6-1.4-3c0-0.5,0.1-1,0.2-1.4l0-0.3c0.1-0.5,0.2-1.4-0.9-1.8
		c-1-0.3-1.8-0.1-2.4,0.7c-0.3,0.4-0.4,0.8-0.4,1.3c0.1,2,0,3.8-1,5.4c-0.2,0.4-0.2,0.9-0.2,1.1c0.2,1.3,0.1,2.7,0.1,4
		c0,0.7,0,1.4,0,2.1c0,1.3,0,2.5-0.6,3.6c-0.4,0.8-1.1,1.1-2.1,1c-0.4-0.1-0.5-0.2-0.4-0.8c0-0.2,0-0.4,0-0.6
		c-0.1-0.4-0.1-0.8-0.1-1.2c0-0.4-0.1-0.8-0.1-1.2c-0.1-0.7,0.2-0.9,0.3-0.9c1.6-1,1.5-2.4,1.3-3.9c-0.4-3-0.6-4.2-2.8-4.2
		c-0.6,0-1.3,0.1-2.3,0.2C111.8,38.1,111.4,38.3,111.1,38.7z M84.3,79.1c0,0.6,0,1.3-0.1,1.8c-0.3-0.6-0.8-1-1.2-1.5l-0.2-0.2
		c-1.9-1.9-2.5-4.7-1.3-7.1l0.2-0.3c0.2-0.4,0.4-0.8,0.5-1.2c0.8-3.1,2.9-5.1,6.9-6.3c1.4-0.4,2.8-1,4.2-1.6
		c0.4-0.2,0.8-0.4,1.3-0.5c1.2-0.5,1.6-1.4,1.2-2.8c-0.4-1.3-1.1-2.3-1.8-3.3c-0.6-0.8-1.1-1.5-1.4-2.3c-0.1-0.2-0.1-0.3-0.2-0.5
		c-0.3-0.7-0.6-1.3-0.7-2c-0.1-1.1,0.2-2.2,0.9-2.9c1-1.2,2.8-1.5,4.5-1c2.4,0.8,4.2,3.1,4.3,5.5c0,0.9-0.4,1.6-1.1,2.2
		c-1.3,1-2.2,3.9-1.8,5.5c0.2,0.9,1,1.5,2.2,1.7l1,0.1c2.6,0.4,5.2,0.8,7.8,1c1.9,0.2,3.8-0.6,5.2-2l0.3-0.3c1.3-1.3,2.6-2.7,2.4-5
		c0-0.3-0.1-0.5-0.2-0.7c-0.2-0.5-0.2-0.7-0.1-0.7c0.2-0.1,0.6-0.1,1.1,0c0.2,0,0.5,0.1,0.7,0.1l0.2,0c0.2,0,0.3,0,0.5,0l0.2,0
		c0.8,0,1.3,0.2,1.5,0.5c0.3,0.4,0.3,1,0.1,1.9c-0.6,2.9-2,5-4.4,6.6c-1.7,1.1-3.4,2.6-4.9,4.3c-2.6,2.9-4.3,6.4-4.9,10.3
		c-0.3,2.2-0.7,4.5-0.8,6.8c-0.2,2.4,0,4.7,0.2,7.1c0.5,5.4,0.9,11,1.1,16.7c0.1,3.8-0.1,7.4-0.9,11l0,0.2c-0.1,0.4-0.1,0.6-0.4,0.7
		c-0.3,0.1-0.4-0.1-0.6-0.5c0-0.1-0.1-0.2-0.1-0.3c-0.4-0.7-0.6-1.4-0.6-2.5c-0.2-3.5-0.8-6.9-1.4-9.8c-0.6-3.3-1.1-6.4-1.5-9.4
		c-0.1-1-0.4-1.8-0.7-2.7c-0.1-0.2-0.2-0.5-0.3-0.7c-0.2-0.6-0.7-1-1.2-1c-0.1,0-0.2,0-0.2,0c-0.1,0-0.2,0-0.3,0.1
		c-0.7,0.1-1.5,0.3-1.8,1.2c-0.1-0.3-0.1-0.6-0.1-0.9l0-0.2c0.1-3.2,0-6.2-0.8-9.2c-0.1-0.3-0.1-0.5,0-0.7c0.1-0.1,0.4-0.2,0.8-0.3
		c2.6-0.2,3.8-1.3,3.8-3.6c0-1-0.4-1.7-1.1-2.2l-0.2-0.1c-1-0.6-2.1-1.3-3.4-1.1c-1,0.1-1.4-0.5-1.8-1.3c-0.1-0.3-0.3-0.5-0.5-0.7
		c-1.1-1.4-2.1-2-3.4-2c-0.4,0-0.9,0.1-1.5,0.2c0.1-0.3,0.3-0.5,0.6-0.8c0.1-0.1,0.2-0.2,0.3-0.4c0,0,0.1-0.1,0.1-0.1
		c0.2-0.2,0.4-0.4,0.4-0.7c0-0.2-0.1-0.4-0.3-0.6c-0.2-0.1-0.5-0.3-0.8-0.3c-0.3,0-0.6,0.2-0.8,0.4c-0.2,0.2-0.3,0.4-0.5,0.6
		c-0.6,0.6-1.5,1.4-0.8,2.8c0,0.1,0,0.1,0,0.2c-0.1,0.2-0.3,0.4-0.6,0.5c-1.9,0.8-2.5,1.8-2.5,4C84.3,78.7,84.3,78.9,84.3,79.1z
		 M96.8,102.7c-0.2,0.9-0.1,1.8-0.1,2.6c0,0.5,0.1,1,0.1,1.4c0,2-0.1,4-0.2,5.9c-0.1,2.5-0.3,5-0.2,7.5c0,1.2-0.3,2.5-0.6,3.7
		c-0.1,0.4-0.2,0.9-0.5,0.9c-0.2,0-0.5-0.2-0.9-0.5c-1.7-1.4-1.8-3.3-1.9-5.3l0-0.3c-0.2-2-0.3-4.1-0.5-6.1c-0.2-2.7-0.4-5.3-0.6-8
		c-0.1-1-0.3-2-0.6-2.8c-0.1-0.3-0.1-0.4-0.1-0.4c0,0,0.1-0.1,0.4-0.1c0.5-0.1,1-0.1,1.5-0.2c0.6-0.1,1.1-0.2,1.7-0.2
		c1.4-0.1,2.1-1,2.6-2.2C97.1,100,97.1,101.3,96.8,102.7z M96,81.9c0-1-0.1-2-0.3-3c-0.1-0.3,0-0.4,0-0.4c0,0,0,0,0.1,0
		c0.1,0,0.2,0,0.3,0c0.2,0,0.5,0,0.5,0h0.1c1.3,0,2.1,0.4,2.6,1.3c0.2,0.3,0.5,1.2-0.3,1.7c-0.8,0.6-1.6,0.8-2.3,0.8
		c-0.2,0-0.4,0-0.6-0.1C96,82.3,96,82.2,96,81.9z M90.2,74.6c0.3,0,0.5,0,0.7,0.1c1.8,0.6,2.7,1.4,2.9,2.9c0.2,1.3,0.4,2.6,0.6,3.9
		c0.6,3.5,1.1,7.1,1.2,10.7l0,0.6c0,0.4,0,0.9,0,1.3c0.1,3.4-1.1,4.8-4.3,5.1c-0.5,0-1,0.1-1.6,0.2c-1.1,0.1-2.1,0.3-3.2,0.2
		c-0.9-0.1-1.5-0.3-1.8-0.7c-0.3-0.4-0.4-1-0.3-1.8c0.9-6.4,1.4-12.6,1.5-18.6C85.9,76.6,88.3,74.6,90.2,74.6z M118.3,52.7
		c-0.3,0-0.7,0-1,0.1c-0.3,0-0.6,0.1-0.9,0.1c0,0,0,0,0,0c-0.5,0-0.9,0-1.4,0c-1.2,0-2.5,0-3.9,0.2c0.1-0.1,0.3-0.1,0.5-0.1l0.1,0
		c2-0.3,3.8-0.6,5.6-0.8c2.5-0.3,3.3-1.1,3.4-3.5c0.2-2.8,0.2-5.7,0.3-8.4c0-0.9,0.1-1.4,0.7-1.8c0.6-0.4,0.6-1,0.7-1.5l0-0.1
		c0-0.5,0-1,0-1.5c0-0.6,0-1.2,0.1-1.8c0,0.2,0,0.4,0,0.7l0,0.2c-0.1,1.7,0.2,3.6,2.2,4.7c0.6,0.3,0.7,0.9,0.5,1.7
		c-0.3,1.2-0.5,2.4-0.6,3.5c-0.1,1.1-0.2,2.3-0.5,3.4c-0.5,1.7,0.4,3.5,2.2,4.2c0.4,0.2,0.8,0.3,1.1,0.4c0.3,0.1,0.6,0.2,0.8,0.3
		c0.4,0.1,0.8,0.3,1.2,0.5c-3.6,1-6.9,0.9-10.1-0.1C118.8,52.8,118.6,52.7,118.3,52.7z M116.4,42.7c0,0.5,0.1,0.8-0.3,1.1
		c-0.4,0.3-0.8,0.5-1.3,0.5c-0.6,0-1.2-0.4-1.5-1.2c-0.1-0.3-0.2-0.6-0.2-1c0-0.2-0.1-0.4-0.1-0.6c-0.1-0.2-0.2-0.4-0.3-0.6
		c-0.2-0.5-0.4-0.8-0.1-1.2c0.1,0,0.4-0.1,1.3-0.1c1.1,0,2,0.2,2.1,0.2c0.3,0.4,0.3,0.9,0.3,1.4c0,0.3,0,0.5,0,0.8
		C116.4,42.3,116.4,42.5,116.4,42.7z"/>
	<path d="M47,130.2c3.4-0.2,5.4-1.7,5.9-4.3c0.2-0.8,0.4-1.6,0.6-2.4c0.2-0.7,0.4-1.4,0.6-2.2c0-0.1,0-0.1,0.1-0.2
		c0.1-0.4,0.2-0.8-0.3-1.3c-0.6-0.4-1.1-0.3-1.6-0.1c-0.7,0.3-1.4,0.7-2.1,1.1c-1.2,0.7-2.4,1.3-3.7,1.6c-0.5,0.1-0.9,0.3-1.3,0.4
		l-0.4,0.1c-0.1,0-0.1,0-0.2,0c-0.3,0.1-0.6,0.2-0.7,0.4c-0.1,0.2-0.1,0.4,0.1,0.7c0.3,0.6,1.1,0.7,1.5,0.2c0.5-0.5,1-0.6,1.7-0.8
		c0.3-0.1,0.5-0.1,0.8-0.2c0.3-0.1,0.5-0.2,0.8-0.3c1-0.3,2-0.6,2.9-1.3c-0.1,0.4-0.2,0.8-0.3,1.2c-0.1,0.5-0.3,1.1-0.4,1.6
		c-0.5,2.4-2.6,4.3-5.1,4.3c-0.2,0-0.4-0.1-0.6-0.5c-0.1-0.4-0.3-0.8-0.4-1.2c-0.8-2.3-1.7-4.6-2-7.1c-0.1-0.5-0.1-0.6,0.2-0.8
		c0.8-0.4,1.6-0.8,2.4-1.3c1.2-0.8,2.4-1.5,3.8-1.7c0.5-0.1,0.8-0.3,0.9-0.7c0.1-0.5-0.3-0.7-0.5-0.8c0,0-0.1,0-0.1-0.1
		c-1.9-1.4-4.2-1.6-6.4-1.8l-0.3,0c-2.4-0.2-4.5,0.5-6.4,2.3c-2.1,2.1-3.6,4.3-4.5,6.7c-1.2,3.3-2.7,6.7-5.6,9.3l-0.5,0.4
		c-1.2,1.1-2.4,2.1-3.3,3.5c-0.1,0.2-0.3,0.3-0.4,0.3c-0.1,0-0.3-0.2-0.4-0.5c-0.2-0.7-0.6-1.2-0.9-1.7c-0.1-0.1-0.2-0.2-0.2-0.4
		c-0.4-0.6-0.8-1.3-1.1-1.9c-0.8-1.5-1.6-3.1-3.2-4.2c-0.1-0.1-0.2-0.2-0.1-0.6c0.1-0.3,0.2-0.6,0.3-0.9c0.3-1,0.7-1.9,0.8-3
		c0.2-2.7-2.2-4.8-4.5-5.1c-2.4-0.4-4.3,0.5-5.8,2.6c-1.7,2.4-1.8,4.4-0.2,6.5c0.6,0.8,1.1,1.5,1.5,2.4c0.2,0.5,0.3,0.8,0,1.1
		c-1.3,1.2-2.3,2.7-3.2,4.2c-0.2,0.3-0.4,0.6-0.6,0.9c-0.2,0.3-0.4,0.6-0.6,0.9c-0.5,0.7-1.1,1.5-1.4,2.3c-0.4,1.2-0.6,2.6-0.7,4
		c0,1.5-0.3,3-0.6,4.4c-0.2,1.3-0.5,2.6-0.6,4l0,0.5c-0.1,1.3-0.1,2.7-1.4,3.5c-1.5,1-2.8,2.2-4,3.4c-0.2,0.3-0.5,0.5-0.8,0.7
		c-0.8,0.6-1.5,1.2-1.7,2.3c-0.1,0.8-0.3,1.5-0.4,2.3c-0.1,0.6-0.3,1.2-0.3,1.8c-0.2,1,0.1,2,0.7,2.7c0.8,1,2.2,1.4,3.5,1.1
		c2.1-0.5,3.8-1.7,5.4-2.9c0.3-0.2,0.5-0.4,0.8-0.6c1.6-1.1,3.1-2.4,4.6-3.6c0.6-0.4,1.1-0.9,1.7-1.4c0.2,0.7,0.1,1.3,0,2
		c-0.1,0.4-0.1,0.8-0.1,1.1c0,1.9-0.2,3.8-0.4,5.7c-0.2,1.8-0.4,3.6-0.4,5.5c-0.1,3-0.2,6.1-0.3,9c-0.1,1.4-0.1,2.8-0.2,4.3
		c-0.1,1.5,0.7,1.8,1.2,1.9c0.1,0,0.2,0,0.3,0c0.5,0,1.2-0.2,1.7-1.2c0.6-1,1-2,1.3-3.3l0.3-1.2c0.6-2.1,1.2-4.3,1.6-6.5
		c0.5-2.5,1.3-5,2.2-7.5l0.4-1.3c0.2-0.4,0.3-0.9,0.4-1.4c0.4-1.4,0.8-2.8,1.8-3.9c0.4,0.3,0.6,0.8,0.7,1.6c0.1,0.4,0.1,0.9,0.2,1.3
		c0.1,0.7,0.2,1.5,0.3,2.2c0.3,1.6,0.3,3.3,0.3,4.9c0,2,0.1,4,0.5,6l0,0.2c0.6,2.5,1.1,5,2.9,7.1c0.9,1,1.8,1.1,2.8,0.1
		c0.5-0.5,1.4-1.5,1.5-2.5c0.2-1.8,0.2-3.6,0.2-5.4c-0.1-2-0.5-4.1-0.9-6.1c-0.1-0.7-0.3-1.4-0.4-2c-0.4-2-0.7-4.2-0.7-6.2
		c0-1.3-0.1-2.7-0.2-4c-0.1-2-0.3-4.1,0-6.2c0.1-0.9,0-1.9,0-2.9l0-0.5c0-0.2,0-0.3,0-0.5c0-1.1-0.1-2.3-1.1-3.2
		c0.2,0,0.4-0.1,0.5-0.1c0.5-0.1,1.1-0.3,1.7-0.3c0,0,0,0,0,0l0.1,0c1.3,0,2.5-0.5,3.5-1.5c1-1,1.6-2.4,1.5-3.7
		c0-0.8-0.2-1.5-0.4-2.1c-0.2-0.7-0.4-1.3-0.4-2c0-1.2-0.7-1.9-1.8-1.9c-0.2,0-0.5,0-0.7-0.1c-0.3,0-0.6-0.1-0.9-0.1
		c-0.6,0-1.4,0.1-2,1.3c-0.8,1.7-1.4,3.4-1.8,5l-0.1,0.2c-0.2,0.7-0.5,1.8,0.8,2.4c0.1,0,0.1,0.1,0.1,0c0,0-0.1,0.2-0.3,0.3
		c-0.3,0.3-0.7,0.6-1,0.9c-0.7,0.7-1.4,1.4-2.2,1.9c-1.3,0.9-2.5,1.9-3.6,2.9c-0.8,0.7-1.7,1.4-2.6,2.1c-3,2.3-6.2,4.7-9.2,7.4
		c-1.8,1.7-3.9,3.1-5.9,4.5c-0.8,0.6-1.6,1.1-2.4,1.7c-0.9,0.6-1.6,0.9-2.3,1c-0.5,0.1-0.9-0.1-1.2-0.3c-0.2-0.3-0.3-0.7-0.3-1.2
		c0.2-1.3,0.3-2.7,0.4-4.3c0-0.5,0.1-0.8,0.4-1c0.7-0.6,1.3-1.2,2-1.8c0.9-0.9,1.9-1.7,2.8-2.6c0.3-0.2,0.4-0.2,0.4-0.2
		c0,0,0.1,0.1,0.1,0.5c0,0.4,0.1,0.7,0.1,1.1c0.1,0.4,0.1,0.7,0.1,1.1c0,0.4,0.1,1.1,0.8,1.4c0.1,0,0.2,0.1,0.3,0.1
		c0.6,0,1-0.6,1.1-0.7c0.3-0.4,0.6-0.9,1-1c1.8-0.4,2.5-2,3.1-3.2L7,155c1.1-2.2,2.2-4.5,2.1-7.1c0-0.6,0.1-0.8,0.8-1
		c1.8-0.5,3.2-1.8,4.5-2.9l0.6-0.6c1.5-1.4,2.9-2.7,4.8-3.4c0.4-0.1,0.8-0.4,1.2-0.8c0.9-0.8,1.7-1.7,2.5-2.5
		c1.4-1.5,2.8-2.9,4.4-4.3c2.2-1.9,4-4.4,5-7.3c0.9-2.7,2-4.8,3.2-6.5c1.2-1.7,2.7-3.6,5.2-4.1c0.5-0.1,1-0.2,1.5-0.2
		c1.4,0,2.7,0.4,4.1,0.7c0.1,0,0.2,0,0.3,0.1c-0.8,0.4-1.7,0.9-2.4,1.4c-1,0.6-1.9,1.1-2.9,1.6c-0.4,0.2-1,0.6-0.8,1.5
		c0.6,3.6,1.8,7.1,3,10.3c0.3,0.8,0.5,1.7,0.6,2.9c0,0.2,0,0.4-0.2,0.6c-0.1,0.1-0.2,0.1-0.3,0.1c-2.6-0.2-4.9,0.3-7.1,1.5
		c-1.7,0.9-3.2,1.8-4.5,3c-0.5,0.5-0.6,1.1-0.3,1.6c0.2,0.3,0.4,0.4,0.7,0.4c0.2,0,0.4-0.1,0.6-0.2c0.1,0,0.1-0.1,0.2-0.1
		c0.3-0.1,0.5-0.3,0.7-0.4c0.1,0,0.1-0.1,0.2-0.1c2.8-2.2,5.9-4.3,9.9-4c1.4,0.1,2.1-0.6,2.2-2c0-0.6,0.1-1.3-0.2-1.8
		c-0.2-0.5-0.2-0.7-0.2-0.8C46.2,130.3,46.4,130.2,47,130.2z M9.3,145.5c0.1-0.1,0.1-0.3,0.2-0.4l0-0.1c0.1-0.3,0.3-0.8-0.2-1.2
		c-0.3-0.3-0.7-0.3-1.2-0.1c-0.6,0.2-0.7,0.6-0.7,1c-0.3,3.4-0.9,7.2-3.1,10.7c-0.4,0.5-0.8,0.9-1.4,1.3c-0.1,0.1-0.3,0.2-0.4,0.3
		c-0.3-3.3,0.2-6.3,0.7-9.3c0.3-1.8,0.7-3.9,0.7-6.2c0.1-2.1,0.9-4.2,2.7-6.4c0.9-1.1,1.8-2.3,2.9-3.9c0.8-1.2,0.8-2.5-0.1-3.7
		c-0.6-0.8-1.1-1.6-1.5-2.4c-0.9-1.7-0.4-3.8,1.2-4.9c0.2-0.2,0.4-0.3,0.6-0.5c0.4-0.3,0.8-0.7,1.3-0.8c0.5-0.1,1-0.2,1.4-0.2
		c1.4,0,2.4,0.7,3.2,2.2c0.5,1,0.1,2-0.3,3l-0.1,0.2c-0.6,1.7-0.4,2.7,0.7,4.2c1.9,2.5,3.8,5.2,4.6,8.3c0.1,0.4,0.1,0.5-0.3,0.8
		c-1,1-2.3,1.7-3.5,2.4l-0.2,0.1c-1.5,0.9-2.8,2-4,3.1c-0.5,0.4-0.9,0.8-1.4,1.2c-0.3,0.3-0.7,0.5-1,0.8c-0.3,0.2-0.7,0.5-1,0.8
		C9.2,145.7,9.2,145.6,9.3,145.5z M27.3,145.2c-0.6-0.1-1.2-0.7-1.2-1.6c0-0.8,0.1-1.6,0.3-2.3l0.1-0.3c0.5-1.4,0.9-2.6,2.2-3.4
		c0.2-0.1,0.4-0.2,0.6-0.2c0.1,0,0.2,0,0.3,0.4c0.3,1.1,0.6,2.2,0.9,3.2l0.3,1.1c0,0.7-0.4,1.5-1,2.1
		C28.9,144.9,28,145.3,27.3,145.2z M23.2,149.1c0.2,0.1,0.2,0.7,0.2,1l0.1,1.9c0.1,1.6,0.1,3.1,0.1,4.7c0.1,5.3,0.4,11.1,1.5,16.8
		c0.6,3.3,1.1,6.4,0.9,9.7c0,0.7-0.1,1.4-0.5,2.1l-0.1,0.2c-0.1,0.2-0.2,0.5-0.4,0.5c0,0,0,0,0,0c-0.3,0-0.5-0.3-0.7-0.7
		c-0.5-1.3-0.8-2.6-1.2-3.9c-0.1-0.4-0.2-0.9-0.3-1.3c-0.5-1.8-0.5-3.8-0.5-5.6c0-1.1,0-2.3-0.1-3.4c-0.2-2.4-0.5-4.4-0.8-6.2
		c-0.2-1.1-0.8-2-1.7-2.5c-0.6-0.4-1.1-0.5-1.5-0.5c-0.9,0-1.4,0.8-1.7,1.5c-1.6,3.6-2.8,7.4-3.7,11c-0.5,1.7-0.7,3.5-1,5.2
		c-0.1,0.8-0.3,1.6-0.4,2.4c-0.3,1.6-1,3.1-1.7,4.7c-0.2,0.4-0.4,0.9-0.6,1.3C9,187.7,9,187.6,9,187.5c0-1.3,0.1-2.6,0.1-3.9
		c0.1-3.3,0.2-6.7,0.4-10.1c0.2-2.5,0.4-5,0.7-7.5c0.1-1.3,0.3-2.6,0.4-3.9l0-0.2c0.1-0.8,0.2-1.7-0.9-2.3c0,0,0,0,0.1-0.1l0.1-0.1
		c1.9-1.8,3.4-3.1,5-4c2.6-1.6,4.9-3.6,7-5.5l0.4-0.3C22.6,149.3,23,149,23.2,149.1z"/>
	<path d="M185.7,118.2L185.7,118.2c-1.4-1.8-2.8-3.5-4.4-5c-0.3-0.3-0.6-0.6-0.9-0.9c-1.3-1.3-2.7-2.7-4.6-3.5l-0.5-0.2
		c-1.8-0.8-3.8-1.7-5.3-3c-0.5-0.4-0.7-0.7-0.5-1.3c0.3-1.1,0-2.1-1-2.8c-0.4-0.3-0.7-0.8-0.6-1.1c0.1-0.3,0.3-0.5,0.6-0.6l0.5-0.1
		c1-0.2,2-0.5,3-0.5c0.7,0,1.4,0.1,2,0.4c1.9,0.9,3,2.6,3.8,4.2c0.2,0.4,0.4,0.8,0.8,0.8c0.2,0,0.5-0.1,0.8-0.4
		c0.7-0.7,1.3-1.1,2.2-0.8c0.1,0,0.3,0.1,0.5,0.1c0.6,0,1-0.2,1.3-0.5c0.2-0.2,0.3-0.6,0.1-1.2c-0.8-2.6-2.1-4.7-4-6.3
		c-1.4-1.2-3.2-1.8-4.9-2.2c-0.6-0.2-1.2-0.3-1.7-0.5l-0.1,0c-0.4-0.1-1-0.3-1.4-0.2c-2.6,0.6-5.3,1.3-7.4,3.6
		c-0.5,0.5-0.9,0.9-1.1,0.9c-0.2,0-0.6-0.5-1-1c0,0-0.1-0.1-0.1-0.1c0-0.1-0.1-0.1-0.1-0.2c-0.9-1.2-1.9-2.4-2.7-3.6
		c-1.2-1.7-2.5-3.5-4-5.1c0,0-0.1-0.1-0.1-0.1l0.1-0.1c0.6-0.3,0.8-0.7,0.9-1c0.1-0.3,0.1-0.7-0.1-1c-0.8-1.4-0.2-2.4,0.4-3.7
		c0.1-0.2,0.2-0.3,0.2-0.5c0.4-0.8,0.9-1,1.8-1c2.8,0.2,4.1-0.9,4.6-3.7c0.4-2.2,0.1-4.3-0.7-6.5c-0.7-1.9-2.8-3.4-4.9-3.4l-0.2,0
		c-2.6,0.1-6.2,3.6-7,5.6c-0.5,1.5-0.5,3-0.5,4.5c0,0.3,0,0.6,0,0.8c0,1.1-0.4,1.8-1.3,2.3c-4.3,2.2-6.3,6.1-7.7,9.6
		c-1.5,3.8-2.2,8-2.9,11.9c-0.2,0.9-0.3,1.8-0.5,2.7c-0.6,3.2,0.2,6,2.3,8.4c0.8,1,1.4,2,1.9,3c1.1,2.8,1.7,5.9,2.2,8.8l0.1,0.6
		c0.5,2.9,0.7,5.9,0.9,8.8c0.2,2.3,0.3,4.6,0.6,6.9c0.2,1.4,0.3,2.8,0.4,4.1c0.1,1.2,0.2,2.4,0.4,3.6c0.2,1.8,1.2,3,2.7,3.1
		c2.1,0.2,4.1,0.9,5.7,1.4c1.1,0.4,2.4,0.5,3.5,0.6l0.4,0c0,0,0.1,0,0.1,0c0.6,0,1-0.3,1.2-0.7c0.2-0.5-0.2-0.8-0.4-1
		c-0.1-0.1-0.1-0.1-0.2-0.2c-0.9-0.9-1.9-1.7-3-2.4c-1.4-0.8-1.9-1.6-1.8-2.6c0.1-0.8,0.2-1.6,0.2-2.4c0.1-0.9,0.1-1.9,0.3-2.8
		c0.4-2.2,0.3-4.4,0.2-6.5c0-0.6-0.1-1.2-0.1-1.8c-0.1-2.7-0.5-5.3-1-7.8c-0.1-0.8-0.3-1.6-0.4-2.5c-0.2-1.2-0.4-2.3-0.5-3.5
		c-0.3-2.1-0.6-4.2-1-6.4c-0.5-2.9-0.9-5.7,0.2-8.5c0.2-0.5,0.5-1.1,0.8-1.6c0.6-1,1.1-2.1,1.3-3.3c0.2,0.2,0.5,0.3,0.7,0.5
		c1.8,1.2,3.4,2.3,4.3,4.2c0.1,0.3,0.4,0.4,0.6,0.5c0.2,0.1,0.4,0.2,0.4,0.5c0.4,2.6,1.5,4.4,3.2,5.4c0.3,0.2,0.4,0.3,0.4,0.3
		c0,0-0.1,0.1-0.2,0.2c-0.1,0.1-0.2,0.2-0.3,0.2c-1.4,1.7-2.4,3.4-2.8,5.2c-0.9,3.6,0.2,7.3,3,10.4c3.2,3.6,7.1,6.7,11.4,9.3
		l0.4,0.2c1.3,0.7,2.6,1.5,3.3,2.8c0.6,1,0.8,1.8,0.6,2.5c-0.2,0.5-0.6,0.9-1.3,1.3c-0.7,0.3-1.4,0.5-2.3,0.5
		c-0.6,0-1.2-0.1-1.9-0.2c-0.3,0-0.6-0.1-1-0.1c-1.2-0.1-2.2-0.7-3.1-1.9c-0.4-0.6-0.7-1.2-0.9-2c-0.1-0.2-0.2-0.5-0.3-0.7
		c-0.2-0.4-0.5-1-1.2-1c-0.2,0-0.4,0-0.6,0.1c-1,0.4-2,0.9-3.1,1.2c-0.3,0.1-0.5,0.2-0.7,0.4c-0.1,0.2,0,0.5,0,0.7
		c1.6,4.1,3.5,7.9,7.8,9.7c1.3,0.5,2.8,1.1,4.4,1.1c0.6,0,1.2-0.1,1.8-0.3c2.6-0.8,4.9-2,7.1-3.5c0.7-0.5,1.1-1,1.3-1.6
		c0.6-2.6,0.7-5,0.3-7.3c-0.4-2-1-3.6-1.8-5c-0.2-0.2-0.1-0.3,0.1-0.7c0.3-0.4,0.5-0.9,0.8-1.3c0.8-1.3,1.6-2.6,2.3-4
		c0.1-0.1,0.2-0.3,0.2-0.4c0.5-1,1.2-2.1,0.8-3.3C187.5,121.5,186.9,119.7,185.7,118.2z M161.6,74.7c-0.3,2.6-1,3.2-3.4,3.3
		c-1,0-2.2,0.8-3,2c-0.8,1.1-1.2,2.2-0.9,3l0.1,0.4c0.2,0.9,0.5,1.8,0.4,2.8c-0.2-0.2-0.5-0.2-0.8,0.1c-0.6,0.5-0.1,1.1,0.1,1.3
		c1.6,1.8,3,3.8,4.4,5.7c1.6,2.3,3.3,4.6,5.3,6.7c1.1,1.2,2.2,2.3,3.7,2.8c0.8,0.3,1,0.4,1,0.9c0,0.2-0.1,0.7-1.2,0.8
		c-2,0.1-4-0.3-5.8-1c-0.2-0.1-0.3-0.2-0.4-0.3c-1.6-2.1-3.5-4-5.9-5.9c-1.4-1.1-2.5-2.7-3.5-4.9c-0.4-0.9-0.9-2-1.9-2.8
		c-0.4-0.4-0.9-0.4-1.2-0.1c-0.2,0.1-0.2,0.3-0.2,0.4c0,0.3,0.2,0.5,0.3,0.6c0.9,0.9,1.5,2.1,2.1,3.3c0.6,1.2,1.2,2.4,2.1,3.3
		c0.1,0.1,0.2,0.2,0.1,0.4c-0.1,0.2-0.1,0.5-0.2,0.7c-0.2,0.8-0.4,1.5-0.8,2.2c-1.8,3.2-2.4,6.3-1.8,9.5l0.2,1
		c0.3,1.2,0.5,2.5,0.7,3.8c0.2,1.4,0.4,2.8,0.6,4.2c0.3,2.1,0.6,4.3,1,6.4c0.3,1.5,0.5,3,0.6,4.4c0.4,5.7,0.2,10.3-0.5,14.5
		c-0.5,2.7,0.5,4.7,3,6c0.1,0.1,0.2,0.1,0.4,0.2c0.4,0.2,0.7,0.3,1,0.7c-0.5-0.1-0.9-0.2-1.4-0.2c-0.7-0.1-1.3-0.2-1.9-0.4
		c-0.4-0.1-0.8-0.3-1.2-0.4c-1.1-0.4-2.3-0.8-3.6-0.8c-0.9,0-1.4-0.5-1.4-1.4c-0.1-0.8-0.1-1.7-0.2-2.5c-0.1-2.3-0.4-4.6-0.7-6.9
		c-0.2-1.3-0.3-2.5-0.4-3.8c-0.1-1.3-0.2-2.6-0.3-3.9c-0.2-3.2-0.5-6.6-1.3-9.8l-0.1-0.5c-0.8-3.4-1.6-7-4.2-9.8
		c-1.5-1.7-2.1-3.7-1.8-5.9c0.1-0.5,0.2-1,0.3-1.5c0.1-0.7,0.3-1.4,0.4-2.2c0.2-2.1,0.4-4.5,1-6.7c0.9-2.8,1.7-5.1,2.7-7.2
		c0.6-1.3,1.4-2.8,2.4-3.9c0.2-0.2,0.4-0.5,0.6-0.8c0.6-0.8,1.1-1.6,2.2-1.6c0.1,0,0.3,0,0.5,0c0.2,0,0.3-0.1,0.4-0.2
		c0,0,0.1-0.1,0.1-0.1c1.5-0.9,2.2-2.3,1.9-4c-0.5-3.2,0.6-5.7,3.6-8c0.8-0.6,1.8-1,2.8-1c1.7,0,3.2,1.1,3.8,2.9
		C161.9,71.8,161.8,73.3,161.6,74.7z M184.8,127.9c-0.7,1.3-1.5,2.7-2.5,3.8c-0.5,0.6-0.2,1.1,0,1.4c0,0.1,0.1,0.1,0.1,0.2
		c1.9,3.2,2.3,6.7,1.2,11.6c-0.1,0.6-0.7,0.9-1.3,1.2c-0.2,0.1-0.5,0.2-0.7,0.4c-1.4,0.9-3,1.7-4.8,2.2c-2.3,0.8-4.8,0.3-7.2-1.5
		c-2.2-1.6-3.3-4.2-4.5-6.6c-0.1-0.3-0.2-0.4-0.1-0.6c0-0.1,0.2-0.2,0.5-0.3l0.1,0c0.5-0.2,0.9-0.4,1.1-0.4c0.2,0,0.4,0.3,0.9,1.3
		c1.5,2.8,4,4.2,7.8,4.2l0.2,0c1.8,0,3.3-0.5,4.7-1.4c0.9-0.6,0.9-1.2,0.8-1.9c-0.4-3.6-3-5.5-5.3-6.8c-1.6-0.9-3-2.1-4.4-3.2
		c-0.8-0.6-1.6-1.3-2.4-1.9c-0.2-0.2-0.4-0.4-0.6-0.6c-0.2-0.2-0.4-0.4-0.7-0.6c-2.9-2.1-4.7-4.9-5.3-8.4c-0.3-2,0.3-3.7,1.1-5.6
		c0.3-0.6,0.6-1.3,1-2c1-1.6,1.1-2.3-0.5-3.7c-1.2-1-1.8-2.1-2.1-3.2c0.5,0.1,1.1,0.2,1.6,0.3c1.2,0.2,2.4,0.5,3.7,0.4
		c0.3,0,0.5,0,0.7,0.2c1.4,1.3,3.1,2.2,4.8,3c0.8,0.4,1.6,0.8,2.4,1.2c2.5,1.5,4.5,3.7,6.4,5.8l0.7,0.8c1.6,1.8,2.7,3.3,3.4,5
		c0.7,1.6,0.6,2.9-0.1,4.1C185.4,126.8,185.1,127.4,184.8,127.9z M177,95.8c2.4,1.1,3.8,3.2,4.9,5l0.1,0.1c0.2,0.4,0.3,0.5,0.2,0.7
		c0,0.1-0.1,0.1-0.1,0.1c0,0-0.2-0.1-0.2-0.1c-0.1-0.1-0.2-0.1-0.3-0.2c-0.2-0.1-0.4-0.1-0.6-0.1c-0.5,0-0.9,0.3-1.2,0.5
		c-0.2,0.1-0.4,0.3-0.6,0.3c-0.2,0.1-0.3,0.1-0.4,0.1c-0.1,0-0.1,0-0.3-0.3c-0.5-0.8-1-1.6-1.6-2.4c-1.2-1.6-2.9-2.3-5.1-2.3
		c-0.9,0-1.9,0.1-2.6,0.2c-1,0.2-1.6,1-2.1,1.7c-0.2,0.2-0.3,0.5-0.5,0.7c-0.1,0.1-0.3,0.3-0.4,0.3c0,0-0.1,0-0.4-0.2
		c-0.4-0.3-0.7-0.7-1-1.2c-0.3-0.4-0.6-0.8-1-1.1c0,0,0.1-0.1,0.1-0.2c1.3-1.5,5.7-3.4,8.6-3.4c1,0,2.3,0.6,3.7,1.3
		C176.5,95.6,176.7,95.7,177,95.8z"/>
	<path d="M79.8-56.2c0.3,1.1,0.7,2.2,1.6,3.1c0.6,0.7,1.4,1.1,2.1,1.6c0.5,0.3,1,0.6,1.4,1c0.7,0.6,1.1,1.1,0.8,2.1
		c-0.7,2.8,0,5.4,1.9,6.9c1.5,1.2,2.1,2.6,2.5,4.4c0,0.2,0.2,0.3,0.4,0.3l0.3,0.1l0.1-0.3c0.4-1-0.2-4-0.9-4.6
		c-0.1-0.1-0.2-0.2-0.4-0.3c-2.3-1.4-3.5-4-2.8-6.6c0.3-1.4-0.1-2.5-1.2-3.4c-0.3-0.2-0.6-0.4-0.9-0.7c-1-0.7-1.9-1.3-2.6-2.3
		c-0.1-0.1-0.2-0.2-0.3-0.4c-0.6-0.8-1.1-1.5-0.7-1.9c0.1-0.1,0.3-0.2,0.5-0.2c0.6,0,1.4,0.7,1.8,1.1c1.3,1.2,2.7,2.2,4.3,3
		c1.4,0.7,2.6,0.5,3.7-0.5c0.8-0.7,1.3-1.6,1.8-2.5c0.2-0.3,0.4-0.6,0.6-0.9c0.6-0.9,1.6-1.5,2.7-1.5c0.7,0,1.4,0.2,1.9,0.7
		c1,0.9,1.2,1.6,0.7,2.6c-0.2,0.3-0.3,0.7-0.5,1c-0.1,0.2-0.1,0.3-0.2,0.5c-1.1,2.4-1,3.1,0.9,5c0.5,0.5,1,0.9,1.5,1.3
		c1.1,0.9,2.2,1.9,2.9,3.1c0.2,0.3,0.3,0.5,0.3,0.5c0,0-0.2,0-0.4,0c-0.6-0.1-1.2-0.1-1.8-0.1c-1.2,0-2.3-0.1-3.4-0.5
		c-0.5-0.2-0.9-0.3-1.3-0.3c-1.1,0-1.6,1-1.9,1.8c-0.1,0.2-0.2,0.5-0.4,0.7c-0.9,0.7-0.4,1.5-0.1,2c0.5,0.8,1.1,1,2,0.7
		c0.9-0.3,1.8-0.1,2.8,0.3c1.7,0.6,3.1,1.9,4.5,3.9c2.3,3.5,4.2,6.7,4.8,10.6c0.2,1.1,0.4,2.3,0.6,3.3c0.3,1.3,0.6,2.7,0.7,4
		c0,0.3,0.1,0.6,0.1,0.9c0.2,1,0.3,2,0.1,3.1c-0.1,0.7-0.3,1.4-0.5,2.1c-0.2,0.7-0.4,1.5-0.5,2.3c-0.3,1.5-0.6,2.7-1.1,3.8
		c-1.8,4.6-2.1,9.2-0.9,13.8c0.2,0.8,0.4,1.7,0.6,2.5c0.2,0.9,0.4,1.8,0.7,2.7c0.2,0.8,0.4,1.6,0.6,2.3c0.3,1.3,0.5,2.5,1,3.8
		c0.4,0.9,0.3,1.9-0.1,2.7c-0.5,0.9-1.4,1.5-2.5,1.8c-0.4,0.1-0.7,0.2-1,0.3c-0.2,0.1-0.4,0.1-0.7,0.2c-0.1,0-0.2,0.1-0.3,0.1
		c-0.1,0.1-0.3,0.1-0.4,0.1c-0.1,0-0.1,0-0.2-0.1c-0.2-0.3-0.2-0.5,0-1c0.1-0.2,0.2-0.4,0.3-0.5c0.1-0.2,0.2-0.5,0.3-0.7
		c0.6-1.1,0.8-2.1,0.6-3.3c-0.1-0.8-0.4-1.5-0.7-2.2c-0.3-0.7-0.6-1.3-0.7-2c-0.1-0.6-0.3-1.2-0.4-1.8c-0.3-1.2-0.6-2.4-0.5-3.7
		c0.2-2.4,0.1-4.3-0.3-6c-0.9-4.1-0.5-8.1,1.2-11.9c0-0.1,0.1-0.2,0.1-0.2c0.2-0.4,0.4-0.8,0.2-1.4l-0.1-0.2l-0.2,0
		c-0.7,0-1.2,0.3-1.7,0.9c-1,1.3-1.6,2.8-2,4.1c-0.5,1.5-1.1,3-2.2,4.3c-2.6,3-3.6,5.8-3.3,8.9c0.1,1.2,0.2,2.5,0.3,4
		c0,0.8,0.1,1.7,0.1,2.5c0,1.7,0.1,3.5,0.3,5.2c0.2,1.5-0.2,2.6-1.5,3.4c-0.5,0.4-1.1,0.7-1.7,1c-1.4,0.6-3,1.2-4.7,1.2
		c-0.4,0-0.8,0-1.2-0.1c-0.4-0.1-0.5-0.1-0.5-0.1c0,0,0-0.1,0.2-0.3c0.2-0.2,0.3-0.4,0.5-0.6c0.4-0.5,0.7-1,1.2-1.4
		c2.8-2.1,3.9-4.4,3.3-7.2c-0.1-0.3,0-0.6,0-0.9l0-0.2c0.1-0.8,0.2-1.6,0.3-2.4c0.3-1.9,0.5-3.9,0.9-5.9c1.3-7,2.7-14.3,5.3-21.2
		c1.4-3.8,1-7.1-1.1-9.9c0-0.1-0.1-0.1-0.1-0.2c-0.2-0.3-0.4-0.7-0.9-0.7c-0.2,0-0.4,0.1-0.6,0.3c-1.4,1.2-2.9,2.5-3.8,4.3l-0.8-0.5
		l0.3,0.5l-0.9-0.2l0.7,0.5c-0.2,0.1-0.4,0.3-0.6,0.6c-0.8,1.9-1.8,3.2-3.3,4.1c-0.3,0.2-0.5,0.6-0.7,0.9l-0.1,0.1
		c-0.2,0.4-0.5,0.7-0.9,1c-0.8,0.6-1.6,1.3-2.4,1.9l-1.2,1l0.2,0.2c0.4,0.4,0.7,0.6,1.1,0.6c0.3,0,0.7-0.2,1-0.5
		c0.4-0.4,0.8-0.8,1.2-1c2.5-1.8,4.5-4.2,6.8-7.7c0.2-0.3,0.2-0.6,0.2-0.8c0.1,0,0.2-0.1,0.3-0.1l0,0l0,0c0.1-0.1,0.2-0.2,0.3-0.4
		c0.3-0.5,0.7-1,1.1-1.4c0.4-0.4,0.8-0.9,1.1-1.5c0.2-0.4,0.3-0.4,0.3-0.4c0,0,0.1,0,0.5,0.4c1.9,2.4,2.2,5,0.9,8.8
		c-0.3,0.8-0.5,1.6-0.8,2.3c-0.6,1.6-1.1,3.2-1.6,4.8c-0.4,1.5-0.7,3-1,4.5c-0.2,1.1-0.4,2.1-0.6,3.2c-0.1,0.7-0.3,1.3-0.5,1.9
		c-0.5,1.8-0.9,3.7-1.1,5.6c-0.1,1.6-0.4,3.3-0.7,4.8l-0.2,1.1c0,0.2-0.1,0.4-0.1,0.6c-0.2,1-0.4,2-0.2,3.1c0.4,1.6,0,2.7-1.3,3.8
		c-1.5,1.2-3,2.5-3.9,4.3c0,0,0,0.1-0.1,0.1c-0.1,0.2-0.3,0.5-0.1,0.7c0.1,0.3,0.5,0.3,0.6,0.3c1.3,0.2,2.5,0.3,3.6,0.3
		c2.1,0,3.8-0.5,5.3-1.5l0.3-0.2c1.6-1.1,3.5-2.3,3.2-5c-0.1-1.5-0.2-3.1-0.3-4.6c-0.1-2-0.2-4.1-0.5-6.1c-0.7-4.9,1.7-8.3,4.2-11
		c0,0,0,0,0,0.1c0,0.5,0.1,0.9,0.1,1.4c0,1,0.2,2,0.4,2.9c0.2,1,0.4,2,0.4,2.9c-0.1,3.6,0,7.9,1.6,12c0.9,2.2,1.2,4.1-0.3,5.7
		c-0.2,0.2-0.2,0.4-0.3,0.6l0,0.1c-0.2,0.8-0.2,1.4,0.1,1.8c0.3,0.5,1,0.6,1.9,0.4c1.9-0.5,4-1,5.6-2.5c1.4-1.3,1.9-2.8,1.3-4.6
		c-0.2-0.6-0.4-1.3-0.6-2c-0.3-1.1-0.5-2.2-0.8-3.3c-0.5-2-1-4.1-1.5-6.1c-1-3.6-1.1-6.8-0.2-9.8c0.3-1.2,0.7-2.5,1.1-3.7
		c0.7-2.3,1.4-4.6,1.9-7c0.2-1.2,0.4-2.4,0.3-3.6c-0.2-1.9-0.6-3.7-1-5.5c-0.2-1-0.5-2.1-0.7-3.2c-1-5.7-3.6-10.5-7.5-14.1
		c-1.3-1.2-2.7-2.2-4.5-2.2c-0.5,0-1,0.1-1.6,0.3c-0.2,0.1-0.3,0.2-0.6-0.4c-0.2-0.3-0.1-0.6,0.2-1c0.1-0.1,0.1-0.2,0.2-0.4
		c0.1-0.2,0.2-0.3,0.4-0.3c0.1,0,0.3,0,0.4,0.1c1.9,0.3,3.9,0.5,6.1,0.5c0.3,0,1.3,0,1.5-0.9l0.1-0.2c0.2-0.5,0.4-1.1-0.2-1.7
		c-0.7-0.6-1.3-1.3-2-2c-0.8-0.9-1.7-1.9-2.8-2.6c-1.7-1.3-1.9-2-0.9-3.8c0.3-0.6,0.5-1.2,0.8-2c0.5-1.5,0.3-2.5-1.1-3.6
		c-0.6-0.5-1.3-0.8-2.1-0.8c-0.4,0-0.8,0.1-1.3,0.2c-1.7,0.4-3.5,1.5-4,3.1c-0.5,1.9-2,2.6-3.8,1.8c-1.2-0.6-2.4-1.4-3.8-2.6
		c-1-0.9-2.2-1.2-3.6-1c-0.4,0.1-0.8,0.2-0.9,0.5c-0.1,0.2-0.2,0.4,0,0.8C79.6-57,79.7-56.6,79.8-56.2z"/>
	<path d="M-6.8,71.8c1.3,0.8,2.6,1.7,4.1,2.2c0.8,0.3,1.3,0.8,1.7,1.6c0.4,1,0.5,2.1,0.6,3.3c0,0.7,0.1,1.3,0.2,2
		c0.2,1.2,0.1,2.4-0.1,3.7c-0.1,0.5-0.1,1-0.2,1.5c0,0.6-0.1,1.3-0.2,1.9c-0.2,1.6-0.4,3.3-0.1,5c0.1,0.9,0.5,2.1,1.7,2.6
		c1.4,0.5,2.6,0.8,3.6,0.9c0.5,0,0.9,0.1,1.4,0.1c1,0.1,2,0.2,3,0.2c1,0,1.9-0.1,2.7-0.3l0.3-0.1l0-0.3c-0.1-1.2-1-2-1.7-2.7
		l-0.8-0.7c-1-0.9-2.1-1.8-3.1-2.7c-0.3-0.3-0.7-0.7-0.7-1.3C5.5,85.4,5.5,81.1,6,76.8c0.1-1.3,0.6-1.9,1.7-2.1
		c0.5-0.1,1.1-0.3,1.6-0.5c0.3-0.1,0.6-0.2,0.9-0.3c0.8-0.3,1.3-0.9,1.4-1.7c0.3-2.5,0.4-4.9,0.2-7.4c-0.2-2.3,0.2-4.7,0.5-6.9
		c0.2-1.6,0.5-3.2,0.5-4.9c0-0.9,0.1-1.7,0.2-2.6c0.1-1,0.1-2,0.2-2.9c0,0,0-0.1,0.1-0.1c0.1-0.2,0.3-0.5,0.1-0.7
		c-0.1-0.1-0.1-0.2-0.2-0.2c0.6-0.2,1.1-0.3,1.7-0.4c2.6-0.7,5-1.3,7.2-2.6c0.6-0.4,1.2-0.7,1.8-0.9c1.1-0.5,2.3-1.1,3.2-2.1
		c1-1.1,2-1.3,3.6-0.9c2,0.5,4-0.2,5.2-1.9C35.9,37,36,37,36,37c0,0,0.1,0.1,0.2,0.4l0.1,0.3c0.7,1.8,1.4,3.6-0.2,5.3
		c-0.1,0.1-0.2,0.3-0.4,0.4c-0.3,0.4-0.6,0.7-1,0.9c-0.9,0.5-1.5,1.3-1.9,2.4c-0.1,0.2-0.1,0.5-0.2,0.8c-0.2,0.9-0.3,1.4-1,1.4
		c-0.2,0-0.3,0-0.6-0.1c-0.2,0-0.3,0.2-0.3,0.3l-0.2,0.4l0.3,0.1c0.3,0.1,0.7,0.3,1,0.5c0.5,0.3,1,0.6,1.5,0.7
		c2.2,0.7,2.6,2.5,2.9,4.5c0.3,2,0.6,4,2.2,5.5c1.7,1.7,3.6,3.3,5.3,4.8c0.7,0.6,1.5,1.3,2.2,1.9c0.1,0.1,0.2,0.1,0.3,0.2
		c2.2,1.4,4.8,3,7,5.2c1.3,1.2,2.4,2.5,2.5,4.4c0.1,3.7,1.8,6.7,3.6,9.5c0.2,0.4,0.5,0.7,0.7,1.1c1,1.5,2.1,3,2.6,4.8
		c0.1,0.2,0.2,0.9,0.8,0.9c0.3,0,0.5-0.1,0.8-0.3L64,93.2l0.2,0.2c1.7-0.8,3.4-1.6,5.3-1.3l0.2,0c0.1,0,0.1,0,0.2,0l-3.8,1.7l1.3,0
		c0.1,0,0.2,0,0.3,0c0.2,0,0.4,0,0.6,0c0.6,0,1.4-0.1,1.7-1.3l0.1-0.5c0,0,0.1,0,0.1,0c0,0,0.1,0.1,0,0.3c0,0,0,0.1-0.1,0.2
		c-0.1,0.2-0.2,0.5,0,0.8c0.1,0.2,0.3,0.3,0.5,0.3c0.1,0,0.2,0,0.3,0c0.5,0,1-0.1,1.4-0.4c0.2-0.1,0.3-0.3,0.3-0.4
		c0.1-0.4-0.1-0.7-0.3-1c-0.7-1.2-2-1.9-3.4-1.9c-0.3,0-0.7,0-1,0.1c-0.5,0.1-0.9,0.2-1.4,0.3c-0.8,0.2-1.5,0.3-2.3,0.5
		c-0.4,0.1-0.4,0.1-0.8-0.4c-0.2-0.3-0.4-0.6-0.6-1c-0.8-1.2-1.6-2.5-2.5-3.7c-1.9-2.5-3-5.1-3-7.7c-0.1-1.5-0.5-2.7-1.5-4.1
		c-1.2-1.6-2.7-2.8-4.2-3.9c-0.4-0.3-0.8-0.6-1.2-0.9c-0.7-0.5-1.4-1-2.1-1.5c-0.9-0.6-1.8-1.2-2.6-1.9c-0.5-0.4-0.9-0.9-1.3-1.3
		c-0.8-0.8-1.6-1.7-2.7-2.3c-2.2-1.4-3.5-3.5-3.9-6.3c-0.3-2.7-1.3-4.7-3.1-6c-1-0.7-0.8-1.4-0.4-2.5c0.4-1.1,1.2-1.8,2-2.5
		c0.4-0.3,0.8-0.7,1.1-1c1.1-1.2,1.3-2.2,1.1-3.5c-0.2-1.8-0.8-3.2-1.6-4.3c0.3,0,0.5,0,0.8,0.1c0.2,0,0.4,0.1,0.6,0.1
		c0.5,0,0.8-0.2,1-0.7c0.4-0.9-0.1-1.9-1.3-2.5c-0.1,0-0.1-0.1-0.2-0.1c-0.6-0.2-0.6-0.4-0.6-0.4c0,0,0-0.2,0.6-0.6
		c0.7-0.4,1-0.8,1.1-1.3c0.1-0.5-0.1-1.1-0.6-1.8c-0.3-0.3-0.6-0.6-0.9-0.8c-0.4-0.3-0.7-0.5-0.9-0.9c-0.4-1.1-1.1-1.8-2.1-2.1
		c-0.9-0.3-1.8,0-2.5,1c-1.4-1.6-2.7-2.3-4.4-2.2c-0.9,0-1.9,0.1-2.5,1.6c-0.5,1.5-0.1,2.7,0.3,3.9c0,0.1,0,0.1,0.1,0.2
		c-1-0.2-1.9,0.3-2.2,1.2c-0.6,1.7-1.5,4,0.5,5.9c-0.2,0-0.3,0.1-0.4,0.1c-0.6,0.2-1.2,0.4-1.7,0.6c-2.9,1.3-6,2.3-9.1,3.1
		c-0.1,0-0.1,0-0.2,0.1c-0.1,0-0.2,0.1-0.2,0.1c0,0,0,0-0.1-0.1c0,0,0.1-0.1,0.1-0.2c0-0.1,0.1-0.1,0.1-0.2c0.1-0.3,0.2-0.5,0.3-0.8
		c0.3-0.7,0.6-1.3,0.7-2c0.2-1.3,0.8-2,2.1-2.4c2-0.6,3-2.3,3.9-3.7c0.5-0.8,0.5-1.7,0.1-2.5c-0.9-1.7-2-3.2-3.3-4.4
		c-1.4-1.4-3.2-1.5-4.8-1.5c-0.2,0-0.3,0-0.5,0c-2.6,0-4.7,1.7-5.3,4.3c-0.1,0.5-0.1,1-0.1,1.5c0,0.6,0,1.1-0.2,1.5
		c-0.6,1.3-0.3,2.3,0.1,3.3l0,0.1c0.1,0.2,0.2,0.5,0.3,0.7c0.3,0.6,0.5,1.1,0.5,1.8c0,0.5,0,0.9-0.2,1.1c-0.2,0.2-0.5,0.2-0.9,0.1
		c-1.8-0.4-3.3,0.3-4.2,1.9c-0.5,0.9-1,1.8-1.6,2.6c-0.7,1.1-1.5,2.3-2,3.5c-1.4,3-2.3,5.6-3,8.1L-6,53.4c-0.7,2.3-1.4,4.6-2,7
		c-0.2,0.7-0.4,1.4-0.6,2c-0.4,1.4-0.9,2.8-1,4.3c-0.1,1.5,0,3.3,2,4.6C-7.3,71.5-7.1,71.6-6.8,71.8z M16.8,27.6
		c0.7,1.4,0.7,2.3-0.1,3.1c-0.3,0.3-0.6,0.7-0.9,1c-0.8,1-1.6,2-3,2.3c-0.3,0.1-0.5,0.4-0.6,0.6c-0.1,0.4-0.3,0.8-0.5,1.3
		c-0.5,1.5-1.1,3-1.4,4.6c-0.1,0.4,0.1,0.9,0.4,1.3c0.5,0.5,1.1,0.8,1.6,0.5c1.2-0.7,2.6-1,3.9-1.3l0.8-0.2c1-0.3,1.9-0.6,2.9-1
		c0.8-0.3,1.5-0.6,2.3-0.8c1.7-0.5,3.6-1.2,5.1-2.9c1.4-1.5,3.4-1.7,5.5-1.9c0,0,0.1,0,0.1,0c0.1,0,0.2,0.1,0.3,0.1
		c0,0-0.1,0.1-0.1,0.2c0,0.1-0.2,0.4,0,0.6c0.2,0.3,0.5,0.3,0.7,0.3c0.1,0,0.2,0,0.2,0c0.5,0.2,0.8,0.4,0.8,0.6
		c0,0.2-0.1,0.4-0.4,0.8c-1,1.1-2.1,1.4-3.6,1.1c-1.9-0.4-3.6,0-5.2,1.1c-3.1,2.2-6.6,4.3-10.7,5c-1.1,0.2-2.5,0.6-3.4,2.2l-0.4,0.6
		l0.4-0.1c-0.1,0.2-0.1,0.5-0.1,0.6c0,1.1-0.1,2.2-0.2,3.3l-0.1,1.3c-0.1,1.6-0.3,3.1-0.6,4.6c-0.2,1.5-0.5,3.1-0.6,4.7
		c-0.1,2-0.1,4.1,0,6.1c0,0.5,0,1.1,0,1.6c0,2.4-0.7,3.5-2.7,3.8C7,72.8,6.6,72.9,6.2,73c-0.2,0-0.3,0.1-0.5,0.1
		c-0.6,0.2-1,0.4-1.1,1.2c-0.7,3.4-0.8,6.9-1,10.3l0,0.8c-0.2,3.5,1,6,3.7,7.6c0.7,0.4,1.5,1,2.1,1.7c-0.5,0.1-1,0.1-1.5,0.1
		c-1.5,0-2.9-0.3-4.3-0.6C3,94.2,2.3,94.1,1.7,94c-0.4-0.1-0.5-0.3-0.6-0.8c-0.3-1.4-0.1-2.9,0-4.3c0.1-0.8,0.2-1.7,0.1-2.5
		c0-0.9,0-1.8,0.1-2.7c0.1-2.9,0.3-6-1.2-8.9c-0.7-1.4-1.4-2.1-2.6-2.4c-0.2-0.1-0.4-0.1-0.6-0.2c-0.4-0.1-0.8-0.2-1.2-0.4l-0.2-0.1
		c-1.3-0.6-2.7-1.3-2.8-2.8c-0.1-1.9,0-4.1,1.1-6.2c0.8-1.7,1.3-3.5,1.5-4.9c0.4-2.3,0.9-4.2,1.6-5.8l0.7-1.7c0.5-1.3,1-2.7,1.6-4
		l0.2-0.5c0.6-1.5,1.2-3,2.1-4.3c1-1.6,2.1-3.3,4.5-2.9c0.3,0,0.7,0,1-0.2c0.4-0.3,1.6-1,1-2.4c-0.3-0.7-0.7-1.4-1-2.2
		c-0.3-0.6-0.5-1.1-0.8-1.7c0,0,0-0.1-0.1-0.1c0-0.1-0.1-0.1-0.1-0.2l0,0c0.2,0,0.4,0,0.6-0.2c0.2-0.2,0.1-0.4,0.1-0.6
		c-0.1-0.9,0.1-1.7,0.4-2.6c0.1-0.2,0.1-0.4,0.2-0.6c0.4-1.7,1.5-2.9,3.2-3.5c1.8-0.6,3.2-0.3,4.6,1.2
		C15.7,26.1,16.3,26.8,16.8,27.6z M33.4,34.5L33.4,34.5L33.4,34.5L33.4,34.5z M34.6,34.3l-0.2-0.1c-0.2-0.1-0.4-0.2-0.6-0.2
		c0.1-0.2,0.1-0.4,0-0.6c-0.2-0.4-0.7-0.6-1.1-0.5c-0.5,0.1-1.1,0.2-1.6,0.3c-1.8,0.2-3.7,0.5-5,2.3c-0.4,0.5-1.1,0.7-1.6,0.5
		c-0.5-0.2-0.7-0.7-0.5-1.6c0.1-0.7,0.2-1.3,0.4-1.8c0.1-0.5,0.5-1.4,1.3-1.5c0.6-0.1,1,0.3,1.5,1.1c0.1,0.2,0.2,0.3,0.4,0.5
		l0.1,0.1c0,0,0.1,0.1,0.1,0.2c0.2,0.2,0.4,0.5,0.8,0.5c0.2,0,0.3-0.1,0.5-0.2c0.2-0.2,0.3-0.4,0.3-0.5c0-0.4-0.2-0.6-0.4-0.9
		l-0.1-0.1c-0.2-0.2-0.3-0.4-0.5-0.5c-0.6-0.7-1.2-1.3-1.6-2.1c-0.5-1.2-0.5-2.2,0.2-3c0.4-0.6,1.1-0.7,2.1-0.4
		c1.3,0.4,1.9,1.1,2,2.2c0,0.5,0.2,0.9,0.4,1.3c0.1,0.2,0.4,0.6,0.8,0.6l0.1,0c0.2,0,0.4-0.2,0.4-0.3c0.2-0.2,0.1-0.6,0.1-0.7
		c-0.1-0.5,0.2-0.9,0.5-1.4l0.1-0.1c0.3-0.5,0.7-0.6,1.1-0.3c0.5,0.3,0.7,0.5,0.5,1.1c-0.2,0.6-0.1,1.1,0.1,1.3
		c0.2,0.2,0.6,0.4,1.4,0.1c0.1,0,0.2-0.1,0.3-0.1c0.1,0,0.3,0.1,0.5,0.6c0.2,0.4,0.2,0.4-0.2,0.6L37,30.5c-0.8,0.5-1.4,0.9-1.5,1.5
		c0,0.4,0.3,0.9,1.1,1.6c0.6,0.5,1,0.8,1,1c0,0.2-0.5,0.6-1.1,1l-0.1,0C35.9,35.1,35.3,34.6,34.6,34.3z"/>
	<path d="M221.5,97.4c-0.3-1.7-1.3-2.9-2.9-3.4c-2.8-1-3.1-1.5-3-4.5c0.1-2.7,0.4-5.3,1-7.9c0-0.2,0-0.4,0-0.6c0-0.1,0-0.3,0-0.4
		c0-0.2,0.1-0.7-0.2-1.3c-1-2-3.5-3.5-6-3.5c-0.7,0-1.3,0.1-1.9,0.3c-2.6,0.9-4.2,3.8-3.5,6.3c0.9,3.2,2.4,5.5,4.6,7
		c0.6,0.4,0.7,0.6,0.4,1.2c-0.9,2.2-1.7,4.3-2,6.7c-0.1,1.1-0.3,2.3-1,3.3c-1.6,2.4-4,3.8-7,4.2c-4.1,0.5-7.6,0.7-10.8,0.4
		c0,0-0.1,0-0.1,0c-0.1,0-0.2,0-0.3,0c-0.3,0-0.4,0.1-0.5,0.3c-0.1,0.2-0.3,0.3-0.4,0.4c-0.4,0.4-0.9,0.9-0.6,1.8
		c0.1,0.2,0.1,0.5,0.2,0.7c0.3,1,0.6,2.1,2.1,2.3c1,0.1,1.9,0.1,2.6-0.1c3.6-0.9,7.3-1.1,11-0.7c1.3,0.2,2.6,0.1,4-0.3
		c0.5-0.1,1-0.2,1-0.2c0.1,0.1,0.1,0.7,0.1,1.1c0,1.2-0.3,2.5-0.5,3.7c-0.2,0.9-0.4,1.8-0.4,2.7c-0.5,4.9-1.8,9.5-3.8,13.7
		c-0.7,1.4-1.1,2.8-1.3,4.2c-0.3,2.7,0.2,5.4,0.7,8c0.1,0.7,0.3,1.4,0.4,2.1c0.1,0.7,0.3,1.4,0.5,2c0.4,1.4,0.7,2.6,0.6,4
		c-0.1,1.7-0.9,2.8-2.3,3.3c-1,0.4-1.8,0.8-2.8,1.5l-0.1,0.1c-0.5,0.4-1.2,0.9-1,1.7c0.2,0.7,1.1,0.8,1.7,0.8l0.1,0
		c0.9,0,1.8,0,2.8,0.1c1.7,0,3.5,0,5.2,0.2c0.1,0,0.3,0,0.4,0c1.3,0,1.9-0.9,2.3-1.8c1-2.4,0.9-4.8,0.7-7.2
		c-0.1-1.1-0.1-2.2-0.1-3.2c0-1,0-1.9,0-2.9c0-1.6-0.1-3.3,0.2-4.8c0.6-3.5,1.2-6.7,2.4-9.7c1-2.4,2.2-5.2,4.5-7.2
		c1.9-1.7,3.2-4,3.4-6.1c0.4-3.8,0.8-8.3,0.2-12.7C222.1,101,221.9,99.2,221.5,97.4z M200.9,157.4L200.9,157.4L200.9,157.4
		C200.9,157.4,200.9,157.4,200.9,157.4z M207.8,157.5c-1.7-0.4-3.4-0.4-5.1-0.4c-0.6,0-1.1,0-1.7,0l-0.1,0l-0.3,0
		c-0.2,0-0.3,0-0.3-0.1c0,0,0.1-0.1,0.2-0.1c0.1-0.1,0.2-0.1,0.3-0.2c0.4-0.5,0.9-0.7,1.5-0.9l0.3-0.1c3.8-1.6,4.8-3.9,3.6-7.8
		c-0.9-2.7-1.3-5.6-1.7-8.3l-0.2-1.4c-0.3-2.3,0.2-4.7,1.5-7.2c2-3.9,3.2-8.4,3.5-13.7c0.1-1.5,0.4-3.1,0.6-4.6l0.2-1
		c0.1-0.5,0-0.9,0-1.3l0-0.2c-0.1-1-0.3-2.1-1.4-2.1c-0.3,0-0.8,0.1-1.3,0.3c-0.8,0.3-1.8,0.4-2.8,0.4c-0.7,0-1.4-0.1-2.4-0.2
		c-3.2-0.4-6.6-0.2-10.5,0.9c-1.5,0.4-2.2,0-2.4-1.3c-0.1-0.5,0-0.8,0.1-1c0.2-0.2,0.5-0.3,1.1-0.3c0.5,0,1.1,0,1.6,0
		c0.6,0,1.1,0,1.7,0c2.9,0,6.3-0.1,9.6-1.4c2.2-0.9,3.9-2.2,5.3-3.9c0.8-1,0.9-2.2,1.1-3.4c0-0.4,0.1-0.8,0.2-1.1l0.1-0.3
		c0.1-0.5,0.2-1.1,0.5-1.5c0.4-0.8,0.7-1.6,0.9-2.4c0.2-0.7,0.3-1.3,0.6-2c0.4-0.8-0.3-1.4-0.8-1.9c-0.1-0.1-0.2-0.2-0.2-0.2
		c-2-2.1-3.3-4.2-4-6.5c-0.3-1-0.1-2.3,0.7-3.3c0.8-1,1.9-1.7,3-1.7c1.6,0,3.4,0.3,4.6,2c0.5,0.8,0.7,1.5,0.3,2.6
		c-0.5,1.3-0.7,2.8-0.8,4.2c-0.1,0.5-0.1,1-0.2,1.5l0,0.2c-0.1,0.9-0.3,1.8-0.3,2.8c0,1.9,0.8,3.2,2.5,3.9c0.2,0.1,0.3,0.1,0.5,0.2
		c0.2,0.1,0.5,0.3,0.8,0.3c1.4,0.4,2.1,1.2,2.3,2.7l0.2,1c0.5,2.9,0.9,5.6,1,8c0,0.7,0,1.4,0,2.1c0,2.5-0.1,4.9-0.7,7.2
		c-0.6,2.2-1.5,3.7-3,5c-2.3,2-3.9,4.7-5.2,8.6c-1.2,3.8-1.9,6.9-2.1,9.8c-0.3,4.4-0.3,8.1,0.2,11.5c0.3,2.1-0.3,3.9-1,5.8
		C209.2,157.4,208.5,157.7,207.8,157.5z"/>
	<path d="M39,85.7l0.4,0c0.3,0,0.5,0,0.8,0c0.5,0,0.9,0.1,1.3,0.2c0.5,0.2,1.1,0.4,1.8,0.4c0.4,0,0.8,0,1.1-0.1
		c0.3,0,0.6-0.1,0.9-0.1l0.1,0c0.4,0,0.9,0,1.3,0c1.4,0,2.8,0.1,4.1,1.2c2.8,2.3,4.9,5.3,6.8,8.1c0.7,1,1.6,1.7,2.5,2.3
		c0.5,0.4,1,0.7,1.4,1.2c0.2,0.2,0.7,0.2,1.1,0.2c2.1-0.2,3.4-1.5,4.8-2.8c0.4-0.4,0.8-0.8,1.3-1.2l0.4-0.3l-0.5-0.2
		c-1.2-0.4-2.4-0.1-3.6,1.1c-1.2,1.2-1.9,1.6-2.5,1.6c0,0,0,0,0,0c-0.6,0-1.2-0.4-2.4-1.6L60,95.6c-0.1-0.1-0.2-0.2-0.3-0.3
		c-2.3-3.2-4.8-6.2-7.6-8.9c-0.1-0.1-0.3-0.3-0.4-0.4c-1-1-2-2-3.7-2c-0.3,0-0.5,0-0.8,0.1c-1.1,0.2-2.3,0.3-3.4,0.2
		c-2.9-0.3-5.4-0.5-7.9-0.9l-0.7-0.1c-2.1-0.3-4.3-0.7-6-2.1C26,78.5,24,75.5,23.1,72c-1.4-5.4-0.8-10.8-0.2-15.9l0-0.4
		c0.2-1.4,0.3-2.8,1.6-3.6c0.5-0.3,1-0.6,1.5-0.9c0.4-0.2,0.8-0.5,1.2-0.7c0.8-0.5,1.5-1.3,0.7-2.6c-0.6-1-1.2-2.1-0.9-3.4
		c0.1-0.5-0.1-0.8-0.6-0.9c-0.7-0.2-0.9,0.4-0.9,0.8c-0.1,0.4,0,0.8,0.2,1.2c0.1,0.3,0.2,0.5,0.1,0.7c0,0.5,0.2,0.9,0.4,1.3
		c0.3,0.6,0.4,0.8,0.1,1.1c-0.4,0.5-1,0.8-1.6,1.1c-0.3,0.2-0.5,0.3-0.8,0.5c0,0-0.1,0-0.1,0c-0.1,0-0.1,0-0.2,0.1
		c-1.6,1-2.5,2.5-2.7,4.4c-0.1,0.6-0.1,1.2-0.2,1.8c-0.2,2-0.5,4-0.5,6.1c-0.1,2.4,0.2,4.7,0.5,7.2c0.4,3.1,1.9,5.8,3.7,8.6
		c1.6,2.6,3.3,4.3,5.2,5.2c0.7,0.3,1.3,0.6,2,0.9l0.1,0.3c0.4,1.9,0.4,3.7,0.1,5.7c-0.1,0.8-0.4,1.5-0.8,2.5
		c-0.3,0.6-0.7,0.6-1.4,0.7c-0.3,0-0.5,0-0.8,0.1c-1.7,0.4-3.5,0.7-5.6,0.7H23c-0.5,0-1,0-1.4-0.1c-0.5,0-1-0.1-1.5-0.1
		c-1.2,0-2.1,0.2-3,0.7c-0.1,0-0.2,0.1-0.3,0.1c-0.5,0.2-1.1,0.5-1.1,1.3c0,0.9,0.7,1.3,1.3,1.5l0.2,0.1c0.2,0.1,0.5,0.1,0.7,0.1
		c0.2,0,0.3,0,0.4,0.1c0.5,0.2,1.1,0,1.5-0.2c0.2-0.1,0.5-0.2,0.7-0.2c0.5,0,0.9,0,1.4,0c0.4,0,0.7,0,1.1,0c0.9,0,1.6-0.1,2.3-0.5
		c0.2-0.1,0.5-0.1,0.7-0.1c0.1,0,0.1,0,0.1,0c0.6,0.8,1.4,0.7,2.1,0.7c0.1,0,0.2,0,0.4,0l0.4,0c1.3,0,2.4,0.1,3.7,0.4
		c1.8,0.4,3.3,0.5,4.8,0.3c1.6-0.2,3.6-0.1,5.4,0c0.4,0,0.8,0.1,1.2,0.1c0.7,0,1.5,0.2,2.2,0.3c0.9,0.2,1.9,0.3,2.9,0.3
		c0.6,0,1.2-0.1,1.8-0.2c0.3-0.1,0.6-0.2,0.8-0.4c0.1-0.2,0.1-0.5-0.1-0.9c-0.3-1-1.1-1.1-1.7-1.2c-0.3,0-0.6-0.1-0.8-0.2
		c-1.9-1.2-4.1-2.1-6.1-2.9c-0.7-0.3-1.4-0.5-2-0.8c-2.6-1.1-3.3-2.5-2.5-5.1c0.1-0.3,0-0.6,0-0.8c0-0.3-0.1-0.6,0-0.7
		C38.6,85.7,38.9,85.7,39,85.7z M49.1,97.5C49.2,97.5,49.2,97.5,49.1,97.5C49.2,97.5,49.2,97.6,49.1,97.5c-0.1,0.4-0.6,0.5-0.9,0.4
		c-1.6-0.5-3.2-0.6-4.8-0.7c-0.9-0.1-1.8-0.1-2.7-0.2c-1.2-0.2-2.5-0.2-3.8-0.3c-1.7-0.1-3.5-0.1-5.2-0.5c-1-0.2-2.1-0.3-3.1-0.3
		c-0.3,0-0.6,0-0.8,0c0.1,0,0.2,0,0.3-0.1c0.2,0,0.4-0.1,0.7-0.1c1.6-0.3,3.3-0.6,4.1-2.8c0.4-1.1,0.8-2.6,0.9-4c0-0.1,0-0.3,0-0.4
		c0-1.2,0.1-2.6-1.3-3.8c1.1,0.3,2.2,0.5,3.2,0.6c0.6,0,0.8,0.2,0.9,0.3c0.1,0.1,0.1,0.3-0.2,0.9c-0.1,0.2-0.2,0.5-0.3,0.8
		c-0.3,1.3-0.1,2.9,0.7,4.3c0.6,1.1,1.4,1.8,2.4,2c1.1,0.3,2.2,0.8,3.2,1.3c0.8,0.4,1.6,0.8,2.4,1.1c0.4,0.1,0.7,0.2,1.1,0.4
		c0.9,0.3,1.8,0.5,2.5,1.1c0.1,0.1,0.3,0.1,0.5,0.1L49.1,97.5z"/>
	<path d="M144.2,168c-1.2-0.2-1.5,0.8-1.7,1.4c0,0.1-0.1,0.3-0.1,0.4c-0.6,1.5-1.1,2.7-1.7,3.9c-1,1.9-1.6,2.4-3.1,2.4
		c-0.3,0-0.6,0-1-0.1c-1.8-0.2-3.6-0.5-5.4-0.8c-1.5-0.3-3.1-0.5-4.7-0.7c-1.7-0.2-3.5-0.3-5.5-0.3c-1.6,0-3.4,0.1-5.6,0.2
		c-0.2,0-0.4,0-0.6,0l-0.8,0c-0.6,0-1.2,0-1.9,0.2c-0.8,0.2-2.4-0.6-2.9-1.5c-1.1-2-2.2-3.3-3.6-4.2l-0.2-0.2
		c0.3-0.3,0.6-0.6,0.9-0.8c0.6-0.5,1.1-1.1,1.7-1.5c0.6-0.4,0.8-1.2,1-1.8c0.5-2.2,0.7-4.5,1-6.7l0-0.2c0.2-1.8,0.4-3.8-1.2-5.5
		c-2.6-2.7-5.7-4-9.4-3.8c-0.9,0-1.5-0.1-1.8-0.5c-0.3-0.3-0.3-0.8-0.2-1.5c0.1-0.4,0.3-0.9,0.5-1.3c0.1-0.3,0.3-0.6,0.4-0.9
		c0.5-1.5,1-3.1,0.1-4.8c-0.8-1.7-2.3-2.1-3.8-2.4c-0.3,0-0.6-0.1-0.9-0.2c-0.6-0.1-1.2-0.3-1.8-0.3c-0.7,0-1.4,0.2-2,0.5
		c-1.9,1.1-2.9,2.7-3.8,4.3c-0.8,1.3-1.5,2.9-1,4.7c0.1,0.4-0.1,0.5-0.5,0.7c-0.1,0-0.1,0.1-0.2,0.1c-0.3,0.2-0.6,0.3-0.9,0.4
		c-0.8,0.4-1.6,0.7-2.2,1.3c-1.3,1.2-2,2.4-2.5,3.8l-0.1,0.5c-0.3,1-0.6,2.1-1,3c-0.2,0.6-0.5,1.1-0.8,1.6c-0.6,1.2-1.2,2.5-1.6,3.8
		c-0.8,2.6-1.2,5.2-1.6,7.8c-0.1,0.9-0.3,1.8-0.4,2.7c-0.1,0.9,0.5,1.3,0.9,1.6c0.1,0.1,0.3,0.1,0.4,0.2c-2.1,0.2-4.2,0.3-6.4,0.3
		c-0.2,0-0.4,0-0.7,0c-0.2,0-0.5,0-0.7,0c-0.6,0-0.9-0.1-1.1-0.4c-0.4-0.5-0.8-1-1.2-1.5c-0.6-0.6-1.1-1.2-1.5-1.9
		c-0.5-0.8-0.6-1.8-0.3-2.6c0.4-0.9,1.2-1.6,2.2-1.9c0.3-0.1,0.6-0.1,0.9-0.1c2.2,0,5.1,1.6,5.6,3.8c0.1,0.3,0.2,0.7,0.4,1.1
		c0.2,0.4,0.4,0.9,0.9,0.9c0.1,0,0.2,0,0.3-0.1c0.5-0.2,0.4-0.7,0.4-1c0-0.1,0-0.2,0-0.3c0-0.2-0.1-0.4-0.1-0.6l-0.1-0.2
		c-1.1-3.5-4.1-5.6-8.2-5.6l-0.1,0c-1.9,0-3.2,1-3.8,2.8c-0.6,1.8-0.3,3.4,0.8,4.6l0.3,0.3c0.6,0.7,1.3,1.3,1.8,2.2
		c-0.2,0-0.5,0-0.7,0h0c-1.6,0-3.1-0.3-4.6-0.6c-0.7-0.1-1.5-0.3-2.3-0.4c-0.5-0.1-1-0.2-1.4-0.3c-1.1-0.3-2.3-0.5-3.3-0.3
		c-0.1,0-0.2,0-0.3,0c-0.5,0.1-1.1,0.1-1.4,0.9c-0.3,0.7-0.1,1.5,0.6,2l0.5,0.4c1,0.9,2,1.7,3.3,2.1c0.9,0.3,1.9,0.5,2.8,0.8
		c3.2,0.9,6.5,1.9,10,2.2c0.9,0.1,2.1,0.2,3.3,0.2c2.1,0,3.9-0.3,5.5-1c2.1-0.9,4.3-1.7,6.6-1.8l0.1,0c0.4,0,0.9,0,1.2-0.4
		c0.2-0.2,0.2-0.5,0.2-0.8c-0.2-0.9-0.9-1.4-1.9-1c-1,0.3-1.9,0.6-2.9,0.9c-1.1,0.3-2.2,0.7-3.3,1c-2.5,0.8-5.2,1.6-7.9,1.4
		c-3.4-0.3-6.7-1.1-10-2c-1.1-0.3-2.1-0.5-3.2-0.8c-0.9-0.2-1.7-0.6-2.4-1.2c-0.1-0.1-0.2-0.2-0.4-0.3c-0.4-0.3-0.6-0.4-0.5-0.8
		c0.1-0.3,0.2-0.4,0.7-0.4l0.4,0c0.1,0,0.2,0,0.3,0c0.2,0,0.4,0,0.6,0.1c5,1,9.6,1.8,14.4,1.9c3.4,0,6.8-0.3,9.9-0.6
		c1.1-0.1,2-0.6,2.9-1.1c1.1-0.6,2.1-1.1,3.3-1.1c0.2,0,0.4,0,0.6,0l1,0.1l-0.7-0.7c-0.9-0.8-2.1-1.3-3.2-1.3c-0.9,0-1.8,0.3-2.3,1
		c-1,1.2-2.3,1.4-3.6,1.5c0.1-0.1,0.2-0.1,0.3-0.2c0.3-0.5,0.7-0.9,1-1.4c1-1.3,2-2.7,2.5-4.3c0.4-1.1,0.8-2,1.3-3.1
		c0.5-1.1,1.1-2.3,1.5-3.6c0,0.3,0,0.6-0.1,0.9c0,0.1,0,0.2-0.1,0.3c0,0.2-0.1,0.4-0.1,0.6c-0.2,1.3-0.5,2.7,0.1,3.9
		c0.3,0.6,0.3,0.9,0.2,0.9c-0.1,0.2-0.5,0.2-0.8,0.2c-0.1,0-0.2,0-0.3,0c-1.3,0.2-1.9,0.9-2.3,2.4l-0.1,0.5l0.5-0.2
		c0.7-0.2,1.3-0.4,1.9-0.7c1.3-0.5,2.5-0.9,3.7-1c1.5-0.1,3-0.1,4.4-0.1c1.7,0,3.5,0,5.2-0.1l0.1,0c0.2,0,0.2,0,0.2,0
		c0,0,0.1,0.1-0.1,0.4c-0.5,1.6,0.1,2.8,0.8,4c0.1,0.2,0.3,0.5,0.4,0.7c0.3,0.5,0.8,0.8,1.4,0.8c0.3,0,0.6-0.1,0.9-0.2
		c0.3-0.1,0.5-0.3,0.7-0.5c0.2-0.1,0.4-0.2,0.5-0.3c0.7-0.4,1.3-1,1.8-1.6c0.6-0.6,1.1-1.2,1.8-1.6c0.9-0.5,1.6-1.1,2.3-1.7
		l-0.1,0.2c-0.3,0.4-0.3,0.8,0.1,1.1c1,0.9,1.7,2,2.4,3.2c0.2,0.3,0.4,0.6,0.5,0.9c1,1.5,2.6,2.2,4.7,2.1c5.3-0.3,9.4-0.2,13.3,0.2
		c1.6,0.2,3.2,0.4,4.8,0.7c2,0.3,4,0.7,6.1,0.8c2.8,0.2,4.9-1.2,5.7-3.9c0.4-1.3,0.9-2.6,1.4-3.8c0-0.1,0.2-0.4,0.5-0.4
		c0.1,0,0.4,0.1,0.5,0.5c0.3,1.2,0.3,2.5,0.1,4.1c-0.1,0.4-0.1,0.7-0.2,1.1c-0.2,0.9-0.3,1.8-0.4,2.7l0,0.1
		c-0.1,2.3-0.1,2.3-1.9,2.3l-0.6,0c-0.1,0-0.2,0-0.4,0c-0.1,0-0.2,0-0.3,0c-1.2,0-2.4-0.1-3.6-0.2c-1.9-0.1-3.9-0.2-5.8-0.2
		c-0.9,0-1.7,0-2.5,0.1c-1.9,0.1-4.1,0-6.1-0.2c-1.4-0.1-2.9-0.2-4.4-0.2h-0.1c-2.5,0-4.8,0.1-6.8,0.4c-1.4,0.2-2.7,0.4-4.1,0.7
		c-1.1,0.2-2.2,0.4-3.4,0.6c-4.1,0.6-8.5,0.3-13.6-0.9l-1-0.2c-2.3-0.5-4.7-1.1-7.1-1.2l-0.3,0c-0.7,0-1.4,0.1-2.2,1l-0.4,0.5l0.7,0
		c0.4,0,0.8,0,1.2,0c3,0,5.4,0.2,7.7,1.2c0.5,0.2,1,0.4,1.6,0.5c0.7,0.1,1.4,0.2,2.1,0.3c2.4,0.4,4.8,0.7,7.3,0.8c0.4,0,0.8,0,1.3,0
		c2.2,0,4.5-0.2,7.2-0.5c0.6-0.1,1.2-0.3,1.8-0.5c0.7-0.3,1.4-0.5,2.1-0.5c1.1,0.1,2.3,0,3.4-0.1c1.3-0.1,2.8-0.2,3.9,0
		c1.2,0.2,2.5,0.3,3.7,0.3l0.4,0c3.2,0.1,6.4,0.2,9.6,0.2l4.8,0.1c0.7,0,1.4,0,2.1,0.1c1.2,0,2.3,0.1,3.5,0.1c0.6,0,1.1-0.2,1.4-0.5
		c0.3-0.3,0.4-0.8,0.4-1.4c-0.1-1,0-2.1,0.3-3.4c0.2-1,0.3-2,0.4-3c0-0.3,0-0.5,0.1-0.8c0.1-1.2-0.2-2.5-0.4-3.4
		C146.5,169,145.6,168.2,144.2,168z M102.4,155.8c0.3,0.9,0.3,2.1-0.1,3.1C102.2,157.8,102.2,156.8,102.4,155.8z M96.2,170.1
		c0.7-1.6,1.9-2.6,3.2-3.8c0.7-0.6,1.4-1.2,2-1.9c2.1-2.4,3.8-4.7,3.1-8.2c-0.3-1.2-0.9-2.1-1.6-2.9c-0.2-0.2-0.4-0.3-0.7-0.3
		c-0.7,0-1.6,0.8-1.7,1.8c0,0.3-0.1,0.6-0.1,0.9c-0.2,1.6-0.3,3.2,0.3,4.9c0.2,0.5,0.1,1.1-0.2,1.5c-1.1,1.5-2.4,3.3-4.3,4.5
		c-0.3,0.2-0.7,0.3-1.1,0.3l-0.3,0c-1.4,0.2-2.9,0.3-4.6,0.3c-1.9,0-3.9-0.1-5.7-0.3c-0.4,0-0.7-0.1-0.8-0.2c-0.1-0.1-0.1-0.3,0-0.6
		c0.1-0.6,0.2-1.2,0.3-1.7c0.3-1.9,0.6-3.8,0.9-5.7c0.2-1-0.2-1.7-0.6-2.3l-0.1-0.2c-0.2-0.3-0.4-0.4-0.6-0.4
		c-0.1,0-0.4,0.1-0.6,0.5c-0.5,1-1,2-1.5,2.9c-1.2,2.1-2.3,4.3-3.2,6.7c-0.6,1.9-1.7,3.5-2.8,5c0,0.1-0.1,0.1-0.1,0.1
		c0.1-0.6,0.1-1.2,0.2-1.8c0.1-1.7,0.3-3.4,0.8-4.9c0.1-0.4,0.3-0.9,0.4-1.3c0.6-1.8,1.1-3.6,2.1-5.2c0.7-1.1,1-2.3,1.3-3.4
		c0.2-0.6,0.4-1.2,0.6-1.8c0.5-1.2,1.3-2.1,2.1-3c0.2-0.2,0.3-0.4,0.5-0.5c0.2-0.3,0.6-0.3,1.1-0.3c0.3,0,0.7,0,1-0.1
		c0.7-0.3,1.5-0.7,1.2-1.9c-0.3-1.3-0.1-2.5,0.9-4.2l0.1-0.2c0.9-1.6,1.8-3.1,3.5-3.9l0.1-0.1c0.2-0.1,0.3-0.2,0.4-0.2
		c0,0,0.1,0,0.2,0.2c0.3,0.6,0.7,0.7,1,0.7c0.3,0,0.6-0.2,0.9-0.3c1.2-0.6,2.1-0.5,2.9,0.2c0.7,0.7,0.9,2.3,0.3,3.5
		c-0.6,1.1-1,2.4-1.2,3.8c-0.4,2.2,0.2,3,2.4,3.4c0.6,0.1,1.3,0.2,1.9,0.3c1.2,0.1,2.4,0.3,3.5,0.7c1.2,0.4,2.2,0.9,3.1,1.5
		c1.3,0.9,1.9,2.1,1.9,3.8c-0.1,2.4-0.5,4.8-0.9,7.1c-0.2,1.3-1.1,2.2-2,3.1c-2,1.8-4.2,3.6-7.1,6c-0.1,0.1-0.2,0.2-0.3,0.2
		c-0.3,0.2-0.6,0.5-0.8,0.5c0,0-0.2,0-0.3-0.2C96.3,172,95.7,171.2,96.2,170.1z"/>
	<path d="M54,6.7l0.2-0.1l-0.1-0.2C54,6.2,53.9,6.1,53.8,6c0.4-0.3,0.7-0.8,0.8-1.4c0.2-1.1-0.2-2.3-0.8-3.2l-0.4-0.6l-0.1,0.7
		c-0.1,0.7,0,1.4,0.1,2.1c0.1,0.7,0.2,1.4,0,2.2l0,0c-0.1,0-0.1-0.1-0.1-0.1c-0.2-1-0.9-1.8-1.5-2.6c-0.2-0.2-0.3-0.4-0.5-0.6
		c-0.8-1.1-1.4-2.3-1.8-3.5l0-0.1c-0.2-0.5-0.4-1.1-0.1-1.4c0.3-0.2,0.6,0,1,0.2c0.2,0.1,0.3,0.2,0.4,0.3C50.8-2,51-1.9,51.1-1.9
		c0.6,0.3,1.2,0.6,2,0.4c4.5-1.4,8.5-1.2,12.1,0.6c0.2,0.1,0.2,0.2,0.2,0.3c0,0-0.1,0-0.1,0c0,0,0,0,0,0l-0.1,0
		c-0.4,0-0.8,0.1-1.2,0.2c-0.5,0.1-0.9,0.2-1.4,0.2c-0.7-0.1-1.4-0.2-2.3-0.2c-0.4,0-0.8,0-1.3,0l-0.7,0c-0.5,0-1,0.1-1.5,0.2
		c-0.6,0.1-1.1,0.3-1.7,0.2l-0.1,0c-0.3,0-0.6,0.2-0.8,0.4C54,0.7,53.9,1,53.9,1.2c0,0.4,0.2,0.6,0.6,0.6c0.1,0,0.2,0,0.3,0
		c0.1,0,0.2,0,0.2,0c0.8,0.1,1.5,0,2.2-0.1c0.7-0.1,1.4-0.1,2.1-0.1l0.5,0c0.7,0.1,1.4,0.1,2.1,0.1c1.4,0,2.5-0.2,3.4-0.8
		c0.6-0.3,1.2-0.1,1.3,0.5c0.5,1.7,1.5,3.2,2.6,4.7c0.2,0.3,0.4,0.6,0.6,0.9c0.8,1.2,1.6,2.4,3.2,3c0.2,0.1,0.3,0.2,0.2,0.5
		c0,0.3,0.1,0.7,0.7,1c1.1,0.5,2.2,0.8,3.1,0.8c0.8,0,1.6-0.2,2.3-0.6c2.9-1.6,5.2-3.5,7.1-5.8c1-1.2,1.2-2.4,0.5-3.5
		c-0.2-0.3-0.4-0.6-0.6-1c-0.9-1.5-1.8-3.1-3.1-4.3C83-3,82.7-3.2,82.4-3.4c-0.4-0.2-0.7-0.4-1-0.7c1.6-0.7,1.9-1.7,1.8-2.5
		c-0.2-1.8-0.4-3.8-2.2-5.1l-0.1-0.1c-0.1,0-0.2-0.1-0.2-0.2c0.7-1,1.3-2.2,1.8-3.3c0.4-0.8,0.8-1.7,1.2-2.5c0.5-0.8,1-1.6,1.5-2.3
		c0.7-1.1,1.4-2.2,2.1-3.4l0.6-0.3c-0.1,0.1-0.1,0.1-0.2,0.2c-0.4,0.6-0.8,1.2-0.6,1.9c-0.5,0-0.9,0.3-1.1,0.9
		c-0.2,0.6-0.6,1.1-0.9,1.7c-0.7,1.2-1.3,2.4-1.5,3.9l-0.1,0.6l0.5-0.4c0.7-0.5,1.1-1,1.4-1.6c0.1-0.2,0.2-0.3,0.3-0.5
		c0.4-0.6,0.7-1.2,1-1.8c0.2-0.5,0.5-0.9,0.7-1.4l0,0.4l0.6-1.2l0.2-0.2l-0.1,0l0.8-1.7l-0.8,0.8c0.2-0.5,0.5-0.9,0.9-1.4
		c0.4-0.5,0.8-1,1-1.6l0.3-0.6l-0.2,0.1c0.4-0.7,0.5-1.5,0.6-2.3c0-0.2,0-0.4,0.1-0.6l0.1-0.9c0,0,0.1,0,0.1,0
		c0.5-0.2,1.2-0.5,1.1-1.6l0-0.4l-0.4,0.2c-1.7,0.7-3,1.7-4.1,3c-0.4,0.5-0.6,1.1-0.9,1.6c-0.2,0.4-0.3,0.8-0.5,1.1
		c-1.6,2.6-2.9,4.8-4.1,6.9c-0.4,0.8-0.8,1.5-1.1,2.3c-0.4,0.9-0.9,1.9-1.4,2.8c-0.1,0.2-0.2,0.3-0.3,0.4l0-0.1
		c0.1-1.5,0.5-2.8,0.8-4.1c0.2-0.8,0.4-1.5,0.6-2.2c0.6-3.2,2.4-5.9,4.1-8.6c0.3-0.4,0.5-0.9,0.8-1.3c0.3-0.5,0.6-1,0.9-1.5
		c1.1-2,2.2-3.9,4.4-4.9l0.8-0.4l-0.9-0.2c-0.2,0-0.5-0.1-0.7-0.1c-1.5,0-2.3,1-3.1,2c-0.2,0.2-0.3,0.4-0.5,0.6
		c-0.9,1.1-1.5,2.3-2.1,3.5c-0.3,0.7-0.7,1.4-1.1,2.1c-0.4,0.6-0.7,1.2-1.1,1.8c-0.3,0.5-0.6,1-0.9,1.5c-1.2,2-1.7,4.2-2.2,6.4
		c-0.2,0.9-0.4,1.8-0.6,2.6l0,0.2c-0.2,0.7-0.5,1.7,0.4,2.9l0.1,0.2c0,0,0,0,0,0c-0.1,0-0.3-0.1-0.5-0.2c-0.9-0.5-1.8-0.6-2.4-0.6
		c-0.4,0-0.7,0-1.1,0l-0.5,0c-0.4,0-0.7,0.2-0.9,0.4c-0.2,0.1-0.4,0.2-0.5,0.3l-0.1,0c-0.5,0.1-0.8,0.1-1,0.3c0-0.1,0-0.2,0-0.3
		l0-0.7l-0.5,0.4c-0.4,0.3-0.8,0.7-1.3,1c-1.2,0.9-2.4,1.7-3.2,2.9c-0.3,0.4-0.7,0.9-1.1,1.3c-1.1,1.2-2.3,2.4-2,4.4
		c-1.5-0.4-3-0.5-4.3-0.5c-0.5,0-0.9,0-1.4,0c-0.5,0-0.9,0-1.4,0c-0.8,0-1.4,0-1.9-0.1l-0.5,0l0.2,0.5c0.1,0.1,0.2,0.2,0.2,0.3
		c-0.4,0-0.7,0.1-1.1,0.2C53.4-3,52.8-2.9,52.5-3c-0.4-0.1-0.9-0.3-1.3-0.5c-0.6-0.3-1.3-0.6-2-0.7c-0.7-0.1-1.2,0-1.5,0.3
		c-0.2,0.2-0.3,0.6-0.3,1.1c0.3,3.5,1.9,6.5,5,9.5C52.9,7.2,53.5,7.2,54,6.7z M81.6-5.9c-0.3,0.6-0.8,1.1-1,1.1c0,0,0,0,0,0
		c-0.2-0.1-0.4-0.1-0.5-0.1c-0.5-0.1-1-0.2-1.5-0.8c-0.6-0.7-1.2-1.4-1.8-2.1c-0.6-0.7-1.2-1.4-1.9-2.1c-0.1-0.1-0.2-0.2-0.3-0.3
		c-0.6-0.7-1-1.1-0.8-1.6c0.1-0.3,0.6-0.4,1.3-0.4c0.3,0,0.5,0,0.7-0.1l0.2,0c2.7,0,5.2,1.9,5.9,4.5C81.9-7.1,81.9-6.4,81.6-5.9z
		 M90.5-28.5c-0.3,0.5-0.5,1-0.8,1.5c-0.5,1-0.9,1.9-1.4,2.7l-0.9,0.6c0.1-0.3,0.3-0.5,0.4-0.8c0.8-1.6,1.7-3,2.9-4.5c0,0,0,0,0.1,0
		L90.5-28.5z M72.3-11.3c1.8,3.8,4.5,6.7,8,8.5c3.1,1.6,4.4,4.3,5.3,6.7c0.2,0.5,0.1,0.8-0.2,1.2l-0.5,0.6c-1,1.1-2.1,2.3-3.3,3.3
		c-2.8,2.3-5.3,2.3-8,0c-1.5-1.3-2.6-2.8-3.5-4.4c-0.8-1.7-1.8-3.4-2.6-5c-0.4-0.8-0.9-1.7-1.3-2.5c-0.5-1-0.7-2,0.2-3.1
		c1.1-1.4,2.5-2.6,3.8-3.8l0.7-0.6c0.4-0.4,0.9-0.8,1.2-1.5C72.1-11.9,72.2-11.6,72.3-11.3z"/>
	<path d="M153.8-6.7c0.2-0.7,0.5-1.5,0.7-2.2c0.4-1.2,0.9-2.4,1-3.7c0.2-1.7,1.5-3,3.2-3.2c1.2-0.2,2.5-1,3.3-2
		c0.6-0.7,0.8-1.5,0.7-2.2c-0.3-1.7-0.6-3.3-0.9-5.1c-0.1-0.8-0.3-1.6-0.5-2.5l0-0.3l0.3,0.3l0.1-0.4c0.2-0.8,0.6-1.3,1.2-1.7
		c0.2-0.1,0.3-0.2,0.4-0.4l0.7-0.1c0.2,0,0.3,0,0.4-0.1c3.3-0.7,4.2,0,6.1,2.6c1.1,1.6,0.8,3.9-0.8,5.8c-0.7,0.8-1.6,1.3-2.6,1.8
		l-0.1,0.1c-1.1,0.6-1.3,1.6-1.4,2.5c0,0.1,0,0.3-0.1,0.4c-0.1,0.8,0.6,1.2,1.2,1.4c0.1,0.1,0.2,0.1,0.4,0.2l0.3,0.2l0.1-0.3
		c0.2-0.5,0-0.8-0.1-1.1c-0.1-0.2-0.2-0.4-0.2-0.6c0.1-1.1,0.8-1.5,1.6-2c0.2-0.1,0.4-0.2,0.5-0.3c1.9-1.3,4.3-3.4,3.5-7.2
		c-0.3-1.4-1.2-2.4-2.1-3.3c-0.1-0.1-0.3-0.3-0.4-0.4c-0.8-0.8-2-1.3-3.4-1.3c-1.3,0-2.6,0.4-3.5,1.2c-0.1-0.2-0.3-0.4-0.5-0.4
		l-0.1,0c-0.9,0.3-1.6,0.9-2,1.6c-0.4,0.7,0.1,1.1,0.5,1.3c0,0,0,0,0,0l-0.2,0.3c-0.7,1-0.6,1.9-0.5,2.7c0,0.2,0,0.3,0,0.5
		c0,0.7,0.3,1.4,0.5,2.1c0.3,0.9,0.5,1.7,0.4,2.6c-0.2,1.5-1.3,2.6-2.7,2.6c0,0,0,0,0,0l-0.1,0c-0.9,0-2.2,0.1-2.8,1.2
		c-1.3,2.3-2.3,4.8-3.2,7.6c-0.1,0.3-0.1,0.6,0,0.8c0,0.3,0.1,0.5,0,0.7c-0.5,1.2-0.6,2.5-0.7,3.8c0,0.5-0.1,0.9-0.1,1.4l-0.3,2.4
		l0.9-2.2C152.7-3.2,153.3-4.9,153.8-6.7z"/>
	<path d="M25.3,12.4l0.1-2c0-0.2,0-0.5,0-0.7c0-3.1,1.2-5.5,3.7-6.9C32,1,35.2-0.7,38.9-1.7c0.6-0.2,1.5-0.4,2.1-1.4l0.4-0.6
		l-0.7,0.2c-5,1.3-9.2,3.3-13,5.9c-2.9,2.1-4,5.1-2.9,8.5L25.3,12.4z"/>
	<path d="M27.8,10.7l-0.3,1.4l1.1-1.5c0.2-0.2,0.4-0.5,0.6-0.7C32,5.9,35.4,3.7,39.6,3c0.1,0,0.3,0,0.4-0.1c0.8-0.1,1.8-0.3,2.5-1
		L43,1.4h-0.7C35.4,1.4,28.8,6.4,27.8,10.7z"/>
	<path d="M38.2,18.2l0,1.1l0.6-0.9c0.7-1.1,0.9-2.3,1.2-3.5c0.3-1.4,0.5-2.6,1.3-3.7c0.8-1,1.7-1.9,2.7-2.8c1-0.9,2-1.8,2.8-2.9
		l0.6-0.8L46.4,5C41.9,6.4,38.3,12.2,38.2,18.2z"/>
	<path d="M32.4,13.6l-0.3,2.9l0.9-2.8c1.7-5.3,6.1-7.7,10.8-9.9l1.9-0.9l-2,0.3C38.4,4,32.9,9,32.4,13.6z"/>
	<path d="M53.2,7.8l-1,0.4c-1.1,0.5-2,1.5-2.5,2.9c-0.8,2.5-0.3,5.7,1.3,8.5l1.3,2.2l-0.7-2.4c-1-3.4-1.6-7.1,1-10.7L53.2,7.8z"/>
	<path d="M48.6,7.7l0.8-0.7l-1.1,0.2c-2.1,0.3-3.8,3.1-4.5,5.4c-0.6,2-0.9,4.5,0.2,5.7l0.5,0.5l0-0.7C44.6,14.4,45.1,10.6,48.6,7.7z
		"/>
	<path d="M169.6-5.7c1.5-3.7,0.4-7.6-2.7-9.6l-1.1-0.7l0.7,1.1c1.8,2.8,3.3,5.6,2.6,9L169.6-5.7z"/>
	<path d="M182.9,122.2c-0.9-2.8-2.4-4.6-4.7-5.7c-0.8-0.4-1.6-0.7-2.4-1.1c-2.2-1-4.6-1.9-6.6-3.5c-0.3-0.2-0.6-0.3-0.9-0.3
		c-0.5,0-0.8,0.3-1.1,0.6c-1.7,1.6-2.3,3.4-2.1,5.7c0.3,2.7,1.4,4.6,3.4,5.7c3.6,2,7,4.2,10.5,6.5c0.2,0.2,0.5,0.3,0.7,0.3
		c0.3,0,0.6-0.2,0.8-0.4c1.8-1.7,2.7-3.7,2.6-6c0-0.2-0.1-0.4-0.1-0.5C183.1,123.1,183.1,122.6,182.9,122.2z M179.7,128.8
		c-2.8-1.8-6.5-4.2-10.4-6.4c-1.8-1.1-2.7-2.8-2.3-5l0,0l0,0c-0.3-1.7,0.1-2.8,1.2-3.6c0.1,0,0.1-0.1,0.2-0.2c0,0,0.1-0.1,0.1-0.1
		c0,0,0.1,0,0.1,0.1c1.7,1.3,3.6,2.1,5.5,2.9c0.9,0.4,1.8,0.8,2.7,1.2c3.9,1.9,5.5,5.4,4.5,9.6c-0.1,0.5-0.5,0.9-0.8,1.3l-0.2,0.2
		c-0.2,0.2-0.3,0.2-0.3,0.2C179.9,129,179.8,128.9,179.7,128.8z"/>
</g>
</svg>
