<?xml version="1.0" encoding="utf-8"?>
<!-- Generator: Adobe Illustrator 18.1.1, SVG Export Plug-In . SVG Version: 6.00 Build 0)  -->
<svg version="1.1" id="Ebene_1" xmlns="http://www.w3.org/2000/svg" xmlns:xlink="http://www.w3.org/1999/xlink" x="0px" y="0px"
	 width="250px" height="250px" viewBox="0 0 250 250" style="enable-background:new 0 0 250 250;" xml:space="preserve">
<g>
	<path d="M174.9,84.1c1.4,3.5,1,7,1,10.6c0,2.9-0.3,5.7-1,8.6c-0.2,0.8-0.5,1.4-0.7,2.2c-0.4,1.6,0.3,2.6,2,2.4
		c2.9-0.2,5.8-0.2,8.7,0.7c0.8,0.2,2.2,0.4,2.3-0.3c0.2-1-1.2-1.2-2-1.2c-1.7,0-3.1-0.9-4.7-1.2c-1.3-0.2-2.5-2.5-2.4-3.9
		c0.3-3.6,1-7.1,1.6-10.7c0.3-2,0.7-4,0.8-6.1c0-0.7,0.4-1.3,0.6-1.9c0.9-2.9,1.7-5.8,3.1-8.4c0.4-0.8,0.4-1.6,0.6-2.4
		c1.1-4,1.5-8.1,0.7-12.2c-0.1-0.5-0.3-0.7-0.7-1c-0.8-0.6-1.6-1.1-2.5-1.6c-2.7-1.5-3.2-2.4-2.6-5.6c0.5,0.6,0.4,1.3,0.5,1.9
		c0.2,1.3,0.9,2.2,2.1,2.9c2.8,1.6,5.5,3.3,8.3,4.8c2.3,1.2,4.6,2.5,7.1,3.4c1.6,0.6,3.2,0.4,4.8,0.8c0.4,0.1,0.7,0,1-0.3
		c0.3-0.4-0.2-0.6-0.3-0.9c-1.2-2.4-3.6-3-5.7-4.1c-2.5-1.3-5.3-1.9-7.4-3.8c-0.3-0.3-0.8-0.3-0.6-0.9c0.1-0.2,0.1-0.4,0.4-0.3
		c0.4,0.2,0.9,0.2,1.1,0.7c0.1,0.3-0.1,0.7,0.4,0.7c1.7,0,3,1.2,4.4,1.8c2.3,1,4.9,1.6,6.9,3.3c0.8,0.7,1.7,1.4,2.1,2.5
		c0.2,0.6,0.5,0.6,1,0.6c2.6-0.4,3.9,1.3,5.2,3.1c0.2,0.2,0.4,0.4,0.6,0.7c0.8-1.5,0.9-3.1,1.2-4.6c0.4-1.8,0.9-3.6,1.8-5.3
		c0.5-1,0.7-2.2,0.8-3.2c0.3-2.1,1.8-3.1,2.8-4.6c0.3-0.4,0.6-0.9,0.9-1.3c0.5-0.8,0.6-1.5,0.1-2.4c-1.2-2.3-0.8-4.9-0.5-7.3
		c0.3-2.1,3.2-3.5,5.5-3c1.9,0.4,3.6,1.2,4.7,3.1c1.6,2.7,1,5.9-1.4,7.8c-0.2,0.2-0.4,0.3-0.7,0.6c-0.3-0.4-0.3-0.6,0.1-1
		c3.4-3.5,1.6-8-2.2-9.6c-2.9-1.2-5,1.3-4.9,4.5c0.1,2.1-0.3,4.4,1,6.3c0.3,0.5-0.1,0.9-0.4,1.2c-0.9,1.1-1.8,2.2-2.7,3.2
		c-0.6,0.7-1,1.5-1.2,2.4c-0.9,4-2.4,7.8-3.2,11.9c-0.5,2.3-0.8,4.6-1,7c-0.1,1.9-0.2,3.9-0.3,5.8c-0.1,1,0.4,1.2,1.2,1.4
		c3.7,0.7,7.1,2,9.7,5c0.7,0.9,1.8,1.4,2.9,1.7c5.3,1.2,6.7,7.1,4.8,11.3c-0.6,1.2-1,2.4-1.5,3.6c-0.4,1.3,0.1,1.8,1.5,1.6
		c2.6-0.3,5.1,0,7.6,0.6c0.4,0.1,1,0.4,1.2-0.1c0.2-0.4-0.4-0.7-0.8-0.9c-1.3-0.6-2.7-1.1-4-1.6c-1-0.4-1.2-0.8-0.8-1.9
		c0.6-1.6,1.1-3.4,1.1-5.1c0.1-2.7,0.7-5.3,1.4-8c0.3-1.3,0.2-2.6-0.1-3.9c-0.2-0.9-1.3-1.1-2-1.2c-2.9-0.4-5.8-0.4-8.6-1.1
		c-0.5-0.1-1-0.2-1.7-0.3c1.6-1.1,1.3-2.8,1.4-4.2c0.1-4.7,1.1-9.2,1.4-13.9c0.3-3.8,0.3-7.6-2.2-11c-1.4-1.9-0.8-3.1,1.6-4
		c-0.1,0.6-0.4,1-0.7,1.4c-0.8,0.9-1.2,1.8,0,2.7c2.5,1.9,2.4,4.7,2.6,7.5c0.3,3.9-0.5,7.6-0.9,11.5c-0.2,1.7-0.4,3.5-0.3,5.3
		c0,0.4,0,0.8,0,1.2c0.1,1.1-0.8,2.5,0,3.1c1.1,0.8,2.6,0.9,4,0.9c1.7,0,3.4,0.2,5.1,0.6c0.8,0.2,1.2,0.6,1.5,1.4
		c0.4,1.6,0.4,3.1,0,4.7c-0.6,2.6-1.5,5.1-1.4,7.8c0.1,1.5-0.6,3-1.2,4.4c-0.3,0.6-0.3,1,0.4,1.3c1.3,0.4,2.5,1,3.8,1.3
		c1.2,0.3,1.4,1.2,1.8,2c0.2,0.5-0.5,0.8-0.9,1c-1.2,0.5-2.3,0.1-3.5-0.2c-2.2-0.6-4.4-0.6-6.6-0.3c-1.4,0.2-2.3-1-1.8-2.3
		c0.4-1.2,1-2.3,1.5-3.4c1.1-2.7,0.7-5.4-0.9-7.8c-0.6-0.9-1.1-1.9-2.4-2.1c0.4,2.1,1,4,1.4,6c0.9,4.6-2.3,10.8-6.7,12.9
		c-5.4,2.5-10.8,3.4-16.6,1.2c-3.3-1.3-5.7-3.3-7.8-5.9c-0.4-0.4-0.6-1.1-0.6-1.7c0-1.1-0.6-1.9-1.2-2.6c-0.1-0.2-0.3-0.3-0.2-0.6
		c0.6-2.3,1.1-4.7,1.7-7c0.6-2.3,2.2-3.9,3.7-5.6c0.7-0.7,1.3-1.4,1.8-2.4c0.7-1.6,2.4-2.3,4.1-2.7c1.2-0.3,2.4-0.6,3.6-0.4
		c1.2,0.2,1.4-0.5,1.3-1.3c-0.3-2.5,0.4-5,0.4-7.5c0-0.5,0.8-1.4-0.6-1.2c-0.1,0-0.3-0.3-0.3-0.7c0-1.4-1.9-4.1-3.2-4.5
		c-1-0.3-2.1-0.6-2.9,0.6c-0.3,0.4-1,0.6-1.6,0.5c-2.4-0.2-4.7-0.8-7-1.8c-2.8-1.2-5.4-2.9-8-4.4c-0.7-0.4-1.1-0.5-1,0.5
		c0.1,1.2,0.1,2.4,0.4,3.6c0.4,1.7-0.3,3.4-0.5,5.1c-0.6,4.3-2.6,8.2-3.6,12.3c-0.7,2.8-1.5,5.6-1.8,8.5c-0.2,3.4-1.1,6.7-1.4,10.1
		c-0.4,4.5,0.8,4.4,4.3,5.1c1.8,0.4,3.5,0.7,4.9,2c0.5,0.5,0.7,0.7-0.1,1.1c-1.5,0.7-2.9,0.2-4.4-0.1c-2.4-0.6-4.9-0.8-7.4-0.4
		c-2.4,0.4-4.3-1.7-3.5-4.1c1.4-4.1,1.8-8.3,1.9-12.6C175.2,89.4,174.9,86.8,174.9,84.1z M224.5,90.4c0-0.7-0.4-1.1-0.8-1.6
		c-2.3-3-5.9-4.1-9-5.8c-0.5-0.3-0.6,0-0.8,0.5c-0.8,3.1-1.4,6.2-1.9,9.3c-0.1,0.4-0.7,0.8-0.2,1.2c0.5,0.4,0.9-0.1,1.4-0.2
		c1.3-0.4,2.4-1.3,3.7-1.5c2.3-0.3,4.4-1.1,6.4-2.1C224,89.9,224.2,90.1,224.5,90.4c-0.1,0.3-0.4,0.6-0.7,0.7
		c-1.9,0.6-3.6,1.7-5.6,2c-2.3,0.3-4.2,2-6.6,2.1c-0.5,0-0.4,0.7-0.6,1c-0.1,0.2,0,0.4,0.3,0.5c3.1,0.7,5.5,3.1,8.5,4.1
		c1.5,0.5,2.7,1.6,4.2,2.2c1.5,0.6,1.5-0.1,1.9-1c1-2.6,0.9-5.3,0.2-7.8C225.9,92.9,225.9,91.3,224.5,90.4z M206.3,109.3
		c1.4,0.3,2.8,0.8,4.2,0.9c3.3,0.3,6.5-0.5,9.5-1.7c1.9-0.8,3.3-2.2,4.5-3.9c-0.5-0.2-1-0.1-1.3-0.5c-0.7-1-1.8-1.4-2.9-1.9
		c-2.5-1.2-5-2.5-7.4-3.9c-0.5-0.3-1.1-1.1-1.8-0.4c-0.7,0.7,0.7,0.6,0.5,1.2c0,0.1,0,0.2,0.1,0.3c1.1,1.6,1.4,3.6,2.8,5.1
		c0.9,1,1.2,2.3,1.9,3.4c0.3,0.6,0.1,1.1-0.4,1.4c-0.6,0.3-0.8-0.3-0.9-0.7c-0.5-1.7-1.6-3.1-2.4-4.7c-0.6-1.1-0.9-2.3-1.8-3.3
		c-0.4-0.4-0.7-0.7-0.9,0.1c-0.5,1.7-1.2,3.4-1.6,5.1C208,107.1,208.1,108.8,206.3,109.3c0.5-2,0.7-4.2,1.7-6c0.8-1.5,1.3-3,1.4-4.7
		c0-1.3-0.4-1.9-1.8-1.9c-0.9,0-1.7,0-2.5,0.2c-0.5,0.1-0.9-0.1-1-0.6c0.7-0.3,1.6-0.1,2.1-0.9c-1-0.7-2-1.3-3.1-1.7
		c-1.7-0.6-3.3-1.5-4.5-2.7c-0.9-0.9-0.9-0.4-1.2,0.2c-0.8,2-1.4,4.1-1.6,6.3c-0.1,1,0.2,1.3,1.1,0.9c1.4-0.5,2.9-1,4.3-1.5
		c0.9-0.3,1.8-0.4,2.6,0.5c-0.7,0.2-1.2,0.2-1.8,0.5c-1.5,0.6-3,1.2-4.5,1.6c-1.6,0.5-1.7,0.9-0.9,2.3
		C199,105.4,202.1,108.1,206.3,109.3z M212.6,84.1c0-0.6,0.3-1.4-0.7-1.5c-1.9-0.2-3.8-0.7-5.7,0c-1.1,0.4-1.1,0.7-0.7,1.6
		c1.4,3.1,3.2,6,3.5,9.5c0,0.4,0,1,0.7,1c0.6,0,1-0.4,1.1-1.1c0.3-1.6,0.6-3.2,0.9-4.8C212,87.3,212.5,85.7,212.6,84.1z M206.1,87.8
		c0.2-0.7-0.7-0.5-0.7-1.1c0-1-0.7-1.7-1.2-2.4c-0.2-0.3-0.4-0.5-0.8-0.2c-1.5,1.6-3.1,3.2-4.6,4.8c-0.3,0.3-0.4,0.7,0.3,0.9
		c1.2,0.3,2.1,1.2,3.2,1.8c1.6,1,3.2,2,4.8,2.9c0.3,0.2,0.7,0.4,1,0.1c0.4-0.3,0-0.7-0.1-1c-0.4-1.1-0.7-2.2-1.2-3.3
		C206.5,89.7,206.1,88.8,206.1,87.8z"/>
	<path d="M101.3,141.8c-3.1-1.6-4.8-4-4.8-7.5c0-1,0.4-1.9,0.8-2.7c0.7-1.2,0.9-2.7,1.7-4c0.5-0.8,1.1-1.6,1.8-2.1
		c1.4-1.1,2.4-2.8,4.5-2.7c0.5,0,1-0.2,1.4-0.6c0.4-0.4,0.9-0.6,1.5-0.5c1.2,0.3,2-0.5,2.9-1.1c0.5-0.4,0.5-1,0.2-1.6
		c-0.5-0.9-1.1-1.8-1.8-2.6c-1.1-1.3-1.9-2.9-2.1-4.4c-0.7-4.8,2.2-6.9,6.8-6.1c3.1,0.6,4.5,3,5.3,5.7c0.4,1.2-0.2,2.6-0.9,3.8
		c-0.7,1.2-1.6,2.4-1.9,3.9c-0.2,0.9,0.1,1.3,0.9,1.5c0.4,0.1,0.9,0.2,1.3,0.2c2.7,0,5.4,0.8,8.1,0.5c2.1-0.2,3.8-1.3,5.1-3
		c0.9-1.2,1-2.3,1.1-3.6c0-0.8-0.4-1-1.1-0.9c-2.3,0.4-4.7,0.4-7,0.3c-0.5,0-1.2,0.2-1.3-0.6c-0.1-0.8,0.5-0.7,1-1
		c2.3-1.1,4.9-0.7,7.1-1.8c0.7-0.3,0.9-0.6,0.7-1.3c-0.1-0.6-0.2-1.2-0.2-1.7c0.1-1.3-0.1-2.3-1.5-2.8c-0.3-0.1-0.7-0.5-0.8-0.9
		c-0.5-1.4-1.1-2.9-1.5-4.3c-0.2-0.9,0.1-1.6,1.3-1.7c4-0.5,4.3-0.3,4.8,3.7c0.2,1.5,0.2,2.8-1.2,3.7c-0.4,0.3-0.5,0.7-0.4,1.2
		c0.1,0.8,0.1,1.6,0.3,2.4c0.1,0.6-0.3,1.5,0.7,1.6c1,0.1,1.9-0.2,2.4-1.2c0.6-1.2,0.6-2.5,0.6-3.7c0-2,0.2-4.1-0.1-6.1
		c0-0.3,0-0.7,0.1-0.9c1.1-1.7,1.1-3.7,1.1-5.6c0-0.4,0.1-0.8,0.3-1.2c0.5-0.7,1.2-0.9,2-0.6c0.8,0.3,0.8,0.8,0.7,1.5
		c-0.1,0.6-0.2,1.2-0.2,1.7c-0.1,1.4,0.3,2.5,1.5,3.3c1.1,0.7,1.6,1.7,1.3,3.1c-0.5,2.4-0.6,4.9-1,7.4c-0.1,0.8,0,1.2,0.9,1.5
		c1.1,0.3,2.1,0.8,3.2,1.1c0.5,0.1,0.9,0.5,1.1,0.9c0.4,0.8,0.5,1.2-0.7,1.4c-2.6,0.4-5.1,0.9-7.7,0.8c-0.2,0-0.5,0-0.6,0.1
		c-0.2,0.2,0,0.4,0.2,0.6c0.9,0.6,0.8,1.4,0.6,2.2c-0.6,2.9-2,5.4-4.4,7.3c-2.3,1.8-4.7,3.4-6.4,5.8c-1.6,2.4-2.6,5-3,7.8
		c-0.6,3.4-1.1,6.8-1,10.2c0.1,2.7,0.5,5.5,0.7,8.2c0.4,5.6,1.1,11.2,0.6,16.9c-0.2,2.2-0.3,4.3-0.8,6.4c-0.2,1-0.4,2-1.6,2
		c-1.2,0-2.2-0.4-2.8-1.6c-0.6-1.3-0.8-2.8-0.7-4.2c0.1-2.8-0.7-5.5-1.2-8.2c-0.5-2.8-1.1-5.6-1.2-8.5c0-1.2-0.4-2.4-0.7-3.6
		c-0.1-0.4-0.3-0.6-0.6-0.7c-0.5-0.1-0.6,0.3-0.8,0.6c-0.5,0.9-0.2,2-0.2,2.9c0.1,4.2,0.1,8.4-0.1,12.6c-0.1,2.9-0.3,5.9-0.4,8.8
		c-0.1,1.8-0.4,3.5-0.8,5.2c-0.2,1-0.9,1.2-1.6,1c-2.5-0.7-4.5-1.7-4.8-4.8c-0.3-3.7-0.8-7.4-1-11.2c-0.2-2.9-0.6-5.8-0.8-8.8
		c-0.1-0.6-0.3-0.2-0.5-0.3c-1.2-0.2-2.4-0.1-3.6-0.6c-1.9-0.8-2.4-1.6-2.4-3.7c0-2,0.7-4,0.9-6c0.2-2.7,0.6-5.4,0.9-8.1
		C101.6,142.5,101.4,142.1,101.3,141.8c0.6-1,0.4-2.2,0.4-3.3c0-2,0.5-2.9,2.3-3.7c0.6-0.2,0.9-0.8,0.7-1.2
		c-0.8-1.6,0.5-2.2,1.3-3.1c0.4-0.5,0.8-0.4,1.2-0.1c0.5,0.4,0.1,0.7-0.2,1c-0.4,0.5-1,0.9-1.1,1.6c0.2,0,0.4,0,0.5,0
		c2-0.6,3.3,0,4.6,1.7c0.6,0.8,0.9,2.3,2.5,2.1c1.3-0.1,2.4,0.6,3.5,1.2c0.7,0.4,1,1.1,1,1.9c0,2.1-1,3.1-3.5,3.3
		c-1,0.1-1.3,0.4-1.1,1.3c0.8,3,0.8,6.1,0.8,9.2c0,0.5-0.1,1.2,0.6,1.7c0.1-1.5,1.2-1.4,2-1.6c0.6-0.1,1,0.3,1.1,0.8
		c0.4,1.1,0.9,2.2,1,3.4c0.3,3.2,0.8,6.3,1.5,9.5c0.6,3.2,1.2,6.5,1.4,9.8c0.1,0.9,0.2,1.8,0.7,2.6c0.2,0.4,0.4,1,1,0.9
		c0.5-0.1,0.5-0.6,0.6-1.1c0.7-3.6,1-7.3,0.9-11.1c-0.2-5.6-0.7-11.1-1.2-16.7c-0.2-2.3-0.4-4.7-0.2-7.1c0.2-2.3,0.5-4.6,0.9-6.9
		c0.6-3.8,2.2-7.3,4.8-10.1c1.4-1.6,3.1-3.1,4.9-4.3c2.5-1.6,3.9-3.9,4.5-6.8c0.4-2-0.2-2.8-2.1-2.7c-0.3,0-0.5,0-0.8,0
		c-0.7,0-1.5-0.3-2,0c-0.5,0.4,0.1,1.2,0.2,1.8c0.3,2.3-1.2,3.6-2.6,5c-1.3,1.4-3.1,2.1-5,2c-3-0.2-5.9-0.7-8.9-1.1
		c-0.9-0.1-1.7-0.5-2-1.4c-0.4-1.5,0.5-4.3,1.7-5.2c0.8-0.6,1.2-1.5,1.2-2.4c-0.1-2.6-2-4.9-4.5-5.8c-3.2-1.1-6.2,1-5.8,4.2
		c0.1,0.9,0.6,1.7,0.9,2.5c0.9,2,2.6,3.4,3.2,5.6c0.3,1.2,0.1,1.9-1,2.4c-1.8,0.7-3.6,1.6-5.4,2.1c-3.4,1.1-6.2,2.8-7.1,6.5
		c-0.1,0.5-0.4,1-0.6,1.5c-1.2,2.5-0.6,5.5,1.4,7.5C100.3,140.2,101,140.8,101.3,141.8z M112.9,152.4c0-5-1.1-9.8-1.7-14.7
		c-0.3-1.9-1.5-2.7-3.1-3.2c-2.1-0.7-5.3,1.6-5.4,4.1c-0.1,6.2-0.6,12.5-1.5,18.6c-0.3,1.9,0.5,2.7,2.3,2.8c1.6,0.1,3.2-0.2,4.8-0.4
		c3.4-0.3,4.7-2,4.5-5.4C112.9,153.6,112.9,153,112.9,152.4z M114.1,157.5c-0.6,1.6-1.2,2.7-2.7,2.9c-1.1,0.1-2.1,0.3-3.2,0.5
		c-0.7,0.1-0.8,0.3-0.5,0.9c0.3,0.9,0.5,1.8,0.6,2.8c0.4,4.7,0.7,9.5,1.1,14.2c0.2,2.1,0.2,4.2,2.1,5.8c1,0.9,1.5,0.8,1.9-0.5
		c0.3-1.2,0.6-2.5,0.6-3.7c-0.1-4.5,0.4-9,0.5-13.5c0-1.4-0.3-2.8,0-4C114.6,161.2,114.6,159.6,114.1,157.5z M139.6,92.3
		c-0.5,1.4-0.3,2.9-0.4,4.4c-0.1,0.6,0,1.1-0.6,1.5c-0.7,0.5-0.8,1.2-0.8,2.1c-0.1,2.8-0.1,5.6-0.3,8.4c-0.1,2.3-0.9,3-3.2,3.3
		c-1.9,0.2-3.8,0.5-5.6,0.8c-0.5,0.1-1,0.1-1.3,0.9c2.1-0.4,4.1-0.4,6.1-0.4c0.9,0,1.8-0.4,2.7-0.1c3.6,1.2,7.3,1.1,11.1-0.1
		c-0.8-0.3-1.4-0.6-2-0.9c-0.6-0.2-1.3-0.4-1.9-0.6c-1.5-0.7-2.5-2.3-2-3.9c0.7-2.3,0.5-4.6,1.1-6.9c0.2-0.6,0.3-1.6-0.6-2
		c-1.8-1-2.1-2.6-2-4.4C139.9,93.7,140,93,139.6,92.3z M133.9,102c-0.1-0.8,0.1-1.7-0.4-2.4c-0.3-0.4-3.5-0.5-3.8-0.1
		c-0.6,0.8,0.1,1.4,0.3,2.1c0.1,0.5,0.2,1.1,0.4,1.6c0.6,1.5,2,1.8,3.2,0.8C134.2,103.4,133.8,102.7,133.9,102z M113.8,138.3
		c-0.4,0.1-1.4-0.5-1.2,0.7c0.2,1,0.2,2,0.3,3c0,0.3,0,0.6,0.3,0.7c1.2,0.3,2.2-0.2,3.2-0.8c0.8-0.5,0.7-1.4,0.3-2.1
		C116.2,138.6,115.1,138.3,113.8,138.3z"/>
	<path d="M41.1,207.7c1.7,1,1.5,2.6,1.5,3.9c0.1,1.1,0.2,2.3,0,3.4c-0.4,3.4,0.2,6.8,0.2,10.2c0,2,0.3,4.2,0.7,6.3
		c0.5,2.7,1.1,5.4,1.2,8.1c0.1,1.8,0,3.6-0.2,5.4c-0.1,0.8-0.8,1.7-1.4,2.4c-0.7,0.7-1.4,1-2.4-0.1c-1.8-2.1-2.3-4.6-2.9-7.2
		c-0.8-3.6-0.3-7.3-0.9-10.9c-0.2-1.2-0.3-2.3-0.5-3.5c-0.1-0.8-0.3-1.5-1-2c-1.6,1.5-1.9,3.7-2.5,5.6c-1,2.9-2.1,5.8-2.6,8.8
		c-0.5,2.6-1.2,5.2-1.9,7.7c-0.3,1.1-0.7,2.2-1.3,3.2c-0.4,0.7-1,1.1-1.7,1c-0.8-0.1-1-0.9-0.9-1.6c0.2-4.4,0.4-8.9,0.5-13.3
		c0.1-3.7,0.8-7.4,0.9-11.2c0-1.2,0.5-2.4-0.1-3.7c-2.3,1.8-4.4,3.5-6.7,5.2c-1.9,1.4-3.7,2.9-6.1,3.5c-2.3,0.5-4.3-1.2-3.9-3.5
		c0.2-1.4,0.6-2.7,0.8-4.1c0.2-1.3,1.6-1.9,2.4-2.8c1.2-1.2,2.5-2.4,3.9-3.3c1.6-1.1,1.5-2.8,1.6-4.2c0.2-2.9,1.1-5.6,1.2-8.4
		c0-1.4,0.2-2.7,0.6-4c0.4-1.2,1.3-2.1,2-3.2c1.2-1.8,2.2-3.6,3.8-5c0.4-0.4,0.2-0.9,0.1-1.4c-0.3-1-0.9-1.8-1.5-2.6
		c-1.6-2.1-1.4-4,0.2-6.2c1.4-2,3.2-2.9,5.6-2.5c2.2,0.3,4.5,2.2,4.3,4.8c-0.1,1.3-0.6,2.5-1.1,3.8c-0.1,0.4-0.2,0.7,0.2,1
		c2.2,1.5,2.9,4,4.3,6c0.4,0.6,0.9,1.2,1.1,2c0.2,0.6,0.7,1.1,1.3,0.3c1.1-1.5,2.5-2.7,3.8-3.9c2.9-2.6,4.4-5.9,5.7-9.4
		c0.9-2.5,2.5-4.7,4.4-6.6c1.7-1.7,3.8-2.5,6.1-2.3c2.3,0.2,4.6,0.4,6.6,1.8c0.2,0.2,0.6,0.2,0.5,0.6c-0.1,0.3-0.3,0.4-0.6,0.5
		c-2.4,0.4-4.2,2.2-6.3,3.1c-0.6,0.2-0.5,0.6-0.4,1.1c0.4,2.9,1.5,5.6,2.4,8.3c0.1,0.4,0.4,0.7,0.9,0.7c2.6,0,4.8-2,5.3-4.6
		c0.2-1.3,0.6-2.5,0.8-3.8c-1.1,1.4-2.8,1.7-4.2,2.2c-0.9,0.3-1.9,0.3-2.6,1.1c-0.3,0.3-0.8,0.2-1.1-0.2c-0.3-0.6,0.2-0.6,0.6-0.8
		c0.6-0.2,1.1-0.4,1.7-0.5c2.1-0.5,3.9-1.8,5.8-2.7c0.5-0.2,0.9-0.3,1.3,0.1c0.5,0.4,0.3,0.8,0.2,1.2c-0.3,1.5-0.9,3-1.2,4.6
		c-0.6,3-2.9,3.9-5.6,4.1c-1.1,0.1-1.3,0.4-0.9,1.4c0.2,0.5,0.2,1.1,0.1,1.7c-0.1,1.1-0.5,1.9-1.9,1.8c-4-0.4-7.1,1.7-10.1,4.1
		c-0.2,0.2-0.5,0.4-0.8,0.5c-0.4,0.1-0.8,0.6-1.2,0c-0.3-0.5-0.1-0.9,0.2-1.2c1.3-1.2,2.9-2.1,4.5-3c2.2-1.2,4.5-1.7,7-1.5
		c0.5,0,0.9-0.4,0.8-1c-0.1-1-0.3-1.9-0.6-2.9c-1.2-3.3-2.4-6.7-3-10.3c-0.1-0.6,0.2-1,0.6-1.2c2.1-1,3.9-2.3,6.1-3.3
		c-2.2-0.6-4.4-1.4-6.8-0.9c-2.5,0.6-4,2.3-5.4,4.3c-1.4,2-2.4,4.2-3.3,6.6c-1,2.8-2.6,5.3-4.9,7.2c-2.5,2.1-4.6,4.6-7,6.8
		c-0.3,0.3-0.7,0.6-1.1,0.7c-2.2,0.8-3.8,2.4-5.5,4c-1.3,1.2-2.6,2.4-4.4,2.9c-0.8,0.2-1,0.5-1,1.3c0.1,2.5-1,4.8-2,7
		c-0.6,1.2-1.3,2.7-2.9,3.1c-0.5,0.1-0.9,0.6-1.2,1.1c-0.3,0.4-0.6,0.7-1.1,0.6c-0.5-0.2-0.6-0.6-0.6-1.1c0-0.7-0.2-1.4-0.3-2.1
		c-0.1-0.9-0.4-1-1-0.4c-1.6,1.4-3.2,2.9-4.8,4.4c-0.4,0.3-0.5,0.7-0.5,1.2c-0.1,1.4-0.3,2.9-0.4,4.3c-0.2,1.3,0.5,2,1.8,1.9
		c0.9-0.1,1.7-0.6,2.5-1.1c2.8-2,5.8-3.9,8.4-6.2c2.9-2.7,6-5,9.2-7.4c2.1-1.6,4-3.5,6.2-5c1.2-0.8,2.2-1.9,3.3-2.8
		c0.3-0.3,0.6-0.7,0.1-0.9c-1.2-0.5-0.7-1.5-0.6-2.2c0.5-1.7,1-3.4,1.8-5c0.8-1.6,2.1-1,3.3-0.9c1,0,1.6,0.6,1.5,1.6
		c0,1.4,0.8,2.7,0.8,4.2c0,2.6-2.2,5-4.9,5C43.1,207.2,42.2,207.6,41.1,207.7z M19.1,217.7c0.9-0.7,1.7-1.1,2.3-1.9
		c2.2-3.3,2.9-7,3.2-10.9c0-0.5,0.1-0.7,0.5-0.8c0.3-0.1,0.6-0.2,0.9,0.1c0.4,0.3,0.2,0.7,0.1,1c-0.1,0.4-0.6,0.8-0.3,1.4
		c0.8-0.7,1.6-1.3,2.4-2c1.7-1.5,3.3-3.1,5.3-4.3c1.3-0.8,2.7-1.5,3.8-2.6c0.4-0.4,0.5-0.6,0.3-1.1c-0.8-3.2-2.7-6-4.6-8.5
		c-1.2-1.5-1.2-2.4-0.7-3.9c0.4-1.1,0.9-2.2,0.3-3.4c-1-2.1-2.7-2.8-4.9-2.2c-0.8,0.2-1.3,0.9-2,1.4c-1.7,1.2-2.2,3.5-1.2,5.3
		c0.5,0.8,1,1.6,1.5,2.4c0.8,1.1,0.8,2.3,0.1,3.4c-0.9,1.3-1.9,2.6-2.9,3.9c-1.5,1.9-2.7,4.1-2.8,6.6c-0.1,2.1-0.4,4.1-0.7,6.1
		C19.2,211,18.7,214.2,19.1,217.7z M26.2,248.6c0.9-2.1,2-4.1,2.4-6.4c0.5-2.5,0.7-5.1,1.4-7.6c1-3.8,2.1-7.5,3.7-11
		c0.7-1.5,1.4-1.7,2.8-0.9c0.9,0.5,1.4,1.3,1.6,2.3c0.3,2.1,0.6,4.2,0.8,6.2c0.3,3-0.1,6.1,0.7,9.1c0.5,1.8,0.8,3.6,1.5,5.3
		c0.2,0.5,0.5,0.8,0.9,0.9c0.4,0,0.6-0.5,0.8-0.8c0.4-0.7,0.5-1.4,0.5-2.2c0.2-3.3-0.3-6.6-0.9-9.8c-1-5.6-1.3-11.2-1.5-16.8
		c-0.1-2.2-0.1-4.4-0.2-6.6c0-0.5,0-1.2-0.4-1.4c-0.5-0.2-1,0.3-1.3,0.7c-2.3,2-4.5,4.1-7.2,5.7c-1.8,1.1-3.5,2.6-5,4.1
		c-0.2,0.2-0.5,0.4-0.1,0.6c1,0.5,0.8,1.4,0.7,2.2c-0.4,3.8-0.9,7.6-1.1,11.5c-0.3,4.7-0.4,9.4-0.6,14
		C25.7,248,25.7,248.3,26.2,248.6z M48,202.2c-0.4-1.3-0.8-2.8-1.2-4.3c-0.2-0.8-0.7-0.6-1.3-0.3c-1.5,0.8-1.9,2.4-2.4,3.8
		c-0.3,0.8-0.3,1.6-0.3,2.4c0,1,0.7,1.7,1.4,1.9C45.8,206,48,204,48,202.2z"/>
	<path d="M171.4,158.5c0,2.1-1.4,3.6-2.1,5.3c-1.2,2.9-0.7,5.8-0.2,8.6c0.6,3.3,1.1,6.6,1.6,9.9c0.6,3.4,1.3,6.8,1.4,10.3
		c0.1,2.7,0.4,5.5-0.1,8.2c-0.3,1.7-0.2,3.5-0.5,5.3c-0.2,1.4,0.8,2.3,1.9,2.9c1.1,0.6,2.1,1.4,3,2.3c0.2,0.2,0.7,0.4,0.6,0.8
		c-0.2,0.4-0.7,0.5-1.1,0.5c-1.3-0.1-2.6-0.1-3.9-0.6c-1.9-0.7-3.8-1.2-5.8-1.5c-1.4-0.2-2.2-1.1-2.4-2.9c-0.3-2.6-0.4-5.1-0.8-7.7
		c-0.7-5.2-0.7-10.6-1.6-15.8c-0.6-3.2-1.1-6.4-2.3-9.5c-0.5-1.2-1.1-2.2-1.9-3.1c-2.1-2.4-2.8-5.1-2.2-8.2
		c0.9-4.9,1.5-9.9,3.4-14.6c1.6-3.9,3.6-7.5,7.6-9.5c1-0.5,1.5-1.4,1.5-2.6c0-1.7-0.2-3.5,0.5-5.2c0.7-1.9,4.2-5.3,6.7-5.4
		c2-0.1,4.1,1.3,4.8,3.2c0.8,2.1,1,4.2,0.7,6.4c-0.4,2.7-1.6,3.7-4.3,3.5c-1-0.1-1.6,0.3-2.1,1.1c-0.7,1.4-1.6,2.7-0.7,4.4
		c0.3,0.5,0.1,1.2-0.7,1.6c0.1-1.2-0.3-2.2-0.5-3.3c-0.4-1.8,1.9-4.6,3.7-4.7c2.7-0.1,3.4-0.9,3.7-3.6c0.2-1.5,0.3-3.1-0.2-4.6
		c-1-3.1-4.4-4-7-2c-2.8,2.1-4.3,4.6-3.7,8.3c0.2,1.5-0.3,2.9-1.7,3.7c-0.1,0.1-0.2,0.2-0.3,0.2c-1.9-0.3-2.5,1.4-3.5,2.4
		c-1,1.2-1.8,2.6-2.5,4c-1.1,2.3-2,4.8-2.7,7.2c-0.7,2.2-0.9,4.5-1.1,6.8c-0.1,1.3-0.5,2.5-0.7,3.7c-0.3,2.4,0.3,4.4,1.9,6.1
		c2.6,3,3.4,6.6,4.3,10.3c1.1,4.5,1.1,9.2,1.6,13.7c0.4,3.6,1,7.1,1.1,10.7c0,0.9,0.1,1.7,0.2,2.6c0.1,1.2,0.8,1.7,1.7,1.7
		c1.7,0.1,3.2,0.8,4.7,1.2c1.3,0.4,2.5,0.4,3.9,0.8c-0.3-1.1-1.2-1.2-1.8-1.6c-2.4-1.2-3.3-3-2.9-5.7c0.8-4.8,0.8-9.7,0.5-14.6
		c-0.1-1.5-0.3-3-0.6-4.4c-0.8-3.5-1-7.1-1.6-10.6c-0.3-1.6-0.6-3.2-0.9-4.8c-0.7-3.4,0.1-6.5,1.7-9.3c0.5-0.9,0.7-1.9,1-2.9
		c0.1-0.3,0-0.5-0.2-0.7c-1.8-1.9-2.3-4.7-4.2-6.7c-0.2-0.2-0.4-0.4-0.1-0.6c0.3-0.2,0.6-0.1,0.9,0.1c0.9,0.7,1.4,1.7,1.8,2.7
		c0.9,1.9,2,3.8,3.6,5c2.2,1.7,4.1,3.6,5.8,5.8c0.1,0.2,0.3,0.3,0.5,0.4c1.9,0.7,3.9,1.1,5.9,1c0.7,0,1.4-0.2,1.5-1
		c0.1-0.8-0.5-1-1.2-1.2c-1.5-0.5-2.5-1.5-3.6-2.7c-3.7-3.9-6.3-8.5-9.8-12.5c-0.3-0.3-0.5-0.6-0.2-0.9c0.4-0.4,0.6,0.1,0.8,0.4
		c2.4,2.8,4.4,5.9,6.7,8.7c0.1,0.1,0.1,0.2,0.2,0.3c1.2,1.5,1.3,1.5,2.5,0.1c1.9-2.2,4.6-2.9,7.3-3.5c0.4-0.1,0.9,0.1,1.3,0.2
		c2.3,0.8,4.7,1.1,6.6,2.7c1.9,1.7,3.2,3.8,3.9,6.2c0.4,1.3-0.9,1.4-1.5,1.3c-1.2-0.3-1.9,0.3-2.5,0.9c-0.7,0.7-0.9,0.3-1.2-0.3
		c-1-1.8-2.1-3.4-4-4.3c-1.9-0.9-3.9-0.3-5.7,0.2c-1.1,0.3-1.1,1.6-0.1,2.3c0.9,0.6,1.2,1.5,0.9,2.5c-0.2,0.8,0,1.1,0.6,1.6
		c1.7,1.5,3.9,2.4,5.9,3.3c2.3,1,3.8,2.8,5.4,4.4c1.6,1.5,3,3.3,4.3,5c1.1,1.4,1.7,3,2.2,4.6c0.4,1.3-0.4,2.5-1,3.6
		c-0.9,1.8-2,3.5-3.1,5.3c-0.2,0.3-0.3,0.6-0.1,1c0.9,1.5,1.5,3.2,1.8,4.9c0.5,2.4,0.3,4.8-0.3,7.2c-0.1,0.6-0.6,1.1-1.1,1.5
		c-2.1,1.5-4.5,2.7-7,3.5c-2,0.6-4.1-0.1-5.9-0.8c-4.3-1.7-6.1-5.6-7.7-9.5c-0.2-0.5,0-0.6,0.4-0.7c1.1-0.4,2.1-0.8,3.2-1.2
		c0.8-0.3,1.2,0.1,1.4,0.7c0.4,0.9,0.6,1.9,1.2,2.7c0.9,1.1,1.9,1.9,3.4,2c1.8,0.2,3.5,0.6,5.3-0.3c1.8-0.9,1.9-2.3,0.8-4.2
		c-0.8-1.5-2.4-2.3-3.8-3.1c-4.2-2.5-8.1-5.6-11.3-9.2c-2.5-2.8-3.8-6.3-2.9-10.2c0.4-1.9,1.5-3.6,2.8-5.1c0.3-0.4,1-0.5,0-1.1
		c-1.9-1.1-2.7-3.1-3.1-5.2c-0.1-0.7-0.8-0.6-1-1.1C175.8,161.2,173.5,160,171.4,158.5z M179.1,165.2c0.3,1.6,1.1,2.8,2.3,3.8
		c1.4,1.2,1.4,1.8,0.4,3.3c-0.4,0.6-0.7,1.4-1,2.1c-0.8,1.8-1.5,3.7-1.2,5.7c0.6,3.6,2.5,6.4,5.4,8.6c0.5,0.3,0.9,0.8,1.3,1.1
		c2.3,1.7,4.4,3.6,6.8,5.1c2.5,1.5,4.7,3.4,5.1,6.6c0.1,0.7,0.1,1.2-0.7,1.6c-1.4,0.9-2.9,1.3-4.6,1.4c-3.3,0-6.1-0.9-7.7-4
		c-0.9-1.7-0.9-1.7-2.5-1c-0.7,0.3-0.9,0.6-0.5,1.3c1.1,2.5,2.3,5.1,4.6,6.8c2.2,1.6,4.7,2.4,7.4,1.5c1.7-0.5,3.4-1.3,4.9-2.3
		c0.8-0.5,1.9-0.8,2.1-1.8c0.9-4.1,1-8.1-1.3-11.9c-0.2-0.4-0.6-0.7-0.1-1.2c1.5-1.6,2.4-3.6,3.5-5.5c0.9-1.4,0.8-2.8,0.1-4.4
		c-0.8-2-2-3.6-3.4-5.1c-2.2-2.4-4.4-5-7.3-6.7c-2.4-1.4-5.1-2.2-7.1-4.2c-0.2-0.2-0.6-0.3-0.9-0.2
		C182.9,166.1,181,165.5,179.1,165.2z M189.9,153.9c-3,0-7.4,1.9-8.8,3.5c-0.2,0.2-0.3,0.4-0.1,0.6c0.8,0.7,1.2,1.7,2.1,2.3
		c0.5,0.4,0.7,0.3,1.1-0.2c0.7-0.8,1.2-2.1,2.4-2.3c2.7-0.4,5.5-0.5,7.5,2c0.6,0.7,1.1,1.5,1.6,2.3c0.3,0.5,0.4,0.5,1,0.3
		c0.7-0.3,1.2-1.2,2.2-0.8c0.3,0.1,0.6,0.6,0.9,0.1c0.3-0.4,0-0.8-0.2-1.1c-1.3-2.1-2.7-4.1-5.1-5.1
		C192.7,154.8,191.1,153.9,189.9,153.9z"/>
	<path d="M108.9,39.3c0.8-1.9,2.3-3.3,3.9-4.5c0.7-0.5,0.9,0.1,1.2,0.6c2.3,3,2.3,6.4,1.1,9.7c-2.6,6.9-4,14.1-5.3,21.3
		c-0.5,2.8-0.8,5.6-1.2,8.3c-0.1,0.4-0.1,0.8-0.1,1.2c0.6,3.1-0.9,5.2-3.2,6.9c-0.8,0.6-1.2,1.4-1.7,2.1c-0.5,0.6-0.2,0.8,0.5,0.9
		c2.2,0.4,4.2-0.3,6.2-1.1c0.6-0.3,1.2-0.7,1.7-1c1.3-0.9,1.8-2,1.6-3.7c-0.3-2.5-0.3-5.1-0.4-7.7c-0.1-1.4-0.2-2.7-0.3-4
		c-0.4-3.4,1-6.2,3.2-8.7c1.1-1.3,1.7-2.8,2.3-4.4c0.5-1.4,1.1-2.8,2-4c0.4-0.5,0.8-0.8,1.5-0.8c0.2,0.6-0.1,1-0.3,1.4
		c-1.8,3.9-2.2,7.9-1.2,12.1c0.5,2,0.4,4,0.3,5.9c-0.2,2,0.6,3.7,1,5.6c0.3,1.5,1.2,2.7,1.4,4.2c0.2,1.2,0,2.1-0.6,3.1
		c-0.2,0.4-0.4,0.8-0.6,1.2c-0.2,0.5-0.4,0.9,0,1.4c0.4,0.5,0.8,0.1,1.3,0c0.6-0.1,1.1-0.3,1.7-0.4c2.4-0.5,3.7-2.6,2.9-4.9
		c-0.8-2-1-4.1-1.6-6.1c-0.5-1.7-0.8-3.5-1.3-5.3c-1.3-4.7-0.9-9.2,0.9-13.7c0.5-1.2,0.8-2.6,1.1-3.9c0.3-1.5,0.7-2.9,1-4.4
		c0.3-1.5-0.1-2.8-0.2-4.1c-0.3-2.5-1-4.9-1.4-7.4c-0.6-4-2.7-7.4-4.9-10.8c-1.1-1.7-2.5-3.3-4.6-4c-1-0.4-1.9-0.7-3-0.3
		c-0.7,0.3-1.2,0.1-1.6-0.6c-0.3-0.6-0.6-1.1,0-1.7c0.2-0.2,0.4-0.5,0.5-0.8c0.5-1.5,1.3-1.9,2.7-1.3c1.7,0.7,3.5,0.5,5.3,0.7
		c0.9,0.1,0.8-0.3,0.4-1c-1.2-1.8-3-3-4.5-4.5c-1.8-1.8-1.9-2.4-0.9-4.7c0.2-0.5,0.4-1,0.7-1.5c0.8-1.2,0.2-2.2-0.7-3
		c-1.6-1.3-4-0.9-5.1,0.8c-0.7,1.1-1.3,2.4-2.3,3.3c-1,1-2.2,1.1-3.4,0.5c-1.5-0.8-2.9-1.8-4.2-3c-0.8-0.7-1.9-1.7-2.7-0.9
		c-0.7,0.8,0.4,1.8,1,2.7c1,1.3,2.4,2.1,3.6,3c1.1,0.8,1.4,1.7,1.1,3.1c-0.7,2.7,0.6,5.5,3,7c0.1,0.1,0.2,0.1,0.3,0.2
		c0.6,0.6,1.1,3.4,0.8,4.3c-0.1,0-0.2-0.1-0.2-0.1c-0.4-1.8-1-3.3-2.7-4.6c-1.9-1.5-2.4-4.1-1.8-6.6c0.3-1.2-0.1-1.8-0.9-2.4
		c-1.1-0.9-2.4-1.5-3.5-2.5c-1.2-1.2-1.3-2.7-1.9-4.1c-0.2-0.5,0.2-0.8,0.7-0.9c1.3-0.2,2.4,0.1,3.4,0.9c1.2,1,2.4,2,3.9,2.7
		c2,0.9,3.6,0.2,4.2-2c0.4-1.4,2.1-2.5,3.8-2.9c1.2-0.3,2.2-0.3,3.1,0.6c1.2,1,1.5,1.9,1,3.3c-0.2,0.7-0.5,1.4-0.8,2
		c-1,2-0.8,2.9,1,4.2c1.8,1.3,3.1,3.2,4.7,4.6c0.5,0.4,0.2,1,0.1,1.5c-0.2,0.6-0.7,0.6-1.2,0.6c-2,0-4.1-0.1-6.1-0.5
		c-0.5-0.1-0.9-0.2-1.1,0.4c-0.2,0.5-0.7,1-0.3,1.6c0.2,0.4,0.5,0.7,1,0.5c2.4-0.8,4.2,0.5,5.8,1.9c4.1,3.7,6.5,8.5,7.5,13.9
		c0.5,2.9,1.4,5.8,1.7,8.7c0.1,1.2-0.1,2.3-0.3,3.5c-0.7,3.7-2,7.1-3,10.7c-0.9,3.4-0.7,6.7,0.2,10c0.8,3.1,1.6,6.3,2.3,9.5
		c0.2,0.7,0.4,1.4,0.6,2.1c0.6,1.7,0.1,3.1-1.2,4.2c-1.6,1.4-3.6,2-5.5,2.4c-1.6,0.4-2.1-0.3-1.7-1.8c0.1-0.2,0.1-0.5,0.2-0.6
		c1.7-1.9,1.1-4.1,0.3-6c-1.5-3.9-1.8-7.8-1.6-11.9c0.1-1.9-0.8-3.9-0.8-5.9c0-0.7-0.1-1.4-0.1-2.1c-3.3,3.3-5.5,6.8-4.8,11.7
		c0.5,3.5,0.4,7.1,0.7,10.7c0.3,2.7-1.6,3.8-3.4,5c-2.7,1.8-5.7,1.5-8.7,1.1c-0.7-0.1-0.3-0.5-0.2-0.8c0.9-1.7,2.3-3,3.8-4.2
		c1.3-1.1,1.8-2.4,1.4-4.1c-0.3-1.2,0.1-2.4,0.3-3.6c0.4-2,0.8-3.9,0.9-6c0.2-2.6,1-5.1,1.5-7.6c0.6-2.5,0.9-5.1,1.6-7.7
		c0.7-2.4,1.6-4.8,2.4-7.2c1.1-3.2,1.3-6.2-1-9.1c-0.6-0.7-0.9-0.7-1.2,0c-0.6,1.1-1.7,1.7-2.2,2.9
		C109.6,39.4,109.3,39.4,108.9,39.3L108.9,39.3z"/>
	<path d="M28.5,156.2c-2.4,0.6-4.8,0.1-7.1,0c-1.2-0.1-2.4-0.5-3.5-0.9c-1-0.4-1.4-1.3-1.6-2.3c-0.4-2.3,0.1-4.6,0.3-6.8
		c0.1-1.8,0.5-3.6,0.2-5.2c-0.3-1.8-0.1-3.6-0.8-5.3c-0.4-0.9-0.9-1.5-1.8-1.8c-1.7-0.6-3.2-1.7-4.7-2.6c-1.6-1.1-2-2.5-1.9-4.3
		c0.1-2.2,1.1-4.2,1.6-6.2c0.6-2.4,1.3-4.9,2-7.3c0.8-2.7,1.9-5.4,3-8c1-2.2,2.5-4,3.6-6.1c0.8-1.5,2.2-2.1,3.8-1.7
		c1.4,0.3,1.5-0.5,1.5-1.5c0-0.9-0.5-1.7-0.8-2.6c-0.4-1-0.8-2-0.2-3.2c0.4-0.8,0.1-2,0.4-3c0.5-2.2,2.3-4.1,5-4.1
		c1.9,0,3.7,0.1,5.1,1.4c1.3,1.3,2.4,2.8,3.3,4.4c0.4,0.7,0.3,1.6-0.1,2.2c-0.9,1.5-1.9,3-3.7,3.6c-1.3,0.4-2,1.2-2.3,2.6
		c-0.2,0.9-0.7,1.8-1.1,2.7c-0.1,0.2-0.4,0.4-0.1,0.7c0.2,0.3,0.5,0.1,0.7,0c3.1-0.8,6.2-1.8,9.2-3.1c0.8-0.3,1.6-0.5,2.7-0.9
		c-2.3-1.7-1.6-3.9-0.9-5.9c0.3-0.9,1.2-1.3,2.4-0.8c-0.5-1.6-1.1-2.8-0.6-4.4c0.4-1.3,1.3-1.4,2.2-1.4c1.9-0.1,3.2,0.9,4.4,2.4
		c0.5-0.9,1.3-1.6,2.3-1.2c0.9,0.3,1.6,1,1.9,1.9c0.3,0.8,1.3,1,1.8,1.8c0.8,1.2,0.8,1.9-0.4,2.7c-0.9,0.6-1.1,1.1,0.1,1.5
		c0.1,0,0.1,0.1,0.2,0.1c0.9,0.5,1.4,1.2,1.1,2.1c-0.4,1.1-1.4,0.2-2.3,0.4c1.6-1.3,1.6-1.3,0.1-2.5c-1.5-1.3-1-1.7,0.4-2.5
		c0.6-0.3,0.8-0.4,0.5-1.1c-0.3-0.6-0.6-0.9-1.2-0.7c-1.3,0.5-1.3-0.3-1.1-1.1c0.2-0.8-0.1-1.1-0.7-1.4c-0.7-0.4-1.1-0.1-1.5,0.4
		c-0.4,0.5-0.8,1-0.6,1.7c0,0.3,0.1,0.6-0.3,0.7c-0.3,0.1-0.5-0.2-0.6-0.5c-0.2-0.4-0.3-0.7-0.3-1.2c-0.1-1.4-1-2.1-2.2-2.5
		c-0.8-0.2-1.7-0.3-2.4,0.5c-0.8,1-0.7,2.2-0.3,3.3c0.5,1.1,1.4,1.9,2.1,2.8c0.2,0.3,0.7,0.7,0.3,1c-0.4,0.4-0.7-0.2-0.9-0.5
		c-0.2-0.2-0.3-0.3-0.4-0.5c-0.4-0.7-1-1.4-1.8-1.2c-0.8,0.2-1.3,0.9-1.6,1.7c-0.2,0.6-0.3,1.2-0.4,1.9c-0.1,0.8-0.1,1.5,0.7,1.9
		c0.7,0.3,1.5,0,1.9-0.6c1.7-2.2,4.2-1.9,6.5-2.4c0.3-0.1,0.6,0,0.8,0.3c0,0.1,0,0.3-0.1,0.3c-0.3,0.2-0.5-0.1-0.7-0.1
		c-2.1,0.2-4.3,0.5-5.7,2c-1.4,1.5-3.2,2.3-5,2.8c-1.8,0.5-3.4,1.4-5.2,1.8c-1.6,0.4-3.2,0.7-4.7,1.5c-0.6,0.3-1.7-0.7-1.6-1.5
		c0.3-2,1.1-3.9,1.8-5.8c0.1-0.2,0.2-0.3,0.4-0.4c2-0.4,2.8-2.1,4.1-3.4c1.1-1.1,0.8-2.3,0.2-3.5c-0.5-0.9-1.1-1.6-1.8-2.4
		c-1.4-1.5-3-2-4.9-1.3c-1.8,0.6-2.9,1.9-3.4,3.7c-0.3,1.1-0.7,2.1-0.5,3.3c0,0.3,0.1,0.5-0.5,0.5c-0.5,0-0.2,0.5,0,0.8
		c0.6,1.3,1.2,2.5,1.8,3.8c0.4,0.9-0.2,1.6-0.9,2c-0.2,0.1-0.5,0.2-0.8,0.2c-2.5-0.4-3.6,1.3-4.8,3.1c-1,1.5-1.6,3.2-2.3,4.9
		c-0.8,1.9-1.5,3.8-2.3,5.8c-0.7,1.9-1.2,3.9-1.6,5.9c-0.3,1.7-0.7,3.4-1.5,4.9c-1,2-1.2,4.2-1.1,6.3c0,1.8,1.7,2.5,3.1,3.2
		c0.6,0.3,1.2,0.4,1.8,0.6c1.2,0.4,1.8,1.1,2.4,2.3c1.9,3.7,1.1,7.6,1.1,11.5c0,2.3-0.6,4.6-0.1,6.9c0.1,0.5,0.2,1,0.8,1.1
		c2.7,0.4,5.4,1.3,8.3,0.7c-0.7-0.9-1.6-1.6-2.5-2.1c-2.8-1.7-3.7-4.2-3.5-7.3c0.2-3.7,0.3-7.5,1.1-11.2c0.1-0.6,0.4-0.8,0.9-1
		c0.5-0.2,1-0.4,1.6-0.4c2.4-0.4,3-1.9,2.9-4.1c0-2.6-0.2-5.1,0-7.7c0.2-3.2,1-6.2,1.2-9.4c0.1-1.5,0.2-3,0.3-4.6
		c0-0.6,0.1-0.9,0.8-0.8c0.9,0.1,0.2,0.7,0.2,0.9c-0.1,1.9-0.3,3.7-0.3,5.6c-0.2,4-1.3,7.9-1,11.9c0.2,2.5,0.1,4.9-0.2,7.3
		c-0.1,0.9-0.6,1.3-1.2,1.5c-0.8,0.3-1.6,0.7-2.4,0.9c-1.4,0.3-1.8,1.1-2,2.4c-0.5,4-0.5,8-0.4,12c0,0.6,0.3,1.1,0.8,1.5
		c1.3,1.1,2.6,2.2,3.9,3.4C27.7,154.3,28.4,155.1,28.5,156.2z"/>
	<path d="M96.2,230.7c0.3-1.3,0.8-2,2-2.2c0.8-0.1,1.9,0,1.1-1.7c-0.6-1.2-0.2-2.8,0-4.3c0.1-0.6,0.4-1.3-0.2-2.2
		c-0.7,2.7-2.2,4.9-3.1,7.5c-0.7,2-2.3,3.8-3.5,5.6c-0.3,0.4-0.9,0.3-1.3,0.1c-0.5-0.3-0.9-0.6-0.8-1.3c0.6-3.5,0.9-7.1,2-10.5
		c0.6-1.9,1.6-3.6,2.4-5.4c0.5-1.2,0.9-2.4,1.2-3.6c0.5-1.5,1.3-2.7,2.4-3.7c0.8-0.8,2-1.2,3-1.7c0.5-0.3,1.1-0.4,0.9-1.1
		c-0.5-1.7,0.2-3.1,1-4.5c0.9-1.6,1.9-3.2,3.7-4.2c1.6-0.9,3-0.3,4.5-0.1c1.5,0.2,2.8,0.7,3.6,2.2c0.8,1.6,0.4,3.1-0.2,4.6
		c-0.3,0.8-0.7,1.5-0.9,2.3c-0.4,1.7,0.4,2.5,2.3,2.4c3.6-0.2,6.7,1.1,9.2,3.8c1.5,1.6,1.3,3.5,1.1,5.3c-0.2,2.3-0.5,4.6-1,6.8
		c-0.2,0.7-0.4,1.3-0.9,1.7c-1.7,1.3-3,3-5,4.1c-1.4,0.8-2.2,2.4-3.7,3.2c-0.4,0.3-0.8,0.6-1.3,0.8c-0.8,0.4-1.6,0.2-1.9-0.4
		c-0.7-1.4-1.7-2.7-1.1-4.5c0.2-0.5,0.1-0.9-0.6-0.9c-3.2,0.2-6.4,0.1-9.6,0.2C100,229.1,98.2,230,96.2,230.7z M91.9,231.6
		c0.4,0.1,0.5-0.1,0.7-0.4c1.1-1.6,2.2-3.2,2.8-5.1c1.2-3.4,3.1-6.4,4.7-9.6c0.2-0.4,0.5-0.3,0.7,0c0.4,0.7,0.9,1.3,0.7,2.3
		c-0.5,2.5-0.8,5-1.2,7.4c-0.1,0.8,0,1.1,1.1,1.2c3.5,0.3,6.9,0.4,10.4,0c0.5-0.1,1.1-0.1,1.6-0.4c1.8-1.2,3.1-2.9,4.3-4.6
		c0.4-0.6,0.5-1.2,0.3-1.8c-0.7-1.9-0.3-3.7-0.2-5.6c0.1-1.1,1.3-1.9,1.9-1.3c0.7,0.8,1.3,1.6,1.5,2.7c0.7,3.4-1,5.6-3,7.9
		c-1.7,1.9-4.1,3.2-5.2,5.8c-0.5,1.2,0.1,2.2,0.7,3c0.6,0.8,1.3-0.1,1.8-0.5c2.4-2,4.8-4,7.2-6c1-0.9,1.9-1.9,2.1-3.2
		c0.4-2.4,0.8-4.7,0.9-7.1c0.1-1.7-0.5-3.1-2-4c-1-0.6-2-1.1-3.2-1.6c-1.8-0.7-3.6-0.7-5.5-1c-2-0.4-2.5-1.1-2.2-3.1
		c0.2-1.3,0.6-2.6,1.2-3.7c0.7-1.2,0.5-3.1-0.3-3.8c-1-0.9-2.1-0.9-3.3-0.2c-0.5,0.3-1.1,0.6-1.5-0.3c-0.3-0.6-0.7-0.3-1.1-0.1
		c-1.8,0.9-2.7,2.5-3.7,4.2c-0.8,1.4-1.3,2.8-0.9,4.4c0.2,0.9-0.2,1.3-1,1.6c-0.7,0.3-1.7-0.1-2.2,0.5c-1,1.1-2.1,2.2-2.6,3.7
		c-0.7,1.7-0.9,3.6-1.9,5.2c-1.3,2-1.9,4.4-2.6,6.6C92.2,226.7,92.2,229.2,91.9,231.6z M119.2,220.2c1.1-1.5,1.1-3.9,0.1-5
		C119.1,216.8,119,218.4,119.2,220.2z"/>
	<path d="M233.7,140.6c0,0.5,0.1,0.8,0,1c-0.6,2.6-0.9,5.3-1,7.9c-0.1,3.1,0.3,3.8,3.2,4.8c1.6,0.6,2.4,1.7,2.7,3.2
		c0.3,1.9,0.6,3.8,0.9,5.7c0.6,4.2,0.2,8.5-0.2,12.7c-0.2,2.2-1.6,4.4-3.3,5.9c-2.3,2-3.5,4.7-4.6,7.4c-1.3,3.1-1.9,6.5-2.4,9.8
		c-0.4,2.5-0.1,5.2-0.2,7.8c-0.1,3.4,0.8,6.9-0.6,10.3c-0.5,1.1-1.1,1.8-2.3,1.6c-2.7-0.3-5.3-0.2-8-0.3c-0.6,0-1.4,0-1.6-0.6
		c-0.2-0.6,0.5-1.1,1-1.5c0.8-0.6,1.7-1.1,2.7-1.5c1.6-0.6,2.3-1.8,2.5-3.6c0.2-2.2-0.7-4.1-1-6.1c-0.6-3.3-1.5-6.6-1.1-10.1
		c0.2-1.4,0.6-2.8,1.3-4.1c2.1-4.4,3.4-9,3.8-13.8c0.2-2.2,0.9-4.3,0.9-6.4c0-1.5-0.1-1.6-1.5-1.2c-1.3,0.3-2.6,0.5-3.9,0.3
		c-3.8-0.4-7.5-0.2-11.1,0.7c-0.8,0.2-1.7,0.2-2.6,0.1c-1.7-0.2-1.7-1.6-2.1-2.8c-0.4-1.1,0.6-1.4,1-2c0.1-0.2,0.4-0.1,0.6-0.1
		c3.6,0.3,7.3,0.1,10.9-0.4c2.9-0.4,5.5-1.8,7.2-4.4c0.7-1.1,0.9-2.3,1-3.5c0.2-2.3,1.1-4.5,1.9-6.6c0.3-0.8,0.1-1.1-0.5-1.6
		c-2.4-1.7-3.8-4.2-4.5-6.9c-0.7-2.5,0.9-5.1,3.3-5.9c2.7-1,6.3,0.5,7.6,3C233.9,140,233.8,140.4,233.7,140.6z M239,166.9
		c-0.1-2.8-0.7-5.9-1.2-9.1c-0.3-1.6-1-2.6-2.6-3c-0.4-0.1-0.8-0.4-1.2-0.5c-1.7-0.6-2.4-1.9-2.3-3.6c0-1,0.2-2,0.3-3
		c0.3-1.9,0.4-3.9,1-5.7c0.4-1.2,0.2-2-0.4-2.9c-1.1-1.7-2.9-2.1-4.8-2.1c-2.5,0-4.7,2.9-4,5.3c0.8,2.5,2.3,4.7,4.1,6.6
		c0.5,0.5,1.3,1.1,1,1.8c-0.7,1.4-0.7,3-1.5,4.4c-0.4,0.6-0.4,1.3-0.6,1.9c-0.3,1.5-0.2,3.1-1.2,4.4c-1.3,1.8-3.1,3-5.1,3.9
		c-4.2,1.7-8.5,1.4-12.8,1.4c-1.2,0-1.7,0.4-1.5,1.6c0.2,1.5,1.1,2,2.8,1.6c3.4-0.9,6.9-1.3,10.4-0.9c1.7,0.2,3.5,0.3,5.3-0.3
		c1.7-0.6,2.2-0.3,2.4,1.5c0,0.4,0.1,0.9,0,1.3c-0.3,1.9-0.7,3.8-0.8,5.7c-0.3,4.8-1.3,9.3-3.5,13.6c-1.2,2.4-1.9,4.8-1.5,7.4
		c0.5,3.3,0.9,6.6,1.9,9.8c1.2,3.8,0.2,5.9-3.4,7.4c-0.7,0.3-1.4,0.5-1.8,1.1c-0.2,0.2-0.7,0.3-0.5,0.7c0.2,0.3,0.6,0.2,0.9,0.3
		c2.3,0.1,4.5,0,6.7,0.4c0.9,0.2,1.7-0.1,2-1c0.7-1.9,1.3-3.8,1-5.9c-0.5-3.8-0.4-7.7-0.2-11.5c0.2-3.3,1.1-6.5,2.1-9.7
		c1-3.2,2.5-6.2,5.1-8.5c1.7-1.4,2.6-3.2,3.1-5.2C239.1,173.3,238.9,170.3,239,166.9z"/>
	<path d="M85.6,155c-1.9,1.6-3.4,3.6-5.9,3.9c-0.3,0-0.7,0.1-0.9-0.1c-1.3-1.2-2.8-1.9-3.9-3.5c-2-2.9-4.1-5.8-6.9-8.1
		c-1.7-1.4-3.7-1.3-5.7-1.3c-1.2,0-2.4,0.4-3.7-0.2c-0.7-0.3-1.7-0.2-2.6-0.2c-1.5,0.1-0.6,1.3-0.8,2c-0.9,2.9-0.1,4.4,2.6,5.5
		c2.7,1.2,5.6,2.1,8.1,3.7c0.7,0.5,1.9,0,2.3,1.3c0.3,0.7,0.1,0.8-0.5,0.9c-2.3,0.6-4.6-0.3-6.8-0.4c-2.2-0.1-4.5-0.4-6.7-0.1
		c-1.6,0.2-3.2,0-4.7-0.3c-1.3-0.3-2.7-0.3-4-0.4c-0.8,0-1.7,0.2-2.4-0.6c-0.1-0.2-0.8-0.1-1.2,0.1c-1.5,0.7-3.1,0.3-4.6,0.4
		c-0.7,0-1.3,0.7-2.1,0.4c-0.3-0.1-0.8,0-1.1-0.2c-0.6-0.3-1.4-0.5-1.3-1.4c0-0.7,0.7-0.9,1.2-1.2c1.9-1,3.9-0.5,5.9-0.5
		c1.9,0,3.8-0.2,5.7-0.7c0.9-0.2,1.9,0.1,2.4-1c0.4-0.8,0.7-1.6,0.8-2.5c0.3-1.8,0.3-3.7-0.1-5.9c1.9,1.3,1.6,3,1.6,4.3
		c0,1.3-0.4,2.6-0.8,3.9c-0.8,2.3-2.8,2.4-4.6,2.8c-1,0.2-2,0.2-3.2,0.2c2.3,0.7,4.6,0.2,6.8,0.7c3,0.7,6,0.4,9,0.8
		c2.5,0.3,5,0.1,7.4,0.9c0.5,0.1,1.1,0,1.3-0.5c0.2-0.7-0.5-0.3-0.8-0.5c-1.1-0.8-2.5-1-3.7-1.5c-1.9-0.7-3.6-1.9-5.6-2.4
		c-2.1-0.6-3.4-3.8-2.9-6c0.1-0.3,0.2-0.5,0.3-0.8c0.5-1,0.2-1.5-1-1.6c-2.1-0.1-4.2-0.9-6.1-1.8c-2.1-1-3.8-3-5.1-5.1
		c-1.7-2.6-3.3-5.3-3.6-8.5c-0.3-2.4-0.5-4.8-0.5-7.1c0.1-2.6,0.4-5.2,0.7-7.9c0.2-1.8,1-3.3,2.6-4.2c0.1,0,0.2-0.1,0.2-0.1
		c0.8-0.5,1.8-1,2.4-1.7c0.8-0.9-0.6-1.6-0.5-2.6c0.1-0.6-0.4-1.2-0.3-1.9c0.1-0.3,0.1-0.7,0.6-0.5c0.3,0.1,0.5,0.2,0.4,0.6
		c-0.4,1.4,0.3,2.6,0.9,3.7c0.7,1.1,0.3,1.7-0.6,2.2c-0.9,0.6-1.8,1.1-2.6,1.7c-1.5,1-1.6,2.7-1.8,4.2c-0.7,5.4-1.2,10.8,0.2,16.1
		c1,3.8,3.2,6.9,6.2,9.4c1.9,1.6,4.5,1.9,6.9,2.3c2.6,0.4,5.3,0.7,7.9,0.9c1.1,0.1,2.4,0,3.5-0.2c2.3-0.4,3.4,1,4.6,2.3
		c2.8,2.7,5.3,5.7,7.6,8.9c0.1,0.2,0.3,0.3,0.5,0.5c2.3,2.2,3,2.2,5.3-0.1C83.3,154.9,84.4,154.6,85.6,155z"/>
	<path d="M98.1,240.7c0.8-0.9,1.5-0.9,2.3-0.9c2.8,0.1,5.4,0.8,8.1,1.4c4.5,1,9.1,1.6,13.7,0.9c2.5-0.3,5-1,7.4-1.2
		c2.2-0.3,4.5-0.3,6.8-0.4c3.6,0,7.1,0.6,10.7,0.4c3.9-0.3,7.9,0.2,11.8,0.4c0.2,0,0.5,0,0.7,0c2.7,0,2.6,0,2.8-2.7
		c0.1-1.3,0.4-2.5,0.6-3.8c0.2-1.4,0.3-2.8-0.1-4.2c-0.1-0.4-0.3-0.7-0.7-0.8c-0.4-0.1-0.7,0.2-0.8,0.6c-0.5,1.3-1,2.5-1.4,3.8
		c-0.8,2.6-2.8,3.9-5.5,3.7c-3.7-0.2-7.2-1.1-10.9-1.5c-4.5-0.5-8.9-0.4-13.4-0.2c-1.8,0.1-3.4-0.4-4.5-2c-0.9-1.5-1.7-3-3-4.2
		c-0.2-0.2-0.2-0.4,0-0.7c1.6,1.1,2.6,2.5,3.6,4.1c0.6,1,2.2,2,3.3,1.7c1.1-0.3,2.2-0.2,3.2-0.2c3.7-0.2,7.4-0.3,11.1,0.1
		c3.4,0.4,6.7,1.1,10,1.5c2.6,0.2,3.3-0.2,4.4-2.5c0.6-1.3,1.2-2.6,1.8-3.9c0.3-0.7,0.4-1.8,1.5-1.6c1.1,0.2,2.1,0.8,2.4,2
		c0.3,1.1,0.5,2.2,0.4,3.3c-0.1,1.3-0.2,2.5-0.4,3.8c-0.3,1.2-0.4,2.3-0.3,3.5c0.1,1.2-0.5,1.6-1.5,1.6c-1.9,0-3.7-0.1-5.6-0.1
		c-4.8-0.1-9.6-0.2-14.4-0.3c-1.4,0-2.7,0-4.1-0.3c-2.5-0.5-4.9,0.4-7.4,0.1c-1.3-0.1-2.6,0.8-3.9,1c-2.8,0.4-5.6,0.6-8.5,0.5
		c-3.2-0.1-6.3-0.7-9.4-1.1c-0.5-0.1-1.1-0.3-1.5-0.5C104.3,240.7,101.3,240.6,98.1,240.7z"/>
	<path d="M70.9,66.4c-0.5,0.5-0.9,0.3-1.2-0.1c-2.6-2.6-4.6-5.6-4.9-9.4c-0.1-1,0.5-1.2,1.4-1c1.2,0.2,2.2,0.9,3.3,1.2
		c0.9,0.3,2.1-0.4,3.3-0.4c0.1-0.5-0.4-0.3-0.6-0.7c3.2,0.3,6.3-0.4,9.5,0.7c-0.8-2.9,1.6-4.1,2.9-5.9c1.1-1.6,2.8-2.5,4.5-3.8
		c-0.1,1.1-0.8,1.6-1.4,2.2c-1.6,1.4-3.2,2.7-4.5,4.3c-1,1.2-0.9,2.3-0.2,3.4c1.3,2.5,2.7,5,4,7.5c0.9,1.8,2.1,3.3,3.6,4.6
		c2.8,2.4,5.5,2.4,8.4,0c1.4-1.2,2.6-2.6,3.9-3.9c0.4-0.5,0.5-0.9,0.3-1.5c-1-2.9-2.5-5.4-5.4-6.9c-3.5-1.8-6.1-4.7-7.9-8.3
		c-0.5-1-0.4-1,0.7-1.1c0.5-0.1,0.9-0.6,1.5-0.6c1.3-0.1,2.6-0.3,3.8,0.5c0.5,0.3,1,0.4,1.6-0.5c1-1.7,1.6-3.5,2.6-5.1
		c1.3-2.3,2.7-4.6,4.1-6.9c0.5-0.9,0.7-1.9,1.4-2.8c1.1-1.3,2.4-2.3,4-2.9c0.1,1.3-1.1,1.1-1.6,1.7c-1.2,1.4-2.1,2.9-2.9,4.6
		c-1.1,2.3-2.7,4.4-4,6.6c-1.1,1.9-1.8,4-3,5.8c-0.3,0.4,0.2,0.6,0.4,0.7c1.8,1.2,1.9,3.1,2.1,4.9c0.1,1.2-0.8,1.9-2,2.3
		c0.6,0.9,1.5,1.1,2.2,1.7c1.6,1.5,2.6,3.4,3.6,5.2c0.6,1.1,0.2,2.2-0.5,3.1c-1.9,2.4-4.3,4.2-7,5.7c-1.7,0.9-3.4,0.5-5.1-0.2
		c-0.3-0.1-0.5-0.4-0.5-0.7c0-0.4-0.1-0.6-0.4-0.8c-1.8-0.7-2.6-2.4-3.7-3.8c-1.1-1.4-2.1-2.9-2.6-4.6c-0.2-0.8-1-1.1-1.8-0.7
		c-1.9,1-3.9,0.7-5.9,0.6c-1.5-0.1-2.9,0.3-4.3,0.2c-0.3,0-0.8,0.3-0.9-0.2c0-0.4,0.5-0.8,0.8-0.7c1.1,0.1,2.1-0.5,3.2-0.5
		c1.4,0,2.9-0.1,4.3,0.1c1,0.2,1.8-0.4,2.8-0.4c0.2,0,0.4-0.1,0.4-0.4c0-0.2-0.2-0.4-0.4-0.5c-4-2-8.2-1.9-12.3-0.6
		c-0.9,0.3-1.5-0.2-2.2-0.5c-0.6-0.3-1.2-1-1.8-0.5c-0.4,0.4-0.1,1.2,0.1,1.8c0.4,1.3,1.1,2.5,1.9,3.6c0.7,1,1.6,1.9,1.9,3.1
		C70,66.2,70.6,65.9,70.9,66.4z M92.8,47.2c-0.7,0.1-1.9-0.1-2.2,0.6c-0.3,0.8,0.6,1.6,1.2,2.3c1.3,1.4,2.5,2.8,3.7,4.2
		c0.7,0.8,1.5,0.8,2.2,1c0.4,0.1,1.1-0.7,1.4-1.3c0.3-0.7,0.3-1.4,0.1-2.1C98.4,49.2,95.7,47.1,92.8,47.2z"/>
	<path d="M28.7,106.3c0.8-1.5,2.1-1.9,3.2-2.1c4.1-0.7,7.5-2.8,10.8-5.1c1.6-1.1,3.2-1.4,5-1c1.5,0.3,2.9-0.1,3.9-1.2
		c0.8-0.9,0.7-1.4-0.5-1.9c-0.3-0.1-1,0.1-0.7-0.6c0.2-0.5,0.7-0.1,1.1,0.1c2.4,1.2,3.4,3.3,3.7,5.9c0.1,1.3,0,2.1-1,3.2
		c-1.1,1.1-2.6,2-3.2,3.6c-0.4,1.1-0.6,2,0.5,2.8c1.9,1.4,2.7,3.5,3,5.8c0.3,2.8,1.6,5.1,4,6.5c1.5,1,2.6,2.4,4,3.6
		c1.5,1.3,3.2,2.2,4.7,3.4c1.9,1.5,4,2.8,5.4,4.8c0.9,1.2,1.4,2.4,1.5,3.9c0.1,2.9,1.3,5.6,3.1,7.9c1.1,1.5,2.1,3.1,3.1,4.6
		c0.3,0.5,0.5,0.7,1.1,0.6c1.2-0.3,2.5-0.6,3.7-0.8c1.7-0.4,3.3,0.3,4.1,1.7c0.2,0.4,0.5,0.8,0.1,1.1c-0.4,0.3-1,0.4-1.6,0.3
		c-0.6-0.1-0.2-0.6-0.2-0.9c0.2-0.8-0.3-0.8-0.9-0.8c-2-0.3-3.8,0.6-5.6,1.4c-0.6,0.3-1.1,0.5-1.3-0.4c-0.6-2.3-2.1-4.1-3.3-6
		c-1.9-2.8-3.5-5.8-3.6-9.3c-0.1-2-1.3-3.3-2.6-4.6c-2.1-2.1-4.6-3.7-7.1-5.2c-0.1,0-0.2-0.1-0.2-0.1c-2.5-2.3-5.1-4.4-7.6-6.8
		c-1.5-1.4-1.8-3.4-2.1-5.4c-0.3-2-0.6-4-3.1-4.8c-0.8-0.3-1.6-0.9-2.5-1.2c0.1-0.2,0.1-0.3,0.1-0.3c2,0.5,1.8-1.3,2.1-2.3
		c0.4-1,0.9-1.7,1.8-2.2c0.6-0.3,1-0.9,1.4-1.4c1.8-2,0.9-3.9,0.2-5.9c-0.2-0.6-0.5-0.9-1.1-0.1c-1.2,1.6-3,2.3-4.9,1.8
		c-1.6-0.4-2.7-0.2-3.9,1c-1.4,1.4-3.3,2-5,3C35.8,104.7,32.4,105.2,28.7,106.3z"/>
	<path d="M81.3,234.1c-0.6-1.2-1.5-2.1-2.3-2.9c-1.3-1.3-1.2-2.8-0.8-4.3c0.5-1.6,1.6-2.7,3.6-2.6c3.9,0.1,6.9,2,8,5.5
		c0.1,0.2,0.2,0.4,0.2,0.7c0,0.3,0.3,0.8-0.1,1c-0.5,0.2-0.7-0.3-0.8-0.7c-0.1-0.3-0.3-0.7-0.3-1c-0.6-2.8-4.6-4.5-6.9-3.9
		c-2.2,0.6-3.3,3-2.1,5c0.8,1.2,1.9,2.2,2.7,3.4c0.5,0.7,1.8,0.4,2.8,0.4c2.2,0,4.4-0.1,6.6-0.3c1.6-0.1,3.4-0.2,4.6-1.7
		c1.1-1.3,3.5-1.1,5.1,0.4c-2.8-0.4-4.5,1.8-6.9,2.1c-3.3,0.4-6.6,0.7-9.9,0.6c-4.9-0.1-9.6-1-14.4-1.9c-0.2,0-0.5-0.1-0.7-0.1
		c-0.6,0.1-1.4-0.2-1.6,0.6c-0.2,0.7,0.5,1,0.9,1.3c0.7,0.6,1.6,1.1,2.5,1.3c4.4,1.1,8.7,2.4,13.2,2.8c2.8,0.2,5.5-0.5,8.1-1.4
		c2.1-0.7,4.1-1.2,6.2-1.9c0.8-0.3,1.4,0,1.5,0.8c0.1,0.9-0.6,0.8-1.2,0.9c-2.4,0.1-4.6,0.9-6.7,1.9c-2.8,1.2-5.7,1.1-8.6,0.8
		c-4.4-0.4-8.6-1.9-12.8-3.1c-1.5-0.4-2.6-1.5-3.7-2.4c-0.4-0.4-0.8-1-0.5-1.7c0.3-0.7,0.9-0.6,1.5-0.8c1.6-0.3,3.1,0.4,4.7,0.6
		C75.8,233.6,78.4,234.4,81.3,234.1z"/>
	<path d="M164.4,107.6c-1-1.2-1.8-2.2-2.6-3.1c-0.9-1-1-2-0.3-3.2c0.7-1.2,1-2.5,1.5-3.8c0.3-0.7,0.6-1.5,1-2.2
		c1.8-2.5,2.7-5.4,4.3-7.9c1.3-2.1,2.5-4.4,4.7-5.8c0.5-0.3,1.1-0.8,1.7-0.2c0.6,0.6,0.5,1.3,0.2,2.1c-0.5-0.7-0.9-2-1.7-1
		c-0.7,0.9-1.5,1.7-2.1,2.7c-2.4,3.8-4.4,7.9-6.5,11.9c-0.9,1.7-1.6,3.4-2.3,5.1c-0.5,1.2-0.4,2.1,0.6,2.9c0.8,0.7,1.7,1.3,2.1,2.4
		c0.1,0.2,0.3,0.4,0.1,0.6c-0.2,0.3-0.4,0.2-0.7,0.1c-3.2-1-5.9-3-8.5-5c-0.9-0.7-0.5-1.7,0-2.5c1.8-2.7,2.7-6,4.6-8.6
		c1.1-1.5,1.6-3.2,2.3-4.8c1-2.2,2.5-4.2,3.2-6.6c0.1-0.4,0.2-0.9,0.8-0.9c0.1,0,0.2-0.1,0.3-0.2c0.1-2.1,1.5-3.8,2.3-5.6
		c0.1-0.2,0.4-0.3,0-0.5c-0.5-0.2-0.8-0.4-0.3-0.9c0.2-0.2,0.4-0.5,0.7-0.4c0.5,0.2,0.4,0.7,0.4,1.2c-0.2,1.9-1,3.7-1.8,5.4
		c-1.8,3.7-3.4,7.4-5.3,11c-1.9,3.3-3.5,6.8-5.4,10.1c-0.2,0.4-0.5,0.9-0.7,1.3c-0.5,1-0.5,1.9,0.7,2.5
		C159.8,105.2,161.4,107.1,164.4,107.6z"/>
	<path d="M178.4,32.2c0.5,2.7,1,5.1,1.4,7.6c0.3,1.6-1.7,3.6-3.8,3.9c-1.8,0.2-3.2,1.6-3.4,3.5c-0.3,2-1.2,3.9-1.8,5.8
		c-0.5,1.7-1,3.4-1.7,5.1c0.2-1.7,0.2-3.5,0.8-5.1c0.2-0.6-0.1-1,0.1-1.6c0.8-2.6,1.8-5.2,3.2-7.6c0.5-0.9,1.7-1,2.7-1
		c1.7,0,2.9-1.3,3-2.9c0.2-1.7-0.8-3.1-0.9-4.7C177.9,34.3,177.6,33.3,178.4,32.2z"/>
	<path d="M180.7,29.4c2-1.6,5.1-1.5,6.5,0.1c1,1.1,2.2,2,2.5,3.6c0.6,3.2-1,5.2-3.4,6.9c-1,0.7-2.1,1.1-2.2,2.6
		c0,0.6,0.5,0.9,0.3,1.6c-0.6-0.3-1.5-0.6-1.4-1.3c0.2-1,0.1-2.1,1.3-2.7c1-0.5,2.1-1,2.9-1.9c1.6-1.9,2.2-4.4,0.9-6.2
		c-1.8-2.6-2.9-3.5-6.4-2.7C181.4,29.3,181.2,29.3,180.7,29.4z"/>
	<path d="M108.1,23.7c-2.8,1.4-3.9,4.1-5.4,6.6c-2,3.2-4.2,6.2-5,10c-0.4,2.1-1.2,4-1.4,6.4c-0.9-1.1-0.5-2.1-0.3-2.8
		c0.9-3,1.2-6.2,2.8-9c0.7-1.1,1.4-2.2,2.1-3.3c1.1-1.8,1.7-3.9,3.1-5.6C105.2,24.9,106,23.3,108.1,23.7z"/>
	<path d="M108.9,39.3c0.2,0.3,0.4,0.5,0.1,0.9c-1.8,2.9-3.9,5.6-6.7,7.6c-0.4,0.3-0.8,0.7-1.2,1.1c-0.6,0.6-1.1,0.5-1.6-0.1
		c1.2-0.9,2.3-1.8,3.4-2.7c0.4-0.3,0.7-0.6,1-1.1c0.2-0.4,0.4-0.8,0.7-1c1.6-1.1,2.6-2.5,3.4-4.3C108.1,39.4,108.5,39.3,108.9,39.3
		C108.9,39.3,108.9,39.3,108.9,39.3z"/>
	<path d="M42,70.6c-1.1-3.2-0.1-6.2,2.8-8.2c3.9-2.7,8.2-4.6,13-5.8c-0.5,0.8-1.2,1-1.9,1.2c-3.6,1-6.8,2.7-9.9,4.5
		c-2.7,1.6-3.8,4.1-3.8,7.2C42.1,69.9,42,70.3,42,70.6z"/>
	<path d="M45.1,70.6c1-4.3,7.6-9.1,14.2-9.1c-0.8,0.8-1.8,0.9-2.8,1c-4.6,0.8-8,3.3-10.7,7C45.6,69.9,45.4,70.3,45.1,70.6z"/>
	<path d="M55.5,78.1c0.1-5.8,3.6-11.6,8-13c-1.7,2.2-4,3.6-5.5,5.7C56.4,73,56.9,75.8,55.5,78.1z"/>
	<path d="M49.7,73.5c0.5-4.5,5.8-9.4,11-10.1C56,65.5,51.5,68,49.7,73.5z"/>
	<path d="M68.3,79.4c-2.5-4.4-2.1-9.7,1-11C66.8,72,67.2,75.6,68.3,79.4z"/>
	<path d="M65.4,67.4c-3.5,2.8-4.1,6.6-4.1,10.6C59.3,76,62,67.9,65.4,67.4z"/>
	<path d="M184,44.8c3,1.9,4.1,5.7,2.6,9.2C187.4,50.6,185.9,47.8,184,44.8z"/>
	<path d="M105.1,38.8c-1,1.1-1.4,2.7-2.3,3.9c-0.5,0.7-0.9,1.4-1.7,2c0.2-2.2,1.6-3.7,2.3-5.5C103.8,38.3,104.4,38.2,105.1,38.8
		L105.1,38.8z"/>
	<path d="M105.1,38.8c-1.2-1.1-0.3-1.8,0.3-2.8c0.9-1.4,1.6-2.9,2.5-4.6c-0.2,1.6-0.2,2.9-1.4,3.7c0.2-0.1,0.4-0.2,0.7-0.3
		C106.6,36.3,104.9,37.1,105.1,38.8C105.1,38.8,105.1,38.8,105.1,38.8z"/>
	<path d="M169.3,68.7c0.5-0.2,0.8-0.2,1,0.4c0.2,0.8,0.1,1.7,0,2.5c0,0.3-0.3,0.4-0.6,0.5c-0.5,0-0.5-0.3-0.5-0.6
		c0.1-0.5-0.4-1.2,0.5-1.6C170.3,69.6,169.2,69.3,169.3,68.7L169.3,68.7z"/>
	<path d="M70.6,65.7c0.3-1.5-0.3-2.8-0.1-4.3C71.6,62.8,71.6,65,70.6,65.7z"/>
	<path d="M178.8,31.6c-0.4-0.3-0.9-0.5-0.6-1.1c0.4-0.7,1.1-1.2,1.8-1.5c0.1,0,0.2,0.1,0.3,0.2c0.1,0.2,0,0.4-0.2,0.5
		C179.4,30.2,179,30.8,178.8,31.6z"/>
	<path d="M169.3,68.7c0-0.4-0.1-0.8,0-1.2c0.1-0.4-0.1-0.9,0.4-1c0.2-0.1,0.4,0.1,0.4,0.3c0.1,0.4,0.3,0.9-0.1,1.3
		C169.9,68.3,169.6,68.5,169.3,68.7C169.3,68.7,169.3,68.7,169.3,68.7z"/>
	<path d="M84.5,153.6c0.8-0.3,1.5-0.7,2.3-1C86.5,153.9,85.4,153.6,84.5,153.6z"/>
	<path d="M200.4,184.2c0.1,2.3-0.8,4.2-2.5,5.8c-0.5,0.5-0.7,0.5-1.2,0.1c-3.5-2.3-6.9-4.6-10.6-6.6c-2.1-1.2-3-3.1-3.3-5.5
		c-0.2-2.2,0.4-3.9,2-5.4c0.6-0.5,1-0.7,1.6-0.2c2.7,2.1,6,3.1,9.1,4.6c2.5,1.1,3.8,3.1,4.6,5.5C200.2,183,200.2,183.6,200.4,184.2z
		 M184,177.5c-0.3,2.3,0.5,4.2,2.5,5.3c3.5,2,7,4.2,10.4,6.4c0.4,0.3,0.7,0.3,1-0.1c0.4-0.5,0.9-1,1.1-1.7c1-4.3-0.6-8-4.7-9.9
		c-2.7-1.3-5.7-2.2-8.2-4c-0.4-0.3-0.5,0-0.7,0.2C184,174.6,183.7,176,184,177.5z"/>
</g>
</svg>
