<?xml version="1.0" encoding="utf-8"?>
<!-- Generator: Adobe Illustrator 18.1.1, SVG Export Plug-In . SVG Version: 6.00 Build 0)  -->
<svg version="1.1" id="Ebene_1" xmlns="http://www.w3.org/2000/svg" xmlns:xlink="http://www.w3.org/1999/xlink" x="0px" y="0px"
	 width="250px" height="250px" viewBox="112 -113 250 250" style="enable-background:new 112 -113 250 250;" xml:space="preserve">
<g>
	<path d="M349.7,115.6c-3.6,4.2-7.2,7-11.1,9.6c-7.2,4.9-13.3,0.3-19.9-7.6c-6.1-7.3-11.1-15.5-17.8-22.3
		c-6.4-6.4-13.5-9.1-22.4-7.5c-5.5,1-10.8-1.2-16.2-1.3c-2.8,0-4.7,0-4.4,3.6c0.1,1.8-0.8,3.7-1.2,5.6c-1,5.6,1.9,10.7,7.1,12.9
		c10.5,4.5,21,9,31.5,13.4c1.7,0.7,2.4,2.1,2.5,3.6c0.1,2.3-1.9,1.3-3.1,1.7c-6.7,2-13.1-1.6-19.8-1.2c-5.4,0.3-11.2-0.2-16.3-1.1
		c-5.5-0.9-10.6,2.7-15.5,0.1c-7.2-3.8-15.3,0.2-22.7-3.2c-3.3-1.4-8,0.9-12.1,1.1c-3.7,0.2-7.5-1.4-11.5,0.9
		c-2,1.1-5.8-0.2-6.7-3.4c-0.9-3.3,2.5-3.7,4.4-4.7c4.9-2.6,10.3-1.1,15.4-0.9c7.7,0.3,15.1-1.2,22.5-2.5c3.7-0.6,5.2-4.2,5.8-7.4
		c1.3-6.9,2.8-14-0.2-21.1c3.8,2.2,6.6,9.6,5.3,14.7c-0.5,2-0.8,4-1.2,6c-1.6,8-6.7,12-15.5,12.5c-2.9,0.2-5.7,0.6-9.9,1.1
		c25.4,3.8,49.7,4.2,73.7,7c0.8,0.1,2-0.7,2.1-2.5c-10.9-2.6-20.5-8.8-31.2-12.3c-6.7-2.2-10.9-11.9-8.4-19.1
		c1.5-4.4,1.3-6.1-4.1-6.8c-24.3-3-37.1-21.6-42.7-41.9c-4.8-17.4-2.3-35-0.1-52.5c0.7-5.4,4.3-9.3,9.2-11.9c7.2-3.9,7-3.9,5.2-11.4
		c-0.5-2.1-1.8-4.2-1-6.6c0.2-0.6,0.8-1.3,1.3-1.3c1.1-0.1,1.3,0.7,1.2,1.7c-0.6,4,0.7,7.6,2.8,10.8c2.1,3,0.8,4.8-1.3,6.6
		c-0.8,0.7-1.7,1.2-2.7,1.6c-7.8,3.3-10.5,9.6-11.5,17.7c-1.4,12.2-1.8,24.4-1.1,36.6c0.9,16.3,8.9,29.1,20.6,39.6
		c5.8,5.2,13.9,6.1,21.4,7.4c12.8,2.3,25.7,3.5,38.8,2.5c5.4-0.4,7.3,4.1,10.3,6.8c8.7,8,16.3,17,23.1,26.7c0.3,0.4,0.7,0.8,1,1.2
		c6.9,7.4,9.4,7.5,17.1,0.8C344.8,115.2,344.8,115.2,349.7,115.6z"/>
	<path d="M156.6-80.9c2.7,6,5.6,11.1,7.3,16.5c1.2,3.7-1.7,6.1-5.3,6c-6-0.3-9.4,2.8-12.8,7.2c-6.4,8.4-9.1,18.4-13.3,27.7
		c-6.4,14.3-6.8,30.4-13.5,44.6c-2,4.3-1.9,9.6-1.5,14.4c0.5,5.7,5,8.8,9.6,9.8c13.1,2.7,15.7,12.2,16.5,23.1
		c0.8,11.4-0.3,22.8-0.9,34.2c-0.5,9.7-0.2,9.7,8.7,12.2c6.3,1.8,12.8,2.3,20.1,1.1c-2.9-2.3-5-4.6-7.6-6.1
		c-9.1-5.5-11.7-13.8-11.3-23.9c0.5-9.9,1.3-19.7,2.5-29.5c0.5-4,1.8-6.8,6.3-7.3c2-0.2,3.8-1.7,5.8-2.1c3.3-0.8,4.1-2.8,4.5-5.9
		c1.2-10.2-0.5-20.4,0.7-30.6c1.5-13.1,3.8-26,4.3-39.2c0-1.2-0.6-3.8,2-3.3c1.7,0.3,1.2,2.4,1,3.6c-1.1,6.3-1.6,12.6-0.9,19.1
		c0.2,1.9-0.9,4.2-1.4,6.4c-2.9,13.3-1.7,26.8-2,40.2c-0.2,11.2-0.8,12.4-11.3,15.2c-4.4,1.2-6,3.6-6.4,7.5
		c-1.4,12.2-1.5,24.4-1.3,36.6c0,2,1.3,3.5,2.8,4.8c3.8,3.3,7.6,6.6,11.4,9.9c1.9,1.6,3.7,3.3,4.6,5.6c0.7,1.6,1,2.5-1.7,2.8
		c-9.8,1-19.2-0.8-28.6-2.8c-3.8-0.8-5.2-4.1-5.9-7.8c-1.3-7.3,0.3-14.4,1.1-21.6c1.1-9.7,0.3-19.2-1.2-28.7
		c-0.6-3.9-2.5-7.1-6.8-8.5c-3.8-1.2-7.2-3.5-10.7-5.4c-8.3-4.5-11.2-11.3-8.5-20c7.4-23.6,11.8-48.1,24.4-69.9
		c2.3-4,4.8-8,7.5-11.7c2.4-3.4,6-4.8,10-4c4.9,0.9,5.8-1.5,5.2-5.5c-0.3-1.9-0.9-3.6-1.7-5.4C157.1-74.2,155.5-76.8,156.6-80.9z"/>
	<path d="M355.9,111.5c2.7-6.4-1.4-5.6-4.8-5.7c-5.3-0.2-9.6,2.7-14.3,4.4c-1.5,0.6-3.1,1.5-3.8-0.8c-3.6-12-13.3-20.6-17.9-32.2
		c-1.7-4.3-2.9-8.6-3.1-12.9c-0.2-6.3-3-11.2-7.2-15.1c-3.9-3.6-7.7-7.6-12.5-10.2C280,32.1,270.6,21.7,260,12.8
		c-4.5-3.8-7.1-9.3-7.4-15.1c-0.6-11.3-6.2-18.2-17.3-21.6c4.2-0.2,5.8-2.4,6.1-5.9c0.6-6.3,6.7-8.4,10-12.7
		c5.2-6.6,4.9-13.8-0.8-20.6c-4.9,6.5-11,9.3-19.1,6.6c-2.2-0.7-4.8-0.3-6.5,1.2c-3.6,3.2-7.9,5.2-11.9,7.8
		c-9.2,5.8-18.9,9.6-29.4,11.9c-1.8,0.4-3.6,1-6.3,1.9c2.3-3.9,5.6-5.1,8.4-5.6c12.6-2.5,23.3-8.5,33.6-15.7
		c4.7-3.3,9.7-4.4,15.2-3.2c4.2,0.9,8-0.1,11.2-2.8c3-2.5,3.8-4.9-0.5-6.8c-0.7-0.3-1.7-0.4-1.7-2c4.8,0.6,7.7,3.7,10.2,7.2
		c3.2,4.5,4.7,10.3,4,15.3c-0.7,4.9-5.2,8.9-9.5,11.9c-5.6,4-6.4,9.9-1.1,14.6c5,4.4,7.3,9.9,8,16.3c1.1,8.7,4.7,15.8,12.3,20.6
		c4.3,2.7,7.4,6.7,11.1,10.1c8.2,7.2,18.2,12.1,26.1,19.8c5.3,5.1,9.8,10,10.2,18.3c0.4,8.7,4,16.8,9.3,23.9c2.1,2.8,4,5.6,5.9,8.5
		c5.8,8.8,5.8,8.8,16.1,6c4.2-1.2,8.2-1.4,12,1c1.9,1.2,4,3.2,3.5,5.4C361.4,111.6,358.5,110.5,355.9,111.5z"/>
	<path d="M253.2-74.2c-3.4-2.8-3.3-3.9,0.8-6.6c1.3-0.9,3.6-0.8,2.2-3.4c-1-1.9-1.9-3.2-4.4-2c-2.4,1.1-3.6-1.1-3.1-2.6
		c1.3-3.5-0.4-5.2-3.2-5.7c-3-0.5-3.9,2.5-4.9,4.6c-0.6,1.2-0.4,2.7-0.7,4.3c-2.8-0.4-3.1-2.5-3.3-4.5c-0.4-4-2.9-6.3-6.3-7.6
		c-5.2-2-9.5,0.9-9.7,6.5c-0.2,4.1,1.9,7.2,4.4,10.2c1.6,1.9,4.2,3.2,4.1,6.8c-2.9-0.6-3.7-3-5.2-4.7c-3.2-3.5-5.7-3.4-8.3,0.6
		c-2.1,3.2-2.7,6.8-2.3,10.5c0.4,3.9,4.8,5.2,7.8,1.7c5.5-6.6,13.1-6.2,20.2-7.4c1-0.2,2.1,0.1,2.1,1.6c-8.2,0.9-16.3,1.7-22.1,8.7
		c-0.9,1.1-2.5,2-3.9,2.5c-12.9,5-25.7,10.4-39.4,12.9c-4,0.7-5.4-0.9-4.4-4.4c1.5-5.4,3-10.7,5.1-15.8c1.8-4.2,5.8-1.3,8.8-1.8
		l-0.1-0.1c-7.9,3.2-6.9,11.8-10.5,17.7c-1.5,2.5,1.2,2,3,1.6c9.4-2,18.2-5.5,27-9c2.4-1,4.9-1.7,7.8-2.7c-2.9-3.6-5.7-7.9-3.8-12.4
		c1.5-3.7,0.8-10.4,8.7-8.8c-1.8-6-4.7-12.2,1.4-16.6c4.6-3.3,11.3-0.5,17.1,6c5.1-4.9,9.5-4.6,12.7,1.6c1.4,2.7,4.2,3.6,5.7,5.9
		c2,2.9,3.9,5.6-0.9,7.8c-1.9,0.8-2.2,2.9-2.6,4.8L253.2-74.2z"/>
	<path d="M187.5-69.9c-2.1-1.6-2.8-2.9-0.2-4.9c2.2-1.7,3.7-4.1,5.6-6.1c1.2-1.2,1.6-2.6,1.6-4.2c0.1-6.2-9.2-17.2-15.3-18.1
		c-7.3-1.1-15.6,4.9-17.6,13.1c-0.8,3.2-1.3,6.6-1.9,10.2c-5.8-8.4,0.6-22.6,10.5-24.1c13.1-2.1,24.9,5.1,29,17.7
		c1.8,5.5-5.1,15.2-11.8,16.4C187.4-70,187.5-69.9,187.5-69.9z"/>
	<path d="M253.1-74.1c1.7-0.5,3,0.5,4.3,1.3c2.4,1.4,3.5,3.6,2.5,6.1c-1.2,2.8-3.6,0.7-6.3,0.9c10.1-4.4-0.4-5.6-0.4-8.4
		C253.2-74.2,253.1-74.1,253.1-74.1z"/>
</g>
</svg>
