<?xml version="1.0" encoding="utf-8"?>
<!-- Generator: Adobe Illustrator 18.1.1, SVG Export Plug-In . SVG Version: 6.00 Build 0)  -->
<svg version="1.1" id="Ebene_1" xmlns="http://www.w3.org/2000/svg" xmlns:xlink="http://www.w3.org/1999/xlink" x="0px" y="0px"
	 width="250px" height="250px" viewBox="0 0 250 250" style="enable-background:new 0 0 250 250;" xml:space="preserve">
<g>
	<path d="M63.3,160.3c-1.1,0.9-2,1.8-3,2.7c-1.2,1.2-2.3,2.5-3.9,3.4c-1.2,0.7-2.3,1.6-3,2.7c-0.7,1.1-1.9,1.4-2.8,2.2
		c-0.5,0.4-1,0.6-1.1,1.4c-0.1,0.6-0.9,0.7-1.1,1.2c-0.4,0.8-0.9,0.1-1.3,0.1c-1.6,0.1-3.3,0.2-4.9,0.6c-1.4,0.4-2.7,0.9-4.2,0.9
		c-0.8,0-1.4,0.5-2.1,0.8c-4.4,1.9-7.8,5-11,8.5c-3.4,3.7-6,7.8-8.5,12c-1.5,2.5-2.1,5.4-2.6,8.2c-0.6,3.5-1.4,6.9-2.4,10.3
		c-0.2,0.6-0.5,1.1-0.6,1.7c-0.3,2.2,1.1,3.7,2.5,5.1c2.8,3.1,6.5,5.1,10,7.1c2.9,1.7,6.2,2.6,9.6,2.6c1.9,0,3.8,0.6,5.7,0.5
		c1.9-0.1,3.7-0.4,5.5-0.9c0.8-0.2,1.2-0.9,1.5-1.6c1.6-3.4,3.3-6.7,4.9-10.1c1-2.1,1.5-4.4,2-6.6c0.9-4.1,2.4-8,3.5-12
		c0.7-2.5,1.5-5,1.6-7.7c0.1-2.9-1-5.5-2.3-8c-1.5-2.8-3.3-5.3-4.9-8c-0.1-0.2-0.2-0.3-0.3-0.5c-0.3-0.5-1.2-0.6-1-1.2
		c0.1-0.4,0.7-0.7,1.1-1c1.7-1.3,2.8-3.1,4.3-4.5c2-1.9,4.1-3.7,6.3-5.4c0.3-0.2,0.7-0.5,1-0.1c0.3,0.3,0.2,0.8-0.2,1.1
		c-0.4,0.3-0.7,0.6-1.1,0.8c-3.2,2.3-5.8,5.1-8.2,8.1c-0.5,0.6-1.6,1-1.5,1.9c0.1,0.7,0.7,1.5,1.2,2.1c2.1,2.6,3.5,5.6,5.3,8.4
		c0.7,1,0.7,2.1,0.9,3.2c0.6,3,0.1,5.9-0.7,8.8c-0.8,2.8-1.8,5.5-2.5,8.3c-0.6,2.5-1.3,5-2,7.5c-0.2,0.7,0,0.8,0.7,0.8
		c0.6-0.1,1.3,0,1.9,0.1c2.2,0.3,2.6,1.8,2.3,3.6c-0.4,2.3-1,4.5-1.8,6.6c-0.9,2.1-1.5,4.3-2.8,6.2c-0.1,0.2-0.2,0.4-0.3,0.7
		c-0.6,2.2-2.1,3.4-4.2,4c-1.6,0.4-4-1.4-4.2-3c-0.1-0.5-0.1-1-0.1-1.5c-1.2,0.3-2.4,0.7-3.6,0.9c-2,0.3-4,0.4-5.9-0.1
		c-1.7-0.4-3.5-0.1-5.3-0.4c-3.3-0.5-6.2-1.7-8.9-3.5c-2.4-1.5-4.8-3-7-4.8c-1.6-1.3-3.2-2.9-4.1-5c-0.2,0.4-0.4,0.6-0.5,0.9
		c-0.7,1.7-2.2,2.2-3.9,2.4c-1,0.1-2.8-1.3-3.3-2.6c-0.7-1.8-0.7-3.7-0.1-5.4c0.5-1.5,0.6-3,0.9-4.5c0.3-1.4,0.8-2.7,1.4-3.9
		c0.7-1.6,1.6-3.1,3.1-4.2c0.7-0.6,1.2-0.8,2.3-0.7c1.3,0.1,2.1,0.8,3,1.6c0.4-2.7,1.3-5.2,2.6-7.5c1.6-2.8,3.4-5.6,5.3-8.2
		c1.7-2.5,3.9-4.6,6.1-6.6c1.7-1.7,3.6-3.1,5.7-4.4c1.9-1.2,3.9-1.9,6-2.2c2.3-0.4,4.4-1.2,6.7-1.3c0.7,0,1.5-0.3,2.2,0.1
		c0.4,0.2,0.5-0.1,0.7-0.3c4-3.7,8-7.4,12-11.1c0.5-0.4,0.8-1,1.4-1.3c1.7-0.9,1.6-2.4,1.3-4c-0.4-2.3-0.7-4.7-0.5-7.1
		c0.1-2.1,0.1-4.4,0.7-6.4c0.6-2,1.6-3.9,3-5.6c1.9-2.3,4.3-3.9,6.7-5.4c0.9-0.6,1.9-1,3-1.1c0.9-0.1,1.8-0.3,2.6-0.5
		c2-0.7,3.6,0.5,5,1.6c0.8,0.6,1.6,1.4,2.2,2.2c1.1,1.4,1.2,2.8,0.5,4.5c-0.4,1.1-0.8,2.2-1.2,3.3c-0.7,1.7-1.7,3.2-2.8,4.6
		c-2.4,2.8-5.1,5.3-7.7,7.9c-1.6,1.6-3.4,3-5.2,4.4c-1,0.8-2,1.5-1.6,3.3c0.6,3,0.7,6,0.6,9.1c0,3.1,0,6.3,0.1,9.4
		c0.1,4.3,0.2,8.6,0.6,13c0.2,2,0.2,4,0.2,6c0,2.3,0.3,4.6,0.5,6.8c0.2,3.2,0.5,6.3,0.6,9.5c0.1,3.3-0.4,6.6,0.3,10
		c0.5,2.9,1.4,5.8,1.1,8.9c0,0.4,0.2,0.7,0.7,0.7c1-0.1,1.9,0.2,2.9,0c1.2-0.3,2,0.1,2.9,0.9c1.3,1.2,2.5,2.4,3.8,3.7
		c1.1,1.2,1,1.9-0.3,2.8c-1.2,0.7-2.5,0.8-3.8,0.9c-2,0.2-4,0.7-5.9,1.2c-2.3,0.6-4.7,1-7.1,1.3c-1.7,0.2-3.4,0.8-5.1,0.7
		c-0.2,0-0.5,0-0.7,0c-1.9-0.2-2.2-0.7-1.5-2.5c0.9-2.1,2.2-4,3.6-5.8c0.7-0.9,1.8-0.7,2.6-1.2c0.4-0.3,1-0.5,1.5-0.7
		c2.1-0.9,2.2-1,2.2-3.2c0-2.9-0.1-5.7-0.3-8.5c-0.2-2.1-0.6-4.2-0.9-6.2c-0.3-2.2-0.4-4.5-0.5-6.7c-0.1-3-0.3-6.1-0.6-9.1
		c-0.2-1.8-0.2-3.6-0.3-5.4c-0.2-1.9-0.2-3.7-0.4-5.6c-0.2-2-0.2-4-0.2-6c0.1-3.7-0.2-7.4-0.4-11c-0.2-3.6-0.2-7.1-0.3-10.7
		C63.4,162.8,63.2,161.6,63.3,160.3z M67.4,158.6c1.9-1.1,3.4-2.7,5-4.1c2.2-1.9,4.1-4.3,6.3-6.3c1.9-1.8,3.7-3.8,4.8-6.2
		c0.6-1.4,1.3-2.8,1.8-4.2c0.5-1.5,0.5-3-0.9-4.2c-0.6-0.5-1.2-1.2-1.8-1.7c-0.5-0.5-1.2-0.9-1.9-0.9c-2.7,0.2-5.5,0.4-7.8,2.2
		c-0.9,0.7-1.8,1.3-2.6,2c-3.7,2.7-5.9,6.2-6.3,10.8c-0.4,4.6-0.2,9.2,0.3,13.8c0.4,3.6,0.5,7.3,0.5,11c0,2.7,0.3,5.3,0.4,8
		c0.1,2.5,0.3,5,0.2,7.6c-0.1,2.3,0,4.7,0.2,7c0.4,4.8,0.5,9.7,1,14.5c0.3,2.6,0.4,5.2,0.6,7.9c0.4,5,1.1,10,1.3,15
		c0.1,1.4-0.3,2.9,0.1,4.3c0,0.1-0.1,0.3-0.2,0.5c-0.6,1.5-1.9,1.8-3.2,2.2c-1.6,0.6-3.2,1.2-4.2,2.7c-1,1.6-1.8,3.3-2.7,4.9
		c-0.3,0.6,0.1,0.5,0.5,0.5c1.4,0,2.7-0.3,4-0.5c3.5-0.6,7.1-1.1,10.6-2c1-0.2,1.9-0.6,2.9-0.7c1.6-0.2,3.1-0.5,4.6-0.7
		c0.6-0.1,0.8-0.3,0.3-0.8c-1.2-1.1-2.2-2.3-3.4-3.5c-0.6-0.5-1.2-1.4-1.9-1.4c-1,0.1-2,0-3,0c-1.8,0.1-2.3-0.3-2.3-2.1
		c0-2.1-0.4-4.2-0.8-6.2c-0.5-2.9-1-5.7-0.7-8.6c0.2-2.1,0.1-4.3-0.1-6.4c-0.5-6-1-12.1-1.1-18.1c-0.1-2.8-0.6-5.7-0.6-8.5
		c-0.1-5.3-0.3-10.6-0.1-15.9c0.1-4.6-1-9.2-0.9-13.9c0.1-4.1,0.5-8,1.6-12c0.6-2.1,1.5-4.1,2.6-5.9c1.3-2.1,3.2-3.8,5.5-4.9
		c1.5-0.7,3-1.1,4.6-0.6c1.4,0.4,2.8,1,3,2.6c0.3,2.5-0.3,4.9-2,6.7c-1,1.1-2,2.3-3.2,3.3c-1,0.8-2,1.8-3,2.6
		c-1.2,1-2.5,2.1-3.5,3.3c-0.9,1.1-1.8,2-2.8,2.9c-0.6,0.5-0.9,1.1-1.6,1.4C67.8,156.7,67,157.6,67.4,158.6z M67.6,154.2
		c0.2-0.1,0.3-0.2,0.4-0.3c3.5-3.8,7.4-7.2,11.1-10.8c2.1-2,3.6-4.3,3.2-7.5c-0.1-1.1-0.6-1.6-1.7-1.8c-2-0.4-3.5,0.5-5.1,1.4
		c-2,1.2-3.4,3-4.4,5.1c-0.7,1.3-1.2,2.7-1.8,4.1c-0.8,1.7-0.8,3.6-1.3,5.4C67.7,151.2,67.8,152.7,67.6,154.2z M3.1,218.2
		c0,0.2,0,0.5,0,0.7c0.1,2.3,2,3.3,3.9,2.1c1.5-1,2.4-2.6,2.8-4.2c0.4-1.8,0.8-3.6,1.3-5.3c0.5-1.9,1-3.9,1.3-5.8
		c0.3-1.8-0.5-2.8-2.3-3c-1-0.2-1.7,0.5-2.3,1c-1.1,1-1.6,2.3-2.3,3.7C3.9,210.8,3.7,214.5,3.1,218.2z M46.1,233.4
		c0.1,2,1.6,2.9,3.3,2.2c1.1-0.4,1.7-1.2,2.3-2.2c1.1-2.1,2.1-4.3,3-6.5c1-2.7,1.9-5.4,2.4-8.2c0.1-0.6,0.3-1.5-0.6-1.8
		c-1.4-0.5-3.5,0.4-4.1,1.7c-1.7,3.7-3.5,7.4-5.1,11.1C46.7,230.8,45.8,232,46.1,233.4z"/>
	<path d="M194.1,159.7c-1.1,0.1-1.8,0.6-2.4,1c-0.4,0.3-0.9,0.8-1.4,0.2c-0.4-0.5-0.3-1.1,0.1-1.6c0.4-0.6,0.9-1.3,1.3-2
		c-0.8-0.2-1.4,0.2-2,0.4c-0.4,0.2-0.9,0.4-1.2,0c-0.4-0.4-0.2-1,0-1.4c0.4-0.7,0.9-1.3,1.4-2c-0.6,0-1.2,0-1.7,0
		c-0.4,0-0.9,0.1-1.1-0.3c-0.2-0.5,0-0.9,0.4-1.2c0.7-0.6,1.4-1.1,2.2-1.6c0.1-0.1,0.3-0.2,0.6-0.4c-0.7-0.1-1.2-0.1-1.7,0.1
		c-0.3,0.1-0.5,0-0.7-0.2c-0.2-0.3-0.2-0.5,0-0.8c0.5-0.9,1.2-1.5,2-2.2c0.2-0.2,0.6-0.2,0.5-0.5c-0.1-0.4-0.5-0.3-0.7-0.4
		c-0.7-0.2-1.3-0.3-2-0.4c-0.3-0.1-0.5-0.2-0.5-0.5c0-0.3,0.1-0.6,0.5-0.6c1.5-0.2,2.5-1.5,3.9-2.1c-0.8-0.6-1.5-0.8-2.3-0.8
		c-1.2,0-1-1.1-1.5-1.7c-0.2-0.2,0.3-0.3,0.5-0.4c0.9-0.4,2-0.5,3-1.2c-0.4,0-0.6-0.1-0.9-0.1c-0.4,0-1.1,0.2-1.1-0.4
		c0-0.4,0.2-1.1,0.9-1.3c0.9-0.3,1.7-0.7,2.5-1.4c-0.5-0.3-0.9-0.4-1.3-0.1c-0.4,0.4-0.8,0.2-1-0.2c-0.3-0.5,0.1-0.8,0.5-0.9
		c1.2-0.5,2.1-1.3,3.1-2.4c-1,0.3-1.7-0.4-2.5-0.2c-0.3,0.1-0.6,0.3-0.7-0.2c-0.1-0.4,0.2-0.6,0.5-0.7c0.9-0.3,1.8-0.8,2.6-1.3
		c-0.3-0.8-0.9-1-1.7-0.8c-0.4,0.1-0.8,0.1-0.8-0.5c0.1-0.5,0.2-0.7,0.8-0.5c0.8,0.2,1.6,0,2.3-0.6c-0.5-0.5-1-0.3-1.6-0.2
		c-0.4,0.1-0.9,0.1-1-0.4c-0.1-0.6,0.4-0.5,0.7-0.7c0.6-0.3,1.3-0.5,2-0.7c0.3-0.1,0.8-0.4,0.7-0.7c-0.1-0.4-0.4-0.8-1-0.7
		c-0.2,0-0.5,0-0.7,0c-0.3,0-0.6,0-0.7-0.5c0-0.4,0.4-0.5,0.6-0.4c0.5,0.1,1-0.1,1.4-0.4c0.4-0.3,1.1,0.1,1.3-0.6
		c-0.8-0.1-0.7-1.4-1.8-1.1c-0.5,0.1-1.1,0-1.5-0.5c-0.1-0.2-0.1-0.3,0.1-0.5c0.5-0.4,1-0.1,1.5-0.1c0.4,0,0.8,0.2,1.2,0.2
		c0.3,0,0.9-0.1,0.7-0.5c-0.1-0.3-0.2-1.1-0.9-0.9c-0.4,0.1-0.9,0.3-1.3,0.2c-0.2-0.1-0.4-0.2-0.4-0.4c0-0.2,0.1-0.3,0.3-0.4
		c0.7-0.1,1.4-0.3,2.1-0.4c0.5-0.1,1-0.2,1.3-0.5c0.2-0.1,0.6-0.2,0.3-0.6c-0.1-0.2-0.3-0.6-0.7-0.4c-0.2,0.1-0.4,0.4-0.6,0.1
		c-0.2-0.3-0.1-0.6,0.2-0.9c1.4-1.3,2.8-2.5,4.6-3.2c1-0.4,2-1,3.2-1c0.5,0,0.9-0.3,1-0.9c0.2-0.7,0.4-1.3,0.7-1.9
		c0.8-1.5,2.2-1.4,3.6-1.2c2.8,0.3,5.4,1.4,8.1,2.1c2.7,0.7,5.5,1.3,8.3,1.9c2.5,0.6,4.9,1.4,7.4,1.7c2.6,0.3,5,1.2,7.5,1.8
		c2.4,0.5,4.8,1.2,7,2.4c0.2,0.1,0.4,0.3,0.5,0.5c0.8,1.9,1.4,3.8,0.9,6c-0.5,2.2-1,4.4-1.6,6.5c-1.4,4.3-2.1,8.8-3.5,13.1
		c-1,3-1.8,6-2.5,9.1c-0.6,2.7-0.9,5.6-1.3,8.3c-0.3,2-1.8,3.5-3.8,3.1c-2.6-0.5-5.3-1.2-7.9-1.8c-3.2-0.8-6.4-1.7-9.6-2.5
		c-3.4-0.8-6.9-1.3-10.3-2.4c-0.9-0.3-1.3-0.2-1.8,0.8c-1.2,2.3-3.1,4.1-5,5.8c-0.9,0.8-2.1,1.1-2.9,2c-0.5,0.5-1.1,0.5-1.6,0.1
		c-0.5-0.4-0.9-0.9-0.7-1.6c0.1-0.3,0.1-0.5,0.1-0.8c0.1-0.9-0.4-0.9-1-0.6c-0.6,0.3-1.1,0.7-1.8,1c-1.1,0.5-1.9-0.1-1.8-1.3
		c0.1-0.7,0.2-1.4,0.7-2C193.7,160.6,193.8,160.2,194.1,159.7z M205,138.5c0.6-3.9,1-7.7,2.2-11.5c1-3.2,2.3-6.3,3.9-9.2
		c1-2,2.5-3.4,5.2-3c1.5,0.2,3,0.7,4.4,1.3c0.4,0.2,0.8,0.4,1.1,0.8c1.7,1.9,2.4,4.2,2.2,6.7c-0.5,5-2.4,9.5-4.2,14.1
		c-0.8,2.2-1.7,4.3-2.5,6.5c-1.2,3.2-2.5,6.1-6.1,7.3c-0.5,0.1-1,0.3-1.1,1c-0.3,1.2-0.6,2.3-1,3.4c-0.2,0.5,0,0.7,0.4,0.8
		c1,0.2,2,0.5,3,0.7c6.2,1.3,12.4,2.8,18.5,4.4c2.2,0.6,4.3,1.3,6.6,1.4c1,0.1,1.8-0.6,2-1.6c0.9-5.7,2-11.4,3.8-17
		c0.9-3.1,1.3-6.3,2.2-9.3c1.1-4.1,2.2-8.2,3.2-12.3c0.3-1.4-0.2-2.8-0.6-4.1c-0.1-0.2-0.2-0.3-0.4-0.4c-1.1-0.2-2-0.8-3.1-1.1
		c-2.2-0.5-4.5-1.1-6.6-1.8c-3.7-1.2-7.4-1.6-11.1-2.6c-3.7-1-7.4-1.7-11.1-2.7c-1.6-0.4-3.1-1.1-4.8-1.3c-0.6-0.1-1.4,0.1-1.9-0.2
		c-1-0.5-1.2,0.1-1.5,0.8c-0.5,1.1-0.7,2.3-0.9,3.5c-0.9,5.5-2.4,10.9-4,16.3c-0.9,3.2-1.8,6.4-2.7,9.6c-1.1,4-1.7,8.1-2.3,12.1
		c-0.2,1.5-0.1,1.9,1.3,2.4c2.2,0.8,4.4,1.4,6.7,2c2.1,0.6,2.1,0.6,2.8-1.5c0.1-0.2,0.1-0.4,0.3-0.6c0.7-1.1,0.4-2.1-0.4-3.1
		c-1.3-1.5-2.2-3.3-2.6-5.3C205,142.8,204.8,140.7,205,138.5z M206.4,141.6c0,0.6,0,1.2,0,1.8c0.2,2.5,1.1,4.6,2.6,6.6
		c0.3,0.4,0.6,0.7,1.2,0.5c2.6-0.8,4.3-2.5,5.2-4.9c1.9-5,3.9-10,5.7-15.1c1-3.1,1.9-6.2,1.7-9.4c-0.1-2.2-1.4-3.8-3.4-4.5
		c-1-0.3-2.1-0.5-3.2-0.8c-1-0.2-1.8,0.1-2.7,0.6c-1.2,0.7-1.4,1.9-1.9,3c-1.6,3.3-2.9,6.6-3.7,10.1
		C206.9,133.4,206.2,137.5,206.4,141.6z M205.5,112.5c-0.3,0-0.4-0.1-0.5-0.1c-2.5,0-4.4,1.4-6.3,2.9c-0.4,0.3-0.1,0.6,0,0.8
		c0.6,1.1,0.5,1.6-0.6,2.1c-0.7,0.3-0.5,0.5-0.2,0.9c0.4,0.6,0.4,1.2-0.5,1.5c-0.5,0.1-0.6,0.4-0.4,0.9c0.4,0.7,0.4,1.5-0.4,1.9
		c-0.3,0.2-0.3,0.3-0.1,0.6c0.2,0.2,0.3,0.4,0.3,0.7c-0.1,0.9-1.3,0.9-1.5,1.5c-0.2,0.6,0.6,1.4-0.2,2c-0.4,0.3-0.4,0.5-0.2,0.9
		c0.4,0.7,0.4,1.3-0.5,1.6c-0.4,0.2-0.8,0.4-0.2,0.9c0.7,0.7,0.4,1.4-0.3,2c-0.3,0.2-0.6,0.4-1,0.7c0.9,0.5,1.4,1.2,0.8,2.1
		c-0.5,0.7-1.3,0.9-2.3,1.4c1,0.1,1.2,0.5,1.3,1.1c0.1,0.6-0.4,0.8-0.8,1.1c-0.8,0.5-1.8,0.6-2.8,0.9c0.3,0.4,0.7,0.3,1.1,0.3
		c0.7,0.1,1.4,0.3,1.9,0.9c0.7,0.9,0.6,1.5-0.4,1.9c-0.5,0.2-0.8,0.6-1.2,0.9c-0.4,0.3-0.5,0.5,0.1,0.9c1.1,0.7,1.2,1.6,0.2,2.5
		c-0.4,0.3-0.8,0.7-1.2,1.1c0.2,0.1,0.3,0.1,0.4,0.1c0.8-0.1,1.2,0.4,1.4,1.2c0.2,0.8-0.5,0.9-0.9,1.2c-0.4,0.3-1,0.4-1.2,1
		c0.3,0.3,0.6,0.2,0.9,0.1c0.5-0.1,0.9,0,1.2,0.5c0.3,0.5,0.1,0.8-0.3,1.2c-0.4,0.4-0.8,1-1.2,1.5c1.1,0.1,2.1-1.1,2.9,0.1
		c0.7,1.1-0.5,1.8-0.9,2.8c0.6-0.2,1-0.3,1.4-0.4c1.2-0.3,1.8,0.2,1.5,1.5c-0.1,0.5-0.3,0.8-0.5,1.2c-0.2,0.3-0.5,0.7-0.6,1.1
		c-0.1,0.2-0.1,0.6,0,0.8c0.2,0.3,0.5,0,0.7-0.1c0.6-0.3,1.1-0.6,1.6-1c0.4-0.3,0.9-0.7,1.4-0.4c0.6,0.3,0.7,0.8,0.7,1.4
		c0,0.3,0,0.5,0,0.8c0,0.4-0.2,0.9,0.4,1.1c0.6,0.2,0.8-0.3,1.2-0.6c0.4-0.3,0.5-0.9,1.1-1.1c2.7-1.2,4.3-3.5,5.9-5.9
		c0.3-0.5,0.2-0.8-0.4-0.9c-2.3-0.3-4.4-1.2-6.6-1.8c-1.2-0.3-2.6-0.7-3.1-2.2c-0.3-1.1-0.1-2.2-0.1-3.2c0.2-3.2,1-6.3,1.7-9.4
		c1.1-4.3,2.2-8.6,3.6-12.8c1.2-3.8,2.1-7.7,3.1-11.6C205.2,114.6,204.8,113.5,205.5,112.5z"/>
	<path d="M140.7,198.8c0.6-0.9,0.5-2.4,1.3-2.7c0.7-0.3,1.8,0.4,2.6,1c1.2,0.8,2.6,0.8,3.9,1.3c1,0.4,1.2,1.1,1.1,2
		c-0.1,0.6-0.2,1.2-0.3,1.8c-0.1,0.4-0.2,0.8,0.2,1.1c0.3,0.3,0.4,0.7,0.3,1c-0.2,2.1-0.4,4.3-0.9,6.3c-1.1,3.6-1.4,7.3-2.5,10.9
		c-1,3.3-1.5,6.8-3.3,9.8c-0.6,1.1-1.1,2.3-1.3,3.6c-0.4,1.9-1.8,2.7-3.5,1.8c-2.3-1.2-4.6-2.2-7.1-3.1c-2.2-0.8-4.6-1.2-6.7-2.2
		c-2.7-1.3-5.4-0.7-8.2-1.1c-2-0.2-3.8-1-5.6-2.1c-0.9-0.5-1.7-1.1-2.4-1.9c-1-1.2-2.4-1.5-3.7-2c-5.1-1.9-10.1-3.8-15.3-5.5
		c-2-0.6-3.8-1.5-5.7-2.3c-1-0.4-1.5-1.2-1.4-2.3c0.3-2.4,0.7-4.7,1.3-7c1-3.9,2.7-7.6,4.3-11.3c0.5-1.1,0.8-2.3,1.2-3.4
		c0.4-1.3,0.8-2.6,1.6-3.7c0.2-0.3,0.3-0.7,0.4-1c0.3-1.1,1.1-1.7,2.3-1.3c0.3,0.1,0.5,0.2,0.7,0.3c0.8,0.3,1.8,0.9,1.9-0.8
		c0-0.6,0.7-1.2,1.1-1.8c0.3-0.4,0.6-0.3,1-0.1c1.4,0.9,3,1.2,4.7,1.4c0.5,0.1,1,0,1.4,0.2c1.3,0.6,2.3,0.4,2.9-1
		c0.1-0.3,0.4-0.4,0.8-0.2c1.3,0.8,2.8,1.2,4.3,1.4c0.9,0.1,1.7,0.5,2.5,0.8c0.8,0.3,1.2,0.9,0.9,1.8c-0.2,0.6-0.3,1.2-0.3,1.8
		c0,0.4-0.8,0.8,0,1.1c0.6,0.2,1.3,0.6,1.8-0.3c0.5-0.9,1.3-1.6,1.8-2.5c0.4-0.7,0.9-0.8,1.7-0.5c4.1,1.4,8.2,2.6,12.4,3.5
		c1.4,0.3,2.7,0.8,4,1.3c1.1,0.4,1.8,1.8,1.7,2.9C138.6,197.1,139.5,197.9,140.7,198.8z M105.7,223.8c-0.5-1.5-1.6-2.5-1.8-3.9
		c-0.5-3.1-0.9-6.2-0.4-9.4c0.5-3.5,1.9-6.4,4.6-8.6c1.7-1.4,3.4-2.5,5.5-3.2c1.7-0.6,3.3-0.6,5-0.8c3.9-0.6,7.6,0,10.8,2.2
		c4.2,2.8,7.1,6.6,8.1,11.7c0.7,3.5,0.4,7-1.3,10.2c-1.2,2.2-3.1,3.9-4.9,5.6c-1.8,1.7-4,2.5-6.7,2.8c0.5,0.2,0.7,0.3,1,0.4
		c1.9,0.6,3.8,1,5.7,1.7c2.5,1,5,2,7.5,3.1c1.1,0.5,1.8,0.1,2.1-1.1c0.2-0.9,0.2-2,0.7-2.7c1.8-2.8,2.3-6,3.3-9.1
		c0.6-1.7,0.8-3.5,1.2-5.2c0.4-2,0.9-4,1.3-6c0.1-0.3,0.1-0.5-0.3-0.7c-2.8-0.8-5.2-2.5-8-3.4c-1.9-0.6-2.1-1.7-1.9-3.3
		c0.4-2.6,0.6-5.1,0.4-7.7c-0.2-2.8-0.3-2.4-2.4-3c-4.9-1.4-9.9-2.7-14.8-4.3c-0.7-0.2-1,0.2-1.1,0.8c-0.3,1.3-1.2,2.3-2,3.2
		c-1.3,1.6-2.6,3.2-3.9,4.8c-0.7,0.9-2.2,1.6-3.3,1.3c-1.5-0.4-2.9-0.8-4.3-1.2c-4.7-1.6-9.5-2.7-13.9-4.8c-1.3-0.6-1.9-0.4-2.3,1.1
		c-0.6,2.4-1.8,4.7-2.8,7c-1.7,4.1-2.7,8.4-3.4,12.8c-0.1,0.6,0.1,1,0.6,1.3c0.5,0.3,0.9,0.6,1.5,0.8c2.9,0.9,5.7,2.3,8.6,3.3
		C98,220.5,101.8,222.1,105.7,223.8z M120,229.5c1.2,0.1,2.7,0.1,4.2-0.1c2.1-0.3,4.2-0.7,5.8-2.2c1.3-1.2,2.5-2.4,3.6-3.7
		c2.6-3.1,3.3-6.8,2.8-10.7c-0.5-4.1-2.6-7.3-5.6-10.1c-2.6-2.5-5.7-3.7-9.2-4.1c-3-0.4-5.9,0.4-8.6,1.3c-3.5,1.2-6.2,3.8-7.7,7.4
		c-1.1,2.9-1.3,6-1,9.1c0.5,5.8,3.5,9.7,8.7,12.2C115.3,229.5,117.5,229.4,120,229.5z M92.8,187.5c-0.3,0-0.6,0-0.7,0.3
		c-0.4,0.8-0.8,1.6-1.2,2.3c-0.3,0.5-0.2,0.9,0.4,1.2c2.3,1.1,4.7,2.1,7.2,2.9c1.2,0.4,2.4,0.6,3.6,1.1c2.3,1,4.8,1.3,7.2,2.2
		c1.1,0.4,2,0.1,2.8-0.5c1.5-1.1,2.3-2.6,3.4-4c0.3-0.4,0-0.5-0.3-0.5c-2.1-0.5-4.3-1.2-6.4-1.6c-3.8-0.7-7.6-1.3-11.3-2.2
		C95.9,188.2,94.4,187.9,92.8,187.5z M138.8,198.8c0,0.5,0,0.9,0,1.3c-0.1,1.7-0.1,3.4-0.3,5c-0.1,0.9,0.3,1.3,1.1,1.6
		c0.4,0.1,0.8,0.3,1.2,0.4c2,0.8,3.9,2,6,2.7c0.7,0.2,1,0.1,1.2-0.6c0.3-1.3,0.4-2.7,0.5-4c0.1-1.3-0.2-2-1.4-2.5
		C144.2,201.6,141.4,200.5,138.8,198.8z M105.8,188.6c-0.2,0.7,0.4,0.7,0.8,0.7c2,0.3,3.9,0.6,5.9,1.1c1.8,0.5,1.7,0.4,2.3-1.4
		c0.3-1,0-1.3-0.9-1.6c-2-0.5-4-0.9-5.9-1.7c-0.1-0.1-0.3-0.2-0.4,0C106.9,186.8,105.6,187.3,105.8,188.6z M105.2,187.8
		c0.1-1-0.7-0.9-1.3-1c-1.8-0.3-3.5-0.6-5.1-1.2c-1.3-0.5-1.5-0.4-2.1,0.8c-0.2,0.5-0.2,0.7,0.4,0.8c1.5,0.3,3,0.5,4.5,0.9
		c0.9,0.2,1.9,0,2.6,0.4C105.3,189.1,105.1,188.4,105.2,187.8z M142.9,197.9c-0.8-0.2-0.8,0.4-1,0.6c-0.3,0.5,0,0.8,0.4,1
		c1.8,0.8,3.6,1.5,5.3,2.2c0.3,0.1,0.8,0.5,0.8,0c0-0.6,0.9-1.5,0-1.8C146.7,199.1,144.6,198.5,142.9,197.9z"/>
	<path d="M106.4,123.5c-1,0.7-2.1,0.7-3.2,1c-1.3,0.3-2.6-0.9-2.9-2.2c-0.4-2.3-1-4.6-1.4-6.9c-0.5-2.6-1.2-5.2-1.6-7.9
		c-0.3-2.2-0.9-4.3-1.3-6.5c-0.3-1.6-0.6-3.2-0.8-4.9c-0.2-1.4-0.7-2.7-1-4c-0.4-2.1-0.7-4.3-1.3-6.4c-0.3-1-0.5-2-0.3-3.1
		c0.2-1.4,1-2,2.5-2.2c2.1-0.3,4.1-0.5,6.2-0.9c2.6-0.5,5.2-1.3,7.9-1.5c0.8,0,1.7-0.4,2.4-0.6c1.5-0.6,3.1-0.7,4.6-1
		c1.6-0.3,3.3-0.2,4.9-0.6c2.5-0.6,4.9-0.9,7.4-1.1c1.4-0.1,2.8-0.3,4.2-0.1c0.7,0.1,1.6-0.2,2.3-0.4c2.4-0.5,4.9-0.6,7.3-1.1
		c0.9-0.2,1.8-0.1,2.7-0.3c2.6-0.6,4,1.1,4.5,3.8c0.4,2,0.6,4.1,0.7,6.1c0.1,1.4,0.8,2.7,0.6,4.2c-0.1,1.2,0.4,2.4,0.4,3.5
		c0,1.4,0.6,2.7,0.5,4.2c0,1.4,0.5,2.9,0.6,4.3c0.1,1,0.2,2.1,0.4,3.1c0.4,1.7,0.3,3.4,0.6,5.1c0.3,2.6,0.7,5.2,0.9,7.7
		c0,0.4-0.4,0.9,0,1.4c0.2,0.2-0.3,0.6-0.8,0.7c-0.9,0.1-1.8,0.3-2.7,0.5c-0.6,0.1-0.7,0.3-0.6,0.9c0.5,2.6,0,3-2.6,3.2
		c-2,0.1-4.1,0-6,0.7c-0.3,0.1-0.5,0-0.6-0.3c-0.1-0.3-0.1-0.6-0.2-0.9c-0.8-2.7-0.8-2.7-3.6-2.1c-2.1,0.5-4.2,0.4-6.4,0.7
		c-1.9,0.2-3.8,0.6-5.6,0.9c-1.6,0.3-3.2,0.6-4.8,0.9c-1.2,0.2-2.4,0.5-3.6,0.7c-0.4,0.1-0.5,0.2-0.4,0.7c0.2,0.6,0.2,1.3,0.3,1.9
		c0,0.4-0.2,0.7-0.6,0.7c-0.4,0.1-0.3-0.4-0.4-0.7c0,0,0-0.1,0-0.1c-0.1-0.8,0-1.7-0.6-2.2c-0.6-0.5-1.4,0.1-2.2,0.1
		c-1.6,0.1-3.1,0.5-4.7,0.6c-0.7,0.1-0.9,0.4-0.8,1.1c0,0,0,0.1,0,0.1c0.2,1.8,0.2,1.8,2,1.5c1.7-0.3,3.4-0.1,5-0.8
		c0.5-0.2,1,0,1.1,0.5c0.1,0.5-0.4,0.7-0.8,0.7c-2.2,0.3-4.4,0.7-6.6,1c-0.7,0.1-1-0.2-1.2-0.8C106.9,125.6,106.8,124.6,106.4,123.5
		z M95.5,82c-0.2,0-0.3,0-0.4,0c-1.1-0.1-1.1,0.6-1,1.3c0.1,0.6-0.2,1.4,1.1,1.1c0.6-0.1,1.2-0.2,1.8-0.4c2.1-0.4,4.1-0.9,6.1-1.4
		c0.7-0.2,1.2,0,1.2,0.8c0.2,1.9,0.5,3.7,0.6,5.6c0.2,3.3,1.3,6.4,1.2,9.7c0,0.4,0.2,0.8,0.3,1.2c0.5,2.2,1,4.3,1.5,6.5
		c0.1,0.4,0,0.9,0.7,0.9c0.2,0,0.6,0.3,0.5,0.7c-0.1,0.3-0.2,0.6-0.6,0.7c-0.9,0-1.6,0.5-2.5,0.7c-1.9,0.3-3.7,0.9-5.7,0.9
		c-0.9,0-1.2,0.4-0.8,1.4c0.3,0.6,0.6,1.3,0.6,2c0.2,1.5,0.6,2.9,0.9,4.4c0.2,1.2,0.8,2.3,1.2,3.4c0.2,0.5-0.5,1.1,0.1,1.4
		c0.5,0.2,1-0.1,1.6-0.1c0.7,0,1.3-0.2,1.9-0.6c0.3-0.2,0.8-0.2,1.2-0.3c1.2-0.1,2.4-0.2,3.5-0.4c1.2-0.2,2.4-0.8,3.6-0.6
		c0.9,0.2,1.7,0,2.6-0.1c1.1-0.2,2.1-0.5,3.2-0.6c1.8-0.2,3.6-0.3,5.3-1c1.3-0.5,2.9-0.4,4.3-0.8c1.6-0.4,3.2-0.7,4.9-0.6
		c1.7,0.1,3.3-0.1,4.8-0.8c0.8-0.3,1.6-0.6,2.5,0c0.1,0,0.2,0,0.3,0c1.8-0.7,3.7-0.9,5.7-0.8c0.4,0,1,0,1.3-0.3c0.4-0.5,0.6-0.3,1,0
		c0.8,0.7,1.5-0.1,2.3-0.3c0.6-0.2,0.7-0.6,0.6-1.2c-0.3-1.6-0.1-3.2-0.3-4.8c-0.4-2.9-0.6-5.7-0.9-8.6c-0.4-3.5-1.1-7.1-1.5-10.6
		c-0.3-3.3-0.6-6.6-1-9.9c-0.2-1.8-0.4-3.7-1.1-5.5c-0.1-0.2,0-0.5-0.3-0.5c-1.1,0.1-2.2-0.4-3.3-0.2c-1.8,0.3-3.7,0.3-5.6,0.4
		c-3,0.1-6,0.6-9,0.9c-3.1,0.3-6.3,1-9.4,1.3c-4.8,0.4-9.4,1.7-14.1,2.5c-2.4,0.4-4.7,1.1-7.1,1.3c-0.9,0.1-2,0-2.7,0.6
		C96.1,82,95.8,82.1,95.5,82z M100.2,109.3c0.7,0.2,1.4-0.3,2.2-0.3c0.8,0,1.1-0.5,0.9-1.2c-0.1-0.6-0.5-1.1-0.5-1.7
		c0-1.8-0.5-3.5-0.9-5.2c-0.4-1.9-0.7-3.9-1.1-5.9c-0.3-1.4-0.1-2.9-0.3-4.3c-0.3-1.5-0.4-3.1-0.6-4.6c-0.1-0.7-0.4-1.1-1.3-1
		c-0.9,0.1-1.8,0.6-2.8,0.6c-1.4,0-1.6,0.3-1.2,1.6c0.4,1.9,0.7,3.9,1.3,5.7c0.7,2.4,0.6,4.9,1.3,7.3c0.6,2.2,0.8,4.6,1.2,6.9
		C98.8,109.2,98.8,109.3,100.2,109.3z M103,85.5c0.1-0.5,0.1-1.1-0.4-1.3c-0.4-0.2-0.8,0-1.2,0.2c-0.5,0.3-0.2,0.8-0.1,1.2
		c0.1,0.9,0.2,1.9,0.3,2.8c0.5,2.7,0.5,5.5,1,8.2c0.6,3.7,1.4,7.3,2.2,11c0.1,0.4-0.1,1,0.5,0.9c0.6-0.1,1.2-0.3,1-1.2
		c-0.3-1.5-0.5-3-0.8-4.4c-0.2-1.3-0.9-2.5-0.9-3.8c0-1.4-0.1-2.9-0.5-4.3c-0.4-1.5-0.5-3.1-0.5-4.7C103.4,88.6,103.2,87,103,85.5z
		 M147.1,118.1c-1.6,0-3.2,0.1-4.7,0.5c-0.4,0.1-1,0-0.7,0.7c0.2,0.6,0.2,1.6,1.3,1.3c1.8-0.5,3.7-0.1,5.5-0.5
		c0.8-0.1,1-0.3,0.9-1.1c-0.1-0.8-0.3-1.3-1.3-1C147.8,118.2,147.4,118.1,147.1,118.1z"/>
	<path d="M234.5,203c1.3,1.6,2.4,3.1,3.3,4.7c0.6,1,0.4,1.8-0.2,2.6c-1.3,1.6-2.9,2.9-4.7,3.9c-1.4,0.8-2.8,1.7-4.1,2.6
		c-0.7,0.5-1.4,0.9-2.2,1.3c-0.2,0.1-0.6,0.2-0.9,0.2c-0.3-0.1-0.7-0.7-0.5,0.2c0.1,0.3-0.4,0.4-0.7,0.4c-0.8,0-1.5,0.7-2.1,0.8
		c-1.2,0.2-1.9,1.5-3.3,1.1c-0.4-0.1-0.5,0.6-0.8,0.7c-1.7,0.3-3,1.5-4.6,2.1c-1.7,0.6-3.4,1.5-5.2,2.1c-3.1,1-6.2,2.2-9.3,3.1
		c-1.7,0.5-3.5,1.1-5.2,1.5c-3,0.7-5.8,1.8-8.8,2.4c-3,0.7-6.1,0.9-9,2.1c-1,0.4-2.2,0.3-3.3,0.6c-2.3,0.6-4.7,0.4-7,1.2
		c-1,0.3-2.2,0.5-3.3,0.2c-0.7-0.2-0.9-0.6-0.4-1.1c2.2-2.3,3.5-5.2,5.2-7.9c0.3-0.4,0.5-0.9,0.6-1.3c0.2-1.4,1.2-2.5,1.5-3.7
		c0.6-2.6,0.2-5.3-0.1-7.9c-0.7-5.4-1.7-10.8-2.5-16.2c-0.2-1.7-0.2-3.4,0.2-5.1c0.2-0.8,0.9-1.3,1.5-1.7c1.3-0.9,2.7-1.8,4-2.7
		c0.5-0.3,0.6-0.6,0.5-1.2c-0.4-1.6-0.5-3.3-0.8-5c-0.1-0.5,0.2-0.8,0.5-1c1.7-1.1,3.4-2.3,5.2-3.3c1.2-0.7,3,0.4,3.4,2
		c0,0.2,0,0.5,0.1,0.7c0.5,2.4,1.3,2.9,3.7,2.2c4.5-1.2,9-2.5,13.6-3.7c4.3-1.1,8.5-2.5,12.8-3.7c3.7-1.1,7.4-2.2,11-3.3
		c0.6-0.2,1-0.1,1.4,0.4c2.5,3.2,5.2,6.4,7.5,9.7c1.9,2.7,4.2,5,6,7.7c0.8,1.2,1.8,2.3,2.8,3.3c0.7,0.8,0.8,1.7,1,2.6
		c0.1,0.3-0.1,0.6-0.3,0.8c-1.5,1.6-2.7,3.4-4.7,4.5C235.6,202,235.4,202.8,234.5,203z M170.9,219.8c0,1.1,0,2.3,0,3.4
		c0,0.7,0.2,0.9,1,0.9c1.3-0.1,2.4-0.5,3.6-0.7c2.1-0.4,4.3-0.7,6.4-1.3c3-0.9,6-1.5,9-2.4c2.7-0.8,5.5-1.5,8.2-2.3
		c2.7-0.8,5.3-1.7,8-2.7c2.2-0.7,4.3-1.4,6.4-2.4c1.8-0.8,3.5-1.6,5.3-2.3c1.4-0.6,2.8-1.1,4.2-1.8c2.9-1.5,5.6-3.3,8.4-5
		c2.9-1.8,5.6-3.9,7.8-6.6c0.2-0.2,0.7-0.5,0.3-0.8c-0.9-0.6-1.1-1.7-1.8-2.4c-2.2-2.1-3.9-4.5-5.7-6.9c-3.1-4-6.2-7.9-9.1-12
		c-0.3-0.4-0.5-0.5-1.1-0.4c-1.8,0.4-3.5,1.3-5.3,1.7c-3,0.7-6,1.7-9,2.6c-2.4,0.7-4.8,1.4-7.1,2c-2.3,0.5-4.5,1.1-6.7,1.7
		c-2.9,0.9-5.9,1.6-8.8,2.3c-2.7,0.6-3.9-0.3-4.6-2.9c-0.2-0.6-0.4-1.2-0.6-1.8c-0.2-0.5-0.5-0.7-1.1-0.4c-1.5,0.8-2.9,1.8-4.3,2.7
		c-0.7,0.5-0.9,1.1-0.6,1.8c0.4,1.3,0.5,2.7,0.9,4c0.2,0.6,0.1,0.9-0.4,1.2c-1.3,0.9-2.6,1.8-3.9,2.7c-1.4,1-2.2,2.1-2.1,4
		c0.1,4.4,1.1,8.7,1.7,13.1C170.1,212.5,171.2,216.1,170.9,219.8z M163.9,235.8c1.1,0.3,2-0.5,3-0.6c2.4-0.3,4.8-0.7,7.2-1
		c1.6-0.2,3.1-1.1,4.7-1.2c2.8-0.2,5.3-1.3,8-1.8c1.9-0.3,3.7-1,5.6-1.6c1.3-0.4,2.8-0.4,4-0.9c2.1-0.9,4.4-1.3,6.5-2.3
		c1.8-0.9,3.9-1.4,5.8-2.1c4.5-1.6,8.7-3.8,13.1-5.5c2.6-1.1,5-2.7,7.4-4.2c2.4-1.5,4.9-3,6.9-5.2c0.6-0.7,0.7-1.3,0.1-2
		c-0.8-1.1-1.6-2.2-2.4-3.3c-0.3-0.4-0.4-0.5-0.8-0.2c-1.7,1.2-3.6,2-5.3,3.2c-1.6,1.2-3.5,1.7-5.2,2.5c-2.3,1.1-4.6,2-7,2.9
		c-2,0.8-4,1.8-6,2.5c-3.2,1.1-6.4,2.4-9.6,3.3c-6.1,1.7-12.2,3.2-18.3,4.7c-2.2,0.5-4.5,0.9-6.7,1.3c-1.5,0.3-3.1,0.8-4.6,0
		C169.1,228.8,166.4,232.1,163.9,235.8z"/>
	<path d="M89.8,64.9c-0.3-2.3-0.6-4.6-0.9-6.8c-0.4-3.1-0.8-6.2-1.1-9.3c-0.2-2.7-0.3-5.5-0.6-8.3c-0.4-3.1-1.1-6.1-1.2-9.2
		c-0.1-2.3-0.6-4.7-0.9-7c-0.2-2.3-1-4.6-0.8-7c0-0.1,0-0.3,0-0.4c-0.6-2.3,0.6-3.6,3-4c2.2-0.4,4.4-0.5,6.6-0.7
		c2.3-0.2,4.5-0.5,6.8-0.9c2-0.3,4-0.5,6-1.1c2.5-0.7,5-1.3,7.7-1.2c0.9,0,1.8-0.2,2.7-0.4c2.2-0.6,4.4-0.6,6.5-0.9
		c1.6-0.3,3.3-0.3,5-0.8c1.6-0.5,3.4-0.3,5.1-0.3c0.9,0,1.8-0.1,2.7-0.3c0.3-0.1,0.6-0.2,0.9-0.2c1.6,0,2.6,0.6,2.8,2.1
		c0.4,2.2,0.9,4.2,0.9,6.5c0,1.7,0.1,3.6,0.7,5.3c0.5,1.2,0.3,2.6,0.4,4c0.2,1.9,0.7,3.7,0.8,5.6c0.2,2.7,0.5,5.3,0.9,7.9
		c0.2,1.6,0.7,3.2,1.2,4.8c0.1,0.2,0.2,0.5,0.2,0.8c0.1,2.6,0.7,5.2,1.2,7.8c0.4,2.6,0.9,5.3,1.2,8c0.3,1.9,0.9,3.8,0.9,5.8
		c0,0.8,0.5,1.3,0.6,2c0.2,1.1-0.2,1.7-1.3,1.8c-0.6,0.1-1.3,0.1-0.4,0.9c0.4,0.4,0.1,0.6-0.3,0.7c-1.7,0.2-3.3,0.4-5,0.7
		c-1.5,0.3-3.2-0.2-4.7,0.5c-0.4,0.2-1,0.1-1.4,0.1c-2.4-0.1-4.6,0.7-7,0.9c-2.8,0.3-5.6,0.9-8.4,1.2c-4.6,0.5-9.1,1.4-13.7,2.3
		c-1.9,0.4-4,0.3-5.9,0.7c-1.3,0.3-2.8,0.4-4.1,0.8c-1.1,0.4-2.2,0.3-3.2,0.3c-0.4,0-0.9-0.1-1.1-0.5c-0.5-1.1-1.2-2-1.5-3.3
		c-0.5-2.2-0.6-4.5-1.1-6.7C89.7,66.3,89.7,65.6,89.8,64.9z M138.3,7c-0.3,0.5-0.6,0.6-1,0.6c-1.7,0-3.5,0.1-5.2,0.3
		c-2.7,0.3-5.4,0.5-8,1c-3.3,0.6-6.6,0.9-9.9,1.3c-4.5,0.4-8.9,1.7-13.4,2.3c-3,0.4-6,0.8-9.1,1c-1.9,0.1-3.9,0-5.7,0.9
		c-0.6,0.3-0.9,0.6-0.9,1.4c0,1.6-0.1,3.2,0.2,4.8c0.6,2.9,0.8,5.8,1.3,8.7c0.3,1.7,0.3,3.5,0.7,5.2c0.7,3.3,0.9,6.6,1.3,9.9
		c0.1,1.2,0.1,2.5,0.2,3.7c0,0.3,0.1,0.8,0.4,0.6c0.9-0.8,2-0.4,3-1.1c1.2-0.8,2.7-0.5,4.1-0.4c0.4,0,0.4,0.4,0.5,0.8
		c0.4,4.4,1.4,8.7,2.1,13.1c0.6,3.4,0.5,7,1.2,10.4c0.2,0.9-0.4,1.2-1.2,1.1c-1.6-0.1-3.1,0-4.6,0.4c-0.6,0.2-1.4,0.2-1.8,0.6
		c-0.6,0.5,0.2,1.2,0.1,1.9c0,0.1,0,0.2,0,0.3c0,0.5,0.2,0.7,0.7,0.7c1.2,0,2.4-0.3,3.6-0.6c2.4-0.6,4.8-0.7,7.2-1.2
		c2.2-0.4,4.5-0.9,6.7-1.1c2.3-0.2,4.5-1,6.7-1.3c2.1-0.3,4.2-0.5,6.3-0.8c2.5-0.4,4.9-1,7.3-1.2c2-0.1,3.9-0.4,5.9-0.6
		c1.2-0.2,2.5-0.3,3.7-0.5c1.3-0.3,2.7-0.1,3.8-0.7c0.9-0.4,1.6-1.1,2.6-1.1c0.3,0,0.4-0.2,0.3-0.5c-0.6-1.2-0.5-2.5-0.8-3.8
		c-0.7-2.8-1.1-5.8-1.3-8.7c-0.4-4.4-1.2-8.6-2.1-12.9c-0.8-3.4-1.6-6.8-1.8-10.3c-0.2-3-0.7-6-1-9.1c-0.4-3-0.7-6-1.1-9
		C139.3,11.2,139.2,9.1,138.3,7z M91.3,66.5c-0.1,0-0.1,0-0.2,0c0.3,1.7,0.6,3.5,0.8,5.2c0.1,0.4,0.3,0.6,0.6,0.3
		c0.3-0.2,0.6,0,0.9-0.1c1-0.2,1.7-1,2.8-1c0,0,0.1-0.3,0.1-0.5c0.4-1.6-0.4-3.2-0.7-4.6c-0.5-2.6-1.3-5.3-1.8-7.9
		c-0.5-2.6-0.7-5.3-1-7.9c-0.1-1.1-0.4-1.3-1.4-0.9c-2.2,0.8-2.3,0.8-2,3.1c0.3,3.1,0.7,6.2,1.2,9.2C90.8,63.1,91,64.8,91.3,66.5z
		 M96.9,56.6c-0.2-1.4-0.1-2.7-0.6-4.1c-0.4-1-0.6-2-0.6-3c0.1-1.3-0.5-1.4-1.6-1.4c-0.5,0-0.8,0.2-0.6,0.8c0.3,0.8,0.3,1.6,0.4,2.4
		c0.4,2.7,0.8,5.5,1.4,8.2c0.9,3.7,1.6,7.4,2.3,11.1c0.1,0.4,0.2,0.6,0.6,0.4c0.4-0.1,0.4-0.3,0.3-0.7c-0.2-1-0.5-2.1-0.5-3.1
		c0-2.1-0.3-4.2-0.5-6.3C97.5,59.5,97,58.1,96.9,56.6z"/>
	<path d="M233.6,62.5c-3.6,0.3-6.2,0.2-8.8,0.7c-1.1,0.2-2.3,0.1-3.4,0c-1.9-0.1-3.6,0.6-5.4,0.9c-1.5,0.3-1.8,1.2-1.2,2.5
		c0.2,0.5,0.6,1,0.9,1.5c0.2,0.3,0.5,0.7,0.7,1c1.2,1.8,0.6,3.2-1.4,3.7c-3.2,0.7-6.4,1.3-9.6,1.6c-2,0.2-3.9,0.9-5.9,1.1
		c-1.5,0.2-3.1,0.5-4.6,0.5c-0.6,0-0.9-0.2-1.1-0.7c-0.5-1.2-1.1-2.4,0.1-3.7c0.8-0.8,1.2-2,1.3-3.2c0-1.1-0.5-1.6-1.5-1.7
		c-2.2,0-4.4,0.4-6.6,0.7c-4,0.5-7.9,1-11.9,1c-2.3,0-4.7,0.1-7,0c-2.8-0.1-5.1-1.8-5.3-5.1c-0.4-5.4-0.8-10.8-1.4-16.2
		c-0.4-3-1-6.1-1.3-9.1c-0.5-6-1.2-12-1.9-18c-0.4-3.7,1.2-6.7,4.7-8.2c0.3-0.1,0.8-0.3,1.1-0.2c1.7,0.3,3.4-0.3,5.1-0.4
		c3.2-0.3,6.4-0.4,9.6-1c3.1-0.5,6.2-1,9.3-1.4c4.2-0.5,8.4-1.6,12.7-1.5c3.4,0,6.7-0.4,10-1c3.8-0.7,7.5-1,11.3-1.6
		c3.6-0.5,7.3-1.2,11-1.2c2.4,0,4,1.3,5.3,3.3c1.2,1.9,1.8,4,2,6.1c0.2,1.8,0.1,3.6,0.4,5.4c0.5,3.8,0.6,7.6,0.9,11.5
		c0.3,4.4,0.8,8.7,0.9,13.1c0.1,3,0,6,0.8,8.9c0.4,1.6,1,3.2,0.8,4.9c-0.1,1.4-0.7,2.6-1.6,3.6c-0.5,0.5-1.4,0.7-2.1,0.9
		C237.7,61.8,235.1,62.2,233.6,62.5z M239.3,17.3c0-3.5-0.6-6.3-1.4-9c-0.4-1.4-1.5-2.2-2.9-2.6c-2.3-0.8-4.7-0.5-7-0.2
		c-3.2,0.4-6.5,0.4-9.7,1.1c-1.8,0.4-3.7,0.3-5.5,0.7c-2.7,0.6-5.5,0.9-8.4,1.1c-2.4,0.2-4.7,0.3-7.1,0.6c-4.7,0.6-9.3,1.3-14,1.9
		c-4,0.5-8,1.1-12,1.3c-2.5,0.2-4.9,0.6-7.4,0.7c-2.4,0.1-5.1,2.9-4.9,5.3c0.1,2,0.3,4,0.6,6c0.4,2.8,0.8,5.6,1,8.4
		c0.3,3,0.5,5.9,0.9,8.9c0.5,4.2,0.9,8.4,1.4,12.6c0.4,3.4,0.6,6.8,0.9,10.3c0,0.2,0,0.4,0.1,0.5c0.8,1.2,1.8,2.1,3.3,2.2
		c1.1,0,2.1-0.1,3.1,0.1c2.1,0.4,4.2,0.4,6.3,0.3c5.1-0.2,10.2-1.3,15.3-1.8c2.9-0.3,5.8-1,8.7-1.5c4.2-0.7,8.4-0.7,12.6-1.3
		c2.7-0.4,5.5-0.9,8.3-0.8c2.4,0.1,4.8-0.5,7.2-0.5c3.6,0,7.1-0.7,10.5-1.4c2.3-0.5,3.6-2.4,3.3-4.8c-0.1-0.6-0.3-1.1-0.4-1.6
		c-0.6-3.1-0.8-6.2-1.1-9.3c-0.2-2.9-0.6-5.9-0.7-8.8c0-3.7-0.7-7.3-0.8-11C239.9,22,239.5,19.3,239.3,17.3z M195.1,66.6
		c0.9,0.7,0.8,1.5,0.6,2.4c-0.4,1.3-1,2.4-1.5,3.6c-0.4,0.8-0.7,1.6-0.1,2.3c0.6,0.7,1.4,0.4,2.2,0.3c3.5-0.6,7-1.2,10.4-1.8
		c2.8-0.5,5.7-0.6,8.4-1.5c1.1-0.4,1.4-1,0.8-2.1c-0.2-0.3-0.4-0.6-0.6-0.9c-0.7-1.2-1.9-2.3-1.6-3.9c0-0.2,0.1-0.9-0.4-0.7
		c-0.7,0.2-1.4,0-2,0.1c-3.4,0.4-6.8,0.7-10.2,1.2C199.2,65.9,197.2,66,195.1,66.6z"/>
	<path d="M65.3,38.9c0,3.1,0,5.5-0.5,7.8c-0.2,0.9-0.8,1.6-0.9,2.5c-0.1,0.6-0.6,0.5-1.1,0.4c-1.8-0.4-3.5-0.8-5.3-1.2
		c-0.6-0.1-1-0.1-1.3,0.7c-0.3,1.2-0.4,2.4-0.8,3.6c-0.2,0.6-0.3,0.9-1.1,0.5c-1.9-1.1-2.5-0.8-2.7,1.3c-0.2,2.2-0.9,4.4-1,6.6
		c0,0.5,0.1,1-0.1,1.4c-0.4,1-0.2,1.5,1.1,1.5c0.9,0,2.2,1.5,2.5,2.9c1,3.7,0.7,7.5,0.7,11.3c0,2-1.5,2.9-3.4,2.7
		c-2.2-0.3-4.4-0.8-6.6-0.8c-1.4,0-2.7-0.6-3.5-1.7c-0.8-1.1-0.6-2.4-0.1-3.6c1-2.4,1.6-4.9,2.8-7.3c0.6-1.2,1-2.4,2.1-3.3
		c0.7-0.5,1.3-0.7,2.1-0.4c0.7,0.3,0.9,0,1-0.7c0.4-2.1,0.7-4.2,0.9-6.4c0.1-1.3,0.7-2.5,0.6-3.8c0-0.7-0.3-0.8-0.9-0.9
		c-1.5-0.1-3.1-0.2-4.6-0.4c-0.9-0.1-1.2-0.4-1.1-1.3c0.1-0.9,0.1-1.8,0.2-2.7c0-0.5,0-0.8-0.6-0.8c-3.1-0.1-6.1-0.8-9.1-1.4
		c-2.9-0.6-5.9-0.8-8.8-1.2c-5-0.7-10-1.3-15-2.2c-0.2,0-0.5,0-0.7,0c-1.4-0.5-3.1-0.3-3.9-2.3c-0.7-1.6-2.1-2.9-2.9-4.5
		c-1.1-2-2.4-3.9-2.7-6.1c-0.3-1.5-0.4-3-0.5-4.6c-0.1-2.1-0.2-4.2,0.4-6.2c0.9-3.2,2.5-6.1,4.9-8.5c1.4-1.4,3.3-2,5.2-2.5
		c2.6-0.7,5.2-0.6,7.8-0.2c3.9,0.5,7.7,0.9,11.6,1.4c3.5,0.4,7.1,0.8,10.6,1.3c3.2,0.5,6.5,1,9.7,1.9c2.4,0.7,4.2,2.1,6,3.6
		c1.3,1,2.5,2.1,3.6,3.3c0.6,0.7,1,1.6,1.5,2.5C64.8,26.7,65,33.2,65.3,38.9z M63.3,48.2c1-3.6,0.9-7.3,0.7-10.9
		c-0.1-2.6-0.6-5.2-1-7.8c-0.6-4-2-7.6-4.6-10.7c-2.4-2.9-5.3-5.3-9.1-6.2c-2-0.5-4.1-0.9-6.2-1.3c-5.3-1-10.8-1.3-16.1-2
		c-2.4-0.3-4.8-0.6-7.3-1c-3-0.5-6,0-9,0.1c-1.7,0.1-3.4,0.7-4.6,2c-2.9,3.1-4.7,6.8-4.9,11.1c-0.1,1.2,0.2,2.4,0.1,3.6
		c-0.1,1.6,0.2,3.2,0.7,4.8c1,2.9,2.6,5.6,4.3,8.1c1,1.5,2,2.6,3.9,2.8c2.9,0.3,5.7,0.8,8.6,1.2c5.1,0.7,10.1,1.2,15.2,2.1
		c3.6,0.6,7,1.6,10.7,1.5c0.7,0,0.7,0.5,0.6,1c-0.1,1.1-0.1,2.3-0.2,3.4c0,0.5,0,0.6,0.6,0.6c2.7,0.1,5.4,0.4,8,0.9
		c0.9,0.2,1-0.2,1.1-0.7c0.2-0.9,0.3-1.9,0.5-2.8c0.2-0.8,0.5-1.3,1.6-1.1C59.1,47.4,61.2,47.8,63.3,48.2z M53.7,71.5
		C53.7,71.5,53.7,71.5,53.7,71.5c0.1-0.6,0.2-1.1,0.1-1.7c-0.2-1.3-0.5-2.6-1.3-3.8c-0.5-0.7-1.2-0.7-1.8-0.7
		c-0.7,0-0.5,0.7-0.6,1.2c-0.1,0.2-0.1,0.5-0.1,0.8c-0.3,2.8-0.5,5.6-0.9,8.4c-0.5,3.2-0.4,3.5,2.5,3.8c0.2,0,0.4,0,0.6,0
		c1.1,0.2,1.6-0.4,1.6-1.3C53.7,75.9,53.7,73.7,53.7,71.5z M42.3,75.9c0.1,0.3-0.2,0.9,0.3,1.3c1.2,0.8,2.4,1.5,3.8,1.7
		c0.6,0.1,0.8-0.1,0.8-0.7c0.5-4,1-8.1,1.5-12.1c0-0.3,0.1-0.5-0.2-0.6c-1-0.5-2.3,0-2.8,0.9c-1,1.7-1.6,3.5-2.2,5.3
		C43.1,73,42.2,74.2,42.3,75.9z"/>
	<path d="M67.1,94.3c0.1-0.1,0.3-0.4,0.4-0.4c0.3,0,0.3,0.3,0.3,0.5c-0.1,3.2-0.2,6.4-0.2,9.6c0,0.5-0.2,0.8-0.7,0.9
		c-3.4,0.5-6.6,1.6-9.9,2.2c-4.3,0.9-8.6,1.9-12.8,3.1c-0.6,0.2-1.3,0.1-1.9,0.2c-0.6,0-0.7,0.3-0.6,0.9c0.9,3.9,0.1,7.5-2,10.9
		c-1.6,2.5-3.2,5.1-5.7,6.9c-0.3,0.2-0.5,0.4-0.8,0.5c-1.2,0.4-1.4,1.2-1.2,2.4c0.4,1.8,0.2,3.6-0.1,5.4c-0.4,2.2-0.6,4.4-0.6,6.6
		c-0.1,3.5-0.9,6.9-1.7,10.3c-0.1,0.4-0.1,0.9-0.2,1.3c-0.4,2.8-2.8,4.5-5.5,4.4c-1.4-0.1-2.9,0.3-4.3-0.6c-1.1-0.7-2-2.9-1.9-4.1
		c0.3-2.8,0.4-5.5,0.2-8.3c-0.3-3.9-0.3-7.9-0.4-11.8c0-1-0.3-1.2-1.3-1.2c-2.3,0-4.4-0.9-6-2.6c-2.2-2.4-4.6-4.7-6.3-7.6
		c-1.8-3.2-2.5-6.7-1.6-10.4c0.4-1.9,0.6-3.9,1.3-5.8c1.9-5,5-8.6,10.5-9.8c2.9-0.6,5.8-1,8.6-1.7c3.1-0.7,6.1-0.5,9.2-0.8
		c2.7-0.2,5.4-0.2,8.1-0.4c1.9-0.1,3.7-0.2,5.6-0.1c1.6,0.1,3.2-0.4,4.8-0.2c3.1,0.3,6.2-0.1,9.3-0.2c1.8-0.1,3.6-0.1,5.4-0.5
		C65.8,93.9,66.5,94,67.1,94.3c-0.3,0.6-0.8,0.7-1.4,0.7c-1.5,0-2.9,0.1-4.4,0.3c-3.7,0.4-7.5,0.5-11.2,0.5c-3,0-6.1,0-9.1,0.2
		c-4.1,0.2-8.2,0.3-12.4,0.6c-2.5,0.2-5,0.4-7.5,0.9c-2.7,0.5-5.4,1.3-8,2.1c-2.2,0.7-4.2,1.9-5.7,3.7c-2.6,3.2-3.5,7-4.2,10.9
		c-0.6,3.1,0,5.9,1.6,8.6c1,1.8,2.4,3.3,3.7,4.8c1.9,2.2,3.9,4.4,7,5c0.7,0.1,1.3,0.4,2,0.5c0.7,0.1,1.1,0.5,1.1,1.2
		c0.1,1.6,0.1,3.1,0.3,4.7c0.2,2.1,0.3,4.2,0.4,6.3c0.2,2.7,0.7,5.4,0.2,8.1c-0.2,1-0.4,2-0.6,3c-0.1,0.7,0.1,1.2,0.6,1.6
		c1.5,1.4,3.2,1.7,5.1,0.8c0.5-0.3,1.1-0.5,1.7-0.6c0.9-0.2,1.4-0.7,1.7-1.6c0.4-1,0.4-2.1,0.8-3.1c0.8-2.4,1.2-5,1.5-7.5
		c0.4-3.2,0.2-6.5,0.9-9.8c0.2-1,0.1-2-0.1-3c-0.2-1.1-0.1-2.2-0.2-3.3c0-0.4,0.2-0.5,0.5-0.7c1.4-0.8,2.9-1.4,3.9-2.8
		c0.9-1.3,1.9-2.5,2.9-3.7c1.5-2.1,2.6-4.3,2.9-6.8c0.2-1.6,0-3.2-0.6-4.8c-0.4-1.1-0.1-1.3,0.9-1.6c0.9-0.3,1.9-0.3,2.8-0.5
		c2.5-0.5,4.9-1.3,7.3-1.9c4.5-1.1,9.1-1.9,13.5-3.2c1.8-0.5,1.7-0.4,1.7-2.3C66.6,99.2,66.3,96.7,67.1,94.3z"/>
	<path d="M168.6,163.2c-0.1,1.5-0.8,3.3-1.9,4.9c-1.2,1.7-2.3,3.5-3.5,5.2c-1,1.4-1.8,2.9-2.5,4.5c-0.9,2.1-2.8,2.9-4.5,3.9
		c-2.2,1.3-4,0.1-5.7-0.8c-3.5-1.8-6.6-4.2-10.1-6c-3-1.6-5.8-3.6-8.8-5.2c-2-1.1-3.9-2.5-5.8-3.8c-2.5-1.9-5.2-3.7-7.7-5.6
		c-1.2-0.9-2.5-1.5-3.4-3c-1-1.8-0.8-3.4,0.1-4.9c2-3.3,3.9-6.6,5.9-9.8c0.9-1.4,1.7-2.9,2.7-4.3c0.9-1.4,2.2-2.2,3.7-2.9
		c0.6-0.3,1.2,0,1.7,0.2c2.8,1.1,5.1,3.1,7.7,4.6c3.4,2,6.4,4.5,9.8,6.4c3.8,2.2,7.5,4.7,11.3,6.8c2.9,1.6,5.7,3.3,8.5,5
		C167.8,159.4,168.5,160.7,168.6,163.2z M167.3,162.4c0.1-0.7-0.2-1.7-1-2.3c-3.3-2.4-7-4.3-10.5-6.4c-2.7-1.6-5.4-3.2-8-4.9
		c-2.7-1.8-5.3-3.5-8-5.3c-3.3-2.2-6.6-4.4-10-6.4c-2.8-1.7-4.5-0.7-5.8,1.8c-1,1.9-2.3,3.5-3.1,5.4c-0.6,1.5-1.8,2.6-2.7,4
		c-0.9,1.5-1.6,3.1-2.6,4.6c-1.2,1.8-0.9,2.9,0.7,4.5c1.1,1.1,2.4,2,3.7,3c2,1.5,4,2.8,5.9,4.3c2.1,1.7,4.3,3.3,6.7,4.5
		c4.2,2.2,8.3,4.8,12.4,7.1c2.4,1.4,4.6,3.2,7.2,4.3c2.2,0.9,5.8-0.2,6.9-2.3c1.9-3.7,4.5-7.1,6.5-10.8
		C166.4,166,167.4,164.5,167.3,162.4z"/>
	<path d="M200.2,89.4c-2.4,0.3-4.8,0.6-7.2,0.9c-3.4,0.5-6.9,1-10.3,1.4c-0.5,0.1-1.1,0.1-1.4-0.4c-0.3-0.5-0.1-0.9,0.1-1.4
		c0.4-1.2,0.9-2.4,1.2-3.6c0.4-1.8,1.2-3.4,1.8-5.1c0.1-0.2,0.2-0.4,0.2-0.6c0.1-0.7,0.9-1.1,1.4-0.6c0.6,0.6,1.2,0.5,1.9,0.4
		c2.1-0.4,4.2-0.5,6.2-0.7c1.6-0.1,3.3-0.5,4.9-0.8c3.3-0.6,6.6-0.8,9.8-1.3c5.5-0.8,11.1-1.1,16.7-1.6c0.3,0,0.6,0,0.9-0.1
		c0.6-0.3,0.8,0,1.2,0.5c2.1,2.7,3.6,5.7,6.1,8.1c0.6,0.5,0.2,0.8-0.3,0.9c-1.5,0.5-3,0.9-4.6,1c-2.9,0.3-5.8,0.5-8.7,0.9
		c-4.8,0.7-9.7,1.2-14.6,1.6c-1.7,0.1-3.4,0.4-5.1,0.6C200.2,89.4,200.2,89.4,200.2,89.4z M232.1,84.3c-0.1-0.9-1.1-1.1-1.4-1.8
		c-0.7-1.6-2.1-2.7-3.1-4.1c-0.5-0.8-1.2-1.2-2.2-1.1c-2.7,0.3-5.3,0.3-8,0.6c-5.1,0.5-10.2,1.1-15.3,1.8
		c-5.3,0.7-10.6,1.3-15.9,1.9c-0.5,0.1-0.8,0.2-1,0.6c-1.1,2.7-1.9,5.4-2.7,8.3c1.2-0.1,2.3-0.2,3.4-0.4c4.1-0.8,8.3-1.1,12.4-1.6
		c5.6-0.7,11.2-1.1,16.8-1.9C220.8,85.7,226.5,85.6,232.1,84.3z"/>
	<path d="M50,197.5c0.2,2.5-0.9,4.8-1.4,7.1c-0.8,4.1-2.5,8-4.5,11.7c-1.6,3-4.4,4.2-7.7,4.3c-0.6,0-1.3,0.1-1.9,0.2
		c-3.7,0.6-6.4-1.3-8.9-3.6c-1.2-1.1-2.4-2.2-3-3.7c-0.8-1.8-0.9-3.7-0.5-5.5c0.7-3.3,1.7-6.5,2.9-9.7c1.1-3.1,2.7-6,4.3-9
		c0.2-0.3,0.5-0.6,0.8-0.8c1.1-0.9,2.3-1.7,3.2-2.7c1.7-1.9,4.1-2.2,6.2-2.9c0.9-0.3,1.9,0.1,2.7,0.5
		C47.4,186.1,50.3,192.7,50,197.5z M33.5,219.6c1.7,0.1,3.3-0.2,5-0.5c2.5-0.5,3.8-2.4,4.9-4.4c1.7-3.2,3.2-6.6,4-10.2
		c0.7-3.4,2-6.7,1.3-10.3c-0.8-3.7-2.1-7-5.5-9c-1.6-1-3.3-1.4-5.2-0.5c-1.3,0.6-2.5,1.4-3.6,2.2c-2,1.6-3.7,3.4-5,5.6
		c-1.4,2.4-2.5,4.8-3.5,7.4c-0.9,2.6-2.1,5.2-2.6,7.9c-0.5,2.9-0.3,5.5,2.1,7.6c0.6,0.5,1.2,1,1.8,1.5C29,218.8,31,219.8,33.5,219.6
		z"/>
	<path d="M244.8,123.6c-0.3,1.8-0.9,3.6-1.6,5.3c-0.3,0.8-0.3,1.7-1.1,2.2c-0.4,0.2-0.7,0.4-1.1,0.3c-3.8-1.1-7.6-1.8-11.4-2.7
		c-1-0.2-1-1.1-0.8-1.8c0.4-1.6,0.8-3.3,1.2-4.9c0.2-0.7,0.5-1.6,1-2.3c0.3-0.5,0.8-0.7,1.6-0.5c3,1,6,1.7,9,2.2
		c0.9,0.2,1.7,0.5,2.5,0.9C244.6,122.5,244.7,123.1,244.8,123.6z M243.7,123.6c0.2-0.6-0.5-0.7-1-0.9c-3.4-1.1-6.9-1.5-10.2-2.5
		c-0.7-0.2-1,0.1-1.2,0.8c-0.5,1.9-1,3.8-1.6,5.7c-0.2,0.7,0,1.1,0.7,1.3c0.9,0.3,1.9,0.5,2.8,0.7c2.4,0.6,4.9,1.1,7.3,1.7
		c0.6,0.1,1.1,0.1,1.4-0.4C242.6,127.9,243.4,125.9,243.7,123.6z"/>
	<path d="M226.4,148.6c0,0.3-0.2,0.7-0.6,0.6c-1.1-0.5-2.4-0.3-3.5-0.8c-0.4-0.2-0.6-0.3-0.5-0.7c0.1-0.4,0.4-0.5,0.8-0.4
		c1,0.2,1.9,0.6,3,0.6C226.1,147.8,226.3,148.1,226.4,148.6z"/>
	<path d="M236.5,145.4c0.6,0.2,1.6-0.1,2.2,0.8c0.2,0.2,0.4,0.5,0.2,0.8c-0.2,0.3-0.5,0.2-0.7,0.1c-0.7-0.1-1.4-0.2-2.1-0.4
		c-0.4-0.1-0.9-0.1-0.8-0.7C235.4,145.5,235.7,145.3,236.5,145.4z"/>
	<path d="M227.6,134.1c1.2,0.3,2.4,0.5,3.6,0.8c0.3,0.1,0.5,0.5,0.4,0.8c-0.1,0.4-0.5,0.3-0.7,0.2c-1.2-0.3-2.4-0.6-3.6-0.9
		c-0.3-0.1-0.5-0.2-0.5-0.5C226.8,134.1,227.2,134.1,227.6,134.1z"/>
	<path d="M224.6,142.7c0.9,0.2,1.9,0.4,2.8,0.6c0.4,0.1,0.7,0.5,0.6,0.9c-0.2,0.6-0.6,0.2-0.9,0.2c-0.9-0.2-1.8-0.4-2.6-0.5
		c-0.4-0.1-0.6-0.3-0.5-0.7C224,142.9,224.2,142.7,224.6,142.7z"/>
	<path d="M230.6,150.2c-0.6-0.2-1.4-0.4-2.2-0.7c-0.3-0.1-0.6-0.4-0.4-0.8c0.1-0.3,0.3-0.5,0.7-0.5c0.8,0.2,1.5,0.4,2.3,0.6
		c0.5,0.2,0.5,0.7,0.5,1C231.5,150.3,231.1,150.2,230.6,150.2z"/>
	<path d="M228.9,140.3c-1.2-0.2-2.3-0.4-3.4-0.6c-0.4-0.1-0.7-0.2-0.6-0.6c0.1-0.3,0.4-0.6,0.8-0.5c0.9,0.3,1.8,0.4,2.7,0.5
		c0.3,0,0.6,0.2,0.8,0.5c0.1,0.2,0.3,0.4,0.2,0.6C229.2,140.5,229,140.3,228.9,140.3z"/>
	<path d="M236.1,150c0.5,0.2,1.5-0.3,1.7,0.8c0.1,0.5-0.1,0.8-0.7,0.8c-0.6,0-1.2-0.1-1.8-0.2c-0.3-0.1-0.9-0.1-0.8-0.7
		c0.1-0.6,0.5-0.7,1-0.7C235.7,150.1,235.8,150,236.1,150z"/>
	<path d="M237.6,141.4c0.8-0.1,1.4,0.1,2,0.3c0.5,0.2,0.8,0.7,0.6,1.2c-0.2,0.5-0.6,0-0.8,0c-0.5-0.1-1.1-0.2-1.6-0.3
		c-0.5-0.1-1.2,0.1-1.1-0.7C236.7,141.1,237.4,141.6,237.6,141.4z"/>
	<path d="M240.6,138.2c-0.9-0.2-1.7-0.3-2.5-0.5c-0.4-0.1-0.6-0.4-0.4-0.8c0.1-0.4,0.4-0.5,0.7-0.4c0.8,0.2,1.6,0.4,2.4,0.7
		c0.3,0.1,0.6,0.4,0.5,0.8C241.2,138.3,240.9,138.2,240.6,138.2z"/>
	<path d="M230.9,144.6c0.6,0.2,1.6,0,2.1,0.9c0.2,0.4,0.2,0.7-0.4,0.6c-0.7-0.1-1.3-0.2-2-0.4c-0.4-0.1-1-0.1-0.9-0.7
		C229.9,144.5,230.4,144.6,230.9,144.6z"/>
	<path d="M232.4,140.6c0.5,0.1,1.1,0.1,1.7,0.2c0.6,0.1,0.9,0.5,0.8,1c-0.1,0.7-0.8,0.4-1.1,0.3c-0.5-0.3-1-0.4-1.6-0.4
		c-0.3,0-0.9,0-0.7-0.6C231.5,140.7,231.8,140.4,232.4,140.6z"/>
	<path d="M233.5,135.5c0.8,0.3,1.8-0.1,2.2,1c0.2,0.4,0.2,0.7-0.4,0.5c-0.6-0.2-1.3-0.2-1.9-0.3c-0.4-0.1-0.9-0.1-0.8-0.7
		C232.6,135.5,233.1,135.4,233.5,135.5z"/>
	<path d="M135.4,198.8c-0.1,0.6,0.2,1.5-0.4,1.9c-0.6,0.4-1.5-0.1-2.1-0.5c-3-1.8-6.3-2.8-9.4-4.2c-1.1-0.5-2.3-0.7-3.4-1.1
		c-1.2-0.3-1.5-1.3-0.7-2.2c0.2-0.2,0.5-0.5,0.7-0.7c1.1-1.4,1.4-1.6,2.9-0.7c2.9,1.7,6.2,2.4,9.3,3.6c1.2,0.5,2.8,0.8,3,2.5
		C135.4,197.8,135.4,198.3,135.4,198.8z M120.4,193.7c1.8,0.8,3.7,1.1,5.4,2c2.3,1.2,5,1.6,7.2,3c0.3,0.2,0.9,0.7,1.3,0.3
		c0.3-0.5,0.2-1.2,0-1.8c-0.1-0.3-0.3-0.5-0.6-0.6c-0.8-0.3-1.5-0.7-2.3-0.9c-2.8-1-5.8-1.5-8.3-3.2c-1-0.7-1.7-0.5-2.3,0.6
		C120.8,193.3,120.6,193.5,120.4,193.7z"/>
	<path d="M120.3,226.9c-3.8-0.1-7.3-1.3-9.5-4.5c-2.7-3.8-3.4-7.9-1.2-12.3c0.6-1.2,1.2-2.3,1.8-3.5c0.2-0.5,0.6-0.8,1-1.1
		c2.4-1.7,5.1-2.6,8-2.9c1.3-0.1,2.5,0.6,3.7,1c2.3,0.9,4,2.5,5.4,4.2c1.1,1.4,2.2,2.8,2.5,4.7c0.9,5.6-2,9.2-6,12.3
		C124.3,226.3,122.5,227.1,120.3,226.9z M130.9,213.2c0-1.2,0-1.3-0.4-1.8c-1.7-2.9-4-5.2-7.2-6.6c-4.4-2-10.1-0.1-12.3,4.1
		c-0.2,0.4-0.4,0.7-0.6,1.1c-2.4,4.6-1.7,8.2,1.1,11.8c2.3,2.9,5.8,4.2,9.5,3.9c4.8-0.4,7.7-3.6,9.7-7.6
		C131.6,216.4,131,214.8,130.9,213.2z"/>
	<path d="M194.1,208.9c-0.8,0-1.8,0.4-2.8,0.3c-1.8-0.1-3-1.7-2.3-3.3c0.3-0.9,0.3-1.7,0.1-2.5c-0.3-1.8-0.5-3.6-0.5-5.5
		c0-2.1,1-3.6,2.4-5c1.8-1.7,4-2.7,6.2-3.6c1.7-0.7,3.4-1.4,5.2-1.9c2.7-0.8,5.3-2.1,8-2.9c2.2-0.6,4.3-1.6,6.5-2.1
		c1.5-0.4,2.8,0.6,4,1.3c2.1,1.2,3.2,3.2,4.4,5.3c0.8,1.5,1.5,3.1,2,4.7c0.5,1.3,0.1,2.4-1.1,3.1c-1.5,0.9-3.1,1.5-4.8,2
		c-3,0.9-6.1,1.9-8.9,3.3c-2.8,1.3-5.7,2.6-8.6,3.7c-2.7,1-5.3,2.5-8.2,3C195.2,208.9,194.7,209,194.1,208.9z M202.9,204.6
		c-0.2-0.4-0.3-0.7-0.5-1.1c-0.7-1.7-0.6-1.9,1-2.9c1.2-0.8,2.7-1.2,4-1.7c2.6-1,5.2-2.1,7.9-2.8c0.8-0.2,1.3-0.1,1.7,0.6
		c0.3,0.5,0.4,1.4,1,1.6c0.6,0.2,1.2-0.4,1.8-0.6c1.8-0.6,3.6-1.2,5.3-2.2c0.9-0.6,1.1-1.2,0.6-2.2c-0.4-0.7-0.6-1.4-1-2.2
		c-0.9-2-1.7-4-3.2-5.7c-0.9-1-3.6-2.2-4.7-1.7c-1.5,0.7-3.1,0.9-4.6,1.5c-4.2,1.7-8.5,3.1-12.8,4.7c-2.5,0.9-4.9,1.9-6.9,3.7
		c-1.6,1.5-2.3,3.3-2.4,5.5c-0.1,1.1,0.3,2.2,0.4,3.3c0.1,1.4,0.1,2.8,0,4.2c0,0.5-0.1,1,0.6,0.9c2.3-0.3,4.6-0.3,6.8-1.2
		C199.6,206,201.1,205.1,202.9,204.6z M203.6,204.3c1.4-0.5,2.8-1,4.2-1.6c2.9-1.2,5.7-2.8,8.8-3.6c0.3-0.1,0.5-0.2,0.3-0.6
		c-0.4-0.6-0.6-1.4-1.6-1.1c-1.1,0.3-2.2,0.5-3.2,0.9c-2.3,0.9-4.6,1.8-6.9,2.7C203,201.9,202.8,202.1,203.6,204.3z"/>
	<path d="M236.3,14.9c0.5,3.3,0.6,7,1,10.7c0.3,2.6,0.4,5.2,0.5,7.8c0,2.2,0.2,4.4,0.5,6.6c0.4,2.6,0.1,5.3,0.6,7.9
		c0.1,0.8,0,1.7,1.2,1.8c0.4,0,0.4,0.5,0.3,0.9c0,0.3-0.3,0.4-0.6,0.4c-4.1,0.3-8.2,1-12.3,1.4c-1.4,0.1-2.8,0.6-4.3,0.3
		c-0.2,0-0.4,0-0.5,0.1c-2.6,1-5.4,1-8.1,1.2c-3.2,0.3-6.3,0.1-9.5,0.5c-3,0.4-6.1,0.7-9.1,1.1c-5,0.7-10,1.1-14.9,2
		c-3,0.5-5.9,1.2-8.9,1.3c-1.6,0.1-3.2-0.1-4.7,0.2c-0.7,0.2-1.2-0.5-1.5-1.1c-0.1-0.2-0.1-0.4,0-0.4c1.1-0.1,0.5-0.8,0.4-1.3
		c-0.5-3.5-1.1-7-1.4-10.5c-0.4-3.6-1-7.2-1.4-10.7c-0.5-3.9-1.2-7.7-1.9-11.6c-0.2-1.2-0.2-2.5-0.5-3.7c-0.3-1.5,0.3-2.5,1.4-3.2
		c0.9-0.5,1.8-1,2.9-1.1c1.1-0.1,2.3-0.4,3.4-0.9c1.1-0.5,2.3-0.2,3.4-0.5c1.9-0.6,3.8-0.3,5.7-0.5c3.6-0.3,7.2-0.5,10.8-1
		c3-0.4,5.9-0.6,8.9-1.1c3.9-0.7,7.8-1,11.7-1.3c3.5-0.3,7-0.7,10.6-1.1c2.6-0.3,5.3-0.7,7.9-1.3c3.4-0.8,5.9,0.2,7.4,3.2
		C236,12.1,236.6,13.2,236.3,14.9z M238.5,49.8c-0.5-1-0.9-2-1-3.2c-0.2-2.3-0.2-4.6-0.4-7c-0.3-3.8-0.8-7.6-0.9-11.4
		c-0.1-3-0.7-5.9-0.9-8.9c-0.1-2.5-0.6-4.9-1.2-7.3c-0.5-2-2.2-3.7-4.2-3.1c-1.1,0.3-2.2,0.7-3.3,0.7c-3,0.1-5.9,0.9-8.9,1
		c-3.9,0.2-7.8,0.7-11.8,1c-4.2,0.3-8.4,1-12.5,1.5c-3.6,0.4-7.3,0.9-10.9,1c-5,0.2-10.1,0.4-14.9,2c-0.9,0.3-1.7,0.8-2.7,0.7
		c-1.2-0.1-2.5,1.1-2.4,2.3c0.2,2.1,0.3,4.2,0.8,6.2c0.6,2.3,1,4.7,1.3,7.1c0.6,3.9,1.2,7.7,1.6,11.6c0.5,4.4,0.9,8.8,1.8,13.2
		c0.1,0.4,0.2,0.4,0.5,0.4c3.7-0.1,7.4-0.3,11-1.1c2.6-0.6,5.2-0.7,7.8-1.1c1.7-0.2,3.5-0.4,5.2-0.5c1.4-0.1,2.6-0.7,4-0.7
		c2.6-0.1,5.1-0.6,7.7-1c2.1-0.3,4.2-0.3,6.2-0.6c2.7-0.4,5.6-0.2,8.3-0.4c0.8,0,1.6-0.1,2.5-0.2c1.6-0.3,3.3-0.7,4.9-0.7
		c1.3,0,2.6,0,3.8-0.2C232.7,50.4,235.5,50.3,238.5,49.8z"/>
	<path d="M38.3,24.4c0.2,1.7-0.7,3.4-2.2,4.9c-1.2,1.1-2.7,1.2-4.2,1c-3.2-0.4-6.4-1.3-9.5-2.1c-1.3-0.3-2.6-0.5-3.8-0.8
		c-1.8-0.4-3.6-0.7-5.4-1.2c-2.1-0.6-3.5-2-4.1-4.1c-0.8-2.5-0.2-4.7,1.7-6.5c0.6-0.5,1.4-0.6,2.1-0.4c2.9,0.7,5.8,0.3,8.6,0.4
		c3.8,0.1,7.6,0.2,11.3,1C36.4,17.3,38.3,20.6,38.3,24.4z M14.8,16.8c-0.4,0-0.8-0.1-1.2-0.1c-0.8,0.1-1.6-0.2-2.3,0.3
		c-2.6,1.8-1,6.3,0.9,7.2c2,1,4.2,1.4,6.3,1.9c2,0.5,4,0.8,5.9,1.3c1.2,0.4,2.6,0.2,3.8,0.7c1.4,0.6,2.9,0.8,4.4,0.8
		c1.7-0.1,3.5-0.2,4.3-2.2c0.7-1.7,0.6-5.3-1.2-7.1c-2-2-4.4-2.3-6.9-2.5C24.1,16.9,19.4,16.4,14.8,16.8z"/>
	<path d="M15.7,32.6c2.7,0.6,5.8,0.7,8.9,1.2c0.6,0.1,0.6,0.5,0.6,0.9c0,0.7-0.6,0.6-1,0.5c-1.9-0.2-3.8-0.5-5.7-0.8
		c-1.2-0.2-2.3-0.3-3.5-0.4c-0.5-0.1-1.1,0-1-0.7c0.1-0.6,0.5-0.7,1.1-0.7C15.2,32.6,15.3,32.6,15.7,32.6z"/>
	<path d="M22.8,38.9c-2.9-0.3-5.9-0.7-8.8-1c-0.4,0-0.9-0.1-0.8-0.7c0.1-0.6,0.4-1,1.1-0.8c2.6,0.5,5.2,0.7,7.8,1
		c0.4,0,0.7,0.1,1.1,0.3c0.4,0.2,0.5,0.6,0.4,1C23.4,38.9,23.1,39,22.8,38.9z"/>
	<path d="M32.1,115c-0.2,3.9-1.5,7.1-4.7,9.6c-2.8,2.1-5.8,2.6-9.2,1.9c-2.8-0.6-4.9-1.9-6.2-4.3c-0.8-1.4-1-2.9-1.2-4.5
		c-0.1-0.9-0.3-1.7-0.3-2.6c0-3.7,1.8-6.6,4.2-9.3c0.1-0.2,0.4-0.3,0.6-0.3c1.2,0,2.3-0.6,3.5-0.9c2.9-0.6,5.7-0.3,8,1.5
		c2.3,1.8,4.6,3.7,5.2,7C32.1,113.7,32,114.3,32.1,115z M21.4,125.2c6,0,9.6-4.5,9.8-9.8c0.1-3.6-2.1-6-4.8-7.9
		c-2.5-1.8-5.3-1.8-8.1-1.2c-1.8,0.4-3.6,0.9-4.7,2.7c-1.1,1.8-2.4,3.5-2.1,5.8c0.2,1.5,0.4,3.1,0.9,4.5
		C13.8,123.6,16.6,125.1,21.4,125.2z"/>
	<path d="M128.7,140.1c1.5,0.1,2.6,1,3.8,1.7c2.2,1.4,4.3,3,6.5,4.3c2.7,1.6,5.3,3.4,8.1,4.9c2.6,1.4,5.2,2.7,7.7,4.3
		c2.1,1.4,2.7,2.7,1.3,4.8c-1.3,2.1-2.8,4-4,6.1c-0.8,1.3-1.6,2.5-2.3,3.9c-0.7,1.3-1.5,2.5-2.5,3.6c-1,1-1.8,1.2-3,0.5
		c-1.9-1.3-3.8-2.7-5.8-3.9c-2.5-1.5-4.7-3.5-7.2-5c-1.8-1-3.4-2.3-5.2-3.5c-1.7-1-3.2-2.4-5.1-3.1c-1.3-0.5-2.2-1.6-2.8-2.8
		c-0.5-0.9,0.3-1.7,0.7-2.4c1.6-2.6,3.2-5.2,4.8-7.8c0.7-1.2,1.6-2.3,2.2-3.4C126.7,140.8,127.3,140.1,128.7,140.1z M155.5,158.2
		c0-0.5-0.1-0.9-0.4-1.3c-0.7-0.9-1.7-1.5-2.7-2c-5.4-2.7-10.5-6-15.7-9.2c-2.4-1.5-4.7-3.2-7.2-4.5c-0.6-0.3-1-0.3-1.5,0.1
		c-1,0.7-1.4,1.8-2,2.7c-2,3.2-3.9,6.4-5.9,9.7c-0.4,0.7-0.4,1.4,0,2c0.4,0.7,0.9,1.2,1.6,1.7c2.1,1.4,4.3,2.5,6.3,4
		c2.5,1.8,5.1,3.4,7.6,5.2c0.8,0.6,1.5,1.4,2.5,1.7c1.1,0.4,1.9,1.2,2.7,1.9c0.5,0.4,0.9,1,1.5,1.5c0.8,0.6,1.7,0.6,2.4,1.2
		c1.1,0.9,1.4,0.8,2.2-0.4c0.5-0.7,0.9-1.4,1.3-2.1c1.8-3,3.7-6,5.6-9C154.7,160.5,155.4,159.5,155.5,158.2z"/>
	<path d="M154.6,173.9c-0.5-0.5-1.4-0.7-2-1.2c-0.4-0.4,0.1-0.8,0.4-1.2c1.2-1.7,2.5-3.4,3.6-5.1c0.4-0.6,0.7-1.1,1.5-1.4
		c0.8-0.3,1.2,0,1.6,0.5c0.5,0.6,0.2,1-0.2,1.5c-1.7,1.9-2.8,4.1-3.9,6.3C155.5,173.7,155.2,173.9,154.6,173.9z M158.5,166.3
		c-0.1-0.1-0.1-0.2-0.2-0.3c-0.2-0.1-0.4,0.1-0.4,0.2c-1,1.9-2.9,3.3-3.7,5.4c-0.1,0.2-0.4,0.4-0.1,0.6c0.3,0.2,0.5,0.1,0.7-0.2
		c1.4-1.7,2-3.9,3.6-5.5C158.4,166.5,158.4,166.4,158.5,166.3z"/>
	<path d="M46.6,198.2c0,1.3-1.3,3.5-2.6,4c-1,0.4-2,0-3-0.3c-1.8-0.5-3.6-0.8-5.4-1.5c-0.6-0.2-1.3-0.2-2-0.5
		c-2-0.8-2.8-2.1-2.4-4.1c0.2-1.2,0.9-2.3,1.2-3.5c0.4-1.2,1.7-1.6,2.6-2.4c1.4-1.2,3.2-1.4,4.9-1.5c1-0.1,1.9,0.5,2.6,1.2
		c1.6,1.8,3.1,3.7,3.7,6.2C46.4,196.5,46.5,197.3,46.6,198.2z M45.2,196.1c-0.1-1.3-0.9-2.4-1.4-3.6c-0.3-0.8-1-1.5-1.6-2
		c-1.1-0.9-2.3-1.5-3.8-0.6c-0.3,0.2-0.8,0.2-1.2,0.3c-1.2,0.4-2.3,1-2.8,2.1c-0.8,1.5-1.6,2.9-2.1,4.5c-0.2,0.6,0,1.1,0.5,1.3
		c0.7,0.3,1.4,0.7,2.2,0.9c2.5,0.5,4.8,1.4,7.2,2.1c0.3,0.1,0.7,0.2,1,0c1.5-0.9,2.2-2,2.1-3.5C45.1,197.2,45,196.7,45.2,196.1z"/>
</g>
</svg>
