<?xml version="1.0" encoding="utf-8"?>
<!-- Generator: Adobe Illustrator 18.1.1, SVG Export Plug-In . SVG Version: 6.00 Build 0)  -->
<svg version="1.1" id="Ebene_1" xmlns="http://www.w3.org/2000/svg" xmlns:xlink="http://www.w3.org/1999/xlink" x="0px" y="0px"
	 width="250px" height="250px" viewBox="-18 -60 250 250" enable-background="new -18 -60 250 250" xml:space="preserve">
<g>
	<path d="M60.5,175.6l-0.4-0.4c-1-1-1.9-1.3-3.1-1c-0.5,0.1-1.1,0.1-1.7,0c-0.4,0-0.8-0.1-1.2,0l-0.1,0c-0.1,0-0.2,0-0.3-0.1
		c-0.1-0.1-0.1-0.2-0.1-0.4c0.2-2.4-0.3-4.8-0.8-7.1c-0.1-0.6-0.3-1.2-0.4-1.8c-0.4-2.2-0.4-4.4-0.3-6.6c0-1.1,0.1-2.2,0-3.3
		c-0.1-3.2-0.3-6.3-0.6-9.5c-0.1-0.7-0.1-1.5-0.2-2.2c-0.2-1.5-0.3-3.1-0.3-4.6l0-0.2c0-1.9,0-3.9-0.2-5.8
		c-0.3-3.5-0.4-7.1-0.5-10.5c0-0.8,0-1.6-0.1-2.4c-0.1-3.2-0.1-6.3-0.1-9.4c0-3.6-0.2-6.5-0.7-9.1c-0.3-1.6,0.6-2.3,1.6-3.1l0.8-0.6
		c1.5-1.2,3.1-2.4,4.4-3.8c0.9-0.9,1.8-1.8,2.6-2.6c1.7-1.7,3.5-3.4,5.1-5.3c1.3-1.5,2.2-3.1,2.8-4.7c0.2-0.5,0.4-1.1,0.6-1.6
		c0.2-0.6,0.4-1.1,0.6-1.7c0.7-1.8,0.5-3.3-0.6-4.6c-0.7-0.9-1.5-1.7-2.3-2.3c-1.1-0.9-2.4-1.8-4-1.8c-0.4,0-0.8,0.1-1.2,0.2
		c-0.9,0.3-1.8,0.4-2.6,0.5c-1.1,0.1-2.1,0.5-3.1,1.2c-2.2,1.5-4.8,3.1-6.7,5.5c-1.4,1.7-2.4,3.6-3.1,5.7c-0.5,1.7-0.6,3.4-0.6,5.2
		c0,0.4,0,0.9-0.1,1.3c-0.1,2,0.1,4.3,0.5,7.1c0.3,1.5,0.3,2.9-1.2,3.7c-0.4,0.2-0.7,0.5-0.9,0.9c-0.2,0.2-0.3,0.4-0.5,0.5
		c-1.7,1.6-3.4,3.1-5,4.7c-2.3,2.1-4.6,4.3-6.9,6.4c0,0-0.1,0.1-0.1,0.1c-0.2,0.2-0.2,0.2-0.4,0.2c-0.3-0.1-0.6-0.2-1-0.2
		c-0.3,0-0.5,0-0.8,0.1c-0.2,0-0.4,0.1-0.6,0.1c-1.4,0.1-2.8,0.4-4.2,0.7c-0.8,0.2-1.7,0.4-2.6,0.6c-2.2,0.4-4.2,1.1-6,2.2
		c-2.1,1.3-3.9,2.7-5.7,4.4c-2.1,2-4.3,4.2-6.1,6.7c-2,2.9-3.8,5.6-5.3,8.3c-1.3,2.2-2.1,4.7-2.6,7.2c-0.8-0.7-1.6-1.3-2.8-1.4
		c-1.1-0.1-1.6,0.1-2.4,0.7c-1.5,1.2-2.4,2.7-3.1,4.3c-0.6,1.4-1.1,2.7-1.4,3.9c-0.2,0.6-0.3,1.3-0.4,1.9c-0.1,0.8-0.3,1.7-0.6,2.5
		c-0.6,1.9-0.6,3.8,0.1,5.6c0.5,1.4,2.4,2.9,3.5,2.7c1.5-0.2,3.2-0.7,4-2.5c0.1-0.2,0.2-0.4,0.3-0.6c0,0,0,0,0,0
		c1,2.1,2.6,3.5,4,4.7c2,1.6,4.2,3,6.4,4.4l0.6,0.4c3,1.9,6,3.1,9,3.5c0.8,0.1,1.6,0.1,2.3,0.1c1,0,1.9,0,2.9,0.2
		c1.7,0.4,3.6,0.4,6,0.1c0.8-0.1,1.6-0.3,2.5-0.6c0.3-0.1,0.6-0.2,0.9-0.2l0,0.3c0,0.3,0.1,0.7,0.1,1c0.2,1.6,2.2,3.3,3.8,3.3
		c0.2,0,0.4,0,0.6-0.1c2.3-0.7,3.8-2.1,4.3-4.2c0.1-0.2,0.1-0.4,0.3-0.6c0.9-1.4,1.5-3,2.1-4.5c0.2-0.6,0.4-1.2,0.7-1.7
		c0.8-2,1.4-4.2,1.9-6.6c0.2-1.2,0.1-2.1-0.4-2.7c-0.4-0.6-1.1-0.9-2.1-1.1c-0.8-0.1-1.4-0.1-2-0.1c-0.1,0-0.1,0-0.2,0
		c-0.2,0-0.3,0-0.3-0.1c0,0-0.1-0.1,0-0.5c0.7-2.3,1.3-4.6,1.8-6.9l0.2-0.6c0.4-1.6,0.9-3.1,1.4-4.6c0.4-1.2,0.8-2.4,1.1-3.6
		c1-3.5,1.2-6.2,0.7-8.9c0-0.2-0.1-0.4-0.1-0.7c-0.1-0.9-0.3-1.8-0.8-2.6c-0.7-1.1-1.4-2.2-2-3.3c-1-1.7-2-3.5-3.3-5
		c-0.5-0.6-1.1-1.3-1.2-2c-0.1-0.4,0.3-0.7,0.8-1.1c0.2-0.2,0.5-0.4,0.7-0.6c2.8-3.6,5.4-6.1,8.1-8.1c0.4-0.3,0.8-0.6,1.1-0.8
		c0.3-0.2,0.4-0.5,0.4-0.7c0-0.2,0-0.5-0.2-0.6c-0.1-0.2-0.3-0.3-0.5-0.3c-0.3,0-0.5,0.2-0.8,0.4c-1.9,1.5-3.9,3.1-6.3,5.4
		c-0.7,0.6-1.3,1.3-1.8,2c-0.7,0.9-1.5,1.8-2.5,2.5c-0.1,0.1-0.2,0.2-0.4,0.2c-0.4,0.2-0.8,0.5-0.9,0.9c-0.1,0.5,0.3,0.8,0.6,1
		c0.2,0.1,0.4,0.2,0.4,0.4c0,0.1,0.1,0.1,0.1,0.2c0.1,0.1,0.1,0.2,0.2,0.2c0.7,1.2,1.5,2.5,2.2,3.6c0.9,1.4,1.8,2.9,2.6,4.3
		c1.2,2.4,2.4,4.9,2.3,7.9c-0.1,2.4-0.7,4.7-1.4,6.9l-0.2,0.8c-0.4,1.5-0.9,3-1.3,4.4c-0.8,2.5-1.6,5-2.2,7.6c-0.5,2.1-1,4.4-2,6.5
		c-1.2,2.6-2.5,5.2-3.8,7.8l-1.1,2.3c-0.4,0.7-0.7,1.3-1.4,1.5c-1.9,0.6-3.7,0.9-5.5,0.9c-1,0-2.1-0.1-3.1-0.3
		c-0.9-0.1-1.8-0.2-2.7-0.3c-3.4-0.1-6.6-0.9-9.5-2.6l-0.9-0.5c-3.2-1.8-6.5-3.8-9.1-6.6l-0.2-0.3c-1.3-1.4-2.5-2.7-2.2-4.7
		c0-0.3,0.2-0.7,0.3-1c0.1-0.2,0.2-0.4,0.2-0.7c1-3.3,1.8-6.7,2.4-10.3c0.5-2.7,1-5.6,2.6-8.1c2.5-4.2,5.1-8.3,8.5-12
		c2.8-3,6.3-6.4,10.9-8.4c0.2-0.1,0.4-0.2,0.6-0.3c0.5-0.2,0.9-0.5,1.5-0.5c0,0,0,0,0,0l0.1,0c1.2,0,2.3-0.3,3.4-0.7
		c0.2-0.1,0.5-0.1,0.7-0.2c1.6-0.4,3.1-0.6,4.8-0.6c0.1,0,0.2,0.1,0.3,0.1c0.2,0.1,0.3,0.2,0.5,0.2c0.3,0,0.5-0.2,0.6-0.5
		c0.1-0.2,0.3-0.3,0.5-0.4c0.3-0.2,0.6-0.4,0.7-0.8c0.1-0.5,0.4-0.7,0.7-1c0.1-0.1,0.2-0.2,0.3-0.3c0.3-0.3,0.7-0.5,1.1-0.7
		c0.6-0.4,1.3-0.8,1.7-1.5c0.6-1,1.5-1.8,2.9-2.7c1.5-0.9,2.6-2.1,3.8-3.3l0.1-0.1c0.7-0.7,1.6-1.6,2.6-2.4c0,0.7,0,1.3,0.1,2
		c0,0.4,0.1,0.8,0.1,1.3c0,1.1,0,2.3,0.1,3.4c0,2.4,0.1,4.8,0.2,7.2c0,0.6,0.1,1.2,0.1,1.8c0.2,3,0.4,6.1,0.3,9.2c0,2-0.1,4,0.2,6
		c0.1,1.1,0.2,2.2,0.3,3.3c0,0.7,0.1,1.5,0.2,2.3c0.1,0.8,0.1,1.6,0.1,2.4c0,1,0.1,2,0.2,3c0.3,2.8,0.5,5.7,0.6,8.5l0,0.6
		c0.1,2.3,0.2,4.5,0.5,6.7c0.1,0.7,0.2,1.4,0.3,2.1c0.2,1.3,0.4,2.7,0.5,4.1c0.2,2.5,0.3,5.2,0.3,8.5c0,2.1,0,2.2-2,3
		c-0.1,0.1-0.3,0.1-0.4,0.2c-0.4,0.1-0.8,0.3-1.1,0.5c-0.3,0.2-0.7,0.3-1.1,0.4c-0.6,0.1-1.1,0.3-1.6,0.8c-1.2,1.5-2.7,3.5-3.6,5.9
		c-0.4,1-0.5,1.6-0.2,2c0.3,0.4,0.8,0.6,1.9,0.7c0.1,0,0.2,0,0.3,0l0.2,0l0.1,0c0.1,0,0.2,0,0.2,0c1.1,0,2.2-0.2,3.2-0.4
		c0.6-0.1,1.1-0.2,1.7-0.3c2.7-0.4,5-0.8,7.1-1.3l0.8-0.2c1.7-0.4,3.4-0.8,5.1-1l0.3,0c1.2-0.1,2.5-0.2,3.6-0.9
		c0.7-0.4,1.1-0.9,1.2-1.4c0.1-0.5-0.2-1-0.8-1.7C62.8,177.8,61.7,176.7,60.5,175.6z M50.5,174.7c0,0,0-0.1,0.1-0.1
		c0.1-0.2,0.2-0.3,0.1-0.5c-0.3-0.9-0.2-1.8-0.2-2.7c0-0.5,0.1-1,0-1.5c-0.1-3.4-0.5-6.8-0.8-10.1c-0.2-1.6-0.3-3.3-0.5-4.9
		c-0.1-1-0.2-2-0.2-3c-0.1-1.6-0.2-3.3-0.4-4.9c-0.3-2.8-0.4-5.6-0.6-8.3c-0.1-2-0.2-4.1-0.4-6.2c-0.2-2.8-0.3-4.9-0.2-6.9
		c0.1-1.9,0-3.9-0.1-5.9c0-0.6-0.1-1.1-0.1-1.7c0-1-0.1-2-0.2-3c-0.1-1.6-0.2-3.3-0.2-4.9c0-3.2-0.1-7.1-0.5-11
		c-0.5-5-0.6-9.5-0.3-13.7c0.3-4.3,2.4-7.9,6.2-10.7l0.5-0.4c0.7-0.5,1.4-1,2.1-1.6c2.3-1.8,5.2-2,7.7-2.1c0,0,0.1,0,0.1,0
		c0.6,0,1.2,0.4,1.7,0.8c0.3,0.3,0.5,0.5,0.8,0.8c0.3,0.3,0.6,0.7,1,1c1.1,1,1.4,2.3,0.8,4c-0.4,1.1-0.9,2.1-1.4,3.2
		c-0.2,0.3-0.3,0.7-0.5,1c-1,2.1-2.5,4.1-4.7,6.1c-1,0.9-2,1.9-2.9,2.9c-1.1,1.1-2.2,2.3-3.4,3.3c-0.4,0.3-0.8,0.7-1.1,1
		c-1.1,1-2.3,2.1-3.7,2.9c-0.1-0.4,0-0.7,0.1-1.1c0.1-0.4,0.2-0.9,0-1.3c0.4-0.2,0.7-0.5,1-0.8c0.2-0.2,0.3-0.4,0.5-0.5
		c1.1-1,2.1-1.9,2.9-2.9c0.8-1,1.8-1.9,2.8-2.8c0.2-0.2,0.4-0.3,0.6-0.5c0.4-0.3,0.7-0.6,1-0.9c0.6-0.6,1.3-1.2,1.9-1.7
		c0.9-0.7,1.7-1.5,2.4-2.4c0.3-0.3,0.5-0.6,0.8-0.9c1.7-1.8,2.4-4.2,2.1-6.9c-0.2-1.6-1.7-2.3-3.1-2.7c-1.4-0.4-2.9-0.2-4.7,0.6
		c-2.3,1.1-4.3,2.8-5.6,5c-1.3,2.1-2.2,4.1-2.7,6c-1,3.6-1.5,7.4-1.6,12c-0.1,2.3,0.2,4.7,0.4,6.9c0.2,2.3,0.5,4.6,0.4,6.9
		c-0.1,3.7,0,7.5,0,11.1c0,1.6,0.1,3.2,0.1,4.7c0,1.5,0.2,3,0.3,4.5c0.1,1.3,0.3,2.7,0.3,4.1c0.1,5.9,0.6,11.7,1.1,18.1
		c0.2,2,0.3,4.2,0.1,6.4c-0.3,2.9,0.2,5.8,0.7,8.7l0.2,0.8c0.3,1.8,0.7,3.6,0.7,5.4c0,0.9,0.1,1.5,0.5,1.8c0.4,0.4,1,0.5,2,0.4
		c0.4,0,0.9,0,1.3,0c0.6,0,1.2,0,1.7,0c0.4-0.1,0.9,0.4,1.3,0.9c0.1,0.2,0.3,0.3,0.4,0.4c0.7,0.6,1.3,1.3,1.9,2c0.5,0.5,1,1,1.5,1.5
		c0.3,0.3,0.2,0.4,0.2,0.4c0,0,0,0.1-0.4,0.2l-0.9,0.2c-1.2,0.2-2.5,0.4-3.7,0.6c-0.8,0.1-1.5,0.3-2.2,0.5c-0.3,0.1-0.5,0.1-0.8,0.2
		c-3.4,0.9-6.9,1.5-10.5,2c-0.3,0.1-0.7,0.1-1,0.2c-1,0.2-2,0.4-2.9,0.3l-0.1,0c-0.1,0-0.2,0-0.3,0c0,0,0-0.1,0.1-0.2
		c0.3-0.5,0.5-0.9,0.8-1.4c0.6-1.1,1.3-2.3,2-3.5c0.9-1.4,2.3-2,3.9-2.6l0.2-0.1c0.1-0.1,0.3-0.1,0.4-0.2
		C48.8,176.5,50,176.1,50.5,174.7z M49.8,93.2c0-0.3,0-0.6,0.1-1c0.1-1,0.1-1.9,0.3-2.8c0.2-0.7,0.3-1.3,0.4-2
		c0.2-1.1,0.4-2.3,0.9-3.4c0.3-0.6,0.6-1.3,0.8-1.9c0.3-0.7,0.6-1.5,1-2.2c1.2-2.4,2.6-4,4.4-5l0.1-0.1c1.2-0.7,2.4-1.4,3.9-1.4
		c0.3,0,0.6,0,0.9,0.1c1,0.2,1.4,0.7,1.5,1.6c0.3,2.6-0.7,4.9-3.1,7.3c-1.1,1-2.2,2.1-3.3,3.1C54.9,88,52.2,90.5,49.8,93.2z
		 M-5.7,144.9c-0.3,1.8-0.7,3.7-1.3,5.8c-0.6,2-1,3.7-1.3,5.3c-0.4,1.8-1.3,3.2-2.7,4.1c-0.5,0.3-1.1,0.5-1.6,0.5
		c-1.2,0-2-1-2.1-2.4c0-0.2,0-0.3,0-0.5l0-0.2c0.1-0.7,0.2-1.4,0.3-2.1c0.4-2.9,0.8-5.9,2.1-8.7c0.1-0.2,0.2-0.4,0.3-0.6
		c0.5-1.1,1-2.2,1.9-3l0.1-0.1c0.5-0.5,1.1-0.9,1.8-0.9c0.1,0,0.2,0,0.3,0c0.9,0.1,1.5,0.4,1.9,0.9C-5.7,143.5-5.6,144.1-5.7,144.9z
		 M28.9,169.9c0.1-0.3,0.3-0.6,0.4-0.9c1.4-3.2,2.9-6.3,4.3-9.4l0.8-1.7c0.5-1,1.8-1.8,3-1.8c0.3,0,0.6,0,0.8,0.1
		c0.6,0.2,0.6,0.8,0.5,1.5l0,0.1c-0.5,3.1-1.5,6-2.4,8.1c-0.8,2.1-1.9,4.2-2.9,6.2l-0.1,0.3c-0.5,1.1-1.2,1.8-2.1,2.1
		c-0.4,0.1-0.7,0.2-1.1,0.2c0,0,0,0,0,0c-1.1,0-1.9-0.9-2-2.2C28,171.7,28.5,170.8,28.9,169.9z"/>
	<path d="M230.7,57.4c-0.1-0.3-0.4-0.5-0.6-0.6c-2.2-1.3-4.7-1.9-7.1-2.4c-0.9-0.2-1.9-0.5-2.8-0.7c-1.5-0.4-3.1-0.9-4.7-1.1
		c-1.6-0.2-3.3-0.7-4.9-1.1c-0.8-0.2-1.6-0.4-2.5-0.6c-1-0.2-2-0.4-3-0.7c-1.7-0.4-3.5-0.8-5.2-1.2c-0.8-0.2-1.7-0.5-2.5-0.7
		c-1.8-0.6-3.7-1.2-5.6-1.4c-0.4,0-0.8-0.1-1.2-0.1c-0.8,0-1.9,0.2-2.6,1.4c-0.3,0.6-0.5,1.3-0.7,2c-0.1,0.3-0.3,0.7-0.8,0.7l-0.1,0
		c-0.9,0-1.7,0.3-2.5,0.7c-0.2,0.1-0.5,0.2-0.7,0.3c-1.8,0.7-3.3,1.9-4.7,3.2c-0.4,0.3-0.5,0.8-0.3,1.1c0.1,0.2,0.2,0.3,0.4,0.3
		c0.2,0,0.3-0.1,0.4-0.2c0,0,0.1-0.1,0.1-0.1c0.2-0.1,0.2,0,0.4,0.2c0,0,0.1,0.1,0.1,0.1c0,0,0,0.1,0,0.1c0,0-0.1,0.1-0.2,0.1
		c-0.1,0-0.1,0.1-0.2,0.1c-0.3,0.3-0.7,0.4-1.2,0.5c-0.5,0.1-1,0.2-1.5,0.3c-0.2,0-0.4,0.1-0.6,0.1c-0.3,0.1-0.5,0.3-0.5,0.6
		c0,0.2,0.1,0.4,0.5,0.5c0.4,0.1,0.8,0,1.1-0.1c0.1,0,0.2-0.1,0.3-0.1c0.4-0.1,0.5,0.1,0.6,0.5c0,0.1,0.1,0.2,0.1,0.2c0,0,0,0,0,0.1
		c0,0.1-0.3,0.1-0.5,0.2c-0.2,0-0.5,0-0.7-0.1c-0.1,0-0.3-0.1-0.4-0.1c-0.1,0-0.2,0-0.4-0.1c-0.2,0-0.4-0.1-0.6-0.1
		c-0.3,0-0.5,0.1-0.7,0.3c-0.3,0.2-0.3,0.5-0.1,0.8c0.4,0.5,1.1,0.7,1.7,0.5c0.4-0.1,0.6,0.1,0.8,0.5c0.1,0.2,0.3,0.5,0.6,0.6
		c-0.1,0.1-0.3,0.1-0.5,0.2c-0.2,0-0.5,0-0.7,0.2c-0.3,0.2-0.7,0.4-1.2,0.3c-0.3,0-0.5,0-0.7,0.2c-0.1,0.1-0.2,0.3-0.2,0.5
		c0,0.6,0.5,0.6,0.8,0.6c0.3,0,0.5,0,0.7,0c0.1,0,0.1,0,0.2,0c0.4,0,0.6,0.3,0.6,0.5c0,0.1-0.2,0.3-0.6,0.5
		c-0.3,0.1-0.6,0.2-0.9,0.3c-0.4,0.1-0.7,0.3-1.1,0.4c-0.1,0-0.1,0-0.2,0.1c-0.2,0.1-0.5,0.1-0.6,0.3c-0.1,0.1-0.1,0.3,0,0.5
		c0.1,0.3,0.3,0.6,0.8,0.6c0.2,0,0.3,0,0.5-0.1c0.1,0,0.2,0,0.2-0.1c0.4-0.1,0.7-0.1,1,0c-0.6,0.5-1.3,0.6-2,0.4
		c-0.2,0-0.3-0.1-0.4-0.1c-0.6,0-0.7,0.6-0.7,0.7c0,0.2,0,0.4,0.1,0.6c0.1,0.1,0.3,0.2,0.5,0.2c0.1,0,0.3,0,0.4,0
		c0.7-0.1,1.2,0,1.4,0.6c-0.7,0.4-1.5,0.9-2.4,1.2c-0.5,0.2-0.8,0.5-0.7,1c0.1,0.4,0.3,0.4,0.5,0.4c0.1,0,0.2,0,0.3-0.1
		c0,0,0.1,0,0.1,0c0.3-0.1,0.6,0,0.9,0.1c0.3,0.1,0.6,0.2,1,0.2c-0.9,0.9-1.7,1.6-2.6,1.9c-0.2,0.1-0.6,0.3-0.7,0.6
		c-0.1,0.2,0,0.4,0.1,0.6c0.3,0.4,0.5,0.5,0.7,0.5c0.2,0,0.4-0.1,0.6-0.2c0.3-0.2,0.5-0.2,0.9-0.1c-0.6,0.5-1.4,0.8-2.2,1.2
		c-0.7,0.3-1,0.9-1,1.5c0,0.2,0,0.3,0.1,0.5c0.2,0.2,0.4,0.2,0.6,0.2c0.1,0,0.2,0,0.2,0c0.1,0,0.2,0,0.3,0c0.1,0,0.2,0,0.3,0
		c-0.5,0.3-1,0.4-1.5,0.6c-0.3,0.1-0.6,0.2-0.9,0.3c0,0-0.1,0-0.1,0c-0.2,0.1-0.5,0.2-0.5,0.4c0,0.1,0,0.2,0.1,0.3
		c0.1,0.2,0.2,0.4,0.3,0.6c0.2,0.5,0.4,1.2,1.3,1.2l0.2,0c0.6,0,1.2,0.2,1.8,0.6c-0.5,0.2-0.9,0.5-1.3,0.8c-0.7,0.5-1.4,1-2.3,1.1
		c-0.3,0-0.7,0.2-0.7,0.8c0,0.5,0.4,0.6,0.7,0.7c0.5,0.1,1.3,0.2,2,0.4c0.1,0,0.2,0,0.3,0c0.3,0,0.3,0.1,0.3,0.2
		c0,0.1,0,0.1-0.2,0.2c-0.1,0-0.2,0.1-0.2,0.1c-0.7,0.6-1.5,1.3-2,2.2c-0.2,0.4-0.2,0.7,0.1,1.1c0.3,0.3,0.6,0.4,0.9,0.2
		c0.4-0.1,0.7-0.2,1.1-0.2c-0.1,0-0.1,0.1-0.2,0.1c-0.2,0.1-0.4,0.3-0.6,0.4c-0.5,0.4-1.1,0.8-1.6,1.2c-0.5,0.4-0.6,1-0.4,1.5
		c0.2,0.4,0.6,0.5,0.8,0.5c0.1,0,0.2,0,0.3,0l0.2,0c0.2,0,0.4,0,0.6,0l0.5,0c0.1,0,0.1,0,0.2,0c-0.1,0.1-0.2,0.2-0.3,0.4
		c-0.3,0.5-0.7,0.9-1,1.4c-0.4,0.6-0.4,1.2,0,1.6c0.2,0.2,0.4,0.3,0.6,0.3c0.2,0,0.5-0.1,0.7-0.2l0.1,0c0.1,0,0.3-0.1,0.4-0.2
		c0.4-0.2,0.7-0.3,1.2-0.3l-0.2,0.3c-0.3,0.5-0.6,0.9-0.9,1.4c-0.6,0.9-0.3,1.5,0,1.8c0.2,0.2,0.4,0.3,0.6,0.3
		c0.3,0,0.6-0.2,0.8-0.4c0.1,0,0.1-0.1,0.2-0.1c0.6-0.4,1.1-0.8,2-0.9c0,0,0,0.1-0.1,0.1c-0.1,0.3-0.2,0.5-0.4,0.6
		c-0.6,0.6-0.7,1.4-0.8,2.1c0,0.6,0.1,1,0.4,1.3c0.4,0.4,1,0.5,1.7,0.2c0.4-0.2,0.7-0.4,1-0.6c0.2-0.1,0.5-0.3,0.7-0.4
		c0.5-0.3,0.6-0.2,0.6-0.1c0,0,0.1,0.2,0.1,0.5l0,0.2c0,0.2,0,0.4-0.1,0.5c-0.2,0.9,0.4,1.5,0.8,1.8c0.3,0.2,0.6,0.4,0.9,0.4
		c0.4,0,0.7-0.1,1-0.4c0.4-0.5,1-0.7,1.5-1.1c0.5-0.3,1-0.5,1.4-0.9c1.9-1.7,3.8-3.5,5.1-5.9c0.3-0.7,0.6-0.8,0.9-0.8
		c0.2,0,0.4,0,0.6,0.1c2.2,0.7,4.4,1.2,6.6,1.6c1.2,0.2,2.5,0.5,3.7,0.8c1.5,0.4,3,0.8,4.5,1.2c1.7,0.4,3.4,0.9,5.1,1.3
		c0.8,0.2,1.6,0.4,2.4,0.6c1.8,0.4,3.7,0.9,5.5,1.2c0.2,0,0.4,0.1,0.6,0.1c1.8,0,3.1-1.3,3.4-3.3c0.1-0.6,0.1-1.1,0.2-1.7
		c0.3-2.2,0.6-4.4,1-6.6c0.6-2.9,1.4-5.8,2.5-9.1c0.7-2.2,1.3-4.5,1.8-6.7c0.5-2.1,1-4.3,1.7-6.4c0.5-1.5,0.8-3.1,1.2-4.6
		c0.1-0.6,0.3-1.3,0.4-1.9C232.1,61.4,231.6,59.5,230.7,57.4z M188.2,81.6c0-0.2,0-0.4,0-0.6c-0.1-4.5,0.7-8.9,1.5-12.1
		c0.7-3,1.9-6.1,3.7-10c0.1-0.3,0.2-0.5,0.3-0.8c0.3-0.8,0.6-1.6,1.5-2.1c0.5-0.3,1.2-0.6,1.9-0.6c0.2,0,0.4,0,0.6,0.1
		c0.3,0.1,0.5,0.1,0.8,0.2c0.8,0.2,1.6,0.3,2.3,0.6c2,0.7,3.2,2.2,3.3,4.3c0.2,3.4-0.8,6.6-1.7,9.4c-1.1,3.1-2.3,6.2-3.4,9.3
		c-0.7,1.9-1.5,3.8-2.2,5.8c-0.9,2.5-2.6,4.1-5,4.8c-0.1,0-0.2,0-0.3,0c-0.3,0-0.5-0.2-0.7-0.5c-1.5-1.9-2.4-4-2.6-6.4
		C188.2,82.5,188.2,82,188.2,81.6z M190.7,95.2c0.4-1.2,0.8-2.3,1-3.4c0.1-0.5,0.5-0.7,1-0.8c3.7-1.1,5.1-4.1,6.3-7.4
		c0.5-1.4,1.1-2.9,1.7-4.3c0.3-0.7,0.6-1.5,0.9-2.2l0.5-1.4c1.6-4.1,3.3-8.3,3.7-12.8c0.2-2.5-0.5-4.9-2.2-6.8
		c-0.3-0.3-0.6-0.6-1.2-0.8c-1.4-0.7-2.9-1.1-4.4-1.3c-0.3,0-0.6-0.1-0.9-0.1c-2,0-3.4,1-4.5,3.2c-1.5,3-2.8,6.1-3.9,9.3
		c-1.1,3.3-1.6,6.7-2,10c-0.1,0.5-0.1,1-0.2,1.5c-0.3,2.3,0.1,4.6,0.4,6.5c0.4,1.9,1.2,3.7,2.7,5.4c0.9,1,1,1.9,0.4,2.8
		c-0.1,0.2-0.2,0.4-0.2,0.6l0,0.1c-0.5,1.4-0.6,1.7-1.1,1.7c-0.3,0-0.8-0.1-1.5-0.3l-1-0.3c-1.8-0.5-3.8-1.1-5.6-1.7
		c-1.3-0.5-1.4-0.7-1.2-2.1c0.5-3.6,1.2-8,2.3-12.1c0.8-2.9,1.8-6.3,2.7-9.6c1.6-5.5,3.1-10.8,4-16.3c0.2-1.1,0.4-2.3,0.9-3.4
		l0.1-0.2c0.2-0.5,0.3-0.7,0.6-0.7c0.1,0,0.3,0.1,0.6,0.2c0.4,0.2,0.9,0.2,1.3,0.2c0.2,0,0.4,0,0.7,0c1.1,0.1,2.1,0.4,3.1,0.8
		c0.5,0.2,1.1,0.4,1.7,0.5c1.7,0.4,3.3,0.8,5,1.2c2,0.5,4.1,1,6.2,1.5c1.6,0.4,3.3,0.8,4.9,1.1c2.1,0.4,4.2,0.8,6.2,1.5
		c2.2,0.7,4.4,1.3,6.6,1.8c0.5,0.1,0.9,0.3,1.4,0.5c0.5,0.2,1.1,0.5,1.7,0.6c0,0,0.2,0,0.2,0.2c0.1,0.2,0.1,0.4,0.2,0.6
		c0.3,1.1,0.7,2.2,0.4,3.4c-0.9,4.1-2,8.2-3.2,12.3c-0.4,1.4-0.7,2.8-1,4.2c-0.3,1.7-0.7,3.4-1.2,5.1c-1.8,5.9-2.9,11.9-3.8,17
		c-0.1,0.9-0.9,1.5-1.8,1.4c-1.7-0.1-3.4-0.6-5-1c-0.5-0.1-1-0.3-1.5-0.4c-6.5-1.7-12.6-3.1-18.5-4.4c-0.4-0.1-0.8-0.2-1.2-0.3
		c-0.6-0.1-1.2-0.3-1.8-0.4c-0.2,0-0.3-0.1-0.3-0.1C190.7,95.6,190.7,95.4,190.7,95.2z M180,102.7c0-0.6-0.1-1.3-0.8-1.6
		c-0.2-0.1-0.3-0.1-0.5-0.1c-0.4,0-0.7,0.2-1,0.4c-0.1,0-0.1,0.1-0.2,0.1c-0.5,0.3-1,0.6-1.5,0.9l-0.1,0.1c0,0-0.1,0.1-0.1,0.1
		c-0.1,0.1-0.2,0.1-0.2,0.1c0,0,0,0,0,0c-0.1-0.1-0.1-0.4,0-0.6c0.1-0.3,0.3-0.6,0.5-0.9l0.1-0.1c0.3-0.5,0.5-0.9,0.6-1.3
		c0.1-0.6,0.1-1.1-0.2-1.4c-0.3-0.4-0.8-0.5-1.6-0.3c-0.3,0.1-0.6,0.2-0.9,0.3c0,0,0,0-0.1,0c0.1-0.2,0.2-0.3,0.3-0.5
		c0.4-0.6,0.9-1.2,0.4-2.1c-0.3-0.4-0.6-0.7-1.1-0.7c-0.3,0-0.6,0.1-0.9,0.2c-0.2,0.1-0.4,0.1-0.6,0.2c0,0,0.1-0.1,0.1-0.1
		c0.3-0.4,0.5-0.7,0.8-1c0.3-0.4,0.7-0.8,0.3-1.4c-0.3-0.5-0.8-0.7-1.4-0.6l-0.1,0c-0.2,0-0.3,0.1-0.5,0c0.1-0.2,0.3-0.3,0.6-0.5
		c0.2-0.1,0.4-0.2,0.5-0.3c0.1-0.1,0.2-0.1,0.3-0.2c0.3-0.2,0.8-0.5,0.7-1.2c-0.2-0.9-0.8-1.4-1.6-1.3c0,0,0,0,0,0
		c0.1-0.1,0.1-0.1,0.2-0.2c0.3-0.2,0.5-0.5,0.8-0.7c0.5-0.5,0.8-1,0.8-1.5c0-0.5-0.4-0.9-1-1.3c-0.3-0.2-0.3-0.3-0.3-0.3
		c0,0,0-0.1,0.2-0.3c0.1-0.1,0.3-0.2,0.4-0.3c0.2-0.2,0.5-0.4,0.7-0.5c0.5-0.2,0.9-0.5,0.9-0.9c0.1-0.4-0.1-0.8-0.5-1.3
		c-0.5-0.7-1.3-0.8-2-1c-0.1,0-0.2,0-0.3,0c-0.1,0-0.3,0-0.4,0c0.2-0.1,0.4-0.1,0.6-0.2c0.6-0.2,1.2-0.3,1.8-0.7
		c0.1,0,0.1-0.1,0.2-0.1c0.4-0.2,0.8-0.5,0.7-1.2c-0.1-0.5-0.2-0.9-0.9-1.2c0.7-0.3,1.4-0.6,1.8-1.2c0.3-0.4,0.3-0.7,0.3-1.1
		c-0.1-0.4-0.4-0.8-0.8-1.1c0,0,0.1-0.1,0.1-0.1c0.2-0.2,0.4-0.3,0.6-0.4c0.5-0.4,0.8-0.8,0.8-1.2c0-0.3-0.1-0.5-0.2-0.8l0,0l0,0
		c-0.1-0.1-0.1-0.2-0.2-0.3c-0.2-0.2-0.2-0.3-0.2-0.4c0-0.1,0.3-0.2,0.4-0.3c0.5-0.2,0.7-0.4,0.8-0.8c0.1-0.3,0-0.7-0.3-1.1
		c-0.2-0.3-0.2-0.4,0.1-0.6c0.6-0.4,0.5-1,0.3-1.5c-0.1-0.2-0.1-0.5-0.1-0.6c0.1-0.2,0.3-0.3,0.6-0.5c0.4-0.2,0.9-0.5,0.9-1.1
		c0.1-0.4-0.1-0.6-0.3-0.9c-0.1-0.1-0.1-0.2-0.1-0.2c0,0,0,0,0.2-0.1c0.8-0.5,1-1.3,0.5-2.2c-0.1-0.1-0.1-0.3-0.1-0.4
		c0-0.1,0.2-0.2,0.3-0.2c0.4-0.1,0.7-0.4,0.8-0.7c0.1-0.3,0-0.7-0.3-1.1l-0.1-0.1c-0.1-0.1-0.2-0.2-0.1-0.3c0,0,0-0.1,0.3-0.2
		c0.6-0.3,1-0.5,1.1-0.9c0.1-0.4,0-0.8-0.4-1.5c0-0.1-0.1-0.1-0.1-0.2c-0.2-0.2-0.2-0.2,0-0.4c2.1-1.6,3.8-2.8,6.2-2.9
		c0.1,0,0.1,0,0.2,0c-0.3,0.6-0.3,1.2-0.3,1.8c0,0.4,0,0.8-0.1,1.1c-0.3,1.2-0.6,2.5-1,3.7c-0.7,2.6-1.3,5.3-2.2,7.9
		c-1.2,3.6-2.3,7.6-3.6,12.8c-0.7,3-1.5,6.2-1.7,9.4c0,0.2,0,0.3,0,0.5c-0.1,0.9-0.2,1.9,0.1,2.8c0.5,1.6,1.9,2,3.2,2.3
		c0.7,0.2,1.4,0.4,2.1,0.7c1.4,0.5,2.9,0.9,4.5,1.2c0.3,0,0.4,0.1,0.4,0.2c0,0,0,0.1-0.2,0.4c-1.5,2.3-3.1,4.6-5.8,5.8
		c-0.4,0.2-0.6,0.5-0.8,0.7c-0.1,0.2-0.2,0.3-0.3,0.4c-0.1,0.1-0.2,0.2-0.2,0.3c-0.2,0.2-0.3,0.4-0.5,0.4c-0.1,0-0.1,0-0.2,0
		c-0.3-0.1-0.3-0.3-0.3-0.7c0-0.1,0-0.2,0-0.3C180,103.2,180,102.9,180,102.7z"/>
	<path d="M131.3,141.5c0.2-0.6,0.2-1.2,0.3-1.7l0-0.1c0.2-1.1-0.2-1.8-1.2-2.2c-0.5-0.2-1.1-0.3-1.6-0.5c-0.8-0.2-1.6-0.4-2.3-0.8
		c-0.7-0.5-1.7-1.1-2.4-1.1c-0.1,0-0.3,0-0.4,0.1c-0.6,0.2-0.8,0.9-1,1.6c-0.1,0.4-0.2,0.7-0.4,1c-1-0.7-1.8-1.5-1.7-2.9
		c0.1-1.3-0.7-2.7-1.8-3.1c-1.4-0.5-2.7-1-4-1.3c-4.5-1-8.6-2.1-12.4-3.5c-0.9-0.3-1.6-0.1-1.9,0.6c-0.2,0.5-0.6,0.9-0.9,1.3
		c-0.3,0.4-0.6,0.7-0.8,1.2c-0.2,0.3-0.4,0.4-0.6,0.4c-0.2,0-0.5-0.1-0.7-0.2c-0.1,0-0.2-0.1-0.2-0.1c-0.2-0.1-0.2-0.1-0.2-0.1
		c0,0,0.1-0.2,0.1-0.3c0.1-0.1,0.2-0.3,0.2-0.5c0-0.5,0.1-1.1,0.3-1.7c0.3-0.9-0.1-1.7-1-2l-0.2-0.1c-0.8-0.3-1.6-0.6-2.4-0.7
		c-1.6-0.2-3-0.6-4.3-1.4c-0.2-0.1-0.3-0.2-0.5-0.2c-0.2,0-0.4,0.1-0.6,0.5c-0.5,1.2-1.3,1.5-2.7,0.9c-0.3-0.1-0.7-0.2-1-0.2
		c-0.2,0-0.3,0-0.5,0c-1.7-0.3-3.2-0.6-4.6-1.4c-0.6-0.4-0.9-0.3-1.2,0.2c-0.1,0.2-0.2,0.3-0.4,0.5c-0.4,0.4-0.7,0.9-0.8,1.4
		c-0.1,1-0.4,1-0.5,1c-0.2,0-0.5-0.1-0.7-0.2c-0.1,0-0.2-0.1-0.4-0.1c-0.1,0-0.2-0.1-0.3-0.1c-0.1-0.1-0.3-0.1-0.4-0.2
		c-1.2-0.4-2.2,0.2-2.5,1.5c-0.1,0.4-0.2,0.7-0.4,1c-0.7,1-1.1,2.1-1.4,3.3l-0.2,0.5c-0.1,0.4-0.3,0.8-0.4,1.2
		c-0.2,0.7-0.5,1.5-0.8,2.2c-0.2,0.6-0.5,1.2-0.7,1.7c-1.3,3.1-2.7,6.3-3.6,9.6c-0.6,2.3-1.1,4.7-1.3,7.1c-0.1,1.1,0.4,2.1,1.5,2.5
		l0.1,0c1.8,0.8,3.7,1.6,5.7,2.3c4.2,1.4,8.5,3,12.6,4.5l2.6,1c0.2,0.1,0.5,0.2,0.7,0.3c1.1,0.4,2.2,0.7,2.9,1.6
		c0.7,0.8,1.6,1.4,2.4,1.9c2,1.2,3.8,1.9,5.6,2.1c0.9,0.1,1.8,0.1,2.6,0.1c1.8,0,3.7,0.1,5.5,0.9c1.4,0.6,2.8,1.1,4.2,1.5
		c0.8,0.2,1.7,0.5,2.5,0.8c2.3,0.8,4.6,1.8,7,3.1c0.5,0.3,1.1,0.4,1.5,0.4c1.2,0,2-0.9,2.3-2.3c0.2-1.3,0.7-2.5,1.3-3.5
		c1.3-2.2,1.9-4.6,2.5-7c0.2-0.9,0.5-1.9,0.8-2.9c0.6-1.8,0.9-3.7,1.3-5.5c0.4-1.8,0.7-3.6,1.2-5.3c0.6-1.9,0.7-3.9,0.9-5.9l0-0.4
		c0-0.4,0-0.9-0.4-1.2C131.1,142.2,131.1,141.9,131.3,141.5z M120.7,138.7l0-0.1c2.4,1.5,4.9,2.5,7.3,3.4l0.7,0.3
		c1.1,0.4,1.4,1,1.3,2.3c-0.1,1.2-0.2,2.6-0.5,4c-0.1,0.5-0.3,0.6-0.5,0.6c-0.1,0-0.3,0-0.5-0.1c-1.2-0.4-2.3-0.9-3.4-1.5
		c-0.8-0.4-1.7-0.8-2.6-1.2c-0.4-0.2-0.8-0.3-1.2-0.4c-0.7-0.2-1-0.6-1-1.3c0.1-1.3,0.2-2.7,0.2-4l0-1.1
		C120.7,139.2,120.7,139,120.7,138.7z M130.1,141.1C130.1,141.1,130.1,141.2,130.1,141.1c-0.1,0.1-0.2,0-0.3-0.1
		c-0.1,0-0.1-0.1-0.2-0.1c-1.7-0.7-3.4-1.4-5.3-2.2c-0.2-0.1-0.4-0.2-0.4-0.3c0-0.1,0-0.2,0.1-0.3c0-0.1,0.1-0.2,0.1-0.2
		c0.1-0.2,0.1-0.3,0.4-0.3c0.1,0,0.2,0,0.2,0c0.5,0.2,1,0.3,1.5,0.5c1.4,0.4,2.8,0.9,4.1,1.5c0.3,0.1,0.3,0.3,0.1,0.9
		C130.2,140.6,130.1,140.9,130.1,141.1z M87.5,146.7c1.4-3.5,4-6.1,7.5-7.2c2.1-0.7,4.5-1.4,7-1.4c0.5,0,1,0,1.5,0.1
		c3.7,0.4,6.7,1.8,9.1,4.1c3.3,3.2,5,6.3,5.5,10c0.5,4.2-0.4,7.6-2.8,10.5c-1,1.2-2.2,2.4-3.6,3.7c-1.5,1.4-3.4,1.8-5.7,2.1
		c-1.4,0.2-2.9,0.2-4.2,0.1c-0.4,0-0.8,0-1.2,0c-2,0-3.9-0.1-5.6-0.9c-5.3-2.5-8.1-6.4-8.6-12C86.2,152.1,86.5,149.3,87.5,146.7z
		 M113.2,166.9c0.2-0.2,0.4-0.4,0.7-0.6c1.6-1.5,3.2-3,4.3-5c1.6-3.1,2.1-6.6,1.4-10.3c-0.9-4.8-3.7-8.8-8.2-11.8
		c-3-2.1-6.8-2.8-10.9-2.2c-0.5,0.1-1,0.1-1.5,0.2c-1.2,0.1-2.4,0.2-3.6,0.7c-1.9,0.7-3.7,1.7-5.5,3.3c-2.6,2.1-4.1,4.9-4.6,8.7
		c-0.5,3.4-0.1,6.7,0.4,9.5c0.1,0.8,0.5,1.5,1,2.2c0.2,0.4,0.5,0.8,0.7,1.3c-4.4-1.9-7.8-3.3-11.1-4.3c-1.5-0.5-2.9-1.1-4.3-1.6
		c-1.4-0.6-2.8-1.2-4.3-1.6c-0.5-0.2-1-0.5-1.4-0.7c-0.4-0.3-0.6-0.6-0.5-1.1c0.7-5,1.8-9,3.4-12.7c0.3-0.6,0.5-1.2,0.8-1.8
		c0.7-1.7,1.5-3.4,2-5.2c0.3-1.1,0.6-1.3,1-1.3c0.3,0,0.6,0.1,1,0.3c3.1,1.5,6.5,2.5,9.7,3.5c1.4,0.4,2.8,0.9,4.2,1.3
		c1.3,0.4,2.7,0.8,4.3,1.2c1.1,0.3,2.7-0.4,3.5-1.4c1.2-1.5,2.4-3,3.8-4.8l0.2-0.2c0.7-0.9,1.5-1.8,1.8-3.1c0.1-0.6,0.4-0.7,0.6-0.7
		c0.1,0,0.2,0,0.3,0.1c3.3,1.1,6.7,2,10,2.9c1.6,0.4,3.2,0.9,4.8,1.3c0.3,0.1,0.5,0.1,0.7,0.2c1.3,0.3,1.3,0.3,1.5,2.6
		c0.2,2.8-0.1,5.6-0.4,7.7c-0.2,1.7,0,2.9,2,3.5c1.3,0.4,2.5,1,3.6,1.6c1.4,0.7,2.8,1.4,4.3,1.8c0.3,0.1,0.2,0.1,0.2,0.4
		c-0.2,0.9-0.4,1.8-0.6,2.7c-0.2,1.1-0.5,2.2-0.7,3.3c-0.1,0.4-0.2,0.8-0.2,1.2c-0.3,1.3-0.5,2.7-1,4.1c-0.3,0.9-0.6,1.8-0.8,2.7
		c-0.6,2.1-1.2,4.3-2.5,6.3c-0.3,0.5-0.5,1.2-0.6,1.8c-0.1,0.3-0.1,0.6-0.2,0.9c-0.3,1.1-0.9,1.4-1.9,1c-2.2-1.1-4.5-2-6.7-2.8
		l-0.7-0.3c-1.3-0.5-2.6-0.9-3.9-1.2c-0.6-0.2-1.2-0.3-1.8-0.5c-0.1,0-0.1,0-0.2-0.1C109.7,169.3,111.6,168.4,113.2,166.9z
		 M96.8,132L96.8,132c0.2,0,0.3,0.1,0.3,0.1c0,0,0,0-0.1,0.1c-0.3,0.4-0.6,0.8-0.9,1.2c-0.7,1-1.5,2-2.5,2.8c-1,0.7-1.8,0.8-2.6,0.5
		c-1.1-0.4-2.3-0.7-3.4-1c-1.2-0.3-2.5-0.7-3.7-1.2c-0.6-0.3-1.3-0.4-2-0.6c-0.5-0.1-1.1-0.3-1.6-0.5c-2.9-1.1-5.1-2-7.1-2.9
		c-0.2-0.1-0.4-0.2-0.4-0.3c0-0.1,0-0.3,0.1-0.5c0.2-0.4,0.5-0.9,0.7-1.3c0.2-0.3,0.3-0.7,0.5-1c0.1-0.1,0.2-0.2,0.4-0.2
		c0,0,0.1,0,0.1,0l1.4,0.3c1,0.3,2.1,0.5,3.1,0.8c3.6,0.9,7.3,1.6,10.8,2.2l0.4,0.1c1.6,0.3,3.1,0.7,4.6,1.1
		C95.6,131.7,96.2,131.9,96.8,132z M87.9,128c-0.1-0.8,0.3-1.2,0.8-1.7c0.3-0.3,0.5-0.6,0.7-0.9c0,0,0.1,0,0.1,0l0.1,0
		c1.5,0.6,3.1,1,4.6,1.3c0.4,0.1,0.9,0.2,1.3,0.3c0.5,0.1,0.7,0.2,0.8,0.4c0.1,0.2,0.1,0.5,0,0.9l-0.1,0.2c-0.3,1.1-0.4,1.3-0.7,1.3
		c-0.2,0-0.6-0.1-1.2-0.3c-2-0.5-4-0.8-5.9-1.1c-0.1,0-0.1,0-0.2,0c-0.2,0-0.3,0-0.4-0.1C87.8,128.4,87.8,128.2,87.9,128L87.9,128
		L87.9,128z M86.8,127.5c0,0.4-0.1,0.5-0.1,0.5c-0.1,0-0.2,0-0.5-0.2c-0.5-0.3-1-0.3-1.6-0.3c-0.4,0-0.8,0-1.1-0.1
		c-1.4-0.4-2.8-0.6-4.2-0.9l-0.2,0c-0.3,0-0.4-0.1-0.4-0.1c0,0,0-0.1,0.1-0.4c0.4-0.8,0.5-1,0.8-1c0.2,0,0.6,0.1,1,0.3
		c1.7,0.7,3.6,1,5.2,1.3c0.1,0,0.2,0,0.3,0c0.3,0,0.6,0.1,0.7,0.2c0.1,0.1,0.1,0.3,0.1,0.5C86.8,127.3,86.8,127.4,86.8,127.5z"/>
	<path d="M126.9,12.4c-0.4,0.1-0.9,0.1-1.4,0.2c-0.4,0-0.9,0-1.3,0.1c-1.3,0.2-2.5,0.4-3.8,0.6c-1.2,0.1-2.3,0.3-3.5,0.5
		c-0.2,0-0.5,0.1-0.7,0.2c-0.5,0.1-1.1,0.3-1.5,0.2c-1-0.1-2.3-0.1-3.4,0.1c-0.3,0-0.6,0.1-0.8,0.1c-2.2,0.2-4.9,0.5-7.5,1.1
		c-0.9,0.2-1.8,0.3-2.7,0.4c-0.7,0.1-1.5,0.1-2.2,0.3c-0.4,0.1-0.8,0.1-1.2,0.2c-1.1,0.2-2.3,0.4-3.4,0.8c-0.7,0.3-1.5,0.6-2.3,0.6
		c-1.9,0.1-3.8,0.5-5.6,0.9c-0.8,0.2-1.5,0.4-2.3,0.5c-1.7,0.3-3.5,0.6-5.2,0.8l-1,0.1c-1.6,0.2-2.4,0.9-2.7,2.3
		c-0.2,1.2,0.1,2.2,0.4,3.2c0.5,1.6,0.8,3.3,1,4.9c0.1,0.5,0.2,1,0.2,1.4c0.1,0.6,0.3,1.2,0.5,1.8c0.2,0.7,0.4,1.4,0.5,2.2
		c0.1,1.1,0.3,2.2,0.5,3.3c0.1,0.5,0.2,1,0.3,1.5c0.2,1,0.4,2.1,0.6,3.1c0.2,1.1,0.5,2.3,0.6,3.4c0.2,1.5,0.6,3.1,0.9,4.6
		c0.3,1.1,0.5,2.2,0.7,3.3c0.2,1.1,0.4,2.2,0.7,3.3c0.3,1.2,0.5,2.4,0.7,3.6c0.2,1.3,1.4,2.4,2.6,2.4c0.2,0,0.3,0,0.5-0.1
		c0.3-0.1,0.6-0.1,0.9-0.2c0.7-0.1,1.5-0.3,2.1-0.7c0.2,0.7,0.4,1.3,0.5,2c0.1,0.3,0.1,0.6,0.2,0.9c0.1,0.5,0.3,1,1.1,1
		c0.1,0,0.2,0,0.3,0c1.4-0.2,2.8-0.5,4.2-0.7c0.8-0.1,1.6-0.2,2.4-0.4c0.3,0,0.7-0.2,0.9-0.4c0.1-0.2,0.1-0.3,0.1-0.5
		c0,0,0-0.1,0-0.1c0.1,0.1,0.2,0.2,0.5,0.2c0.5-0.1,0.8-0.5,0.7-1l0-0.2c-0.1-0.6-0.1-1.2-0.3-1.8c-0.1-0.2-0.1-0.3,0-0.3
		c0,0,0.1-0.1,0.3-0.1c0.7-0.1,1.4-0.3,2.1-0.4c0.5-0.1,1-0.2,1.5-0.3l0.6-0.1c1.4-0.3,2.8-0.5,4.2-0.7l0.8-0.1
		c1.6-0.3,3.2-0.5,4.8-0.7c0.8-0.1,1.6-0.2,2.4-0.2c1.3-0.1,2.7-0.2,4-0.5c0.8-0.2,1.5-0.3,1.9-0.3c0.8,0,0.9,0.4,1.5,2.3
		c0.1,0.2,0.1,0.4,0.2,0.6l0.1,0.3c0,0.1,0.1,0.5,0.5,0.5c0.1,0,0.2,0,0.3-0.1c1.5-0.6,3-0.6,4.5-0.6c0.5,0,1,0,1.5-0.1
		c1.3-0.1,2.2-0.2,2.7-0.8c0.4-0.6,0.4-1.4,0.2-2.6c-0.1-0.3,0-0.4,0-0.5c0.1-0.1,0.2-0.1,0.4-0.2c0.4-0.1,0.8-0.1,1.1-0.2
		c0.5-0.1,1-0.2,1.5-0.3c0.4-0.1,0.9-0.4,1-0.6c0.1-0.1,0-0.3,0-0.4c-0.2-0.3-0.2-0.5-0.1-0.8c0.1-0.2,0.1-0.4,0.1-0.5
		c-0.2-2.1-0.5-4.2-0.7-6.3l-0.2-1.5c-0.1-0.6-0.1-1.3-0.2-1.9c-0.1-1.1-0.2-2.2-0.4-3.2c-0.2-0.7-0.2-1.5-0.3-2.3
		c0-0.3,0-0.5-0.1-0.8c-0.1-0.6-0.2-1.2-0.3-1.8c-0.2-0.9-0.3-1.7-0.3-2.5c0-0.8-0.1-1.5-0.3-2.2c-0.1-0.7-0.3-1.3-0.3-2
		c0-0.5-0.1-1.1-0.2-1.6c-0.1-0.6-0.2-1.3-0.2-1.9c0.1-0.9-0.1-1.7-0.3-2.5c-0.1-0.6-0.3-1.1-0.3-1.7c-0.1-2-0.4-4.1-0.7-6.1
		C131.2,13.2,129.4,11.8,126.9,12.4z M123.6,58.5c0-0.1,0.2-0.1,0.3-0.1c0.1,0,0.2,0,0.3-0.1c1.2-0.4,2.5-0.5,4.1-0.5
		c0.2,0,0.4,0,0.5,0c0.1,0,0.2,0,0.3,0c0.3,0,0.5,0,0.8,0c0.7-0.2,0.9,0,1,0.9c0.1,0.6,0,0.7-0.7,0.8c-0.8,0.2-1.7,0.2-2.5,0.2
		c-1,0-2,0-3.1,0.3c-0.6,0.1-0.7-0.1-0.9-0.7c0-0.1-0.1-0.3-0.1-0.4C123.5,58.7,123.5,58.6,123.6,58.5z M130.5,55.5
		c-0.1,0.1-0.5,0.2-0.9,0.2c-0.1,0-0.2,0-0.2,0c-2-0.2-3.9,0.1-5.7,0.8c-0.1,0-0.1,0-0.1,0c-0.4-0.2-0.8-0.4-1.2-0.4
		c-0.6,0-1.1,0.2-1.5,0.4c-1.4,0.6-3,0.9-4.7,0.8c-1.7-0.1-3.4,0.2-5,0.6c-0.6,0.1-1.2,0.2-1.8,0.3c-0.8,0.1-1.7,0.2-2.5,0.5
		c-1.6,0.6-3.2,0.7-4.8,0.9l-0.4,0c-0.7,0.1-1.5,0.2-2.1,0.4c-0.3,0.1-0.7,0.2-1,0.2c-0.8,0.1-1.7,0.3-2.5,0.1
		c-0.2,0-0.4-0.1-0.6-0.1c-0.6,0-1.3,0.2-1.8,0.4c-0.4,0.1-0.8,0.2-1.2,0.3c-1.1,0.2-2.3,0.3-3.5,0.4l-0.2,0c-0.4,0-0.8,0.1-1.1,0.3
		c-0.6,0.4-1.1,0.6-1.7,0.6l-0.1,0c-0.2,0-0.4,0.1-0.6,0.1c-0.3,0.1-0.6,0.1-0.8,0c-0.2-0.1-0.2-0.2-0.1-0.6
		c0.1-0.2,0.2-0.5,0.1-0.7c-0.1-0.3-0.2-0.7-0.4-1c-0.3-0.8-0.6-1.6-0.8-2.4c-0.1-0.5-0.2-0.9-0.3-1.4c-0.2-1-0.5-2-0.6-3
		c-0.1-0.7-0.4-1.4-0.7-2.1c-0.2-0.4-0.2-0.7-0.1-0.8c0.1-0.2,0.4-0.2,0.8-0.3c1.3-0.1,2.5-0.3,3.7-0.6c0.6-0.1,1.3-0.3,2-0.4
		c0.4-0.1,0.8-0.2,1.1-0.3c0.5-0.2,0.9-0.3,1.3-0.3c0.5,0,0.7-0.6,0.7-0.8c0.1-0.2,0-0.5-0.1-0.6c-0.1-0.2-0.4-0.4-0.6-0.4
		c-0.4,0-0.4-0.2-0.4-0.5c0-0.1,0-0.2,0-0.3c-0.5-2.1-1-4.3-1.5-6.4c0-0.1-0.1-0.3-0.1-0.4c-0.1-0.2-0.2-0.5-0.2-0.7
		c0-1.8-0.3-3.6-0.6-5.4c-0.3-1.4-0.5-2.9-0.6-4.4c-0.1-1.2-0.2-2.5-0.4-3.7c-0.1-0.6-0.1-1.3-0.2-1.9c-0.1-0.7-0.4-1.1-1-1.1
		c-0.1,0-0.3,0-0.5,0.1c-2.1,0.5-4.1,1-6.1,1.4c-0.2,0-0.5,0.1-0.7,0.1c-0.4,0.1-0.7,0.2-1.1,0.2c-0.1,0-0.3,0-0.4,0
		c-0.4,0-0.4-0.2-0.4-0.7c0-0.1,0-0.2,0-0.3c0-0.4,0-0.7,0.1-0.9c0.1-0.1,0.3-0.2,0.7-0.1c0,0,0.1,0,0.2,0l0.3,0
		c0.4,0.1,0.7-0.1,1.1-0.5c0.5-0.5,1.3-0.5,2.1-0.6c0.2,0,0.3,0,0.5,0c1.5-0.1,3-0.4,4.4-0.7c0.9-0.2,1.8-0.4,2.7-0.5
		c1.8-0.3,3.7-0.7,5.5-1c2.8-0.6,5.7-1.2,8.6-1.4c1.6-0.2,3.3-0.4,4.9-0.7c1.5-0.2,3-0.5,4.5-0.6c1-0.1,1.9-0.2,2.9-0.3
		c2-0.2,4.1-0.5,6.1-0.6l0.2,0c1.8-0.1,3.6-0.2,5.4-0.4c0.5-0.1,1.1,0,1.6,0.1c0.4,0.1,0.8,0.1,1.3,0.1c0.1,0,0.2,0,0.4,0
		c0,0,0,0.1,0,0.2c0,0.1,0,0.2,0.1,0.2c0.7,1.6,0.9,3.3,1,4.9l0.1,0.5c0.2,2.2,0.5,4.4,0.7,6.6c0.1,1.1,0.2,2.2,0.3,3.3
		c0.2,2,0.5,3.9,0.8,5.8c0.2,1.6,0.5,3.2,0.7,4.8c0.2,1.3,0.3,2.7,0.4,4c0.1,1.5,0.3,3.1,0.5,4.6c0.1,0.7,0.1,1.4,0.1,2.1
		c0,0.9,0,1.8,0.2,2.7c0.1,0.7-0.2,0.9-0.4,1c-0.2,0.1-0.4,0.2-0.6,0.3c-0.5,0.3-1,0.4-1.5,0.1l-0.1-0.1
		C131.2,55.2,130.9,55,130.5,55.5z M83.2,24.8c-0.1-0.3-0.1-0.5,0.1-0.7c0.2-0.1,0.4-0.2,0.7-0.2c0.1,0,0.2,0,0.3,0.1
		c0.3,0.1,0.4,0.5,0.3,1.1l0,0l0,0c0.1,0.5,0.1,1,0.2,1.4c0.1,1.1,0.3,2.2,0.3,3.2l0,0.1c0.1,1.5,0.1,3.1,0.5,4.6
		c0.4,1.5,0.5,3,0.5,4.2c0,0.8,0.3,1.5,0.5,2.2c0.2,0.5,0.3,1,0.4,1.5c0.2,1.4,0.5,2.9,0.8,4.4c0,0.2,0,0.4-0.1,0.6
		c-0.2,0.2-0.5,0.3-0.8,0.4c0,0-0.1,0-0.1,0c-0.1,0-0.2,0-0.2-0.4c0-0.1,0-0.2,0-0.3c-0.2-1-0.4-2-0.6-3c-0.5-2.6-1.1-5.3-1.5-8
		c-0.2-1.3-0.3-2.6-0.4-3.9c-0.1-1.4-0.3-2.8-0.5-4.3c-0.1-0.5-0.1-1.1-0.2-1.6c0-0.4-0.1-0.8-0.1-1.2C83.2,25,83.2,24.9,83.2,24.8z
		 M76.6,25.5c0.1-0.2,0.4-0.2,1.1-0.2c0.6,0,1.1-0.2,1.6-0.3c0.4-0.1,0.8-0.2,1.2-0.3c0.1,0,0.1,0,0.2,0c0.5,0,0.8,0.2,0.8,0.9
		c0.1,0.6,0.1,1.2,0.2,1.8c0.1,1,0.2,1.9,0.4,2.9c0.1,0.7,0.1,1.4,0.2,2.2c0,0.7,0,1.4,0.2,2.1c0.1,0.6,0.2,1.2,0.3,1.8
		c0.2,1.3,0.5,2.7,0.8,4c0.1,0.3,0.1,0.5,0.2,0.8c0.3,1.4,0.6,2.9,0.7,4.4c0,0.4,0.1,0.8,0.3,1.2c0.1,0.2,0.2,0.4,0.2,0.6
		c0.1,0.2,0.1,0.5-0.1,0.7c-0.1,0.1-0.3,0.2-0.6,0.2l-0.1,0c-0.3,0-0.7,0.1-1,0.2c-0.3,0.1-0.6,0.1-0.8,0.1c-0.1,0-0.2,0-0.3,0
		c-1.2,0-1.2,0-1.6-2c-0.2-0.8-0.3-1.7-0.4-2.6c-0.2-1.4-0.4-2.9-0.8-4.3c-0.3-1.2-0.5-2.4-0.6-3.6c-0.2-1.2-0.3-2.5-0.7-3.7
		c-0.3-1.2-0.6-2.4-0.8-3.6c-0.1-0.7-0.3-1.4-0.4-2.1C76.5,26.1,76.5,25.7,76.6,25.5z M96.4,64.5c-1,0.4-2.1,0.5-3.2,0.6
		c-0.6,0-1.2,0.1-1.8,0.2c-0.5,0.1-0.8,0.1-1.1,0.1c-0.4,0-0.5-0.1-0.7-1.5c0,0,0-0.1,0-0.1c-0.1-0.3,0-0.5,0-0.6
		c0.1-0.1,0.3-0.2,0.5-0.2c0.7-0.1,1.4-0.2,2-0.3c0.9-0.1,1.8-0.3,2.6-0.4c0.3,0,0.5-0.1,0.8-0.2c0.3-0.1,0.5-0.2,0.8-0.2
		c0.2,0,0.3,0,0.4,0.1c0.4,0.3,0.4,0.8,0.4,1.4c0,0.2,0,0.5,0.1,0.7c0,0.1,0,0.1,0.1,0.1c0,0,0,0.1,0,0.2c0,0.1,0,0.2,0.1,0.3
		C97.4,64.5,96.8,64.3,96.4,64.5z"/>
	<path d="M222.9,135.5c-0.2-0.8-0.3-1.7-1-2.4c-1-1-2-2.1-2.8-3.3c-1-1.4-2.1-2.8-3.2-4.1c-1-1.2-2-2.4-2.9-3.7
		c-1.6-2.2-3.3-4.4-5-6.5c-0.8-1.1-1.7-2.1-2.5-3.2c-0.4-0.6-0.9-0.7-1.6-0.5l-2.7,0.8c-2.7,0.8-5.6,1.7-8.4,2.5
		c-1.4,0.4-2.8,0.8-4.3,1.3c-2.8,0.8-5.6,1.7-8.5,2.4c-2.9,0.7-5.8,1.6-8.7,2.4c-1.6,0.5-3.2,0.9-4.9,1.3c-0.7,0.2-1.2,0.3-1.6,0.3
		c-1.1,0-1.5-0.6-1.9-2.3c0-0.1,0-0.2,0-0.3c0-0.1,0-0.2,0-0.4c-0.3-1.3-1.5-2.4-2.7-2.4c-0.3,0-0.7,0.1-1,0.3
		c-1.5,0.9-2.9,1.8-4.3,2.7l-0.9,0.6c-0.4,0.2-0.7,0.6-0.6,1.2c0.1,0.7,0.2,1.5,0.4,2.2c0.1,0.9,0.3,1.9,0.5,2.8
		c0.1,0.5,0,0.7-0.4,1c-1.4,0.9-2.8,1.8-4,2.7l-0.2,0.1c-0.6,0.4-1.3,0.9-1.4,1.7c-0.3,1.8-0.4,3.5-0.2,5.1c0.3,2.3,0.7,4.6,1.1,6.9
		c0.5,3.1,1,6.2,1.4,9.4c0.3,2.6,0.7,5.2,0.1,7.8c-0.1,0.6-0.4,1.1-0.7,1.7c-0.3,0.6-0.7,1.3-0.8,2.1c-0.1,0.4-0.3,0.8-0.5,1.3
		c-0.6,0.9-1.1,1.8-1.7,2.7c-1,1.8-2.1,3.6-3.5,5.1c-0.3,0.3-0.4,0.6-0.3,0.9c0.1,0.3,0.3,0.5,0.8,0.6c0.4,0.1,0.9,0.2,1.3,0.2
		c0.7,0,1.4-0.1,2.1-0.4c1.2-0.4,2.5-0.5,3.8-0.7c1.1-0.1,2.2-0.2,3.2-0.5c0.4-0.1,0.9-0.2,1.4-0.2c0.7-0.1,1.3-0.1,1.9-0.4
		c1.9-0.8,3.9-1.1,5.9-1.5c1-0.2,2.1-0.3,3.1-0.6c1.5-0.3,2.9-0.8,4.3-1.2c1.4-0.4,2.9-0.9,4.4-1.2c1.2-0.3,2.3-0.6,3.4-1
		c0.6-0.2,1.2-0.4,1.8-0.5c2.1-0.6,4.2-1.3,6.2-2c1-0.4,2.1-0.7,3.1-1.1c1-0.3,1.9-0.7,2.9-1.1c0.8-0.3,1.5-0.7,2.3-0.9
		c0.7-0.2,1.3-0.6,1.9-0.9c0.8-0.5,1.7-1,2.7-1.1c0.2,0,0.4-0.2,0.5-0.4c0.1-0.1,0.2-0.2,0.2-0.3c0.2,0.1,0.4,0.1,0.6,0.1
		c0.6,0,1.1-0.3,1.6-0.6c0.4-0.2,0.8-0.5,1.2-0.5c0.3-0.1,0.6-0.2,0.9-0.4c0.4-0.2,0.7-0.4,1.2-0.4c0.3,0,0.6-0.1,0.8-0.3
		c0.1-0.1,0.1-0.2,0.1-0.4c0-0.1,0-0.1,0-0.2c0.1,0.1,0.2,0.1,0.3,0.1c0.3,0.1,0.7,0,1-0.2c0.6-0.3,1.1-0.7,1.6-1l0.5-0.3
		c0.4-0.3,0.9-0.5,1.3-0.8c0.9-0.6,1.9-1.2,2.8-1.8c2-1.1,3.6-2.4,4.8-3.9c0.7-0.9,0.8-1.8,0.2-2.8c-0.9-1.6-2.1-3.1-3.1-4.5
		c0.4-0.2,0.6-0.4,0.9-0.7c0.2-0.2,0.3-0.4,0.5-0.5c1.5-0.9,2.7-2.2,3.8-3.4c0.3-0.4,0.7-0.7,1-1.1c0.2-0.2,0.4-0.5,0.4-1
		L222.9,135.5z M153.8,164.4c0.7,0,1.5-0.2,2.2-0.3c0.2,0,0.4-0.1,0.6-0.1c0.9-0.2,1.7-0.3,2.6-0.5c1.4-0.2,2.8-0.5,4.1-0.8l1-0.2
		c5.7-1.4,11.5-2.8,17.3-4.4c2.1-0.6,4.2-1.4,6.3-2.1c1.1-0.4,2.2-0.8,3.4-1.2c1.2-0.4,2.3-0.9,3.4-1.4c0.9-0.4,1.8-0.8,2.7-1.1
		c2.2-0.8,4.7-1.8,7-2.9c0.6-0.3,1.2-0.5,1.8-0.8c1.2-0.5,2.4-1,3.5-1.8c0.9-0.6,1.8-1.2,2.8-1.7c0.8-0.5,1.7-0.9,2.5-1.5
		c0.2-0.1,0.3-0.1,0.3-0.1c0.1,0,0.1,0.1,0.3,0.3c0.6,0.8,1.2,1.6,1.8,2.4l0.6,0.9c0.5,0.6,0.4,1.2-0.1,1.8c-1.8,2.1-4.2,3.6-6.5,5
		l-1.2,0.7c-2.1,1.3-4.2,2.7-6.5,3.6c-1.9,0.7-3.7,1.6-5.5,2.4c-2.5,1.1-5,2.2-7.6,3.2c-0.7,0.2-1.4,0.5-2.1,0.7
		c-1.2,0.4-2.5,0.8-3.7,1.4c-1.2,0.6-2.4,0.9-3.7,1.3c-0.9,0.3-1.9,0.6-2.9,1c-0.7,0.3-1.4,0.4-2.2,0.5c-0.6,0.1-1.2,0.2-1.8,0.4
		c-0.5,0.1-1,0.3-1.5,0.5c-1.3,0.4-2.7,0.9-4.1,1.1c-1.1,0.2-2.2,0.5-3.3,0.8c-1.5,0.4-3.1,0.9-4.7,1c-0.9,0.1-1.7,0.3-2.6,0.6
		c-0.7,0.2-1.4,0.5-2.1,0.6c-0.6,0.1-1.1,0.2-1.7,0.3c-1.8,0.3-3.6,0.6-5.5,0.8c-0.4,0-0.8,0.2-1.1,0.3c-0.4,0.2-0.9,0.3-1.3,0.3
		c0,0,0,0,0,0c-0.1,0-0.1,0-0.2,0c0.4-0.5,0.7-1,1.1-1.6c2.1-3,4.1-5.8,5-9.4C152.6,164.3,153.1,164.4,153.8,164.4z M211.4,143.4
		c-2.2,1.4-4.5,2.9-6.9,4.1c-1.4,0.7-3,1.3-4.1,1.8c-1.7,0.7-3.5,1.4-5.3,2.3c-1.6,0.8-3.4,1.4-5,1.9c-0.4,0.2-0.9,0.3-1.3,0.5
		c-2.6,0.9-5.2,1.8-7.9,2.7c-1.5,0.5-3,0.9-4.5,1.3c-1.2,0.3-2.5,0.7-3.7,1.1c-1.4,0.4-2.8,0.8-4.2,1.1c-1.6,0.4-3.2,0.8-4.8,1.3
		c-1.7,0.5-3.4,0.8-5.2,1.1c-0.4,0.1-0.8,0.1-1.2,0.2c-0.5,0.1-0.9,0.2-1.4,0.3c-0.7,0.2-1.5,0.4-2.2,0.4c-0.3,0-0.6,0-0.7-0.1
		c-0.1-0.1-0.1-0.3-0.1-0.6c0-0.8,0-1.6,0-2.4c0-0.3,0-0.7,0-1c0.2-2.7-0.3-5.4-0.7-7.9c-0.2-1-0.4-2-0.5-3
		c-0.2-1.3-0.4-2.6-0.6-3.9c-0.5-3-1-6-1.1-9.1c0-1.7,0.6-2.9,2-3.8c0.6-0.4,1.1-0.8,1.7-1.2c0.7-0.5,1.5-1,2.2-1.5
		c0.6-0.4,0.7-0.7,0.5-1.4c-0.2-0.6-0.3-1.3-0.4-1.9c-0.1-0.7-0.3-1.4-0.5-2.1c-0.2-0.7,0-1.2,0.6-1.6l0.3-0.2
		c1.2-0.9,2.5-1.8,3.9-2.5c0.2-0.1,0.3-0.1,0.4-0.1c0.1,0,0.2,0,0.4,0.4c0.2,0.6,0.4,1.2,0.6,1.8c0.6,2.2,1.6,3.2,3.4,3.2
		c0.4,0,0.9-0.1,1.5-0.2c3.3-0.8,6.2-1.5,8.8-2.3c1.9-0.6,3.9-1.1,5.8-1.5l0.9-0.2c2.1-0.5,4.4-1.1,7.1-2l0.9-0.3
		c2.6-0.8,5.3-1.6,8-2.3c0.9-0.2,1.8-0.5,2.6-0.9c0.9-0.3,1.8-0.7,2.7-0.9c0.1,0,0.2,0,0.3,0c0.2,0,0.3,0.1,0.5,0.4
		c2.5,3.4,5.1,6.8,7.7,10.1l1.4,1.8c0.3,0.4,0.7,0.9,1,1.3c1.4,1.9,2.9,3.9,4.7,5.5c0.3,0.3,0.5,0.7,0.7,1c0.3,0.5,0.6,1,1.1,1.4
		c0.1,0,0.1,0.1,0.1,0.1c0,0.1-0.1,0.2-0.2,0.3c-0.1,0.1-0.1,0.1-0.2,0.2c-1.8,2.3-4.2,4.4-7.7,6.6
		C212.4,142.7,211.9,143,211.4,143.4z"/>
	<path d="M65.9-43.1c-0.1,1.6,0.2,3.1,0.4,4.6c0.1,0.8,0.3,1.6,0.4,2.5c0.1,0.9,0.2,1.9,0.4,2.8c0.2,1.4,0.4,2.8,0.5,4.2
		c0.1,2,0.4,4,0.7,5.9c0.2,1.1,0.4,2.2,0.5,3.3c0.2,1.7,0.3,3.5,0.4,5.2c0.1,1,0.1,2.1,0.2,3.1c0.3,3.4,0.7,6.8,1.1,9.3
		C70.7-1.2,70.8,0,71,1.2c0.1,1.1,0.3,2.2,0.4,3.3c0,0.7-0.1,1.4,0.1,2.2c0.3,1.1,0.4,2.3,0.6,3.4c0.2,1.1,0.3,2.2,0.5,3.3
		c0.2,0.8,0.5,1.5,0.9,2.1c0.2,0.4,0.4,0.8,0.6,1.2c0.2,0.4,0.6,0.6,1.3,0.6l0.2,0l0.8,0c0.7,0,1.5,0,2.3-0.3
		c0.8-0.3,1.6-0.4,2.4-0.5c0.6-0.1,1.1-0.2,1.7-0.3c1-0.3,2.1-0.3,3.1-0.4c0.9-0.1,1.9-0.1,2.8-0.3c4.8-1,9.3-1.8,13.6-2.3
		c1.3-0.2,2.7-0.4,4-0.6c1.5-0.2,3-0.5,4.4-0.6c0.9-0.1,1.8-0.3,2.6-0.4c1.4-0.3,2.9-0.6,4.3-0.5l0.2,0c0.2,0,0.3,0,0.5,0
		c0.3,0,0.6,0,0.8-0.1c0.7-0.3,1.4-0.4,2.3-0.4c0.2,0,0.3,0,0.5,0c0.2,0,0.3,0,0.5,0c0.4,0,0.9,0,1.3-0.1c1-0.2,2.1-0.3,3.1-0.4
		c0.6-0.1,1.3-0.2,1.9-0.3c0.3,0,0.6-0.2,0.6-0.4c0-0.1,0-0.4-0.2-0.6c-0.3-0.3-0.3-0.4-0.3-0.4h0c0.1-0.1,0.4-0.1,0.6-0.1l0.1,0
		c0.6,0,1-0.2,1.2-0.6c0.3-0.3,0.3-0.8,0.2-1.5c-0.1-0.3-0.2-0.6-0.3-0.9c-0.2-0.3-0.3-0.7-0.3-1.1c0-1.3-0.2-2.5-0.5-3.7
		c-0.1-0.7-0.3-1.4-0.4-2.1c-0.3-2.4-0.7-5-1.2-8c-0.1-0.6-0.2-1.3-0.3-1.9c-0.4-1.9-0.7-3.9-0.8-5.9c0-0.2-0.1-0.4-0.2-0.6
		l-0.1-0.2c-0.6-1.8-1-3.3-1.2-4.7l-0.1-0.4c-0.3-2.4-0.6-5-0.8-7.5c-0.1-1.1-0.3-2.2-0.5-3.3c-0.1-0.8-0.3-1.6-0.4-2.3
		c-0.1-0.5-0.1-0.9-0.1-1.4c0-0.9,0-1.8-0.3-2.6c-0.7-1.7-0.7-3.6-0.7-5.2c0-1.7-0.3-3.3-0.6-4.9c-0.1-0.5-0.2-1.1-0.3-1.6
		c-0.3-1.5-1.2-2.3-2.9-2.3l-0.1,0c-0.3,0-0.6,0.1-0.9,0.2l-0.1,0c-0.9,0.2-1.7,0.3-2.6,0.3c-0.2,0-0.5,0-0.7,0
		c-0.6,0-1.2-0.1-1.8-0.1c-1.1,0-1.9,0.1-2.7,0.4c-1,0.3-2.1,0.4-3.1,0.6c-0.6,0.1-1.2,0.1-1.8,0.2c-0.9,0.2-1.8,0.3-2.7,0.3
		c-1.3,0.1-2.6,0.3-3.9,0.6c-0.7,0.2-1.7,0.4-2.5,0.4l-0.1,0c-2.7-0.1-5.3,0.6-7.7,1.2c-1.6,0.5-3.2,0.7-4.8,0.9
		c-0.4,0.1-0.8,0.1-1.2,0.2c-2.2,0.3-4.5,0.7-6.8,0.9l-0.8,0.1C72.9-48.2,71-48,69-47.7c-1.4,0.2-2.3,0.8-2.9,1.6
		c-0.5,0.7-0.6,1.6-0.3,2.7C65.9-43.3,65.9-43.2,65.9-43.1z M120.1-52.9c0.5,1.5,0.7,3.1,0.9,4.5c0,0.4,0.1,0.8,0.2,1.2
		c0.3,2,0.5,4.1,0.7,6.1c0.1,0.9,0.2,1.9,0.3,2.8c0.1,0.9,0.2,1.9,0.4,2.8c0.3,2,0.6,4.1,0.7,6.2c0.2,3.3,0.9,6.5,1.6,9.6l0.2,0.7
		c1.1,5.1,1.8,9.1,2.1,12.9c0.3,3.3,0.7,6.1,1.3,8.7c0.1,0.5,0.2,0.9,0.2,1.4c0.1,0.8,0.2,1.6,0.6,2.4c0,0.1,0,0.1,0,0.1
		c0,0-0.1,0-0.1,0c-0.8,0-1.5,0.4-2.1,0.8c-0.2,0.1-0.4,0.3-0.6,0.4c-0.7,0.4-1.6,0.5-2.4,0.5c-0.4,0-0.9,0.1-1.4,0.2
		c-0.8,0.2-1.7,0.3-2.6,0.4c-0.4,0-0.7,0.1-1.1,0.1c-2.3,0.3-4.1,0.5-5.8,0.6c-1.6,0.1-3.1,0.4-4.6,0.7c-0.9,0.2-1.8,0.3-2.7,0.5
		c-1.4,0.2-2.8,0.4-4.2,0.5c-0.7,0.1-1.4,0.2-2.1,0.2c-1.1,0.1-2.2,0.4-3.2,0.6c-1.1,0.3-2.3,0.5-3.5,0.7c-1.7,0.2-3.5,0.5-5.2,0.8
		c-0.5,0.1-1,0.2-1.6,0.3c-1,0.2-2,0.3-2.9,0.4c-1.4,0.2-2.9,0.4-4.3,0.7l-0.1,0c-1.2,0.3-2.3,0.5-3.4,0.5l-0.1,0
		c-0.2,0-0.4,0-0.5-0.1c-0.1-0.1-0.1-0.2-0.1-0.4c0-0.1,0-0.1,0-0.2c0-0.1,0-0.1,0-0.2c0-0.3-0.1-0.6-0.2-0.8
		c-0.2-0.4-0.2-0.7,0-0.9c0.3-0.2,0.7-0.3,1.2-0.4c0.2,0,0.4-0.1,0.6-0.1c1.2-0.3,2.3-0.5,3.4-0.5c0.4,0,0.7,0,1.1,0.1
		c0.6,0.1,1-0.1,1.3-0.4c0.1-0.2,0.3-0.5,0.2-1c-0.4-1.9-0.6-3.8-0.7-5.7c-0.1-1.5-0.3-3.1-0.5-4.6c-0.2-1.4-0.5-2.9-0.8-4.2
		c-0.5-2.9-1.1-5.9-1.4-8.8c0-0.3-0.1-0.9-0.7-1c-0.2,0-0.5,0-0.7-0.1c-0.5,0-0.9-0.1-1.4-0.1c-0.9,0-1.6,0.2-2.1,0.6
		c-0.4,0.3-0.9,0.4-1.3,0.4c-0.6,0.1-1.1,0.2-1.6,0.6c0-0.1-0.1-0.2-0.1-0.4c0-0.5-0.1-0.9-0.1-1.4c0-0.8-0.1-1.5-0.2-2.3
		c-0.1-0.9-0.2-1.8-0.3-2.6c-0.2-2.4-0.5-4.9-1-7.3c-0.2-0.9-0.3-1.9-0.4-2.8c-0.1-0.8-0.2-1.6-0.3-2.5c-0.2-1.3-0.4-2.6-0.6-3.9
		c-0.2-1.6-0.4-3.2-0.7-4.8c-0.3-1.3-0.3-2.7-0.2-4.1l0-0.7c0-0.6,0.2-0.9,0.8-1.2c1.4-0.7,2.9-0.7,4.4-0.8c0.4,0,0.8,0,1.1-0.1
		c3.2-0.2,6.4-0.6,9.1-1c2-0.3,4.1-0.7,6-1.1c2.4-0.5,4.9-1,7.4-1.2c3-0.3,6.5-0.7,9.9-1.3c2-0.4,4.1-0.6,6.2-0.8
		c0.6-0.1,1.2-0.1,1.8-0.2c1.7-0.2,3.5-0.2,5.1-0.3C119.5-52.5,119.8-52.6,120.1-52.9z M73.3,6c-0.1-0.5-0.2-1-0.2-1.6
		c-0.2-1.2-0.3-2.4-0.5-3.5c-0.5-3-0.9-6.1-1.2-9.2c-0.2-2.1-0.2-2.1,1.9-2.9c0.3-0.1,0.5-0.2,0.7-0.2c0.2,0,0.4,0.1,0.5,0.9
		c0.1,0.7,0.2,1.4,0.2,2.2c0.2,1.9,0.4,3.9,0.8,5.8c0.2,1.4,0.6,2.8,0.9,4.2c0.3,1.2,0.6,2.5,0.9,3.8c0.1,0.4,0.2,0.9,0.3,1.3
		c0.3,1.1,0.6,2.1,0.3,3.2c0,0.1,0,0.2-0.1,0.3c0,0,0,0,0,0c-0.6,0-1.1,0.3-1.5,0.5c-0.4,0.2-0.7,0.4-1.1,0.4c-0.1,0-0.2,0-0.2,0
		c-0.3,0-0.5,0-0.7,0.1c-0.1,0.1-0.1,0.1-0.2,0.1c0,0-0.1-0.1-0.1-0.3c-0.2-1.3-0.4-2.5-0.6-3.8l-0.2-1.2l0.2,0L73.3,6z M78-7.8
		c0.3,0.8,0.4,1.7,0.4,2.5c0,0.5,0.1,1,0.2,1.5c0,0.8,0.2,1.6,0.4,2.4c0.2,0.7,0.3,1.3,0.4,2c0.1,0.7,0.1,1.4,0.2,2.1
		c0.1,1.4,0.3,2.8,0.3,4.2c0,1,0.2,2.1,0.5,3l0,0.1c0.1,0.3,0.1,0.4-0.1,0.4c-0.1,0-0.1,0-0.1,0c-0.1,0-0.1,0-0.2-0.3
		c-0.2-0.9-0.3-1.7-0.5-2.6c-0.6-2.8-1.1-5.7-1.8-8.5C77-2.9,76.7-5,76.4-7c-0.1-0.7-0.2-1.4-0.3-2.1c0-0.2-0.1-0.5-0.1-0.7
		c-0.1-0.5-0.1-1.1-0.3-1.7c0-0.1-0.1-0.3,0-0.3c0-0.1,0.1-0.1,0.5-0.2c0.2,0,0.3,0,0.5,0c0.4,0,0.6,0.1,0.7,0.2
		c0.2,0.2,0.2,0.5,0.2,1C77.3-10,77.5-8.9,78-7.8z"/>
	<path d="M141.6-22.1c0.2,1.8,0.4,3.5,0.7,5.2c0.2,1.3,0.4,2.6,0.6,3.9c0.6,4.8,0.9,9.7,1.3,14.4l0.1,1.7c0.2,3.2,2.3,5.1,5.5,5.3
		c0.7,0,1.5,0.1,2.5,0.1c0.8,0,1.6,0,2.4,0c0.7,0,1.4,0,2.1,0c4,0,7.9-0.5,12-1c0.6-0.1,1.2-0.2,1.8-0.3c1.5-0.2,3.1-0.5,4.7-0.4
		c0.5,0,0.8,0.1,1,0.4c0.2,0.2,0.3,0.6,0.3,1.1c0,1.2-0.5,2.3-1.2,3.1c-1.2,1.3-0.7,2.6-0.2,3.7l0.1,0.2c0.2,0.6,0.7,0.9,1.3,0.9
		l0.1,0c1,0,2-0.2,2.9-0.3c0.6-0.1,1.1-0.2,1.7-0.2c1-0.1,2.1-0.3,3.1-0.6c0.9-0.2,1.9-0.4,2.8-0.5c3.2-0.4,6.5-0.9,9.6-1.6
		c1.1-0.2,1.8-0.7,2.1-1.4c0.3-0.7,0.1-1.6-0.5-2.6c-0.1-0.2-0.2-0.3-0.4-0.5c-0.1-0.2-0.2-0.3-0.4-0.5l-0.2-0.2
		c-0.3-0.4-0.5-0.8-0.7-1.3c-0.3-0.7-0.4-1.2-0.2-1.5c0.2-0.3,0.6-0.6,1.2-0.7c0.5-0.1,1-0.2,1.5-0.3c1.3-0.3,2.5-0.6,3.9-0.6
		c0.3,0,0.5,0,0.8,0c0.4,0,0.8,0,1.3,0c0.5,0,1,0,1.4-0.1c1.6-0.4,3.2-0.4,5.1-0.5c1.1,0,2.3-0.1,3.6-0.2c0.4-0.1,0.8-0.2,1.3-0.2
		c1.5-0.3,3.4-0.6,5.4-1c0.8-0.2,1.7-0.4,2.2-0.9c0.9-1.1,1.5-2.3,1.7-3.7c0.2-1.6-0.3-3.1-0.7-4.5L225-8.6
		c-0.7-2.6-0.8-5.3-0.8-7.9l0-0.9c-0.1-2.7-0.3-5.3-0.5-7.9c-0.1-1.7-0.3-3.4-0.4-5.2c0-0.7-0.1-1.4-0.1-2.2
		c-0.2-3.1-0.3-6.2-0.7-9.3c-0.1-0.9-0.2-1.8-0.2-2.7c0-0.9-0.1-1.8-0.2-2.6c-0.3-2.4-1-4.4-2.1-6.2c-1.4-2.3-3.2-3.4-5.5-3.4
		c-3.1,0-6.3,0.5-9.3,0.9c-0.5,0.1-1.1,0.2-1.6,0.2c-1.4,0.2-2.8,0.4-4.1,0.5c-2.4,0.3-4.8,0.6-7.2,1c-3.6,0.7-6.8,1-9.8,1l-0.3,0
		c-2.9,0-5.7,0.5-8.5,0.9c-1.3,0.2-2.7,0.4-4.1,0.6c-2.8,0.3-5.8,0.8-9.3,1.4c-2.5,0.4-5.1,0.6-7.7,0.8c-0.6,0-1.3,0.1-1.9,0.1
		c-0.6,0-1.1,0.1-1.7,0.2c-1.1,0.2-2.3,0.4-3.4,0.2c-0.3-0.1-0.7,0-1.2,0.2c-3.5,1.5-5.3,4.6-4.8,8.4
		C140.4-34.3,141.1-28.2,141.6-22.1z M189.3,2.9c-2.2,0.2-4.5,0.4-6.7,0.7c-1.1,0.2-2.2,0.4-3.3,0.6c-1.8,0.3-3.6,0.7-5.4,0.9
		c-2,0.2-4,0.5-6,0.8c-3,0.4-6.2,0.9-9.3,1c-0.9,0-1.6,0.1-2.2,0.1c-1.6,0-2.8-0.1-4-0.3c-0.5-0.1-1.1-0.1-1.5-0.1
		c-0.2,0-0.4,0-0.6,0c-0.4,0-0.7,0-1.1,0c-1.3-0.1-2.3-0.7-3.2-2.1c-0.1-0.1-0.1-0.3-0.1-0.4c-0.1-1.1-0.2-2.2-0.3-3.3
		c-0.2-2.3-0.4-4.6-0.6-7c-0.2-1.7-0.4-3.3-0.6-5c-0.3-2.5-0.6-5.1-0.9-7.6c-0.3-2.7-0.6-5.6-0.8-8.3l0-0.6c-0.2-2.6-0.6-5.3-1-7.9
		l-0.1-0.5c-0.2-1.8-0.4-3.7-0.6-5.9c-0.1-1,0.4-2.1,1.3-3.1c1-1.1,2.3-1.9,3.5-2c1.3-0.1,2.5-0.2,3.8-0.4c1.2-0.1,2.4-0.3,3.6-0.4
		c3.3-0.2,6.6-0.6,9.8-1c0.7-0.1,1.5-0.2,2.2-0.3c2.4-0.3,4.8-0.6,7.1-1c2.2-0.3,4.6-0.6,6.9-0.9c1.8-0.2,3.7-0.4,5.6-0.5
		c0.5,0,1-0.1,1.5-0.1c2.3-0.2,5.4-0.4,8.4-1.1c0.9-0.2,1.9-0.3,2.8-0.4c0.9-0.1,1.8-0.1,2.6-0.3c1.9-0.4,3.9-0.6,5.8-0.7
		c1.3-0.1,2.6-0.2,3.9-0.4c1.3-0.2,2.4-0.3,3.5-0.3c1.3,0,2.4,0.2,3.4,0.5c1.5,0.5,2.4,1.3,2.7,2.5c0.7,2.5,1.4,5.2,1.4,8.9
		c0.1,0.6,0.1,1.2,0.2,1.9c0.2,1.7,0.4,3.6,0.4,5.5c0,1.7,0.2,3.5,0.4,5.2c0.2,1.9,0.4,3.9,0.4,5.8c0,2.1,0.2,4.2,0.4,6.3
		c0.1,0.8,0.2,1.7,0.2,2.5l0.1,1.2c0.2,2.7,0.4,5.4,1,8.1c0,0.2,0.1,0.4,0.2,0.6c0.1,0.3,0.2,0.6,0.2,1c0.3,2.3-1,4.1-3.1,4.5
		l-0.3,0.1c-3.3,0.7-6.8,1.4-10.2,1.4c-1.1,0-2.2,0.1-3.3,0.2c-1.3,0.1-2.6,0.3-3.9,0.2c-2.3-0.1-4.6,0.2-6.8,0.6
		c-0.5,0.1-1,0.2-1.5,0.2C193.2,2.6,191.2,2.7,189.3,2.9z M176.1,12.2c0.5-1.1,1.1-2.3,1.5-3.6c0.2-0.7,0.4-1.6-0.3-2.3
		c1.6-0.4,3.1-0.6,4.6-0.8c0.4,0,0.7-0.1,1-0.1c2.4-0.3,4.9-0.6,7.3-0.9c1-0.1,1.9-0.2,2.9-0.3c0.2,0,0.5,0,0.8,0c0.1,0,0.3,0,0.4,0
		c0.4,0,0.6,0,0.9-0.1c0.1,0,0.2,0,0.2,0c0,0,0.1,0.2,0,0.5c-0.2,1.3,0.4,2.2,1,3.1c0.2,0.3,0.4,0.6,0.6,0.9
		c0.1,0.2,0.2,0.3,0.3,0.5c0.1,0.2,0.2,0.3,0.3,0.5c0.2,0.4,0.3,0.8,0.2,1.1c-0.1,0.3-0.4,0.5-0.9,0.7c-1.9,0.6-3.9,0.9-5.8,1.1
		c-0.9,0.1-1.7,0.2-2.6,0.4c-2.9,0.5-5.8,1-8.7,1.5l-1.7,0.3c-0.1,0-0.2,0-0.3,0.1c-0.3,0.1-0.6,0.1-0.8,0.1c-0.4,0-0.7-0.1-0.9-0.4
		C175.4,13.7,175.7,13,176.1,12.2L176.1,12.2z"/>
	<path d="M-14.9-25c0.4,0.7,0.9,1.4,1.4,2c0.6,0.8,1.2,1.6,1.5,2.5c0.7,1.6,1.9,1.9,3,2.1c0.3,0.1,0.7,0.1,1,0.3c0.1,0,0.2,0,0.3,0
		l0.2,0c0.1,0,0.1,0,0.2,0c4,0.8,8.1,1.3,12,1.8c1,0.1,2,0.3,3,0.4c0.9,0.1,1.8,0.2,2.7,0.3c2,0.2,4.1,0.5,6.1,0.9
		c0.6,0.1,1.2,0.2,1.8,0.4c2.4,0.5,4.9,1,7.4,1.1c0.2,0,0.3,0,0.4,0.1c0.1,0.1,0.1,0.2,0.1,0.4c0,0.4-0.1,0.8-0.1,1.2
		c0,0.5-0.1,1-0.1,1.5c-0.1,0.5,0,0.8,0.2,1c0.2,0.3,0.5,0.4,1.1,0.5l0.5,0.1c1.3,0.2,2.7,0.3,4.1,0.4c0.5,0,0.6,0.1,0.7,0.7
		c0,0.7-0.1,1.4-0.3,2.2c-0.1,0.5-0.3,1-0.3,1.6c-0.2,1.9-0.4,4.1-0.8,6.3c-0.1,0.6-0.2,0.6-0.4,0.6c-0.1,0-0.2,0-0.4-0.1
		C30,3.1,29.7,3,29.5,3c-0.6,0-1.2,0.3-1.5,0.6c-1,0.7-1.4,1.7-1.9,2.7c-0.1,0.2-0.2,0.4-0.3,0.7C25,8.4,24.5,9.9,24,11.4
		c-0.3,0.9-0.7,1.9-1,2.8c-0.6,1.5-0.5,2.8,0.1,3.8c0.8,1.1,2.1,1.8,3.7,1.8c1.6,0,3.3,0.3,4.8,0.5c0.6,0.1,1.1,0.2,1.7,0.3
		c0.2,0,0.4,0,0.7,0c1.8,0,2.9-1.1,3-2.9c0-0.4,0-0.9,0-1.3c0.1-3.3,0.2-6.7-0.7-10c-0.4-1.4-1.6-3-2.7-3c0,0,0,0,0,0
		c-0.5,0-0.8-0.1-1-0.2c-0.1-0.2-0.1-0.5,0.1-1c0.1-0.3,0.1-0.7,0.1-1c0-0.2,0-0.3,0-0.5c0.1-1.1,0.3-2.2,0.5-3.3
		c0.2-1.1,0.4-2.2,0.5-3.3c0.1-1.5,0.5-1.8,0.9-1.8c0.3,0,0.8,0.2,1.5,0.6c0.3,0.2,0.5,0.2,0.6,0.2c0.4,0,0.6-0.4,0.7-0.8
		C37.9-8.3,38-9,38.1-9.7c0.1-0.5,0.2-1,0.3-1.5c0.2-0.6,0.4-0.7,0.6-0.7c0.1,0,0.3,0,0.4,0.1l0.4,0.1c1.6,0.4,3.2,0.7,4.8,1.1
		c0.2,0,0.4,0.1,0.6,0.1c0.4,0,0.7-0.2,0.7-0.6c0.1-0.5,0.2-0.9,0.4-1.3c0.2-0.4,0.3-0.7,0.4-1.2c0.5-2.1,0.5-4.2,0.5-6.9l0-1l0-0.5
		c-0.3-5.6-0.6-11.9-3.9-17.6c-0.1-0.2-0.3-0.5-0.4-0.7c-0.3-0.6-0.7-1.3-1.1-1.8c-1.1-1.2-2.3-2.3-3.6-3.4L38-45.6
		c-1.7-1.4-3.5-2.8-5.8-3.4c-3.1-0.8-6.1-1.3-9.7-1.9c-2.5-0.4-5.1-0.7-7.6-0.9c-1-0.1-2-0.2-3-0.3c-1.9-0.2-3.7-0.4-5.6-0.7
		c-2-0.2-4-0.5-6-0.7c-1.1-0.1-2.4-0.3-3.8-0.3c-1.5,0-2.8,0.2-4.1,0.5c-1.7,0.5-3.8,1.1-5.3,2.6c-2.3,2.3-4,5.2-4.9,8.6
		c-0.5,1.8-0.5,3.7-0.4,5.5l0,0.8c0,1.4,0.2,2.8,0.5,4.6c0.3,1.8,1.2,3.4,2.1,5C-15.4-25.9-15.1-25.5-14.9-25z M24.4,15.4
		c-0.1-1.1,0.4-2,0.8-3c0.2-0.4,0.4-0.8,0.5-1.2c0.6-1.7,1.3-3.6,2.2-5.2c0.3-0.6,1.1-1,1.8-1c0.3,0,0.5,0.1,0.8,0.2
		c0.2,0.1,0.2,0.1,0.1,0.3l0,0.1c-0.5,3.8-1,8-1.5,12.1c-0.1,0.5-0.2,0.5-0.4,0.5c-0.1,0-0.1,0-0.2,0c-1.5-0.2-2.8-1-3.8-1.7
		c-0.2-0.2-0.2-0.4-0.2-0.7C24.5,15.7,24.5,15.6,24.4,15.4z M35.4,13c0,1.5,0,3.1,0,4.7c0,0.9-0.5,1.3-1.4,1.2c-0.1,0-0.1,0-0.2,0
		c-0.1,0-0.1,0-0.2,0c-0.1,0-0.2,0-0.2,0c-1.4-0.2-2.1-0.3-2.4-0.7c-0.3-0.4-0.2-1.2,0-2.9c0.3-1.7,0.5-3.5,0.6-5.2
		c0.1-1,0.2-2.1,0.3-3.2c0-0.1,0-0.2,0-0.3c0-0.2,0-0.3,0.1-0.5c0-0.1,0-0.3,0.1-0.4c0-0.5,0.1-0.6,0.3-0.6h0.1c0.7,0,1.2,0,1.6,0.6
		c0.8,1.2,1.1,2.5,1.3,3.7c0.1,0.4,0,0.7,0,1.1c0,0.1,0,0.2,0,0.3l-0.1,0V11C35.4,11.7,35.4,12.3,35.4,13z M26.6-15
		c-2.6,0-5.1-0.5-7.5-1c-0.9-0.2-1.9-0.4-2.9-0.5c-3.4-0.6-6.9-1-10.2-1.4c-1.7-0.2-3.3-0.4-5-0.6c-1-0.1-2.1-0.3-3.1-0.4
		c-1.8-0.3-3.6-0.5-5.5-0.7c-1.9-0.2-2.9-1.4-3.8-2.7c-1.5-2.3-3.2-5.1-4.3-8.1c-0.5-1.5-0.8-3.1-0.7-4.7c0-0.6,0-1.2-0.1-1.8
		c0-0.6-0.1-1.2-0.1-1.8c0.2-4,1.7-7.6,4.8-11c1.4-1.5,3.1-1.9,4.4-1.9c0.9,0,1.8-0.1,2.6-0.2C-3.4-51.9-2.2-52-1-52
		c1,0,1.9,0.1,2.8,0.2c1.7,0.3,3.5,0.5,5.2,0.7C7.6-51,8.3-50.9,9-50.8c2,0.3,4.1,0.5,6.1,0.7c3.3,0.3,6.7,0.7,10,1.3
		c2.2,0.4,4.2,0.8,6.2,1.3c3.3,0.9,6.3,2.9,8.9,6.2c2.5,3,4,6.5,4.6,10.6c0.1,0.7,0.2,1.4,0.3,2.1c0.3,1.9,0.6,3.8,0.7,5.7
		c0.2,3.4,0.2,7.1-0.7,10.6c-0.5-0.1-1.1-0.2-1.6-0.3C42-13,40.5-13.3,39-13.7c-0.2,0-0.4-0.1-0.5-0.1c-0.9,0-1.1,0.7-1.3,1.3
		c-0.1,0.5-0.2,0.9-0.3,1.4c-0.1,0.5-0.2,0.9-0.3,1.4C36.6-9.2,36.5-9,36.2-9c-0.1,0-0.2,0-0.3,0c-2.6-0.5-5.3-0.9-8-0.9
		c-0.2,0-0.3,0-0.4-0.1c0-0.1,0-0.3,0-0.3c0.1-1.2,0.2-2.5,0.2-3.4c0-0.3,0-0.7-0.2-0.9c-0.1-0.1-0.4-0.2-0.6-0.2L26.6-15z
		 M26.8-14.8L26.8-14.8L26.8-14.8L26.8-14.8z"/>
	<path d="M41.9,33.8l-0.3,0c-0.8,0-1.7,0.1-2.5,0.2c-1.4,0.1-2.8,0.2-4.2,0.2c-0.9,0-1.8,0-2.6-0.1c-0.8-0.1-1.7,0-2.6,0.1
		c-0.7,0.1-1.5,0.2-2.3,0.1c-0.6,0-1.2-0.1-1.8-0.1c-1.3,0-2.6,0.1-3.8,0.1c-1.1,0.1-2.2,0.1-3.3,0.1c-1.6,0.1-3.2,0.1-4.8,0.3
		c-1,0.1-2.1,0.1-3.1,0.2c-2,0.1-4.1,0.2-6.1,0.6c-1.4,0.3-2.8,0.6-4.2,0.8c-1.4,0.3-2.9,0.5-4.4,0.8c-5.1,1.1-8.6,4.4-10.6,9.9
		c-0.4,1.2-0.7,2.5-0.9,3.7c-0.1,0.7-0.2,1.4-0.4,2.1c-0.8,3.5-0.3,7.1,1.7,10.5c1.4,2.5,3.4,4.6,5.3,6.6c0.3,0.4,0.7,0.7,1,1.1
		c1.6,1.7,3.7,2.6,6,2.6l0.2,0c0.8,0,1,0.2,1.1,1c0,0.8,0,1.5,0.1,2.3c0.1,3.1,0.1,6.3,0.4,9.5c0.2,2.6,0.1,5.3-0.2,8.3
		c-0.1,1.4,0.9,3.6,2,4.3c0.8,0.5,1.7,0.6,2.4,0.6c0.3,0,0.5,0,0.8,0c0.4,0,0.7,0,1.1,0c2.9,0.1,5.3-1.8,5.7-4.5l0-0.3
		c0-0.3,0.1-0.7,0.2-1l0.2-0.8c0.7-3.1,1.4-6.3,1.5-9.5c0-2.2,0.2-4.4,0.6-6.6c0.3-1.7,0.5-3.6,0-5.5c-0.3-1.2,0-1.8,1-2.1
		c0.3-0.1,0.5-0.3,0.7-0.4c0.1-0.1,0.1-0.1,0.2-0.2c2.6-1.8,4.2-4.4,5.8-6.9c2.3-3.6,2.9-7.2,2-11c-0.1-0.2-0.1-0.4,0-0.5
		c0.1-0.1,0.2-0.1,0.4-0.1c0.2,0,0.3,0,0.5,0c0.5,0,1,0,1.4-0.2c5-1.3,9-2.3,12.8-3.1c1.3-0.3,2.6-0.6,3.9-0.9
		c1.9-0.5,3.9-1,5.9-1.3c0.8-0.1,0.8-0.8,0.8-1.1c0-2,0.1-4.1,0.1-6.1c0-1.2,0.1-2.3,0.1-3.5l0-0.1c0-0.2,0-0.4-0.1-0.5
		c-0.1-0.1-0.2-0.1-0.4-0.1c-0.2,0-0.3,0.2-0.4,0.3c0,0,0,0,0,0c-0.6-0.3-1.3-0.4-2-0.3C45.3,33.6,43.6,33.7,41.9,33.8z M48.3,39.4
		c0,0.6,0,1.1,0,1.7v0.1c0,1.5,0,1.5-1.5,1.9l-0.1,0c-2.9,0.8-5.8,1.5-8.7,2.1c-1.6,0.3-3.2,0.7-4.8,1.1c-1.1,0.3-2.2,0.6-3.2,0.8
		c-1.3,0.4-2.7,0.7-4.1,1c-0.4,0.1-0.7,0.1-1.1,0.2c-0.6,0.1-1.1,0.1-1.7,0.3c-0.6,0.2-1,0.4-1.1,0.7c-0.1,0.3-0.1,0.6,0.1,1.2
		c0.6,1.5,0.8,3,0.6,4.7c-0.3,2.3-1.2,4.5-2.9,6.7c-0.4,0.5-0.8,1.1-1.2,1.6c-0.6,0.7-1.1,1.4-1.7,2.2c-0.7,1-1.9,1.6-3,2.2
		c-0.3,0.2-0.6,0.3-0.9,0.5L13,68.5c-0.3,0.1-0.5,0.3-0.5,0.8c0,0.4,0,0.7,0,1.1c0,0.7,0,1.5,0.1,2.2c0.2,1.1,0.2,2.1,0.1,2.9
		c-0.4,1.9-0.5,3.9-0.6,5.8c-0.1,1.3-0.1,2.7-0.3,4c-0.3,2.6-0.7,5-1.5,7.5c-0.1,0.5-0.2,0.9-0.3,1.4c-0.1,0.6-0.2,1.1-0.4,1.7
		c-0.4,0.9-0.8,1.3-1.6,1.5c-0.5,0.1-1.1,0.3-1.7,0.6c-0.7,0.3-1.4,0.5-2,0.5c0,0,0,0,0,0c-1,0-2-0.4-2.9-1.2
		C1,96.7,0.8,96.2,1,95.7l0.1-0.5c0.2-0.8,0.4-1.6,0.5-2.5c0.3-2.1,0.1-4.2-0.1-6.2c-0.1-0.6-0.1-1.2-0.2-1.9
		c-0.1-0.8-0.1-1.5-0.1-2.3c-0.1-1.3-0.1-2.6-0.3-4c-0.1-0.9-0.2-1.9-0.2-2.8c0-0.6-0.1-1.2-0.1-1.9c-0.1-0.8-0.5-1.2-1.3-1.4
		c-0.4,0-0.7-0.1-1.1-0.3C-2,72-2.3,71.9-2.6,71.8c-3.1-0.6-5-2.8-6.9-4.9l-0.4-0.4c-1.2-1.3-2.4-2.7-3.3-4.3
		c-1.5-2.7-2.1-5.5-1.5-8.4c0.7-3.9,1.6-7.7,4.2-10.8c1.4-1.7,3.3-2.9,5.6-3.6c2.9-0.9,5.6-1.6,8-2.1c2.4-0.5,4.9-0.7,7.3-0.9l0.1,0
		c2.8-0.2,5.7-0.3,8.5-0.4c1.3,0,2.6-0.1,3.8-0.2c2.2-0.1,4.5-0.1,6.7-0.1c0.8,0,1.6,0,2.4,0c3.7-0.1,7.4-0.1,11.2-0.5
		c1.4-0.2,2.9-0.3,4.4-0.3c0.3,0,0.7-0.1,1-0.2C48.2,36.2,48.2,37.8,48.3,39.4z"/>
	<path d="M147.3,109.5c0.4-0.6,0.8-1.3,1.2-1.9c1.2-1.7,1.9-3.5,2-5c-0.1-2.5-0.8-3.9-2.6-5c-2.5-1.5-5.4-3.3-8.5-5
		c-2-1.1-3.9-2.3-5.8-3.5c-1.8-1.1-3.7-2.3-5.6-3.3c-1.8-1-3.4-2.2-5.1-3.3c-1.5-1.1-3.1-2.2-4.8-3.1c-0.9-0.5-1.8-1.1-2.6-1.7
		c-1.6-1.1-3.2-2.2-5.1-2.9l-0.2-0.1c-0.4-0.1-0.7-0.3-1.1-0.3c-0.2,0-0.4,0-0.6,0.1c-1.8,0.9-2.9,1.8-3.7,3c-0.5,0.8-1,1.5-1.4,2.3
		c-0.4,0.7-0.8,1.3-1.2,2c-1.2,1.8-2.3,3.8-3.4,5.6c-0.8,1.4-1.7,2.8-2.5,4.2c-1,1.7-1.1,3.4-0.1,5.1c0.6,1.1,1.6,1.7,2.5,2.4
		c0.3,0.2,0.6,0.4,0.9,0.7c1.4,1.1,2.9,2.2,4.4,3.2c1.1,0.8,2.2,1.6,3.3,2.4c2.2,1.6,4,2.9,5.8,3.8c1.4,0.8,2.8,1.6,4.1,2.5
		c1.5,0.9,3.1,1.9,4.7,2.8c1.6,0.9,3.3,1.9,4.8,2.9c1.7,1.1,3.5,2.2,5.3,3.1c0.2,0.1,0.3,0.2,0.5,0.3c1.1,0.6,2.1,1.2,3.4,1.2
		c0.7,0,1.4-0.2,2.1-0.6c0.3-0.2,0.6-0.3,0.8-0.5c1.5-0.9,2.9-1.7,3.7-3.5c0.7-1.7,1.6-3.2,2.5-4.5
		C145.8,111.7,146.6,110.6,147.3,109.5z M147.4,106.3c-0.1,0.2-0.2,0.4-0.3,0.6c-0.9,1.7-2,3.4-3.1,5c-1.2,1.8-2.4,3.7-3.4,5.7
		c-0.7,1.4-2.9,2.5-4.9,2.5c-0.6,0-1.2-0.1-1.7-0.3c-1.6-0.7-3.1-1.7-4.5-2.6c-0.9-0.6-1.7-1.2-2.7-1.7c-1.4-0.8-2.7-1.6-4-2.4
		c-2.7-1.6-5.5-3.3-8.4-4.8c-2.1-1.1-4.2-2.5-6.7-4.5c-1.1-0.9-2.3-1.7-3.5-2.6c-0.8-0.6-1.6-1.1-2.4-1.7l-0.2-0.2
		c-1.2-0.9-2.4-1.8-3.4-2.8c-1.6-1.6-1.7-2.5-0.6-4.2c0.5-0.8,1-1.7,1.5-2.6c0.4-0.7,0.7-1.4,1.1-2c0.3-0.5,0.7-1.1,1.1-1.6
		c0.6-0.8,1.2-1.5,1.6-2.4c0.5-1.1,1.1-2.1,1.7-3.1c0.5-0.7,1-1.5,1.4-2.3c0.9-1.7,1.9-2.6,3.1-2.6c0.7,0,1.5,0.3,2.4,0.8
		c3.5,2.1,6.9,4.3,10,6.4c1.9,1.3,3.9,2.6,5.8,3.8c0.7,0.5,1.5,1,2.2,1.4c1.9,1.2,3.8,2.4,5.7,3.5c0.8,0.5,1.5,0.9,2.3,1.4
		c1.1,0.7,2.3,1.3,3.4,2c2.4,1.4,4.8,2.8,7.1,4.4c0.9,0.7,0.9,1.7,0.9,2.1C148.9,103.6,148.2,105,147.4,106.3z"/>
	<path d="M209.2,15.8L209.2,15.8c-0.3-0.4-0.5-0.7-0.9-0.7c-0.2,0-0.3,0-0.5,0.1c-0.1,0.1-0.3,0.1-0.6,0.1c-0.1,0-0.2,0-0.2,0
		c-1.5,0.1-3.1,0.2-4.6,0.4c-4,0.3-8.1,0.6-12.1,1.2c-1.4,0.2-2.7,0.4-4.1,0.5c-1.9,0.2-3.8,0.4-5.7,0.8c-0.4,0.1-0.8,0.1-1.2,0.2
		c-1.2,0.2-2.4,0.5-3.6,0.6c-0.4,0-0.8,0.1-1.2,0.1c-1.7,0.1-3.4,0.3-5.1,0.6c-0.3,0-0.5,0.1-0.8,0.1c-0.4,0-0.7-0.1-1-0.4
		c-0.2-0.2-0.4-0.2-0.6-0.2c-0.5,0-1,0.4-1.1,1c0,0.2-0.1,0.3-0.1,0.5l0,0.1c-0.2,0.6-0.4,1.2-0.7,1.8c-0.4,1.1-0.8,2.2-1.1,3.3
		c-0.2,1-0.6,2-0.9,2.9c-0.1,0.2-0.2,0.5-0.2,0.7l-0.1,0.1c-0.2,0.4-0.3,0.9,0,1.4c0.2,0.4,0.6,0.6,1.1,0.6c0.2,0,0.3,0,0.5,0
		c2-0.3,4-0.5,6-0.8c1.4-0.2,2.9-0.4,4.3-0.6c1.7-0.2,3.3-0.4,5-0.6l2-0.3l0,0.1l0.2,0c0.5-0.1,1.1-0.1,1.6-0.2
		c1.1-0.2,2.3-0.3,3.5-0.4c5.3-0.5,10-1,14.5-1.6c2-0.3,4.1-0.5,6.1-0.6c0.9-0.1,1.7-0.2,2.6-0.2c1.4-0.1,2.9-0.5,4.7-1.1
		c0.3-0.1,0.7-0.3,0.7-0.5c0-0.2-0.1-0.4-0.3-0.7c-1.6-1.5-2.8-3.3-4-5C210.7,17.8,210,16.7,209.2,15.8z M213.5,23.7
		c-3.5,0.8-7,1.2-10.5,1.5c-2,0.2-4.1,0.4-6.2,0.7c-3.4,0.5-6.8,0.8-10.1,1.2c-2.2,0.2-4.4,0.4-6.6,0.7c-1,0.1-2.1,0.2-3.1,0.4
		c-3.1,0.3-6.2,0.7-9.3,1.3c-0.7,0.1-1.5,0.2-2.3,0.3c-0.3,0-0.6,0.1-0.8,0.1c0.7-2.6,1.5-5.3,2.6-7.9c0.1-0.4,0.3-0.5,0.8-0.5
		c5.2-0.6,10.6-1.1,15.9-1.9c5-0.7,9.8-1.2,15.2-1.8c1.3-0.1,2.7-0.2,4-0.3c1.3-0.1,2.7-0.1,4-0.3c0.1,0,0.2,0,0.3,0
		c0.7,0,1.3,0.3,1.7,1c0.4,0.6,0.8,1.1,1.3,1.6c0.7,0.8,1.3,1.5,1.8,2.5c0.2,0.3,0.4,0.5,0.7,0.8C213.1,23.1,213.3,23.3,213.5,23.7z
		"/>
	<path d="M24.1,122.8c-0.6-0.3-1.4-0.6-2.1-0.6c-0.3,0-0.5,0-0.7,0.1c-0.4,0.1-0.9,0.3-1.3,0.4c-1.8,0.5-3.6,1-5,2.6
		c-0.6,0.7-1.4,1.3-2.2,1.9c-0.3,0.2-0.6,0.5-0.9,0.7c-0.3,0.2-0.6,0.5-0.8,0.9l-0.5,1c-1.3,2.5-2.7,5.2-3.7,7.9
		c-1.3,3.7-2.3,6.8-2.9,9.7c-0.4,1.9-0.2,3.8,0.6,5.6c0.7,1.5,1.9,2.7,3,3.7l0.1,0c2.4,2.3,4.7,3.8,7.6,3.8c0.5,0,1,0,1.5-0.1
		c0.6-0.1,1.2-0.2,1.9-0.2c3.7-0.2,6.4-1.7,7.9-4.4c2.3-4.4,3.8-8.1,4.5-11.7c0.2-0.8,0.4-1.5,0.6-2.3c0.5-1.6,0.9-3.2,0.8-4.9
		C32.5,132,29.5,125.3,24.1,122.8z M29.6,141.8c-0.2,0.7-0.4,1.4-0.5,2.1c-0.8,3.7-2.4,7-4,10.1c-1,1.9-2.3,3.8-4.7,4.3
		c-1.3,0.2-2.7,0.5-4.1,0.5c-0.3,0-0.5,0-0.8,0c-0.2,0-0.4,0-0.7,0c-1.9,0-3.6-0.8-5.4-2.4c-0.3-0.3-0.7-0.6-1-0.9
		c-0.3-0.2-0.5-0.4-0.8-0.6c-2-1.8-2.7-4.1-2.1-7.4c0.4-2.1,1.1-4.1,1.9-6.1c0.2-0.6,0.5-1.2,0.7-1.8c0.9-2.4,2-4.8,3.5-7.4
		c1.2-2.1,2.8-3.9,4.9-5.6c1.1-0.9,2.3-1.6,3.5-2.2c0.7-0.3,1.3-0.5,2-0.5c0.9,0,1.9,0.3,3,1c3.6,2.1,4.7,5.6,5.4,8.8
		C30.9,136.5,30.3,139.2,29.6,141.8z"/>
	<path d="M211.1,68.4c1.2,0.3,2.4,0.6,3.6,0.8c2.5,0.6,5.2,1.2,7.7,1.9c0.1,0,0.2,0,0.3,0c0.4,0,0.7-0.2,1-0.4
		c0.7-0.4,0.9-1.1,1-1.7c0.1-0.2,0.1-0.4,0.2-0.6c0.8-2.1,1.3-3.8,1.6-5.4l0,0l0-0.1c-0.1-0.5-0.2-1.1-0.8-1.3
		c-0.8-0.4-1.7-0.7-2.6-0.9c-3.7-0.7-6.4-1.4-9-2.2c-0.8-0.3-1.3-0.1-1.8,0.5c-0.5,0.6-0.8,1.5-1.1,2.4c-0.2,0.7-0.3,1.5-0.5,2.2
		c-0.2,0.9-0.4,1.8-0.6,2.7c-0.2,0.6-0.1,1.1,0.1,1.5C210.4,68.1,210.7,68.3,211.1,68.4z M211.5,66.2c0.6-1.8,1-3.6,1.6-5.7
		c0.2-0.6,0.4-0.7,0.6-0.7c0.1,0,0.2,0,0.3,0.1c1.6,0.5,3.3,0.9,4.9,1.2c1.8,0.4,3.6,0.8,5.3,1.3c0.1,0,0.1,0,0.2,0.1
		c0.3,0.1,0.6,0.2,0.7,0.3c0,0,0,0.1,0,0.3c-0.3,2.3-1,4.2-1.8,6.2c-0.1,0.4-0.5,0.5-1.1,0.3c-1.4-0.3-2.8-0.7-4.3-1
		c-1-0.2-2-0.5-3.1-0.7c-1.1-0.2-1.9-0.5-2.8-0.7c-0.3-0.1-0.5-0.2-0.5-0.3C211.4,66.7,211.4,66.5,211.5,66.2z"/>
	<path d="M203.9,88c0.6,0.3,1.3,0.4,1.9,0.5c0.6,0.1,1.1,0.2,1.6,0.4c0.1,0,0.1,0,0.2,0c0.3,0,0.5-0.3,0.6-0.8l0,0l0,0
		c-0.1-0.3-0.2-0.9-1-1c-0.7,0-1.4-0.2-2.1-0.4c-0.3-0.1-0.5-0.1-0.8-0.2c-0.6-0.1-0.9,0-1,0.5C203.1,87.6,203.6,87.8,203.9,88z"/>
	<path d="M220.5,85.5c-0.4-0.7-1.1-0.7-1.7-0.8c-0.2,0-0.5,0-0.6-0.1l-0.1,0c-1-0.1-1.3,0.4-1.4,0.8c0,0.2,0,0.4,0.1,0.6
		c0.2,0.2,0.5,0.3,0.7,0.3c0,0,0.1,0,0.1,0c0.8,0.2,1.5,0.3,2.1,0.4l0.1,0c0.1,0,0.2,0,0.3,0c0.2,0,0.4-0.1,0.5-0.3
		C220.9,86.2,220.7,85.8,220.5,85.5L220.5,85.5z"/>
	<path d="M208.8,74.8c0.6,0.1,1.1,0.3,1.6,0.4c0.6,0.2,1.3,0.3,1.9,0.5c0.1,0,0.3,0.1,0.4,0.1c0.3,0,0.5-0.2,0.6-0.5
		c0.1-0.4-0.1-1-0.5-1.1c-0.9-0.2-1.7-0.4-2.6-0.6c-0.3-0.1-0.7-0.1-1.1-0.2l-0.1,0c-0.3,0-0.8,0-0.9,0.6
		C208.1,74.6,208.7,74.7,208.8,74.8z"/>
	<path d="M206,83.6c0.9,0.2,1.8,0.4,2.6,0.5c0.1,0,0.1,0,0.2,0.1c0.1,0.1,0.3,0.1,0.4,0.1c0.2,0,0.4-0.1,0.5-0.5
		c0.1-0.3,0.1-0.5-0.1-0.7c-0.1-0.2-0.4-0.4-0.7-0.5c-0.7-0.2-1.3-0.3-2-0.5c-0.3-0.1-0.6-0.1-0.8-0.2l-0.1,0
		c-0.4,0-0.7,0.2-0.8,0.6C205.2,83.1,205.5,83.5,206,83.6z"/>
	<path d="M212.7,88.2c-0.7-0.2-1.5-0.5-2.3-0.7c-0.4-0.1-0.7,0.1-0.9,0.6c-0.1,0.3-0.1,0.5,0,0.6c0.1,0.2,0.3,0.4,0.5,0.5
		c0.6,0.2,1.2,0.4,1.7,0.5c0.2,0.1,0.4,0.1,0.5,0.2l0.4,0c0.3,0,0.5,0,0.6-0.2c0.1-0.1,0.1-0.2,0.1-0.3l0-0.1
		C213.3,88.9,213.3,88.4,212.7,88.2z"/>
	<path d="M207,79.3c0.8,0.1,1.7,0.3,2.5,0.5l0.9,0.2l0,0l0,0c0.1,0,0.1,0,0.2,0c0.2,0,0.3-0.1,0.4-0.3c0.1-0.3-0.1-0.6-0.2-0.8
		c-0.2-0.4-0.6-0.6-1-0.6l-0.1,0c-0.9-0.1-1.7-0.2-2.5-0.4c-0.5-0.2-0.9,0.1-1,0.6c-0.1,0.2-0.1,0.4,0,0.5
		C206.5,79.2,206.8,79.3,207,79.3z"/>
	<path d="M218.3,89.4l-0.2,0c-0.1,0-0.2,0-0.3,0l-0.1,0c-0.1,0-0.2,0-0.2,0l-0.1,0c-0.1,0-0.1,0-0.1,0c-0.7-0.1-1.1,0.2-1.2,0.8
		c-0.1,0.7,0.5,0.8,0.8,0.9c0.1,0,0.1,0,0.2,0c0.6,0.1,1.2,0.2,1.8,0.2c0,0,0.1,0,0.1,0c0.3,0,0.5-0.1,0.6-0.3
		c0.2-0.2,0.2-0.5,0.1-0.8C219.4,89.4,218.8,89.3,218.3,89.4z"/>
	<path d="M221.3,81.1L221.3,81.1c-0.6-0.2-1.3-0.4-2.1-0.3l-0.1,0c-0.1,0-0.1,0-0.2,0c-0.1,0-0.2,0-0.3,0c-0.4,0-0.6,0.2-0.6,0.7
		c0,0.3,0,0.5,0.2,0.6c0.2,0.2,0.5,0.3,0.8,0.3c0.1,0,0.2,0,0.3,0c0.5,0.1,0.9,0.2,1.4,0.2l0.3,0.1c0.1,0,0.1,0.1,0.2,0.1
		c0.1,0.1,0.3,0.2,0.4,0.2c0.1,0,0.3-0.1,0.4-0.3c0.1-0.3,0.1-0.6,0-0.9C221.8,81.4,221.6,81.2,221.3,81.1z M221.6,82.6
		C221.6,82.6,221.6,82.6,221.6,82.6L221.6,82.6L221.6,82.6z"/>
	<path d="M222.5,76.5c-0.7-0.2-1.5-0.5-2.4-0.7c-0.4-0.1-0.8,0.1-0.9,0.6c-0.1,0.3-0.1,0.5,0.1,0.7c0.1,0.2,0.3,0.3,0.5,0.4
		c0.6,0.1,1.1,0.3,1.7,0.4l0.7,0.2l0.2,0c0,0,0.1,0,0.1,0c0.3,0,0.5-0.1,0.6-0.4C223.2,77,222.9,76.6,222.5,76.5z"/>
	<path d="M213.2,84c-0.2,0-0.4,0-0.6-0.1l-0.1,0c-0.1,0-0.2,0-0.3,0c-0.1,0-0.2,0-0.2,0c-0.2,0-0.7,0-0.8,0.6c0,0.2,0,0.4,0.1,0.6
		c0.2,0.2,0.5,0.3,0.8,0.3c0.1,0,0.1,0,0.2,0l0.7,0.1c0.4,0.1,0.9,0.2,1.3,0.2c0.1,0,0.2,0,0.2,0c0.3,0,0.4-0.1,0.5-0.2
		c0.1-0.2,0.1-0.4-0.1-0.7C214.4,84.1,213.7,84.1,213.2,84z"/>
	<path d="M216.7,81.3c0.1-0.3,0-0.6-0.1-0.8c-0.2-0.2-0.5-0.4-0.8-0.5c-0.4-0.1-0.8-0.1-1.2-0.2l-0.4,0c-0.6-0.2-1,0.1-1.2,0.6
		c-0.1,0.2,0,0.4,0.1,0.6c0.2,0.2,0.5,0.2,0.7,0.2l0.1,0c0.6,0,1,0.2,1.5,0.4c0.2,0.1,0.4,0.2,0.7,0.2
		C216.2,81.9,216.6,81.8,216.7,81.3z"/>
	<path d="M215,76.4l0.4,0.1c0.5,0.1,1,0.1,1.4,0.2c0.1,0,0.2,0,0.3,0c0.2,0,0.3-0.1,0.4-0.2c0.1-0.2,0.1-0.4,0-0.7
		c-0.3-0.9-1-0.9-1.6-1c-0.2,0-0.5,0-0.7-0.1c-0.2,0-0.3,0-0.4,0c-0.5,0-0.7,0.3-0.8,0.7C213.9,76.2,214.6,76.3,215,76.4z"/>
	<path d="M117.4,138.2c0-0.2,0-0.4,0-0.5c0-0.3,0-0.6-0.1-0.9c-0.2-1.6-1.5-2.1-2.6-2.5c-0.2-0.1-0.3-0.1-0.5-0.2
		c-1-0.4-2.1-0.8-3.2-1.1c-2-0.7-4.2-1.3-6.1-2.5c-0.6-0.3-1-0.6-1.4-0.6c-0.6,0-1.1,0.5-1.7,1.3c-0.1,0.2-0.3,0.3-0.4,0.4
		c-0.1,0.1-0.2,0.2-0.3,0.3c-0.5,0.5-0.6,1-0.5,1.5c0.1,0.5,0.6,0.9,1.3,1.1c0.3,0.1,0.6,0.2,0.8,0.2c0.9,0.2,1.8,0.5,2.6,0.8
		c1,0.4,1.9,0.8,2.9,1.2c2.2,0.9,4.4,1.8,6.5,3c0.5,0.3,1.1,0.7,1.7,0.7c0.2,0,0.4-0.1,0.6-0.2c0.5-0.3,0.5-1,0.5-1.5
		C117.4,138.6,117.4,138.4,117.4,138.2z M115.9,138.2c-0.1,0.1-0.1,0.1-0.2,0.1c-0.2,0-0.4-0.2-0.6-0.3c-0.1,0-0.1-0.1-0.2-0.1
		c-1.2-0.7-2.6-1.2-3.9-1.7c-1.1-0.4-2.2-0.8-3.3-1.3c-0.9-0.5-1.9-0.8-2.9-1.1c-0.7-0.2-1.5-0.5-2.2-0.8c0,0,0,0,0,0
		c0.1-0.2,0.2-0.3,0.3-0.5c0.4-0.8,0.8-0.9,1-0.9c0.3,0,0.6,0.1,0.9,0.4c1.7,1.2,3.8,1.8,5.7,2.4c0.9,0.3,1.7,0.5,2.6,0.8
		c0.6,0.2,1.1,0.4,1.7,0.7l0.6,0.3c0.3,0.1,0.5,0.3,0.5,0.5C116.1,137.2,116.2,137.8,115.9,138.2z"/>
	<path d="M102.1,166.5c0.2,0,0.4,0,0.6,0c1.8,0,3.5-0.6,5.2-2c3.4-2.5,7.1-6.3,6.1-12.5c-0.3-2-1.4-3.4-2.5-4.8
		c-1.8-2.2-3.5-3.5-5.5-4.3c-0.2-0.1-0.5-0.2-0.7-0.3c-1-0.4-2-0.9-3.1-0.7c-3.2,0.3-5.9,1.3-8.1,2.9c-0.5,0.4-0.8,0.7-1,1.1
		c-0.3,0.6-0.6,1.1-0.9,1.7c-0.3,0.6-0.7,1.2-1,1.8c-2.1,4.2-1.7,8.4,1.2,12.5C94.5,164.8,97.8,166.3,102.1,166.5z M92.5,149.5
		c0.1-0.2,0.2-0.3,0.3-0.5c0.1-0.2,0.2-0.4,0.3-0.6c1.5-2.9,4.8-4.8,8.4-4.8c1.3,0,2.6,0.3,3.7,0.8c2.9,1.3,5.2,3.5,7.1,6.5
		c0.3,0.5,0.3,0.5,0.3,1.6l0,0.1c0,0.5,0.1,1,0.1,1.5c0.1,1.1,0.3,2.2-0.3,3.2c-2.4,4.8-5.4,7.1-9.5,7.5c-0.4,0-0.7,0.1-1.1,0.1h0
		c-3.3,0-6.2-1.4-8.2-3.8C90.6,157.2,90.3,153.6,92.5,149.5z"/>
	<path d="M207.1,128.3c-1.1-2-2.3-4.1-4.4-5.3c-0.2-0.1-0.4-0.2-0.6-0.3c-0.9-0.5-1.9-1.1-2.9-1.1c-0.2,0-0.5,0-0.7,0.1
		c-1.3,0.3-2.6,0.8-3.9,1.2c-0.8,0.3-1.7,0.6-2.6,0.9c-1.4,0.4-2.7,1-4,1.5c-1.3,0.5-2.6,1-3.9,1.5c-1.9,0.6-3.8,1.3-5.2,1.9
		c-2.1,0.9-4.3,1.9-6.2,3.6c-1.7,1.6-2.5,3.2-2.5,5.1c0,1.7,0.1,3.5,0.5,5.5c0.1,0.9,0.2,1.6-0.1,2.4c-0.3,0.8-0.2,1.6,0.2,2.3
		c0.5,0.7,1.3,1.2,2.3,1.3c0.1,0,0.2,0,0.2,0c0.5,0,1-0.1,1.5-0.2c0.4-0.1,0.7-0.1,1-0.1c0.5,0.1,1,0,1.4-0.1c0.1,0,0.2,0,0.3-0.1
		c2-0.3,3.9-1.1,5.7-1.9c0.8-0.4,1.7-0.8,2.6-1.1c2.6-1,5.3-2.1,8.6-3.7c2.9-1.4,6.1-2.4,8.9-3.2c1.5-0.5,3.2-1,4.8-2
		c1.3-0.8,1.6-1.9,1.1-3.3C208.7,131.6,208,129.9,207.1,128.3z M186.9,140.6c0.8-0.3,1.5-0.6,2.3-0.9c1.5-0.6,3.1-1.2,4.6-1.8
		c0.6-0.2,1.3-0.4,2-0.6c0.4-0.1,0.8-0.2,1.2-0.3c0.1,0,0.2-0.1,0.3-0.1c0.4,0,0.6,0.3,0.9,0.8c0.1,0.1,0.1,0.2,0.2,0.3
		c0,0.1,0.1,0.1,0,0.1c0,0-0.1,0.1-0.2,0.1c-2,0.6-4,1.5-5.9,2.3c-1,0.4-1.9,0.9-2.9,1.3c-0.9,0.4-1.9,0.8-2.9,1.1
		c-0.4,0.1-0.7,0.3-1.1,0.4C184.7,141.5,184.9,141.4,186.9,140.6z M196.9,135.3c-2.3,0.6-4.6,1.5-6.8,2.3l-1.1,0.4
		c-0.4,0.2-0.8,0.3-1.2,0.4c-1,0.3-2,0.7-2.9,1.3c-1.6,1.1-1.7,1.4-1,3.2c0.1,0.2,0.2,0.5,0.3,0.7l0.1,0.1c-1,0.3-2,0.7-2.9,1.2
		c-0.6,0.3-1.2,0.5-1.7,0.8c-1.6,0.6-3.3,0.8-5,1c-0.6,0.1-1.1,0.1-1.7,0.2c-0.2,0-0.3,0-0.3-0.1c-0.1-0.1-0.1-0.4-0.1-0.6
		c0.1-1.6,0.1-3,0-4.2c0-0.5-0.1-0.9-0.2-1.3c-0.1-0.6-0.3-1.3-0.2-1.9c0.1-2.3,0.8-4,2.3-5.3c1.9-1.7,4.1-2.6,6.8-3.7
		c1.7-0.6,3.4-1.2,5-1.8c2.5-0.9,5.2-1.8,7.7-2.9c0.6-0.3,1.3-0.5,2-0.7c0.8-0.2,1.7-0.5,2.5-0.9c0.1-0.1,0.3-0.1,0.5-0.1
		c1.3,0,3.2,1,3.9,1.7c1.3,1.4,2.1,3.2,2.8,4.9l0.3,0.7c0.1,0.3,0.3,0.6,0.4,0.9c0.2,0.4,0.4,0.9,0.6,1.3c0.4,0.8,0.3,1.4-0.6,1.9
		c-1.5,1-3.3,1.6-4.9,2.1l-0.3,0.1c-0.2,0.1-0.4,0.2-0.6,0.3c-0.4,0.2-0.7,0.4-1,0.3c-0.3-0.1-0.4-0.5-0.6-0.9
		c-0.1-0.2-0.2-0.5-0.3-0.7C198.4,135.3,197.8,135.1,196.9,135.3z"/>
	<path d="M204.5-7.5L204.5-7.5c0.2-0.1,0.3-0.1,0.4-0.1c0.9,0.2,2.1,0.1,3.1-0.1c0.4-0.1,0.8-0.1,1.2-0.2c1.8-0.2,3.6-0.4,5.4-0.6
		c2.3-0.3,4.6-0.6,6.9-0.7c0.2,0,0.7-0.1,0.8-0.6c0-0.4,0-0.7-0.2-0.9c-0.1-0.1-0.2-0.2-0.4-0.2c-0.8-0.1-0.9-0.6-1-1.2
		c0-0.1,0-0.3-0.1-0.4c-0.3-1.4-0.3-2.9-0.4-4.3c0-1.2-0.1-2.3-0.2-3.5c-0.3-2.1-0.5-4.4-0.5-6.6c0-2.5-0.2-5.2-0.5-7.8
		c-0.1-1.4-0.3-2.9-0.4-4.3c-0.2-2.2-0.3-4.4-0.6-6.4c0.2-1.7-0.4-2.9-0.9-4c-1.6-3-4.1-4.1-7.6-3.3c-2.4,0.6-4.9,1-7.8,1.3
		c-0.9,0.1-1.7,0.2-2.6,0.3c-2.6,0.3-5.3,0.6-8,0.8l-0.9,0.1c-3.6,0.3-7.2,0.6-10.8,1.2c-2,0.4-4.1,0.6-6,0.8
		c-0.9,0.1-1.9,0.2-2.8,0.3c-2.4,0.3-4.8,0.5-7.1,0.7c-1.2,0.1-2.4,0.2-3.7,0.3c-0.6,0.1-1.3,0.1-1.9,0.1c-1.3,0-2.6,0-3.8,0.4
		c-0.5,0.2-1,0.2-1.5,0.2c-0.7,0-1.3,0-2,0.4c-1,0.5-2.1,0.8-3.3,0.9c-1.1,0.1-2,0.6-3,1.2c-1.4,0.8-1.9,2-1.5,3.5
		c0.2,0.7,0.2,1.4,0.3,2.1c0,0.5,0.1,1.1,0.2,1.6c0.1,0.8,0.3,1.6,0.4,2.3c0.5,3,1.1,6.1,1.5,9.2c0.2,1.4,0.4,2.9,0.6,4.3
		c0.3,2.1,0.6,4.3,0.8,6.4c0.4,3.3,0.8,6.6,1.4,10.5c0,0.1,0.1,0.3,0.1,0.4c0.1,0.2,0.1,0.4,0.1,0.5c0,0-0.1,0.1-0.5,0.2
		c-0.1,0-0.2,0.1-0.2,0.2c-0.1,0.2-0.1,0.4,0,0.5c0.3,0.5,0.7,1.3,1.5,1.3c0.1,0,0.2,0,0.3,0c0.9-0.2,1.9-0.2,2.7-0.2l0.9,0
		c0.3,0,0.7,0,1,0c2.4-0.1,4.8-0.6,7.2-1c0.6-0.1,1.2-0.2,1.8-0.3c3-0.5,6.1-0.9,9-1.3c1.9-0.2,3.9-0.5,5.8-0.7
		c1.9-0.3,3.9-0.5,5.8-0.7c1.1-0.1,2.2-0.3,3.3-0.4c1.7-0.2,3.4-0.3,5.1-0.3c1.4,0,2.9-0.1,4.3-0.2c0.6-0.1,1.2-0.1,1.8-0.1
		C200.3-6.5,202.4-6.7,204.5-7.5z M203.4-8.7l-0.7,0.1c-0.7,0.2-1.5,0.2-2.2,0.2l-0.2,0c-1,0.1-2,0.1-2.9,0.1
		c-1.8,0-3.6,0.1-5.4,0.3c-1.1,0.1-2.2,0.2-3.2,0.3c-1,0.1-2,0.1-3,0.3c-0.8,0.1-1.7,0.2-2.5,0.4c-1.7,0.3-3.4,0.5-5.2,0.6
		c-0.7,0-1.4,0.2-2.1,0.4c-0.6,0.2-1.2,0.3-1.8,0.4L173-5.6c-1.3,0.1-2.7,0.2-4.1,0.4c-0.8,0.1-1.7,0.2-2.6,0.3
		c-1.7,0.2-3.5,0.4-5.2,0.8c-3.7,0.8-7.4,1-10.9,1.1l-0.1,0c-0.1,0-0.1,0-0.1,0c0,0,0,0-0.1-0.2c-0.7-3.5-1.1-7-1.5-10.4
		c-0.1-0.9-0.2-1.8-0.3-2.7c-0.4-3-0.8-6.1-1.2-9c-0.1-0.8-0.2-1.7-0.4-2.5c-0.4-2.6-0.7-4.8-1.3-7.1c-0.4-1.5-0.5-3-0.7-4.6
		c0-0.5-0.1-1-0.2-1.6c0-0.4,0.1-0.9,0.5-1.3c0.4-0.5,1-0.8,1.6-0.8c0,0,0.1,0,0.1,0c0.8,0,1.5-0.2,2.1-0.5c0.2-0.1,0.4-0.2,0.6-0.2
		c4.8-1.6,9.9-1.8,14.8-2c3.2-0.1,6.4-0.5,9.5-0.8l1.4-0.2c1.5-0.2,3-0.4,4.5-0.6c2.6-0.4,5.3-0.7,8-0.9c1.7-0.1,3.4-0.3,5.1-0.5
		c2.2-0.2,4.5-0.5,6.7-0.6c1.5-0.1,3-0.3,4.4-0.5c1.5-0.2,3-0.5,4.5-0.5c0.9,0,1.7-0.3,2.5-0.5c0.3-0.1,0.5-0.2,0.8-0.2
		c0.2-0.1,0.5-0.1,0.7-0.1c1.4,0,2.8,1.3,3.2,3.1c0.7,2.6,1,5,1.2,7.3c0.1,1.3,0.2,2.6,0.4,3.9c0.2,1.6,0.4,3.3,0.5,4.9
		c0,2.7,0.3,5.4,0.6,8.1c0.1,1.1,0.2,2.2,0.3,3.3c0.1,1.1,0.1,2.1,0.2,3.2c0,1.2,0.1,2.5,0.2,3.8c0.1,1.2,0.5,2.2,0.9,3
		c-1.1,0.2-2.2,0.3-3.2,0.4c-1.8,0.2-3.5,0.4-5.2,0.7c-1,0.2-2.2,0.2-3.4,0.2l-0.3,0C206.3-9.3,204.8-9,203.4-8.7z"/>
	<path d="M14.9-44c-3.6-0.8-7.4-0.9-11.1-1l-0.3,0c-0.9,0-1.8,0-2.8,0c-0.6,0-1.2,0-1.8,0c-1.1,0-2.6,0-4-0.4
		c-0.9-0.2-1.7-0.1-2.3,0.5c-2,1.9-2.6,4.1-1.8,6.7c0.7,2.2,2.1,3.6,4.2,4.2c1.3,0.3,2.6,0.6,3.9,0.9c0.5,0.1,1,0.2,1.5,0.3
		c0.4,0.1,0.9,0.2,1.3,0.3c0.8,0.2,1.7,0.3,2.5,0.5l0.5,0.1c2.9,0.8,6,1.6,9,2c0.4,0,0.8,0.1,1.1,0.1c1.4,0,2.4-0.4,3.2-1.1
		c1.2-1.1,2.6-2.9,2.3-5C20.5-40.1,18.3-43.2,14.9-44z M18.6-33.7c-0.7,1.8-2.4,2-4.2,2c-1.5,0-3-0.2-4.3-0.7
		c-0.7-0.3-1.4-0.4-2.1-0.4c-0.6-0.1-1.1-0.1-1.7-0.3c-1.2-0.4-2.5-0.6-3.7-0.8c-0.7-0.1-1.5-0.3-2.3-0.5c-0.4-0.1-0.8-0.2-1.2-0.3
		c-1.7-0.4-3.5-0.8-5.1-1.6c-1-0.5-2-2.2-2.1-3.8c-0.1-1.3,0.3-2.4,1.3-3.1c0.3-0.2,0.5-0.3,0.9-0.3c0.1,0,0.3,0,0.4,0
		c0.3,0,0.6,0,0.9,0c0.3,0,0.5,0,0.8,0c0.1,0,0.3,0,0.4,0c1.3-0.1,2.6-0.2,4-0.2c2.7,0,5.3,0.2,8,0.4C9.4-43,10-43,10.6-43
		c2.2,0.2,4.8,0.5,6.8,2.4C19.2-38.8,19.3-35.3,18.6-33.7z"/>
	<path d="M6.5-26.8C5.3-27,4.1-27.1,3-27.2c-1.9-0.2-3.6-0.4-5.3-0.8l-0.5,0c0,0-0.1,0-0.1,0c-0.1,0-0.2,0-0.3,0c-0.8,0-1,0.5-1,0.9
		c0,0.3,0,0.5,0.2,0.7c0.2,0.2,0.5,0.3,0.8,0.3c0.1,0,0.1,0,0.2,0l1,0.1c0.8,0.1,1.6,0.2,2.4,0.3c0.9,0.1,1.7,0.2,2.6,0.4
		C4-25.2,5-25.1,6.1-25l0.1,0c0.1,0,0.3,0,0.4,0c0.6,0,0.8-0.4,0.8-0.8C7.3-25.9,7.3-26.7,6.5-26.8z"/>
	<path d="M5.2-22.9c-0.3-0.2-0.7-0.3-1.1-0.3c-0.6-0.1-1.3-0.1-1.9-0.2c-1.9-0.2-3.9-0.4-5.9-0.8c-0.7-0.1-1.2,0.2-1.4,1
		c0,0.2,0,0.4,0.1,0.6c0.2,0.3,0.6,0.3,0.9,0.4c2.2,0.3,4.4,0.5,6.6,0.8l2.2,0.3c0.1,0.1,0.2,0.1,0.4,0.1c0.3,0,0.5-0.2,0.6-0.5
		C5.8-22.2,5.6-22.7,5.2-22.9z"/>
	<path d="M14.2,53.5c0-0.3,0-0.6,0-1c-0.5-3.2-2.8-5.2-5.2-7.1c-2.2-1.7-4.9-2.2-8.2-1.5c-0.5,0.1-0.9,0.2-1.3,0.4
		c-0.7,0.2-1.3,0.5-2.1,0.5c0,0,0,0,0,0c-0.2,0-0.6,0.1-0.7,0.3c-2.1,2.4-4.3,5.4-4.3,9.4c0,0.6,0.1,1.2,0.2,1.8
		c0,0.3,0.1,0.6,0.1,0.8c0.2,1.5,0.4,3.1,1.2,4.6c1.3,2.4,3.3,3.8,6.3,4.4c1,0.2,2,0.3,2.9,0.3c2.4,0,4.5-0.7,6.4-2.2
		c3-2.3,4.6-5.5,4.8-9.7l0,0l0,0C14.2,54.1,14.2,53.8,14.2,53.5z M12.9,54.9c-0.2,5.6-4.1,9.6-9.6,9.6c-5-0.1-7.5-1.8-8.8-5.8
		c-0.5-1.5-0.7-3.1-0.9-4.5c-0.3-2,0.7-3.5,1.7-5.1c0.1-0.2,0.2-0.4,0.3-0.5c1-1.6,2.5-2.2,4.5-2.6c1.1-0.2,2.1-0.3,3-0.3
		c1.9,0,3.6,0.5,5,1.5C10.5,48.8,13,51.1,12.9,54.9z"/>
	<path d="M136.3,102.3c0.6-0.9,1.2-1.8,1.8-2.7c1.3-2.1,0.9-3.5-1.4-5.1c-1.9-1.3-4-2.4-6-3.5c-0.5-0.3-1.1-0.6-1.6-0.9
		c-1.8-1-3.6-2.1-5.3-3.2c-0.9-0.6-1.8-1.1-2.8-1.7c-1.2-0.7-2.4-1.6-3.6-2.4c-0.9-0.6-1.9-1.3-2.9-1.9c-0.1-0.1-0.3-0.2-0.4-0.3
		c-1-0.7-2.1-1.4-3.5-1.4c-1.5,0-2.2,0.8-3,2.1c-0.4,0.7-0.8,1.3-1.2,1.9c-0.3,0.5-0.7,1-1,1.5c-0.6,0.9-1.1,1.8-1.7,2.8
		c-1,1.7-2.1,3.4-3.1,5.1c-0.1,0.1-0.2,0.3-0.3,0.4c-0.4,0.6-0.9,1.3-0.4,2.2c0.8,1.5,1.7,2.5,2.9,2.9c1.3,0.5,2.4,1.3,3.5,2
		c0.5,0.4,1,0.7,1.6,1.1c0.8,0.5,1.5,1,2.3,1.5c0.9,0.7,1.9,1.3,2.9,1.9c1.3,0.8,2.6,1.7,3.8,2.6c1.1,0.8,2.2,1.6,3.4,2.3
		c1.2,0.7,2.3,1.5,3.4,2.3c0.8,0.5,1.5,1.1,2.3,1.6c0.5,0.3,1,0.5,1.4,0.5c0.6,0,1.2-0.3,1.8-1c1-1.1,1.9-2.3,2.6-3.6
		c0.4-0.8,0.9-1.6,1.4-2.4c0.3-0.5,0.6-1,0.9-1.5C134.7,104.5,135.5,103.4,136.3,102.3z M137.1,97.7c-0.1,1.1-0.7,2-1.3,2.9
		l-0.2,0.3c-2.1,3.2-4.1,6.5-5.6,8.9l-0.2,0.4c-0.3,0.6-0.7,1.1-1.1,1.7c-0.4,0.6-0.7,0.9-1,0.9c-0.2,0-0.5-0.2-1-0.5
		c-0.4-0.3-0.9-0.5-1.3-0.7c-0.4-0.1-0.8-0.3-1.1-0.5c-0.3-0.2-0.6-0.5-0.8-0.8c-0.2-0.2-0.4-0.5-0.7-0.7l-0.3-0.3
		c-0.7-0.6-1.5-1.3-2.5-1.6c-0.6-0.2-1.1-0.6-1.6-1.1c-0.3-0.2-0.5-0.4-0.8-0.6c-0.9-0.6-1.8-1.2-2.8-1.8c-1.6-1.1-3.3-2.2-4.8-3.3
		c-1.2-0.9-2.5-1.7-3.8-2.4c-0.8-0.5-1.7-1-2.5-1.6c-0.6-0.4-1.1-0.9-1.6-1.6c-0.4-0.6-0.4-1.2,0-1.8c1-1.6,1.9-3.2,2.9-4.8
		c1-1.6,2-3.3,3-4.9c0.1-0.2,0.3-0.4,0.4-0.7c0.4-0.8,0.8-1.5,1.5-2c0.3-0.2,0.5-0.3,0.7-0.3c0.2,0,0.4,0.1,0.6,0.2
		c1.7,0.9,3.3,1.9,4.8,3c0.8,0.5,1.5,1,2.3,1.5l1.7,1.1c4.5,2.8,9.1,5.7,13.9,8.1c1.1,0.5,2,1.1,2.6,1.9
		C136.9,96.8,137,97.2,137.1,97.7z"/>
	<path d="M140.4,104.1c-0.2,0-0.4,0-0.6,0.1c-0.7,0.3-1.1,0.8-1.5,1.3l-0.1,0.2c-0.6,0.8-1.2,1.6-1.8,2.5c-0.6,0.9-1.3,1.7-1.9,2.6
		c0,0.1-0.1,0.1-0.1,0.2c-0.2,0.3-0.7,0.8-0.2,1.3c0.3,0.3,0.7,0.5,1.1,0.7c0.4,0.2,0.7,0.3,0.9,0.6l0.1,0.1l0.2,0
		c0.7,0,1-0.4,1.1-0.7l0.3-0.5c1-2,2.1-4.1,3.6-5.8c0.4-0.5,0.8-1,0.2-1.7C141.3,104.4,140.9,104.1,140.4,104.1z M140,105.7
		C140,105.7,140,105.7,140,105.7C140,105.8,140,105.8,140,105.7c-0.9,1-1.5,2.1-2.1,3.2c-0.4,0.8-0.9,1.7-1.5,2.4
		c-0.2,0.2-0.3,0.3-0.4,0.2c0,0-0.1-0.1-0.1-0.1c0,0,0-0.1,0.1-0.1c0-0.1,0.1-0.1,0.1-0.2c0.4-1.1,1.2-2.1,2-3
		c0.6-0.7,1.2-1.5,1.7-2.3c0.1-0.1,0.1-0.2,0.1-0.2L140,105.7C140,105.7,140,105.7,140,105.7C140,105.7,140,105.7,140,105.7z"/>
	<path d="M24.6,128.8c-0.8-0.9-1.8-1.4-2.7-1.3c-1.8,0.1-3.6,0.3-5,1.6c-0.3,0.2-0.6,0.4-0.9,0.7c-0.7,0.5-1.5,0.9-1.7,1.8
		c-0.1,0.5-0.3,1-0.5,1.4c-0.3,0.6-0.6,1.3-0.7,2c-0.4,2.1,0.4,3.5,2.5,4.3c0.4,0.1,0.7,0.2,1.1,0.3c0.3,0.1,0.6,0.1,0.9,0.2
		c1.1,0.4,2.2,0.7,3.3,1c0.7,0.2,1.4,0.3,2.1,0.6c0.2,0,0.3,0.1,0.5,0.2c0.5,0.2,1.1,0.4,1.7,0.4c0.3,0,0.7-0.1,1-0.2
		c1.3-0.6,2.8-2.8,2.7-4.2c-0.1-0.9-0.2-1.7-0.4-2.4C27.8,132.6,26.3,130.8,24.6,128.8z M26.8,137.1c0.1,1.3-0.5,2.4-2,3.3
		c-0.2,0.1-0.5,0.1-0.8,0c-0.8-0.2-1.5-0.5-2.3-0.7c-1.6-0.5-3.2-1-4.9-1.4c-0.5-0.1-0.9-0.3-1.4-0.5c-0.2-0.1-0.5-0.2-0.7-0.3
		c-0.4-0.2-0.6-0.5-0.4-1.1c0.4-1.2,1-2.4,1.6-3.5c0.2-0.3,0.4-0.7,0.5-1c0.4-0.9,1.4-1.5,2.7-1.9c0.1,0,0.3-0.1,0.4-0.1
		c0.3-0.1,0.6-0.1,0.8-0.3c0.4-0.3,0.9-0.4,1.3-0.4c0.8,0,1.6,0.5,2.2,1c0.7,0.6,1.3,1.2,1.5,1.9c0.2,0.4,0.4,0.8,0.5,1.1
		c0.4,0.8,0.8,1.6,0.9,2.4C26.8,136.1,26.8,136.6,26.8,137.1z"/>
</g>
</svg>
