<?xml version="1.0" standalone="no"?>
<!DOCTYPE svg PUBLIC "-//W3C//DTD SVG 20010904//EN"
 "http://www.w3.org/TR/2001/REC-SVG-20010904/DTD/svg10.dtd">
<svg version="1.0" xmlns="http://www.w3.org/2000/svg"
 viewBox="0 0 131.000000 131.000000"
 preserveAspectRatio="xMidYMid meet">
<metadata>
Created by potrace 1.12, written by Peter Selinger 2001-2015
</metadata>
<g transform="translate(0.000000,131.000000) scale(0.100000,-0.100000)"
fill="#000000" stroke="none">
<path d="M853 1177 c-4 -8 -59 -68 -120 -132 l-113 -117 -24 18 c-13 11 -60
51 -104 91 -44 39 -91 77 -104 83 -12 7 9 -16 47 -51 161 -146 163 -148 135
-149 -253 -6 -298 -14 -332 -61 -17 -22 -19 -49 -21 -229 -2 -231 5 -263 65
-300 32 -20 43 -21 383 -16 394 4 434 10 454 66 16 48 24 258 12 348 -16 122
-63 193 -128 192 -13 -1 -9 -6 12 -17 81 -42 96 -90 95 -301 0 -189 -10 -236
-54 -253 -22 -9 -130 -14 -376 -16 -316 -4 -348 -2 -379 14 -24 13 -39 30 -49
58 -32 91 -17 411 22 453 27 30 108 41 321 42 175 0 333 4 373 9 6 0 12 5 12
10 0 5 -66 8 -149 8 -82 -1 -152 1 -156 5 -11 11 11 41 85 113 70 69 117 131
107 141 -3 3 -9 -1 -14 -9z"/>
<path d="M569 866 c-3 -3 -49 -6 -104 -7 -117 -2 -161 -12 -176 -41 -8 -15
-10 -69 -5 -180 8 -201 13 -236 40 -251 55 -31 189 -38 421 -23 118 8 147 13
157 29 23 35 -1 400 -29 447 l-17 30 -141 0 c-78 0 -144 -2 -146 -4z m272 -21
c9 -3 22 -18 28 -32 14 -31 25 -352 12 -385 -7 -20 -18 -24 -92 -34 -46 -6
-127 -12 -178 -13 -52 -1 -98 -4 -102 -7 -13 -8 -164 17 -177 30 -14 14 -32
189 -32 318 0 56 4 81 16 92 8 9 16 16 17 16 1 1 47 3 102 6 55 4 129 10 165
14 69 8 215 5 241 -5z"/>
<path d="M936 628 c-8 -31 -6 -177 3 -208 7 -23 11 -25 57 -22 77 6 77 6 75
123 -1 57 -7 109 -13 116 -6 8 -33 13 -63 13 -46 0 -53 -3 -59 -22z m111 -12
c4 -8 7 -53 5 -100 l-3 -85 -35 -7 c-61 -11 -65 -5 -63 100 2 102 0 99 61 104
15 1 30 -4 35 -12z"/>
</g>
</svg>
