<?xml version="1.0" encoding="utf-8"?>
<!-- Generator: Adobe Illustrator 18.1.1, SVG Export Plug-In . SVG Version: 6.00 Build 0)  -->
<svg version="1.1" id="Ebene_1" xmlns="http://www.w3.org/2000/svg" xmlns:xlink="http://www.w3.org/1999/xlink" x="0px" y="0px"
	 width="250px" height="250px" viewBox="-172 295.9 250 250" style="enable-background:new -172 295.9 250 250;"
	 xml:space="preserve">
<g>
	<path d="M22.2,341.3c10.4,0,20.9-0.8,30.4,5.4c6.1,4,10.6,9.2,13.7,15.5c5.2,10.4,10.6,20.9,7.9,33.2c-2.7,12.1-8.9,22.5-16.7,31.9
		c-2.2,2.7-5.6,4.3-9,5.2c-2.7,0.7-3.6,2.1-3,4.7c3.4,14.2,4.3,28.9,7.7,43.2c0.8,3.2,3,5.9,2.3,9.5c-1.3,6.8-4.2,9.4-12.8,10.9
		c-7.9,1.3-13.1-0.4-15.8-6.2c-4.6-9.8-9.5-19.5-12-30.1c-1.5-6.2-3.3-12.2-5.5-18.1c-0.5-1.2-1.2-2.6-1.1-3.8
		c0.9-8.6-4.8-11.6-11.2-15.6c-13.1-8.2-23.7-19-24.4-36c-0.1-2.2-0.9-2.7-3.1-2.7c-19.9-0.4-39.9-1.1-59.8-1.5
		c-2.8-0.1-4.4-1.1-5-3.7c-1.6-6.8-3-13.6-4.7-20.4c-0.5-2.3,0.6-3.1,2.5-3.4c3.7-0.7,7.5-1.6,11.3-1.9c17.7-1.7,35-6.3,52.5-9
		C-15.1,345.4,3.2,340.7,22.2,341.3z M14.7,345.2c-3.3,0.2-6.6,0.4-10,0.8c-32.7,3.8-64.8,12-97.5,15.7c-3.2,0.4-3.4,1.9-2.8,4.4
		c1,4.2,2.1,8.4,2.8,12.7c0.4,2.5,1.7,3.4,4,3.5c5.5,0.2,11,0.7,16.5,0.8c14.8,0.3,29.6,0.6,44.4,0.8c3.4,0,5,1.1,4.5,4.6
		c-2.1,17.2,10.9,29.1,24.9,36.2c7,3.5,9.9,7,9.9,14.1c0,1.3,0.2,2.7,0.6,3.9c4.8,13.5,7.7,27.6,13.4,40.7
		c3.6,8.2,7.7,14.5,17.9,13.7c6.6-0.5,10.1-5.2,7.7-11.3c-1.2-2.9-2.7-5.8-3.2-8.9c-2.2-13.6-4-27.3-6-40.9c-0.4-3,0.2-5.2,3.3-6.4
		c14.9-5.8,20.6-19.1,24.9-32.5c5.1-15.8-3.2-28.7-12.4-40.8c-4.8-6.3-11.8-9-19.5-9.9C30.4,345.5,22.6,345.2,14.7,345.2z"/>
	<path d="M-172.3,380.7c11.8-2.1,23.2-2.9,34.6-3.6c7.5-0.4,14.9-0.8,22.4-1.1c1.7-0.1,3.6-0.2,3.6,2.2c0,2.4-1.9,2.3-3.6,2.4
		c-17.4,0.7-34.9,1.3-52.3,1.9C-168.9,382.6-170.6,383.1-172.3,380.7z"/>
	<path d="M-154.1,413.2c4.6-5.9,11.3-9,17.3-12.9c6.5-4.3,13.4-8,20.2-11.8c1-0.6,2.1-1,3.2-1.3c1.3-0.4,2.9-1.6,3.9,0.4
		c1,1.9-0.4,3.2-1.9,4.1c-4.8,2.7-9.7,5.2-14.5,7.8c-9.2,5-18.4,9.9-27.5,14.9C-153.6,413.9-153.8,413.5-154.1,413.2z"/>
	<path d="M-149,361.1c3.6-1.1,7-0.1,10.3,0.2c9.4,1,18.7,2.5,28,3.7c2.1,0.3,4.6,0.5,4.3,3c-0.4,3-2.9,1-4.4,0.9
		c-11.4-0.9-22.5-3.6-33.8-5.3C-146.3,363.3-148.1,363.2-149,361.1z"/>
	<path d="M26.5,417.9c-15.7-0.2-29-14.3-28.8-30.3c0.1-12,12.9-26.8,27.6-27.2c20.5-0.5,28.2,17,27.9,33.5
		C52.9,410,38.9,417.5,26.5,417.9z M48.9,388.6c1.5-13.6-9.5-23.6-19.4-23.7c-19.7-0.2-28.2,13.9-28.2,24.7
		c0,13.3,10.7,23.9,23.8,23.5C39.5,412.7,50.4,405.8,48.9,388.6z"/>
</g>
</svg>
