<?xml version="1.0" standalone="no"?>
<!DOCTYPE svg PUBLIC "-//W3C//DTD SVG 20010904//EN"
 "http://www.w3.org/TR/2001/REC-SVG-20010904/DTD/svg10.dtd">
<svg version="1.0" xmlns="http://www.w3.org/2000/svg"
 viewBox="0 0 130.000000 130.000000"
 preserveAspectRatio="xMidYMid meet">
<metadata>
Created by potrace 1.12, written by Peter Selinger 2001-2015
</metadata>
<g transform="translate(0.000000,130.000000) scale(0.100000,-0.100000)"
fill="#000000" stroke="none">
<path d="M724 1099 c-38 -4 -130 -29 -205 -55 -93 -33 -151 -48 -191 -49 -32
-1 -60 -4 -64 -8 -7 -7 -8 -146 -1 -153 3 -3 15 0 28 6 17 10 33 9 78 -3 31
-9 103 -29 161 -46 141 -39 300 -62 300 -43 0 5 -48 16 -107 24 -120 18 -309
62 -364 85 -20 8 -46 12 -57 9 -19 -6 -20 -2 -24 54 -3 64 0 68 47 50 21 -8
42 -4 107 21 206 80 439 111 572 77 57 -14 111 -60 122 -102 8 -34 -9 -94 -36
-129 -11 -14 -45 -37 -75 -51 -30 -14 -55 -28 -55 -31 0 -3 5 -3 10 0 18 11
11 -40 -19 -136 -16 -52 -43 -141 -61 -199 -26 -84 -31 -116 -27 -162 5 -61 1
-68 -41 -60 -27 5 -64 52 -81 102 -19 58 -4 162 40 274 36 91 49 156 32 156
-5 0 -17 -28 -27 -63 -10 -34 -23 -67 -28 -73 -25 -33 -52 -166 -50 -242 2
-71 82 -182 130 -182 8 0 36 -17 61 -38 83 -70 136 -92 221 -92 85 1 173 27
178 53 3 15 -2 15 -45 -4 -59 -26 -179 -33 -234 -14 -21 8 -60 31 -88 51 -39
29 -48 41 -39 51 6 8 8 36 4 76 -5 44 -3 76 7 107 8 25 29 97 46 160 18 63 37
124 42 135 5 11 12 38 17 59 4 23 16 44 27 50 104 57 137 125 106 218 -15 46
-89 103 -152 117 -51 12 -163 12 -265 0z"/>
<path d="M66 1001 c-3 -5 12 -11 35 -15 22 -3 58 -12 79 -20 45 -15 55 -4 13
12 -29 11 -103 32 -115 32 -4 0 -9 -4 -12 -9z"/>
<path d="M93 909 c-18 -5 -35 -15 -39 -21 -5 -8 -2 -9 12 -3 10 4 47 10 81 13
35 2 60 8 57 13 -7 11 -69 10 -111 -2z"/>
<path d="M129 818 c-50 -37 -89 -72 -73 -67 21 8 133 84 133 92 2 14 -15 7
-60 -25z"/>
</g>
</svg>
