<?xml version="1.0" encoding="utf-8"?>
<!-- Generator: Adobe Illustrator 18.1.1, SVG Export Plug-In . SVG Version: 6.00 Build 0)  -->
<svg version="1.1" id="Ebene_1" xmlns="http://www.w3.org/2000/svg" xmlns:xlink="http://www.w3.org/1999/xlink" x="0px" y="0px"
	 width="250px" height="250px" viewBox="-18 -60 250 250" style="enable-background:new -18 -60 250 250;" xml:space="preserve">
<g>
	<path d="M84.4,187.9c-2.4-2.1,0.3-6.3-3.4-6.6c-4.5-0.4-9.1-0.1-13.6,0.2c-1.3,0.1-0.9,1.9-1,3.1c0,1.5,0.7,2,2.2,2
		c3.4-0.1,6.7,0,10.1,0c1.3,0,3.1-0.5,3.4,1.2c0.4,2-1.7,1.7-2.9,1.8c-4,0.3-8,0.5-12,0.5c-2.9,0-3.6-2-3.4-4.5
		c0.2-3.1-0.4-4.4-4.2-3.8c-6.4,1.1-8.3-1-8.9-7.5c-1.8-22.6-2.6-45.2-3.2-67.8c-0.1-4-0.9-8-1.1-12c-0.3-6.2,2-8.7,8.2-8.5
		c13.9,0.4,27.8-1.2,41.7-1.6c17.6-0.6,35.1,0.5,52.7,1c4.3,0.1,8.7,0.2,13,0.3c3.9,0.1,6.2,2.1,7.3,5.8c0.9,3,0.6,5.9,0.5,9
		c-0.3,17.9-0.2,35.9-0.9,53.8c-0.3,7.4-0.4,14.8-0.8,22.1c-0.2,4-1.1,6.9-6.1,6.1c-2.3-0.4-4,0.3-3.8,3.2c0.4,4.1-2.4,4.8-5.5,4.7
		c-4.4-0.2-8.7-0.7-13.1-0.7c-3.3,0-2.8-2.5-2.9-4.2c-0.2-3-1.4-3.9-4.4-4c-13.9-0.3-27.9-0.3-41.8-0.1c-3.7,0.1-5.8,0.7-5.3,4.9
		C85.6,186.5,85,187,84.4,187.9z M62,151.1c-1.7,0.1-3.4,0.5-5,0.2c-3.8-0.8-4.2,0.8-3.8,4.1c0.8,6.6,1,13.3,2.1,19.9
		c0.5,2.9,1.7,3.5,3.8,3.2c9.5-1.5,19-0.9,28.6-0.5c13.9,0.6,27.8-2.3,41.6,0.1c0.6,0.1,1.3,0.1,2,0c9.3-1.2,18.6-0.7,27.9,0.6
		c2.9,0.4,4.6-0.2,5-3.8c1.2-13.4,1-26.8,1.4-40.2c0.4-11.7,0.9-23.3,1.2-35c0.3-8.9-1-9.8-9.6-10.7c-8.4-0.8-16.8-0.9-25.1-1.3
		c-26.1-1.3-52.2-0.1-78.3,1.8c-1.9,0.1-3.5-0.2-3.4,2.2c0.1,2.9,2.3,2.4,4,2.3c4-0.2,8.1-0.2,12-0.9c4.4-0.8,5.4,0.7,5.3,5
		c-0.3,13.6-1.1,27.2,0.2,40.8c0.3,3.6,2.6,8.2,1.1,10.4C70.9,152.3,65.8,150.5,62,151.1z M61,107.3c0-2.2-0.1-4.4,0-6.6
		c0.3-3.4-1.7-4.2-4.4-3.6c-2.4,0.5-6.8-1.8-6.3,3.7c0.8,8.5,1,17.1,1.1,25.7c0.1,6.2,0.5,12.4,0.9,18.5c0.2,4.4,3.7,3,6.1,3.2
		c2.4,0.3,3.1-0.9,3.1-3.3C61,132.4,60.1,119.9,61,107.3z M64.4,118.9c-0.5,8.7,0.3,17.5,0.8,26.2c0.1,0.9-0.3,2.3,1,2.5
		c1.7,0.2,1.7-1.3,1.7-2.4c0.1-1.2,0.1-2.4,0-3.5c-1.3-13.5-0.7-27-0.3-40.6c0-1.6,1.6-4.3-1.2-4.5c-3.1-0.2-1.9,3-2,4.7
		C64.3,107.1,64.4,113,64.4,118.9z M147.9,185.7c0,0.2,0,0.3,0,0.5c1.7,0,3.3,0,5,0c1.2,0,2.5,0.2,2.7-1.5c0.1-1.3-0.5-2.3-1.9-2.4
		c-3.8-0.3-7.6-0.6-11.5-0.7c-1,0-2.4,0.3-2.1,2.1c0.2,1.4,0.9,2,2.3,2C144.3,185.6,146.1,185.7,147.9,185.7z"/>
	<path d="M169.6-27.7c0,10.6-0.2,21.3,0,31.9c0.2,10.9,0.9,21.8,1.3,32.6c0.4,12.1,0.5,24.1,0.7,36.2c0,2.4-4.9,6.8-7.5,6.7
		c-20.4-0.5-40.9-1.3-61.3-1.3c-7,0-14.1,0.3-21.1,0.6c-9,0.4-18.1,0-27.1,0.7c-5.9,0.5-8-2.5-8.6-9.9c-0.6-9.1,0.2-18.1,0.4-27.1
		c0.5-28.7,3.3-57.3,2.4-86.1c-0.1-3.7-0.1-7.4,0.4-11c0.7-4.6,4.4-5.7,8.3-5.6c8.6,0.2,17.1,1.2,25.7,0.8c21.5-1,43-0.8,64.4-0.9
		c5.9,0,11.6,1.6,17.6,1.3c3.3-0.2,5,2.1,5.4,5.9C171.7-44.4,169.8-36,169.6-27.7z M67.1,42.8c-0.1,0-0.1,0-0.2,0
		c0,7.9-0.1,15.8,0,23.7c0,3.1-0.9,4.2-4.2,3.7c-3.5-0.5-7-0.3-10.6-0.1c-1.9,0.1-3,1-2.7,3.3c0.2,1.9,0.6,3.3,2.9,3.2
		c1,0,2,0.2,3,0.2c10.5-0.3,21.1-0.7,31.6-1c18.3-0.5,36.6-0.4,54.8,0.2c6,0.2,12.1,0,18.1-0.3c6.2-0.3,8.7-2.6,8-8.5
		c-1.5-13.5,0.8-26.9,0-40.3c-0.6-8.9-2.1-17.6-1.6-26.6c0.9-16.8,1.2-33.6,1.8-50.4c0.1-3.6-0.9-5.5-5-5.4
		c-3.8,0.1-7.7-0.8-11.5-0.8c-22.5-0.3-45-0.7-67.5,0c-8.6,0.3-17.1-0.9-25.7-1.1c-3.7-0.1-5.6,1.1-6.4,5.3
		c-1.3,7.2-0.2,14.4-0.5,21.6C51-18.3,51.3-6,51.1,6.3c0,3-1.8,7.1-0.4,8.8c1.9,2.4,5.7-0.3,8.8-0.5c6.1-0.6,7.7,1,7.7,7.1
		C67.1,28.7,67.1,35.7,67.1,42.8z M49.7,42.9c-0.2,0-0.3,0-0.5,0c0,6.6,0,13.1,0,19.7c0,2.3,0,5.1,3,4.3c2.5-0.7,7,0,6.6-4.9
		c-1-13.2-2.2-26.4-1.8-39.6c0.1-1.7,0.5-4.3-2.5-3.8c-2.1,0.3-4.9,0.2-4.9,3.8C49.8,29.2,49.7,36.1,49.7,42.9z M62.5,66
		c2.1-14.9,1.8-29.9,1.4-44.8c0-1.5,0.4-3.2-1.8-3.5c-1.7-0.2-1.7,1.1-1.8,2.3C59.7,35.4,61.3,50.7,62.5,66z"/>
</g>
</svg>
