<?xml version="1.0" encoding="utf-8"?>
<!-- Generator: Adobe Illustrator 18.1.1, SVG Export Plug-In . SVG Version: 6.00 Build 0)  -->
<svg version="1.1" id="Ebene_1" xmlns="http://www.w3.org/2000/svg" xmlns:xlink="http://www.w3.org/1999/xlink" x="0px" y="0px"
	 width="250px" height="250px" viewBox="-18 -60 250 250" style="enable-background:new -18 -60 250 250;" xml:space="preserve">
<g>
	<path d="M6.7,13.9C3.3,23.9,2.3,33,0.7,42c-1.5,8.5-0.7,17.3-2,25.9c-0.5,3.5-1.4,6.7-3.2,9.8c-1.9,3.3-4.4,6.1-8.1,5.1
		c-4.1-1.1-5.3-5.3-5.4-9.1c-0.2-7.4,1.5-14.7,3-21.9c2.6-12.3,5.1-24.6,8.1-36.8C-5.2,8.2-3.4,1.5,0.5-4.3c3.9-5.7,10.1-7,16.9-3.5
		c1.2,0.6,2.2,1.6,3.7,1.4c-0.7-7.9-4.2-14.9-6.5-22.3c-2.9-9.1-0.5-15.5,7.5-20.5c5.5-3.5,13.2-2,20.5,4c4.9,4,5.8,8,3.2,14.9
		c-1.6,4.1-3.4,8-4.8,12.1c-2,5.9-0.2,9.1,5.6,10.3C60.9-5,71.3,6.8,72.8,21.2c1.4,12.7-0.6,25.3-1.7,37.8c-0.7,8-0.9,15.9-1.9,23.9
		c-0.4,3.3,2.5,7.2,4.4,10.5c10,18.1,25.7,29.1,45.1,35.4c4.6,1.5,9,3.7,13.9,4c2.2,0.1,4.4,0.2,5.1-2.4c0.7-2.3,2.4-4.7-0.5-7
		c-3.2-2.6-6.1-5.7-9.1-8.6c-2.1-1.9-3.7-4.1-4.8-6.7c-0.9-2-1.1-4,0.5-5.8c1.8-2,4-1.7,6.2-0.9c3.3,1.3,5.9,4,7.8,6.7
		c4.7,6.7,11.3,9.4,19,10.3c10.9,1.2,21.7,2.4,32.1,6.2c3.1,1.1,4.5-0.3,4.7-3.5c0.2-5.6,1.3-10.7,5.2-15.3c2-2.4,2.2-6.4,3.1-9.8
		c0.8-2.7,2.1-4.5,5.4-4.7c3.5-0.2,4.9,1.8,5.4,4.5c1,5.4,5.1,6.9,9.4,8.2c3,0.9,6.5,1.2,8.4,3.7c2.9,3.7,0.5,8-0.2,12
		c-0.5,3-3.7,2.5-6.1,2.6c-10.7,0.3-17.5,9-15,19.5c2.5,10.5,2.7,21.3,2.9,32c0,3.1-2.6,3.9-5.9,1.8c-4.3-2.7-6.5-7.1-8.4-11.6
		c-0.6-1.4-1.1-2.9-1.8-4.3c-2.5-4.8-5.8-8-11.8-7c-8.8,1.4-16.1-3.1-23.9-6.2c-5.9-2.3-7.5-1.6-9.8,4.4c-1.4,3.6-2.9,7.1-4.2,10.6
		c-0.8,2.2-2.2,4-4,5.4c-2.4,1.8-5.2,3.5-8.1,2.2c-2.7-1.2-2.1-4.4-2.2-6.9c-0.5-8,1.9-15.5,3.3-23.2c0.4-2.2,0.7-3-2-3.1
		c-13.6-0.6-25.1-7.1-36.6-13.5c-13.3-7.3-21.6-18.9-28-32.2c-0.4-0.9-1.2-2-2.1-2.2c-6.2-1.5-6.6-6.5-7-11.4
		c-1.4-15.2-1.3-30.4-1.3-45.6c0-0.2,0.1-0.4,0-0.5c-0.5-2.1-0.3-5.5-2.7-5.6c-2.7-0.1-2.3,3.2-2.6,5.3c-1.6,10.4-0.1,20.7-0.3,31.1
		c-0.2,7.1-0.9,14.2-2.2,21.2c-0.6,3.3-0.7,6.6-0.6,9.8c0.2,11.8-1.2,23.5-1.8,35.3c-0.6,11-1.4,22.1-1.2,33.2
		c0.1,4.4-1.9,7.5-4.2,10.7c-1.6,2.4-3.5,2.3-5.9,1.1c-5.6-2.9-9.5-10.7-7-17.4c4-10.4,3.7-20.9,4.1-31.7
		c0.6-15.4,0.7-30.8,0.9-46.2c0-1.4,0.1-2.8-0.2-4.2c-0.3-1.4-1.2-2.8-2.6-2.9c-1.9-0.1-1.7,1.6-2,3c-4.6,22.5-7.3,45.2-7.4,68.1
		c-0.1,7.9-1.3,14.7-7.5,20.1c-4.1,3.5-7.4,3.3-10.4-1.2c-3.5-5.3-4.2-11.4-3.8-17.4c1-15.7,2.1-31.4,3.8-47
		c1-8.7,2.1-17.4,3.8-26.1c2.3-11.9,1.8-24.1,2.1-36.2C10.6,27.2,10.3,20.9,6.7,13.9z M65.5,85c0.3-1.6,0.5-2.2,0.6-2.9
		c1.4-14.3,3.1-28.6,4-43c0.5-7.6,1-15.3-0.9-22.9C66.5,5.7,57.5-3.3,48.9-4.6C37.4-6.3,36.1-13.2,39-20.6c1.8-4.7,3.5-9.4,5.3-14.1
		c1.2-3,0.2-5.3-2.3-7.3c-4.1-3.2-8.7-5.1-13.9-5.1c-5.4,0.1-11.4,5.5-11.9,10.5c-1.1,10,6.2,17.9,6.9,27.5c0,0.2,0.5,0.7,0.8,0.7
		c3-0.1,1.8,2.3,1.6,3.3c-0.9,4.5-3.4,4-6.9,2.2C9.7-7.3,4.7-6,1,1.8c-1.8,3.7-3.3,7.6-4.2,11.7c-4,17.7-7.7,35.5-11.4,53.3
		c-0.7,3.4-1.1,6.9,0.3,10.3c0.5,1.2,0.9,2.9,2.7,2.8c1.5-0.1,3.2-0.6,3.9-2.2c1.9-4.4,4.1-8.8,4.2-13.8c0.1-5.8,0.2-11.7,0.9-17.4
		c1.4-10.6,2.8-21.3,6-31.6c0.5-1.6,1-3.5,3.2-3.7c2.2-0.1,3.1,1.7,3.7,3.2c1.9,3.9,2.6,8.2,2.9,12.6c2,27.5-4.6,54.2-6.8,81.4
		c-1.1,13-1.8,26-2.6,39c-0.2,3.7,0.6,7.3,2.7,10.4c2.6,3.9,4.8,4.2,7.5,0.5c2.3-3.2,4.4-6.7,4.7-10.9c0.6-9.3,1.4-18.6,2.2-27.9
		c1.2-16.2,3.4-32.2,6.4-48.1c0.8-4.3,3.3-5.3,6.9-2.8c4,2.7,4.2,6.9,4.2,11.2c-0.3,15.1-0.6,30.2-1,45.4
		c-0.3,9.5,0.5,19.1-3.2,28.3c-1.3,3.2-1.5,6.9-0.8,10.3c0.7,3.2,2.7,6.6,5.9,6.4c3.1-0.2,3.8-4,4.2-7c2.1-16.6,0.5-33.4,3-50
		c1.6-10.5-0.1-21.3,1.3-32c1.3-9.9,1.7-19.8,1.6-29.8c-0.1-8.1,0-16.3,1.2-24.4c0.4-2.5,1.4-4.5,3.7-5.1c2.6-0.7,4.1,1.1,5.4,3.1
		c1.3,2.1,1.9,4.3,1.9,6.9c0.1,15.1,0.1,30.2,1.2,45.3C62.7,79.6,63,82.2,65.5,85z M207.1,171.9c1.2-1,0.9-2.3,0.9-3.4
		c-0.5-9.4-2.5-18.5-4.8-27.6c-1.4-5.4,1.2-11.9,6.3-14.6c0.9-0.5,2.3-0.9,2.5-1.6c1.5-5.5,5.6-5.4,9.9-5c2.7,0.3,5,0,5-3.5
		c0-3.2,1.9-7.4-3.2-8.5c-7.7-1.6-15.2-3.3-16.4-12.8c-2.1,0.7-1.5,2.3-2.1,3.3c-1.6,3.1-0.3,7.1-3.1,9.7c-3.2,3-3.8,6.8-4,10.9
		c-0.3,7.1-5.3,10.4-12.1,8.3c-7.6-2.4-15.4-4.2-23.4-4.8c-11.3-0.9-22.1-2.5-29.3-12.9c-1.5-2.1-3.5-4.7-7.1-5.1
		c-0.2,3.8,2,6,4.1,8.2c3.3,3.3,6.8,6.5,10.1,9.8c2.4,2.4,2.3,4.9,1.4,8.4c-1.2,4.3-4.1,7.7-4.6,12.3c-0.6,5.8-2.1,11.5-2.3,17.4
		c-0.1,2.3-0.8,5,1.7,5.8c2.3,0.7,4.1-1.3,5.1-3.5c2-4.6,3.9-9.3,6-13.8c2.9-6.4,8.2-7.9,14.7-5c7.2,3.2,14.2,7.5,22.6,6.2
		c7.9-1.2,12.4,2.8,15.2,9.5c0.9,2.1,1.7,4.2,2.5,6.3C203.8,168,204.7,170.5,207.1,171.9z"/>
</g>
</svg>
