<?xml version="1.0" standalone="no"?>
<!DOCTYPE svg PUBLIC "-//W3C//DTD SVG 20010904//EN"
 "http://www.w3.org/TR/2001/REC-SVG-20010904/DTD/svg10.dtd">
<svg version="1.0" xmlns="http://www.w3.org/2000/svg"
 width="130.000000pt" height="130.000000pt" viewBox="0 0 130.000000 130.000000"
 preserveAspectRatio="xMidYMid meet">
<metadata>
Created by potrace 1.12, written by Peter Selinger 2001-2015
</metadata>
<g transform="translate(0.000000,130.000000) scale(0.100000,-0.100000)"
fill="#000000" stroke="none">
<path d="M630 1261 c-59 -15 -63 -22 -46 -87 8 -32 20 -101 26 -153 12 -105
22 -120 80 -121 50 0 78 9 85 28 4 10 9 73 11 142 2 69 7 131 9 139 3 7 -6 24
-20 37 -20 19 -36 24 -73 23 -26 -1 -58 -4 -72 -8z m130 -21 c0 -6 -30 -10
-71 -10 -44 0 -68 4 -64 10 3 6 35 10 71 10 36 0 64 -4 64 -10z m-65 -30 l80
-5 -2 -95 c-2 -52 -5 -114 -9 -137 -5 -40 -7 -42 -42 -45 -62 -5 -92 9 -93 45
-2 57 -7 91 -23 167 -19 90 -19 93 -3 83 6 -4 48 -10 92 -13z"/>
<path d="M305 1131 c-36 -9 -81 -37 -88 -55 -3 -8 8 -40 25 -72 54 -105 53
-104 108 -104 44 0 52 3 76 35 14 19 32 35 39 35 18 0 75 67 75 89 0 26 -25
44 -50 36 -12 -4 -20 -2 -20 5 0 25 -106 45 -165 31z m137 -29 c28 -28 -26
-39 -126 -26 -87 12 -38 47 58 40 32 -2 63 -9 68 -14z m69 -35 c-1 -4 -1 -13
-1 -21 0 -8 -14 -25 -31 -37 l-31 -22 7 24 c11 36 35 71 46 67 6 -2 10 -7 10
-11z m-148 -12 c38 -2 71 -6 74 -9 7 -6 -15 -75 -33 -103 -11 -18 -24 -23 -54
-23 -38 0 -40 2 -74 67 -20 37 -36 71 -36 76 0 5 12 6 28 2 15 -4 58 -8 95
-10z"/>
<path d="M990 713 c-22 -107 -25 -112 -28 -45 -2 34 -7 62 -12 62 -6 0 -10 -6
-10 -12 0 -9 -2 -10 -8 -2 -7 11 -56 13 -67 3 -3 -4 -6 -48 -6 -98 -1 -75 2
-96 17 -112 16 -18 18 -42 18 -229 1 -153 4 -212 14 -221 10 -10 14 -11 25 0
9 9 12 68 12 226 0 117 4 217 8 221 4 4 7 -11 7 -32 0 -27 8 -51 24 -72 22
-30 24 -42 25 -169 2 -157 6 -183 31 -183 12 0 20 10 24 33 9 46 9 437 0 462
-6 18 -5 17 10 -2 47 -63 52 -108 42 -368 -3 -94 2 -125 24 -125 34 0 43 25
35 100 -5 52 -4 70 5 70 9 0 9 4 2 13 -6 7 -13 63 -16 125 -5 103 -4 117 16
155 25 49 30 135 10 183 -27 63 -122 39 -122 -31 0 -46 -20 -26 -21 23 -2 74
-3 77 -26 80 -19 3 -23 -4 -33 -55z m45 -53 c17 -184 20 -232 19 -272 0 -24
-2 -78 -2 -120 -3 -111 -22 -100 -22 12 0 78 -3 95 -22 121 -18 24 -22 41 -20
92 3 94 27 255 37 245 2 -2 6 -37 10 -78z m129 44 c10 -10 16 -35 17 -67 2
-70 1 -75 -24 -125 l-21 -43 -25 53 c-40 83 -29 198 19 198 10 0 26 -7 34 -16z
m-229 -170 c-10 -25 -13 -80 -10 -233 3 -122 0 -203 -5 -206 -6 -4 -10 70 -10
197 0 155 -3 208 -14 223 -16 25 -28 95 -15 95 5 0 9 -4 9 -9 0 -5 9 -7 20 -4
16 4 20 14 21 57 2 50 2 49 10 -18 6 -52 4 -78 -6 -102z m212 -336 c-2 -13 -4
-5 -4 17 -1 22 1 32 4 23 2 -10 2 -28 0 -40z m-105 -94 c-6 -35 -12 -29 -12
14 0 23 3 32 9 24 4 -7 6 -24 3 -38z m105 -11 c-3 -10 -5 -2 -5 17 0 19 2 27
5 18 2 -10 2 -26 0 -35z"/>
<path d="M349 727 c-103 -35 -172 -98 -198 -178 -17 -53 -20 -176 -5 -225 37
-122 171 -232 307 -250 128 -18 229 5 302 70 17 14 33 26 37 26 4 0 20 24 35
53 24 47 27 63 27 162 1 103 -1 113 -27 158 -38 64 -83 114 -121 135 -132 70
-249 87 -357 49z m264 -25 c20 -12 39 -22 42 -22 3 0 10 0 15 0 22 0 113 -96
137 -145 22 -41 26 -63 25 -125 -3 -134 -17 -177 -78 -236 -69 -68 -104 -79
-234 -78 -125 1 -184 23 -266 97 -72 65 -94 116 -94 217 0 212 121 325 340
316 54 -2 85 -9 113 -24z"/>
<path d="M387 640 c-44 -13 -127 -82 -133 -110 -3 -14 -10 -38 -16 -53 -15
-38 -3 -120 23 -166 31 -56 167 -138 234 -142 64 -4 142 21 185 59 47 43 60
79 55 160 -4 77 -30 126 -102 188 -47 42 -69 54 -113 62 -67 12 -97 12 -133 2z
m137 -25 c41 -7 41 -6 103 -60 68 -59 86 -96 85 -176 0 -85 -21 -124 -82 -158
-34 -19 -58 -24 -114 -25 -66 0 -76 3 -144 44 -86 53 -103 75 -109 149 -7 76
10 134 52 176 36 35 113 66 150 60 11 -2 37 -7 59 -10z"/>
</g>
</svg>
