<?xml version="1.0" encoding="utf-8"?>
<!-- Generator: Adobe Illustrator 18.1.1, SVG Export Plug-In . SVG Version: 6.00 Build 0)  -->
<svg version="1.1" id="Ebene_1" xmlns="http://www.w3.org/2000/svg" xmlns:xlink="http://www.w3.org/1999/xlink" x="0px" y="0px"
	 width="250px" height="250px" viewBox="0 0 250 250" style="enable-background:new 0 0 250 250;" xml:space="preserve">
<g>
	<path d="M90.2,232.6c0.3-4.9,1.1-12.3,1.1-19.9c0-3-0.9-4.1-3.8-4.7c-8.7-1.6-10.1-3.5-8-12.3c2.1-8.9,4.8-17.7,7.6-26.5
		c2.4-7.9,3.2-16,5.1-24c1.3-5.5,2.6-11,5.1-16c2.3-4.7,3.2-9.7,4.1-14.8c0.6-3.6-1.7-5.6-5.5-5.6c-14.4,0.1-28.8,1-43.2,1.8
		c-5.3,0.3-8.6-2.7-9.1-7.5c-0.8-7.4,1.1-10.8,6.8-12.3c18.3-4.9,36.8-8.8,55.8-10.3c2.3-0.2,5.6-0.3,5.4-3.4
		c-0.3-3.4,1.4-8.1-3-10.1c-10.8-4.7-14-13.8-14.7-24.4c-0.3-3.6-0.4-7.2-1.4-10.7c-0.9-3.5-3.4-4.6-6.3-3.4
		c-5.7,2.3-11.3,5-14.6,10.7c-2.7,4.7-5.8,9.2-8.4,14.1c-1.4,2.8-3.2,3.2-5.8,2.4c-1.9-0.6-4-1-5.8-1.9c-4-1.9-6.3-4.5-6.1-9.5
		C46.1,29.8,53,17.5,59.8,5.2c1.6-2.9,4.6-3.1,7.7-2.5c6.2,1.3,12.3,2.8,18.2,5c6.2,2.4,11.7,2.9,18.1-1.8
		c15.7-11.6,37.4-5.4,47.2,9.7c2.7,4.1,5.4,5.3,10,4.3c6.6-1.5,13.3-2.8,20-3.8c8.6-1.4,10.7-0.3,14.9,7.1c2.7,4.7,5.2,9.7,8.2,14.2
		c2.2,3.3,2.4,6.8,2.5,10.3c0.2,3.9-1.9,7.1-5.8,8c-4.4,1-9,1.5-12.1-3c-2.3-3.4-4.6-6.8-6.5-10.4c-1.8-3.5-4.5-4.7-8.3-4.8
		c-3.5-0.1-6.9,0.5-10.1,1.5c-3.8,1.2-6.2,3.5-7.9,7.7c-4,9.7-8.2,19.5-17.3,26c-3.2,2.3-2.1,6.9,1.7,8.7c5.7,2.6,11.7,4.7,17.2,7.6
		c10.2,5.3,21.2,8.4,31.9,12.2c0.8,0.3,1.5,0.7,2.3,1.1c3.9,2,7.5,4.4,6.5,9.6c-0.8,4.2-5.2,6.8-10.7,7.1c-6.6,0.4-12.4-1.9-18-4.9
		c-1.4-0.7-2.6-1.7-4.1-2.1c-3.9-1.1-8-3.1-11.5,0.5c-3.6,3.6-3.7,8.6-2,12.5c3,7,3.1,14.3,4.5,21.5c1.7,9.2,3.5,18.4,4.6,27.7
		c1.1,9.5,1.4,19,1.8,28.6c0.1,2.7-1.2,4.9-4.2,5.6c-3,0.8-4.7,3.3-7,5.1c-1,0.8-1,1.3-0.7,2.5c2.3,8.2,1.5,16.5,0.4,24.8
		c-0.9,6.5-11.1,11.4-16.5,8c-1.8-1.1-1.3-3-1.8-4.6c-2.4-8.8-1.8-18-3.4-26.9c-0.5-2.5,0-6.1-3.7-6.1c-7.4-0.1-9.6,2-10.5,7.3
		c-1.1,6.6-1.4,13.2-1.9,19.7c-0.5,7.2-4.5,9.8-11.9,9.1c-0.5,0-1-0.2-1.5-0.3C90.4,245.6,89.8,244.8,90.2,232.6z M156.9,23.2
		c-5.8,0.2-5.8,0.2-6.4-3.4c-0.1-0.3-0.3-0.6-0.5-0.9c-9-15.3-29-21.5-44.6-9.8c-3.4,2.6-6.2,3.8-10.4,3.7c-3.9-0.1-7.4-1-10.9-2.4
		c-4.9-2-10-3.5-15.2-4.6c-3.4-0.7-5.6,0.1-7.6,3.4c-4.5,7.7-7,16.3-10.7,24.4c-1.5,3.4-1.3,7.7-1.3,11.6c-0.1,4.4,3.4,5.9,6.9,7.2
		c3.7,1.4,3.5-2.4,4.8-4c1.7-2.1,3.1-4.5,4.4-6.9c4.2-7.6,10.3-12.9,18.6-15.3c4.2-1.2,8.8-1.1,11.3,3.6c2,3.8,3.4,8.2,3,12.3
		c-0.9,11,3.8,18.6,13,23.4c5.7,3,4.1,7.6,4,12c-0.2,4.4-3.7,5.4-7.3,5.7c-18.8,1.3-36.8,7.1-55.2,10.7c-5,1-6,4.3-5.6,8.8
		c0.4,4.4,3.3,5.1,6.9,4.8c13.6-1.1,27.2-1.9,40.9-1.2c8.8,0.4,11.6,3.6,9.9,12.1c-1.4,6.9-4.6,13-6.8,19.6
		c-3.1,9.6-3.2,19.8-5.9,29.5c-2.7,9.7-5.3,19.4-7.8,29.2c-1.6,6.4-0.6,8.2,4.9,9.3c7,1.4,7.7,2.8,6.8,10c-0.9,7.6-1.1,15.4-1.6,23
		c-0.2,3.2,1.1,5,4.5,5.7c6.6,1.4,7.8,0.6,9.4-6.2c1.7-7.4,0.9-15,2.6-22.4c0.9-4,2.8-5.6,6.2-6.4c2.1-0.5,4.3-1,6.5-1.3
		c6.9-1,9.3,1.2,9.9,8.2c0.8,8.6,0.1,17.3,2.6,25.7c0.8,2.6,0.8,4.4,4.1,4.2c3.4-0.2,6.6-1.1,7-4.6c0.9-6.4,2.2-12.7,0.5-19.3
		c-2-7.7-0.4-12.3,5.2-15c5.2-2.5,6.1-6.3,5.5-11.4c-1.8-14.4-2.4-29-5.8-43.1c-2.1-8.8-2.7-17.8-4.7-26.6
		c-3.1-13.4-1.3-15.6,6.2-18.1c3.9-1.3,7.9-0.7,11.8,0.9c6.7,2.8,12.6,7.5,20.5,6.7c5.7-0.5,8.9-4.7,6.4-9.1
		c-1.2-2.1-3.4-2.7-5.5-3.3c-9.2-2.8-18.2-5.8-27-9.8c-7.4-3.4-15-6.5-22.5-9.9c-6-2.7-6.7-7.9-2.2-12.6c1.8-1.9,4.4-2.4,5.8-4.9
		c4.1-7.3,8.8-14.3,11.4-22.3c1.3-3.9,4.3-6.3,8-7.4c3.4-1.1,7-1.8,10.5-2.2c6.3-0.7,11.8,0.5,15.1,6.9c1.6,3,3.5,5.9,5.2,8.8
		c1.6,2.7,4,3.4,7,2.6c2.9-0.8,3.4-3,3.4-5.6c-0.1-2.2-0.1-4.4-1.2-6.5c-2.8-5.1-5.2-10.4-8.3-15.3c-4.9-7.7-5.1-7.2-14.7-5.7
		C170.8,21,163.6,23.4,156.9,23.2z"/>
</g>
</svg>
