<?xml version="1.0" encoding="utf-8"?>
<!-- Generator: Adobe Illustrator 18.1.1, SVG Export Plug-In . SVG Version: 6.00 Build 0)  -->
<svg version="1.1" id="Ebene_1" xmlns="http://www.w3.org/2000/svg" xmlns:xlink="http://www.w3.org/1999/xlink" x="0px" y="0px"
	 width="250px" height="250px" viewBox="-172 295.9 250 250" style="enable-background:new -172 295.9 250 250;"
	 xml:space="preserve">
<g>
	<path d="M67,485.5c-0.2,1.7-1.4,1.9-2.3,1.8c-8.9-0.9-18-1.1-25.9-6.2c-7.4-4.8-7.9-12.2-7.6-19.9c0.2-5.9,1.8-11.5,3.9-16.9
		c7.7-19.5,16.1-38.7,26.4-57c2.9-5.1,2.9-10.6,0.6-15.8c-2.1-4.9-6.8-6.7-11.6-4.6c-17.9,8.1-35.3,17.2-51.9,27.8
		c-2.7,1.7-3.7,3.5-2.5,6.9c5.4,15,10.3,30.2,15.6,45.3c1.6,4.5,0.3,7.3-3.7,9.4c-3.1,1.6-6.2,3.2-9.6,4.2c-2.5,0.7-3.2,2.1-2.4,4.9
		c3.3,11.3,2.5,13.1-8.9,16.3c-11.5,3.3-23.3,5-35.4,5.7c-15.3,0.9-30.6,1.7-45.9,1.1c-13.8-0.5-27.5-1.3-41.3-3.2
		c-8.5-1.2-17.1-2.3-25.6-3.7c-1.6-0.3-3.3-0.5-4.9-0.8c-2-0.4-4.4-0.8-4.9-2.8c-0.5-2.2,2.2-2.6,3.6-3.6
		c7.3-5.4,14.6-10.9,19.5-18.4c4.7-7.1,5.8-15.8,7.2-24.2c1.7-10.3,2.8-20.7,6.2-30.7c1.6-4.7,4.7-7.2,9.4-7.8c5.4-0.7,9-2.7,9.1-9
		c0-2.3-0.1-5.6,2.7-6.6c4.6-1.7,9.4-3.9,14.4-3c3.4,0.7,4.5,4,3.8,7.2c-1.2,5.5,2,6.7,6.3,7c19.3,1.1,38.6,1.5,57.8,3.4
		c9,0.9,15.4-1.6,21.7-7.6c13.5-12.8,29.9-21,47.1-27.6c6.1-2.3,12.6-3.3,19.1-3c10.2,0.4,18.5,9.3,19.3,19.5
		c0.8,10.1-2.5,19-7.5,27.4c-7.2,12.2-13.1,25.1-18,38.4c-2.5,6.7-4.7,13.5-6.5,20.4c-2.7,10.3,3.2,16.7,14.4,16.3
		c2-0.1,5.8-2.1,5.9,0.7c0.1,2.7-4.1,2.7-6.7,2.7c-13.4,0-20.6-10.1-17.2-23.3c5.4-21.3,14.7-41,25.7-59.9
		c5.1-8.7,6.3-17.8,5.1-27.4c-0.7-5.7-6.9-10.9-12.9-11.4c-8.9-0.7-17.2,1.7-25.1,5.4c-9.9,4.6-20.3,8.5-29.1,15.3
		c-6.7,5.1-13.1,10.8-19.5,16.2c-1.4,1.2-2.8,2.1-4.9,2c-23.4-1.7-46.8-3.2-70.2-4.9c-6.3-0.5-8.7-3.3-8.2-9.7
		c0.3-3.7-1.2-4.8-4.7-4.2c-8.1,1.3-8.9,2-9.6,10.3c-0.3,3.5-1.5,5.8-5.1,6.1c-10.7,1-14.8,7.6-16,17.6c-1.2,9.6-3.4,19-4.8,28.5
		c-0.8,5.4-3,10.2-4.6,15.3c-0.9,2.9-0.9,4.1,2.6,4.6c28.1,3.8,56.3,5.8,84.7,4.7c18-0.7,36-2.4,52.9-8.8
		c13.7-5.2,12.2-3.4,7.5-16.2c-4.7-12.8-8.8-25.8-13-38.8c-1.3-4-0.3-6.5,3.3-8.7c17.1-10.7,34.7-20.5,53.2-28.5
		c10.4-4.5,20.2,3.3,19.7,15.3c-0.3,7.4-4.7,12.7-7.8,18.6c-7.7,14.8-13.6,30.3-19.9,45.6c-2.5,6.1-3.6,12.4-4.5,18.8
		c-1.3,9,3.9,18.9,14,20.2C55.4,483.3,61.2,484.5,67,485.5z M-165,477.6c23.6,5,46.8,6.6,70,7.7c18.1,0.9,36.2-0.4,54.3-2.2
		c10.7-1.1,21.3-3.5,31.4-7.5c4.9-1.9,3.3-5.2,2.4-8.6c-0.9-3.3-2.3-4.5-6.1-3.6c-17.9,4.4-36.2,4.5-54.5,5.2
		c-13.2,0.5-26.2-0.5-39.3-1.7c-12.7-1.2-25.5-1.7-37.9-5.1c-1.6-0.4-2.8,0-3.5,1C-152.6,468.7-158.8,472.7-165,477.6z"/>
	<path d="M-34.4,444.4c-14.9,0.9-29.8,1.7-44.8,2.6c-5.3,0.3-10.2-0.9-15.2-2.4c-3.8-1.2-5-4.2-3.4-7.5c1.8-3.5,2.5-7.2,3.2-10.9
		c2-11,7.3-16.2,21.1-17.1c13.9-0.9,27.9-0.3,41.8-1.1c8.2-0.5,13.1,4.8,15.6,10.8c2.3,5.4,3.2,11.2,3.1,17.1c-0.1,6-2,8-8,8.6
		c-2.3,0.2-4.7,0.2-7,0.2c-2.2,0-4.3,0-6.5,0C-34.4,444.6-34.4,444.5-34.4,444.4z M-49.3,412.6c0,0,0,0.1,0,0.1
		c-6.5,0-13-0.3-19.5,0.1c-12.7,0.7-21.4,4.5-22.4,17.7c-0.2,2.1-1,4.3-2,6.1c-1.9,3.6-0.2,4.6,2.9,5.3c5.1,1.1,10.2,1.5,15.4,0.9
		c3-0.3,6.1,0.1,5.7-4.7c-0.2-2.3,2.2-3,4.3-3.3c8.3-1.3,16.6-0.8,24.9-0.8c2.2,0,3.9,1,4.4,3.3c0.5,2.3,1.9,3.3,4.3,3
		c4.5-0.6,9.4,1.4,13.3-2.2c0.6-0.5,0.6-1.9,0.5-2.8c-0.4-4.3-0.7-8.6-1.5-12.9c-1.2-6.3-5.6-10.9-12.6-10
		C-37.3,413.2-43.3,412.6-49.3,412.6z M-51.3,437.6c0,0.1,0,0.2,0,0.2c-3.8,0-7.6-0.1-11.4,0.1c-1.5,0.1-3.7,0.4-3.5,2.7
		c0.2,2.1,2.2,1.6,3.6,1.5c7.1-0.3,14.2-0.7,21.3-1.1c1.1-0.1,3,0.6,2.9-1.5c-0.1-1.7-1.7-1.9-3-1.9
		C-44.7,437.6-48,437.6-51.3,437.6z"/>
</g>
</svg>
