<?xml version="1.0" encoding="utf-8"?>
<!-- Generator: Adobe Illustrator 18.1.1, SVG Export Plug-In . SVG Version: 6.00 Build 0)  -->
<svg version="1.1" id="Ebene_1" xmlns="http://www.w3.org/2000/svg" xmlns:xlink="http://www.w3.org/1999/xlink" x="0px" y="0px"
	 width="250px" height="250px" viewBox="-18 -60 250 250" style="enable-background:new -18 -60 250 250;" xml:space="preserve">
<g>
	<path d="M32.8-56.9c7.7-0.7,16.1-1.5,24.4-2c12.5-0.8,24.9-1.4,37.4-0.7c14.1,0.8,28.4-0.2,42.5,0.4c25.5,1,51.1-0.9,76.5,1.4
		c2.3,0.2,3.6,0,2.3,3.6c-2.7,7.5-3.7,15.3-3.7,23.6c0,7.6-0.4,15.4-1.4,23.2c-1.1,8.9-2.5,17.8-2.6,26.8
		c-0.3,18.7-2.4,37.1-8.6,54.8c-7.1,20.1-10.1,41-11.5,62.2c-0.8,11.4-1.9,22.8-3,34.2c-0.3,3.2,0,6.3-0.3,9.5
		c-0.6,6-4.5,7.8-9.1,8.7c-10.9,2-22,0.3-33,0.8c-9.5,0.4-19.1,0.7-28.6,0.5c-11.3-0.2-22.7,0.4-34-1c-7.6-0.9-15.3-0.2-22.9-1.3
		c-2.9-0.4-4.4-0.7-4.7-4.3c-1.6-16.8-5-33.2-10-49.3c-2.9-9.4-4.5-19.2-7.2-28.7c-2-7.1-6-13.5-7.3-20.8c-2-11-5.2-21.7-5.2-33.1
		c0-12.5-3.2-24.6-6.7-36.8C12.1,0.8,6.8-12.5,4.5-26.8c-1-5.9-5-11.5-7.1-17.5c-2-5.7-2.2-5.4,3.7-6.6c7.7-1.6,15.3-3.5,23-5.3
		C26.7-56.9,29.4-57.1,32.8-56.9z M148.5,185.3c6.5,0,13.1,0.1,19.6,0c3.2,0,6.5,0,9.6-1.5c1.8-0.9,2.9-1.5,2.8-4
		c-0.2-6.3,0.2-12.7,0.7-19c1-11.9,2-23.8,3.6-35.7c1.5-11.4,2.1-23,5.9-34.1c3.8-11.3,7.3-22.8,10.1-34.4
		c4.1-16.8,2.3-34.2,4.9-51.1c2.8-18.2,1.1-36.9,4.8-55.1c0.5-2.6,0.3-4.1-3.4-4.3c-14.6-0.8-29.1-1-43.7-1.1
		c-27.6-0.1-55.3-0.5-82.9-1.6c-9.9-0.4-19.9,1.2-29.8,1.8c-15.6,1-31.1,2.2-46.4,6c-3.2,0.8-3.3,1.7-2.4,4.5
		c1.8,6.2,5.5,11.8,6.5,18.3c1.1,7.3,3.9,14.1,6,21.1C18,7.2,22.6,18.8,24.6,31.2c1.7,10.7,2.2,21.4,3.2,32.1
		c1.3,13.2,6.4,25.5,9.9,38.1c7.1,25.8,15.4,51.4,18.5,78.2c0.3,2.3,1.2,2.8,3.5,3.4c9.2,2.2,18.6,1.5,27.8,2
		C107.8,186.1,128.1,185.5,148.5,185.3z"/>
	<path d="M32.2,17.4c-0.7-2.9,0.8-4.4,3.2-5.7c9.7-5.3,18.4-2.5,26.8,3.2c1.1,0.8,2.2,1.6,3.3,2.4c1.1,0.8,2.6,1.9,1.6,3.3
		c-1.1,1.6-2.8,1.4-4.5,0.1c-4.2-3.2-8.2-6.8-13.7-7.8c-1.7-0.3-3.4-0.5-5.1-0.4c-7.9,0.6-8.3,1.9-6.7,9.5c2.2,10,3.2,20.3,5.2,30.3
		c3.1,15.6,7.1,31,8.8,46.9c0.9,8.7,2.2,17.4,4.2,25.8c2.2,9.2,4.4,18.3,5.9,27.6c0.2,1,0.6,2,0.7,3c0.2,1.4-0.8,2.4-2,2.7
		c-1.7,0.5-1.7-1-2.1-2.2c-2.1-6.2-1.5-12.9-3.6-19.2c-5.2-15-6-30.8-8.2-46.3c-1.4-10-3.6-19.8-6-29.6c-2.8-11.1-3.5-22.6-5.6-33.8
		C33.8,23.9,31.4,20.9,32.2,17.4z"/>
	<path d="M91.9,137.5c-0.7-8.7-1.8-17.4-1.9-26.2c-0.4-21-5.1-41.4-6.7-62.3c-0.7-9.3-3.5-18.4-4.9-27.7c-0.3-1.8-0.4-3.2,0.9-4.1
		c10.7-6.7,22.1-10.3,34.9-8.1c1.6,0.3,4,0.4,3.2,2.9c-0.7,2-2.7,1.4-4.5,1c-10-2.4-19.3-0.2-28.2,4.5c-1.8,1-3,1.8-2.4,4.3
		c4.5,18.6,6.5,37.7,8.7,56.6c2.8,23.7,4.1,47.5,6,71.2c0.1,1.4,0.1,2.8-0.9,3.9c-0.6,0.6-1.4,1.2-2.1,1.2c-1.1,0-1-1.2-1.1-2
		c-0.5-5.1-0.9-10.2-1.4-15.3C91.6,137.5,91.7,137.5,91.9,137.5z"/>
	<path d="M168.9,156.4c-0.8-9,0.2-17.3,1.1-25.6c1.5-14.5,3.1-29,4.9-43.4c2-16.8,4.3-33.6,6.2-50.4c0.7-6.5,2-12.9,2.2-19.4
		c0.3-7.8,7-12.1,14.6-9.9c1,0.3,2,0.5,2.9,0.9c1.6,0.6,3.6,1.2,2.8,3.5c-0.9,2.4-2.6,1.3-4.3,0.7c-1.6-0.7-3.2-1.3-4.9-1.6
		c-5.5-1.1-7.5,0.8-7.7,6.4c-0.3,8.9-1.8,17.6-3.3,26.3c-1.2,7.1-1.5,14.4-2.4,21.7c-2.8,21-4.2,42.1-6.9,63.1
		c-0.8,6.4-2.2,13-1.3,19.8C173.1,151.1,172.7,154.4,168.9,156.4z"/>
	<path d="M141,150.9c1.7-20.4-0.5-39.7,1.6-58.8c2.5-22.3,4.2-44.7,3-67.2c-0.3-5.7,1.9-8.9,7.2-10.6c5.5-1.8,10.8-4,16.3-6.1
		c1-0.4,1.9-0.8,2.9-0.9c2.3-0.3,5.9-1.1,6.2,1.2c0.4,3.3-3.3,1.5-5.2,2c-7.7,1.9-14.9,4.9-22,8.4c-1.3,0.6-1.3,1.4-1.3,2.9
		c0.2,17.8-0.1,35.5-2,53.2c-1.9,17.5-3,35.1-2.6,52.8c0.2,7.4-0.3,14.8-0.5,22.2c0,2,0.4,5.1-2.1,4.9
		C140.6,154.6,141.1,151.5,141,150.9z"/>
</g>
</svg>
