<?xml version="1.0" standalone="no"?>
<!DOCTYPE svg PUBLIC "-//W3C//DTD SVG 20010904//EN"
 "http://www.w3.org/TR/2001/REC-SVG-20010904/DTD/svg10.dtd">
<svg version="1.0" xmlns="http://www.w3.org/2000/svg"
 width="130.000000pt" height="130.000000pt" viewBox="0 0 130.000000 130.000000"
 preserveAspectRatio="xMidYMid meet">
<metadata>
Created by potrace 1.12, written by Peter Selinger 2001-2015
</metadata>
<g transform="translate(0.000000,130.000000) scale(0.100000,-0.100000)"
fill="#000000" stroke="none">
<path d="M129 959 c-12 -7 -21 -509 -10 -575 5 -32 13 -42 41 -56 31 -15 77
-17 412 -17 207 0 399 -3 427 -7 72 -9 118 2 139 34 15 23 17 55 17 267 1 132
4 256 9 275 6 29 3 41 -12 60 l-20 25 -496 0 c-273 1 -501 -2 -507 -6z m289
-12 c60 -2 71 -5 66 -17 -16 -38 -15 -49 5 -60 12 -6 31 -8 41 -5 11 4 20 2
20 -3 0 -12 138 -13 146 0 3 5 -7 26 -23 46 l-30 37 211 2 c116 2 227 -1 246
-5 l35 -8 2 -279 c1 -222 -2 -284 -13 -302 l-13 -21 -453 0 c-285 -1 -463 3
-480 9 -35 14 -36 25 -40 339 l-3 265 35 6 c19 4 67 5 105 2 39 -2 103 -5 143
-6z m142 -7 c-20 -13 -33 -13 -25 0 3 6 14 10 23 10 15 0 15 -2 2 -10z m70 0
c0 -5 -5 -10 -11 -10 -6 0 -8 -9 -4 -21 5 -15 4 -19 -4 -15 -6 4 -11 14 -11
22 0 8 -6 14 -12 14 -9 0 -8 4 2 10 20 13 40 13 40 0z m-90 -30 c8 -5 12 -11
10 -14 -3 -2 -14 2 -24 10 -22 15 -10 19 14 4z m-24 -28 c-4 -3 -14 2 -24 12
-16 18 -16 18 6 6 13 -6 21 -14 18 -18z m159 -2 c3 -5 -3 -10 -15 -10 -12 0
-18 5 -15 10 3 6 10 10 15 10 5 0 12 -4 15 -10z m-78 -6 c-3 -3 -12 -4 -19 -1
-8 3 -5 6 6 6 11 1 17 -2 13 -5z"/>
<path d="M720 915 c-25 -30 19 -79 52 -59 9 6 5 10 -12 14 -32 8 -40 40 -10
40 12 0 18 5 15 10 -9 14 -31 12 -45 -5z"/>
<path d="M807 923 c-21 -3 -27 -9 -23 -20 3 -8 6 -26 6 -39 0 -13 5 -24 10
-24 6 0 10 9 10 20 0 27 26 25 35 -2 6 -18 8 -19 12 -7 2 9 14 21 26 27 l22
11 -22 0 c-29 1 -31 21 -2 21 11 0 17 5 14 10 -6 10 -34 11 -88 3z"/>
<path d="M917 923 c-9 -9 -8 -55 1 -70 6 -9 13 -7 26 9 l19 21 18 -24 c13 -17
19 -19 19 -9 0 9 10 24 22 34 21 18 22 18 35 0 13 -17 12 -19 -7 -22 -17 -3
-19 -6 -9 -18 15 -18 33 -18 49 1 10 13 10 19 -2 33 -9 9 -14 22 -11 28 2 8
-13 13 -43 16 -39 3 -48 0 -52 -14 -5 -19 -42 -25 -42 -7 0 6 7 9 15 5 8 -3
15 -1 15 3 0 16 -41 27 -53 14z"/>
<path d="M370 803 c-107 -2 -197 -7 -200 -12 -3 -5 -4 -52 -2 -105 l3 -96 87
-1 c48 0 105 -2 127 -4 94 -8 343 -14 373 -8 l32 5 -2 112 -3 111 -110 0 c-60
1 -198 -1 -305 -2z m280 -27 c0 -8 12 -24 27 -35 32 -26 25 -35 -22 -27 -32 6
-35 10 -35 41 0 24 5 35 15 35 8 0 15 -6 15 -14z m108 0 c2 -3 4 -43 5 -90 2
-69 -1 -87 -13 -90 -26 -6 -208 0 -387 14 l-173 13 0 76 0 76 170 0 c94 0 170
-2 170 -6 0 -3 -9 -18 -20 -32 -28 -35 -25 -57 15 -96 45 -45 59 -31 15 14
l-34 35 47 0 c44 0 47 -2 47 -26 0 -16 5 -24 13 -21 6 2 11 14 9 25 -3 19 1
22 37 22 39 0 53 -11 31 -25 -5 -3 -10 -10 -10 -16 0 -18 16 -9 39 22 l23 31
-43 44 -43 44 49 -6 c27 -2 51 -6 53 -8z m-158 -26 c0 -28 -2 -30 -40 -30
l-39 0 17 30 c24 42 62 42 62 0z"/>
<path d="M898 789 c-15 -8 -18 -25 -18 -108 0 -67 4 -102 13 -108 6 -6 55 -13
108 -17 124 -9 124 -9 115 121 -4 53 -9 99 -11 102 -18 17 -181 26 -207 10z
m183 -26 c4 -4 9 -48 11 -98 l3 -90 -65 3 c-35 1 -66 5 -68 7 -2 2 10 38 27
81 32 79 37 104 22 104 -4 0 -25 -43 -46 -95 -21 -53 -43 -94 -49 -92 -14 5
-15 136 -1 140 6 1 11 -8 13 -21 4 -23 28 -26 26 -4 -1 7 -2 26 -2 42 -2 34
-18 39 -38 13 -12 -16 -13 -16 -14 -2 0 9 3 19 8 23 9 10 161 1 173 -11z"/>
<path d="M1015 681 c-7 -12 12 -24 25 -16 14 8 1 -26 -18 -47 -14 -17 -12 -18
29 -18 36 1 41 3 29 13 -9 7 -14 24 -12 45 3 28 0 32 -22 32 -14 0 -27 -4 -31
-9z"/>
</g>
</svg>
