<?xml version="1.0" encoding="utf-8"?>
<!-- Generator: Adobe Illustrator 18.1.1, SVG Export Plug-In . SVG Version: 6.00 Build 0)  -->
<svg version="1.1" id="Ebene_1" xmlns="http://www.w3.org/2000/svg" xmlns:xlink="http://www.w3.org/1999/xlink" x="0px" y="0px"
	 width="250px" height="250px" viewBox="0 0 250 250" style="enable-background:new 0 0 250 250;" xml:space="preserve">
<g>
	<path d="M188.6,187.7c0.2-4.3,0.4-8.7-0.1-12.9c-1.4-12.6-0.9-25.2-1.1-37.7c-0.1-8.9,0.6-17.9,0.1-26.8
		c-0.8-12.4,0.8-24.6,0.9-36.9c0.1-9.5,0.2-19,0.4-28.6c0.1-3.9-0.4-8,0.1-11.8c0.9-6.3-0.3-12.4-1.6-18.4c-0.4-1.7-0.9-4-2.8-5
		c-5.9-3-11.6-6.3-18.5-6.8c-5.6-0.4-11.2,0.5-16.8,0.1c-6.6-0.5-13.2,0-19.8-0.2C118,2.4,106.6,3.2,95.1,3.3
		C89.1,3.3,83.2,3,77.3,6c-4.9,2.5-8.4,7.4-10.2,12.5c-0.6,1.7-1,3.4-1.2,5.2c-0.1,0.9-0.1,1.7-0.1,2.6c0,1-0.2,2-0.4,3
		c-0.1,0.8,0.1,1.7-0.1,2.5c-0.2,1.2-0.5,2-0.3,3.2c0.2,1.3,0.1,2.7,0,4c-0.2,2.6-0.8,5.2-0.8,7.9c0,5.7,0.2,11.6-0.8,17.2
		c-1.5,8.5-2,16.9-2.4,25.4c-0.7,12.8-0.7,25.7-0.2,38.6c0.5,12.5-0.1,25,0.7,37.5c0.7,11.6,0.4,23.2,0.1,34.8c0,2,0.1,4,0.2,6.1
		c0.1,2.1,0,4.3,0.2,6.4c0.2,2.5,0.5,5,1,7.5c0.2,1.2,0.7,2.4,0.8,3.7c0.1,0.9-0.1,1.6,0.2,2.5c1,3.8,3.6,7,6.7,9.3
		c0.3,0.2,0.6,0.4,0.8,0.6c2.7,1.9,5.7,3.2,8.3,5.2c4.5,3.4,9.5,5.4,15,4.7c6.9-0.9,13.8-0.8,20.7-1.1c10.1-0.4,20.3,0.8,30.5,0.7
		c7.8-0.1,15.5,0.6,23.4-1.7c14.3-4.2,19.9-13.9,19.6-26.4C188.8,207.7,188.1,197.7,188.6,187.7z M75.5,10.2
		C75.5,10.2,75.5,10.2,75.5,10.2C75.5,10.2,75.5,10.2,75.5,10.2C75.5,10.2,75.5,10.2,75.5,10.2z M73.5,10c0,0.2,0.1,0.4,0.1,0.4
		C73.6,10.4,73.5,10.2,73.5,10C73.5,10,73.5,10,73.5,10z M184.5,62.6c-0.4,20.7-2,41.3-2,62c0,21.2,0.5,42.4,0.7,63.5
		c0.1,7.4,0.4,14.9,0.7,22.3c0.2,5.5-0.8,10.9-1.1,16.4c-0.3,5.4-9.8,12.1-16.6,13.1c-13.7,1.9-27.5,1.3-41.3,1.5
		c-8.5,0.1-17.1-1.5-25.6,0.1c-9,1.7-16.1-2.2-23.3-6.5c-7.5-4.4-9.1-11.3-9.6-19.7c-0.7-12.1,0-24.1-0.2-36.2
		c-0.3-20.2-0.2-40.4-1.6-60.6c-0.9-12.3-0.4-24.5,0.3-36.7c0.5-9.2,2.7-18.3,2.7-27.5c0.1-9.6,1.4-19,2.4-28.5
		c0.6-5.5,2.2-10.9,5.5-15.6c0.1,0.1,0.3,0.2,0.3,0.2C81.5,7.1,88.7,6.9,95,7.7c0.3,0,0.6-0.1,0.9-0.1c2.7-0.7,5.1-0.4,7.8-0.5
		c2.6-0.1,5.3-0.5,7.9-0.5c3,0,6,0.2,9,0.5c2.9,0.3,5.7,0.4,8.6,0.5c1.7,0.1,3.4-0.2,5.1-0.1c1.8,0,3.7,0,5.4-0.6
		c3.1-1.2,7.1-0.4,10.2,0.3c3.6,0.8,7.4,0.2,10.9-0.5c0.8-0.2,1.6,0.1,2.4,0.2c0.9,0.1,1.9,0.2,2.8,0.3c1.9,0.1,3.8,0.2,5.7,0.6
		c2.2,0.5,4.5,0.7,6.6,1.7c5.3,2.5,6,8.3,6.3,13.5C185.4,36,184.8,49.3,184.5,62.6z"/>
	<path d="M79.1,58.9l0.2,0.1c0,0,0-0.1,0-0.1C79.2,58.9,79.1,58.9,79.1,58.9z"/>
	<path d="M171.6,107.3c0.2-5.1-0.1-10.2-0.2-15.2c-0.1-2.5-0.1-5.1,0-7.6c0-1.3,0.1-2.5,0-3.7c-0.1-1.4,0.2-2.8,0-4.2
		c-0.2-1.3-0.5-2.6-0.6-3.9c-0.1-1,0-2,0.4-3c0.3-0.9,0.3-1.7,0.3-2.6c0.1-1.9,0.2-3.9,0.4-5.8c0.2-1.9,0.8-3.9,0.7-5.8
		c-0.1-2.1-0.3-4.2-0.3-6.4c0-4.3,0.2-8.7-0.6-13c-1.1-6-3.7-11.8-9.1-13.4c-3-0.9-6.4-0.8-9.5-0.5c-0.8,0.1-1.7,0.2-2.5,0.2
		c-2.3,0.1-4.4-0.4-6.7-0.3c-2.4,0.1-4.7,0.5-7.1,0.5c-3.9,0-7.7-0.2-11.6-0.1c-6.7,0.1-13.5,0-20.2,0.1c-5.7,0.1-11.5,0-17.2,0.5
		c-3.3,0.3-5.5,3.1-6.6,6c-0.4,1.1-0.6,2.2-0.8,3.4c-0.2,1.3,0,2.6,0,3.9c0.1,1-0.1,2,0,2.9c0,0,0-0.1-0.1-0.1c0,0.9,0,1.9-0.1,3.2
		c-0.2,1.7-0.5,3.3-0.8,5c-0.2,0.6-0.3,1.2-0.3,1.8c0,0.1,0,0.3-0.1,0.4c-0.5,2.8-0.7,5.8,0,8.6c0.1,0.2,0.1,0.5,0.1,0.7
		c0,0,0.1,0,0.1,0c0,0,0,0.1,0,0.1l-0.1,0c0.4,2.4,0.4,5.4,0,7.7C78,75,79.1,83.5,78.1,91.9c-0.9,7.5,0.1,15.2-0.7,22.8
		c-0.7,7.6-2.5,15.4-0.9,23.1c0,0,0,0.1,0,0.1c-0.2,0.7-0.2,1.4-0.2,2.1c-0.1,0.6-0.3,1.3-0.3,1.9c0,0,0,0,0,0.1c0,0.2,0,0.3,0,0.4
		c0,0,0,0.1,0,0.1c0.1,0.9,0.2,1.7,0.2,2.6c0,2.9-0.7,5.7-1.1,8.6c0,0.2,0,0.3,0,0.5c-0.1,6.1-0.2,12.2-0.4,18.3
		c-0.1,5.4,2.5,9.1,7.5,10.5c4.8,1.3,9.7,1.7,14.6,1.7c13.3,0.2,26.6-0.9,40-0.3c6,0.3,12,0.5,18,1c4.8,0.4,9.9,0.3,13.5-2.9
		c3.7-3.3,5.7-8.3,5.6-13.3c-0.2-11.2-0.8-22.3-1.5-33.4C171.7,126.2,171.2,116.7,171.6,107.3z M80.1,45.4L80.1,45.4
		c0,0.2,0,0.3,0,0.4L80.1,45.4z M167.9,174.9c-1.4,3.6-4.9,4.9-8.4,5.3c-3.8,0.5-7.6,0.7-11.4,0.5c-17.4-0.7-34.7-0.3-52.1-0.2
		c-10.7,0-12.1-0.2-17.3-2.8c-0.3-0.1,0.2-4.9,0.3-5.4c0.1-1,0.1-1.8,0.1-2.8c0-1.1,0-2.1,0.3-3.2c0.1-0.4,0.3-0.7,0.3-1.1
		c0.1-1.1,0.4-2.1,0.5-3.2c0.2-2.1,0.4-4.2,0.5-6.3c0.2-1.9,0.3-3.9-0.2-5.7c0.1-0.1,0.1-0.2,0.1-0.3c0.4-2.5,0.8-5.1,1-7.6
		c0.2-2.5,0.4-5.1-0.3-7.5c-0.1-0.4-0.3-0.8-0.3-1.2c-0.3-1.5,0.2-2.7,0.3-4.1c0.1-1.7,0.3-3.4,0.4-5.1c0.2-3.4,0.5-6.7,0.7-10.1
		c0.3-5.3,0.6-10.5,0.8-15.8c0.4-10.6,0.7-21.3,1.4-32c0.4-7.3-0.1-14.8-0.4-22.2c-0.1-2.4,0.3-4.6,1-6.9c1.9-6.8,5.4-9.8,12.3-9.9
		c11.2-0.2,22.4,0,33.6,0c7.7,0,15.4,0,23.2-0.1c3,0,5.8,0.3,8.8,1.1c3.8,1,5.2,3,5.2,6.6c0.1,16.1,0.4,32.1-0.7,48.2
		c-0.3,4.8,0.6,9.6,0.7,14.4c0.1,10.1,0.3,20.3,0,30.4c-0.4,12.4,2.1,24.5,2.1,36.8C170.1,168.4,169.1,171.7,167.9,174.9z"/>
	<path d="M145.6,207c-2.4-1.3-4.2-4.4-7.4-4.3c-10.7,0.4-21.3-1.2-32-2c-2.1-0.1-4.3-0.3-6.1,1.2c-0.5,3.7,1.6,7.3-0.1,10.6
		c1.4,2.8,3.3,3.7,5.9,2.5c1.1-0.5,2.3-0.7,3.4-0.5c7.4,1.2,14.7-0.6,22.1-0.1c2.3,0.1,4.5,0.5,6.8,0.8c1.9,0.3,5.1,2.4,5.9-1.8
		c0,0,0,0,0,0C145.8,211.7,146.4,209.7,145.6,207z M139.2,210.3c-7.3-2.1-14.9-0.3-22.5-0.6c-3.1-0.1-6.3-0.2-9.4-0.3
		c-2.7-0.1-3.5-1.4-2.3-3.7c12.1-2.2,23.5,1.5,35,1.8C140.3,208.9,140.1,209.7,139.2,210.3z"/>
</g>
</svg>
