<?xml version="1.0" encoding="utf-8"?>
<!-- Generator: Adobe Illustrator 18.1.1, SVG Export Plug-In . SVG Version: 6.00 Build 0)  -->
<svg version="1.1" id="Ebene_1" xmlns="http://www.w3.org/2000/svg" xmlns:xlink="http://www.w3.org/1999/xlink" x="0px" y="0px"
	 width="250px" height="250px" viewBox="-18 -60 250 250" style="enable-background:new -18 -60 250 250;" xml:space="preserve">
<g>
	<path d="M134.3,120.9c-6.9,0.7-13.9,1.4-20.9,1.8c-8.5,0.5-16.9,0.1-25.4,0.6c-12.9,0.8-25.8,0.6-38.7-1.1
		c-15.5-2.1-29.8-7-43.4-14.6c-9.3-5.2-16.2-12.5-21.6-21.4c-1.4-2.3-2.5-4.8-2.4-7.7c0.2-6.3,2.6-8.4,8.6-9.8
		c18.8-4.3,37.9-7.2,56.1-14c4.8-1.8,7.8-4.8,9.5-9.3C59.7,36,63.4,26.6,66.5,17C71.3,2,81.9-7,96.7-9.4c9.2-1.5,19.1-0.2,28.2,3.2
		c6.2,2.3,12.1,4.5,17.4,9.1c7.4,6.6,10.5,15.2,14.1,23.7c3.3,7.7,6.3,15.5,9.4,23.2c2.9,7.1,9.5,9.6,15.8,11.9
		c13.5,4.9,27.7,5.5,41.9,6.5c1.2,0.1,2.4,0.1,3.6,0.2c4.7,0.5,5.7,2.6,4,6.9c-1.9,4.9-6.1,7.9-9.3,11.6c-2.5,2.9-4.8,6.5-9.9,6.3
		c-1.4,0-2.6,3.9-5.2,5.1c-14.4,6.6-28.8,13.1-44.5,16.7c-8,1.8-16,3.7-24,5.6C137.1,120.9,135.7,120.8,134.3,120.9z M102.7,118.7
		c21.8-0.7,36.8-2.3,51.5-5.4c15.8-3.4,30.6-9.4,44.9-16.9c9.4-5,17.6-11.6,24.8-19.3c1.1-1.2,2.5-3.1-0.8-3.5
		c-9-1.1-17.9-2.3-26.8-3.9c-11.2-1.9-21.3-6.4-30.8-12.2c-3.6-2.2-6.9-1.9-9.4-0.4c-6.8,4.1-14.7,4.9-21.9,7.7
		c-10.1,3.9-21.2,5.4-32.4,4.9c-15-0.8-30-1.9-42.8-10.2c-5.8-3.8-10.3-2.4-15.4,0c-0.9,0.4-1.7,1.3-2.6,1.5
		C25.4,64.5,10,68.1-5.5,71.3c-5.9,1.2-7.9,2.7-7.8,8.7c0.2,9.8,7.2,15.8,14.1,20.8c16.9,12.2,36.5,16.4,56.9,18
		C75,120.3,92.2,119.2,102.7,118.7z M101.7,64.9c14.1,2,45.8-8.9,55.5-13.9c1.8-0.9,2.1-2.4,2.1-4.3c0-4.2-2.1-7.7-3.7-11.4
		c-3.1-7.5-5.5-15.3-9.8-22.2c-3.2-5.2-7-9.8-12.6-12.3c-7.8-3.5-16-5.6-24.4-7.1C94.3-9,74.8,2.5,70.8,16.5
		C67.5,27.8,63.3,39,58.1,49.8c-2,4.2-0.9,6.3,3.5,8.3C74.6,63.8,88.4,64.7,101.7,64.9z"/>
</g>
</svg>
