<?xml version="1.0" encoding="utf-8"?>
<!-- Generator: Adobe Illustrator 18.1.1, SVG Export Plug-In . SVG Version: 6.00 Build 0)  -->
<svg version="1.1" id="Ebene_1" xmlns="http://www.w3.org/2000/svg" xmlns:xlink="http://www.w3.org/1999/xlink" x="0px" y="0px"
	 width="250px" height="250px" viewBox="0 0 250 250" style="enable-background:new 0 0 250 250;" xml:space="preserve">
<g>
	<path d="M150.2,171.3c2.5-0.1,3.1,0.9,3.7,2.9c1.1,3.8,1.5,7.7,2.1,11.6c0.3,2.5,1,4.9,1.5,7.4c0.6,3.3,1.2,6.7,1.9,10
		c0.4,1.7-0.9,3.7-2.8,4.4c-2.2,0.8-4.5,1.5-7,1.6c-2.9,0-5.8,0.4-8.7,0.3c-1.9-0.1-3.8,0.4-5.6,0.2c-3.3-0.4-6.6,0.1-9.9-0.7
		c-1.1-0.3-2.3,0-3.5-0.1c-2.6-0.3-5.2-0.7-7.4-2.3c-1.3-1-1.9-2.1-1.6-3.7c0.4-2.7,0.8-5.4,0.9-8.1c0.1-3.4,0.9-6.7,1.3-10
		c0.3-2.1,0.7-4.2,1.2-6.3c0.1-0.4,0-0.8,0-1.2c0-2.6,1.5-4.1,3.5-5.2c0.6-0.4,0.8-0.7,0.5-1.3c-1.3-3.2-2.2-6.5-3.2-9.7
		c-0.6-2-0.9-4-1.5-6c-0.6-1.9-1.5-3.7-2.2-5.6c-0.9-2.3-1.9-4.5-3.1-6.7c-0.8-1.4-1.6-2.7-2.5-3.9c-1.6-2.2-3.6-3.9-5.9-5.3
		c-0.6-0.4-0.3-0.6,0.1-0.8c2.5-1.2,4.7-3.1,7.3-4.3c0.7-0.3,1.2-0.6,2-0.5c0.7,0.1,1.5-0.2,2.2-0.4c3.5-1,6.9-2.2,10.5-2.7
		c1.6-0.2,3.2-0.7,4.9-1.1c0.5-0.1,0.6-0.3,0.5-0.7c-0.3-1.7-1.1-3.2-1.7-4.8c-0.6-1.5-0.4-1.8,1.2-1.8c2.5-0.1,5.1-0.2,7.6-0.3
		c1.4,0,1.6,0.3,1.3,1.7c-0.2,1.1-0.4,2.3-0.6,3.4c-0.1,0.7,0.2,0.9,0.8,0.9c4.8,0,9.3,1.3,13.8,2.9c1.4,0.5,2.8,1,4,1.8
		c1.1,0.8,2.1,0,3.1-0.3c5.7-2.1,11.1-1.7,16,2c2.7,2.1,4.3,5,4.9,8.4c0.1,0.7,0,1.4-0.2,2.1c-0.7,3.2-1.8,6.2-2.9,9.3
		c-0.5,1.3-1.1,2.6-1.8,3.9c-1.3,2.4-2.1,5-3.2,7.5c-0.5,1.3-1.4,2.1-2.6,2.7c-2.2,1.1-4.3,2.3-6.4,3.4c-0.5,0.3-1,0.4-1.5,0.5
		c-1,0.1-2-0.5-2.2-1.5c-0.2-1.2-0.2-2.3-0.4-3.5c-0.2-1.1,0.4-1.5,1.4-1.6c0.5-0.1,0.9-0.1,1.3-0.3c2.5-0.6,3.1-2.8,3.8-4.8
		c1.4-4.3,2.9-8.5,4.3-12.8c0.7-2,1-4.1,1-6.3c0-0.9-0.6-1.2-1.2-1.3c-3.1-0.6-6.2-0.7-9.3,0.2c-1.1,0.3-1.7,1.2-1.9,2.3
		c-1,5.5-2.1,11-3.2,16.4c-0.5,2.3-1,4.6-1.5,6.9c-0.4,2.4-0.9,4.8-1.4,7.2C151.2,168.3,151.2,169.9,150.2,171.3z M103.2,132.9
		c1.6,1.2,3,2.4,4.3,3.8c1.3,1.4,2.5,2.9,3.4,4.6c1.5,2.6,2.6,5.3,3.9,8c1,2.2,1.9,4.4,2.4,6.7c1,4.6,2.7,9,4.1,13.5
		c0.7,2.3,2.3,3.4,4.5,3.8c3.7,0.7,7.5,1,11.3,1c2.9,0,5.8-0.2,8.5-1c1.8-0.5,3.6-1.4,4.1-3.6c0.3-1.1,0.5-2.3,0.8-3.5
		c0.6-3,1.1-6,1.8-8.9c1.2-4.8,1.7-9.8,2.8-14.6c0.4-1.9,0.6-4,0.9-5.9c0.6-3.4,1.8-4,4.7-4.3c2.5-0.2,5-0.4,7.5-0.1
		c2.3,0.3,3.6,1.9,3.4,4.2c-0.3,3.7-1.7,7.1-2.9,10.5c-1,2.9-1.9,5.8-2.9,8.7c-0.5,1.5-1.2,3-2.9,3.6c-0.7,0.3-1.5,0.5-2.3,0.7
		c-0.5,0.1-0.7,0.3-0.8,0.8c-0.2,1,0.6,1.8,0.4,2.7c-0.1,0.8,0.3,0.9,0.9,0.8c0.3-0.1,0.6-0.1,0.9-0.3c2.1-1.1,4.2-2.1,6.3-3.2
		c0.6-0.3,1.2-0.9,1.4-1.6c0.6-1.7,1.5-3.1,2.2-4.8c1.3-3.3,3-6.4,4-9.8c0.7-2.3,1.5-4.5,1.9-6.9c0.5-2.7-0.6-4.9-1.9-7
		c-1.5-2.2-3.7-3.7-6.4-4.4c-3.2-0.8-6.3-0.8-9.5,0.3c-2.4,0.9-4.3,2.8-7,3.1c-3.5,0.5-6.9,1.9-10.5,2.3c-3.7,0.5-7.5,0.6-11.2,0.4
		c-3.8-0.3-7.6-1.1-11.4-1.7c-2.8-0.4-5.5-1.4-8.2-2c-0.8-0.2-1.7-0.4-2.3,0C107.4,130.3,105.1,131.2,103.2,132.9z M146.9,207.6
		c3.1,0.4,6-0.6,8.8-1.6c2-0.8,2.7-1.6,2.2-3.9c-0.9-3.7-1.4-7.4-2.3-11.1c-1.5-5.6-1.6-11.5-3.3-17.1c-0.4-1.2-0.7-1.5-1.9-1.3
		c-1,0.2-1.7,0.9-2.6,1.3c-2.8,1.1-5.7,1.8-8.8,1.6c-0.9-0.1-1.9-0.1-2.8-0.1c-4.2,0.2-8.3-0.2-12.3-1.4c-0.2-0.1-0.5-0.2-0.5-0.1
		c-0.8,0.9-1-0.1-1.5-0.4c-0.4-0.2-0.5-0.8-1.1-0.8c-1,0-3,2-3,3c0,2-0.4,3.9-0.8,5.8c-0.8,3.8-1.4,7.6-1.7,11.4
		c-0.2,2.7-0.6,5.4-0.9,8.1c-0.5,3.5,0.1,4.4,3.4,5.5c2.3,0.7,4.6,0.8,7,1.1c3.1,0.3,6.2,0.6,9.2,0.5
		C138.2,208.1,142.6,208,146.9,207.6z M155.2,128c-0.7-0.6-1.7-1.1-2.7-1.5c-3-1.2-6.2-2.2-9.4-2.9c-2.1-0.5-4.3-0.4-6.4-0.6
		c-0.9-0.1-1.4-0.5-1.3-1.5c0.1-1.3,0.2-2.6,0.6-3.8c0.2-0.8-0.1-0.9-0.7-0.8c-1.8,0.3-3.6,0.1-5.4,0.2c-1.4,0.1-1.4,0-0.9,1.3
		c0.1,0.4,0.3,0.8,0.4,1.2c0.3,1.3,1.1,2.4,1,3.9c0,0.7-0.2,1.1-1,1.1c-1.1,0-2.1,0.2-3.2,0.5c-2.6,0.7-5.3,0.8-7.9,1.8
		c-1.7,0.6-3.4,0.9-5.4,1.4C127.3,132.2,141.3,133.4,155.2,128z"/>
	<path d="M191,246.2c-1.3,1.6-2.4,1.5-3.5-0.1c-0.3-0.4-0.4-0.8-0.7-1.1c-0.3-0.4-0.7-0.5-1-0.1c-1.4,1.9-2.5,1.8-3.5-0.3
		c-0.2-0.3-0.3-0.6-0.6-0.9c-0.2,0.6-0.4,1.1-0.5,1.6c-0.2,0.9-0.7,1.5-1.6,1.7c-0.9,0.2-1.5-0.5-2-1.1c-0.7-0.7-0.7-1.7-1-2.5
		c-0.4-1.2-0.6-1.2-1.4-0.3c-0.5,0.5-1,1.1-1.6,1.5c-0.8,0.6-1.2,0.5-1.6-0.4c-0.2-0.5-0.4-1-0.5-1.5c-0.2-1.1-0.8-0.9-1.3-0.3
		c-0.3,0.4-0.7,0.6-1.1,0.8c-1,0.5-1.8,0.2-2-0.9c-0.1-0.7-0.3-0.7-0.9-0.4c-0.9,0.4-1.5,1.2-2.3,1.7c-1.3,0.9-2.1,0.5-2.4-1
		c-0.1-0.6-0.2-1.1-0.3-1.7c-0.7,0-1.1,0.4-1.7,0.7c-0.6,0.4-1.1,0.9-1.9,0.6c-0.9-0.3-0.7-1.1-0.8-1.8c0-0.2,0-0.4,0-0.5
		c-1.3,0.2-2,1.4-3.2,1.7c-1.3,0.4-1.8,0-1.7-1.3c0-0.4,0.1-0.7,0.2-1.2c-1,0.3-1.7,1.1-2.5,1.6c-0.3,0.2-0.6,0.5-1,0.2
		c-0.4-0.3-0.4-0.7-0.2-1.1c0.2-0.7,0.4-1.4,0.6-2.3c-1,0.4-1.9,0.9-2.6,1.5c-0.3,0.2-0.5,0.4-0.8,0.6c-0.4,0.2-0.7,0-0.9-0.3
		c-0.2-0.3,0-0.5,0.2-0.7c0.3-0.3,0.7-0.6,1.1-1c-1-0.1-1.5,0.6-2.1,0.8c-0.5,0.2-0.9,0.4-1.2-0.1c-0.4-0.6,0.3-0.6,0.6-0.9
		c0.9-1.3,2.1-2.4,3.4-3.3c1.5-1.2,2.9-2.5,4.3-3.9c0.1-0.1,0.1-0.1,0-0.1c-1-0.3-1.9-0.7-1-2c0,0,0-0.1,0-0.1c0.3-0.7,0.5-1.5,1-2
		c0.6-0.8,1.3,0.1,2,0.1c2,0.3,4,0.5,6,0.4c3,0,5.9,0.3,8.8,0.6c2.2,0.2,4.3,0.1,6.5-0.1c0.8-0.1,1.4-0.5,1.6-1.4
		c0.3-1.6,0.8-3.1,1.1-4.6c0.8-3.4,1.6-6.9,2.3-10.3c0.4-1.6,0.7-3.1,1.1-4.6c1-3.8,1.9-7.7,3-11.4c1.1-3.5,1.8-7.1,3-10.6
		c1-2.8,1.9-5.6,2.6-8.5c0.7-3.1,1.9-6,2.5-9.1c0.6-3.2,1.7-6.4,2.5-9.6c0.9-3.9,1.7-7.8,2.8-11.7c0.5-1.9,1.2-3.7,1.5-5.7
		c0.4-2.2,1.2-4.3,1.9-6.4c0.2-0.5-0.3-0.8-0.1-1.3c0.6-1.4,2.3-1.8,3.4-0.7c1,1,1.3,2.3,1,3.7c-0.3,1.6-1.1,3.1-1.5,4.7
		c-0.4,2-0.4,4-0.9,6c-0.9,3.2-1.6,6.5-2.6,9.7c-0.7,2.1-0.9,4.4-1.4,6.6c-0.3,1.5-1,3-1.4,4.5c-0.5,1.6-1,3.1-1.2,4.7
		c-0.1,0.8-0.5,1.4-0.7,2.1c-0.3,1.5-0.6,2.9-0.9,4.4c-0.4,1.6-0.9,3.2-1.3,4.8c-0.7,3-1.6,6-2.4,9c-0.5,1.7-1,3.5-1.5,5.2
		c-0.6,2.2-1.1,4.4-1.6,6.6c-0.6,2.8-1.3,5.6-2.1,8.3c-0.7,2.6-1.2,5.2-1.8,7.8c-0.4,1.8-0.8,3.6-1.2,5.4c-0.1,0.7-0.2,1.4-0.3,2.1
		c0,0.4,0.1,0.7,0.5,0.8c1.7,0.6,3.4,1.2,5.1,1.4c2.5,0.2,4.7,1.1,7.1,1.7c2.3,0.5,4.5,1.6,7,1.6c0.9,0,1.4,0.8,1.2,1.7
		c-0.2,1-0.5,2.1-0.8,3.1c-0.2,0.6-0.4,1.3-1.4,0.8c-0.2-0.1-0.5,0-0.8-0.1c-0.7-0.2-0.8,0.2-0.7,0.8c0.4,2.1,1,4.1,2.1,5.9
		c0.6,1,1,2.2,1.4,3.3c0.2,0.4,0.1,0.7-0.2,0.9c-0.3,0.3-0.7,0.1-1.1,0c-0.4-0.2-0.8-0.7-1.3,0.1c-0.2,0.4-0.9,0.4-1.5,0.1
		c-0.4-0.2-0.8-0.5-1.1-0.9c-0.4-0.5-0.6-1.3-1.1-1.4c-0.5-0.2-0.6,0.8-1,1.1c-1.3,1-2.4,1-3.5-0.3
		C191.6,247.2,191.4,246.7,191,246.2z M203,133.2c-0.1-0.4,0.1-0.9-0.2-1.3c-0.1-0.2-0.2-0.4-0.4-0.3c-0.1,0-0.3,0.1-0.3,0.3
		c-0.3,1.2-0.9,2.4-1.2,3.6c-0.9,3.5-2,7-3,10.5c-0.7,2.4-0.8,4.9-1.7,7.3c-0.2,0.5-0.4,1.1-0.4,1.7c0.1,2.5-1.1,4.7-1.7,7.1
		c-0.8,2.9-1.5,5.7-2.3,8.6c-1,3.5-1.8,7-2.7,10.5c-0.5,1.9-1.3,3.7-1.7,5.6c-0.5,2.1-1,4.2-1.7,6.2c-0.2,0.6-0.6,1.1-0.6,1.7
		c-0.2,2.5-1.1,4.7-1.7,7.1c-0.4,1.5-1.1,3.1-1.4,4.6c-0.4,2.1-0.9,4.2-1.3,6.2c-0.9,4-2,8-2.8,12c-0.3,1.7-1.1,3.2-3,3.6
		c-1.4,0.3-2.8,0.3-4.2,0.3c-2-0.1-3.9-0.4-5.9-0.4c-4.2,0-8.4,0.2-12.5-0.6c-0.9-0.2-0.8,0.8-1,1.2c-0.3,0.5,0.4,0.4,0.6,0.5
		c2.2,0.8,4.5,0.7,6.8,0.9c1.8,0.2,3.6,0.3,5.3,0.9c3.2,1.2,6.6,1.4,10,1.9c1.6,0.2,3.2,0.3,4.8,0.6c3.3,0.6,6.5,1.4,9.9,1.8
		c4,0.5,7.9,1,11.8,1.7c0.5,0.1,0.8,0.1,0.9-0.5c0.1-0.9,0.8-1.7,0.2-2.6c0,0-0.1,0-0.1,0c-3.1-0.7-6.3-1.4-9.3-2.3
		c-0.9-0.3-1.7-0.7-2.6-0.8c-2.4-0.1-4.7-0.8-7-1.6c-0.8-0.3-1.8-0.4-1.7-1.8c0.1-1.7,0.4-3.5,0.7-5.1c0.3-1.9,0.8-3.8,1.3-5.7
		c1.3-4.9,2.5-9.9,3.6-14.9c0.8-3.5,1.8-7,2.6-10.4c0.7-2.7,1.4-5.4,2.3-8.1c1-3,1.7-6.2,2.4-9.3c0.7-3,1.6-6,2.4-9
		c0.6-2.1,1.1-4.1,1.6-6.2c0.7-3,1.6-6,2.4-9c0.5-1.9,1-3.7,1.3-5.7c0.4-2.5,0.5-5,1.5-7.4C202.9,135.4,203.1,134.4,203,133.2z
		 M173.1,243.3c0.7-0.4,1.1-1,1.7-1.5c1-0.9,1.7-0.7,2.5,0.3c0.6,0.8,0.8,1.6,0.9,2.5c0.1,0.6,0.5,1.1,1,1.1
		c0.5,0.1,0.4-0.6,0.6-0.9c0.2-0.3,0.2-0.6,0.3-1c0.2-0.6,0.5-1.1,1.3-1.2c0.7-0.1,1.3,0.1,1.7,0.7c0.2,0.3,0.4,0.7,0.6,1.1
		c0.3,0.5,0.6,0.7,1,0.1c0.4-0.7,1-1.1,1.8-0.9c1.2,0.3,1.9,1.1,2.3,2.1c0.1,0.3,0.2,0.6,0.6,0.6c0.4,0,0.2-0.4,0.3-0.6
		c0.2-0.8,0.7-1.3,1.6-1.2c1.1,0.1,1,1.1,1.4,1.8c0.3,0.6,0.6,1.3,1.2,1.4c0.7,0.1,0.6-0.8,0.9-1.3c0-0.1,0-0.1,0.1-0.2
		c0.7-1.5,1.6-1.6,2.7-0.3c0.6,0.7,0.6,1.8,1.5,2.3c0.4-0.6,0.2-1.5,0.9-1.7c0.8-0.2,0.5-0.5,0.3-1c-0.5-1.5-1.7-2.6-1.9-4.2
		c-0.1-1.1-0.9-2.2-0.8-3.3c0-0.5,0-0.5-0.4-0.6c-1.4-0.4-2.8-0.4-4.2-0.6c-1-0.1-2-0.4-3-0.5c-1.9-0.2-3.7-0.5-5.5-0.9
		c-2.6-0.5-5.2-1.1-7.9-1.4c-3.1-0.4-6.1-0.7-9.2-1.1c-1.8-0.3-3.6-1-5.3-1.4c-2.9-0.6-5.8-0.9-8.7-1c-1-0.1-1.6,0.2-2.1,0.9
		c-0.8,1-1.8,1.7-2.8,2.5c-1,0.9-2.2,1.6-3,2.8c0.6-0.2,1.2-0.5,1.8-0.8c0.4-0.2,0.9-0.3,1.2,0c0.5,0.3-0.2,0.7-0.2,1.1
		c0.6-0.4,1.2-0.7,1.8-0.2c0.7,0.7,0.1,1.6,0.1,2.5c1.1-0.5,2-1.8,3.3-0.8c0.8,0.6,0.1,1.5,0.1,2.3c0.4,0,0.6-0.3,0.8-0.5
		c0.8-0.6,1.6-1.1,2.5-1.4c0.9-0.3,1.7,0.4,1.6,1.3c0,0.3-0.2,0.5-0.1,0.8c1.7-1,2.7-1.2,3.6-0.8c1.2,0.5,0.8,1.6,1,2.7
		c0.7-0.6,1.3-1.1,1.9-1.6c1.6-1.3,3.2-1,3.7,0.9C171.6,240.3,172.1,240.4,173.1,243.3z"/>
	<path d="M220.7,51.5c-0.4,0-0.8,0-1.2,0.1c-0.3,0.1-0.7,0.2-0.9-0.1c-0.3-0.3-0.2-0.7,0-1.1c0.2-0.4,0.4-0.8,0.6-1.2
		c0.2-0.5,0.4-1-0.5-1.2c-0.5-0.1-0.5-0.5-0.5-0.9c0-0.5,0.2-1,0.5-1.4c0.8-1.4,0.8-1.5-0.6-2.2c-1.2-0.7-1.6-1.7-1.1-3.6
		c0.1-0.6,0.2-0.9-0.6-1c-1.5-0.2-1.9-1.1-1.2-2.5c0.2-0.4,0.4-0.8,0.7-1.2c0.5-0.6,0.4-1,0.1-1.7c-0.6-1.5-1-3.1-0.4-4.7
		c0.1-0.4,0.3-0.7-0.3-0.9c-0.9-0.3-1.1-1.1-0.8-1.9c0.3-0.7,0.2-1.5-0.2-2c-1.2-1.4-0.8-2.8-0.4-4.3c0.2-0.7,0.2-1.3-0.6-1.7
		c-0.7-0.4-0.6-1.1-0.3-1.7c1-1.9,0.9-2-0.7-3.2c-1-0.8-1.1-1.2-0.4-2.3c0.4-0.6,1.2-1.1,1.2-1.7c-0.1-0.6-0.9-1-1.5-1.4
		c-0.8-0.6-0.3-1.3,0.1-1.6c1.2-0.9,1.1-1.7,0.2-2.7c-0.3-0.3-0.8-0.8-0.4-1.3c0.3-0.4,0.9-0.2,1.3-0.2c3.1,0.1,5.9,1,8.7,2.1
		c2.5,1,5,1.9,7.6,2.5c1.4,0.3,2.6-0.2,3.9-0.6c0.9-0.3,1.7-0.3,2.6-0.2c1.2,0.1,1.9,0.9,2.3,2.2c0.8,2.7,1.2,5.5,1.9,8.2
		c0.7,2.6,1,5.2,1.8,7.8c0.4,1.5,0.3,3.2,0.8,4.6c0.7,1.9,0.8,3.9,1.1,5.9c0.4,2.4,0.9,4.8,1.1,7.2c0.2,2.8,0.8,5.6,1.3,8.4
		c0.6,3.1,1.2,6.2,1.8,9.3c0.6,3.4,1,6.9,1.7,10.3c0.7,2.9,0.8,5.8,0.6,8.8c-0.1,1.4,0,2.7-0.4,4c-0.4,1.2-1.7,2.2-2.9,2.3
		c-0.8,0-2.3-1.6-2.6-2.6c-0.8-3.2-1-6.5-1.8-9.6c-0.6-2.6-1.2-5.3-1.7-7.9c-0.9-5-2-10-2.4-15.1c0-0.2-0.1-0.4-0.1-0.5
		c-0.2-0.7-0.2-1.2-1.3-0.7c-1.7,0.7-3.7,0.8-5.6,1.1c-2.1,0.3-4.1,1.2-6.2,1.6c-1.4,0.3-2.7,0.6-4.1,0.8
		C220.8,51.6,220.7,51.5,220.7,51.5z M229.1,36.1c0.6,0,1.1,0.1,1.6,0.3c1.2,0.4,2.3,0.3,3.5,0c0.9-0.3,1.3-0.9,1-1.8
		c-0.7-1.8-0.8-3.6-1.1-5.4c-0.1-0.7-0.3-0.7-0.9-0.5c-1.5,0.6-3.1,0.8-4.7,1c-1.2,0.2-2.3-0.4-3.5-0.7c-0.2-0.1-0.5-0.2-0.5-0.6
		c0-0.3,0.3-0.3,0.5-0.2c2.6,0.6,5.1,0.1,7.5-0.6c0.6-0.2,1-0.4,0.8-1.2c-0.3-0.8-0.3-1.7-0.5-2.6c-0.4-2.6-0.3-2.5-2.8-2
		c-1.9,0.4-3.6-0.1-5-1.5c-0.2-0.2-0.4-0.3-0.2-0.6c0.1-0.2,0.3-0.2,0.5,0c1.9,1.6,4.1,1.1,6.3,0.8c0.6-0.1,0.7-0.4,0.6-0.9
		c-0.4-2-0.9-3.9-1.2-5.9c-0.1-0.5-0.2-0.5-0.7-0.4c-1.4,0.4-2.7,0.5-4.1-0.2c-0.5-0.3-0.5-0.7-0.6-1.1c0-0.4,0.4-0.3,0.6-0.2
		c1.4,1.1,2.8,0.1,4.1-0.1c0.2,0,0.3-0.2,0.3-0.4c-0.1-1-0.2-2-0.3-3.1c-0.1-0.5-0.4-0.6-0.9-0.7c-1.6-0.3-3.3-0.5-4.8-1.1
		c-3.5-1.5-7.1-2.6-10.8-3.5c-0.5-0.1-1.1-0.2-1.7,0c1.7,2.5,1.7,2.5-0.1,4.2c0.3,0.2,0.5,0.4,0.8,0.6c1.3,1,1.3,1.3,0.5,2.7
		c-0.3,0.6-0.8,1-1.2,1.4c0.5,0.5,0.9,0.9,1.3,1.3c1.4,1.4,1.4,1.6,0.4,3.3c-0.1,0.3-0.5,0.6-0.1,0.9c1.4,1.2,1,2.6,0.3,4
		c-0.2,0.5-0.2,1.1,0.2,1.6c0.7,1,1.4,2,0.9,3.4c-0.1,0.3,0.2,0.4,0.4,0.5c1.1,0.6,1.1,1.6,0.7,2.5c-0.5,1.2-0.3,2.4,0.1,3.3
		c0.8,1.6,0.8,2.9-0.3,4.2c-0.1,0.1-0.1,0.2-0.2,0.3c1.7,0.6,2,1.2,1.9,2.8c0,0.3,0,0.6-0.1,0.9c-0.2,0.8,0.1,1.3,0.9,1.7
		c1.8,1,2.1,1.9,1,3.5c-0.4,0.5-0.4,0.9,0.1,1.3c0.6,0.6,0.9,1.2,0.2,2c-0.2,0.2-0.3,0.4-0.1,0.8c5.9-0.6,11.6-2.9,17.6-3.3
		c-0.4-1.9-0.9-3.8-1.3-5.9c-0.6,0.5-1.3,1.2-2,1.1c-1.6-0.2-3.2-0.4-4.7-1c-0.3-0.1-0.7-0.1-0.7-0.5c0.1-0.4,0.6-0.4,0.9-0.3
		c1.2,0.4,2.5,0.3,3.7,0.5c0.8,0.1,1.5,0.1,2.2-0.4c0.2-0.2,0.5-0.2,0.3-0.6c-0.3-1-0.4-2-0.4-3.1C232.2,37.9,230,37.7,229.1,36.1z
		 M234.1,6.6c-1,0-2.2,1.4-2.1,2.5c0.3,2.5,0.7,5,1.1,7.5c1,5.4,2,10.8,2.9,16.2c1.1,6.1,2.8,12.2,3.7,18.4c0.4,2.6,0.9,5.2,1.4,7.7
		c0.5,2.7,0.9,5.3,1.4,8c0.7,3.6,1.5,7.1,2,10.8c0.2,1.7,0.3,3.7,1.9,5c0.7,0.6,1.1,0.7,1.5-0.2c0.2-0.4,0.3-0.9,0.4-1.3
		c0.5-2.8,0.1-5.7-0.2-8.4c-0.4-3.7-1.2-7.4-1.8-11.1c-0.6-4-1.5-8-2.3-12c-0.7-3.3-0.9-6.7-1.3-10.1c-0.4-3.7-1.3-7.3-1.8-11
		c-0.4-2.8-1.3-5.5-1.9-8.2c-0.8-3.9-1.5-7.9-2.8-11.7C235.8,6.8,235.9,6.7,234.1,6.6z"/>
	<path d="M77.1,118.1c0.7-2.2,2.4-3.8,3.3-5.9c0.2-0.5,0.2-0.8,0-1.3c-1-2.2-1.4-4.6-0.9-6.9c0.4-1.8,0.9-3.7,2.1-5.3
		c1.4-2,3-3.8,5.3-4.7c1-0.4,2.1-0.3,3.1,0.1c2.3,0.8,3.8,2.6,5.1,4.6c1,1.6,1.2,3.3,0.7,5.1c0,0.1-0.1,0.3-0.1,0.4
		c0.1,2.5-1,4.5-2.5,6.4c-1.4,1.8-3.2,3.1-5.2,4c-0.7,0.3-1.2,0.1-1.7-0.3c-0.6-0.4-0.8-0.2-1,0.3c-1.2,2.9-2.3,5.7-3.5,8.6
		c-0.1,0.2-0.1,0.4-0.2,0.5c-0.9,1.1-0.7,2.3-0.5,3.7c0.9,4.2,0.6,8.4,0.8,12.7c0.1,1.6,0,3.2-0.1,4.8c-0.1,2.3-0.1,4.6-0.2,6.9
		c0,2.2,0.2,4.5-0.2,6.7c-0.3,1.6-1.1,3.1-1.4,4.7c-0.3,1.5-1.1,2.8-1.2,4.3c-0.1,0.8-0.7,1.4-1,2.1c-0.1,0.2-0.4,0.5-0.7,0.4
		c-0.4-0.1-0.3-0.5-0.3-0.8c0.2-2.7,0-5.3-0.1-8c-0.1-2.6-0.6-5.2-0.9-7.8c-0.4-3.4-1.2-6.7-1.4-10.1c-0.1-1.6-0.3-3.2-0.5-4.9
		c-0.6,0.7-0.8,1.4-1.1,2.1c-0.8,2-1.8,3.9-3,5.8c-0.5,0.8-0.6,1.8-1.1,2.6c-1.6,2.6-2.4,5.6-3.8,8.2c-1.5,2.7-2.3,5.8-3.8,8.5
		c-0.1,0.1-0.1,0.3-0.1,0.4c0,0.4,0.2,1-0.5,0.9c-0.5-0.1-1.1-0.2-1.3-1c-0.3-1.5-0.4-3.1-0.2-4.6c0.3-1.9,0.4-3.8,1-5.6
		c0.6-2.1,1.1-4.2,1.6-6.2c0.7-2.5,1.3-5,2.3-7.4c1-2.2,1.5-4.5,2.7-6.5c0.9-1.6,1.2-3.4,2.1-4.9c0.2-0.3,0.3-0.6,0.5-0.9
		c1.5-1.7,1.4-3.7,1.2-5.7c-0.1-1.7,0.1-3.4,0-5.1c-0.1-1.7-0.3-3.5-0.2-5.2c0.1-1.5-0.7-2-1.9-2.6c-4.1-2.4-6.2-6-5.8-11
		c0.2-2.7,1.3-5,3.1-7c0.8-0.8,1.6-1.6,2.5-2.3c0.9-0.7,2.1-0.6,3.2-0.5c3.7,0.4,7.4,4.4,7.4,8.5c0,1.9,0.1,3.8-0.4,5.7
		c-0.4,1.5-1.3,2.7-2.3,3.9c-0.2,0.2-0.5,0.2-0.3,0.6c0.9,2.5,0.8,5,0.9,7.6C76.5,117.1,76.8,117.6,77.1,118.1z M78,165.1
		c1-3.1,2.6-6.1,2.4-9.6c-0.1-1.7-0.2-3.5,0-5.2c0.1-1-0.4-1.8-0.2-2.7c0.3-1.4,0.2-2.9,0.3-4.3c0.2-2.6,0.2-5.3-0.1-8
		c-0.3-3-0.1-6-0.9-8.8c-0.3-0.9-0.3-1.9,0.4-2.6c0.7-0.7,0.7-1.7,1.2-2.5c0.3-0.5,0.7-1.2,0.9-1.9c0.4-1.4,0.7-2.9,1.5-4.1
		c0.4-0.6,0.7-1.3,0.7-1.9c0.1-1.1,0.5-1,1.3-0.7c0.7,0.2,1.4,0.9,2.2,0.5c2-0.9,3.6-2.3,4.9-4c1.2-1.6,1.7-3.6,2-5.5
		c0.3-1.7,0.6-3.6-0.6-5.2c-0.5-0.7-0.9-1.4-1.5-2c-1-1-2.3-2-3.6-1.8c-3,0.4-5,2.4-6.4,5c-0.9,1.6-1.3,3.4-1.5,5.2
		c-0.2,1.8-0.1,3.4,0.6,5c0.6,1.4,0.8,2.5-0.3,4c-1.4,1.8-2.9,3.7-3.4,6.1c-0.1,0.4-0.3,0.9-0.8,0.8c-0.6-0.1-1-0.5-1.2-1.1
		c-0.5-1.9-0.7-3.9-0.8-5.9c-0.1-1.6,0-3.1-0.5-4.7c-0.1-0.4-0.4-1.2,0.2-1.5c0.8-0.4,1.2-1.1,1.6-1.7c1.1-2,1.3-4.2,1.2-6.5
		C77.5,97,77,95,75.2,93.1c-2.1-2.1-5-2.5-7.4-0.8c-0.5,0.4-0.9,0.9-1.4,1.4c-2.6,2.9-3.4,6.3-2.5,10c0.8,3.4,2.7,6.1,6.3,7
		c0.6,0.2,1.1,0.4,1.1,1.1c0.1,0.7,0.2,1.4,0.2,2.2c0,3.9-0.1,7.8,0.2,11.7c0.1,1.4-0.3,2.6-1,3.6c-2.1,3.4-3.2,7.1-4.8,10.7
		c-1.2,2.7-2.1,5.5-3,8.4c-1.3,4.4-2.3,8.8-3,13.3c-0.1,0.6-0.2,1.3,0.2,1.9c0.5-0.5,0.6-1.1,0.8-1.7c0.2-1.2,0.6-2.5,1.3-3.5
		c1.5-2.2,2.2-4.7,3.3-7c1.4-3.2,3.3-6.1,4.6-9.4c0.6-1.4,1.5-2.7,2.1-4.1c0.4-1,0.8-2,1.2-3c0.1-0.3,0.3-0.8,0.7-0.7
		c0.4,0.1,0.8,0.3,1,0.7c0.1,0.3,0.2,0.7,0.2,1c-0.1,3.7-0.1,7.4,0.5,11.1c0.5,3.2,1,6.3,1.4,9.5c0.2,1.1,0.4,2.3,0.3,3.4
		C77.5,161.7,78.1,163.4,78,165.1z"/>
	<path d="M16.3,203.8c2.4,0.2,4.9,0.6,7.3,0.4c1.4-0.1,2.8,0.3,4.3,0c1.1-0.3,2.2,0.2,3.3,0.1c1.4,0,2.8-0.3,4.2-0.2
		c1.5,0.1,3,0,4.5,0c1.9-0.1,3.8,0.2,5.7,0.2c2.6,0,5.1-0.1,7.7-0.2c3.2-0.1,6.4-0.1,9.6-0.1c2.8,0,5.7-0.2,8.5,0.1
		c2.8,0.2,5.5-0.3,8.2-0.4c1.7,0,3.3-0.1,5-0.1c0.9,0,1.1,0.7,1.2,1.4c0.5,2,0.8,4.1,0.7,6.1c0,0.8,0.1,0.9,1,0.9c3-0.1,6-0.8,9,0
		c0.8,0.2,1.7,0.1,2.5,0.6c0.9,0.5,1.5,1.3,1.5,2.2c0,0.8-0.7,1.3-1.4,1.8c-1.1,0.8-2.3,1-3.5,1.1c-2.5,0.1-5,0.7-7.4,1.3
		c-0.1,0-0.3,0.1-0.4,0.1c-1,0-1.4,0.3-1.3,1.5c0.2,2.5-0.2,5-0.7,7.5c-0.5,2.6-1.1,5.1-2.5,7.4c-1.5,2.5-3.4,4.6-6.1,5.9
		c-1.8,0.9-3.7,1.5-5.7,1.6c-4.4,0.1-8.8,0.7-13.3,0.5c-2.3-0.1-4.7,0.1-7,0c-2.7-0.1-5.4,0.6-8,0.5c-2.7,0-5.3,0.4-8,0
		c-1.6-0.2-3.2,0.1-4.8-0.2c-2.4-0.4-5-0.4-7.2-1.7c-0.6-0.4-1.1-0.8-1.5-1.3c-2.1-2.4-3.7-4.9-4.9-7.9c-1.5-3.5-2.3-7.2-3.4-10.9
		c-0.4-1.3-0.7-2.6-0.6-3.9c0-0.5-0.2-0.7-0.7-0.7c-1.2-0.1-2.4-0.3-3.6-0.5c-1.7-0.3-3.4-0.5-5.1-0.8c-0.9-0.2-2.2-0.4-2.9-1.5
		c-0.8-1.4-0.2-3.2,1.4-3.7c1.2-0.4,2.4-0.6,3.6-0.7c2.3-0.1,4.5-0.7,6.8-0.7c0.5,0,0.9-0.1,0.7-0.7c-0.2-0.9,0.2-1.8-0.6-2.6
		c-0.6-0.6,0.6-2.3,1.7-2.4C14.7,203.8,15.5,203.8,16.3,203.8C16.3,203.8,16.3,203.8,16.3,203.8z M13.6,205.3c0.4,1.5,0.5,3,0.4,4.6
		c0,0.5-0.3,1-0.7,1.1c-1.8,0.3-3.6,0.6-5.5,0.6c-2.1,0.1-4.1,0.3-6,0.8c-0.4,0.1-0.8,0.3-0.7,0.8c0.1,0.4,0.3,0.9,0.7,1
		c0.9,0.2,1.8,0.6,2.7,0.8c2.8,0.7,5.7,1,8.5,1.4c0.9,0.1,1.2,0.7,0.8,1.6c-0.1,0.1-0.1,0.3-0.1,0.4c0.5,3.3,1.2,6.7,2.3,9.9
		c0.6,1.8,1.4,3.5,2.1,5.3c1.1,2.9,2.8,5.4,5.3,7.3c2.1,1.5,4.6,2,7.1,2c3.8,0,7.5,0.3,11.3-0.2c2.2-0.3,4.4-0.3,6.6-0.4
		c1.1,0,2.2,0.2,3.2,0.1c2.6-0.4,5.2-0.2,7.7-0.2c2.1,0,4.1-0.1,6.2-0.2c2.3-0.2,4.6-0.5,6.9-0.6c3.2-0.2,5.6-1.8,7.7-3.9
		c1.7-1.6,2.1-4,3.1-6.1c1-2.3,1.2-4.8,1.6-7.3c0.2-1.2,0.5-2.5-0.1-3.8c-0.2,0.5-0.2,1.1-0.9,1.2c0.1-0.6,0-1.1,0-1.6
		c0.1-1.8,0.2-1.9,2-2.2c1.9-0.3,3.8-0.2,5.7-0.9c0.4-0.1,0.9-0.1,1.4-0.1c1.9,0,3.7-0.4,5.5-1.1c0.3-0.1,0.6-0.3,0.6-0.8
		c0-0.4-0.1-0.6-0.5-0.8c-0.7-0.3-1.4-0.7-2.2-0.7c-2.4-0.2-4.9-0.3-7.3-0.2c-0.9,0-1.7,0.2-2.6,0.5c-0.8,0.4-1.4,0.5-1.3-0.8
		c0-0.5-0.1-1.1,0-1.6c0.2-2-0.5-3.8-0.8-5.8c0-0.2-0.1-0.4-0.3-0.4c-0.8-0.1-1.7-0.2-2.5-0.2c-3.3,0.1-6.6,0.7-9.9,0.5
		c-4-0.3-8,0-12,0.1c-4.3,0-8.7,0.1-13,0c-4.2,0-8.5,0-12.7-0.1c-3.8-0.1-7.6-0.1-11.5,0C19.5,205.3,16.6,204.7,13.6,205.3z"/>
	<path d="M206.5,51.1c0.1,3.4,0.3,6.9,0.9,10.3c0.4,2.6,2.3,3.9,4.9,3.4c2-0.4,4-0.9,6.2-0.7c1.4,0.1,2.9-0.5,4.4-0.4
		c1.5,0.1,2.7,0.5,3.8,1.6c1.9,2,3.4,4.3,4.1,6.9c0.4,1.5,0.6,3.1,0.9,4.7c0.6,2.5,1.3,4.9,1.9,7.4c0.7,3.2,2,6.2,2.6,9.4
		c0.4,2.2,1.2,4.4,1.8,6.6c0.5,1.9,1.1,3.8,1.6,5.7c0.2,0.8,0.8,1.4,0.7,2.2c-0.2,2-1.8,2.6-3.1,3.5c-2.2,1.4-4.8,1.5-7.3,2.1
		c-3.4,0.8-6.8,1.4-10.2,2.1c-4.6,0.9-9.2,1.6-13.7,2.6c-4.1,0.9-8.2,2.1-12.4,2.8c-1.7,0.3-3.3,0.6-5.1,0.2
		c-1.9-0.4-2.7-1.6-2.8-3.1c-0.2-1.8-1-3.6-1.1-5.4c-0.1-1.4,0-2.7-0.1-4.1c-0.1-1.7-0.1-3.4-0.1-5.1c0-0.6-0.3-1.1-0.3-1.7
		c-0.2-3.5,0.2-7,0.1-10.4c-0.1-2.8,0.1-5.7-0.4-8.5c-0.6-3.3-0.6-6.5,0.7-9.7c0.5-1.3,1.4-2.1,2.6-2.7c2.5-1.3,5.3-2.2,8-3.1
		c1-0.3,1.9-0.7,2.9-1.1c1.7-0.8,2.5-2.1,2.5-4c0.2-3.2-0.5-6.4-1.2-9.5c-1.2-5-2.5-9.9-3.3-14.9c-0.4-2.3-0.7-4.5-0.5-6.9
		c0.1-1.4,0.5-2.7,1.7-3.6c1.5-1.2,3.2-0.8,4.3,0.7c1.4,1.9,1.8,4.2,2.5,6.3c1.1,3.4,1.8,6.9,2.2,10.4
		C206.3,47,206.6,49.1,206.5,51.1z M205,51.3c0.1-2-0.1-4-0.3-5.9c-0.3-2.5-0.8-5-1.4-7.4c-0.8-3-1.5-6-2.8-8.9
		c-0.7-1.5-1.5-1.6-2.7-0.5c-0.4,0.4-0.7,0.9-0.9,1.4c-0.4,1.2-0.3,2.4-0.2,3.5c0.4,4.5,1.4,8.8,2.4,13.2c1.1,4.7,2.4,9.4,2.7,14.3
		c0.2,3-0.9,5.3-3.2,6.3c-3.6,1.4-7.1,2.8-10.7,4.3c-1.1,0.5-1.6,1.2-2,2.1c-1,2.5-1.2,5-0.9,7.6c0.4,3.8,0.5,7.5,0.7,11.3
		c0.1,1.9-0.2,3.8-0.2,5.6c-0.1,2.2,0.5,4.3,0.5,6.5c0,2.4,0.2,4.9,0.2,7.3c-0.1,2.3,0.9,4.4,1.1,6.6c0.1,1.2,0.9,1.6,2,1.7
		c1.7,0.2,3.5,0,5.1-0.4c3.1-0.8,6.3-1.4,9.4-2.3c3.8-1.1,7.8-1.6,11.7-2.4c5.7-1.1,11.4-2,17-3.4c2-0.5,3.9-0.9,5.7-1.9
		c1.3-0.7,1.5-1.5,1-2.8c-0.3-0.9-0.7-1.8-0.9-2.7c-1.4-4.3-2.3-8.8-3.6-13.1c-1-3.4-2.1-6.8-3.1-10.3c-0.6-2-1.2-4-1.5-6.1
		c-0.4-3.5-1.8-6.5-4.1-9.1c-0.5-0.6-1.2-1-2.1-1.1c-3-0.3-5.9,0.4-8.9,0.6c-1.4,0.1-2.9,0.5-4.3,0.3c-1.8-0.2-3.4-0.8-3.9-2.8
		c-0.4-1.3-0.7-2.7-0.9-4.1C205.3,56.4,205.3,53.9,205,51.3z"/>
	<path d="M35.3,93.1c-0.6,0.1-1.2,0.4-1.6,0.8c-2,1.7-3.9,3.5-4.4,6.1c-0.5,2.2-0.2,4.4,0.6,6.5c0.6,1.4,1.1,2.8,1.8,4.2
		c0.5,1,0.1,2.2,0.3,3.3c0.4,2.7,0.2,5.4,0.6,8.1c0.4,3.1,0.2,6.2,0.6,9.3c0.2,1.7,0.7,3.1,2.3,4.1c1.7,1,3.3,2.3,3.7,4.4
		c0.4,2.2,0.6,4.4,0.8,6.6c0.2,1.9-0.2,3.8,0,5.8c0.2,1.5-0.3,3.1-0.4,4.6c-0.3,3.3-0.6,6.6-0.6,9.9c0,2.9-1.7,4.7-4.5,5
		c-3.7,0.5-7.3,0-10.9,0c-4.1,0-8.2,0.1-12.3-0.3c-2.3-0.2-4.6,0.3-6.9-0.4c-1.6-0.4-2.3-1.6-2.8-2.9c-0.6-1.7-0.7-3.5-0.5-5.3
		c0.3-2.6-0.2-5.1-0.2-7.7c0-0.2-0.1-0.4-0.1-0.6c0.3-2.6,0.2-5.3,0.5-7.9c0.3-2.8,0.1-5.7,0.8-8.4c0.6-2.1,0.9-4.3,1.5-6.5
		c0.6-2.1,1.4-4.1,1.8-6.3c0.1-0.7,0.5-1.4,0.8-2.1c1-2.1,2.2-4.2,2.9-6.5c0.8-2.5,1.9-4.8,3-7.2c0.9-2.1,2.3-3.9,3.5-5.8
		c0.7-1.1,1.4-2.3,2-3.4c0.1-0.1,0.2-0.3,0.1-0.4c-0.2-0.1-0.3-0.1-0.5,0.1c-0.5,0.5-0.7,0.5-1.1-0.2c-0.5-0.8-1.6-0.8-2.5-0.8
		c-0.8-0.1-1.7,0-2.5-0.1c-1.2-0.2-1.4-0.6-1-1.7c0.4-1.2,0.9-2.4,1.6-3.5c0.8-1.4,1.4-3,2.5-4.2c2-2.4,4.6-4,7.8-4.6
		c2.7-0.5,5.4-0.5,8.1-0.2c1.7,0.2,3.3-0.2,5,0c2.4,0.2,4.8,0.5,7.2,0.3c0.6-0.1,1,0.1,0.8,1.1c-0.2,1.3,0,2.7,0.2,4.1
		c0.3,1.5,0,2-1.5,2c-1,0-2.1-0.1-3.1-0.2c-2.1-0.2-2.5,0.2-2.4,2.3c0.1,1.5-0.2,3,0.1,4.5c0.3,1.7,1.3,2.8,2.6,3.6
		c1.2,0.7,2.5,1.6,4.1,1.6c0.5,0,1,0.3,0.9,0.8c-0.1,0.6-0.7,0.7-1.2,0.5c-2.2-0.9-4.4-1.6-6.2-3.3c-1.2-1.3-1.3-2.8-1.5-4.3
		C35,96.2,35.6,94.7,35.3,93.1z M32.1,170.9c1-0.1,2-0.1,2.9-0.3c1.2-0.3,2.3-0.9,2.5-2.4c0.2-1.3,0.3-2.5,0.4-3.8
		c0.1-2.2,0.3-4.4,0.4-6.6c0-2,0.5-4,0.5-5.9c-0.1-2.9,0-5.8-0.3-8.7c-0.2-2.8-0.9-5.3-3.5-6.7c-1.8-1-2.8-2.6-3.2-4.6
		c-0.2-1.2-0.3-2.4-0.3-3.6c0-1.7,0-3.4-0.2-5c-0.3-3.1-0.3-6.3-0.8-9.4c-0.2-1.5,0-3.1-0.9-4.5c-1.2-1.9-1.3-4.2-1.6-6.3
		c-0.1-0.8-0.4-0.9-1.1-0.9c-2.3-0.1-4.7-0.2-6.9-1.4c-0.7-0.4-0.9,0.1-1.1,0.5c-0.5,0.9-1,1.8-1.5,2.7c-1.6,2.4-3.1,4.8-4.4,7.3
		c-1.8,3.6-3,7.5-4.8,11.1c-1.9,3.9-3.2,8-4.1,12.2c-0.6,2.8-1.4,5.6-1.5,8.5c-0.1,2.5-0.4,5-0.4,7.5c0,2.1-0.3,4.2-0.1,6.4
		c0.2,2.2,0.4,4.4,0.2,6.6c-0.2,1.6,0,3.2,0.6,4.7c0.4,1,0.9,1.7,2.3,1.9c1.9,0.2,3.9-0.2,5.8,0.2c1.8,0.4,3.6,0.2,5.3,0.3
		c2.8,0.1,5.6-0.2,8.3,0.1C27.2,170.8,29.7,170.4,32.1,170.9z M11.3,97.7c0.3,0.1,0.6,0.2,0.9,0.2c2.5-0.1,4.8,0.9,7.2,1.2
		c1.8,0.2,3.3,1.5,5.1,1.5c0.9,0,1.9,0,2.7,0.2c0.7,0.2,0.7-0.1,0.9-0.6c1.1-3.8,3.9-6.3,7-8.4c1.3-0.8,3.2-1.3,5-0.7
		c0.5,0.2,1.1,0,1.7,0.1c0.5,0,0.7-0.2,0.6-0.7c-0.2-1.4-0.3-2.7-0.4-4.1c0-0.5-0.2-0.5-0.5-0.5c-2.2,0.2-4.4-0.3-6.5-0.2
		c-1.9,0-3.8,0.2-5.6-0.1c-2.4-0.3-4.7-0.2-7.1,0.3c-2.7,0.6-5,1.9-6.8,4.1C13.6,92.5,12.6,95.2,11.3,97.7z"/>
	<path d="M148,70.8c-4,0-7.9-0.1-11.8,0c-2.7,0.1-5.5,0.2-8.2-0.1c-2.6-0.2-5.1,0.1-7.7-0.5c-0.2,0-0.4,0.1-0.6,0.1
		c-0.8,0-1.3-0.1-1.4-1.1c-0.3-4.2-1.2-8.4-2.5-12.4c-0.6-1.7-1.1-3.6-1.3-5.4c-0.1-1-0.5-1.9-0.9-2.8c-1-2.2-1.5-4.5-2.1-6.8
		c-0.5-2-0.6-4-0.7-6.1c-0.2-3.2-0.7-6.3-1.7-9.3c-0.9-2.6-1.8-5.2-2.4-7.9c-0.4-1.8-0.8-3.5-1.7-5.1c-0.4-0.8-0.7-1.8-1-2.7
		c-0.2-0.5,0.1-1,0.7-1.1c2.2-0.4,4.4-0.9,6.6-1.4c1.6-0.3,3.2-0.2,4.8-0.4c4-0.5,8-0.7,11.9-0.5c2.4,0.1,4.9,0.1,7.3,0.2
		c6.7,0.2,13.4,0.1,20.2,0.1c1.4,0,2.7,0.3,4.1,0.2c0.6,0,1,0.2,0.6,1.1c-0.7,1.8-0.9,3.8-0.9,5.8c0,2,0.1,4-0.3,5.9
		c-0.3,1.1-0.3,2.2-0.4,3.2c-0.3,2.9-0.4,5.8-0.6,8.7c-0.1,2.1-0.5,4.1-1.2,6.1c-0.3,1-0.4,2-0.8,3c-1.2,3.6-2.3,7.2-2.5,11.1
		c-0.2,2.8-0.6,5.7-0.9,8.5c-0.2,2.4-0.3,4.8-0.4,7.2c-0.1,1.3-0.8,2.1-2.1,2.4C149.5,70.7,148.7,70.9,148,70.8z M143.2,69.4
		c2,0,4.1,0,6.1,0c0.9,0,1.7-0.2,1.6-1.5c0-0.9,0-1.9,0.1-2.9c0.4-4.4,0.8-8.7,1.3-13.1c0.2-1.5,0.2-3,0.6-4.4
		c0.6-2.1,1.2-4.2,2-6.3c1.8-4.7,1.9-9.6,2.1-14.4c0-0.2,0.3-0.7-0.2-0.7c-0.7,0-1.3-0.5-1.9-0.6c-1.3-0.3-2.1,0.1-2.1,1.3
		c0.2,3-0.7,5.9-1,8.9c-0.3,3.5-0.9,7-1.2,10.5c-0.2,2.4-0.6,4.8-0.8,7.2c-0.2,2.2-0.5,4.4-0.5,6.7c0,0.7-0.1,1.5-0.6,2
		c-0.2,0.2-0.4,0.3-0.6,0.2c-0.3-0.1-0.3-0.4-0.2-0.6c0.4-1.2,0-2.4,0.2-3.5c0.6-4.2,0.8-8.5,1.3-12.8c0.4-3.2,0.9-6.3,1.1-9.5
		c0.2-2.7,0.9-5.4,1-8.2c0.1-2.4,1.8-4,3.8-3.5c0.6,0.2,1.3,0.7,1.7,0.5c0.6-0.3,0-1.2,0.4-1.8c0.1-0.1,0-0.4,0-0.6
		c0.4-3.8,0.4-7.7,0.8-11.5c0.1-0.6,0.7-1.4,0.1-1.8c-0.5-0.4-1.3-0.2-2-0.3c-5.4-0.4-10.9,0.1-16.4-0.2c-2.9-0.2-5.9,0-8.9-0.1
		c-2.7-0.1-5.3-0.3-8-0.1c-2.8,0.2-5.6,0.6-8.4,0.6c-2.9,0-5.7,0.8-8.5,1.3c-0.6,0.1-0.8,0.4-0.5,1c0.6,1.2,1.2,2.4,1.4,3.7
		c0.6,3.1,1.7,6.1,2.7,9.1c0.6,2,1.4,3.9,1.6,5.9c0.3,2.7,0.6,5.4,0.8,8.2c0.2,2.4,0.8,4.9,1.7,7.2c1.6,4.3,2.4,8.7,3.7,13.1
		c1,3.2,1.6,6.4,1.9,9.7c0.1,0.5,0.3,0.6,0.8,0.7c1.6,0.3,3.2,0.1,4.7,0.3c3,0.3,6,0.3,9,0.3C137.2,69.6,140.2,69.4,143.2,69.4z"/>
	<path d="M105.8,86.9c1.4,0.1,2.8-0.4,4.2-0.6c1.7-0.3,3.4-0.1,5.1-0.4c1.6-0.2,3.2,0.1,4.7-0.2c2.1-0.5,4.2-0.4,6.2-0.9
		c1.5-0.4,3-0.2,4.6-0.4c4.5-0.5,9.1-0.9,13.7-1.1c3.6-0.1,7.1-0.5,10.7-0.7c1.3-0.1,2.6,0,3.9-0.1c1.3-0.1,1.4-0.2,1.2-1.5
		c-0.2-1.5-0.4-3-0.6-4.5c-0.1-0.6,0.2-0.9,0.6-1c0.6-0.2,1.2-0.4,1.8-0.4c2-0.1,4-0.4,6-0.7c0.8-0.1,1.6-0.1,2.4,0
		c1,0,0.8,1.1,0.7,1.6c-0.4,2.8,0.3,5.5,0.3,8.3c0,1.7,0.4,3.3,0.7,4.9c0,0.2,0,0.3,0.1,0.5c0.5,1.7,0.5,1.7-1.2,2.3
		c-1.4,0.5-2.4,3.2-2,5c0.2,0.7,0.4,1.3,0.8,1.9c0.5,0.7,0.2,1.6-0.7,1.8c-1.9,0.4-3.9,0.7-5.8,1c-0.6,0.1-0.8-0.1-0.8-0.7
		c-0.2-1.8-0.6-3.5-0.9-5.3c-0.2-0.9,0.2-1.8-0.1-2.7c-0.1-0.3-0.1-0.5-0.5-0.4c-3.4,0.4-6.8,0.7-10.1,1.2c-3,0.4-5.9,0.4-8.9,0.6
		c-2.8,0.1-5.5,0.4-8.3,0.5c-5,0-9.9,0.6-14.8,1.4c-2.1,0.3-4.2,0.4-6.3,0.6c-2.2,0.2-4.4,0.3-6.6,0.4c-0.2,0-0.4,0-0.4,0.1
		c-0.8,1.2-1.4-0.3-2.1-0.2c-0.2,0-0.4-0.4-0.4-0.8c0-0.5,0.4-0.4,0.7-0.4c0.4,0,0.5-0.1,0.4-0.5c-0.2-1.3,0-2.7,0.1-4
		c0.1-0.7,0.2-1.6-0.3-2.2c-0.6-0.9-0.6-1.5,0.6-1.9C104.7,87,105.2,86.9,105.8,86.9z M113.9,87.4c-3.5,0-6.1,0.8-8.8,1
		c-0.5,0-0.6,0.4-0.4,0.8c0.5,1.4,0.4,2.9,0.2,4.4c-0.1,0.5,0,0.9,0.1,1.4c0.1,0.6,0.3,0.7,0.8,0.7c0.8,0.1,1.6-0.2,2.4-0.2
		c4.5,0,9-0.7,13.4-1.4c3.3-0.5,6.7-0.8,10-0.9c2.3-0.1,4.7-0.1,7-0.2c1.8-0.1,3.6-0.3,5.4-0.3c2-0.1,4-0.1,5.9-0.4
		c3.3-0.6,6.7-0.9,10-1.2c0.7-0.1,1-0.2,0.9-1c-0.2-1.5-0.3-3-0.3-4.5c0.1-1.7,0-1.7-1.6-1.6c-0.5,0-0.9,0-1.4,0
		c-2.1,0.1-4.2,0-6.2,0.4c-2.1,0.4-4.2,0.5-6.3,0.4c-1.9-0.1-3.7,0.1-5.6,0.3c-3.3,0.2-6.7,0.4-10,0.8c-2.3,0.3-4.7,0.3-7.1,0.7
		C119.3,87.1,116.2,87,113.9,87.4z M167.6,75.7C167.6,75.6,167.6,75.6,167.6,75.7c-1.8,0.2-3.5,0.4-5.3,0.6
		c-1.7,0.2-1.6,0.2-1.4,1.9c0.4,2.4,0.9,4.9,1,7.3c0.1,3.6,0.7,7.1,0.8,10.6c0,1.2,0.3,2.4,0.5,3.6c0.1,0.5,0.3,0.6,0.8,0.5
		c1.1-0.3,2.3-0.6,3.4-0.8c0.7-0.1,0.8-0.3,0.5-1c-1.3-2.8-0.1-6.4,2.4-7.5c0.5-0.2,0.4-0.5,0.4-0.8c-0.2-2.1-0.7-4.1-0.7-6.2
		c0-2.4-0.5-4.8-0.6-7.2c0-0.8-0.2-1.1-1-1C168.1,75.7,167.9,75.7,167.6,75.7z"/>
	<path d="M73.9,32c0,4.6-0.1,9.2-1.1,13.7c-0.3,1.5-1.2,3-2,4.4c-0.9,1.7-1.6,3.6-2.9,5.2c-2.3,3-4.7,5.9-7.7,8.3
		c-2.4,2-4.8,3.9-7.7,5.3c-2.7,1.3-5.6,1.8-8.4,2.6c-5.2,1.5-10.4,0.9-15.6-0.5c-3.2-0.9-6.3-2.1-9.3-3.7c-2.6-1.4-5-3.1-7-5.3
		c-1.8-1.9-3.8-3.7-5.2-6c-2-3.4-3.8-6.9-4.6-10.9c-0.6-3-1.5-6-1.4-9.2c0.2-3.3,0.5-6.6,1.4-9.8C3.7,22.5,4.8,19,7,16
		c1.1-1.6,2.5-3,3.9-4.3c4.4-4.2,9.5-7.4,15.2-9.7C28.9,0.8,32,0.6,35,0.2c2.9-0.4,5.8-0.2,8.7-0.2c1.6,0,3,0.5,4.5,1
		c1.4,0.4,2.8,0.6,4.1,1.2c3,1.5,5.9,3.2,8.4,5.4c2,1.7,3.7,3.7,5.3,5.7c4,4.7,6.7,10.1,7.6,16.2C73.9,30.4,73.9,31.2,73.9,32z
		 M38.9,71.3c4.4-0.1,8.7-1.5,12.7-3.4c3.7-1.7,7.1-4.1,9.9-7.1c1.8-1.8,3.7-3.5,5-5.7c1.4-2.3,2.7-4.6,3.8-7.2c0.8-2,1.7-4,1.9-6.2
		c0.3-3.6,0.5-7.2,0.3-10.8c-0.2-4.3-1.4-8.4-3.8-12c-2.5-3.8-5.3-7.3-8.6-10.4c-3.2-3-6.9-5.1-11.1-6.3c-3.3-1-6.7-1.4-10.2-1.4
		c-2.1,0-4.2,0.2-6.3,0.6c-2.5,0.5-5,0.9-7.4,1.9C22,5,19.1,7,16.2,8.9c-3.5,2.3-6.2,5.4-8.7,8.8c-1.3,1.7-1.9,3.7-2.7,5.6
		c-1.1,2.6-1.5,5.3-1.9,8.1c-0.4,2.7-0.8,5.4-0.3,8c0.7,3.7,1.3,7.4,3.1,10.9c1.3,2.6,2.2,5.4,4.3,7.6c2.5,2.5,4.7,5.4,7.7,7.3
		c2.3,1.5,5,2.4,7.5,3.5C29.6,70.5,34.1,71.1,38.9,71.3z"/>
	<path d="M214,224c0.2-5.6,1.3-10.9,3-16.2c1.3-4.1,2.9-8.1,4.2-12.2c0.5-1.6,0.9-3.2,1-4.9c0.1-1.6-0.7-3-1.7-4.3
		c-0.6-0.8-1.3-1.5-2.1-2.2c-2.2-1.8-2.8-4.2-2.6-6.8c0.3-3.7,0.7-7.4,1.3-11c1.1-6.1,1.9-12.3,2.6-18.5c0.4-3.4,1.1-6.7,2-10.1
		c0.6-2.4,1.7-3.2,4.1-3.3c4.3-0.1,8.4,0.9,12.4,2.4c1.7,0.6,3.4,1.2,5.1,1.7c1.4,0.4,1.6,1.8,1.9,3c0.7,3.7,0.2,7.5-0.3,11.2
		c-0.6,4-1.1,8.1-1.8,12.1c-0.7,4.1-1,8.3-2.1,12.3c-0.5,2-0.5,4-1.1,5.9c-0.3,1.1-0.7,2.2-1.3,3.2c-0.4,0.6-0.7,1.2-1.7,0.9
		c-0.6-0.1-1.2,0.5-1.9,0.7c-0.6,0.2-1.3,0.5-1.9,0.7c-2,0.6-3.1,2.2-4,3.9c-1.1,2.3-1.5,4.7-1.7,7.2c-0.6,5.3-0.8,10.6-1.3,15.9
		c-0.2,1.8-0.3,3.6-0.3,5.5c0,2.2-0.6,4.2-1.5,6.1c-1.1,2.3-3.3,3-5.6,3.4c-3.6,0.5-5.1-2.4-5-5.7C214,224.6,214,224.3,214,224z
		 M215,224c0,0.7,0,1.3,0,2c0,0.4,0.1,0.8,0.2,1.1c0.3,1.6,1.1,2.6,2.7,2.8c1.9,0.2,5-0.7,5.8-2.9c0.7-1.8,1.3-3.6,1.4-5.5
		c0-1.8,0.2-3.7,0.3-5.5c0.3-4.9,0.7-9.8,1.1-14.6c0.2-3.5,1-7,2.5-10.2c0.9-1.9,2.1-3.5,4.4-3.7c0.9-0.1,1.7-0.7,2.6-0.9
		c1.6-0.5,2.4-1.7,2.8-3.2c0.2-0.6,0.3-1.3,0.4-1.9c0.2-2.7,0.6-5.3,1.1-8c0.7-3.3,1.5-6.6,1.9-10c0.4-2.9,0.8-5.7,1.3-8.6
		c0.8-4.1,1.2-8.2,0.8-12.3c-0.2-1.7-0.6-3.1-2.6-3.5c-1.7-0.4-3.3-1-4.9-1.6c-3.5-1.2-7-1.7-10.7-1.7c-1.1,0-2.2,0.2-2.6,1.6
		c-0.7,2.3-1.4,4.7-1.8,7.1c-0.4,2.9-0.6,5.9-1,8.8c-0.5,3.8-1,7.6-1.8,11.4c-0.6,3.2-1,6.5-1.3,9.8c-0.2,1.8-0.4,3.6-0.2,5.5
		c0.3,2.5,2.1,4,3.7,5.6c2,2.1,2.8,4.4,2.1,7.1c-0.6,2.7-1.5,5.3-2.5,7.8c-0.7,1.8-1.5,3.7-2,5.6c-0.7,2.8-1.8,5.5-2.4,8.4
		C215.7,217.5,215.1,220.7,215,224z"/>
	<path d="M50.6,176.4c2,0.3,4.3,1.1,6.7,2.1c1.9,0.8,3.3,2.2,4.9,3.4c1.3,1,2.1,2.2,2.6,3.7c0.3,0.8,0.7,1.1,1.3,1.1
		c1.8,0.1,3.5,0.7,5.2,1.1c3.2,0.7,6,2.4,8.8,3.9c1.3,0.7,2.5,1.4,3.8,2c1.2,0.6,2.1,1.4,2.9,2.4c0.7,0.9,0,2-1.3,2.2
		c-1,0.2-1.9-0.2-2.8-0.2c-2.7,0.2-5.3-0.2-8-0.2c-2.9,0-5.8,0.4-8.7,0.5c-3.5,0.1-7,0-10.5,0.4c-2.7,0.3-5.4,0.1-8.1,0.2
		c-3.9,0.1-7.7,0.3-11.6,0.4c-2.7,0.1-5.5,0.4-8.2,0.5c-2.4,0-4.8,0.2-7.2-0.3c-1.7-0.3-3.6-0.1-5.4,0c-0.8,0.1-1.6,0.1-2.5,0.1
		c-0.3,0-0.6,0.1-0.7-0.2c-0.1-0.3,0-0.7,0.2-0.9c1.1-1.2,2.4-2.4,3.8-3.2c1.4-0.8,2.8-1.7,4.2-2.4c1.8-0.9,3.8-1.6,5.6-2.4
		c2-0.9,3.9-1.8,5.9-2.8c1.7-0.9,3.5-1.2,5.2-1.9c1.1-0.4,1.7-1,1.9-1.9c0.6-2.5,2.6-4,4.4-5.5C44.9,176.9,47.4,176.4,50.6,176.4z
		 M85.6,196.9c0-0.6-0.5-0.7-0.8-0.9c-3.3-2.3-7-4.1-10.6-5.9c-2.7-1.3-5.6-1.9-8.5-2.3c-1-0.1-1.5-0.4-1.8-1.2
		c-1.3-3.3-4-5.3-7-6.9c-0.4-0.2-0.9-0.4-1.4-0.6c-2.8-1.3-5.7-1.9-8.7-1.1c-3,0.8-5.5,2.6-6.8,5.4c-1,2.2-2.3,3.6-4.6,4
		c-1.1,0.2-2.2,0.6-3.2,1.1c-2.2,1.1-4.4,2.3-6.7,3.2c-3.5,1.4-6.8,3.1-9.9,5.1c-0.4,0.3-0.8,0.6-1.2,0.9c1.3,0.4,2.4-0.1,3.5,0.1
		c1.5,0.2,3,0.3,4.5,0.6c2.5,0.4,4.9,0,7.3-0.1c3.7-0.2,7.3-0.1,11-0.5c1.5-0.2,3-0.3,4.6-0.2c1.4,0.1,2.8,0.1,4.2-0.1
		c1.5-0.2,3.1-0.3,4.7-0.2c2.2,0.1,4.4-0.1,6.7-0.3c2.1-0.1,4.1-0.1,6.2-0.1c1.1,0,2.1,0.1,3.2-0.1c2.7-0.5,5.4-0.5,8.1-0.5
		C80.7,196.4,83.1,196.7,85.6,196.9z"/>
	<path d="M95.1,24.6c0.3,5.2-1.5,9.1-5,12.3c-2.2,2-3,4.5-3.1,7.4c0,1.4-0.3,2.8-0.6,4.2c-0.5,2.3-0.8,4.6-1,7
		c-0.3,2.6-0.5,5.2-0.7,7.8c-0.2,2.3-0.5,4.6-0.9,6.9c-0.3,1.6-1,3-2.1,4.3c-1,1.2-2.3,1.8-3.8,1.2c-1.3-0.6-1.6-2-1.7-3.3
		c-0.3-2.7,0.2-5.3,1-8c1.2-3.8,2.9-7.4,4.1-11.1c1.1-3.3,1.4-6.8,2-10.1c0.2-1.4,0.4-2.7,0.5-4.1c0.1-1.1-0.3-1.9-0.8-2.8
		c-0.8-1.2-1.6-2.4-1.9-3.8c-0.6-2.2-0.2-4.3,0.5-6.4c0.8-2.2,1.6-4.3,2.9-6.2c1.5-2.1,3.1-4.1,5.1-5.7c1.1-0.9,2.9-0.2,3.6,1.2
		c1,2.1,1.3,4.4,1.7,6.7C95.1,23.1,95,24.1,95.1,24.6z M93.8,26.2c0-3.8-0.7-7-1.6-10.2c-0.4-1.4-1.1-1.6-2.3-0.8
		c-0.3,0.2-0.6,0.5-0.9,0.7c-3.3,3.3-5.5,7.2-6.7,11.9c-0.7,3,0.1,5.3,1.8,7.6c0.8,1.2,1.3,2.4,1,3.9c-0.5,3.2-1,6.4-1.5,9.6
		c-0.3,2-0.7,4.1-1.6,5.9c-1.9,4.3-3.6,8.6-4.5,13.2c-0.4,1.9-0.4,3.9,0.5,5.8c0.4,0.9,1.1,1,1.8,0.6c0.7-0.4,1.4-0.9,1.7-1.8
		c0.8-1.9,1.3-3.8,1.6-5.9c0.1-1,0-2,0.1-3.1c0.2-1.9,0.4-3.7,0.6-5.6c0.2-2,0.4-4.1,0.7-6.1c0.3-2.3,0.8-4.6,1.1-6.9
		c0.4-3.2,0.5-6.4,3.2-8.8c0.6-0.5,1.2-1.1,1.8-1.7C92.6,32.1,94.1,29.2,93.8,26.2z"/>
	<path d="M117,24.7c2.1,0,3.6,1.2,5.2,2.3c0.3,0.2,0.5,0.5,0.2,0.9c-0.3,0.3-0.7,0.4-1.1,0.1c-0.6-0.4-1.1-0.9-1.7-1.3
		c-1.2-0.8-2.5-1.2-3.9-0.8c-0.6,0.2-1.4,0.4-1.1,1.3c0.7,1.8,0.8,3.7,1,5.5c0.5,3.6,1.6,7,2.2,10.5c0.4,2.4,0.6,4.8,0.9,7.1
		c0.3,1.8,0.5,3.6,1.1,5.3c0.7,2,0.8,4.2,1.4,6.3c0.2,0.5-0.2,0.9-0.6,1.1c-0.5,0.1-0.6-0.4-0.7-0.7c-0.5-1.6-0.4-3.4-1-5
		c-1.5-4.3-1.5-9-2.3-13.4c-0.4-2.1-0.8-4.2-1.4-6.4c-0.5-1.9-0.7-3.9-0.9-5.9c-0.1-1.1-0.3-2.3-0.8-3.3c-0.6-1.4-0.1-2.3,1.2-2.9
		C115.4,24.8,116.2,24.6,117,24.7z"/>
	<path d="M128.9,45.6c0.1,3.3,0.3,6.1,0.6,9c0.2,2.1,0.3,4.2,0.4,6.2c0,0.3,0,0.7-0.3,0.9c-0.2,0.2-0.4,0.4-0.7,0.3
		c-0.3-0.1-0.2-0.4-0.3-0.6c-0.2-1.6-0.2-3.1-0.2-4.7c0-1.8-0.3-3.6-0.5-5.4c-0.2-1.7-0.2-3.4-0.3-5.1c-0.2-2.6-0.8-5.1-1.1-7.7
		c-0.2-2.2-0.5-4.4-0.8-6.6c-0.2-1.4-0.4-2.8-0.8-4.2c-0.1-0.6,0.1-1,0.5-1.3c2.2-1.1,4.5-2.2,7.1-2c0.6,0,1.3-0.2,1.9,0.1
		c0.4,0.2,0.9,0.2,0.7,0.8c-0.2,0.5-0.6,0.6-1.1,0.4c-0.7-0.2-1.3-0.4-2-0.4c-1.8,0-3.5,0.5-5.2,1.3c-0.4,0.2-0.8,0.4-0.7,1
		c1.1,4,1.3,8.2,2,12.3C128.6,42.2,128.7,44.1,128.9,45.6z"/>
	<path d="M149.7,24.1c0.4,0.3,1.1-0.2,1.1,0.6c0,0.6-0.6,0.8-1.2,0.7c-0.7-0.2-1.3,0.2-2,0.4c-0.6,0.1-1.1,0.4-1.6,0.6
		c-0.8,0.3-1.8,0.6-2.3,1.1c-0.6,0.6,0,1.5-0.1,2.3c-0.3,3.6,0,7.2-0.5,10.8c-0.8,6.1-0.7,12.2-0.8,18.3c0,0.8-0.1,1.5-0.2,2.3
		c0,0.5-0.3,0.9-0.8,0.8c-0.5,0-0.4-0.5-0.4-0.8c0.1-1.6,0.2-3.2,0.2-4.8c-0.1-3.1-0.2-6.2,0.1-9.2c0.4-4.8,0.9-9.5,0.9-14.3
		c0-1.6,0-3.2-0.1-4.8c0-0.7,0.2-1.2,0.7-1.4C145,25.4,147.3,24.7,149.7,24.1z"/>
	<path d="M15.5,36.6c0.2-2.1,0.1-4.4,0.6-6.6c0.5-2.2,1-4.5,2.5-6.4c1.1-1.4,1.7-3.1,3.1-4.3c2.5-2.2,5.1-4.2,8.6-4.5
		c1.1-0.1,2.3-0.2,3.5-0.7c0.9-0.3,2,0,3-0.3c2-0.5,3.8,0.2,5.7,0.6c3.9,0.9,6.8,3.5,9.7,6c3.6,3,5.2,7.1,6,11.6
		c0.8,4.9,0.1,9.7-2.1,14.2c-1,2.1-2.7,3.7-4.2,5.4c-2.1,2.3-4.9,3.4-7.6,4.7c-2,1-4.4,1.2-6.7,1.5c-3.3,0.5-6.1-0.7-9-1.9
		c-1.7-0.7-3.5-1.5-5-2.6c-1.6-1.1-2.9-2.4-3.8-4.1c-1.7-3.1-3.9-6-4.2-9.7C15.6,38.6,15.6,37.7,15.5,36.6z M39.9,15
		c-3.2,0-5.5,0.4-7.7,0.7c-3.1,0.4-5.9,1.5-8.3,3.4c-3.4,2.6-5.1,6.2-6.2,10.3c-0.4,1.7-0.6,3.5-0.8,5.3c-0.2,2.4-0.2,4.7,0.4,7
		c0.5,1.8,1.6,3.2,2.4,4.9c1.4,3.1,3.7,5.3,6.8,6.8c1.5,0.7,3.1,1.2,4.6,2c1.2,0.6,2.6,0.8,3.8,0.9c2.3,0.2,4.5-0.1,6.8-0.8
		c4.6-1.5,8.6-3.8,11.5-7.7c4.1-5.5,4.9-11.8,3.3-18.3c-0.7-2.9-2.1-5.6-4.5-7.7c-1.6-1.4-3.3-2.8-4.9-4.1
		C44.7,16.1,42,15.1,39.9,15z"/>
	<path d="M227.4,156.4c-1-0.3-2.1-0.6-3.2-0.9c-0.4-0.1-0.5-0.4-0.5-0.8c0.1-0.5,0.5-0.5,0.8-0.4c1.1,0.2,2.2,0.5,3.3,0.8
		c0.4,0.1,0.6,0.5,0.5,0.9C228.3,156.4,227.9,156.3,227.4,156.4z"/>
	<path d="M235,172.9c1.1,0.1,2.1,0.1,3.1,0.3c0.5,0.1,1.2,0.3,1,1c-0.1,0.5-0.7,0.4-1.2,0.3c-0.9-0.2-1.7-0.2-2.6-0.4
		c-0.1,0-0.3,0-0.5,0c-0.5-0.1-0.9-0.4-0.9-0.9C234.2,172.5,234.8,173.1,235,172.9z"/>
	<path d="M240.8,158c-1-0.2-1.9-0.4-2.9-0.5c-0.5-0.1-0.8-0.5-0.8-1c0.1-0.5,0.5-0.4,0.9-0.3c1,0.2,1.9,0.3,2.9,0.6
		c0.4,0.1,0.8,0.4,0.7,0.9C241.6,158.1,241.2,158.1,240.8,158z"/>
	<path d="M232.2,142.2c1,0.2,2,0.3,2.9,0.5c0.5,0.1,0.8,0.5,0.8,1c-0.1,0.6-0.6,0.3-1,0.2c-1.1-0.1-2.2-0.3-3.2-0.6
		c-0.3-0.1-0.9-0.1-0.8-0.6c0.1-0.4,0.5-0.4,0.9-0.4C231.9,142.3,232.1,142.3,232.2,142.2C232.2,142.3,232.2,142.3,232.2,142.2z"/>
	<path d="M231.8,161.6c-1-0.3-2.1,0-3.1-0.6c-0.3-0.2-0.7-0.3-0.5-0.7c0.2-0.4,0.5-0.5,0.9-0.4c0.9,0.2,1.8,0.3,2.7,0.4
		c0.4,0.1,0.9,0.3,0.8,0.8C232.6,161.6,232.1,161.5,231.8,161.6z"/>
	<path d="M229.4,167.3c1,0.2,1.9,0.4,2.8,0.6c0.5,0.1,0.8,0.6,0.7,1c-0.2,0.6-0.6,0.3-1.1,0.2c-0.9-0.2-1.8-0.4-2.6-0.6
		c-0.4-0.1-1-0.1-0.8-0.7C228.5,167.3,229,167.2,229.4,167.3z"/>
	<path d="M235.8,178.5c-0.6-0.1-1.6-0.2-2.5-0.2c-0.5,0-0.9-0.3-0.9-0.8c0-0.6,0.6-0.4,0.9-0.3c1.1,0.1,2.1,0.3,3.2,0.4
		c0.5,0,0.9,0.1,0.8,0.7c-0.1,0.6-0.6,0.3-0.9,0.3C236.3,178.5,236.2,178.5,235.8,178.5z"/>
	<path d="M238.5,162.4c-0.5,0.1-1.2-0.2-1.9-0.3c-0.4-0.1-0.6-0.4-0.6-0.7c0-0.5,0.4-0.5,0.8-0.5c1,0.1,2,0.2,2.9,0.3
		c0.4,0,0.7,0.3,0.7,0.8c0,0.6-0.5,0.4-0.9,0.4C239.2,162.4,239,162.4,238.5,162.4z"/>
	<path d="M226.1,168c-0.6-0.1-1.3-0.2-2.1-0.3c-0.5-0.1-0.9-0.3-1.1-0.7c-0.3-0.4-0.1-0.8,0.3-0.7c1.1,0.2,2.3-0.1,3.3,0.6
		c0.3,0.2,0.6,0.4,0.4,0.8C226.9,168.1,226.6,168.1,226.1,168z"/>
	<path d="M241.4,153.5c-0.8-0.1-1.6,0.3-2.4-0.1c-0.3-0.2-0.7-0.4-0.7-0.8c0.1-0.6,0.6-0.4,0.9-0.4c0.9,0,1.8,0.3,2.7,0.3
		c0.4,0,1,0.2,0.9,0.7C242.6,153.9,241.8,153.3,241.4,153.5z"/>
	<path d="M226.5,145.7c0.8-0.1,1.6,0.3,2.3,0.5c0.4,0.1,0.5,0.4,0.5,0.8c-0.1,0.5-0.4,0.4-0.8,0.3c-1-0.1-1.9-0.4-2.8-0.8
		c-0.3-0.1-0.7-0.2-0.6-0.6c0.1-0.4,0.5-0.2,0.8-0.3C226,145.7,226.3,145.7,226.5,145.7z"/>
	<path d="M238.1,170.2c-0.8-0.2-1.8-0.2-2.7-0.6c-0.3-0.2-0.6-0.4-0.5-0.8c0.1-0.4,0.5-0.4,0.9-0.3c0.9,0.2,1.8,0.3,2.7,0.5
		c0.4,0.1,0.6,0.4,0.5,0.8C238.9,170.2,238.5,170.2,238.1,170.2z"/>
	<path d="M239.2,165.8c-0.8,0-1.6-0.1-2.3-0.4c-0.3-0.1-0.8-0.4-0.6-0.8c0.2-0.4,0.6-0.4,1.1-0.2c0.5,0.2,1.1,0.3,1.7,0.3
		c0.6,0,1.4,0,1.4,0.8C240.4,166.2,239.6,165.7,239.2,165.8z"/>
	<path d="M220.8,179.1c0.6,0.1,1.3,0.2,2.1,0.3c0.5,0.1,0.8,0.2,0.8,0.8c0,0.6-0.6,0.5-0.9,0.5c-0.9,0-1.7-0.3-2.6-0.3
		c-0.4,0-0.8-0.4-0.7-0.9C219.8,178.8,220.3,179.1,220.8,179.1z"/>
	<path d="M231.1,164.9c-0.7-0.1-1.5-0.1-2.2-0.3c-0.4-0.1-0.9-0.4-0.8-1c0.2-0.6,0.6-0.4,1-0.3c0.7,0.2,1.4,0.2,2,0.3
		c0.5,0,0.9,0.1,0.9,0.8C232,165.1,231.5,164.9,231.1,164.9z"/>
	<path d="M229.7,182c-1-0.2-2-0.4-2.9-0.6c-0.5-0.1-0.9-0.5-0.8-0.9c0.1-0.5,0.6-0.1,1-0.1c1,0,1.9,0.3,2.9,0.5
		c0.4,0.1,0.6,0.4,0.6,0.7C230.4,182.1,230,182.1,229.7,182z"/>
	<path d="M234.5,152.9c-0.8-0.2-1.6-0.4-2.4-0.6c-0.3-0.1-0.6-0.3-0.5-0.7c0.1-0.3,0.3-0.6,0.6-0.5c0.9,0.3,1.8,0.1,2.7,0.5
		c0.3,0.2,0.7,0.4,0.6,0.9C235.4,152.8,234.9,152.8,234.5,152.9z"/>
	<path d="M226,141.3c0.8,0,1.5,0.1,2.2,0.5c0.4,0.2,0.7,0.5,0.6,1c-0.2,0.5-0.6,0.3-1,0.2c-0.7-0.2-1.4-0.4-2.1-0.6
		c-0.4-0.1-1-0.2-0.8-0.8C225.1,141.1,225.6,141.4,226,141.3z"/>
	<path d="M223.6,175.5c-0.8-0.1-1.5-0.2-2.3-0.2c-0.6-0.1-1.1-0.5-1-1.1c0.1-0.7,0.7-0.1,1-0.1c0.7,0.1,1.4,0.2,2.1,0.4
		c0.5,0.1,1.2,0,1.1,0.7C224.5,175.9,223.8,175.2,223.6,175.5z"/>
	<path d="M234.1,157c-0.7,0-1.5-0.1-2.1-0.6c-0.2-0.2-0.4-0.4-0.3-0.7c0.1-0.3,0.4-0.4,0.8-0.3c0.6,0.2,1.1,0.2,1.7,0.2
		c0.6,0,1.2,0,1.2,0.7C235.3,157.3,234.5,156.8,234.1,157z"/>
	<path d="M223.1,158.5c0.6,0.2,1.4,0.4,2.2,0.6c0.4,0.1,0.5,0.4,0.4,0.7c0,0.4-0.3,0.5-0.6,0.5c-0.9-0.1-1.8-0.3-2.6-0.7
		c-0.3-0.1-0.4-0.4-0.3-0.8C222.3,158.4,222.6,158.4,223.1,158.5z"/>
	<path d="M241.6,149.6c-0.4-0.1-1-0.1-1.5-0.3c-0.3-0.1-0.4-0.3-0.4-0.6c0-0.3,0.3-0.4,0.6-0.4c0.7,0,1.4,0,2.1,0.1
		c0.3,0,0.8,0.1,0.8,0.6c0,0.4-0.5,0.6-0.8,0.7C242.3,149.6,242,149.6,241.6,149.6z"/>
	<path d="M235.4,182.2c-0.9,0-1.7,0.2-2.5-0.4c-0.2-0.1-0.5-0.3-0.4-0.6c0.1-0.3,0.4-0.2,0.7-0.2c0.9,0,1.8,0.1,2.7,0.2
		c0.4,0,0.8,0.1,0.8,0.6c0,0.6-0.5,0.5-0.8,0.5C235.7,182.3,235.5,182.2,235.4,182.2z"/>
	<path d="M226.7,176c0-0.4,0.2-0.6,0.6-0.5c0.8,0.2,1.7,0.4,2.5,0.7c0.4,0.1,0.7,0.4,0.6,0.9c-0.1,0.6-0.6,0.3-0.9,0.3
		c-0.7-0.1-1.4-0.3-2.1-0.5C227,176.7,226.8,176.4,226.7,176z"/>
	<path d="M232.3,146.9c1.5-0.1,2.7-0.2,3.9,0.2c0.3,0.1,0.7,0.4,0.6,0.9c-0.1,0.5-0.6,0.3-0.9,0.3
		C234.6,148.2,233.5,147.8,232.3,146.9z"/>
	<path d="M241.4,144.8c-0.6-0.1-1.3-0.2-2-0.4c-0.2-0.1-0.6-0.1-0.5-0.5c0-0.3,0.3-0.4,0.5-0.4c0.8-0.3,1.7-0.2,2.5,0
		c0.4,0.1,0.8,0.5,0.7,0.9C242.4,145,241.9,144.8,241.4,144.8z"/>
	<path d="M230.4,173c-0.7-0.2-1.6,0-2.3-0.6c-0.2-0.2-0.5-0.4-0.4-0.7c0.1-0.3,0.4-0.3,0.7-0.3c0.9,0.2,1.8,0.3,2.7,0.5
		c0.3,0.1,0.4,0.4,0.4,0.6C231.3,173.2,230.8,172.8,230.4,173z"/>
	<path d="M224.5,164c-0.7-0.2-1.4-0.4-2.1-1c-0.2-0.2-0.3-0.3-0.2-0.6c0.1-0.3,0.4-0.4,0.7-0.3c0.7,0.2,1.3,0.3,1.9,0.6
		c0.4,0.1,0.6,0.5,0.5,0.9C225.3,164,224.9,163.9,224.5,164z"/>
	<path d="M225.4,149.8c0.5,0.1,1,0.2,1.4,0.3c0.4,0.1,0.6,0.3,0.6,0.7c0,0.4-0.4,0.7-0.8,0.6c-0.5-0.1-1,0-1.4-0.3
		c-0.3-0.2-0.8-0.4-0.8-0.9C224.5,149.6,225.1,150,225.4,149.8z"/>
	<path d="M222.8,171.6c-0.5-0.2-1.2-0.2-1.2-1.1c0-0.3,0.1-0.6,0.4-0.5c0.6,0.3,1.6,0.1,1.7,1C223.8,171.5,223.3,171.6,222.8,171.6z
		"/>
	<path d="M54.4,187.4c-0.9-0.2-2-0.1-3.1-0.2c-1.7-0.1-3.4,0.1-5.1,0.2c-0.6,0-1.2-0.2-1.8-0.4c-0.2-0.1-0.2-0.4-0.1-0.6
		c0.9-1.5,1.5-3.2,3.3-4.1c2.5-1.2,7.1,0.3,8.2,2.8c0.2,0.4,0,1.1,0.8,1.2c0.2,0,0.2,0.5,0.2,0.8c-0.1,0.4-0.4,0.2-0.7,0.2
		C55.5,187.3,55,187.4,54.4,187.4z M45.5,186.2c3.3-0.7,6.4,0.1,9.5-0.2c-1-0.8-1.4-2.2-2.9-2.5c-1.3-0.2-2.5-0.5-3.9-0.2
		C46.7,183.6,46.4,184.9,45.5,186.2z"/>
</g>
</svg>
