<?xml version="1.0" encoding="utf-8"?>
<!-- Generator: Adobe Illustrator 18.1.1, SVG Export Plug-In . SVG Version: 6.00 Build 0)  -->
<svg version="1.1" id="Ebene_1" xmlns="http://www.w3.org/2000/svg" xmlns:xlink="http://www.w3.org/1999/xlink" x="0px" y="0px"
	 width="250px" height="250px" viewBox="98 -99 250 250" style="enable-background:new 98 -99 250 250;" xml:space="preserve">
<g>
	<path d="M184.2-94.1c0.4-0.1,0.9-0.3,1.3-0.3c22.6,0.5,45.2-0.6,67.8,1c2.9,0.2,3.5,1.1,3.9,4.4c1.4,11.5-0.6,23.2,2.3,34.6
		c1,3.8,0.4,7.9,0.4,11.9c-0.2,22.5,1.9,44.8,2.8,67.2c0.5,12.2,1.9,24.5,2.8,36.7c1,13.5,2,27.1,2,40.7c0,12.5,1.4,25.1,3.1,37.6
		c0.7,4.9-1.5,5.5-4.9,5.6c-2.5,0.1-5.1,0.1-7.4-0.6c-6.1-1.7-12.2-0.8-18.2-0.6c-2.9,0.1-3.6-0.9-4.2-3.5
		c-3.5-15.1-5.1-30.3-5.9-45.8c-0.9-18.5-1.9-37-5.4-55.2c-1.6-8.6-2.3-17.4-3.4-26.3c-1.8,1.3-1.3,3-1.4,4.3
		c-0.4,11.6-2.7,23-2.4,34.6c0.1,3.4-1.4,6.4-1.6,9.7c-1.1,22.9-3.2,45.8-6,68.6c-0.4,3.4-0.6,6.9-0.4,10.4c0.3,4.7-2.7,5.8-5.9,4.8
		c-8.1-2.7-16.4-2.6-24.7-2c-2.3,0.2-3-0.3-3-2.5c0-16.6,1-33.1,2-49.6c0.7-10.9-0.5-21.9-0.8-32.8c-0.7-25.4-0.9-50.8,0.4-76.1
		c0.7-13-1.7-25.8-0.3-38.7c1-9.4,1.5-18.8,3.1-28.1c0.4-2.4-0.2-4.9-0.4-7.4c-0.1-1.2-0.2-2.6,1.5-2.6c1.5,0,1.6,1.3,1.5,2.6
		c-0.2,5.6,0.2,11.3-0.8,16.8c-2.8,15.7-0.9,31.4-1,47.1c-0.2,18.8-0.8,37.5-0.9,56.3c-0.1,11.1,0.4,22.3,0.7,33.4
		c0.5,22.8-1.1,45.5-1.7,68.3c-0.3,11.1-0.3,11.1,11,11c4.2-0.1,8.3,0.9,12.2,2.1c2.7,0.8,3.6,0,3.7-2.6c0.9-23.6,4.8-47,5.5-70.6
		c0.4-14.9,3.1-29.7,4.3-44.6c0.8-9.2,0.8-18.6,1.2-27.8c0.3-7,0.7-14,1.1-20.9c0.1-1.5-0.1-3.2,2-3.3c2.3-0.1,2.8,1.8,2.6,3.5
		c-1,13,1.5,25.8,2.4,38.7c0.5,7.9,1.8,15.8,3,23.7c2.2,14.9,3.9,29.9,4.4,45c0.5,17.3,3,34.3,5.8,51.3c0.5,3.3,1.2,6.5,6,6.1
		c5.8-0.6,11.5,0.2,17.3,1.2c4.8,0.8,5.2-0.6,4.9-5.2c-1-14.4-1.9-28.7-2.4-43.1c-0.7-20.1-3.1-40.1-4.2-60.1
		c-0.8-14.5-1.3-28.9-2-43.4c-1.2-25.1-2.5-50.1-3.8-75.2c-0.2-3.8-0.7-6.4-6-6.6c-9-0.4-17.9-0.2-26.8,0
		c-12.3,0.2-24.6-1.3-36.8-2.1C184.2-93.3,184.2-93.7,184.2-94.1z"/>
</g>
</svg>
