<?xml version="1.0" standalone="no"?>
<!DOCTYPE svg PUBLIC "-//W3C//DTD SVG 20010904//EN"
 "http://www.w3.org/TR/2001/REC-SVG-20010904/DTD/svg10.dtd">
<svg version="1.0" xmlns="http://www.w3.org/2000/svg"
 viewBox="0 0 130.000000 130.000000"
 preserveAspectRatio="xMidYMid meet">
<metadata>
Created by potrace 1.12, written by Peter Selinger 2001-2015
</metadata>
<g transform="translate(0.000000,130.000000) scale(0.100000,-0.100000)"
fill="#000000" stroke="none">
<path d="M400 1196 c-5 -15 -10 -36 -10 -46 0 -10 -4 -29 -9 -42 -23 -60 -25
-132 -19 -738 l3 -295 25 2 c142 13 170 17 170 22 0 25 24 209 40 316 11 72
22 163 24 203 3 41 7 76 9 79 3 2 8 -33 12 -79 4 -46 14 -132 22 -193 8 -60
18 -158 22 -217 3 -58 8 -109 11 -111 3 -3 51 -3 108 0 l102 6 0 106 c-1 58 4
140 10 181 6 41 8 113 6 160 -3 47 -8 130 -11 185 -3 55 -8 125 -10 155 -3 30
-7 79 -10 108 -6 66 -34 205 -43 213 -4 4 -74 3 -156 -1 -82 -5 -159 -6 -170
-4 -12 2 -42 7 -68 10 -45 6 -48 5 -58 -20z m105 -4 c22 -5 105 -6 185 -2 80
3 146 6 147 6 0 -1 3 -14 6 -31 3 -16 10 -50 15 -75 6 -25 13 -74 16 -110 4
-36 9 -87 11 -115 18 -179 24 -408 13 -465 -5 -25 -9 -99 -11 -165 l-2 -119
-85 1 -85 1 3 65 c2 36 -6 125 -17 199 -30 193 -51 374 -51 443 0 54 -12 97
-23 85 -3 -3 -8 -70 -11 -150 -8 -165 -16 -237 -45 -402 -12 -64 -21 -136 -21
-160 0 -81 -2 -84 -90 -94 l-80 -9 2 135 c0 74 1 149 0 165 -1 17 -1 66 0 110
0 44 -1 163 -2 265 -3 182 3 275 20 335 4 17 11 47 15 68 5 32 9 36 28 32 12
-3 40 -9 62 -13z"/>
<path d="M0 111 c0 -5 29 -24 65 -41 46 -23 65 -37 65 -51 0 -10 5 -19 10 -19
6 0 10 11 10 25 0 20 -12 30 -71 60 -77 38 -79 39 -79 26z"/>
</g>
</svg>
