<?xml version="1.0" encoding="utf-8"?>
<!-- Generator: Adobe Illustrator 18.1.1, SVG Export Plug-In . SVG Version: 6.00 Build 0)  -->
<svg version="1.1" id="Ebene_1" xmlns="http://www.w3.org/2000/svg" xmlns:xlink="http://www.w3.org/1999/xlink" x="0px" y="0px"
	 width="250px" height="250px" viewBox="0 0 250 250" style="enable-background:new 0 0 250 250;" xml:space="preserve">
<g>
	<path d="M6.8,83.1c4-6.8,10.5-3.8,16-5.4c-1.3-4.9,0.1-9.5,2-14.2c11.3,2.8,21.8-1.9,32.7-2.2c1-3,2-5.8,2.9-8.6
		c6.1,1,11.7,1,17.5-0.1c3.9-0.7,7.9-0.6,11.9-0.5c2.6,0.1,4.1,1.7,4.5,4.4c0.6,3.6,1,7.1,1.2,10.7c6.8,0.1,6.6,0,8.6-5.8
		c1.3-3.9,1.7-8.1,3.8-11.7c8.6-0.4,17.1-0.5,25.4-1.3c8.7-0.9,17.5-1,26.2-2.5c5.2-0.9,10.6-0.9,15.8-0.4c4.1,0.4,7.8,2.7,8.8,7.2
		c1.4,6.1,6,8.2,11.4,9.6c0.9-3.9,0.1-7.8,0.7-12c9.7,1.7,19.3,1.1,28.7,0.5c3.3,2.7,4.1,6.1,4.4,9.9c0.2,2.4,0,4.9,3,6.2
		c1.6,0.7,2.1,2.8,2.5,4.7c1.2,6.8,3.6,13.6,3.6,20.4c0,8.2,2.3,15.9,2.8,23.9c0.3,6.1,2.2,12.1,2.5,18.2c0.5,8.8,1.3,17.5,1.7,26.3
		c0.4,7.4-1.8,14.8-1.4,22.3c0.1,1.3,0,2.7,0.2,4c1.3,7.2-2.4,11.3-9.8,10.7c-4.1-0.4-8.2-1.3-12.3-1.5c-9.9-0.4-19.8-0.4-29.7,0
		c-7,0.3-14.1,1-21.2,0c-3.7-0.5-7.9,2-11.7,3.6c-12.3,5-24.9,5.7-37.4,1.6c-4.5-1.5-9-3.2-13.4-5.4c-4.3,2.4-9.1,1.1-13.5,1
		c-13.4-0.4-26.7-0.6-40.1-0.3c-12.1,0.3-24.2,0.3-36.3-0.7c-5.5-0.5-7.4-2.3-8.9-7.6c-3.2-11.4-4-23.1-4.6-34.8
		c-0.5-10.1,0.4-20.2,1.2-30.3c0.6-7.5,0.2-15,0-22.4c-0.1-3.7,0.2-7.2,0.9-10.8C8,87.5,8.2,85.3,6.8,83.1z M104.2,194
		c0-0.9-0.5-1.4-1-1.8c-7.3-5.1-11.9-12.3-15.6-20.1c-3.4-7.1-5.8-14.6-7.5-22.4c-2.2-9.9-1.9-19.4,1.7-28.6
		c5.3-13.4,14.3-24.1,27-30.7c5.4-2.8,10.8-6.1,16.9-7.7c4.3-1.1,8.6-2.6,13-3c17.5-1.8,32.6,4.3,46.4,14.5c4,2.9,8.1,6.2,10.8,10.2
		c3.7,5.4,7.4,11,9.5,17.3c4,12.5,5.8,24.9,0.2,37.4c-1.8,3.9-3.7,7.8-5.3,11.7c-2.8,7-7.6,12.2-13.3,17c-2.6,2.1-6.1,2.6-8.5,5.3
		c1.7,0.5,3.1,0,4.6-0.1c6.9-0.4,13.8-1.4,20.7-1.1c9.9,0.4,19.8,0.3,29.7,1.4c6.5,0.7,8.7-1.8,7.4-8.2c-1-4.6-0.8-9.2-0.2-13.8
		c0.8-5.2,1.2-10.5,0.6-15.8c-1.4-13.7-1.8-27.4-4.1-41c-1.1-6.2-1.3-12.5-3.1-18.9c-3.5,0-7,0-10.5,0c-7.8,0.1-15.4-2.2-23.3-2
		c-6.8,0.1-8.5-1.2-10-7.8c-2.5-10.5-4.7-21-9.8-30.7c-1.1-2.1-1.9-4.1-4.1-5.8c-22.2,0.9-44.5,3.5-66.7,4.1
		c-0.9,2.1-1.2,3.7-1.1,5.4c0.3,4.3-1.3,8.7-2.8,12.3c-2.8,6.7-4.9,13.7-7.2,20.5c-1.7,5.2-6.7,10.2-12.4,10.1
		c-9.3,0-18.5,0.9-27.8,1.3c-10.1,0.5-20.3,0.8-30.4,0.6c-5.4-0.1-10.9-0.8-16.9,0.2c-1,28.8-4.6,57.5,3.8,85.9c2.3,2.6,6,2.5,9,2.5
		c11.6-0.2,23.1,1.1,34.6,0.6C73.7,192.2,89,193.1,104.2,194z M82.7,139.8c-0.2,3.2,0.6,6.9,1.4,10.6c3.4,15.9,9.7,30.2,23,40.6
		c5.2,4.1,11.4,6.1,17.5,8.1c8.1,2.8,16.5,3.4,24.9,0.6c6.7-2.3,13.7-3.9,20.3-6.4c7.3-2.8,14.2-6.3,19.9-12
		c3.5-3.5,5.4-7.9,7.5-12.2c3.6-7.3,7.3-14.7,7.7-22.9c0.4-10.5-1.1-20.8-6.4-30.3c-7.4-13-18.4-21.6-31.8-27.9
		c-12.2-5.7-24.5-6.1-37.1-3.4c-11.6,2.4-21.5,9.2-30.1,16.5C88.3,110.8,82.2,123.9,82.7,139.8z M100.3,72.2
		C84.7,72.6,70,75,55.4,77.7c-14.6,2.8-29.6,3.1-44.2,5.8c0.8,5.2-3,9.7-0.4,14.9c3.3-0.6,6.4,1.8,9.7,0.9
		c5.8-1.4,11.6,2.7,17.3-0.1c7.6,2,15.1-0.5,22.7-0.3c7.3,0.3,14.5-1.2,21.8-1.1c3.5,0.1,6.9-0.8,9.5-4.2
		C96.5,87.4,97.5,79.8,100.3,72.2z M188.1,64.5c4.1,7.9,4.8,16,7.8,23.4c1,2.6,2.4,3.7,5.1,3.6c4.6-0.1,9.3,0.2,13.9,0.7
		c6.2,0.7,12.4,2,18.9,0.7c1.4-7.9-3.1-14.7-3.2-21.9c-0.9-1.2-2.1,0.3-2.2-0.2c-0.9-4-4.2-3.2-6.8-3.2
		C210.6,67.5,199.8,66.9,188.1,64.5z M61.4,72.9c10.2-2.4,20.8-3.8,31.3-4.9c0.6-4.3-0.7-7.7-1.1-11.4c-10-0.5-19.4,2.3-29,1.6
		C61.4,63.1,57.8,67.4,61.4,72.9z M55.9,66.1c-9.5,1.4-19.2,3.2-29.1,2.5c-0.4,3.4-2.3,5.9-0.7,8.8c10.6-1.6,21.2-2.8,31.6-4.9
		C58.4,70.1,57.9,68.2,55.9,66.1z M225.8,56.2c-8.9,0-17.3,0-25.4,0c-1.2,2.2-1.7,3.9-0.8,6.1c8.8,1.6,17.9,1,27.3,1.8
		C226.5,61.1,226.2,58.7,225.8,56.2z"/>
	<path d="M178.9,76c-2.7,1.1-5.3,1.8-8,1.3c-10.9-2.1-22-2.5-33.1-2.8c-6.3-0.2-12.6,0.2-18.9,0.2c-5.1,0-6.9-2.4-5.1-7
		c0.4-1.1,0.9-2.1,1.3-3.2c2-6,2.9-7,8.8-5.8c12.1,2.3,24.3,1,36.4,1c12.9,0,13.4,1.6,17.4,12.7C178.2,73.2,178.5,74.4,178.9,76z
		 M118.2,70.5c18.6-0.5,37,0.5,55.9,1.5c-0.9-3.5-1.6-6.2-3.5-8.2c-6.2-1.2-12.3-1.5-18.5-0.9c-9.6,0.9-19.1,1.3-28.6-1.2
		c-2.1-0.6-3.7,0.8-4.2,2.7C119,66.3,117.9,68.1,118.2,70.5z"/>
	<path d="M188.3,137.4c-1.2,17.9-6.6,31.5-17.6,42.4c-7,6.9-16.2,8.8-25.6,9.3c-7.1,0.4-14.3-0.5-20.5-4.1
		c-15.9-9.1-24.6-22.6-23.9-41.4c0.2-6,1.2-11.9,2.5-17.7c1.2-5.4,5.5-9,9.3-12.7c3.8-3.7,8.3-6.6,12.5-9.6
		c4.4-3.1,10.1-3.8,15.7-3.3c6.2,0.5,12.4,1.4,18.2,3.9c8.7,3.8,17.7,7.9,22.3,16.5C184.4,126.5,189.1,132.4,188.3,137.4z
		 M185.1,140.1c0.1-1.9-0.2-5.1-1.9-8.1c-1.7-3-3.6-6-4.2-9.5c-0.3-1.4-1.4-2.2-2.4-3.1c-7.4-6.9-16.4-10.6-25.8-13.4
		c-3.9-1.2-8.2-1.4-12.3-1.4c-9.7,0-17.3,5.2-24.1,11.3c-5.4,4.8-8.7,10.7-9.9,18.3c-1.9,12.2-2.1,23.8,5.9,34.1
		c4.5,5.8,9.6,11,16.8,13.5c7.5,2.5,15.1,3.8,23,2.5c7.8-1.3,15.4-3.4,20.8-9.6c4.1-4.7,8-9.8,10.3-15.8
		C183.2,153.4,185.2,147.7,185.1,140.1z"/>
</g>
</svg>
