<?xml version="1.0" encoding="utf-8"?>
<!-- Generator: Adobe Illustrator 18.1.1, SVG Export Plug-In . SVG Version: 6.00 Build 0)  -->
<svg version="1.1" id="Ebene_1" xmlns="http://www.w3.org/2000/svg" xmlns:xlink="http://www.w3.org/1999/xlink" x="0px" y="0px"
	 width="250px" height="250px" viewBox="-172 295.9 250 250" style="enable-background:new -172 295.9 250 250;"
	 xml:space="preserve">
<g>
	<path d="M-62.7,462.7c-11.9-4.2-23-9.1-34.7-11.8c-8.4-2-17.5,0-26.3,0.4c-7.7,0.3-15.5,0.2-23.3,0.1c-2.2,0-3.4-1.7-4.5-3.5
		c-6-9.7-11.4-19.5-15.4-30.4c-5-13.5-2.7-26,0.9-38.6c3.2-11.1,8.4-21.5,15.1-31.2c9.5-13.6,21.8-24,36.6-31
		c5.8-2.8,12-5.3,18.5-6.9c8.3-2,16.8-0.6,25.1-2.2c4.3-0.8,6.1,2,5.7,6.4c-0.2,2.1-0.5,4.3-1.1,6.4c-3.5,11.4-2.2,22.8-1.3,34.4
		c0.9,11.2,0.4,22.5,0.5,33.7c0,4.5,0.4,9-0.1,13.5c-0.5,4.2,1.1,5.2,5,5c10.3-0.5,20.5-0.7,30.8-1.2c3-0.2,6.2-0.3,8.8,0.2
		c8.3,1.5,12-3.9,16-9c9.7-12.3,21.6-22.6,32.2-34c0.2-0.2,0.5-0.4,0.7-0.7c7.9-12.1,20.7-12,32.9-12.5c4.7-0.2,9.2-1,13.8-1.4
		c1.4-0.1,3.4-0.7,3.5,1.4c0,1.5-1.8,1.4-3.1,1.7c-5.9,1.2-11.9,1.1-17.8,1.1c-14.4,0-24.5,8.3-33.1,18.4
		c-7,8.3-15.7,14.9-22.3,23.4c-2.7,3.5-5.5,6.9-8.9,11.1c10.3,0,19.6,0,29,0c0.3,0,0.7-0.1,1-0.1c14.5-0.5,14.8-0.4,17.4,13.8
		c1.7,9.4,1,18.9-0.4,28.3c-0.6,4-2,4.9-6.6,4.8c-13.6-0.4-27.1-2.9-40.8-2.6c-11.1,0.2-22.1,0-33.2-0.1c-3.4,0-12.6,7.6-13.3,10.8
		c-0.4,1.8,1.3,1.8,2.2,2c15.7,3.4,29.4,11.9,44.2,17.3c1.5,0.6,2.1,0.5,3.3-0.5c8-6.8,22.6-10.8,34.5-0.3c1.1,1,2.2,2.2,2.7,3.5
		c2.4,7.1,6.2,14,3.7,22c-0.5,1.7-0.7,3.5-0.8,5.3c-1.1,10.4-11.5,21.3-20.8,21.8c-12.1,0.7-24-8.7-26.8-20.3
		c-2.2-9.1,0.1-17.4,3.4-25.6c0.8-2,1-2.8-1.1-3.6c-15.3-5.6-29.5-14-45.5-18c-2.1-0.5-2.8,0.5-3.6,1.5c-5.7,6.7-11.2,13.6-17.2,20
		c-3.4,3.6-2.3,6.5-0.2,9.8c2.5,4.2,4.2,8.4,3.5,13.6c-1,7.6-4.7,13.5-10.6,17.6c-10,6.8-23,10.1-32.8-0.5
		c-11.4-12.4-11.3-22.7-5.6-36.6c2.7-6.5,14.3-12.4,21.4-11c5.7,1.2,11.4,2.7,15.8,6.8c1.9,1.7,3.2,1.7,4.9-0.3
		C-75.3,477.6-69.2,470.4-62.7,462.7z M-16.9,409.7c-2.2-0.2-3.4-0.3-4.5-0.3c-13.4,0.5-26.9,0.9-40.3,1.6c-1.7,0.1-3.7-1.5-5.1,0.5
		c-2.3,3.2-3,1.7-3.3-1.1c-0.3-2.1-0.9-4-0.9-6.2c0.4-13.6,0.6-27.2,0.5-40.7c-0.2-16.4-4-32.9,1.3-49.2c0.6-1.7,0.5-3.5-2.2-2.9
		c-7,1.4-14.4,0-21.3,1.6c-17.7,4.3-33.5,12.4-46.2,25.8c-15.5,16.3-24.3,35.9-26.9,58.1c-0.7,5.7-1.2,11.6,0.5,17.3
		c3.1,10.5,7.3,20.6,13.8,29.6c1.7,2.4,3.3,4,6.3,4.1c4,0.1,7.9,0.3,11.9,0.4c15,0.5,29.9-2.2,45-1.2c11.7,0.7,23.6-0.4,35.4-0.4
		c3.8,0,6.3-1.3,8.9-4.1C-34.7,432.2-27.6,420.3-16.9,409.7z M-41.7,445.6c1.1,1.2,2.3,0.7,3.4,0.7c15.9-0.7,31.9,0.5,47.8,0.5
		c7.2,0,14.5,1.4,21.8,0.9c2.1-0.1,3.1-0.9,3.4-2.7c1.6-10.2,2.6-20.3-0.4-30.5c-1.1-3.7-3-5-6.7-5c-12.1,0.1-24.3,0-36.4-0.1
		c-2.9,0-4.8,1.1-6.7,3.4C-24.5,423.4-33.3,434.2-41.7,445.6z M23,494.9c-2.5,2.9-5.1,1.2-7.3,0.1c-6.1-2.8-12.1-6-18.2-9
		c-1.4-0.7-2.8-2.1-3.8,0.7c-2.8,7.8-5.9,15.4-3.9,24.1c2.5,10.8,11.6,18.5,21.4,17.6c9.6-0.8,19.3-11.1,19.9-21
		c0.2-2.6,0.8-5.2,1.2-7.8c1.9-11.8-6.6-24.1-16.8-23.8C8.9,476,2.7,477.7-2.9,482c4.5,2.3,8.7,4.5,13,6.6
		C14.3,490.8,18.6,492.8,23,494.9z M-77.8,503.9c0.7-2.3-1.1-5-2.7-8c-1.6-3.1-2.6-3.1-4.7-0.4c-4.5,5.5-9.2,10.8-14,16.1
		c-1.3,1.5-3.4,3.4-5,1.8c-2.2-2.2,1.1-3.2,2.2-4.4c4.8-5.3,9.5-10.6,14.2-16c2.6-3,1.1-4.2-1-5.7c-12.2-9-27.5-4-32.9,10.4
		c-4,10.5-1,19.1,6.4,26.6c7.3,7.4,15.5,5.3,23.4,1.3C-83.7,521.4-77.6,515.4-77.8,503.9z M-51.9,450.2c-11.5,0-22.8,0-34.2,0
		c2.6,1.9,5.2,3,7.8,3.9c2.7,0.9,5.4,1.6,8.1,2.5c11.1,3.5,11.1,3.5,18.2-5.8C-51.9,450.7-51.9,450.5-51.9,450.2z"/>
</g>
</svg>
