<?xml version="1.0" standalone="no"?>
<!DOCTYPE svg PUBLIC "-//W3C//DTD SVG 20010904//EN"
 "http://www.w3.org/TR/2001/REC-SVG-20010904/DTD/svg10.dtd">
<svg version="1.0" xmlns="http://www.w3.org/2000/svg"
 viewBox="0 0 130.000000 130.000000"
 preserveAspectRatio="xMidYMid meet">
<metadata>
Created by potrace 1.12, written by Peter Selinger 2001-2015
</metadata>
<g transform="translate(0.000000,130.000000) scale(0.100000,-0.100000)"
fill="#000000" stroke="none">
<path d="M643 1174 c-6 -15 2 -173 11 -229 3 -16 8 -48 12 -70 3 -22 7 -53 8
-70 l1 -30 -131 -3 -131 -3 -68 75 c-59 66 -73 76 -117 85 -60 13 -78 14 -78
2 0 -5 15 -12 33 -15 17 -3 43 -8 57 -11 22 -4 129 -109 130 -127 0 -5 -27 -8
-60 -8 l-59 0 5 -47 c2 -27 6 -74 8 -107 3 -43 9 -64 25 -80 21 -20 30 -21
190 -18 l167 2 37 -36 c20 -21 37 -41 37 -45 0 -4 -22 -29 -48 -56 l-48 -48
-54 27 c-94 47 -138 36 -175 -44 -35 -76 -19 -137 48 -179 25 -16 45 -19 94
-17 53 3 67 8 93 33 17 16 33 39 36 51 4 16 16 23 42 28 65 10 80 7 88 -16 9
-30 37 -56 79 -74 44 -18 65 -18 115 2 47 19 70 56 73 114 1 44 -10 60 -71
102 -37 25 -51 29 -90 26 -26 -3 -54 -8 -63 -12 -18 -8 -69 32 -69 56 0 8 20
32 44 52 41 33 50 36 108 36 35 0 79 5 99 10 34 10 36 12 49 77 7 37 12 83 12
102 -1 19 4 39 11 43 9 5 8 10 -5 20 -10 8 -19 35 -23 73 -9 80 -28 119 -92
186 -59 62 -163 120 -257 144 -70 18 -65 18 -73 -1z m106 -28 c97 -33 150 -66
205 -128 64 -71 84 -113 92 -193 l7 -67 -172 3 c-154 3 -172 5 -177 21 -20 64
-50 388 -35 388 5 0 41 -11 80 -24z m-329 -410 c14 -12 37 -36 51 -52 14 -16
56 -53 92 -83 37 -30 67 -57 67 -60 0 -3 -24 -6 -52 -7 -29 0 -97 -3 -150 -5
-127 -5 -133 0 -143 128 l-7 92 48 4 c27 2 54 4 59 5 6 1 21 -9 35 -22z m275
13 c6 -3 87 -5 182 -5 170 1 172 1 178 -21 9 -37 -16 -163 -34 -173 -14 -7
-86 -10 -327 -12 -24 0 -191 135 -224 182 l-20 29 37 3 c63 5 197 3 208 -3z
m78 -261 c-27 -27 -34 -30 -48 -18 -9 7 -21 22 -26 32 -9 16 -5 18 48 18 l58
0 -32 -32z m1 -104 c28 -24 28 -26 16 -70 -15 -52 -12 -50 -70 -59 -42 -6 -46
-4 -61 23 -17 30 -17 30 28 81 24 28 48 51 51 51 4 0 20 -12 36 -26z m233 -60
c37 -35 41 -64 18 -119 -26 -65 -112 -75 -169 -21 -60 56 -46 74 52 67 32 -2
45 15 18 25 -7 3 -28 23 -45 45 -32 39 -32 39 -10 47 33 13 98 -9 136 -44z
m-457 28 c33 -18 52 -42 33 -42 -16 0 -77 -60 -69 -67 8 -9 13 -9 79 -11 56
-2 61 -17 20 -62 -49 -52 -144 -45 -191 15 -27 34 -28 74 -2 125 32 63 69 74
130 42z m330 -74 c0 -4 -16 -8 -35 -8 -37 0 -42 8 -24 42 11 20 11 20 35 -3
13 -12 24 -26 24 -31z m-240 -20 c0 -4 -19 -8 -41 -8 l-42 0 28 26 c27 25 29
25 42 8 7 -10 13 -21 13 -26z"/>
</g>
</svg>
