<?xml version="1.0" encoding="utf-8"?>
<!-- Generator: Adobe Illustrator 18.1.1, SVG Export Plug-In . SVG Version: 6.00 Build 0)  -->
<svg version="1.1" id="Ebene_1" xmlns="http://www.w3.org/2000/svg" xmlns:xlink="http://www.w3.org/1999/xlink" x="0px" y="0px"
	 width="250px" height="250px" viewBox="0 0 250 250" style="enable-background:new 0 0 250 250;" xml:space="preserve">
<g>
	<path d="M17.5,182.9c-3.4-0.6-6.7,0.3-9.9-0.5c-0.7-0.2-1.2-0.2-0.5-1c0.2-0.3,0.1-0.6,0.1-0.8c-0.3-2.6,0.1-5.2,0.1-7.9
		c0-1.3-0.1-2.7-0.5-4c-0.1-0.4-0.1-0.8,0-1.1c0.5-1.3,0.2-2.7,0.3-4.1c0.1-2.1,0.1-4.3-0.2-6.4c0-0.2,0-0.4,0.1-0.6
		c0.2-1,0.3-2,0.3-3.1c0-2.1-0.3-4.1,0.2-6.2c0.2-1-0.3-2-0.2-3c0-2.4,0.1-4.9-0.1-7.3c-0.1-1.1,0.1-2.2,0.3-3.3
		c0.3-2.2,0.2-4.5,0.2-6.7c0-1.4,0.5-2.7,0.6-4.1c0-0.6,0.3-1.2,0.4-1.9c0.1-0.8,0.2-1.5,0.5-2.3c0.7-2,1.1-4,1.7-6
		c0-0.1,0-0.2,0.1-0.3c1.7-1.3,1.9-3.6,3.5-5c1-0.9,2.1-1.7,3.3-2.4c2-1.2,3.9-2.5,6-3.5c1.2-0.6,2.4-0.9,3.6-0.3
		c0.3,0.2,0.5,0.2,0.8-0.1c1.4-1.5,3.3-2.4,4.6-4c0.8-1,1.5-2.1,2.7-2.8c0.2-0.2,0.5-0.5,0.7-0.4c1.7,0.2,3-0.9,4.5-1.1
		c2.2-0.3,4.3-0.3,6.5-0.3c0.2,0,0.3,0.2,0.5,0.2c1.4,0.5,2.7,1.1,4.1,1.5c0.3,0.1,0.5,0.3,0.8,0.5c0,0,1.3,1.1,1.4,1.1
		c1.8,0.8,3.8,1.1,5.4,2.3c0.5,0.4,1.1,0.8,1.3,1.3c0.5,1.1,1.2,1.8,2.4,2.2c1.2,0.5,2.3,1.1,3.6,1.5c0.9,0.3,1.8,0.5,2.8,0.8
		c2.7,0.8,4.7,2.3,6.1,4.7c1.5,2.5,2.6,5.2,3,8c0.5,3.4,0.7,6.8,0.7,10.3c0,2.5,0.3,5,0.2,7.5c0,2.4,0.2,4.9,0.1,7.3
		c-0.1,2.3-0.1,4.6,0.2,6.9c0.2,1.6,0.2,3.3,0.1,5c-0.1,1.7,0.3,3.4,0.2,5.1c-0.1,3.5-0.4,7-0.9,10.5c-0.1,1-0.1,2-0.1,2.9
		c0,3.1-0.7,6.2-0.7,9.3c0,2.3-0.1,2.4-2.3,2.8c-1.8,0.4-3.7,0.7-5.6,0.6c-1,0-2.1-0.3-3-0.7c-0.6-0.3-1.1-0.3-0.9,0.6
		c0.4,2.6,0.4,5.3,0.7,7.9c0.5,3.8,0.9,7.6,0.6,11.3c-0.2,3,0.4,6-0.1,9.1c-0.4,2.3-0.3,4.7-0.2,7.1c0,0.6,0,1.3-0.4,2
		c-0.3,0.7,0,1.8,0.3,2.6c0.2,0.5,0.2,1,0.2,1.5c-0.2,2-0.2,4,0.3,6c0.1,0.5-0.5,0.8-0.8,1.1c-2.5,2.9-6,3.8-9.7,4
		c-3,0.1-6,0-8.9-0.3c-2.8-0.3-5.6-0.5-8.5-0.6c-3-0.2-5.9,0.5-8.6,1.9c-1.4,0.7-1.6,0.5-2.7-0.6c-0.5-0.5-1.3-0.6-2-0.8
		c-1.7-0.4-3.2-1-4.8-1.6c-0.5-0.2-1-0.4-1.1-1.1c-0.4-2.5-1.1-5-1.1-7.5c0-2.9-0.5-5.8-0.8-8.7c-0.2-2-0.5-4-0.7-5.9
		c-0.1-1.5,0-3.1-0.1-4.7c-0.1-2.1-0.1-4.3-0.4-6.4c-0.3-2.4,0.1-4.8,0.1-7.2c0-2.3-0.3-4.7-0.1-7c0.2-2.2-0.2-4.5,0.6-6.7
		c0.2-0.5,0.1-1.2,0-1.8c-0.2-3.5,0.2-6.9,0.7-10.3c0.3-1.9,0.5-3.8,0.1-5.7c-0.2-1.1-0.1-2.4,0-3.5c0.1-1.4,0.1-2.8-0.4-4.1
		c-0.2-0.6,0-1.1,0.1-1.7c0.1-1.7,0.1-3.4-0.2-5.1c-0.2-1.5,0.2-3,0.2-4.6c-0.1-2.5-0.4-5-0.7-7.5c-0.2-1.6-0.3-3.2-0.5-4.7
		c-0.2-1.3-0.2-2.6-0.7-3.8c-0.2-0.5-0.2-1.1-0.2-1.6c0-0.3,0-0.6,0.4-0.7c0.4,0,0.3,0.3,0.4,0.6c0.5,2.1,0.9,4.2,1.2,6.4
		c0.4,3.8,1.2,7.5,1.3,11.3c0.1,3.6,0.2,7.2,0.4,10.8c0.1,2.8,0.4,5.6,0.4,8.4c-0.1,2.5-0.2,5-0.6,7.5c-0.3,2.2-0.2,4.4-0.4,6.6
		c-0.3,4-0.1,8-0.5,12c-0.2,1.8-0.1,3.6,0,5.4c0.1,2.1-0.1,4.1,0,6.2c0.2,3.7,0.2,7.4,0.5,11.1c0.3,3.1,0.7,6.2,1.2,9.3
		c0.3,2.3,0.3,4.7,0.5,7c0.2,2,0.6,3.9,0.9,5.9c0.1,0.3,0.2,0.6,0.5,0.7c1.3,0.6,2.4,1.3,3.8,1.5c0.7,0.1,1.4,0.3,1.9,1
		c0.4-1,0.2-2.1,0.3-3c0.1-2.3,0.4-4.7,0.3-7c-0.1-2.3,0-4.7-0.1-7c0-1.9-0.5-3.9,0.1-5.9c0.3-1.1-0.2-2.5-0.1-3.7
		c0.2-2.8,0.6-5.5,0.8-8.2c0.2-2.8-0.1-5.6,0.3-8.3c0.4-2.6-0.1-5.3,0.3-7.9c0.4-2.8,0.3-5.6,0.4-8.4c0.1-3.5-0.1-7.1,0.1-10.6
		c0.2-2.4,0.3-4.9,0.7-7.3c0.4-2.2,0.8-4.4,1.6-6.4c1-2.2,1.1-4.6,2.1-6.8c0.2-0.5,0.9-0.6,0.9-1.3c0.1-0.9,0.4-1.6,0.1-2.7
		c-0.6-1.5-0.4-3.2-0.7-4.8c-0.5-2.3-1.5-4.4-2.6-6.6c-1.4-2.7-2.9-5.4-4-8.2c-0.6-1.7-1.5-3.3-2-5.2c-0.6-2.2-0.8-4.5-1.1-6.7
		c-0.2-1.5,0-2.9-0.2-4.3c-0.1-0.8,0.5-1.6,0.7-2.4c0.1-0.5,0.2-1,0.4-1.4c0.6-1,0-0.9-0.7-0.9c-1.7,0.1-3.2,0.9-4.5,1.9
		c-1.4,1-2.9,1.8-4.4,2.6c-1.6,0.9-2.7,2.1-3.6,3.5c-2.7,4.5-3.8,9.6-4.6,14.8c-0.7,3.9-0.1,7.9-0.8,11.8c-0.2,1.2,0.2,2.5,0.2,3.8
		c0,1.9,0,3.9,0,5.8c0.1,3-0.2,5.9-0.3,8.9c-0.2,3.3,0.2,6.6-0.2,9.9c-0.2,1.7,0,3.5,0.2,5.3c0.2,2.3,0.2,4.7-0.1,7
		c-0.2,1.4-0.1,2.8-0.1,4.1c0,0.5,0.4,0.5,0.7,0.5c2.2,0.1,4.5,0.1,6.7,0.2C16.3,181.8,17,181.9,17.5,182.9z M54.7,105.4
		c-0.5-0.5-0.8-1.1-0.4-1.8c0.1-0.2,0-0.6,0.1-0.9c0.1-1.4-0.6-2.7-0.8-4c-0.5-3.5-3.7-4.8-6.6-5.3c-1.1-0.2-2.2-0.1-3.4-0.1
		c-3.1,0-5.9,0.8-7.4,3.9c-1.3,2.8-2.3,5.8-1.9,9c0.3,2.1,0.4,4.3,1.4,6.2c0.7,1.5,1.4,3,2.3,4.4c1,1.8,2,3.7,3.4,5.3
		c0.7,0.9,1.4,2,1.6,3.2c0.2,1,0.4,2,0.6,3c0,0.2-0.1,0.6,0.3,0.5c0.2-0.1,0.5,0,0.7-0.5c0.4-1.3,0.9-2.6,1.5-4
		c0.8,0.7,0.3,1.3,0.1,1.9c-1.2,2.8-2.7,5.5-4,8.2c-0.8,1.7-1.6,3.4-2.5,5c-0.8,1.5-1.3,3.1-2,4.8c0.7-0.2,0.9-0.7,1.1-1
		c0.8-1.3,2-2.3,3.3-3.1c0.4-0.2,0.7-0.5,1-0.8c1-1,2.1-2,3.1-3.1c1.2-1.3,2.6-2.4,3.8-3.7c2.3-2.6,3.8-5.6,5.3-8.7
		c1.6-3.1,2.6-6.4,3.8-9.7c0.6-1.7,1.3-3.4,1.5-5.3c0.1-0.6,0.1-1.3,0.3-1.9c0.5-1.2,0.4-2.5,0.5-3.8c0.2-1.4-0.8-2.5-1.4-3.5
		c-1.2-1.9-3.4-2.5-5.6-3c-0.2,0.4,0.2,0.5,0.2,0.6c-0.3,1.5,0.7,2.8,1,4.2c0.3,1.4,0.1,2.6-0.4,3.8
		C54.8,105.3,54.8,105.3,54.7,105.4z M62.3,101.9c0.4,2.6-0.6,5-0.6,7.5c0,0.2,0,0.4-0.1,0.7c-0.7,2.2-1.7,4.3-2.3,6.6
		c-0.3,1-0.5,2-0.9,3c-1.2,2.7-2.3,5.4-3.8,8c-0.6,1-1.1,2-1.9,2.9c-0.8,0.9-1.1,2.1-2,2.9c-1.8,1.5-3.5,3.1-5.1,4.6
		c-1.3,1.3-2.4,2.9-4.2,3.6c-0.2,0.1-0.4,0.4-0.6,0.6c-1.2,1.2-1.9,2.9-3.5,3.9c-0.6,0.4-1,1-1.2,1.7c-0.8,1.8-1,3.9-1.7,5.7
		c-1.8,4.6-1.8,9.5-2.3,14.3c-0.3,2.2,0.2,4.4,0.1,6.6c-0.1,3.1-0.3,6.3-0.4,9.5c-0.1,3.4-0.2,6.9-0.4,10.3
		c-0.1,2.6-0.1,5.2-0.4,7.7c-0.4,3.7-0.5,7.4-0.8,11.1c-0.3,3.2,0.3,6.3,0.2,9.5c-0.1,3.3,0,6.6-0.2,9.9c-0.1,1.9,0,3.8,0,5.8
		c2.2-1.1,4.2-1.9,6.4-2.3c2.4-0.4,4.7,0,7,0c2.8-0.1,5.5,0.7,8.2,0.6c2.6-0.1,5.2,0.4,7.8,0c2.2-0.3,4.4-0.8,5.9-2.8
		c0.1-0.2,0.3-0.3,0.5-0.3c0.9-0.2,0.9-0.9,0.7-1.5c-0.4-1-0.5-2-0.5-3c0.2-2.8-0.1-5.5,0.1-8.3c0.1-2,0-4.1,0.2-6.1
		c0-0.3,0-0.8,0.2-0.8c0.8-0.1,0.5-0.3,0.2-0.6c-0.2-0.2-0.1-0.4-0.2-0.6c-0.1-0.7,0.2-1.4,0.1-2.1c-0.1-1.6-0.3-3.2-0.1-4.8
		c0.1-1.1-0.2-2.2,0.2-3.4c0.3-1,0-2.3-0.2-3.4c-0.4-2.3,0-4.6-0.5-6.8c-0.3-1.2,0-2.5-0.3-3.7c-0.3-1.2-0.3-2.4-0.2-3.7
		c-0.4,0.3-0.5,0.3-0.5,0.1c-0.1-1.4-0.3-2.9-0.2-4.3c0.1-2.1,0.1-4.1-0.4-6.2c-0.4-1.9-0.1-3.9-0.2-5.8c-0.1-2.3-0.3-4.7-0.2-7
		c0.1-3.4-0.2-6.8,0.8-10.2c0.3-0.9,0.4-1.8,0.1-2.7c0-0.1,0-0.4,0-0.4c0.8-0.4,0.4-1.1,0.6-1.7c0.3-1,0.4-2,0.7-2.9
		c0.4-1.3,0.8-2.7,0.6-4.1c-0.4-2.6,0.3-5.2,0.5-7.7c0.1-1.6,0.4-3.3,0.7-5c0.1-0.6,0.3-0.6,0.7-0.6c0.7-0.1,0.5,0.4,0.4,0.7
		c-0.1,1-0.2,2-0.3,2.9c-0.1,1.4-1.1,2.8,0,4.2c0,0,0,0.2-0.1,0.2c-1,0.2-0.5,1-0.5,1.4c-0.3,4-0.5,7.9-1.6,11.9
		c-1,3.9-1.4,7.9-1.4,11.9c0,2.2,0.1,4.4,0.1,6.5c0.1,2.2-0.1,4.4,0.2,6.5c0.3,2,0.6,4,0.5,6.1c-0.1,1.3,0.1,2.5,0.2,3.8
		c0,0.5,0.3,0.5,0.6,0.6c3.1,1.5,6.3,1.2,9.5,0.4c0.5-0.1,0.6-0.5,0.7-1c0.2-1.8,0.2-3.5,0.4-5.3c0.4-4.4,0.8-8.9,1.1-13.3
		c0.2-2.1,0.2-4.1,0.1-6.2c-0.1-1.9-0.1-3.8-0.2-5.6c-0.1-3.8-0.3-7.5-0.2-11.3c0.1-2.4-0.3-4.9-0.3-7.3c0-2.4-0.2-4.9-0.2-7.3
		c-0.1-4.3-0.5-8.5-1.6-12.6c-0.3-1.3-1-2.5-1.6-3.7c-1-2.1-2.4-3.7-4.6-4.5C67.6,103.9,64.8,103.4,62.3,101.9z M37.6,141.7
		c1-1.3,1.3-2.8,2.1-4c0.5-0.7,1-1.4,1.3-2.3c0.4-1.2,0.5-2.6,1.7-3.4c0.3-0.2,0.3-0.8,0-1.1c-0.5-0.5-0.4-1.1-0.4-1.7
		c-0.1-2.2-0.4-4.3-1.6-6.1c-1.6-2.4-3.2-4.8-4.5-7.3c-1.3-2.4-2.5-4.8-2.8-7.5c-0.5-4.2,0.1-8.2,2-12.1c-1.4,2.2-3.7,3.4-5.6,5.1
		c-1,0.9-1.7,1.9-2.1,3.2c-1.1,4.5-0.2,8.9,0.8,13.2c1.1,4.5,3.4,8.6,5.6,12.8c1.3,2.5,2.7,5.1,3.1,8
		C37.3,139.5,37.2,140.5,37.6,141.7z"/>
	<path d="M215.3,104.3c-0.2,3.1-0.2,6-0.6,8.9c-0.3,1.9-0.2,3.8-0.3,5.7c-0.1,2.8-0.1,5.5,0,8.3c0.1,1.3,0.6,2.6,0.4,4
		c-0.1,0.4,0.3,0.6,0.6,0.7c2.1,0.2,3.9,1.7,6.1,1.7c0.8,1.3,2.4,0.6,3.5,1.6c0.3,0.3,1.5,0.1,2.2,0.7c1.2,1,2.9,1.2,4.2,2.1
		c0.7,0.5,1.8,0.7,2.7,1.1c0.8,0.3,1.5,0.8,2.1,1.5c0.4,0.5,1.2,0.7,1.8,1c1.9,1,2.6,3.7,1.9,5.7c-0.8,2.4-2.8,3.7-4.5,5.2
		c-4.9,4.6-9.9,9.1-14.6,13.9c-1.6,1.7-3.2,3.5-4.7,5.2c-1.7,1.9-3.3,3.9-5.3,5.5c-2.2,1.8-4.7,2.4-7.5,2.2c-1.9-0.1-3.5-1-5.3-1.6
		c-2.1-0.6-4.2-0.7-6.3-1.3c-1.5-0.4-3.1-0.5-4.7-0.9c-1.4-0.4-2.9-0.4-4.4-0.7c-2.1-0.4-4.3,0.2-6.4-0.5c-1-0.3-2-0.4-3-0.4
		c-1.1,0-1.8-0.9-2.4-1.8c-0.3-0.4-0.6-0.8-1-1.1c-1.1-0.8-1.6-2-2.1-3.1c-1-2.3-2.3-4.6-2.8-7.1c-0.5-2.6-0.8-5.2-1.4-7.7
		c-0.9-4.1-2.1-8.1-3.4-12.2c-1.1-3.7-2.7-7.3-4.2-10.9c-0.3-0.7-0.4-1.5-0.3-2.2c0.3-1.5,1.3-2.2,2.8-2.4c1.6-0.2,3.1,0,4.6-0.1
		c2.9-0.3,5.7,0.3,8.6,0.1c3.6-0.2,7,1,10.6,0.7c0.2,0,0.5,0.2,0.7-0.2c0.8-1.8,2.3-3.2,2.9-5.1c1-3,2.3-6,3-9.2
		c0.5-2.2,1.1-4.4,1.8-6.6c0.8-2.3,0.9-4.8,2.2-7c0.8-1.5,1.5-3.2,3-4.1c2.9-1.7,5.9-2.4,9.2-1c1.8,0.7,3.3,1.7,4.4,3.3
		c0.3,0.5,1,0.3,1.5,0.6C213.9,98.5,215.3,101.1,215.3,104.3z M214.6,132.7c1.1,1.2,0.3,1.2-0.4,1.2c-0.6,0-0.9-0.3-1.1-0.8
		c-0.4-0.7-0.9-1.3-1.8-1.5c-1.6-0.3-3.1-0.6-4.7-1c-3-0.8-6-1.5-9.1-1.8c-3.5-0.4-7-0.6-10.5-1c-6.2-0.7-12.3-1.3-18.5-1.5
		c-3.6-0.1-7.3-0.1-10.9,0.4c-0.3,0-0.6,0.1-0.7,0.3c-0.1,0.8-0.7,1.5-0.2,2.5c0.8,1.6,1.6,3.3,2.1,5c0.6,2.1,1.6,4,2.3,6.1
		c0.9,2.9,1.9,5.9,2.5,8.9c0.4,2,1.3,3.9,1.4,6.1c0.1,1.3,0.3,2.6,0.7,3.8c1,3.3,2.1,6.6,4,9.5c0.9,1.5,2,2.9,3.7,3.4
		c1.1,0.4,2.3,0.6,3.5,0.7c3.3,0.4,6.5,0.7,9.8,1.1c0.7,0.1,1.4,0,2.1,0.2c1.6,0.4,3.2,0.7,4.7,0.9c2.4,0.4,4.8,0.8,7,1.7
		c2.2,0.9,4.5,0.9,6.7,0.3c2.5-0.7,4.2-2.7,5.8-4.6c3.9-4.5,7.9-9,12.2-13.1c2.3-2.2,4.7-4.4,7.1-6.5c1.8-1.6,3.6-3.1,5.1-4.9
		c0.4-0.5,0.8-1,1-1.6c0.4-1.1,0.2-3.2-0.5-3.4c-2.2-0.6-3.9-2.5-6.1-3.1c-0.4-0.1-1-0.2-1-0.6c0.1-0.7-0.4-0.7-0.7-0.8
		C225.2,136.6,220.2,134.4,214.6,132.7z M209.2,101c0.1-1.2-0.2-2-0.3-2.9c-0.1-0.3-0.2-0.7-0.6-0.6c-1,0.1-1.9,0-2.8,0.3
		c-1.7,0.5-3.3,1.3-4.5,2.9c-1.1,1.4-2.4,2.6-3.4,4.2c-1.4,2.2-3.2,4.1-4.2,6.6c-0.8,1.9-1.9,3.5-2.6,5.5c-0.6,1.6-1.3,3.2-1.9,4.8
		c-0.5,1.5-1.4,2.8-2.1,4.2c-0.3,0.6-0.1,0.9,0.5,0.9c1.2-0.1,2.2,0.3,3.3,0.4c0.5,0,1.1,0.3,1.6,0.2c2-0.2,3.9,0.1,5.8,0.4
		c2.3,0.3,4.5,0.9,6.7,1.1c1.1,0.1,2.1,0.6,3.1,0.8c0.9,0.2,1.8,0.8,2.8,0.7c0.5,0,0.7-0.1,0.4-0.6c-1.3-2.2-2.1-4.7-2.8-7.2
		c-0.8-2.7-1.2-5.4-1.2-8.2c0-2.4,0.3-5,1-7.4C208.6,105,208.9,102.8,209.2,101z M208,96.5c-1.1-1.4-2.2-2.2-3.5-2.8
		c-3.6-1.6-8.5,0.8-9.8,3.9c-1,2.5-1.9,5.1-2.8,7.7c-1,2.9-1.3,5.9-2.3,8.7c-0.2,0.6-0.7,1.2-0.3,2c0.6-1,0.9-1.9,1.3-2.8
		c1.6-3.3,3.4-6.5,5.6-9.4c1-1.4,2.3-2.4,3.1-3.9c0.4-0.7,1-1.2,1.7-1.6C203.2,96.9,205.3,96.2,208,96.5z M212.8,129.5
		c0-0.1,0.1-0.3,0.1-0.4c-0.3-3-0.3-6.1-0.1-9.1c0.3-3.4,0.1-6.9,0.6-10.3c0.4-2.7,0.3-5.4,0-8c-0.2-1.3-1-2.2-1.7-3.2
		c-0.2-0.2-0.7-0.5-1-0.3c-0.3,0.2,0,0.6,0,0.9c0.2,0.6,0.4,1.1,0.3,1.8c-0.5,2.4-0.8,4.8-1.3,7.2c-0.8,3.7-1.3,7.4-0.3,11.2
		c0.5,1.9,0.9,3.8,1.3,5.7C211.1,126.5,212.1,127.9,212.8,129.5z M183.4,126.2c1.3,0.4,2-0.3,2.6-2.6
		C184.9,124.2,185.2,126.3,183.4,126.2z M187,121.5c0.9-0.7,0.8-1.7,1.2-2.6c-0.1,0-0.2-0.1-0.3-0.1
		C187.6,119.7,187.3,120.6,187,121.5z"/>
	<path d="M87.1,92.3c0.2,0.3-0.2,0.7,0.1,1c0.6-0.4,0.8-1,0.9-1.6c0.1-0.5,0.2-1,0.5-1.1c1-0.6,1.3-1.9,2.6-2.2
		c0.1,0,0.2-0.1,0.2-0.2c0.4-1,1.3-1.7,1.9-2.5c0.3-0.3,0.2-1,0.9-0.6c0.2,0.1,0.3-0.1,0.3-0.3c-0.1-1.1,0.3-1.9,1.3-2.5
		c0.6-0.4,0.2-1.2,0.5-1.8c0.1-0.3,0.1-0.6,0.6-0.7c0.6-0.2,0.9-0.8,1.3-1.5c0.4-0.9,1.3-1.5,1.9-2.3c1.6-2.1,3.3-4.1,5-6.1
		c1.6-1.9,3.4-3.6,5.2-5.2c1-0.9,1.8-2.2,3.1-2.8c0,0,0-0.1,0.1-0.1c1.6-0.4,3-1.5,4.7-1.7c0.9-0.1,1.8,0.1,2.7,1
		c1.1,1.1,2.7,1.5,4.2,1.8c3.7,0.7,7.1-0.3,10.3-2c2.3-1.3,4.3-3.1,5-5.9c0.5-1.9,1.8-2.8,3.7-3c4.2-0.6,8.2,0.3,12.2,1.2
		c1.7,0.4,3.3,0.5,5,0.9c2.6,0.6,5,1.5,7.4,2.5c2.3,0.9,4.5,2,6.8,2.8c4,1.4,7.9,3.2,11.9,4.9c2.5,1,5.1,1.7,7.4,3.1
		c1.5,0.9,3.3,1.4,4.8,2.2c0.6,0.3,0.8,0.8,1.1,1.4c1.1,2-0.1,3.5-0.9,5.2c-0.7,1.3-1.4,2.5-1.9,3.9c-0.2,0.5-0.4,0.9-1.1,0.7
		c-0.4-0.1-0.9,0.2-1.4,0.2c-5.4,0.5-10.7,0.2-16-1c-3-0.7-6.1-1-9.1-1.6c-2.6-0.4-5.3-0.8-7.8-1.7c-0.8-0.3-1.6-0.3-2.5-0.4
		c-0.5,0-0.8,0.2-0.6,0.7c0.2,0.6,0.4,1.3,0.7,2c0.9,2.3,1.5,4.7,2.2,7.1c0.8,2.7,1.7,5.3,2.6,7.9c0.8,2.3,1.6,4.5,2.5,6.7
		c0.9,2.3,1.4,4.6,1.9,6.9c0.3,1.8,0,2.3-1.8,2.8c-2.2,0.7-4.4,0.9-6.6,1.4c-0.4,0.1-0.7,0.2-1.1,0.4c-0.6,0.3-1.2,0.9-1.9,0.4
		c-0.1,0-0.2,0-0.3,0.1c-2,1.2-4.2,1.4-6.4,1.8c-3.4,0.7-6.7,1.7-10,2.5c-2.2,0.5-4.4,1.1-6.6,1.8c-1,0.3-2.2,0.6-3.3,0.6
		c-0.7,0-1.3,0.1-1.9,0.5c-1.5,1.1-3.3,1.3-4.9,2.1c-0.3,0.1-0.6,0.3-0.8,0.6c-0.6,1-0.9,0.5-1.3-0.2c-2.8-5.7-4.5-11.8-5.9-17.9
		c-0.8-3.6-1.9-7.1-2.9-10.6c-0.3-1.1-0.5-1.2-1.4-0.4c-1.3,1-2.5,2-3.7,3.1c-1.1,1.1-2.6,1.6-3.8,2.7c-1.3,1.2-2.7,2.2-4,3.4
		c-1.9,1.7-3.8,3.4-5.9,4.8c-1.8,1.2-3.3,2.9-4.6,4.6c-0.4,0.5-0.8,0.9-1,1.5c-0.2,0.6-0.9,0.4-1.3,0c-2.5-2.6-5.4-4.7-8-7.1
		c-0.4-0.4-1-0.7-1.4-1.2c-0.3-0.5-0.4-0.9,0.2-1.3c0,0,0.1,0,0.1-0.1c1.2-1.7,2.9-3.2,4-5c0.2-0.3,0.3-0.6,0.2-0.9
		c0-0.2,0.1-0.6,0.3-0.5c1.2,0.7,0.6-0.2,0.7-0.6c0-0.1,0.1-0.2,0.2-0.3c1.2-0.9,1.8-2.3,2.5-3.6C86.8,92.4,87,92.4,87.1,92.3z
		 M123,120.3c1.5-1.2,3.1-1.9,4.8-2.3c2.6-0.6,5.3-0.6,7.9-1.4c3.5-1.1,7-2,10.5-3c0.2-0.1,0.5-0.2,0.7-0.2c2.1,0.2,4-0.5,5.9-1.3
		c3.2-1.2,6.5-1.9,9.7-2.8c1.6-0.4,3.3-0.7,4.9-1.1c0.8-0.2,1-0.6,0.8-1.4c-0.6-2.6-1.4-5.1-2.4-7.6c-2.4-5.7-4.1-11.7-6-17.6
		c-0.6-1.8-1.1-3.7-2.3-5.3c-0.4-0.5-0.1-1.1,0.3-1.1c1.2-0.1,2.3-1,3.6-0.5c0.6,0.3,1.2,0.3,1.8,0.4c2.8,0.5,5.5,1.5,8.4,1.8
		c1.9,0.2,3.7,0.4,5.5,0.8c3.6,0.7,7.1,1.5,10.8,1.7c0.9,0.1,1.8-0.4,2.7-0.2c1.8,0.4,3.5-0.2,5.3-0.2c0.3,0,0.5-0.1,0.6-0.4
		c0.9-2.1,2.3-4,3-6.3c0.2-0.8,0-1.1-0.6-1.5c-1.5-1-3.2-1.5-4.8-2.3c-4.7-2.5-9.8-4-14.6-6.4c-2.9-1.4-6.1-2.4-9.1-3.7
		c-3.5-1.5-7.1-3-10.9-3.7c-3.7-0.7-7.2-1.7-10.9-2c-2-0.2-4.1-0.4-6,0.3c-0.7,0.3-1.5,0.6-1.4,1.6c0,1.1-0.4,2.1-1,2.9
		c-3.4,4.9-8.3,6.7-14.1,6.3c-1.7-0.1-3.5-0.4-5-1.6c-0.7-0.5-1.5-1.1-2.6-1c-3.1,0.3-5.5,2-7.7,4.1c-1.8,1.7-3.3,3.6-4.9,5.4
		c-2.1,2.4-4.3,4.7-6.3,7.2c-0.8,0.9-1.6,1.8-2.1,2.8c-0.5,1.2-1.2,2.3-2,3.3c-1.8,2.3-3.6,4.6-5.4,7c-0.6,0.9-1.3,1.8-2.1,2.5
		c-0.3,0.2-0.7,0.3-0.9,0.6c-0.9,1.9-2.2,3.5-3.3,5.3c-0.9,1.6-2.4,2.9-3.3,4.5c-0.2,0.3-0.3,0.5,0,0.8c2.2,1.9,4.3,3.9,6.4,5.9
		c0.4,0.4,0.7,0.4,1.1-0.1c0.9-1,1.9-2,2.8-3c0.5-0.5,1-0.6,1.6-0.5c0.1-0.8,0.5-1.3,1.1-1.7c0.9-0.6,1.9-1.3,2.7-2
		c2-1.7,3.9-3.5,6-5.2c1.9-1.5,3.9-3,5.9-4.4c1.6-1,2.8-2.6,4.4-3.5c0.3-0.2,0.3-0.9,0.9-0.7c0.6,0.2,0.8,0.7,0.9,1.3
		c0.1,0.8,0.3,1.6,0.5,2.4c0.4,1.9,1.1,3.7,1.7,5.5c0.2,0.7,0.2,1.5,0.6,2c1.3,1.9,0.9,4.1,1.6,6.1c0.4,1,0.5,2.2,0.8,3.2
		c0.9,2.5,1.4,5,2.6,7.4C122.7,118.5,123.1,119.3,123,120.3z"/>
	<path d="M194.4,220.1c-0.2-0.2-0.3-0.2-0.5-0.1c-2.6,1.5-5.5,2.2-8.3,3.2c-2.5,0.9-4.9,2.4-7.4,2.9c-2.2,0.5-4.1,1.7-6.3,2.1
		c-0.7,0.1-0.9-0.3-1-0.7c-0.5-1.5-1.3-2.8-2-4.2c-0.7-1.5-1.7-3-2.9-4.4c-1.4-1.5-2.6-3.3-3-5.4c-0.1-0.9-0.1-1.5,1.1-1.8
		c1.5-0.4,3.1-0.8,4.5-1.5c2.5-1.4,5.1-2.4,7.7-3.4c3.1-1.2,5.7-3.2,8.9-4.2c0.7-0.2,1.3-0.8,2-1.1c1.8-1,3.9-1.6,5.7-2.5
		c2.9-1.5,5.8-2.9,8.8-4.1c2.1-0.8,4.1-2.2,6.1-3.3c2.7-1.4,5.5-2.8,8.3-4.1c1.5-0.7,3.2-1.3,4.7-1.9c0.2-0.1,0.4-0.1,0.5-0.3
		c0.2-0.3,0.2-1,0.7-0.8c0.7,0.2,1.4-0.3,2,0.3c0.1,0.1,0.3,0.1,0.4,0.3c0.8,1.9,2.3,3.3,3.2,5.1c1.6,3.1,3.5,6.1,4.9,9.4
		c0.8,1.9,1.6,3.8,2.9,5.4c0.8,1,1.2,2.2,1.8,3.3c0.9,1.4,1.9,2.6,2.7,4c1,1.7,1.9,3.4,2.8,5.1c0.2,0.4-0.1,0.6-0.3,0.8
		c-0.7,0.8-1.4,1.6-2.7,1.3c-0.1,0-0.2,0-0.2,0c-0.2,0.8-1.1,0.4-1.4,0.7c-0.7,0.7-1.7,0.7-2.4,1.3c-0.1,0.1-0.4,0.2-0.4,0.3
		c-0.9,2-2.9,2.5-4.6,3.2c-5,2-9.6,4.7-14.3,7.3c-3.2,1.7-6.3,3.7-9.6,5.4c-2.4,1.2-4.8,2.4-7.1,3.8c-2.7,1.6-5.5,3-8.3,4.4
		c-2.1,1-4.3,1.7-6.2,3.2c-1,0.8-1.5,0.5-2.1-0.6c-0.9-1.5-1.6-3.1-2.2-4.7c-0.6-1.8-2-3-2.9-4.6c-0.7-1.2-1.9-2.1-3-3.1
		c-0.8-0.7-0.4-1.7-0.9-2.6c-0.2-0.3,0.3-0.7,0.7-0.9c1.2-0.7,2.6-1.2,3.7-2.1c1.4-1.2,3.2-1.5,4.5-2.7c1.2-1.1,2.5-2,3.9-2.8
		c2.3-1.2,4.5-2.6,6.7-4C194,220.6,194.3,220.4,194.4,220.1z M184.5,247.1c0.2-0.1,0.5-0.2,0.7-0.3c2.7-1.2,5.4-2.4,7.9-3.7
		c3-1.5,5.9-3.1,8.8-4.8c3.1-1.8,6.2-3.4,9.3-5.2c2-1.1,4-2.3,6.1-3.3c1.8-0.8,3.5-2,5.2-2.9c4.5-2.3,9-4.4,13.3-7
		c1.4-0.8,2.9-1.4,4.4-2c0.8-0.3,0.7-0.7,0.3-1.2c-1.5-2.5-3.4-4.7-4.6-7.3c-0.9-1.8-2.2-3.4-3.3-5.1c-0.1-0.2-0.3-0.3-0.4-0.5
		c-1.1-0.8-1.8-2-2-3.2c-0.6-3-2.3-5.5-3.7-8.2c-1-1.9-2.4-3.5-3.6-5.3c-0.2-0.2-0.2-0.6-0.6-0.4c-2.1,0.8-4.2,1.5-6.2,2.4
		c-3.1,1.3-6.1,3-9.1,4.7c-4.5,2.5-9.2,4.3-13.8,6.5c-5.1,2.5-10.1,5.1-15.3,7.3c-3.6,1.5-6.8,3.6-10.5,4.8
		c-0.5,0.2-1.1,0.2-1.5,0.5c-0.4,0.3-1.9,0.4-0.5,1.4c0.1,0,0.1,0.2,0,0.3c-0.2,1.3,0.7,2.1,1.4,2.9c0.2,0.2,0.5,0.4,0.7,0.7
		c1.7,2.2,2.4,4.8,4,7.1c0.3,0.5,0.5,0.7,1.1,0.5c3.5-0.9,7-1.8,10.2-3.3c0.6-0.3,1.1-0.5,1.7-0.7c2.3-0.8,4.6-1.7,6.9-2.6
		c1.6-0.7,3.3-1.3,4.8-2.2c1-0.6,2.1-0.9,3.2-1.2c2.4-0.8,4.7-1.9,6.9-3.1c1.7-0.9,3.4-2,5.2-2.7c0.7-0.3,1.1-0.1,1.4,0.5
		c0.3,0.7,0.1,1-0.6,1.4c-1.6,0.8-3.1,1.8-4.6,2.7c-3.6,2.2-7.1,4.5-10.9,6.5c-3.3,1.7-6.5,3.6-9.7,5.7c-1.6,1-3.2,2-4.8,3
		c-1.7,1.2-3.2,2.7-5.2,3.5c-0.4,0.2-0.7,0.5-1.1,0.7c-0.2,0.2-0.4,0.4-0.2,0.7c0.6,0.9,1.5,1.7,2.3,2.4c1.1,1.1,2.1,2.2,2.8,3.5
		c1.1,2,2,4.1,3,6.1C184.2,246.9,184.2,247.1,184.5,247.1z M197.7,218.1c-0.7,0.3-1.6,0.5-2.1,1.3
		C196.4,219.2,197.2,218.9,197.7,218.1z"/>
	<path d="M22.7,49.3c-6.9,8-14.6,15-21.8,22.7c-0.1-0.9,0.2-1.5,0.8-2.1c1.2-1,2.1-2.3,3.2-3.5c1.7-1.9,3.6-3.7,5.4-5.5
		c1-1,2.1-2,3.1-3.1c1.9-2.2,4-4.4,6-6.6c0.7-0.8,1.5-1.5,2.2-2.2c0.5-0.4,0.4-0.7,0.1-1c-1-1.2-1.4-2.6-2.4-3.8
		c-0.7-0.8-1.5-1.7-2.1-2.7c-0.3-0.6-1.3-1.1-0.8-2.1c0.1-0.1-0.1-0.8-0.6-0.9c-0.2,0-0.6-0.3-0.5-0.5c0.1-1.1-0.6-1.9-1-2.9
		c-0.5-1.3-0.9-2.8-0.9-4.2c0-2.6-0.8-5.3,0.2-7.9c0.2-0.6,0.1-1.4,0.2-2.1c0.3-1.6,1-2.9,1.8-4.3c2.2-3.7,5.8-5.6,9.4-7.3
		c2.5-1.2,5.1-1.1,7.7-0.3c3,0.9,5.7,2.5,8.4,4c1.4,0.8,2.4,2.1,3.3,3.5c1.3,1.9,1.8,4.2,2.6,6.3c0.5,1.4,1,2.7,1.3,4.1
		c0.7,2.5,0.7,5.1-0.2,7.6c-0.9,2.5-1.7,5.1-2.6,7.6c-0.4,1.2-1,2.3-1.8,3.2c-0.4,0.4-0.3,0.7,0,1c1.6,1.3,3,2.9,4.8,4
		c1.7,1.1,3.4,2.4,5,3.7c1.5,1.2,2.9,2.4,4.2,3.7c1.3,1.2,3,2,4,3.6c0.3,0.5,1.1,0.3,1.5,0.8c0.8,1,1.9,1.6,2.6,2.8
		c0.2,0.4,0.9,0.4,1.2,1C66,66,65.2,65,64.3,64.3c-1-0.8-2-1.6-3.1-2.1c-0.5-0.2-0.8-0.6-1.2-1c-2.6-2.7-5.6-4.8-8.6-7.1
		c-2.9-2.2-5.7-4.4-8.3-6.9c-2.7-2.5-5.2-5.2-8.1-7.5c-1.1-0.9-2.1-1.9-3.1-2.9c-2-2.1-4.2-3.9-6.3-5.9c-1.8-1.8-3.7-3.7-4.7-6
		c-1.5-3.3,1.3-7.7,4.3-7.9c3.1-0.3,6,0.5,8.9,1.6c2.7,1.1,4.4,3.3,6,5.6c0.9,1.3,1.3,3,0.8,4.6c-0.3,1.2-1.3,2.1-2.3,2.9
		c-1.8,1.5-3.1,3.4-5.1,4.5c1.5,2,3.5,3.4,5.1,5.1c1.2,1.2,2.5,2.4,3.7,3.7c0.4,0.4,0.6,0.1,0.8-0.1c1-0.9,1.6-2.1,2-3.2
		c1.1-3.1,2.1-6.2,3-9.4c0.5-1.8,0.2-3.6-0.4-5.4c-0.8-2.3-1.6-4.5-2.4-6.8c-1.2-3.1-3.4-5.4-6.5-6.9c-2.2-1-4.4-2.1-6.7-2.8
		c-3.3-1-6.3-0.7-9.3,1.2c-1.5,1-3.1,1.9-4.2,3.3c-1.8,2.2-3.3,4.6-3.7,7.5c-0.8,4.7-0.7,9.3,1.2,13.8c1.3,3.1,3.1,6,5.1,8.7
		c1.1,1.4,2.1,3,3.1,4.4c1.3,1.9,3,3.6,4.4,5.4c3.9,5.1,9.1,8.9,13.7,13.3c1.6,1.5,3.5,2.9,5.4,4.1c1.3,0.8,2.4,2.1,3.9,2.9
		c0.4,0.2,0.6,0.9,1.1,1.2c2.2,1.3,4.1,3.1,6.4,4.5c0.3,0.2,0.8,0.3,0.5,0.8c-0.3,0.4-0.6,0.2-1,0c-2.6-1.4-4.8-3.4-7.1-5.2
		c-1.2-0.9-2.5-1.7-3.7-2.6c-0.6-0.4-0.9-1.3-1.4-1.5c-0.9-0.2-1.3-0.9-2-1.3c-1.1-0.6-1.9-1.5-3-2.1c-1-0.6-1.7-1.7-2.6-2.5
		c-1.1-1-2.1-2.3-3.5-2.9c-0.1,0-0.2-0.1-0.3-0.2c-1.1-1.1-1.1-1.1-2.2,0c-2.4,2.5-4.6,5.2-7.1,7.6c-2.6,2.5-5,5.1-7.2,7.9
		c-1.4,1.7-2.8,3.4-4.2,5.1c-0.5,0.5-1.2,0.7-1.5,1.5c-0.5-1,0.1-1.7,0.6-2.3c1.9-2.3,3.7-4.6,5.8-6.8c0.3-0.4,0.6-0.8,0.9-1.3
		c1.1-1.6,2.9-2.3,4.1-3.8c1.3-1.6,2.8-3.1,4.1-4.6c1-1.1,1.8-2.3,3-3.1c0.8-0.5,1.1-1.3,1.7-2c0.3-0.3,0.1-0.5-0.2-0.7
		c-0.7-0.6-1.7-0.9-2-1.6c-0.5-0.9-1.2-1.7-2-2.4c-1.3-1.2-2.1-2.7-3.4-4C24.3,51.8,23.6,50.5,22.7,49.3z M32.7,35.5
		c1.6-1.6,3.2-3.1,4.8-4.6c0.6-0.5,1.2-1.1,1.7-1.7c1.1-1.3,1.2-2.3,0.3-3.8c-1-1.6-2.3-3-3.7-4c-3.2-2.3-6.9-3.5-10.9-3.1
		c-1.7,0.2-3.4,2.5-3.2,4.3c0.2,1.7,1.2,3,2.2,4.2C26.5,30,29.7,32.6,32.7,35.5z"/>
	<path d="M232.9,35.7c-0.4-0.1-0.7,0.1-0.9,0.4c-0.7,1.1-1.3,2.2-1.7,3.5c-1,2.4-1.7,4.9-3,7.2c-0.8,1.3-1,2.9-1.8,4.2
		c-1.1,1.9-1.9,3.9-3,5.7c-0.6,1-0.7,2.1-1.2,3.1c-0.3,0.5-0.5,1-0.9,1.4c-0.2,0.2-0.6,0.5-0.7,0.3c-0.5-0.9-1.3-0.4-1.9-0.5
		c-0.2,0-0.3-0.1-0.5-0.2c-1.1-1-2.2-1.8-3.8-2.1c-0.5-0.1-0.9-0.8-1.4-1.2c-0.3-0.3-0.6-0.7-1.2-0.4c-0.1,0.1-0.4,0.1-0.4,0
		c-0.4-0.8-1.4-0.3-1.8-0.8c-1.3-1.6-3.2-2-5-2.5c-1.1-0.3-2.3-0.8-3.2-1.7c-0.3-0.4-0.8-0.5-1.3-0.7c-2-0.5-4-1.3-5.8-2.2
		c-1.1-0.5-2.3-0.6-3.2-1.3c-0.6-0.5-1.3-1.3-1.6-2.1c-0.3-0.7,0-1.6,0.1-2.3c0.5-2.6,1-5.1,1.6-7.7c0.6-2.7,1.3-5.3,2.2-7.9
		c0.8-2.3,0.9-4.7,1.2-7.1c0.1-1.2-1.1-1.5-1.9-2c-0.8-0.5-1.7-0.7-2.5-1.1c-1-0.4-1.1-0.9-0.8-1.9c0.3-1.1,0.9-2.2,0.7-3.4
		c-0.1-0.9,0.1-1.7,0.5-2.5c0.8-1.7,1.1-3.5,1.7-5.3c0.5-1.4,0.9-2.7,1.4-4.1c0.2-0.6,0.8-0.8,1.4-0.5c1.4,0.5,2.8,1.1,4.2,1.6
		c0.5,0.2,1,0.3,1.5,0.2c0.1,0,0.4,0,0.4,0c0.6,1.3,1.6,0.4,2.5,0.5c0.9,0.1,2,0.3,2.8,0.7c0.7,0.3,1.1,0.7,2,0.2
		c0.5-0.3,1.4-0.2,1.8,0.2c1,1,2.2,0.5,3.2,0.5c1.1,0.1,1.7,0.5,1.6,1.7c-0.3,2.2,1,4.1,3.1,4.9c2.2,0.9,4.3,1.8,6.6,2.5
		c1.3,0.4,2.6,0.2,3.9,0.2c1.4-0.1,2.6-0.4,3.5-1.7c0.3-0.5,0.6-0.2,0.8,0.1c1.4,1.9,2.8,3.6,5.2,4.3c0.7,0.2,1.2,1,1.9,1.5
		c1.1,0.9,2.2,1.6,3.5,2.1c0.2,0.1,0.3,0.2,0.4,0.3c1.3,1.4,3,2.4,4.6,3.5c0.3,0.2,0.6,0.5,0.9,0.8c0.7,0.7,0.8,1.5,0.1,2.2
		c-2.1,1.9-3.6,4.1-5.1,6.5c-0.6,1-1.1,2-1.5,3.1c-0.3,0.8-1,1.4-1.3,2.3c-0.1,0.4-0.5,0.5-1.1,0.3c-1.4-0.5-2.6-1.3-3.9-2
		C234.7,36.3,233.9,35.7,232.9,35.7z M190.4,44.8c-0.2,0.9,0,1.4,1,1.4c0.3,0,0.7,0.3,1,0.5c1.8,1.1,3.8,1.9,5.7,2.6
		c1.3,0.4,2.5,0.8,3.6,1.7c0.3,0.3,0.8,0.4,1.2,0.5c1.5,0.6,3.2,0.8,4.6,1.8c1.4,1,2.9,1.7,4.4,2.4c2.1,1,4.1,2.2,6.1,3.4
		c0.8,0.4,1.5,0.6,1.8-0.5c0.7-2,2.1-3.7,2.8-5.6c0.5-1.3,1.2-2.5,1.8-3.7c1.9-3.4,3.2-7.1,4.6-10.8c0.6-1.7,1.3-3.3,2.4-4.7
		c0.4-0.4,0.7-0.5,1.3-0.3c2.1,0.7,4.1,1.8,6.1,2.6c0.4,0.2,0.8,0.2,1-0.2c0.4-0.7,1-1.3,1.3-2.1c1.2-2.9,3.2-5.3,5.1-7.8
		c0.5-0.6,0.4-1.4-0.3-1.5c-1.3-0.2-1.8-1.9-3.3-1.6c0,0-0.2-0.1-0.2-0.1c0-1.2-1-1.1-1.8-1.4c-1.3-0.4-2.1-1.4-3.1-2.2
		c-1.6-1.2-3.3-2.1-4.8-3.4c-0.6-0.6-1.4-2.1-2.6-0.6c-0.1,0.1-0.2,0.1-0.3,0.1c-1.5,0.3-3,0.2-4.5,0.2c-1.1,0-2.1-0.7-3.3-0.7
		c-1.6-0.1-2.8-1.3-4.4-1.7c-2.2-0.6-4.2-2.3-4.7-4.7c-0.3-1.7-0.8-2.5-2.6-2.5c-1,0-2-0.5-3-0.6c-1.7-0.3-3.5-0.3-5.2-0.6
		c-2.6-0.4-5.2-1.3-7.7-2c-0.5-0.1-0.8-0.1-1,0.4c-0.6,1.4-1,2.8-1.5,4.2c-1,2.9-1.2,6-2.3,8.8c-0.2,0.6-0.1,0.9,0.5,1.2
		c1.4,0.6,2.8,1.3,4,2.2c0.8,0.6,1.1,1.3,1,2.1c-0.2,2.3-0.4,4.7-1.1,7c-0.7,2.1-1.2,4.2-1.7,6.3c-0.4,1.7-0.7,3.4-1,5.1
		C191.1,41.5,190.8,43.2,190.4,44.8z"/>
	<path d="M66.9,43.8c-0.3-1.3,0.6-2,2-2.4c2.1-0.7,3.9-2.2,5.9-3.2c1.9-1,3.7-2.1,5.7-2.8c0.6-0.2,1.1-0.9,1.8-1.2
		c1.8-1.1,3.7-2.2,5.2-3.8c1-1.1,1-2.6,1.1-3.9c0.2-2.1,0.1-4.3,0.4-6.4c0.3-1.9-0.1-3.8,0.5-5.7c0.6-1.7,0.8-3.7,2.5-4.8
		c0.4-0.3,0.5-0.7,0.7-1.1c1.7-2.2,4-3.3,6.7-3.7c1.7-0.2,3.3-1,5.1-0.8c0.7,0.1,1.4-0.1,2.1,0.2c0.8,0.3,1.6-0.2,2.5,0
		c1.3,0.4,2.6,0.7,3.8,1.3c1.2,0.6,2.4,1.3,3.2,2.2c1.2,1.5,2.7,2.6,3.6,4.3c0.6,1,1.4,1.9,2.2,2.7c0.9,1,1.6,2,2.4,3.1
		c1.1,1.4,2.3,2.5,4.3,2.9c2.5,0.4,4.9,0.5,7.4,0.3c2.3-0.2,4.6-0.8,6.9-1.1c1.6-0.2,3.1-0.6,4.6-1c0.8-0.2,1.4,0.2,1.5,0.7
		c0.3,1,0,2.2-0.4,2.9c-0.4,0.7-0.8,1.4-1.2,2.2c-0.3,0.8-0.5,1.6-1.5,1.9c-0.3,0.1-0.6,0.4-0.6,0.7c-0.2,0.7-0.6,0.9-1.2,1.1
		c-0.5,0.1-0.8,0.5-0.1,0.8c0.8,0.3,0.2,0.5,0,0.7c-0.5,0.3-0.9,0.6-1.1,1.1c0,0.1-0.3,0.3-0.4,0.3c-0.8-0.3-0.9,0.4-1.3,0.8
		c-1.3,1.4-2.7,2.6-4.3,3.7c-0.6,0.4-1.7,0.5-1.8,1.6c0,0.1-0.1,0.1-0.1,0.2c-1.6,0.5-2.7,1.7-4.1,2.4c-0.8,0.4-1.4,1.1-2.1,1.3
		c-1.4,0.5-2.5,1.7-4,1.9c-0.1,0-0.2,0-0.2,0c-1.5,1.6-3.7,1.7-5.4,2.6c-1.8,0.9-3.8,1.3-5.6,2.1c-1.5,0.6-3.1,0.6-4.5,1.3
		c-1.1,0.6-2.5,0.7-3.7,1c-0.2,0.1-0.5,0.2-0.7,0.3c-1.2,0.9-2.5,0.9-3.9,1.1c-1,0.2-1.9,0.7-3,0.9c-4,0.8-8,1.3-12.1,1.2
		c-4.2-0.2-8.2-0.8-12-2.5c-2.2-1-4.3-2.4-5.9-4.4C67.1,46,66.8,45.1,66.9,43.8z M123.5,19.7c1,0.8,1.1,1.1,0,1.4
		c-0.9,0.3-1.2,1.1-1.9,1.4c-0.9,0.5-1.7,1.2-2.7,1.6c-1,0.4-2,0.9-2.5,1.9c-0.2,0.3-0.4,0.4-0.6,0.5c-0.9,0.5-1.9,0.9-2.8,1.5
		c-1.5,1.1-3.5,1.9-5.3,2.4c-3.1,0.8-6.2,1.5-9.4,1.9c-3.3,0.3-6.4-0.1-9.5-1c-1.1-0.3-1.7,0-2.3,0.9c-0.1,0.1-0.2,0.3-0.3,0.3
		c-1.3,0.2-1.6,1.6-2.8,1.9c-1,0.2-1.8,1-2.7,1.5c-1.7,0.9-3.4,1.7-5.1,2.6c-1.8,1.1-3.5,2.3-5.5,3.1c-2,0.8-2.9,3.6-1.5,5.2
		c2.2,2.4,4.8,4.2,8.1,4.8c3,0.6,6.1,1.1,9.3,1.1c2.9,0,5.8-0.5,8.6-1c4.4-0.7,8.7-2.1,13-3.6c2.3-0.8,4.6-1.6,6.9-2.3
		c2.2-0.6,4.4-1.6,6.5-2.5c2.2-1,4.5-2,6.6-3.4c1.6-1.1,3.5-1.9,5.1-3.1c2-1.5,3.8-3.2,5.7-4.8c2.3-1.9,4.3-4.2,6-6.6
		c0.8-1.1,1.1-2.5,2.1-3.5c0.2-0.2,0.2-0.5,0.2-0.7c0.1-0.7-0.2-1-0.9-0.6c-0.4,0.2-0.7,0.4-1.1,0.4c-1.2-0.2-2.4,0.2-3.5,0.4
		c-2,0.4-4,0.4-5.9,0.6c-2.3,0.2-4.6-0.1-6.8-0.5c-1.7-0.3-3.6-0.3-4.7-1.9C124,19.7,123.9,19.7,123.5,19.7z M121.4,21.6
		c-1-0.7-0.3-0.9,0.1-1.3c0.5-0.5,1.4-0.7,1.3-1.6c-0.2-1.3-0.7-2.5-1.7-3.4c-0.8-0.7-1.2-1.6-2-2.2c-0.4-0.3-0.1-0.8-0.3-1.1
		c-1-1.4-2.9-2.2-3.2-4.1c0,0-0.1-0.1-0.2-0.1c-0.8,0.4-1.1-0.5-1.6-0.8c-1.1-0.7-2.2-1.3-3.4-1.8c-0.9-0.3-2.1-0.3-3.1-0.4
		c-3-0.3-6,0.1-9,0.8c-1.3,0.3-2.5,1.1-3.5,2c-1.3,1.2-2.4,2.6-3.4,4.1c-0.8,1.1-1,2.6-1.1,3.8c-0.1,1.2-0.2,2.6-0.1,3.9
		c0.2,1.8-0.7,3.7-0.5,5.6c0.1,0.5-0.3,1-0.1,1.6c0.4,1-0.8,1.9-0.2,2.9c-1,1.1,0,1.2,0.7,1.3c3.1,0.6,6.3,0.8,9.4,0
		c4-1,8-1.5,11.7-3.6c2.5-1.5,4.9-3,7.3-4.7c0.7-0.4,1.2-0.8,2-0.4c0.2-0.4-0.5-0.5-0.2-0.8C120.7,21.2,120.8,21.8,121.4,21.6z"/>
	<path d="M129.8,212.2c-2.7,0.2-4.7-1.3-6.7-2.8c-2.9-2.3-5.7-4.8-8.7-7c-1.6-1.2-3.6-2.1-5.4-3.1c-0.9-0.5-1.9-1.1-2.7-1.8
		c-0.7-0.6-1.6-0.8-2.4-1.1c-2.4-0.8-4.8-1.4-7-2.7c-2.7-1.6-4.7-4.5-4.2-8.1c0.4-2.8,1.7-5.2,2.3-7.9c0.5-2.1,1.5-4.1,2.1-6.2
		c0.3-1,0.6-2,0.3-3.1c0-0.1-0.1-0.3-0.1-0.4c0.8-2,0.2-4,0.2-6c0-0.2,0-0.6,0.2-0.6c1.1-0.3,0.2-1,0.4-1.5c0.2-1-0.3-1.8-0.2-2.8
		c0.1-1.6-0.1-3.2-0.6-4.8c-0.2-0.7-0.4-1.5-0.4-2.2c0-0.5,0-1-0.6-1.3c-0.2-0.1-0.4-0.5-0.4-0.7c-0.2-1.1-0.5-2.2-0.3-3.4
		c0.1-0.4,0.3-0.5,0.5-0.6c0.8-0.5,1.7-0.6,2.5-0.7c2.2-0.2,4.3-0.8,6.5-0.9c1-0.1,2,0.1,3,0.3c0.9,0.2,1.4,0.9,1.7,1.8
		c0.5,1.7,0.7,3.4,0.8,5.1c0.1,1.8,0.3,3.5,0.9,5.3c0.6,1.6,0.7,3.4,0.7,5.1c0.1,1.9,0.1,3.7,0.2,5.6c0,1.6,0,3.3,0.3,4.8
		c0.5,2.3,0.5,4.7,1.4,6.9c0.5,1.2,1,2.5,1.3,3.8c0.6,1.9,2,3.2,3.3,4.6c0.5,0.5,1,1.1,1.6,1.6c3.1,2.5,6.1,5.2,8.8,8.1
		c1.8,1.9,4.1,3,5.7,5c1.6,1.9,3.2,3.8,3.5,6.5c0.3,2.8-1.7,4.7-4.1,5C133,212,131.4,212.3,129.8,212.2z M105.5,143.5
		c-2.3,0.3-4.5,0.6-6.7,1c-0.5,0.1-1.1,0.2-1,0.8c0.3,1.4,0.3,2.9,0.6,4.2c0.7,2.7,1.1,5.4,1.2,8.1c0.1,1.8,0.2,3.5,0.2,5.3
		c0,3.2,0.1,6.4-1.2,9.5c-0.3,0.8,0,1.8-0.4,2.3c-0.7,0.7-0.6,1.7-0.8,2.4c-0.4,1-0.6,2.3-1,3.4c-0.6,1.5-1,3-1.4,4.6
		c-0.5,2.2-0.2,4.4,1.3,6.2c1.4,1.7,3.3,2.5,5.2,3.3c2.4,1,5.1,1.4,7.4,2.9c2.7,1.8,5.6,3.3,8.2,5.3c2.5,2,5,4,7.5,6
		c1,0.8,2.1,1.2,3.2,1.8c0.8,0.4,1.6,0.7,2.6,0.7c1.6,0,3.2-0.3,4.8-0.4c1.5-0.1,2.4-1.4,2.2-2.9c-0.2-2.6-1.5-4.6-3.3-6.3
		c-2.2-2.2-5.1-3.7-7-6.3c-1.5-2-3.8-3.2-5.3-5.2c-0.1-0.1-0.3-0.2-0.4-0.3c-1.9-1.6-4.3-2.8-5.6-5c-1-1.6-2.1-3.1-2.6-4.8
		c-0.7-2.2-1.3-4.5-1.3-7c0-1.7-0.5-3.5-0.7-5.2c-0.3-2-0.4-4-0.5-6c-0.2-2.5-0.1-5.1-0.8-7.5c-0.2-0.6-0.2-1.3-0.4-1.9
		c-0.5-1.4,0-2.8-0.2-4.2c-0.2-1.4-0.8-2.6-1.1-4c-0.1-0.3-0.4-0.4-0.7-0.5C106.6,143.5,106.1,143.5,105.5,143.5z"/>
	<path d="M122.7,134.9c0.8-0.2,1.7-0.1,2.8,0.5c0.8,0.4,1.2,1,1.4,1.7c0.9,3.6,2.3,6.9,3.2,10.5c0.7,2.7,1.6,5.4,2.4,8
		c0.3,0.8,0.6,1.6,0.9,2.5c0.1,0.3,0.2,0.6,0,0.9c-0.3,0.5-0.1,0.4,0.3,0.4c0.1,0,0.3,0.1,0.2,0.2c-0.3,1.5,1.9,1.6,1.7,3.1
		c0,0.5,1.1,0.6,1.5,1.2c0.5,0.7,1.1,1.2,1.5,2c0.1,0.1,0.1,0.3,0.2,0.4c3.1,0.8,4.7,3.8,7.6,4.9c0.4,0.1,0.7,0.4,1.1,0.5
		c3.3,1.4,6.3,3.2,9.6,4.5c1.7,0.7,3.1,2,4.5,3.2c0.9,0.8,2,1.5,3.1,2.2c0.5,0.3,0.8,0.7,1,1.2c0.4,0.8,0.7,1.6,1.4,2.3
		c1.5,1.6,1.3,4.5-0.3,6c-2.6,2.4-5.5,3-9,2.3c-3.8-0.7-7.2-2-10.5-3.7c-2.6-1.4-5.2-2.8-7.8-4.1c-2.9-1.4-5.9-2.7-9.1-2.7
		c-3,0-5.7-0.9-8.5-1.6c-1.9-0.5-3.5-3.3-3.5-5.5c0-1-0.3-2.1-0.3-3.2c-0.1-2.3-0.3-4.7-0.1-7c0.2-2.1,0.5-4.2,0.5-6.4
		c0-0.4-0.2-0.8-0.3-1.2c-0.5-2.1-0.4-4.3-0.9-6.4c-0.2-0.8-0.6-1.5-0.8-2.2c-0.3-1-0.1-2.2-0.6-3.2c-0.5-1.1-0.9-2.2-1.8-3.1
		c-0.9-0.9-1.3-2.2-1.9-3.3c-0.4-0.6-0.3-1.5,0.6-2.1C115.3,136,119.6,134.8,122.7,134.9z M160.9,192.4c4.2,0.1,5.8-1.9,5-5.6
		c-0.3-1.2-1-2.1-1.7-3.2c-1.3-2.1-3.5-3.2-5.3-4.8c-2.3-2-5.2-2.9-7.9-4.1c-3.6-1.6-7-3.3-10.2-5.6c-3.1-2.2-5.6-4.8-7.8-7.8
		c-0.9-1.2-1.1-2.6-1.8-3.8c-0.1-0.1,0-0.4,0-0.4c1.7-0.5,0.2-0.6-0.1-0.9c-0.2-0.1-0.1-0.3,0-0.5c0.1-0.5,0-1-0.3-1.3
		c-0.7-0.7-0.7-1.6-1.1-2.5c-0.1-0.3,0-0.7-0.2-1c-0.9-1.7-1.3-3.6-1.9-5.4c-0.5-1.5-1-3.1-1.4-4.6c-0.1-0.7-0.7-1.4-0.3-2.2
		c0.1-0.3-1.5-2.7-1.9-2.9c-0.3-0.1-0.6-0.2-0.9,0c-0.7,0.3-1.5,0.3-2.3,0.3c-2.2,0.1-4.2,0.9-6.2,1.8c-1.3,0.6-1.3,0.7-0.7,2
		c0.4,0.8,0.9,1.5,1.3,2.2c0.6,0.9,1.2,1.7,1.6,2.7c0.9,2.7,2,5.3,2.1,8.3c0.1,2.3,0.8,4.6,0.6,6.9c-0.1,0.8-0.1,1.6,0,2.4
		c0.2,1.1,0.1,2.2,0.1,3.3c0,0.8-0.6,1.8-0.4,2.3c0.6,1.7,0,3.4,0.3,5.1c0.3,1.3,0.2,2.7,0.4,4c0.4,2.1,2.3,2.8,3.9,3.4
		c1.4,0.5,3,0.7,4.5,0.9c3.3,0.3,6.7,0.5,9.8,1.9c1.6,0.7,3.3,1.2,4.8,2.1c1.6,0.9,3.2,2,4.8,2.7c2.7,1.3,5.4,2.9,8.5,3.4
		C158.1,191.8,159.7,192.2,160.9,192.4z"/>
	<path d="M137,249.8c-3.3,0.3-6.6,0.2-9.9-0.1c-2.3-0.2-4.7-0.4-7-0.9c-1.5-0.4-2.6-1.4-3.2-2.8c-0.5-1-0.9-0.6-1.2-0.1
		c-1.4,2.1-3.6,2.9-5.8,3.6c-1.9,0.5-3.8,0.3-5.8,0.3c-2.1-0.1-4.3-0.2-6.4-0.3c-1.9-0.1-3.5-0.7-5.1-1.7c-1.2-0.8-1.4-2.1-1.1-3.4
		c0.5-2.2,1.2-4.3,1.7-6.5c0.5-2.7,0.8-5.5,1.3-8.2c0.2-1.3,0.7-2.6,1.1-3.8c0.2-0.5,0.5-1,1.1-0.4c1.8,1.7,4,2.4,6.3,2.6
		c2.5,0.2,5.2,0.4,7.7-0.5c2.6-0.9,5.3-1.8,7.5-3.5c0.6-0.4,0.9-1.1,1.3-1.8c0.1-0.2,0.1-0.3,0.3-0.5c0.3-0.4,0.7-1,1-1
		c0.5,0,0.7,0.7,0.8,1.2c0.4,1.1,1.6,1.6,2.3,2.5c1.1,1.5,2.6,2.6,4,3.8c0.6,0.5,1.6,0.9,2.4,1.4c2.6,1.4,5.4,2.3,7.8,3.9
		c0.7,0.5,1.7,0.7,2.5,0.8c2.7,0.3,5.3,1,7.9,1.4c3.9,0.6,7.4,2.3,10.6,4.4c0.4,0.2,0.6,0.5,0.6,1c-0.1,1.2-0.3,2.3-1.2,3.1
		c-0.7,0.6-1.2,1.4-1.9,1.9c-2,1.4-4.2,1.8-6.5,2c-3.1,0.3-6.2,0.8-9.3,1.2C139.6,249.7,138.3,250.1,137,249.8z M120.3,223.3
		c-0.3,0.6-0.6,1.1-1.1,1.5c-2.8,2.1-5.9,3.7-9.3,4.5c-2.3,0.6-4.6,0.6-6.9,0.4c-2-0.2-4-0.8-5.7-1.9c-0.7-0.5-0.9-0.1-1.1,0.5
		c-0.5,1.6-0.8,3.2-1.1,4.8c-0.5,3.3-1.1,6.5-2.2,9.7c-1,3,0.2,5,3.1,5.3c3.7,0.5,7.4,0.6,11.2,0.6c3.7,0,6.8-1.2,8.9-4.6
		c0.2-0.4,0.4-0.7,0.9-0.7c0.5,0.1,0.5,0.5,0.7,0.9c0.7,1.5,1.5,2.9,3.3,3.3c2,0.4,4,0.6,6.1,0.8c3,0.3,5.9,0.2,8.9,0.2
		c3.5,0,7-0.6,10.4-1.1c1.9-0.3,3.8-0.6,5.7-0.7c2.7-0.2,4.7-1.4,6.4-3.4c0.3-0.4,0.7-1,0-1.5c-1.7-1.4-3.6-2.5-5.6-3.3
		c-2.6-1.1-5.4-1.5-8.1-2.1c-1-0.2-1.9-0.4-2.9-0.6c-1.9-0.3-3.9-0.5-5.6-1.6c-0.2-0.1-0.5-0.4-0.8,0c-0.9,1.1-1.9,2.1-2.8,3.2
		c-0.7,0.8-1.3,1.9-2.1,2.6c-0.2,0.2-0.5,0.3-0.7,0.1c-0.3-0.2,0.1-0.4,0.1-0.6c0.1-0.5,0.5-0.8,0.8-1.2c1.3-1.6,2.6-3.2,3.9-4.8
		c-0.9-0.4-1.7-0.6-2.4-1.1c-1-0.7-1.6-0.4-2.1,0.6c-0.7,1.5-1.8,2.8-2.8,4.1c-0.3,0.4-0.7,1.2-1.2,0.8c-0.5-0.3,0.2-0.9,0.3-1.4
		c0.1-0.2,0.3-0.4,0.4-0.6c0.8-1.1,1.7-2.2,2.5-3.3c1-1.4,1-1.5-0.7-2c-0.7-0.2-1.2-1.2-1.9-0.8c-0.6,0.3-0.9,1.2-1.4,1.8
		c-1.1,1.3-2.2,2.5-3.3,3.8c-0.2,0.3-0.5,0.4-0.7,0.2c-0.3-0.2,0-0.5,0-0.7c0.2-0.9,1-1.3,1.5-1.9c1-1.3,2.2-2.3,2.9-3.8
		c0.1-0.3,0.2-0.5-0.1-0.7C123.8,226.7,122.3,224.8,120.3,223.3z"/>
	<path d="M61.7,78.6c-0.2,0.3-0.6,0.4-0.9,0.2c-0.7-0.4-1.3-0.8-2-1.2c-3.2-2-6.1-4.5-9-6.9c-0.3-0.2-0.9-0.4-0.3-1
		c0.5-0.6,1-0.2,1.3,0.1c1.5,1.3,3.1,2.6,4.6,3.8c1.9,1.4,3.7,2.8,5.4,4.4C61.2,78.3,61.7,78.1,61.7,78.6z"/>
	<path d="M9.1,80.1C9,79.6,8.4,80,8.2,79.6c-0.2-0.4,0.1-0.7,0.4-1c2.4-2.7,4.7-5.3,7.3-7.8c0.6-0.5,0.7-1.3,1.3-1.8
		c0.3-0.3,0.5-0.6,0.9-0.2c0.4,0.4,0.3,0.6,0,1c-1.5,2-3.3,3.7-4.9,5.6c-1.1,1.3-2.5,2.5-3.6,3.9C9.5,79.5,9.7,80.1,9.1,80.1z"/>
	<path d="M15.4,66.7c-0.1,0.1-0.1,0.3-0.2,0.4c-0.9,1-1.5,2.3-2.4,3.2c-1.4,1.4-2.5,3-3.8,4.5c-0.6,0.7-1.1,1.5-1.5,2.3
		c-0.3,0.4-0.4,0.7-1,0.4c-0.6-0.3-0.4-0.8-0.2-1.1c0.7-1.2,1.4-2.4,2.3-3.4c1.9-2.1,3.8-4.2,5.6-6.5c0.2-0.3,0.4-0.5,0.8-0.4
		C15.1,66.2,15.3,66.4,15.4,66.7z"/>
	<path d="M69.7,70.4c-0.1,0.5-0.4,0.4-0.7,0.2c-1.6-0.7-3-1.6-4.4-2.7c-1.9-1.4-3.9-2.8-5.8-4.4c-0.2-0.2-0.5-0.3-0.6-0.5
		c-0.2-0.4-0.8-0.7-0.2-1.3c0.6-0.6,0.7,0.2,1,0.4c2.4,1.8,4.7,3.7,7.2,5.4c0.9,0.6,1.8,1.2,2.7,1.8C69.4,69.7,69.2,70.2,69.7,70.4z
		"/>
	<path d="M13.1,65.2c-0.7,0.6-0.8,1.6-1.5,2.1c-1.7,1.4-2.8,3.2-4.5,4.6c-1,0.9-1.9,1.8-2.7,2.9c-0.3,0.5-0.8,0.4-1.2,0.1
		c-0.4-0.3,0.1-0.6,0.2-0.8c2.2-2.3,4.4-4.6,6.5-6.9c0.7-0.7,1.3-1.4,1.9-2.2c0.2-0.2,0.5-0.5,0.8-0.2C12.9,65,13,65.1,13.1,65.2z"
		/>
	<path d="M20.6,71.6c-0.1,0.2-0.2,0.3-0.4,0.4c-2.2,2.5-4.2,5.2-6.6,7.6c-0.5,0.4-0.7,1.1-1.1,1.6c-0.2,0.3-0.4,0.6-0.9,0.3
		c-0.4-0.3-0.3-0.6-0.1-1c0.8-1,1.4-2,2.3-2.9c1.9-1.9,3.5-4.2,5.4-6.2c0.3-0.3,0.5-0.8,1-0.3C20.5,71.3,20.5,71.4,20.6,71.6z"/>
	<path d="M66.6,72.1c-1.5-0.4-2.7-0.8-3.7-1.5c-2.2-1.6-4.5-3.1-6.8-4.6c-0.4-0.3-0.8-0.7-1.2-1c-0.3-0.2-0.4-0.4-0.2-0.8
		c0.3-0.4,0.6-0.3,0.9-0.1c1.2,0.9,2.5,1.7,3.7,2.7c1.5,1.3,3.3,2.1,4.8,3.2C65,70.6,65.9,71,66.6,72.1z"/>
	<path d="M62.8,73.7c-1.2,0.1-2.1-0.5-3-1.1c-2.3-1.4-4.4-3.2-6.7-4.7c-0.3-0.2-0.5-0.4-0.8-0.5c-0.4-0.2-0.6-0.3-0.3-0.8
		c0.3-0.5,0.6-0.6,1-0.2c1.3,1,2.6,2.1,4,3c1.7,1.1,3.2,2.6,5.1,3.5C62.5,72.9,62.7,73.2,62.8,73.7z"/>
	<path d="M2.6,73.6c-0.2,0-0.4-0.1-0.5-0.3C2,73.1,2,72.9,2.2,72.7c1.6-1.7,3.2-3.5,4.8-5.2c1.3-1.4,2.6-2.7,3.8-4.1
		c0.3-0.4,0.5-0.5,0.9-0.2c0.3,0.3,0.2,0.5-0.1,0.7c-1.1,0.7-1.8,1.7-2.4,2.7c-1,1.5-2.4,2.5-3.5,3.8c-0.8,1-1.6,1.9-2.5,2.8
		C3,73.4,2.9,73.6,2.6,73.6z"/>
	<path d="M54.9,105.2c0.2,0.2,0.4,0.4,0.3,0.8c-0.6,1.7-0.7,3.6-2,5.3c-0.3-1.2,0.2-2.1,0.5-3.1c0.3-0.9,0.6-1.9,1-2.8
		C54.8,105.3,54.8,105.3,54.9,105.2z"/>
	<path d="M35,156.9c-0.1-1.3,1.6-3,3.1-3.1c0.8,0,2.1,1.2,2.2,2.1c0.1,1.1-1.5,3.3-2.4,3.4C36.2,159.4,35.1,158.5,35,156.9z
		 M38.3,154.8c-1.2,0-2.2,0.9-2.2,1.9c0,0.8,0.7,1.5,1.5,1.5c0.7,0,1.6-1.1,1.6-2C39.2,155.4,38.8,154.8,38.3,154.8z"/>
	<path d="M48.8,120.7c-0.5,1.2-0.9,2.5-1.7,3.6c-0.1,0.2-0.2,0.3-0.4,0.2c-0.1-0.1-0.3-0.2-0.2-0.3
		C47.4,123.1,47.5,121.5,48.8,120.7z"/>
	<path d="M50,119.1c-0.4-1,0-1.7,1.1-2.2C51.2,117.8,50,118.1,50,119.1z"/>
</g>
</svg>
