<?xml version="1.0" encoding="utf-8"?>
<!-- Generator: Adobe Illustrator 18.1.1, SVG Export Plug-In . SVG Version: 6.00 Build 0)  -->
<svg version="1.1" id="Ebene_1" xmlns="http://www.w3.org/2000/svg" xmlns:xlink="http://www.w3.org/1999/xlink" x="0px" y="0px"
	 width="250px" height="250px" viewBox="-18 -60 250 250" enable-background="new -18 -60 250 250" xml:space="preserve">
<g>
	<path d="M61.2,93.5c0.1-1.7,0-3.4-0.1-5c-0.2-2.1-0.3-4.4-0.2-6.9c0.1-1.4,0-2.8,0-4.2c0-1-0.1-2.1-0.1-3.2c0-1.4-0.1-2.8-0.1-4.2
		c-0.1-1.1-0.1-2.2-0.1-3.3c0-3.6-0.3-7.1-0.7-10.3c-0.3-2.6-1.3-5.2-3-8.1c-1.4-2.4-3.5-4-6.2-4.8c-0.6-0.2-1.2-0.4-1.8-0.5
		l-0.9-0.3c-0.7-0.2-1.4-0.5-2.1-0.8c-0.5-0.2-1-0.5-1.5-0.6c-1.1-0.4-1.8-1.1-2.2-2.1c-0.3-0.6-0.8-1-1.4-1.4
		c-1-0.8-2.2-1.2-3.4-1.5c-0.7-0.2-1.4-0.5-2-0.7c-0.1,0-0.6-0.5-1-0.8c-0.2-0.2-0.4-0.3-0.4-0.3c-0.1,0-0.1-0.1-0.2-0.2
		c-0.2-0.1-0.4-0.3-0.6-0.4c-1-0.3-2.1-0.7-3.1-1.1c-0.3-0.1-0.7-0.3-1-0.4c-0.1,0-0.1-0.1-0.2-0.1c-0.1-0.1-0.2-0.1-0.4-0.1h-0.2
		c-2.3,0-4.3,0-6.3,0.3c-0.6,0.1-1.2,0.3-1.8,0.6c-0.9,0.4-1.7,0.7-2.7,0.6l-0.1,0c-0.2,0-0.4,0.2-0.6,0.3c-0.1,0.1-0.1,0.1-0.2,0.2
		c-0.9,0.6-1.5,1.4-2.1,2.1c-0.2,0.2-0.4,0.5-0.6,0.7c-0.7,0.8-1.6,1.5-2.4,2.1c-0.8,0.6-1.6,1.2-2.2,1.9c-0.1,0.2-0.2,0.2-0.3,0.2
		c-0.1,0-0.2,0-0.3-0.1c-0.5-0.2-1-0.4-1.5-0.4c-0.8,0-1.6,0.3-2.3,0.6C3.5,42,2.3,42.8,1,43.5c-0.7,0.4-1.4,0.9-2.1,1.3
		c-1.4,0.8-2.4,1.5-3.3,2.4c-0.8,0.7-1.2,1.6-1.6,2.5c-0.5,1-1,1.9-1.8,2.5C-8,52.3-8,52.4-8,52.5l0,0.1c-0.2,0.6-0.3,1.2-0.5,1.7
		c-0.4,1.4-0.7,2.9-1.2,4.2c-0.3,0.7-0.4,1.5-0.5,2.3c0,0.3-0.1,0.6-0.2,0.9c-0.1,0.3-0.2,0.7-0.2,1c0,0.6-0.2,1.2-0.3,1.8
		c-0.2,0.7-0.3,1.5-0.3,2.3l0,0.6c0,2,0,4-0.2,6c0,0.2-0.1,0.5-0.1,0.7c-0.1,0.9-0.2,1.7-0.2,2.6c0.1,2.1,0.1,4.2,0.1,6.2l0,1.1
		c0,0.4,0.1,0.9,0.2,1.3c0.1,0.6,0.2,1.1,0.1,1.7c-0.3,1.5-0.3,2.9-0.2,4.4c0,0.6,0,1.2,0,1.8c0,1-0.1,2-0.3,3l0,0.1
		c0,0.2-0.1,0.4-0.1,0.6c0.3,2,0.3,4.2,0.2,6.3c0,0.4,0,0.9,0,1.3c0,0.9,0,1.8-0.3,2.7c-0.2,0.4-0.1,0.9,0,1.2
		c0.4,1.3,0.4,2.6,0.5,3.9l0,0.1c0,1.1,0,2.1-0.1,3.2c-0.1,1.5-0.2,3.1,0,4.7l0,0.1c0,0.2,0.1,0.4-0.1,0.6c-0.3,0.3-0.4,0.6-0.3,0.8
		c0.1,0.3,0.4,0.4,0.8,0.5l0.1,0c1,0.2,2.1,0.4,3.5,0.4c0.6,0,1.1,0,1.7,0c0.6,0,1.1,0,1.7,0c1.2,0,2.1,0.1,2.9,0.2L-1,123
		c0,0.5,0,1,0,1.5c0,0.8,0,1.6-0.1,2.3c-0.2,1.6-0.1,3.2,0,4.8c0,0.7,0.1,1.5,0.1,2.3c0,0.9,0,1.8-0.1,2.7c-0.1,1.5-0.2,3,0,4.5
		c0.2,1.7,0.3,3.5,0.4,5.2c0,0.4,0,0.8,0,1.1c0,0.7,0,1.4,0,2c0,0.9,0,1.8,0.1,2.6c0.1,1.2,0.2,2.5,0.4,3.7c0.1,0.8,0.2,1.5,0.3,2.3
		c0.1,0.8,0.2,1.5,0.3,2.3c0.3,2.1,0.5,4.2,0.5,6.4c0,1.7,0.3,3.5,0.7,5.2c0.1,0.8,0.3,1.5,0.4,2.3c0.1,0.8,0.7,1,1.2,1.2
		c0.5,0.2,1,0.3,1.5,0.5c1.1,0.4,2.2,0.8,3.4,1.1l0.2,0c0.6,0.1,1.4,0.3,1.8,0.7c0.7,0.7,1.1,1.1,1.7,1.1c0.4,0,0.8-0.2,1.3-0.4
		c2.7-1.4,5.6-2,8.5-1.9c2.6,0.1,5.4,0.3,8.4,0.6c2.6,0.2,4.7,0.4,6.7,0.4c0.8,0,1.5,0,2.3-0.1c4.4-0.2,7.6-1.5,9.8-4.1
		c0.1-0.1,0.2-0.2,0.3-0.3c0.3-0.3,0.7-0.6,0.6-1.1c-0.5-1.8-0.6-3.6-0.3-5.9c0.1-0.5,0-1-0.2-1.6l0-0.1c-0.3-0.8-0.6-1.8-0.3-2.4
		c0.4-0.8,0.4-1.5,0.4-2.1l0-0.1c-0.1-2.3-0.2-4.7,0.2-7c0.3-1.8,0.2-3.5,0.1-5.3c-0.1-1.3-0.1-2.6,0-3.8c0.3-3.7-0.1-7.3-0.6-11.3
		c-0.1-1.2-0.2-2.3-0.3-3.5c-0.1-1.5-0.2-3-0.4-4.4c-0.1-0.4,0-0.5,0-0.5c0,0,0.2,0,0.6,0.1c0.9,0.5,2,0.7,3.1,0.8
		c1.7,0.1,3.3-0.1,5.6-0.6c2.3-0.5,2.5-0.6,2.5-3c0-1.6,0.2-3.2,0.3-4.8c0.2-1.5,0.3-3,0.3-4.5l0-0.5c0-0.8,0-1.6,0.1-2.4
		c0.5-3.4,0.8-7,0.9-10.5c0-0.8,0-1.6-0.1-2.4C61.3,95.3,61.2,94.4,61.2,93.5z M47.6,118.2c0.1-1.9-0.2-3.9-0.4-5.8l0-0.4
		c-0.2-1.5-0.2-3.1-0.2-4.6c0-0.6,0-1.3,0-1.9l0-0.5c-0.1-2-0.1-4.1-0.1-6.1c0-4.4,0.4-8.3,1.4-11.8c0.9-3.4,1.2-6.9,1.5-10.3
		c0-0.5,0.1-1,0.1-1.6c0-0.1,0-0.3,0-0.4c-0.1-0.5-0.1-0.7,0.4-0.8c0.1,0,0.2-0.2,0.2-0.2c0-0.1,0-0.2,0-0.3
		c-0.7-0.9-0.4-1.8-0.2-2.7c0.1-0.4,0.2-0.9,0.3-1.4c0-0.5,0.1-1,0.1-1.5c0.1-0.5,0.1-0.9,0.1-1.4c0,0,0-0.1,0-0.1
		c0-0.2,0.1-0.4-0.1-0.6c-0.1-0.1-0.3-0.2-0.6-0.2l-0.1,0c-0.4,0-0.7,0.1-0.8,0.8c-0.1,0.4-0.1,0.9-0.2,1.3
		c-0.2,1.2-0.4,2.5-0.5,3.7c-0.1,0.8-0.2,1.6-0.3,2.4c-0.2,1.7-0.5,3.5-0.2,5.4c0.2,1.3-0.2,2.7-0.6,4c-0.1,0.4-0.2,0.9-0.3,1.4
		c-0.1,0.5-0.2,1-0.4,1.6c-0.1,0.2-0.1,0.4-0.1,0.7c0,0.5,0,0.7-0.4,0.9c-0.3,0.1-0.1,0.6-0.1,0.6c0.2,0.8,0.1,1.6-0.1,2.5
		c-0.8,2.7-0.8,5.5-0.8,8.2c0,0.7,0,1.3,0,2c0,1.7,0.1,3.4,0.1,5.1c0,0.6,0.1,1.3,0.1,1.9c0,0.7,0,1.4,0,2c0,1.2-0.1,2.5,0.2,3.8
		c0.5,2.2,0.4,4.3,0.4,6.1c0,1,0,2.1,0.1,3.1c0,0.4,0.1,0.8,0.1,1.3c0,0.3,0.2,0.4,0.3,0.4c0.1,0,0.1,0,0.2-0.1
		c-0.1,1.1-0.1,2.2,0.2,3.3c0.1,0.6,0.1,1.2,0.1,1.9c0,0.6,0,1.2,0.1,1.9c0.2,1.1,0.2,2.3,0.3,3.5c0,1.1,0,2.2,0.2,3.3l0.1,0.4
		c0.2,1,0.4,2.1,0.2,2.9c-0.2,0.7-0.2,1.4-0.2,2.1c0,0.4,0,0.9,0,1.3c-0.2,1.5,0,3.1,0.1,4.6l0,0.3c0,0.3,0,0.6-0.1,1
		c-0.1,0.4-0.1,0.7-0.1,1.1c0,0,0,0.1,0,0.1c0,0.2,0,0.4,0.2,0.6c0.1,0.1,0.2,0.2,0.2,0.2c0,0-0.1,0-0.3,0c-0.3,0-0.3,0.4-0.4,1
		c-0.1,1-0.1,2.1-0.1,3.1c0,1,0,2.1-0.1,3.1c-0.1,1.4-0.1,2.7-0.1,4.1c0,1.4,0,2.8-0.1,4.2c-0.1,1,0.1,2,0.5,3.1
		c0.1,0.4,0.2,0.7,0.1,0.9c-0.1,0.2-0.3,0.3-0.6,0.3c-0.3,0.1-0.5,0.2-0.7,0.4c-1.4,1.9-3.5,2.3-5.7,2.7c-0.7,0.1-1.5,0.2-2.4,0.2
		c-0.8,0-1.6,0-2.3-0.1c-1,0-2-0.1-3-0.1c-1.4,0.1-2.8-0.1-4.2-0.3c-1.3-0.2-2.7-0.3-4.1-0.3c-0.8,0-1.7,0-2.5-0.1
		c-0.7,0-1.4-0.1-2.1-0.1c-0.9,0-1.7,0.1-2.4,0.2c-2.1,0.4-4,1.2-6.1,2.2c0-0.5,0-1,0-1.5c0-1.4,0-2.6,0-3.9c0.2-2.3,0.2-4.7,0.2-7
		c0-1,0-2,0-2.9c0-1.3-0.1-2.7-0.2-4c-0.1-1.8-0.3-3.6-0.1-5.4c0.1-1.6,0.2-3.2,0.3-4.7c0.1-2.1,0.2-4.3,0.5-6.4
		c0.2-1.9,0.3-3.8,0.3-5.7c0-0.7,0-1.4,0.1-2l0.1-2.1c0.1-2.7,0.2-5.5,0.3-8.2c0-2.2,0.1-4.5,0.2-6.7c0-0.9,0.1-1.8,0.1-2.8
		c0-1,0-2-0.1-2.9c-0.1-1.2-0.2-2.4,0-3.7c0.1-1.2,0.2-2.4,0.3-3.6c0.3-3.6,0.6-7.2,2-10.7c0.4-0.9,0.6-1.8,0.8-2.8
		c0.2-1,0.5-2,0.9-2.9c0.3-0.7,0.6-1.3,1.2-1.6c1-0.6,1.7-1.5,2.3-2.4c0.4-0.5,0.7-1,1.2-1.5c0.1-0.1,0.1-0.1,0.2-0.2
		c0.1-0.1,0.2-0.3,0.4-0.3c1.3-0.5,2.2-1.5,3.1-2.5c0.3-0.4,0.7-0.8,1.1-1.1c1.6-1.5,3.3-3.1,5.1-4.6c0.6-0.5,0.9-1.1,1.3-1.7
		c0.2-0.4,0.5-0.8,0.8-1.2c0.6-0.7,1-1.5,1.5-2.3c0.1-0.2,0.2-0.4,0.4-0.6c1.3-2.2,2.3-4.5,3.3-6.8l0.5-1.2c0.3-0.8,0.6-1.6,0.8-2.5
		l0.2-0.6c0.4-1.3,0.8-2.5,1.3-3.7c0.3-0.9,0.7-1.9,1-2.8c0.1-0.2,0.1-0.5,0.1-0.7c0-1,0.2-2,0.4-3c0.2-1.3,0.5-2.7,0.3-4.2
		c1.5,0.8,3.1,1.3,4.6,1.8c0.9,0.3,1.9,0.6,2.9,1c2,0.8,3.5,2.3,4.5,4.4c0.1,0.3,0.3,0.6,0.4,0.9c0.4,0.9,0.9,1.8,1.1,2.8
		c1,3.8,1.5,8,1.6,12.5c0,1.1,0.1,2.3,0.1,3.4c0.1,1.3,0.1,2.6,0.1,3.8c0,1.1,0.1,2.2,0.2,3.3c0.1,1.3,0.2,2.7,0.1,4
		c-0.1,2.6,0,5.2,0.1,7.7c0,1.2,0.1,2.4,0.1,3.6c0,2,0.1,4.1,0.2,5.6c0.1,1.9,0,4-0.1,6.1c-0.4,4.8-0.8,9.7-1.1,13.3
		c-0.1,0.8-0.1,1.5-0.1,2.3c-0.1,1-0.1,2-0.2,3c-0.1,0.5-0.1,0.7-0.5,0.8c-1.7,0.5-3.2,0.7-4.6,0.7c-1.7,0-3.2-0.3-4.7-1.1l-0.1-0.1
		c-0.2-0.1-0.3-0.2-0.4-0.4c0-0.4-0.1-0.7-0.1-1.1C47.6,120,47.5,119.1,47.6,118.2z M25.7,33.6c0.4,0,0.7,0,1.1,0c0.5,0,1,0,1.4,0.1
		c3.9,0.8,6,2.4,6.4,5.2c0.1,0.5,0.2,1,0.4,1.5c0.2,0.8,0.4,1.6,0.4,2.4c0,0.1,0,0.2,0,0.3c0,0.2,0,0.4,0,0.5
		c-0.4,0.8-0.1,1.4,0.3,2c-0.1,0.2-0.2,0.5-0.3,0.7c-0.2,0.6-0.5,1.3-0.7,2c-0.1,0.2-0.1,0.4-0.2,0.6c-0.3,0.8-0.5,1.6-0.3,2.6
		l0.1,0.4l0.3-0.4c0.9-1.2,1.2-2.5,1.5-3.7c0.1-0.6,0.3-1.1,0.5-1.6c0.1-0.4-0.1-0.7-0.3-0.9c0.5-1.3,0.6-2.5,0.4-3.8
		c-0.1-0.5-0.3-1-0.5-1.5c-0.3-0.9-0.7-1.7-0.5-2.6c0-0.2-0.1-0.3-0.1-0.4c0,0-0.1-0.1-0.1-0.1c2.2,0.5,4.2,1.2,5.2,2.9
		c0.1,0.2,0.2,0.4,0.4,0.5c0.5,0.8,1.2,1.7,1,2.9c0,0.3-0.1,0.7-0.1,1c-0.1,0.9-0.1,1.8-0.4,2.7c-0.2,0.5-0.2,1-0.3,1.6
		c0,0.1,0,0.3,0,0.4c-0.1,1.5-0.6,2.9-1.1,4.2c-0.1,0.3-0.2,0.7-0.4,1l-0.2,0.7c-1,3-2.1,6.1-3.5,8.9l-0.4,0.7
		c-1.4,2.7-2.8,5.5-4.9,7.9c-0.6,0.7-1.4,1.4-2.1,2c-0.6,0.5-1.2,1.1-1.7,1.7c-0.5,0.6-1.1,1.1-1.6,1.6c-0.5,0.5-1,0.9-1.4,1.4
		c-0.3,0.3-0.6,0.5-1,0.8c-1.5,1-2.6,2-3.3,3.2l-0.1,0.2c-0.1,0.2-0.3,0.4-0.5,0.6c0.1-0.4,0.3-0.7,0.4-1.1c0.4-1.1,0.9-2.2,1.4-3.2
		c0.9-1.6,1.7-3.3,2.5-5c0.5-1.1,1.1-2.1,1.6-3.1c0.8-1.6,1.7-3.3,2.5-5.1c0-0.1,0.1-0.1,0.1-0.2c0.2-0.5,0.5-1.2-0.2-1.9l-0.2-0.2
		L27,64.4c-0.2,0.4-0.3,0.8-0.5,1.2c-0.4,1-0.7,1.9-1,2.8c-0.1,0.3-0.2,0.3-0.3,0.3c-0.1,0-0.1,0-0.2,0c0,0,0,0,0,0c0,0,0-0.1,0-0.1
		c0-0.1,0-0.1,0-0.2c-0.2-0.9-0.4-2-0.6-3c-0.2-1.1-0.7-2.2-1.6-3.3c-1.2-1.4-2.1-3-2.9-4.6l-0.4-0.7c-0.6-1-1.1-2-1.6-3
		c-0.2-0.5-0.5-0.9-0.7-1.4c-0.9-1.8-1.1-3.6-1.3-5.6l-0.1-0.6c-0.3-2.7,0.2-5.5,1.9-8.9c1.2-2.5,3.4-3.7,7.2-3.8
		C25.2,33.6,25.5,33.6,25.7,33.6z M14.4,48.3c0.3,2.6,1.4,4.9,2.8,7.5c1.3,2.4,2.7,4.7,4.5,7.3c1,1.5,1.5,3.5,1.6,6
		c0,0.1,0,0.2,0,0.4c0,0.5,0,1,0.4,1.5c0.1,0.1,0.2,0.3,0.2,0.5c0,0.1,0,0.2-0.1,0.3c-1,0.7-1.3,1.7-1.5,2.6
		c-0.1,0.3-0.2,0.6-0.3,0.9c-0.2,0.7-0.6,1.3-1,1.9l-0.2,0.4c-0.4,0.6-0.6,1.1-0.9,1.8c-0.3,0.6-0.6,1.3-1,1.9
		c-0.2-0.6-0.2-1.3-0.2-1.9c0-0.3,0-0.7-0.1-1c-0.3-2.8-1.7-5.3-2.9-7.7l-0.8-1.6c-1.9-3.6-3.9-7.4-4.9-11.5c-1-3.9-1.9-8.4-0.8-13
		c0.3-1.1,0.9-2.1,2-3.1c0.6-0.6,1.3-1.1,2-1.6c0.9-0.7,1.9-1.4,2.7-2.3C14.3,41,13.9,44.5,14.4,48.3z M-1.1,122.7
		c-0.5-1.2-1.4-1.2-2.2-1.2c-2.2,0-4.5-0.1-6.7-0.2l-0.1,0c-0.1,0-0.3,0-0.3-0.1c0,0,0-0.1,0-0.2c0-0.5,0-0.9,0-1.4
		c0-0.9,0-1.8,0.1-2.7c0.3-2.4,0.3-4.8,0.1-7c0-0.3-0.1-0.5-0.1-0.8c-0.2-1.5-0.3-3-0.1-4.5c0.2-2,0.2-4,0.2-5.9c0-1.3,0-2.7,0-4
		l0.1-1.5c0.1-2.4,0.3-4.9,0.2-7.4c0-0.9,0-1.8,0-2.7c0-1,0-2.1,0-3.1c0-0.5-0.1-1-0.1-1.4c-0.1-0.8-0.2-1.6-0.1-2.3
		c0.4-2,0.4-4.1,0.5-6.1c0-1.9,0.1-3.8,0.4-5.6c0.9-5.2,1.9-10.2,4.6-14.7c0.9-1.5,2.1-2.7,3.5-3.5c1.5-0.8,3-1.7,4.4-2.7
		C4.3,43,5.8,42.1,7.6,42c0.1,0,0.2,0,0.3,0C8.2,42,8.3,42,8.3,42c0,0,0.1,0.1-0.2,0.5c-0.3,0.4-0.4,0.9-0.4,1.4l0,0.1
		c-0.1,0.3-0.2,0.6-0.3,0.9c-0.2,0.5-0.4,1-0.4,1.5C7,47.2,7,47.8,7,48.5c0,0.8,0,1.6,0.1,2.4c0.1,0.6,0.2,1.3,0.3,1.9
		c0.2,1.6,0.4,3.2,0.9,4.9c0.3,1.1,0.8,2.2,1.2,3.2c0.3,0.6,0.6,1.3,0.8,2C11,65,12.1,67,13.2,69c0.4,0.7,0.7,1.4,1.1,2
		c1,2,2,4.1,2.6,6.5c0.2,0.7,0.2,1.4,0.3,2.1c0.1,0.9,0.2,1.9,0.5,2.8c0.2,0.7,0.1,1.2,0,1.8c0,0.2-0.1,0.5-0.1,0.8
		c0,0.3-0.2,0.4-0.4,0.6c-0.2,0.1-0.4,0.3-0.5,0.6c-0.5,1.1-0.8,2.3-1.1,3.5c-0.3,1.1-0.6,2.2-1,3.3c-0.8,1.8-1.1,3.8-1.5,5.7
		l-0.1,0.7c-0.4,2-0.5,4.1-0.6,6.1c0,0.4,0,0.8-0.1,1.2c-0.1,2.1-0.1,4.2-0.1,6.2c0,1.4,0,2.9,0,4.3c0,0.7,0,1.5,0,2.2
		c0,2-0.1,4.2-0.4,6.2c-0.2,1.3-0.2,2.6-0.1,3.9c0,1.3,0.1,2.6-0.1,3.9c-0.2,1.7-0.2,3.4-0.2,5c0,1.1,0,2.2-0.1,3.3
		c-0.1,1.4-0.2,2.9-0.4,4.3c-0.1,1.3-0.3,2.6-0.4,3.9c0,0.5,0,1.1,0.1,1.6c0.1,0.7,0.2,1.4,0,2c-0.4,1.4-0.3,2.9-0.2,4.3
		c0,0.5,0.1,1.1,0.1,1.6c0,0.9,0,1.8,0,2.8c0,1.4,0,2.8,0.1,4.2c0.1,1.7,0,3.3-0.2,5c-0.1,0.7-0.1,1.3-0.1,2c0,0.3,0,0.6,0,0.9
		c0,0.6,0,1.2-0.1,1.7c-0.5-0.5-1.1-0.7-1.8-0.8c-1-0.1-1.9-0.5-2.8-1c-0.3-0.2-0.6-0.3-1-0.5c-0.2-0.1-0.3-0.3-0.4-0.5
		c-0.1-0.3-0.1-0.7-0.2-1c-0.3-1.6-0.6-3.2-0.7-4.8c-0.1-0.9-0.1-1.7-0.1-2.6c-0.1-1.5-0.1-3-0.3-4.4c-0.4-2.8-0.9-6-1.2-9.3
		c-0.2-2.1-0.2-4.2-0.3-6.2c0-1.6-0.1-3.3-0.2-4.9c-0.1-1.1,0-2.3,0-3.4c0-0.9,0.1-1.9,0-2.8l0-0.4c-0.1-1.6-0.1-3.3,0-4.9
		c0.2-2.2,0.2-4.4,0.3-6.5c0-1.8,0.1-3.7,0.2-5.5c0.1-0.8,0.1-1.7,0.1-2.5c0-1.3,0.1-2.7,0.3-4.1c0.4-2.7,0.5-5.4,0.6-7.5
		c0-1.9-0.1-3.8-0.2-5.6C2.1,96,2,95.1,2,94.1c-0.2-3.9-0.3-7.4-0.4-10.8c-0.1-2.4-0.4-4.9-0.8-7.2c-0.2-1.3-0.4-2.7-0.5-4.1
		c-0.2-2.3-0.7-4.4-1.2-6.4c0,0,0-0.1,0-0.1c0-0.2-0.1-0.6-0.5-0.6c0,0,0,0,0,0c-0.2,0-0.3,0.1-0.4,0.2c-0.2,0.2-0.2,0.5-0.1,0.7
		c0,0.2,0,0.3,0,0.5c0,0.4,0,0.8,0.2,1.2c0.4,0.9,0.5,1.9,0.6,2.8c0,0.3,0.1,0.6,0.1,0.9c0.1,0.8,0.2,1.6,0.3,2.4
		c0.1,0.8,0.1,1.6,0.2,2.3c0.3,2.5,0.6,5,0.7,7.5c0,0.6-0.1,1.3-0.1,1.9c-0.1,0.9-0.2,1.8-0.1,2.7c0.3,1.6,0.3,3.3,0.2,5.1
		c0,0.2,0,0.3-0.1,0.5c-0.1,0.4-0.2,0.8,0,1.3c0.4,1.3,0.4,2.7,0.4,4l0,0.5c-0.1,1-0.1,2.1,0.1,3.1c0.3,1.6,0.3,3.4-0.1,5.6
		c-0.7,3.9-0.9,7.2-0.7,10.3c0,0.1,0,0.3,0,0.4c0,0.4,0.1,0.9,0,1.3c-0.3,0.9-0.4,1.8-0.5,2.7L-1.1,122.7z"/>
	<path d="M195.5,57.1c0-1.3,0.1-2.6,0.3-3.9c0.3-2.1,0.4-4.2,0.5-6.4c0-0.8,0.1-1.7,0.1-2.5c0-3.4-1.5-5.9-4.5-7.6
		c-0.2-0.1-0.5-0.2-0.7-0.2c-0.3,0-0.6-0.1-0.7-0.3c-1.1-1.5-2.4-2.5-4.5-3.4c-1.2-0.5-2.5-0.7-3.7-0.7c-1.9,0-3.7,0.6-5.7,1.8
		c-1.3,0.7-1.9,2-2.6,3.2c-0.2,0.3-0.3,0.6-0.5,0.9c-0.8,1.4-1.2,3-1.5,4.5c-0.2,0.8-0.4,1.7-0.7,2.5c-0.7,2.1-1.3,4.3-1.8,6.6
		c-0.5,2.3-1.3,4.5-2.1,6.6c-0.3,0.8-0.6,1.7-0.9,2.5c-0.3,1-0.9,1.9-1.5,2.7c-0.5,0.7-1,1.5-1.4,2.3c-0.1,0.2-0.1,0.1-0.2,0.1
		c-0.1,0-0.1,0-0.2,0l-0.1,0c-0.4,0-0.8,0.1-1.3,0.1c-1.4,0-2.8-0.2-4.2-0.4c-1.7-0.2-3.4-0.5-5.1-0.4c-1.3,0.1-2.6,0-3.9-0.1
		c-0.9-0.1-1.9-0.1-2.9-0.1c-0.7,0-1.2,0-1.8,0.1c-0.4,0-0.8,0.1-1.3,0.1c-0.3,0-0.5,0-0.8,0c-0.3,0-0.5,0-0.8,0
		c-0.5,0-1.1,0-1.8,0.1c-1.7,0.2-2.7,1.1-3,2.6c-0.2,0.7-0.1,1.5,0.3,2.3c0.2,0.6,0.5,1.2,0.7,1.8c1.2,2.9,2.5,5.9,3.4,9
		c1.2,3.9,2.4,8,3.4,12.1c0.4,1.6,0.6,3.2,0.9,4.8c0.2,1,0.3,1.9,0.5,2.9c0.4,2,1.2,3.9,2.1,5.6c0.2,0.5,0.5,1,0.7,1.5l0.1,0.1
		c0.5,1.1,1,2.3,2.1,3c0.4,0.3,0.7,0.6,1,1c0.6,0.9,1.3,1.9,2.6,1.9c1.1,0,2,0.1,2.9,0.4c1.2,0.4,2.4,0.3,3.6,0.3c0.2,0,0.5,0,0.7,0
		c0.6,0,1.4,0,2.1,0.2c0.6,0.1,1.2,0.2,1.8,0.2c0.8,0.1,1.7,0.2,2.5,0.4c0.7,0.2,1.5,0.3,2.2,0.4c0.8,0.1,1.6,0.3,2.4,0.5
		c1,0.3,2.1,0.5,3.1,0.7c1,0.2,2.1,0.4,3.2,0.7c0.6,0.2,1.1,0.4,1.7,0.6c1.1,0.4,2.3,0.9,3.6,1c0.3,0,0.7,0,1,0
		c2.6,0,4.8-0.7,6.6-2.3c1.8-1.5,3.4-3.3,4.9-5.1l1.2-1.4c1.2-1.4,2.5-2.9,3.9-4.3c3.5-3.6,7.3-7.1,11-10.5c1.2-1.1,2.4-2.2,3.6-3.4
		c0.4-0.3,0.7-0.7,1.1-1c1.4-1.2,2.8-2.4,3.5-4.3c0.7-2,0.1-4.9-2-6c-0.2-0.1-0.3-0.2-0.5-0.3c-0.4-0.2-0.9-0.4-1.2-0.7
		c-0.7-0.7-1.3-1.2-2.1-1.5c-0.3-0.1-0.6-0.2-1-0.3c-0.6-0.2-1.2-0.4-1.7-0.7c-0.7-0.5-1.4-0.8-2.1-1.1c-0.8-0.3-1.5-0.6-2.1-1.1
		c-0.4-0.3-1-0.4-1.4-0.5c-0.3,0-0.6-0.1-0.7-0.2c-0.5-0.5-1.2-0.6-1.8-0.7c-0.7-0.1-1.3-0.2-1.7-0.8l-0.1-0.1l-0.1,0
		c-1.1,0-2.1-0.4-3.2-0.9c-0.9-0.4-1.9-0.8-2.9-0.9c-0.2,0-0.3-0.1-0.4-0.2c-0.1-0.1-0.1-0.1-0.1-0.2c0.1-0.9,0-1.7-0.2-2.5
		c-0.1-0.5-0.2-1-0.2-1.5c-0.1-2.6-0.2-5.4,0-8.2C195.5,58.3,195.5,57.7,195.5,57.1z M196,73.1c4.9,1.5,9.4,3.4,13.8,5.3l1.3,0.5
		c0.1,0,0.1,0,0.2,0.1c0.3,0.1,0.5,0.2,0.4,0.6c-0.1,0.5,0.6,0.7,1,0.8l0.1,0c1.1,0.3,2.1,0.9,3.1,1.5c0.9,0.6,1.9,1.2,3.1,1.5
		c0.1,0,0.2,0.1,0.3,0.3c0.3,0.7,0.4,2,0.1,2.7c-0.2,0.5-0.5,1-1,1.5c-1.2,1.5-2.7,2.8-4.1,4c-0.3,0.3-0.6,0.6-1,0.9
		c-2.5,2.2-4.9,4.4-7.1,6.5c-3.8,3.6-7.6,7.6-12.2,13.1c-1.6,1.9-3.2,3.8-5.7,4.5c-1,0.3-2,0.4-3,0.4h0c-1.2,0-2.5-0.2-3.6-0.7
		c-2.1-0.8-4.4-1.2-6.5-1.6l-0.6-0.1c-1.5-0.3-3.1-0.6-4.7-0.9c-0.4-0.1-0.9-0.1-1.3-0.1c-0.3,0-0.6,0-0.8-0.1
		c-1.8-0.2-3.6-0.4-5.4-0.6c-1.4-0.2-2.9-0.3-4.4-0.5c-1.2-0.1-2.4-0.4-3.5-0.7c-1.7-0.5-2.7-1.9-3.6-3.3c-1.9-2.9-2.9-6.1-3.9-9.5
		c-0.4-1.1-0.6-2.4-0.7-3.8c-0.1-1.4-0.5-2.7-0.8-3.9c-0.2-0.7-0.4-1.4-0.6-2.2c-0.6-3-1.5-5.9-2.5-8.9c-0.3-1-0.7-1.9-1.1-2.8
		c-0.4-1.1-0.9-2.2-1.2-3.3c-0.4-1.4-1-2.7-1.6-4c-0.2-0.4-0.3-0.7-0.5-1.1c-0.3-0.6-0.1-1.1,0-1.6c0.1-0.3,0.2-0.5,0.2-0.8
		c0-0.1,0.4-0.1,0.5-0.1c2.3-0.3,4.8-0.4,7.5-0.4c1.1,0,2.2,0,3.3,0.1c5.5,0.2,11.3,0.7,18.5,1.5c2,0.2,4,0.4,6,0.6
		c1.5,0.1,3,0.3,4.6,0.4c3,0.3,5.9,1,9,1.8c1.4,0.4,3,0.7,4.7,1c0.8,0.2,1.2,0.7,1.6,1.4c0.3,0.4,0.6,0.9,1.2,0.9l0.2,0
		c0.4,0,0.8,0,1-0.3C196.3,73.6,196.2,73.4,196,73.1z M182,38.1c-0.7,0.5-1.3,1-1.7,1.7c-0.5,0.9-1.1,1.6-1.8,2.3
		c-0.5,0.5-0.9,1-1.3,1.6c-2.2,3.1-4.1,6.2-5.6,9.5c-0.1,0.3-0.2,0.5-0.3,0.8c-0.2,0.5-0.5,1-0.7,1.6c0-0.4,0.1-0.7,0.3-1
		c0.1-0.1,0.1-0.3,0.2-0.4c0.5-1.5,0.9-3,1.2-4.5c0.3-1.4,0.6-2.8,1.1-4.2c0.9-2.6,1.7-5.1,2.8-7.6c1-2.3,4.1-4.3,7.1-4.3
		c0.9,0,1.7,0.2,2.4,0.5c1.2,0.6,2.2,1.3,3.1,2.3C186.2,36.1,184.1,36.7,182,38.1z M173.3,53.9c0.4-0.8,0.8-1.6,1.2-2.4
		c0.7-1.6,1.7-2.9,2.6-4.3c0.5-0.7,1.1-1.5,1.6-2.2c0.6-0.9,1.3-1.7,2-2.5c0.5-0.5,0.9-1.1,1.4-1.6c1-1.3,2.4-2.2,4.4-2.8
		c0.6-0.2,1.4-0.2,2.1-0.3c0.2,0,0.5,0,0.8,0c0.1,0,0.3,0,0.4,0.5c0,0.2,0.1,0.3,0.1,0.5c0.1,0.7,0.3,1.4,0.2,2.3l-0.1,0.7
		c-0.3,1.7-0.6,3.6-1.1,5.5c-0.7,2.3-1,4.9-1,7.4c0.1,2.9,0.5,5.7,1.3,8.2c0.7,2.4,1.5,4.9,2.8,7.2c0.1,0.2,0.1,0.2,0.1,0.2
		c0,0-0.1,0-0.4,0.1l-0.1,0c-0.6,0-1.1-0.2-1.7-0.4c-0.3-0.1-0.6-0.2-1-0.3c-0.4-0.1-0.7-0.2-1.1-0.3c-0.6-0.2-1.3-0.4-2-0.5
		c-1.2-0.1-2.4-0.4-3.5-0.6c-1-0.2-2.1-0.4-3.2-0.5l-0.8-0.1c-1.2-0.2-2.5-0.3-3.8-0.3c-0.5,0-0.9,0-1.3,0.1c-0.3,0-0.6,0-0.9-0.1
		c-0.2,0-0.4-0.1-0.7-0.1c-0.4,0-0.8-0.1-1.2-0.2c-0.7-0.1-1.4-0.3-2.2-0.2c-0.2,0-0.4,0-0.4-0.1c0,0-0.1-0.2,0.1-0.5
		c0.2-0.4,0.4-0.8,0.6-1.2c0.5-1,1.1-2,1.5-3.1c0.3-0.8,0.6-1.5,0.9-2.3c0.3-0.8,0.7-1.7,1-2.6C172.3,55.8,172.8,54.8,173.3,53.9z
		 M191.9,39.3c0-0.1-0.1-0.2-0.1-0.3c0-0.1-0.1-0.2-0.1-0.2c-0.1-0.3-0.1-0.4,0-0.4c0,0,0.1,0,0.1,0c0.2,0,0.5,0.2,0.6,0.3l0.3,0.4
		c0.7,0.9,1.3,1.7,1.4,2.8c0.4,2.9,0.4,5.5,0,8c-0.3,2.1-0.4,4.3-0.4,6.3c0,1.3-0.1,2.7-0.2,4c-0.2,2.7-0.2,5.6,0.1,8.6
		c-0.2-0.4-0.4-0.7-0.6-1.1c-0.5-0.9-1-1.8-1.2-2.7c-0.2-0.8-0.4-1.6-0.5-2.4c-0.2-1.1-0.5-2.2-0.8-3.3c-1-3.9-0.4-7.8,0.3-11.1
		c0.3-1.4,0.6-2.9,0.8-4.3c0.2-1,0.3-1.9,0.5-2.9C192.2,40.2,192,39.8,191.9,39.3z M166,65.5c0.1-0.2,0.2-0.4,0.3-0.7
		c0-0.1,0.1-0.2,0.1-0.3C166.3,64.9,166.2,65.3,166,65.5z"/>
	<path d="M76.2,47.1c1.9-1.3,3.7-2.9,5.3-4.4l0.5-0.5c0.7-0.6,1.3-1.2,2-1.7c0.7-0.6,1.3-1.1,1.9-1.7c0.5-0.5,1.2-0.9,1.8-1.2
		c0.7-0.4,1.4-0.9,2-1.4c1-1,2.1-1.9,3.2-2.7l0.5-0.4c0.2-0.1,0.6-0.4,0.7-0.4c0.1,0,0.3,0.6,0.4,0.8l0.3,1.1
		c0.9,3.1,1.8,6.3,2.6,9.5c1.2,5.1,2.9,11.7,5.9,17.9c0.2,0.4,0.4,0.8,0.8,0.8c0.3,0,0.5-0.2,0.8-0.6c0.1-0.2,0.5-0.4,0.7-0.5
		c0.6-0.3,1.3-0.5,1.9-0.7c1-0.3,2.1-0.7,3-1.4c0.5-0.4,1.1-0.4,1.7-0.4c1,0,2.2-0.2,3.4-0.6c2.1-0.7,4.3-1.2,6.6-1.8
		c1.3-0.3,2.7-0.7,4-1c2-0.5,4-1,6-1.5c0.4-0.1,0.9-0.2,1.3-0.3c1.7-0.3,3.5-0.7,5.1-1.6c0.1,0,0.1-0.1,0.1-0.1
		c0.2,0.1,0.4,0.2,0.7,0.2c0.4,0,0.7-0.2,1-0.4c0.1-0.1,0.2-0.1,0.4-0.2c0.3-0.1,0.7-0.3,1.1-0.3c0.8-0.2,1.5-0.3,2.3-0.4
		c1.4-0.2,2.9-0.5,4.3-0.9c1.8-0.5,2.3-1,1.9-3c-0.5-2.7-1.1-4.9-1.9-6.9l-0.1-0.4c-0.8-2.1-1.6-4.2-2.3-6.3l-0.3-1
		c-0.8-2.2-1.5-4.6-2.2-6.9c-0.2-0.7-0.4-1.4-0.6-2c-0.5-1.7-1-3.4-1.7-5.1c-0.1-0.4-0.3-0.7-0.4-1.1c-0.1-0.3-0.2-0.6-0.3-0.9
		c-0.1-0.2-0.1-0.3,0-0.4c0.1-0.1,0.2-0.1,0.3-0.1c0,0,0.1,0,0.1,0l0.3,0c0.7,0.1,1.5,0.1,2.1,0.4c2.1,0.8,4.4,1.2,6.6,1.5
		c0.4,0.1,0.8,0.1,1.2,0.2c1,0.2,2,0.3,3,0.5c2,0.3,4.1,0.6,6.1,1.1c5,1.1,10.4,1.4,16,1c0.2,0,0.4-0.1,0.6-0.1
		c0.3-0.1,0.5-0.1,0.7-0.1c0.2,0.1,0.3,0.1,0.5,0.1c0.6,0,0.8-0.6,0.9-0.9c0.4-1,0.9-2,1.4-2.9c0.2-0.3,0.3-0.7,0.5-1
		c0.1-0.2,0.2-0.5,0.4-0.7c0.8-1.4,1.5-2.8,0.6-4.7c-0.3-0.6-0.6-1.1-1.2-1.4c-0.8-0.4-1.6-0.7-2.3-1.1c-0.8-0.3-1.7-0.7-2.5-1.1
		c-1.6-0.9-3.3-1.5-5-2.2c-0.8-0.3-1.6-0.6-2.4-0.9c-1.4-0.6-2.7-1.1-4-1.7c-2.5-1.1-5.2-2.2-7.8-3.1c-1.4-0.5-2.8-1.1-4.2-1.7
		c-0.9-0.4-1.7-0.8-2.6-1.1c-2.2-0.9-4.8-1.9-7.5-2.5c-0.8-0.2-1.6-0.3-2.4-0.4c-0.9-0.1-1.7-0.3-2.6-0.5c-2.8-0.7-6.1-1.4-9.4-1.4
		c-1,0-1.9,0.1-2.8,0.2c-2.1,0.3-3.4,1.3-3.8,3.2c-0.6,2.4-2.2,4.3-4.9,5.8c-3.6,2-6.9,2.6-10.1,2c-1.5-0.3-3.1-0.7-4.1-1.8
		c-0.8-0.8-1.8-1.2-2.8-1c-1,0.1-1.9,0.5-2.7,0.9c-0.6,0.3-1.3,0.6-2,0.8c-0.1,0-0.1,0.1-0.1,0.1c-0.9,0.4-1.5,1.1-2.1,1.8
		c-0.3,0.3-0.6,0.7-0.9,1c-1.8,1.6-3.6,3.3-5.2,5.2c-1.5,1.8-3.3,4-5,6.1c-0.2,0.3-0.5,0.5-0.7,0.8c-0.5,0.5-0.9,1-1.2,1.6
		c-0.3,0.7-0.6,1.2-1.2,1.4c-0.5,0.2-0.5,0.4-0.6,0.7c0,0.1,0,0.1-0.1,0.2c-0.1,0.3-0.1,0.6-0.1,0.9c0,0.4,0,0.7-0.3,0.9
		c-1,0.7-1.5,1.5-1.4,2.7c0,0.1,0,0.1,0,0.1c-0.2-0.1-0.3-0.1-0.5-0.1c-0.4,0-0.5,0.3-0.6,0.5c0,0.1-0.1,0.2-0.1,0.3
		c-0.2,0.3-0.4,0.5-0.7,0.8c-0.5,0.5-1,1-1.2,1.7c0,0-0.1,0.1-0.1,0.1c-0.8,0.2-1.2,0.7-1.6,1.3c-0.3,0.4-0.6,0.7-1,1
		c-0.4,0.2-0.6,0.8-0.6,1.3c-0.1,0.6-0.3,1.1-0.7,1.4c0,0,0-0.1,0-0.2c0-0.2,0.1-0.4,0-0.6L68.3,32l-0.2,0.2c0,0-0.1,0.1-0.1,0.1
		c-0.1,0.1-0.2,0.1-0.3,0.3c-0.1,0.2-0.2,0.4-0.3,0.6c-0.6,1.1-1.2,2.2-2.2,3c-0.1,0.1-0.2,0.3-0.3,0.4c0,0.1,0,0.3,0.1,0.4
		c0,0.1,0,0.2,0.1,0.3c-0.1,0-0.2-0.1-0.5-0.2c-0.1-0.1-0.3-0.1-0.4,0.1c-0.1,0.2-0.2,0.4-0.1,0.6c0,0.3,0,0.5-0.2,0.8
		c-0.6,1-1.4,1.9-2.2,2.8c-0.6,0.7-1.2,1.4-1.8,2.2l0,0c-0.3,0.2-0.5,0.4-0.5,0.6c-0.1,0.3,0.1,0.7,0.3,0.9c0.2,0.4,0.6,0.6,0.9,0.9
		c0.2,0.1,0.3,0.2,0.5,0.4c1,1,2.2,1.9,3.2,2.8c1.6,1.3,3.3,2.7,4.7,4.3c0.3,0.3,0.6,0.4,0.9,0.4c0.3,0,0.6-0.2,0.7-0.5
		c0.2-0.4,0.4-0.7,0.7-1c0.1-0.1,0.2-0.3,0.3-0.4C73.2,49.7,74.6,48.2,76.2,47.1z M170.1,19.3c-0.4,0.1-0.8,0.2-1.1,0.1
		c-3-0.2-6-0.8-8.9-1.4c-0.6-0.1-1.2-0.2-1.8-0.4c-2-0.4-3.8-0.6-5.5-0.8c-1.7-0.1-3.5-0.6-5.1-1c-1-0.3-2.1-0.5-3.2-0.7
		c-0.1,0-0.3-0.1-0.4-0.1c-0.5-0.1-0.9-0.1-1.3-0.3c-0.3-0.1-0.6-0.2-0.9-0.2c-0.5,0-1.1,0.2-1.6,0.3c-0.4,0.1-0.8,0.3-1.2,0.3
		c-0.3,0-0.5,0.2-0.6,0.5c-0.1,0.3-0.1,0.7,0.1,1c1,1.4,1.5,3,2,4.6l0.2,0.6c0.4,1.2,0.8,2.4,1.1,3.6c1.4,4.6,2.9,9.4,4.8,13.9
		c1,2.5,1.9,5,2.4,7.5c0.2,0.7,0,1-0.7,1.2c-0.7,0.2-1.4,0.3-2.1,0.5c-0.9,0.2-1.9,0.4-2.8,0.6c-0.7,0.2-1.4,0.3-2,0.5
		c-2.5,0.6-5.2,1.3-7.7,2.3c-1.6,0.6-3.2,1.3-5,1.3c-0.2,0-0.5,0-0.7,0c-0.2,0-0.4,0.1-0.6,0.1c-0.1,0-0.1,0.1-0.2,0.1
		c-1.6,0.5-3.3,1-5,1.4c-1.8,0.5-3.7,1-5.5,1.6c-1.5,0.5-3,0.7-4.4,0.9c-1.1,0.2-2.3,0.3-3.4,0.6c-1.9,0.4-3.3,1.1-4.6,2
		c-0.1-0.8-0.4-1.5-0.7-2.1c-0.8-1.6-1.3-3.3-1.8-5c-0.2-0.8-0.5-1.6-0.8-2.4c-0.2-0.5-0.3-1-0.4-1.6c-0.1-0.6-0.2-1.1-0.4-1.7
		c-0.3-0.8-0.4-1.7-0.5-2.5c-0.2-1.2-0.3-2.5-1.1-3.7c-0.2-0.3-0.3-0.7-0.3-1.1c0-0.3-0.1-0.6-0.2-0.8c-0.1-0.4-0.3-0.9-0.5-1.3
		c-0.5-1.4-0.9-2.8-1.2-4.2c-0.1-0.3-0.1-0.6-0.2-0.9c-0.1-0.5-0.2-1-0.3-1.4c-0.1-0.7-0.4-1.2-1-1.4c-0.1,0-0.2-0.1-0.3-0.1
		c-0.4,0-0.5,0.3-0.6,0.5c-0.1,0.1-0.1,0.2-0.2,0.3c-0.9,0.5-1.6,1.2-2.4,1.9c-0.6,0.6-1.3,1.2-2,1.7c-1.8,1.2-3.8,2.6-5.9,4.4
		c-1.2,1-2.4,2-3.5,3c-0.8,0.7-1.6,1.5-2.5,2.2c-0.8,0.6-1.6,1.2-2.4,1.8l-0.3,0.2c-0.5,0.3-1,0.8-1.1,1.6c-0.7-0.1-1.2,0.1-1.6,0.6
		c-0.4,0.4-0.8,0.8-1.2,1.3c-0.5,0.6-1.1,1.1-1.6,1.7c-0.3,0.4-0.4,0.4-0.8,0c-2.1-1.9-4.2-3.9-6.4-5.9c-0.2-0.2-0.2-0.2,0-0.6
		c0.5-0.8,1.1-1.5,1.6-2.2c0.6-0.7,1.2-1.5,1.7-2.3c0.4-0.7,0.9-1.4,1.3-2.1c0.7-1,1.4-2.1,2-3.2c0.1-0.2,0.2-0.3,0.4-0.3
		c0.1-0.1,0.3-0.1,0.4-0.2c0.8-0.6,1.4-1.5,2-2.3l0.2-0.3c1-1.3,2-2.6,3-3.9c0.8-1,1.6-2,2.3-3c0.9-1.2,1.5-2.3,2-3.4
		c0.3-0.8,0.9-1.5,1.5-2.1c0.2-0.2,0.4-0.4,0.6-0.6c1.1-1.4,2.4-2.7,3.6-4.1c0.9-1,1.9-2.1,2.8-3.1c0.3-0.3,0.6-0.6,0.8-1
		c1.3-1.5,2.6-3,4-4.4c1.8-1.7,4.2-3.7,7.6-4c1-0.1,1.8,0.4,2.4,0.9c1.6,1.2,3.5,1.5,5.1,1.6c6.2,0.5,11-1.7,14.3-6.3
		c0.7-1.1,1.1-2,1.1-3c0-0.7,0.5-1.1,1.3-1.4c0.9-0.3,1.8-0.5,3-0.5c0.8,0,1.6,0.1,2.4,0.1l0.5,0c2.4,0.2,4.9,0.7,7.2,1.2
		c1.2,0.3,2.5,0.5,3.7,0.8c3.8,0.7,7.5,2.2,10.9,3.7c1.3,0.5,2.6,1,3.8,1.5c1.7,0.7,3.5,1.4,5.2,2.2c2.2,1.1,4.5,2,6.7,2.9
		c2.6,1.1,5.3,2.1,7.8,3.5c0.6,0.3,1.2,0.6,1.9,0.9c1,0.4,2,0.9,2.9,1.5c0.5,0.4,0.7,0.6,0.5,1.2c-0.4,1.3-1.1,2.5-1.7,3.7
		c-0.5,0.8-0.9,1.7-1.3,2.6c-0.1,0.2-0.3,0.2-0.5,0.2c-0.6,0-1.3,0.1-1.9,0.2c-1.1,0.2-2.4,0.3-3.3,0
		C171.2,19.1,170.6,19.2,170.1,19.3z"/>
	<path d="M222.9,155.1c-0.6-1.1-1.2-2.2-1.8-3.2c-0.4-0.7-1-1.4-1.5-2.1c-0.4-0.6-0.9-1.2-1.3-1.8c-0.3-0.4-0.5-0.9-0.8-1.4
		c-0.3-0.6-0.6-1.3-1.1-1.9c-1.3-1.7-2.1-3.6-2.9-5.4c-0.9-2.3-2.2-4.5-3.4-6.6c-0.5-0.9-1-1.8-1.5-2.7c-0.4-0.8-0.9-1.5-1.4-2.1
		c-0.7-0.9-1.4-1.8-1.8-2.9c-0.1-0.2-0.3-0.3-0.4-0.3c0,0-0.1,0-0.1,0c-0.3-0.3-0.7-0.3-0.9-0.3c-0.1,0-0.3,0-0.4,0
		c-0.3,0-0.5,0-0.7,0c-0.1,0-0.1,0-0.2,0c-0.4,0-0.5,0.4-0.6,0.7c0,0.1-0.1,0.2-0.1,0.3c0,0.1-0.1,0.1-0.3,0.2c0,0-0.1,0-0.1,0.1
		c-0.4,0.2-0.8,0.3-1.3,0.5c-1.2,0.4-2.3,0.9-3.5,1.4c-2.5,1.2-5.1,2.5-8.3,4.1c-0.7,0.4-1.5,0.8-2.2,1.2c-1.3,0.7-2.6,1.5-3.9,2
		c-2.9,1.1-5.6,2.4-8.8,4.1c-0.8,0.4-1.7,0.8-2.6,1.1c-1,0.4-2.1,0.8-3.1,1.4c-0.2,0.1-0.5,0.3-0.7,0.4c-0.4,0.3-0.8,0.5-1.2,0.7
		c-1.8,0.5-3.4,1.4-5,2.3c-1.3,0.7-2.6,1.4-4,1.9c-2.5,1-5.2,2-7.7,3.4c-1.1,0.6-2.4,1-3.7,1.3c-0.2,0.1-0.5,0.1-0.7,0.2
		c-1.4,0.4-1.4,1.2-1.2,2c0.3,1.9,1.3,3.7,3,5.5c1.1,1.2,2.1,2.6,2.9,4.3c0.2,0.5,0.5,1,0.7,1.5c0.5,0.9,0.9,1.8,1.2,2.7
		c0.1,0.3,0.3,1,1.3,0.8c1.2-0.2,2.3-0.6,3.3-1.1c1-0.4,2-0.8,3-1c1.7-0.3,3.3-1.1,4.9-1.8c0.8-0.4,1.7-0.8,2.6-1.1
		c0.9-0.3,1.7-0.6,2.6-0.9c1.9-0.6,3.9-1.3,5.7-2.3c0.1,0,0.1-0.1,0.2,0c-0.1,0.1-0.2,0.2-0.4,0.3c-0.1,0-0.1,0.1-0.2,0.1
		c-2.4,1.6-4.6,2.9-6.6,4c-1.4,0.8-2.7,1.7-3.9,2.8c-0.6,0.6-1.4,0.9-2.2,1.3c-0.8,0.4-1.6,0.8-2.3,1.4c-0.7,0.6-1.6,1.1-2.4,1.5
		c-0.4,0.2-0.8,0.4-1.2,0.6c-0.5,0.3-1,0.7-0.7,1.2c0.2,0.3,0.2,0.7,0.3,1c0.1,0.5,0.2,1.1,0.6,1.6c0.2,0.2,0.5,0.4,0.7,0.7
		c0.8,0.7,1.6,1.5,2.2,2.4c0.3,0.5,0.7,1,1.1,1.5c0.7,0.9,1.4,1.8,1.8,3c0.6,1.6,1.3,3.2,2.2,4.7c0.4,0.7,0.8,1.2,1.3,1.2
		c0.3,0,0.7-0.2,1.1-0.5c1.3-1,2.9-1.7,4.4-2.4c0.6-0.2,1.2-0.5,1.7-0.8c2.7-1.3,5.6-2.7,8.3-4.4c2.1-1.3,4.3-2.4,6.5-3.5l0.6-0.3
		c1.9-0.9,3.7-2,5.4-3c1.4-0.8,2.8-1.6,4.2-2.3c1-0.6,2-1.1,3.1-1.7c3.6-2,7.3-4,11.2-5.6c0.2-0.1,0.4-0.2,0.7-0.3
		c1.5-0.6,3.2-1.2,4-3c0,0,0.1-0.1,0.2-0.1c0.1,0,0.1-0.1,0.2-0.1c0.3-0.3,0.7-0.4,1.1-0.6c0.5-0.2,0.9-0.3,1.3-0.7
		c0.1-0.1,0.2-0.1,0.4-0.1c0.3,0,0.8,0,1-0.6c0,0,0,0,0,0c0.2,0.1,0.4,0.1,0.6,0.1c1.1,0,1.7-0.8,2.2-1.4c0,0,0.1-0.1,0.1-0.1
		c0.2-0.2,0.5-0.4,0.2-0.9C223.5,156.3,223.2,155.7,222.9,155.1z M185.5,156.7c1.1-0.7,2.3-1.4,3.4-2.1c1.5-0.9,3.1-1.8,4.6-2.7
		c0.6-0.3,1.1-0.7,0.6-1.6c-0.3-0.5-0.6-0.8-1.1-0.8c-0.2,0-0.4,0-0.6,0.1c-1.3,0.5-2.5,1.2-3.7,1.9c-0.5,0.3-1,0.6-1.6,0.9
		c-2.7,1.4-4.8,2.4-6.9,3.1c-0.3,0.1-0.5,0.2-0.8,0.3c-0.8,0.3-1.7,0.6-2.4,1c-1.5,0.9-3.2,1.5-4.8,2.2c-2.2,0.9-4.5,1.8-6.9,2.6
		c-0.6,0.2-1.2,0.4-1.7,0.7c-3.3,1.5-6.9,2.4-10.2,3.3c-0.4,0.1-0.5,0.1-0.9-0.4c-0.7-1-1.2-2.1-1.7-3.2c-0.6-1.3-1.3-2.7-2.2-3.9
		c-0.1-0.2-0.3-0.3-0.4-0.4c-0.1-0.1-0.2-0.2-0.3-0.3l-0.2-0.2c-0.7-0.7-1.4-1.4-1.2-2.5c0-0.1,0-0.4-0.1-0.5
		c-0.5-0.4-0.5-0.5-0.5-0.6c0-0.1,0.4-0.2,0.6-0.3c0.2-0.1,0.3-0.1,0.5-0.2c0.3-0.2,0.6-0.3,1-0.4c0.2,0,0.3-0.1,0.5-0.1
		c2.2-0.7,4.3-1.8,6.3-2.8c1.4-0.7,2.8-1.4,4.2-2c3.7-1.6,7.4-3.4,11-5.2c1.4-0.7,2.9-1.4,4.3-2.1c1.8-0.9,3.6-1.7,5.4-2.5
		c2.8-1.3,5.7-2.6,8.5-4.1c0.5-0.3,0.9-0.5,1.4-0.8c2.5-1.4,5-2.8,7.7-3.9c1.1-0.5,2.2-0.9,3.3-1.3c1-0.4,2-0.7,2.9-1.1
		c0.1,0,0.1,0,0.1,0c0.1,0,0.1,0,0.2,0.2c0,0.1,0.1,0.1,0.1,0.2c0.4,0.6,0.8,1.1,1.2,1.7c0.8,1.1,1.7,2.3,2.4,3.6
		c0.3,0.6,0.6,1.1,0.9,1.7c1.1,2,2.3,4.1,2.8,6.4c0.3,1.3,1,2.5,2.1,3.3c0.2,0.1,0.3,0.2,0.4,0.4c0.4,0.6,0.8,1.1,1.1,1.7
		c0.8,1.1,1.5,2.2,2.1,3.4c0.8,1.6,1.8,3.1,2.8,4.5c0.6,0.9,1.3,1.8,1.9,2.8c0.2,0.3,0.3,0.5,0.2,0.6c0,0.1-0.2,0.2-0.5,0.3l0,0
		c-1.5,0.6-3,1.2-4.3,2c-3.6,2.1-7.4,4-11,5.9c-0.7,0.4-1.5,0.7-2.2,1.1c-0.8,0.4-1.6,0.9-2.3,1.3c-0.9,0.5-1.9,1.1-2.9,1.6
		c-1.9,0.9-3.7,1.9-5.4,2.9l-0.7,0.4c-1.4,0.8-2.8,1.6-4.1,2.3c-1.7,0.9-3.5,1.9-5.2,2.9c-2.9,1.7-5.9,3.3-8.8,4.8
		c-1.8,0.9-3.7,1.8-5.5,2.6c-0.8,0.4-1.6,0.7-2.4,1.1c-0.2,0.1-0.3,0.1-0.5,0.2l-0.2,0.1c-0.1,0-0.1,0-0.2-0.2l0,0
		c-0.3-0.6-0.5-1.2-0.8-1.8c-0.7-1.5-1.4-3-2.2-4.4c-0.7-1.2-1.7-2.4-2.8-3.5l-0.4-0.3c-0.7-0.6-1.4-1.3-1.9-2
		c0-0.1-0.1-0.2,0.2-0.4c0.1-0.1,0.1-0.1,0.2-0.2c0.3-0.2,0.5-0.4,0.8-0.5c1.3-0.5,2.5-1.4,3.5-2.3c0.5-0.4,1.1-0.9,1.7-1.3
		c0.8-0.6,1.7-1.1,2.5-1.6c0.7-0.5,1.5-0.9,2.3-1.4c3.1-2,6.3-3.9,9.6-5.7C180.6,159.7,183.1,158.2,185.5,156.7z M177.9,158.5
		c-0.2,0.2-0.5,0.3-0.7,0.4C177.4,158.7,177.7,158.6,177.9,158.5z"/>
	<path d="M3.9-10.3c0.2,0.3,0.4,0.6,0.6,1c0.6,0.9,1.1,1.7,1.8,2.4C7-6.4,7.5-5.7,8-5.1C8.5-4.4,9.1-3.6,9.8-3
		c0.8,0.7,1.4,1.5,1.9,2.3c0.2,0.4,0.7,0.7,1.2,1c0.3,0.2,0.6,0.4,0.9,0.6C13.9,1.1,14,1.2,14,1.2c0,0,0,0.1-0.1,0.2
		c-0.2,0.2-0.4,0.5-0.6,0.8c-0.3,0.4-0.6,0.8-1,1.1c-0.9,0.6-1.7,1.5-2.4,2.3C9.7,5.9,9.5,6.1,9.2,6.4C8.8,6.9,8.4,7.3,8,7.8
		c-1,1-2,2.1-2.9,3.3c-0.5,0.7-1.2,1.2-1.9,1.7C2.4,13.4,1.6,14,1,14.8c-0.1,0.1-0.2,0.3-0.3,0.4c-0.2,0.3-0.3,0.6-0.6,0.8
		c-1.6,1.6-3,3.4-4.4,5.1c-0.5,0.6-0.9,1.1-1.4,1.7c-0.5,0.6-1.1,1.4-0.6,2.5l0.2,0.4l0.2-0.4c0.2-0.4,0.5-0.6,0.8-0.9
		c0.2-0.2,0.5-0.3,0.7-0.5c1.3-1.5,2.6-3.1,3.9-4.7l0.4-0.5c2.4-3,4.8-5.5,7.2-7.8c1.7-1.6,3.3-3.4,4.9-5.2c0.7-0.8,1.4-1.6,2.2-2.4
		c0.5-0.5,0.7-0.8,0.9-0.8c0.2,0,0.5,0.3,1,0.8c0.1,0.1,0.2,0.1,0.3,0.2l0.1,0c1,0.5,1.8,1.3,2.6,2.1c0.3,0.3,0.5,0.5,0.8,0.8
		c0.3,0.3,0.6,0.6,0.9,0.9C21.3,8,21.8,8.6,22.5,9c0.5,0.3,0.9,0.6,1.3,1c0.5,0.4,1.1,0.9,1.7,1.2c0.3,0.1,0.5,0.3,0.7,0.5
		c0.4,0.3,0.8,0.6,1.4,0.8c0.2,0.1,0.4,0.4,0.7,0.7c0.2,0.3,0.4,0.6,0.7,0.8c0.6,0.4,1.2,0.9,1.8,1.3c0.6,0.4,1.2,0.9,1.9,1.3
		c0.7,0.5,1.4,1.1,2.1,1.6c1.6,1.2,3.2,2.5,5,3.5l0.1,0c0.2,0.1,0.4,0.2,0.6,0.2c0.2,0,0.4-0.1,0.5-0.3c0.1-0.2,0.2-0.3,0.1-0.5
		c-0.1-0.3-0.3-0.4-0.5-0.5c0,0-0.1,0-0.1-0.1c-1-0.6-2-1.4-3-2.1c-1.1-0.8-2.2-1.6-3.3-2.3c-0.3-0.2-0.4-0.4-0.6-0.6
		c-0.2-0.2-0.3-0.5-0.6-0.6c-0.8-0.4-1.5-1-2.2-1.6c-0.5-0.4-1.1-0.9-1.7-1.3c-2.1-1.3-3.9-2.7-5.4-4.1c-1.5-1.4-3-2.7-4.5-4.1
		C16,1,12.7-1.9,10-5.4C9.5-6.1,8.8-6.8,8.2-7.5c-0.9-1-1.8-2.1-2.6-3.2c-0.3-0.5-0.7-1-1-1.4c-0.7-1-1.4-2-2.1-3
		c-2.2-2.9-3.8-5.7-5.1-8.7c-1.7-4-2-8.3-1.2-13.6c0.4-2.5,1.6-4.9,3.7-7.4c1-1.2,2.3-2,3.7-2.9l0.5-0.3C7-50,10-50.4,13.2-49.3
		c2.3,0.7,4.4,1.7,6.7,2.8c3.1,1.4,5.2,3.7,6.4,6.8c0.5,1.3,1,2.7,1.5,4.1c0.3,0.9,0.6,1.8,1,2.7c0.7,1.9,0.8,3.7,0.4,5.2
		c-1,3.6-2,6.6-2.9,9.3c-0.5,1.4-1.1,2.4-1.9,3.2c0,0-0.1,0.1-0.1,0.1C24.1-15.1,24-15,23.9-15c0,0-0.1,0-0.2-0.1
		c-0.8-0.8-1.6-1.6-2.4-2.4c-0.4-0.4-0.9-0.9-1.3-1.3c-0.6-0.6-1.2-1.1-1.8-1.7c-1.1-1-2.2-2-3.2-3.2c1.1-0.7,2.1-1.7,3-2.6
		c0.6-0.6,1.2-1.2,1.9-1.8c1-0.8,2-1.7,2.3-3c0.4-1.6,0.1-3.4-0.9-4.8c-1.6-2.4-3.3-4.6-6.1-5.7c-3.5-1.4-6.3-1.9-9-1.7
		c-1.5,0.1-3,1.2-3.9,2.9c-1,1.8-1.2,3.7-0.5,5.3C3-32.6,4.8-30.8,6.5-29l0.2,0.2c1,1,2,1.9,3,2.8c1.1,1,2.2,2,3.2,3.1
		C13.8-22,14.9-21,16-20c2.1,1.7,4.1,3.6,6,5.5c0.7,0.7,1.4,1.3,2.1,2c2.7,2.6,5.7,4.9,8.3,6.9c0.5,0.4,1.1,0.8,1.6,1.2
		c2.4,1.8,4.9,3.6,6.9,5.9l0.1,0.1c0.3,0.3,0.7,0.7,1.1,0.9c1.2,0.5,2.2,1.3,3.1,2.1c0.2,0.1,0.3,0.3,0.5,0.4
		c0.7,0.7,1.5,1.4,2.7,1.5l0.3,0l-0.1-0.3c-0.2-0.4-0.5-0.6-0.8-0.7c-0.2-0.1-0.3-0.2-0.4-0.3c-0.4-0.8-1-1.3-1.6-1.8
		c-0.4-0.3-0.7-0.6-1-1c-0.2-0.3-0.6-0.4-0.9-0.5c-0.3-0.1-0.5-0.2-0.6-0.3c-0.7-1-1.7-1.8-2.6-2.5c-0.5-0.4-1-0.7-1.4-1.1
		c-1.4-1.3-2.8-2.5-4.2-3.7l-0.6-0.5c-1.4-1.1-2.9-2.3-4.4-3.2c-1.1-0.7-2-1.5-2.9-2.4c-0.6-0.5-1.2-1.1-1.8-1.6
		c-0.1-0.1-0.2-0.2-0.2-0.3c0-0.1,0.1-0.3,0.2-0.4c0.7-0.9,1.3-1.9,1.8-3.3c0.4-1.2,0.8-2.3,1.2-3.5c0.4-1.4,0.9-2.8,1.4-4.1
		c0.9-2.4,0.9-4.9,0.2-7.7c-0.4-1.4-0.8-2.7-1.3-4l0-0.1c-0.2-0.5-0.4-1-0.5-1.5c-0.5-1.6-1.1-3.3-2.1-4.8c-1-1.4-2-2.8-3.4-3.6
		l-0.9-0.5c-2.4-1.3-4.9-2.6-7.6-3.5c-1.4-0.4-2.6-0.6-3.8-0.6c-1.4,0-2.8,0.3-4.1,0.9c-3.9,1.9-7.3,3.8-9.5,7.4
		C-4-41.7-4.8-40.4-5-38.8c0,0.3,0,0.6-0.1,0.9c0,0.4,0,0.8-0.1,1.1c-0.7,1.9-0.5,3.7-0.4,5.6c0.1,0.8,0.1,1.6,0.1,2.4
		c0,1.1,0.3,2.5,0.9,4.2c0.1,0.3,0.3,0.6,0.4,0.9c0.3,0.6,0.6,1.2,0.5,1.9c0,0.3,0.4,0.6,0.7,0.7c0.4,0.1,0.5,0.6,0.5,0.6
		C-2.9-19.6-2.4-19-2-18.6c0.1,0.2,0.3,0.3,0.3,0.4c0.5,0.8,1.1,1.6,1.7,2.3l0.4,0.4c0.5,0.6,0.9,1.3,1.2,1.9
		c0.4,0.6,0.7,1.3,1.2,1.9c0.2,0.3,0.3,0.4-0.1,0.8l-0.4,0.4C1.7-10,1.1-9.4,0.5-8.7c-0.9,1-1.9,2.1-2.8,3.1
		c-1.1,1.1-2.1,2.3-3.2,3.5c-0.7,0.8-1.4,1.5-2.2,2.2c-0.3,0.3-0.6,0.6-0.9,0.8c-1.8,1.7-3.7,3.6-5.4,5.5c-0.4,0.4-0.7,0.8-1,1.2
		c-0.7,0.8-1.3,1.6-2.1,2.2c-0.7,0.6-1,1.3-0.9,2.3l0,0.4l0.3-0.3c3-3.2,6.1-6.3,9.1-9.4C-4.4-1.4,0-5.7,3.9-10.3z M18.8-29.3
		l-0.3,0.3c-1.1,1.1-2.2,2.1-3.4,3.3c-0.4,0.4-0.8,0.8-1.2,1.2c-1-1-2-2-3.1-2.9c-1.9-1.8-3.9-3.6-5.6-5.6c-0.9-1.1-1.9-2.4-2.2-4.1
		C2.9-38.1,3.3-39.1,4-40c0.6-0.8,1.3-1.2,2-1.3c0.5,0,1-0.1,1.5-0.1c3.3,0,6.4,1,9.3,3.1c1.5,1.1,2.8,2.4,3.7,4
		c0.8,1.3,0.7,2.3-0.3,3.5C19.8-30.2,19.3-29.8,18.8-29.3z"/>
	<path d="M229.4-35.7c-0.3-0.3-0.6-0.6-0.9-0.8c-0.4-0.3-0.8-0.5-1.2-0.8c-1.2-0.8-2.4-1.6-3.4-2.6c-0.1-0.1-0.3-0.3-0.5-0.4
		c-1.4-0.5-2.6-1.4-3.4-2.1c-0.2-0.2-0.4-0.3-0.6-0.5c-0.4-0.4-0.8-0.8-1.4-1c-2.3-0.7-3.7-2.4-5.1-4.2c-0.2-0.2-0.4-0.5-0.6-0.5
		c-0.2,0-0.4,0.1-0.5,0.3c-0.7,1-1.7,1.5-3.3,1.6l-0.4,0c-0.5,0-0.9,0.1-1.4,0.1c-0.8,0-1.4-0.1-2-0.2c-1.7-0.5-3.3-1.1-4.9-1.8
		c-0.5-0.2-1.1-0.4-1.6-0.7c-2-0.8-3.2-2.7-3-4.7c0.1-0.6,0-1-0.3-1.3c-0.3-0.4-0.8-0.5-1.5-0.6c-0.3,0-0.6,0-0.9,0
		c-0.2,0-0.5,0-0.7,0c-0.6,0-1.1-0.2-1.4-0.6c-0.4-0.4-1.4-0.6-2-0.3c-0.6,0.3-0.9,0.2-1.5-0.1c-0.1,0-0.2-0.1-0.3-0.1
		c-0.8-0.4-1.9-0.6-2.8-0.7c-0.3,0-0.6,0-0.9,0.1c-0.2,0.1-0.4,0.1-0.7,0.1c-0.2,0-0.5-0.1-0.8-0.6c-0.1-0.2-0.3-0.2-0.4-0.2
		c-0.1,0-0.2,0-0.2,0c-0.4,0.1-0.8,0-1.4-0.2c-0.8-0.3-1.6-0.6-2.4-0.9c-0.6-0.2-1.2-0.5-1.8-0.7c-0.7-0.3-1.4,0-1.6,0.7
		c-0.3,0.8-0.6,1.7-0.9,2.5c-0.2,0.5-0.4,1.1-0.5,1.6c-0.2,0.7-0.4,1.4-0.6,2.1c-0.3,1.1-0.6,2.2-1.1,3.2c-0.3,0.7-0.7,1.6-0.6,2.6
		c0.2,0.9-0.1,1.6-0.4,2.4c-0.1,0.3-0.2,0.6-0.3,0.9c-0.3,1-0.2,1.7,0.9,2.1c0.2,0.1,0.5,0.2,0.7,0.3c0.6,0.2,1.2,0.5,1.8,0.8
		c0.2,0.1,0.3,0.2,0.5,0.3c0.7,0.3,1.4,0.7,1.3,1.5l0,0.5c-0.2,2.2-0.4,4.4-1.1,6.5c-1,2.8-1.7,5.7-2.2,7.9
		c-0.6,2.6-1.1,5.2-1.6,7.6c0,0.1,0,0.2-0.1,0.4c-0.1,0.7-0.3,1.5-0.1,2.1c0.4,0.9,1.1,1.7,1.7,2.2c0.6,0.4,1.3,0.7,1.9,0.9
		c0.4,0.1,0.9,0.3,1.3,0.5c1.7,0.8,3.7,1.8,5.9,2.2c0.6,0.1,1,0.3,1.2,0.6c0.9,1,2.2,1.4,3.3,1.7c0.3,0.1,0.5,0.2,0.8,0.2
		c1.6,0.4,3,0.9,4.1,2.2c0.2,0.3,0.6,0.3,0.9,0.4c0.4,0,0.7,0.1,0.9,0.4c0.1,0.1,0.2,0.2,0.4,0.2c0.1,0,0.2,0,0.3-0.1
		c0.4-0.2,0.6,0,0.9,0.3l0.1,0.1c0.1,0.1,0.2,0.2,0.3,0.4c0.3,0.4,0.7,0.8,1.1,0.9c1.3,0.2,2.5,0.9,3.6,2c0.2,0.2,0.4,0.2,0.6,0.3
		c0.2,0,0.4,0,0.7,0c0.2,0,0.3,0,0.4,0c0.2,0,0.5,0.1,0.7,0.4c0.1,0.1,0.2,0.2,0.3,0.2c0.3,0,0.6-0.2,0.7-0.4c0.4-0.5,0.7-1,0.9-1.4
		c0.2-0.5,0.4-0.9,0.6-1.4c0.2-0.6,0.4-1.1,0.7-1.6c0.6-1,1.1-2.1,1.7-3.1c0.4-0.9,0.9-1.8,1.4-2.7c0.4-0.7,0.7-1.4,0.9-2.1
		c0.3-0.7,0.5-1.4,0.9-2c1-1.7,1.6-3.5,2.3-5.2c0.2-0.7,0.5-1.3,0.7-2c0.4-1.1,1-2.2,1.7-3.4c0.1-0.2,0.3-0.3,0.6-0.3
		c0,0,0.1,0,0.2,0c0.7,0,1.4,0.4,2,0.7c0.2,0.1,0.3,0.2,0.5,0.3c0.4,0.2,0.8,0.4,1.2,0.6c0.9,0.5,1.8,1,2.8,1.3
		c0.7,0.2,1.2,0.1,1.4-0.5c0.1-0.4,0.4-0.7,0.6-1.1c0.2-0.4,0.5-0.7,0.7-1.2c0.4-1,0.9-2,1.5-3.1c1.4-2.2,2.9-4.5,5-6.4
		c0.4-0.3,0.6-0.7,0.6-1.1C230.1-34.7,229.9-35.2,229.4-35.7z M172.3-13.9c-0.3,0-0.6-0.1-0.7-0.2c-0.1-0.2-0.1-0.5,0-0.9
		c0.3-1.3,0.5-2.6,0.7-3.8c0.1-0.4,0.1-0.8,0.2-1.2l0.1-0.6c0.3-1.5,0.5-3,0.9-4.5l0-0.1c0.5-2,1-4.2,1.6-6.2c0.6-2,0.8-4.1,1-6.2
		l0.1-0.8c0.1-0.9-0.3-1.7-1.1-2.3c-1.3-0.9-2.7-1.6-4-2.2c-0.5-0.2-0.6-0.4-0.4-0.9c0.6-1.5,1-3.2,1.3-4.8c0.3-1.3,0.6-2.7,1-4.1
		l0-0.1c0.5-1.3,0.9-2.7,1.5-4c0.1-0.4,0.3-0.4,0.4-0.4c0.1,0,0.2,0,0.3,0.1c0.6,0.2,1.1,0.3,1.7,0.5c2,0.6,4,1.2,6,1.5
		c0.8,0.1,1.7,0.2,2.5,0.3c0.9,0.1,1.8,0.2,2.7,0.3c0.4,0.1,0.7,0.2,1.1,0.3c0.6,0.2,1.3,0.4,1.9,0.4l0.2,0c1.5,0,1.9,0.7,2.3,2.3
		c0.5,2.3,2.4,4.2,4.9,4.9c0.7,0.2,1.3,0.5,1.9,0.8c0.8,0.4,1.6,0.9,2.5,0.9c0.6,0,1.1,0.2,1.7,0.4c0.6,0.2,1.1,0.4,1.7,0.4l0.2,0
		l1,0c1,0,2.2,0,3.3-0.2l0.1,0c0.1,0,0.3,0,0.4-0.2c0.3-0.4,0.6-0.6,0.9-0.6c0.4,0,0.7,0.4,1,0.8c0.1,0.2,0.3,0.3,0.4,0.4
		c0.9,0.8,2,1.5,3,2.2c0.6,0.4,1.2,0.8,1.8,1.2c0.3,0.2,0.6,0.5,0.9,0.7c0.7,0.6,1.4,1.2,2.3,1.5c0.1,0,0.3,0.1,0.5,0.1
		c0.7,0.2,1.2,0.3,1.2,1.1c0,0.2,0.2,0.3,0.4,0.3c0,0,0,0,0,0c0.7-0.2,1.2,0.3,1.7,0.7c0.4,0.4,0.9,0.8,1.5,0.9
		c0.2,0,0.3,0.1,0.4,0.3c0.1,0.2,0,0.6-0.2,0.9c-0.3,0.4-0.6,0.9-1,1.3c-1.5,2-3.1,4.1-4.1,6.6c-0.2,0.4-0.4,0.8-0.7,1.2
		c-0.2,0.3-0.4,0.6-0.6,0.9c-0.1,0.2-0.2,0.2-0.3,0.2c-0.1,0-0.3-0.1-0.4-0.1c-0.8-0.3-1.6-0.7-2.3-1c-1.2-0.6-2.5-1.1-3.8-1.6
		c-0.7-0.2-1.1-0.1-1.5,0.4c-1.1,1.3-1.8,2.9-2.5,4.8l-0.5,1.4c-1.2,3.2-2.4,6.4-4.1,9.4c-0.7,1.3-1.4,2.4-1.9,3.7
		c-0.3,0.9-0.8,1.8-1.3,2.6c-0.6,1-1.1,2-1.5,3.1c-0.2,0.6-0.5,0.7-0.7,0.7c-0.2,0-0.5-0.1-0.9-0.3c-0.5-0.3-1-0.5-1.4-0.8
		c-1.5-0.9-3.1-1.8-4.7-2.6l-0.7-0.3c-1.2-0.6-2.5-1.2-3.7-2.1c-0.9-0.6-2-1-3-1.3c-0.6-0.2-1.1-0.3-1.7-0.6
		c-0.1-0.1-0.3-0.1-0.4-0.1c-0.3-0.1-0.5-0.2-0.7-0.3c-0.9-0.8-2-1.2-3.2-1.6l-0.5-0.2c-2.3-0.8-4.1-1.6-5.7-2.6
		c-0.1,0-0.1-0.1-0.2-0.1c-0.3-0.2-0.5-0.4-0.9-0.4L172.3-13.9z M172.5-13.7L172.5-13.7C172.5-13.7,172.5-13.7,172.5-13.7
		L172.5-13.7z"/>
	<path d="M48.8-13c1.4,1.8,3.5,3.3,6,4.5c3.4,1.5,7.2,2.3,12,2.6c0.5,0,1,0,1.6,0c3.7,0,7.3-0.6,10.6-1.2c0.5-0.1,1-0.3,1.5-0.5
		c0.5-0.2,1-0.4,1.5-0.5c0.3,0,0.5-0.1,0.8-0.1c1.1-0.2,2.2-0.3,3.2-1c0.2-0.1,0.4-0.3,0.6-0.3c0.4-0.1,0.8-0.2,1.2-0.3
		c0.9-0.2,1.8-0.4,2.5-0.8c0.7-0.4,1.5-0.6,2.4-0.7c0.7-0.1,1.4-0.3,2.1-0.6c0.8-0.3,1.6-0.6,2.4-0.9c1.1-0.3,2.2-0.7,3.2-1.3
		c0.6-0.3,1.3-0.6,2-0.8c1.2-0.4,2.5-0.8,3.4-1.8l0.1,0l0.1,0c1-0.1,1.7-0.6,2.5-1c0.5-0.3,1-0.6,1.6-0.8c0.4-0.1,0.7-0.4,1.1-0.7
		c0.3-0.2,0.6-0.5,1-0.7c0.6-0.3,1.2-0.7,1.7-1.1c0.7-0.5,1.5-1.1,2.4-1.3c0.1,0,0.3-0.2,0.3-0.3c0.1-0.7,0.6-0.9,1.1-1.1
		c0.2-0.1,0.4-0.2,0.6-0.3c1.8-1.2,3.2-2.4,4.3-3.7c0.1-0.1,0.2-0.2,0.3-0.4c0.2-0.4,0.4-0.6,0.8-0.4l0.1,0c0.2,0,0.5-0.3,0.6-0.5
		c0.2-0.5,0.6-0.8,1-1c0,0,0.1,0,0.1-0.1c0.2-0.1,0.4-0.2,0.4-0.5c0-0.2-0.3-0.4-0.5-0.5c-0.2-0.1-0.2-0.2-0.2-0.2
		c0,0,0.1-0.2,0.3-0.2c0.6-0.2,1.1-0.4,1.3-1.3c0-0.2,0.3-0.5,0.5-0.5c0.9-0.3,1.2-1,1.5-1.7c0-0.1,0.1-0.2,0.2-0.4
		c0.3-0.7,0.7-1.4,1.2-2.2c0.4-0.7,0.7-2,0.5-3c-0.1-0.4-0.6-0.9-1.3-0.9c-0.2,0-0.3,0-0.5,0.1c-1.7,0.5-3.2,0.8-4.5,1
		c-0.9,0.1-1.8,0.3-2.7,0.5c-1.4,0.3-2.8,0.5-4.2,0.6c-2.6,0.2-5,0.1-7.3-0.3c-2-0.3-3.2-1.6-4.2-2.8c-0.2-0.3-0.4-0.6-0.6-0.8
		c-0.6-0.7-1.1-1.5-1.8-2.2l-0.3-0.4c-0.7-0.7-1.3-1.5-1.8-2.3c-0.6-1.1-1.5-2-2.4-2.9c-0.4-0.5-0.9-0.9-1.3-1.4
		c-0.8-1-2-1.7-3.3-2.3c-1-0.5-2.1-0.8-3.1-1.1c-0.3-0.1-0.5-0.1-0.8-0.2c-0.4-0.1-0.9-0.1-1.4,0c-0.4,0.1-0.8,0.1-1.1,0
		c-0.6-0.2-1-0.2-1.5-0.2c-0.2,0-0.5,0-0.7,0c-1.2-0.1-2.3,0.2-3.3,0.4c-0.6,0.1-1.2,0.3-1.8,0.4c-2.9,0.4-5.2,1.7-6.8,3.8
		c-0.1,0.1-0.2,0.3-0.3,0.5c-0.1,0.2-0.2,0.4-0.4,0.6c-1.5,0.9-1.9,2.5-2.3,3.9c-0.1,0.3-0.2,0.7-0.3,1C70-44.5,70-43.4,70-42.3
		c0,0.8,0,1.6-0.1,2.3c-0.2,1.3-0.3,2.6-0.3,3.9c0,0.8-0.1,1.7-0.1,2.5c0,0.2,0,0.4,0,0.5c-0.1,1.2-0.2,2.4-1,3.3
		c-1.3,1.4-3,2.5-4.6,3.5l-0.5,0.3c-0.3,0.2-0.5,0.4-0.8,0.6c-0.3,0.3-0.6,0.5-1,0.7c-1.6,0.5-3.1,1.3-4.5,2.1
		c-0.4,0.2-0.8,0.5-1.3,0.7c-0.7,0.4-1.4,0.8-2,1.2c-1.2,0.8-2.5,1.5-3.8,2c-1.2,0.4-2.4,1.1-2.1,2.6C47.8-14.8,48.1-13.8,48.8-13z
		 M95.9-14.1c-1.8,0.5-3.6,1.1-5.3,1.7c-0.6,0.2-1.1,0.4-1.7,0.6C84.9-10.4,80.5-9,76-8.3l-0.1,0c-2.7,0.5-5.6,0.9-8.5,0.9l-0.1,0
		c-3.4,0-6.6-0.6-9.1-1.1c-3-0.6-5.7-2.2-8-4.8c-0.6-0.7-0.8-1.6-0.6-2.5c0.2-1.1,1-2,2-2.4c1.4-0.6,2.7-1.4,3.9-2.1
		c0.5-0.3,1.1-0.7,1.6-1c1-0.6,2.1-1.1,3.1-1.6c0.6-0.3,1.3-0.6,1.9-1c0.3-0.2,0.7-0.4,1-0.6c0.6-0.4,1.1-0.7,1.7-0.9
		c0.6-0.2,1.1-0.6,1.4-1c0.4-0.4,0.7-0.8,1.3-0.9c0.2,0,0.3-0.2,0.3-0.3c0,0,0-0.1,0-0.1c0.4-0.6,0.8-0.9,1.4-0.9
		c0.2,0,0.4,0,0.7,0.1c3.4,1,6.5,1.3,9.5,1c2.8-0.3,5.7-0.9,9.4-1.9c2.2-0.6,4-1.4,5.4-2.4c0.6-0.4,1.2-0.7,1.8-1
		c0.3-0.2,0.6-0.3,1-0.5c0.2-0.1,0.5-0.3,0.7-0.6c0.5-0.9,1.4-1.3,2.4-1.8c0.7-0.3,1.4-0.8,2.1-1.2c0.2-0.1,0.4-0.3,0.6-0.4
		c0.3-0.2,0.5-0.4,0.7-0.6c0.3-0.3,0.6-0.7,1.1-0.8c0.5-0.2,0.9-0.3,0.9-0.6c0,0,0-0.1,0-0.1c0.9,0.8,2.1,1,3.3,1.1
		c0.3,0,0.6,0.1,0.9,0.2c1.4,0.3,3.3,0.6,5.2,0.6c0.6,0,1.1,0,1.7-0.1c0.6-0.1,1.3-0.1,1.9-0.2c1.3-0.1,2.7-0.2,4-0.5
		c0.2,0,0.3-0.1,0.5-0.1c0.7-0.2,1.5-0.4,2.3-0.4c0.2,0,0.5,0,0.7,0.1c0.4,0.1,0.7-0.1,1.1-0.3c0.1,0,0.1-0.1,0.2-0.1
		c0.4-0.2,0.5-0.1,0.5-0.1c0,0,0.1,0.2,0.1,0.5c0,0.2-0.1,0.5-0.2,0.6c-0.6,0.6-0.9,1.4-1.3,2.1c-0.2,0.5-0.5,1-0.8,1.4
		c-1.7,2.5-3.7,4.7-5.9,6.6c-0.5,0.5-1.1,0.9-1.6,1.4c-1.3,1.1-2.7,2.3-4.1,3.4c-0.9,0.6-1.9,1.2-2.8,1.7c-0.7,0.4-1.5,0.9-2.3,1.3
		c-1.8,1.2-3.8,2.1-5.7,2.9l-0.9,0.4C100.4-15.7,98.2-14.7,95.9-14.1z M70.7-30.4c-0.3-0.5-0.1-0.9,0.1-1.4c0.2-0.4,0.4-1,0.2-1.5
		c-0.1-0.2,0-0.5,0.1-0.8c0.1-0.2,0.1-0.5,0.1-0.8c-0.1-1,0-1.9,0.2-2.9c0.2-0.9,0.3-1.8,0.2-2.7c-0.1-1.3,0-2.6,0.1-3.8
		c0.1-1.6,0.5-2.8,1.1-3.7c0.8-1.2,2-2.8,3.4-4.1c1.2-1,2.3-1.7,3.4-1.9c2.4-0.6,4.7-0.9,6.9-0.9c0.7,0,1.4,0,2,0.1
		c0.3,0,0.6,0,0.9,0.1c0.8,0,1.5,0.1,2.2,0.3c1.1,0.4,2.3,1.1,3.3,1.7c0.1,0.1,0.2,0.2,0.3,0.3c0.2,0.3,0.5,0.6,1,0.6
		c0.1,0,0.2,0,0.4-0.1c0.3,1.3,1.1,2.1,2,2.8c0.4,0.4,0.9,0.8,1.2,1.3c0.1,0.1,0.1,0.2,0,0.3c0,0.2,0,0.6,0.3,0.8
		c0.4,0.3,0.8,0.7,1.1,1.1c0.3,0.4,0.6,0.7,0.9,1.1c1.1,0.9,1.5,2.3,1.6,3.2c0.1,0.5-0.3,0.8-0.8,1.1c-0.2,0.1-0.3,0.2-0.5,0.3
		c-0.1,0.1-0.1,0.1-0.2,0.2c-0.2,0.2-0.5,0.4-0.5,0.7c0,0.1,0,0.1,0,0.2c-0.1-0.1-0.3-0.1-0.5,0c-0.1,0.1-0.2,0.2-0.2,0.3
		c0,0.1,0.1,0.2,0.1,0.3c-0.6-0.1-1.2,0.2-1.7,0.6c-2.6,1.8-5,3.3-7.3,4.6c-2.8,1.6-5.9,2.3-8.9,3c-0.9,0.2-1.8,0.4-2.7,0.6
		c-1.3,0.3-2.7,0.5-4.2,0.5c-1.5,0-3.1-0.2-5.1-0.5l-0.1,0c-0.3-0.1-0.8-0.1-0.8-0.3c0-0.1,0-0.2,0.3-0.6l0.1-0.1L70.7-30.4z
		 M105.8-16.9C105.8-16.9,105.8-16.9,105.8-16.9L105.8-16.9L105.8-16.9z"/>
	<path d="M77.2,114c-0.4,1.1-0.9,2.3-1.1,3.5c-0.3,1.2-0.7,2.3-1.1,3.4c-0.5,1.4-1,2.9-1.3,4.5c-0.6,3.9,1.8,6.8,4.3,8.3
		c1.8,1.1,3.7,1.7,5.6,2.3c0.5,0.2,0.9,0.3,1.4,0.5l0.3,0.1c0.7,0.2,1.4,0.5,2,1c0.8,0.7,1.7,1.2,2.6,1.8l0,0
		c0.6,0.4,1.3,0.7,1.9,1.1c1.2,0.6,2.4,1.3,3.4,2.1c1.7,1.3,3.3,2.6,4.9,3.9c1.2,1,2.5,2.1,3.7,3c1.7,1.4,3.7,2.9,6.3,2.9
		c0.2,0,0.4,0,0.5,0c1.4,0.1,2.7-0.1,4.1-0.3l0.6-0.1c1.3-0.2,2.4-0.7,3.2-1.6c0.9-1,1.2-2.2,1.1-3.6c-0.3-2.6-1.8-4.4-3.3-6.2
		l-0.3-0.4c-0.9-1.1-2-2-3.1-2.8c-0.9-0.7-1.8-1.4-2.6-2.2c-2.8-3-5.8-5.7-8.8-8.1c-0.4-0.3-0.8-0.7-1.2-1.1
		c-0.1-0.1-0.3-0.3-0.4-0.4c-0.1-0.2-0.3-0.3-0.5-0.5c-1.1-1.2-2.3-2.4-2.8-4c-0.4-1.3-0.8-2.6-1.3-3.8c-0.6-1.4-0.8-3-1-4.5
		c-0.1-0.8-0.2-1.6-0.4-2.3c-0.2-1.2-0.3-2.5-0.3-3.8c0-0.3,0-0.6,0-1c-0.1-1.9-0.1-3.7-0.2-5.6c-0.1-1.8-0.2-3.6-0.7-5.2
		c-0.6-1.8-0.8-3.6-0.9-5.2c-0.1-1.9-0.3-3.6-0.8-5.2c-0.3-1.1-1-1.7-1.9-1.9c-0.8-0.2-1.9-0.4-3.1-0.3c-1.3,0.1-2.5,0.3-3.7,0.5
		c-0.9,0.2-1.8,0.3-2.8,0.4c-0.8,0.1-1.8,0.2-2.6,0.7l-0.1,0c-0.2,0.1-0.5,0.3-0.5,0.7c-0.2,0.9,0,1.8,0.2,2.7
		c0.1,0.3,0.1,0.5,0.2,0.8c0,0.3,0.2,0.7,0.5,0.9c0.4,0.3,0.5,0.6,0.5,1.2c0,0.8,0.1,1.5,0.4,2.3c0.5,1.7,0.7,3.2,0.6,4.7
		c0,0.5,0.1,0.9,0.1,1.3c0.1,0.5,0.2,1,0.1,1.5c0,0.2,0,0.4,0.1,0.6c0.1,0.2,0.1,0.4,0.1,0.5c0,0.1-0.2,0.2-0.4,0.2
		c-0.3,0.1-0.3,0.5-0.3,0.8c0,0.6,0.1,1.2,0.1,1.8c0.1,1.4,0.2,2.7-0.3,4.1c-0.1,0.2,0,0.3,0,0.5l0,0.1c0.3,1,0,2-0.3,3
		C77.9,112.2,77.6,113.1,77.2,114z M79.7,113.4c0-0.4,0-0.8,0.2-1.1c1.2-2.8,1.2-5.7,1.2-8.6l0-1c0-1.6,0-3.4-0.2-5.3
		c-0.2-3-0.6-5.6-1.2-8.1c-0.2-0.8-0.3-1.6-0.4-2.4c-0.1-0.6-0.1-1.2-0.3-1.9c0-0.1,0-0.2,0-0.2c0.1-0.2,0.5-0.2,0.8-0.3
		c1.7-0.2,3.4-0.5,5.1-0.7l1.6-0.2l0.5,0c0.4,0,0.8,0.1,1.1,0.1c0.4,0,0.5,0.2,0.5,0.3c0.1,0.6,0.3,1.3,0.5,1.9
		c0.2,0.7,0.4,1.4,0.6,2.1c0.1,0.6,0.1,1.1,0,1.7c0,0.8-0.1,1.6,0.2,2.5c0.1,0.3,0.2,0.7,0.2,1c0.1,0.3,0.1,0.6,0.2,0.9
		c0.5,1.9,0.6,3.8,0.7,5.7c0,0.6,0.1,1.2,0.1,1.8l0,0.5c0.1,1.8,0.2,3.7,0.5,5.5c0.1,0.7,0.2,1.3,0.3,1.9c0.2,1.1,0.4,2.2,0.4,3.2
		c0,2.6,0.6,5,1.3,7c0.4,1.4,1.3,2.6,2,3.9c0.2,0.3,0.4,0.7,0.6,1c1,1.6,2.5,2.7,3.9,3.7c0.6,0.4,1.2,0.9,1.8,1.3
		c0.1,0,0.1,0.1,0.2,0.1c0.1,0.1,0.2,0.1,0.2,0.2c0.8,1.1,1.8,1.9,2.7,2.7c0.9,0.8,1.9,1.5,2.6,2.5c1.2,1.6,2.7,2.8,4.2,3.9
		c1,0.7,2,1.5,2.8,2.4c2,2,3,3.9,3.2,6.2c0.1,0.8-0.1,1.5-0.5,2c-0.4,0.4-0.9,0.7-1.5,0.8c-0.6,0-1.1,0.1-1.7,0.2
		c-1,0.1-2,0.3-3.1,0.3h0c-1,0-1.9-0.4-2.5-0.7c-0.3-0.2-0.6-0.3-0.9-0.5c-0.8-0.4-1.6-0.8-2.3-1.3c-1-0.8-2.1-1.7-3.1-2.5
		c-1.4-1.2-2.9-2.3-4.4-3.5c-1.7-1.3-3.5-2.4-5.3-3.5c-0.9-0.6-1.9-1.2-2.9-1.8c-1.5-1-3.1-1.5-4.7-2c-0.9-0.3-1.8-0.6-2.7-0.9
		c-1.7-0.7-3.7-1.5-5.1-3.2c-1.4-1.6-1.8-3.6-1.3-6c0.3-1.4,0.7-2.9,1.4-4.5c0.2-0.6,0.4-1.1,0.5-1.7c0.2-0.6,0.3-1.2,0.5-1.7
		c0.1-0.3,0.2-0.6,0.2-0.9c0.1-0.5,0.2-1,0.6-1.5C79.7,114.4,79.7,113.9,79.7,113.4z"/>
	<path d="M149.4,127.7c0-1.2-0.3-2.2-1.1-3c-0.6-0.6-0.9-1.3-1.3-2.1l-0.1-0.2c-0.3-0.6-0.6-1-1.1-1.3c-0.2-0.1-0.4-0.3-0.7-0.4
		c-0.8-0.5-1.7-1.1-2.4-1.7c-1.5-1.4-2.9-2.6-4.5-3.2c-1.7-0.7-3.4-1.5-5-2.4c-1.5-0.8-3-1.5-4.6-2.2c-0.2-0.1-0.3-0.2-0.5-0.2
		c-0.2-0.1-0.4-0.2-0.6-0.3c-1.3-0.5-2.4-1.4-3.5-2.3c-1.2-1-2.5-2.1-4.1-2.6c0,0,0-0.1-0.1-0.1c0,0,0-0.1-0.1-0.1
		c-0.3-0.5-0.7-1-1-1.4c-0.2-0.2-0.4-0.4-0.5-0.6c-0.2-0.3-0.6-0.5-1-0.6c-0.3-0.1-0.6-0.3-0.5-0.4c0.1-0.8-0.5-1.3-1-1.7
		c-0.6-0.4-0.9-0.7-0.8-1.4l0-0.1l-0.1-0.1c-0.1-0.1-0.2-0.2-0.4-0.2c0,0,0,0,0,0c-0.1,0-0.1,0-0.2,0c0,0,0,0,0.1-0.1
		c0.3-0.4,0.2-0.8,0-1.1l-0.2-0.6c-0.2-0.6-0.5-1.2-0.7-1.9l-0.5-1.6c-0.6-2.1-1.3-4.3-1.9-6.4c-0.4-1.6-1-3.2-1.5-4.8
		c-0.6-1.8-1.2-3.7-1.7-5.7c-0.2-0.7-0.7-1.3-1.5-1.8c-1-0.6-2-0.7-2.9-0.5c-0.1,0-0.2,0-0.3,0c-3.1,0-7.2,1.2-9.6,2.8
		c-1,0.6-1.1,1.7-0.7,2.4c0.2,0.4,0.4,0.7,0.6,1.1c0.4,0.8,0.8,1.6,1.3,2.2c0.6,0.7,1,1.4,1.4,2.3c0.1,0.3,0.2,0.5,0.4,0.8
		c0.3,0.6,0.4,1.2,0.4,1.9c0,0.4,0.1,0.9,0.2,1.3c0.1,0.4,0.2,0.7,0.4,1.1c0.1,0.4,0.3,0.7,0.4,1.1c0.2,1,0.4,2.1,0.5,3.2
		c0.1,1,0.2,2.1,0.5,3.2c0,0.1,0.1,0.2,0.1,0.4c0.1,0.3,0.2,0.5,0.1,0.7c0,1.7-0.2,3.5-0.4,5.2c0,0.4-0.1,0.8-0.1,1.2
		c-0.2,2.2-0.1,4.3,0,6.4l0,0.7c0,0.5,0.1,0.9,0.2,1.4c0.1,0.6,0.2,1.2,0.2,1.8c0,2.2,1.5,5.1,3.6,5.7c0.3,0.1,0.7,0.2,1,0.3
		c2.4,0.6,4.9,1.3,7.5,1.3c3,0,5.8,1.1,9,2.7c2,1,4,2.1,5.9,3.1c0.6,0.3,1.2,0.7,1.9,1c3.4,1.8,7,3.1,10.6,3.7
		c0.9,0.2,1.7,0.2,2.5,0.2c2.5,0,4.7-0.9,6.6-2.6C148.9,130.2,149.4,129,149.4,127.7z M100.7,108c-0.1-0.2,0-0.6,0.2-1
		c0.1-0.4,0.3-0.8,0.2-1.3c0-0.4,0-0.8,0-1.2c0-0.7,0-1.4-0.1-2.1c-0.1-0.8-0.1-1.6,0-2.3c0.1-1.4-0.1-2.8-0.3-4.1
		c-0.1-0.9-0.3-1.9-0.3-2.8c-0.1-2.6-0.9-4.9-1.7-7.2c-0.1-0.4-0.3-0.7-0.4-1.1c-0.3-0.7-0.7-1.4-1.1-2c-0.2-0.3-0.3-0.5-0.5-0.8
		c-0.1-0.2-0.2-0.4-0.4-0.6c-0.3-0.5-0.7-1.1-1-1.7c-0.3-0.6-0.5-1-0.4-1.1c0.1-0.2,0.4-0.4,1-0.6c2.2-1,4.1-1.6,6.1-1.7
		c0.1,0,0.3,0,0.4,0c0.6,0,1.3,0,1.9-0.3c0.1,0,0.2-0.1,0.3-0.1c0.1,0,0.3,0,0.4,0.1c0.3,0.2,1.7,2.3,1.8,2.6
		c-0.3,0.7-0.1,1.2,0.1,1.7c0.1,0.2,0.2,0.4,0.2,0.6c0.3,1.2,0.6,2.4,1,3.6c0.1,0.3,0.2,0.7,0.3,1c0.1,0.4,0.2,0.8,0.4,1.2
		c0.4,1.4,0.8,2.9,1.5,4.2c0.1,0.2,0.1,0.3,0.1,0.5c0,0.2,0,0.3,0.1,0.5c0.1,0.2,0.2,0.5,0.2,0.7c0.2,0.6,0.4,1.3,0.9,1.8
		c0.3,0.3,0.4,0.7,0.3,1.1l0,0.1c0,0.2-0.1,0.4,0.1,0.6c0.1,0.1,0.3,0.2,0.5,0.2c0.1,0,0.2,0.1,0.2,0.1c-0.1,0-0.3,0.1-0.5,0.2
		l-0.1,0l0,0.1c-0.1,0.1-0.1,0.4,0,0.5c0.2,0.5,0.4,0.9,0.6,1.4c0.3,0.8,0.6,1.7,1.2,2.4c2.5,3.3,5,5.8,7.8,7.8
		c3.3,2.4,6.9,4.1,10.2,5.6c0.6,0.3,1.2,0.5,1.8,0.8c2.1,0.9,4.3,1.8,6,3.3c0.6,0.5,1.1,0.9,1.7,1.3c1.3,0.9,2.7,1.9,3.5,3.4
		c0.1,0.2,0.3,0.5,0.5,0.7c0.5,0.8,1,1.5,1.2,2.4c0.4,1.7,0.3,3-0.5,3.9c-0.7,0.9-2,1.4-3.9,1.4c-0.1,0-0.3,0-0.4,0
		c-0.5-0.1-1.1-0.2-1.7-0.3c-0.8-0.2-1.8-0.4-2.8-0.5c-2.4-0.3-4.5-1.4-6.5-2.4c-0.6-0.3-1.2-0.6-1.9-0.9c-1.2-0.6-2.4-1.3-3.6-2
		c-0.4-0.2-0.8-0.5-1.2-0.7c-1-0.6-2.1-1-3.1-1.4c-0.6-0.2-1.1-0.4-1.7-0.7c-3.1-1.4-6.5-1.7-9.8-1.9c-1.8-0.1-3.2-0.4-4.4-0.8
		c-1.9-0.7-3.4-1.4-3.8-3.3c-0.1-0.6-0.2-1.3-0.2-2c0-0.7-0.1-1.3-0.2-2c-0.1-0.7-0.1-1.4-0.1-2.2C101,110,101.1,109,100.7,108z"/>
	<path d="M140.4,179.9c-3.8-2.5-7.1-3.9-10.7-4.4c-1.1-0.2-2.2-0.4-3.2-0.6c-1.5-0.3-3.1-0.6-4.7-0.8c-1.1-0.1-1.9-0.4-2.5-0.7
		c-1.5-1-3.2-1.8-4.8-2.5c-1-0.5-2-0.9-3-1.4c-0.2-0.1-0.4-0.2-0.7-0.3c-0.6-0.3-1.3-0.6-1.7-1l-0.4-0.3c-1.3-1-2.6-2.1-3.6-3.4
		c-0.3-0.4-0.7-0.7-1-1c-0.5-0.4-1-0.8-1.2-1.5l-0.1-0.1c-0.2-0.5-0.4-1.1-1-1.1c-0.3,0-0.6,0.4-0.9,0.7c-0.1,0.1-0.2,0.2-0.3,0.3
		c-0.1,0.1-0.1,0.2-0.2,0.3c0,0.1-0.1,0.1-0.1,0.2c-0.1,0.1-0.1,0.2-0.2,0.4c-0.3,0.5-0.6,1-1,1.3c-2,1.5-4.4,2.4-6.8,3.2l-0.7,0.2
		c-1.3,0.4-2.6,0.7-4.3,0.7c-1.1,0-2.1-0.1-3.2-0.2c-2.6-0.2-4.6-1.1-6.2-2.5c-0.6-0.6-1.1-0.4-1.4,0.4l-0.2,0.5
		c-0.4,1.1-0.8,2.2-1,3.4c-0.2,1.3-0.4,2.5-0.6,3.8c-0.2,1.4-0.4,2.9-0.7,4.4c-0.2,1.2-0.6,2.4-0.9,3.5c-0.3,1-0.6,2-0.8,3
		c-0.4,1.6,0.1,2.9,1.2,3.6c1.7,1.1,3.4,1.7,5.2,1.7c1.1,0,2.1,0.1,3.2,0.2c1,0.1,2.1,0.1,3.2,0.2c0.3,0,0.7,0,1,0
		c0.6,0,1.2,0,1.8,0c1.2,0,2.2-0.1,3-0.4c2.1-0.6,4.4-1.4,5.9-3.6c0.3-0.4,0.4-0.5,0.5-0.5c0.1,0,0.3,0.2,0.4,0.5
		c0.7,1.5,1.8,2.5,3.3,2.9c2.3,0.6,4.6,0.7,6.9,0.9l0.1,0c2.1,0.2,3.9,0.2,5.7,0.2c1.5,0,2.9-0.1,4.2-0.2c0.9,0.2,1.9,0,2.9-0.2
		c0.3-0.1,0.7-0.1,1-0.2c1.1-0.1,2.2-0.3,3.3-0.5c1.9-0.3,3.9-0.6,5.9-0.8c2.4-0.3,4.7-0.6,6.6-2c0.4-0.3,0.8-0.7,1.1-1.1
		c0.3-0.3,0.5-0.6,0.8-0.8c1-0.9,1.2-2,1.3-3.2C141.1,180.5,140.7,180.2,140.4,179.9z M106.5,168.8c-0.4,1-1.1,1.7-1.8,2.5
		c-0.4,0.4-0.7,0.8-1.1,1.2c-0.2,0.2-0.3,0.4-0.5,0.6c-0.4,0.4-0.8,0.8-1,1.4c0,0,0,0.1-0.1,0.2c-0.1,0.2-0.2,0.5,0.1,0.7
		c0.1,0.1,0.3,0.1,0.4,0.1c0.3,0,0.5-0.2,0.6-0.4c0.5-0.6,1-1.2,1.6-1.8c0.6-0.7,1.2-1.4,1.8-2c0.2-0.2,0.3-0.5,0.5-0.7
		c0.3-0.4,0.5-0.8,0.8-1c0.3-0.2,0.7,0.1,1,0.4c0.2,0.2,0.5,0.4,0.8,0.5c0.6,0.2,1.1,0.4,1.2,0.6c0.1,0.2-0.3,0.6-0.6,1.2
		c-0.5,0.8-1.1,1.5-1.7,2.3c-0.3,0.3-0.5,0.7-0.8,1c0,0.1-0.1,0.1-0.1,0.2c-0.1,0.1-0.3,0.3-0.3,0.5c0,0.1-0.1,0.3-0.2,0.4
		c-0.2,0.3-0.5,0.8,0,1.2c0.1,0.1,0.3,0.1,0.4,0.1c0.4,0,0.7-0.4,0.9-0.8c0.1-0.1,0.1-0.2,0.2-0.2c0.2-0.3,0.4-0.5,0.6-0.8
		c0.8-1,1.7-2.1,2.2-3.3c0.3-0.8,0.7-0.9,0.9-0.9c0.2,0,0.5,0.1,0.9,0.4c0.5,0.3,1,0.5,1.6,0.8c0.2,0.1,0.4,0.1,0.6,0.2l-0.9,1.1
		c-1,1.2-1.9,2.4-2.8,3.5c-0.1,0.1-0.1,0.1-0.2,0.2c-0.3,0.3-0.5,0.6-0.6,1.1c0,0,0,0.1-0.1,0.1c-0.1,0.1-0.2,0.2-0.2,0.4
		c0,0.1,0.1,0.2,0.2,0.3c0.3,0.2,0.6,0.2,1-0.1c0.6-0.5,1-1.1,1.5-1.7c0.2-0.3,0.4-0.6,0.7-0.9c0.5-0.5,0.9-1.1,1.4-1.6
		c0.5-0.5,0.9-1,1.4-1.6c0.1-0.2,0.2-0.1,0.4,0c0,0,0.1,0.1,0.1,0.1c1.5,0.9,3.1,1.2,4.7,1.4c0.3,0.1,0.6,0.1,1,0.2
		c0.9,0.2,1.8,0.4,2.9,0.6c0.7,0.1,1.3,0.3,2,0.4c2,0.4,4.2,0.9,6.1,1.6c1.9,0.8,3.8,1.9,5.5,3.3c0.2,0.1,0.3,0.3,0.3,0.5
		c0,0.3-0.2,0.6-0.4,0.8c-1.7,2-3.7,3.1-6.2,3.4c-1.7,0.1-3.6,0.4-5.7,0.7l-0.9,0.1c-3.1,0.5-6.2,1-9.4,1l-0.1,0c-0.5,0-1.1,0-1.6,0
		c-2.4,0-4.8,0-7.2-0.2c-2.3-0.2-4.2-0.4-6.1-0.8c-1.7-0.3-2.4-1.6-3.1-3.1c0-0.1-0.1-0.2-0.1-0.3c-0.1-0.3-0.2-0.7-0.7-0.8
		c-0.6-0.1-0.8,0.3-1,0.6l-0.1,0.1c-1.8,3-4.7,4.4-8.6,4.4h0c-3.3,0-7.3-0.1-11.1-0.6c-1.3-0.2-2.3-0.7-2.8-1.5
		c-0.5-0.9-0.6-2.1-0.1-3.5c1.2-3.3,1.8-6.8,2.2-9.7c0.2-1.3,0.5-3.1,1.1-4.8c0.1-0.4,0.2-0.6,0.4-0.6c0.1,0,0.2,0,0.5,0.2
		c1.6,1,3.5,1.7,5.8,1.9c2.5,0.3,4.9,0.1,7-0.4c3.4-0.8,6.5-2.4,9.3-4.5c0.5-0.4,0.8-0.9,1.1-1.4c1.2,1,2.3,2.1,3.3,3.2
		c0.5,0.6,1.1,1.1,1.6,1.7C106.6,168.5,106.6,168.5,106.5,168.8z"/>
	<path d="M42.5,18.1c-0.1,0-0.2,0-0.3-0.1c-1.6-1.6-3.4-3-5.2-4.3l-0.2-0.2c-1.4-1.1-2.9-2.3-4.6-3.8c-0.2-0.2-0.5-0.4-0.9-0.4
		c-0.3,0-0.5,0.1-0.7,0.4c-0.2,0.2-0.3,0.4-0.3,0.6c0,0.3,0.3,0.4,0.5,0.6c0.1,0,0.1,0.1,0.1,0.1l0.5,0.4c2.7,2.2,5.4,4.6,8.4,6.5
		c0.7,0.5,1.4,0.8,2,1.2c0.2,0.1,0.3,0.1,0.5,0.1c0.3,0,0.5-0.1,0.7-0.4l0-0.1l0-0.1C43.1,18.2,42.7,18.1,42.5,18.1z"/>
	<path d="M-5.3,15.6c0.6-0.7,1.3-1.4,1.9-2.1c1-1.1,2.1-2.3,3-3.5c0.3-0.4,0.4-0.8,0-1.3c-0.2-0.2-0.4-0.3-0.5-0.3
		c-0.2,0-0.4,0.1-0.5,0.3c0,0-0.1,0.1-0.2,0.1c-0.4,0.3-0.6,0.7-0.8,1c-0.2,0.3-0.3,0.6-0.6,0.8c-2.6,2.4-5,5.1-7.3,7.7l-0.1,0.1
		c-0.3,0.3-0.7,0.8-0.4,1.3c0.1,0.3,0.4,0.3,0.6,0.3c0.2,0,0.3,0,0.3,0.1l0,0.2l0.2,0c0.6,0,0.6-0.4,0.7-0.7c0-0.1,0-0.2,0.1-0.3
		c0.6-0.7,1.3-1.4,1.9-2.1C-6.4,16.8-5.8,16.2-5.3,15.6z"/>
	<path d="M-11.1,17.3c0.5-0.9,1-1.6,1.5-2.2l0.6-0.8c1-1.2,2-2.5,3.1-3.7c0.5-0.5,0.9-1.1,1.3-1.7c0.4-0.5,0.7-1.1,1.2-1.6
		C-3.4,7.2-3.3,7.1-3.3,7c0,0,0-0.1,0-0.1l0,0l0-0.1c0-0.5-0.4-0.6-0.6-0.7C-3.8,6-3.9,6-4,6c-0.4,0-0.6,0.3-0.8,0.5
		C-6,8.1-7.3,9.6-8.5,11c-0.6,0.7-1.2,1.3-1.8,2c-0.8,0.9-1.5,2-2.1,3l-0.3,0.4c-0.1,0.2-0.3,0.5-0.2,0.8c0.1,0.2,0.2,0.4,0.5,0.5
		c0.2,0.1,0.3,0.1,0.5,0.1C-11.5,17.9-11.3,17.5-11.1,17.3z"/>
	<path d="M50.5,11c0.2,0,0.4-0.1,0.5-0.5l0-0.2l-0.2-0.1c-0.1-0.1-0.2-0.2-0.3-0.4c-0.1-0.2-0.2-0.5-0.5-0.6c-0.7-0.4-1.3-0.8-2-1.3
		c-0.2-0.2-0.5-0.3-0.7-0.5c-1.6-1.1-3.2-2.3-4.7-3.5c-0.8-0.6-1.7-1.3-2.5-1.9c0,0-0.1-0.1-0.1-0.2c-0.1-0.2-0.3-0.4-0.5-0.4
		c-0.2,0-0.3,0.1-0.5,0.2c-0.6,0.5-0.2,1,0,1.3c0.1,0.1,0.1,0.2,0.2,0.2c0.1,0.2,0.3,0.3,0.4,0.4c0.1,0,0.1,0.1,0.2,0.1
		c1.5,1.3,3.2,2.5,4.8,3.7l1,0.7c1.5,1.1,3,2,4.5,2.7C50.2,10.9,50.4,11,50.5,11z"/>
	<path d="M-11.5,12.2c0.8-0.7,1.5-1.5,2.2-2.3C-8.6,9.1-7.8,8.3-7,7.6c0.4-0.3,0.6-0.7,0.8-1.1c0.2-0.4,0.4-0.7,0.7-1l0.2-0.2
		L-5.6,5C-5.7,5-5.8,4.9-5.9,4.8C-6,4.7-6.1,4.7-6.3,4.7c-0.3,0-0.5,0.2-0.7,0.4C-7.2,5.4-7.5,5.7-7.8,6c-0.4,0.4-0.7,0.8-1.1,1.2
		c-0.9,0.9-1.7,1.8-2.6,2.7c-1.3,1.4-2.6,2.7-3.9,4.1c0,0-0.1,0.1-0.1,0.1c-0.2,0.1-0.4,0.3-0.4,0.6c0,0.2,0.1,0.3,0.2,0.4
		c0.2,0.2,0.5,0.3,0.7,0.3c0.2,0,0.5-0.1,0.7-0.4C-13.4,14.1-12.5,13.1-11.5,12.2z"/>
	<path d="M-6.7,21.9c0.3,0,0.6-0.3,0.7-0.5c0.1-0.2,0.3-0.4,0.4-0.6c0.2-0.4,0.4-0.7,0.7-1c1.6-1.6,3.1-3.3,4.4-5
		c0.7-0.8,1.4-1.7,2.1-2.6c0.1-0.1,0.2-0.2,0.2-0.3l0.2-0.3l-0.2-0.2c-0.1-0.1-0.1-0.2-0.2-0.2c-0.2-0.2-0.4-0.3-0.6-0.3
		c-0.3,0-0.5,0.2-0.7,0.4c0,0-0.1,0.1-0.1,0.1c-0.9,0.9-1.7,1.9-2.5,2.9c-0.9,1.1-1.8,2.2-2.8,3.2c-0.7,0.7-1.2,1.4-1.8,2.1
		c-0.2,0.3-0.4,0.5-0.6,0.8c-0.2,0.2-0.3,0.5-0.2,0.7c0,0.2,0.1,0.4,0.4,0.5C-7,21.9-6.8,21.9-6.7,21.9z"/>
	<path d="M48.3,12.5L48,12.1c-0.6-0.9-1.3-1.3-1.9-1.7c-0.2-0.1-0.4-0.2-0.5-0.4c-0.6-0.4-1.3-0.8-1.9-1.2c-1-0.6-2-1.2-2.9-2
		c-0.9-0.8-1.8-1.4-2.8-2.1c-0.3-0.2-0.6-0.4-0.9-0.6c-0.2-0.1-0.4-0.3-0.6-0.3c-0.2,0-0.4,0.1-0.6,0.4c-0.4,0.5-0.1,0.8,0.2,1
		c0.2,0.1,0.4,0.3,0.5,0.5C36.8,5.9,37,6,37.2,6.2c1,0.7,2.1,1.4,3.2,2.2c1.2,0.8,2.4,1.6,3.6,2.5c1.1,0.8,2.3,1.1,3.8,1.5
		L48.3,12.5z"/>
	<path d="M44,14l0.2,0l-0.1-0.2c-0.1-0.5-0.4-0.9-0.8-1c-1.3-0.5-2.4-1.4-3.4-2.2c-0.5-0.4-1.1-0.9-1.7-1.2c-1-0.7-2-1.4-2.9-2.2
		c-0.4-0.3-0.7-0.6-1.1-0.9C34.1,6.1,33.9,6,33.7,6c-0.4,0-0.6,0.3-0.7,0.6c-0.1,0.2-0.2,0.4-0.1,0.6c0.1,0.2,0.3,0.3,0.6,0.4
		c0.2,0.1,0.4,0.2,0.5,0.3C34,8,34.1,8.1,34.2,8.1c0.8,0.5,1.5,1.1,2.3,1.7c1.4,1,2.8,2.1,4.4,3L41,13c0.8,0.5,1.7,1,2.8,1
		C43.8,14,43.9,14,44,14z"/>
	<path d="M-15.5,13.5c0,0,0.1-0.1,0.1-0.1c0.3-0.4,0.6-0.7,1-1.1c0.5-0.6,1-1.1,1.5-1.7c0.5-0.6,1-1.1,1.5-1.6
		c0.7-0.7,1.4-1.4,2-2.2l0.1-0.2c0.6-0.9,1.3-1.9,2.2-2.5C-6.9,4-6.8,3.8-6.7,3.6c0-0.1,0-0.3-0.3-0.5C-7.5,2.7-7.9,3-8.2,3.3
		c-0.8,1-1.8,2-2.6,2.9c-0.4,0.4-0.8,0.8-1.1,1.2l-2,2.2c-0.9,1-1.8,2-2.7,3c-0.2,0.3-0.3,0.5-0.1,0.8c0.2,0.3,0.4,0.4,0.7,0.4l0,0
		C-15.8,13.9-15.6,13.7-15.5,13.5z"/>
	<path d="M19.3,93.6C19.3,93.6,19.3,93.6,19.3,93.6c-0.8,0-1.8,0.6-2.5,1.4c-0.6,0.6-0.9,1.3-0.8,1.9c0.1,1.6,1.2,2.6,2.8,2.6
		c0.1,0,0.2,0,0.3,0c0.6,0,1.2-0.7,1.5-1c0.6-0.7,1.2-1.8,1.1-2.6C21.7,94.9,20.3,93.6,19.3,93.6z M20.2,96.2c0,0.4-0.2,0.8-0.5,1.2
		c-0.3,0.4-0.6,0.6-0.9,0.6c-0.3,0-0.7-0.2-1-0.4c-0.3-0.3-0.4-0.6-0.4-0.9c0-0.8,0.8-1.7,2-1.7h0C19.9,95,20.2,95.4,20.2,96.2z"/>
	<path d="M27.7,64.6c0.1,0,0.2,0.1,0.2,0.1c0.2,0,0.3-0.2,0.4-0.3c0.7-1,1.2-2.1,1.6-3.2l0.4-0.9l-0.5,0.3c-0.8,0.5-1.1,1.2-1.5,2
		c-0.2,0.5-0.5,1.1-0.9,1.5c-0.1,0.1-0.1,0.2-0.1,0.3C27.4,64.4,27.7,64.6,27.7,64.6z"/>
	<path d="M31.5,60.3l-0.1-1.3c0-0.4,0.2-0.6,0.5-0.9c0.3-0.3,0.6-0.7,0.6-1.3l0-0.3l-0.3,0.1c-1.2,0.6-1.6,1.4-1.2,2.4L31.5,60.3z"
		/>
</g>
</svg>
