<?xml version="1.0" encoding="utf-8"?>
<!-- Generator: Adobe Illustrator 18.1.1, SVG Export Plug-In . SVG Version: 6.00 Build 0)  -->
<svg version="1.1" id="Ebene_1" xmlns="http://www.w3.org/2000/svg" xmlns:xlink="http://www.w3.org/1999/xlink" x="0px" y="0px"
	 width="250px" height="250px" viewBox="0 0 250 250" style="enable-background:new 0 0 250 250;" xml:space="preserve">
<g>
	<path d="M246.1,50.3c-1.1,27.9,0.2,55.9,0.4,83.8c0.1,13.2-2.1,26.3-3,39.5c-0.2,3.2-0.4,5.9,1.4,8.8c2.1,3.3,1.8,6.9-0.4,10.2
		c-4.9,7.3-4.9,13.5,0.2,20.6c1,1.4,2.2,2.6,3.3,3.9c3.2,3.8,2.4,6-2.6,6.7c-10.8,1.5-19-4.1-25.9-11.2c-5.1-5.3-10.6-11-11.4-19.1
		c-0.2-2.1-1.9-2.2-3.5-2.3c-19.7-0.6-39.4-1.1-59.1,0c-17.1,0.9-34.2,1.9-51.3,2.8c-15.6,0.8-31.2,1.4-46.7,2.3
		c-4,0.2-7.5,1-9.3,5.7c-1.7,4.4-5.9,7-9.7,9.6c-7.4,5-15.1,9.5-23.7,12.2c-1.4,0.4-3.1,1.6-4.3,0.1c-1.4-1.7,0.6-2.7,1.4-3.9
		c3.6-5,7.4-9.9,10-15.6c1.4-3.1,1.3-5.7-1-8.5c-3.6-4.4-3.1-7.2,1.7-10.7c2.3-1.6,2.7-3.2,2.6-5.9c-0.2-15.1,0.1-30.2-0.1-45.2
		c-0.2-24.2-2.4-48.3-4-72.4c-0.5-7.7-0.8-15.4-1.4-23.1c-0.3-3,1-3.5,3.5-3.3c13.3,1.1,26.7,0.9,40,0.2c6.5-0.3,13,0.2,19.5,0.4
		c9.6,0.4,19.2-0.6,28.8-0.8c32.9-0.8,65.8,1.4,98.7,2.8c11.6,0.5,23.3,0.1,35,1C245.8,39.9,246.4,40,246.1,50.3z M245,219.9
		c-2.5-3.7-5.5-6.8-6.7-10.8c-1.8-5.5-3.4-11.1,1.2-16c3.3-3.5,3.3-7,0.7-10.6c-1.2-1.7-1.4-3.3-1.2-5.3c2.1-21,4.4-41.8,3.4-63.1
		c-1-20.9-1.1-41.8,0.4-62.8c0.6-8.5,0.1-8.5-8.2-8.9c-3.1-0.2-6.1-0.6-9.2-0.7c-12.8-0.3-25.7-0.2-38.5-0.7
		c-20.6-0.7-41.1-1.7-61.6-2.6c-19.8-0.9-39.6,2.4-59.5,1c-15.9-1.1-31.9,0-47.9-0.1c-3.3,0-4.7,0.7-4.5,4.2
		c0.5,5.6,0.5,11.3,0.9,16.9c1.5,23.1,3.7,46.1,4.4,69.2c0.5,16.5-0.6,32.9,0.1,49.4c0.2,4.1-0.1,7.2-4.3,9.3
		c-2.6,1.3-3.4,3.8-1.1,6.4c3.9,4.3,3,8.8,0.4,13.3c-2.1,3.6-4.3,7.1-6.9,11.4c7.1-2.2,12.3-5.8,17.7-9.1
		c5.7-3.4,10.8-7.4,12.5-14.3c0.5-2,2-2.3,3.9-2.5c18.1-2.1,36.3-1.9,54.4-2.9c15.4-0.9,30.9-1.3,46.2-2.5
		c19.9-1.5,39.7-1.6,59.6-0.8c6.2,0.2,9.9,0.3,12,8.6c3.1,12.2,13.1,20.1,25.3,24.3C240.4,220.9,242.5,221.2,245,219.9z"/>
	<path d="M228.6,75.6c-2,12.8-2.2,28.2-1.6,43.6c0.7,16.8-1.8,33.5-0.3,50.3c0.4,4.4-0.5,6.2-5.7,5.7c-24-2.3-48,0.6-71.9,0.8
		c-30.2,0.2-60.2,3.3-90.4,4c-6.6,0.2-13.4,0.4-19.9,2.1c-2.9,0.8-3.5-0.1-3.4-3c0.1-15.2-0.8-30.4-2.1-45.5
		c-1.1-13.1-2.4-26.3-2.7-39.5c-0.2-10.3,0.6-20.5-0.5-30.8c-0.3-2.8,0.9-4.2,3.8-4.1c24.3,0.8,48.6-0.8,72.9-1.4
		c20.8-0.5,41.5,1.7,62.2,1.1c16.3-0.5,32.5,0.2,48.7,2.2C228.6,62.4,228.9,62.4,228.6,75.6z M34.9,106.6c0.6,7.6,1.5,18,2.4,28.4
		c0.2,2.5,0.5,5.5,4.1,5.4c13-0.3,26,1.3,39.1,0.3c15-1.2,30.1-2,45.2-2.3c13-0.3,26,0.5,39.1,0.6c18.7,0.2,37.3-2.3,55.9-1.2
		c1.9,0.1,2.7-0.6,2.9-2.6c1-11.5,0-22.9-0.2-34.4c0-1.8-0.5-3.2-2.9-3.2c-21.1-0.7-42.1,0.6-63.2,0c-37.5-1-75.1-0.9-112.6-3.5
		C34.5,93.5,34.4,93.8,34.9,106.6z M60,62.3c-7.2,0-14.4,0.1-21.6,0c-3,0-4.4,0.8-4.4,4.1c0.1,6.9,0.1,13.7,0,20.6
		c0,2.8,1.4,3.9,4.1,4c21.1,0.9,42.1,2.9,63.2,2.8c32.9-0.3,65.8,2.1,98.7,0.2c6.5-0.4,13,0,19.5,0c2.8,0,4.4-0.8,4.5-4.1
		c0.3-6.5,0.7-13,1.5-19.5c0.4-3.6-0.7-4.8-4.3-5.2c-17.6-1.9-35.1-3.4-52.8-3c-18.9,0.4-37.7-1.2-56.6-1.4
		C94.7,60.5,77.4,62.5,60,62.3z M199.6,170.7c0,0.2,0,0.5,0,0.7c6.2,0,12.3-0.2,18.5,0.1c3.8,0.2,5.3-1.2,5.1-5
		c-0.2-6.9-0.1-13.7-0.1-20.6c0-2.2-0.2-4.2-3-4.4c-3.9-0.2-7.9-0.7-11.8-0.6c-12.5,0.4-25,1-37.4,1.5c-18.2,0.7-36.3-0.7-54.5-0.4
		c-18.3,0.3-36.6,2.6-54.9,2.2c-6.5-0.2-13-1.1-19.5,0c-2.8,0.5-4,1.5-3.7,4.3c0.9,8.3,0.7,16.8,1.5,25.1c0.4,4.1,1.7,4.9,5.3,4.4
		c17.4-2.4,34.9-1.6,52.3-3c16.7-1.4,33.5-1.9,50.3-2.3C165,172.5,182.3,171.5,199.6,170.7z"/>
	<path d="M132.2,135c-1.7-0.2-2.8-1-2.9-2.6c-0.1-1.8,0.9-3,2.7-2.9c1.5,0.1,2.3,1.4,2.4,2.8C134.5,134,133.5,134.7,132.2,135z"/>
	<path d="M140.2,86.7c-1.3,0.9-2.6,2.5-4.2,2.9c-1.6,0.4-2.7-1.2-3-2.8c-0.3-1.7,0.6-2.7,2.3-2.6C137.1,84.2,139.1,84,140.2,86.7z"
		/>
	<path d="M134.9,165.8c-0.6,2.4-2.3,3.1-4.3,3c-1.6-0.1-3.2-0.8-2.9-2.8c0.3-2.1,2.2-3,4.2-2.9C133.6,163.1,134.6,164.2,134.9,165.8
		z"/>
</g>
</svg>
