<?xml version="1.0" encoding="utf-8"?>
<!-- Generator: Adobe Illustrator 18.1.1, SVG Export Plug-In . SVG Version: 6.00 Build 0)  -->
<svg version="1.1" id="Ebene_1" xmlns="http://www.w3.org/2000/svg" xmlns:xlink="http://www.w3.org/1999/xlink" x="0px" y="0px"
	 width="250px" height="250px" viewBox="0 0 250 250" style="enable-background:new 0 0 250 250;" xml:space="preserve">
<g>
	<path d="M163.6,79.3c0.5,3.2-2.2,4.1-4.2,5.1c-6.1,3.3-12.8,4.7-19.7,5.2c-2.2,0.2-4.4,0.3-6.7,0.5c-4,0.4-5.2,1.9-4.6,6.4
		c1.4,11,1.7,22.1,1,33.3c-1.2,17.9-1.3,35.9-2,53.8c-0.8,18.7,1.3,37.2,2,55.8c0.1,1.8,1.4,4.7-1.8,4.8c-2.7,0.1-2.9-2.5-3-4.6
		c-1-24.6-1.7-49.1-0.6-73.7c0.8-18.2,2.5-36.5,2.1-54.8c-0.1-5.3-0.8-10.6-1.2-15.8c-0.3-3.3-2-4.6-5.4-4.7
		c-9.8-0.5-9.6-0.6-10.8,9.1c-0.7,5.8-0.2,11.6-0.1,17.4c0,1.8,0.3,3.8-2.1,3.9c-2.8,0-2.4-2.3-2.3-4.2c0.7-8.4,0.4-16.9,0.4-25.4
		c0-3.1-2.3-3.7-4.5-3.7c-4.8-0.1-9-1.9-13.2-3.9c-3.9-1.8-4.8-4.3-3.5-8.7c6.4-21.6,13.8-43,16.8-65.5c0.4-3.1-1.4-7.2,1.5-9.2
		c2.4-1.7,5.9,0.4,8.9,0.6c9.2,0.8,18.5,0.8,27.7,0.7c4.6-0.1,7.1,1.8,9.2,5.7c3.2,5.9,3.9,12.4,5.7,18.6
		c4.5,16.3,10.4,32.3,13.5,49C167.1,77.9,168.5,80.9,163.6,79.3c-2.8-17.6-8.8-34.4-13.6-51.5c-1.7-5.9-2.5-12.1-5-17.8
		c-1.5-3.5-3.3-5.2-7.6-5.2c-10.1,0.2-20.2-0.3-30.2-0.9c-2.6-0.1-3.7,0.3-3.9,3c-1.8,23.9-10,46.4-16,69.3c-0.9,3.6-0.2,5,3,6.1
		c7.5,2.6,15.3,4.1,23,4.7c16.5,1.2,33.3,1.5,48.4-7.4C162.2,79.3,162.9,79.4,163.6,79.3z"/>
	<path d="M125.8,245.6c7.9,0,15.7-0.1,23.6,0.1c1.8,0,5.1-1.3,5.3,1.1c0.1,2.7-3.4,2-5.4,2.3c-9.3,1.5-18.8,0.6-28.2,0.8
		c-7.2,0.2-14.3-0.6-21.5-0.9c-1.8-0.1-3.9-0.4-3.7-2.6c0.2-2,2.4-1.6,3.8-1.5C108.3,245.8,117,245.9,125.8,245.6z"/>
</g>
</svg>
