<svg id="Ebene_1" data-name="Ebene 1" xmlns="http://www.w3.org/2000/svg" x="0px" y="0px"
     width="250px" height="250px" viewBox="0 0 250 250"><defs><style>.cls-1{fill:#29abe2;}.cls-2{fill:#ed1c24;}.cls-3{fill:#fcd421;}.cls-4{fill:#39b54a;}</style></defs><title>Zeichenfläche 1</title><path class="cls-1" d="M102,140.65l-.52.18a1.67,1.67,0,0,1,0-.63c1.39-3.07,3.32-6,4.05-9.24.89-3.93,4.34-7.1,4.35-10.61a16.7,16.7,0,0,1,2.56-8.7,6,6,0,0,1,1-1.08c-.72-1.05,1-1.61.66-2.58l-1.3,1.43a19.33,19.33,0,0,0,1.06-1.92c1.28-3.07,2.68-6.1,3.75-9.25,1.91-5.64,3.71-11.32,5.33-17.05.37-1.3-.16-2.87-.35-4.3-.37-3,.93-5.2,2.69-7.49a9.48,9.48,0,0,0,1.52-5c.25-3.71,3.46-4.45,5.56-6.4,1-.95,3,.21,3.49-2.51.39-2.13,3.23-1.67,5.13.08,1.46,1.34,3.2,1.86,4-.84.16-.51.47-.79,2.19.47,1.93,1.41,4.38,2.09,5.87,4.31.32.48,1.63,2.51,3.38,1.41a10,10,0,0,1,1,2.1c.52,2.2.63,4.4,3.74,1.78a4.38,4.38,0,0,1,5.75.27c1.43,1.21,2.86,2.14,4.92,1.27a2.44,2.44,0,0,1,2.66.76c1.8,1.75,5.2,1.66,5.77,5a21,21,0,0,1,3.33.15c1.45.38,2.93.46,4.12,1.53a2.34,2.34,0,0,0,2.89.38,2.22,2.22,0,0,1,2.59.43c1.78,1.94,4.39,2.53,6.47,4.07C202,80.38,205,81,207.71,82c.46.17,1.45,3,1.73-1.58l.36,3.32L210,82l.58,2.72.5-1.93c.86,1.17,2.9,1.69,2.21,3.77l.16-1.87h.13v1.76l.35,0,.19-2.22a21.64,21.64,0,0,1-1,7.38c-1.3,3.81-3.76,6.51-6.69,9-.34.29-.41.93-.56,1.42-.09.3.05.71-.11.92-.38.49-.94.17-1.46-.69.81,6.53-3.88,11.66-4.38,18.74v-3.9l-.43,0-.17,3.75-.21-1.06c-.61,1,.62,2.42-.79,3.21l-.3.19-.37-1.22a10,10,0,0,0-.59,1.16c-.15.42-.08,1.15-.34,1.28-3.58,1.84-2.34,5.86-3.92,8.66-2.55,4.51-4.36,9.44-8.12,13.21-.24.24-.47.81-.34,1,.24.36.82.86,1.1.78,1.38-.43,1.19.41.86,1.08-1.26,2.6-2.25,5.39-4.38,7.43-3.83,3.67-2.19,7.13.1,10.73,1.82,2.87,0,5.56-1.23,7.86s-4.62.93-5.55-1.78c-.1-.3-.39-.81-.45-.33-.22,1.8-1.79,3.14-1.37,5.24.24,1.19-.55,2.6-1,3.89-.3,1-1.08,1.92-1.29,2.65-.53,1.8-1.06,3.3-2.81,4.15a.11.11,0,0,0,0,.1c2,1.53-.19,3,0,4.57,0,.26,0,.7-.16.79a19.81,19.81,0,0,1-3.69,1.76l1.19-.84c-1-.07-1.53.72-2.22,1-1.19.54-2.8.3-4.22.17-2.63-.24-5.32-.35-7.86-2l1.07-.2c-1.84-1.7-3.36-.36-4.75.61-3.46,2.41-8.7,0-9.67-4.21-.35-1.49-2.32-.31-3.24,0-2.28.68-3.14-1-4.4-2-.82-.67-1.25-1.48-2.72-.74-.66.33-2.22-1.08-3.34-1.75-2.3-1.38-2.67-4.85-5.79-5.34a45.49,45.49,0,0,0-6.85-1c-4.18,0-7.19-3.18-11.15-3.73a19.92,19.92,0,0,1-7.67-2.7c-4.38-2.63-5.26-8.1-1.36-11.38.62-.52.2-1,0-1.45-.72-2.06-.08-3.4,2.17-3.41a1.69,1.69,0,0,0,1.82-1.35c.32-1.52,2-.85,2.57-1.83.92-1.47,0-3.1-.41-4.08-.7-1.82.39-2.8.91-3.91A45,45,0,0,1,102,140.65Zm-7,27.17a71.64,71.64,0,0,0,9.07,2.58c1.57.25,3.09,3.42,5.39.73-3.18-.78-4.18-3.06-5.32-5.06-.34-.6-.49-.64-.94-.41-1.53.78-1.52.79-2,0,0-.06-.24,0-.36,0-.79-.25-2.68.55-1.27-1.8-.81.6-2.18.45-1.9,1.29C98.59,168,96.11,167,95,167.81Zm29.86-9.17c2.31.93,3.71,1.28,2.51,2.91-.18.25.11.85.19,1.29a8.81,8.81,0,0,0,1-.83c1.11-1.19,2.19-2.42,3.28-3.62.21-.23,1,0,.44-.82s-1-.11-1.2.07C129.62,158.81,128,159.06,124.81,158.65Zm22.17,9c-.51,1.5-.06,1.54.54,1.55,1.31,0,2.63.07,3.94.14a3.55,3.55,0,0,1,.83.25l.38-1.39a3.26,3.26,0,0,0-1.28,0c-.43.17-.45.23-.88-.18-.68-.64-.71-2.3-1.9-1.91C147.74,166.37,147.16,167.5,147,167.69ZM107.4,178.39c4.16,2.33,9.19.64,13.32,3.08C116.75,178.35,112,178.84,107.4,178.39Zm-12.82-4c2.66.66,5.32,1.31,8,2,.88.23,1.75.53,2.62.79-.34-1.3-1.58-1-2.43-1.25C100.12,175,97.54,173.95,94.58,174.36Zm46.71,20.21a4.82,4.82,0,0,0,5.05,1c.16-.05.29-.26.4-.42s-.11-.24-.18-.25C144.91,194.79,143.26,194.69,141.28,194.56ZM129.73,158.1a8,8,0,0,0-5.62-.14A6.3,6.3,0,0,0,129.73,158.1Zm33.62-76.28a18,18,0,0,0-1.71-1.21c-.07,0-.68.61-.64.67.43.65.94,1.24,1.43,1.84Zm-27.6,108.5c-.37-.2-.64-.33-.9-.48a5.38,5.38,0,0,0-.89-.53c-.82-.28-2.16.16-1.88.56C133.12,191.3,134.48,190.24,135.75,190.32Zm42.62-28.92c-.35,2.39,2.34,3.35,2.59,5.46C181.22,164.52,178.54,163.55,178.37,161.41Zm-21.32,34.25c-1.51-.63-2.95-1.3-4.83-.82C153.93,195.45,155.38,196.07,157.05,195.66ZM154.4,169l-1.57,1,1.47.92a12.26,12.26,0,0,0,.77-1.34C155.1,169.53,154.71,169.28,154.4,169Zm4.07,26.06-.53.35c.1.11.2.31.3.32,1.69.07,3.38.12,5.07.15,0,0,.05-.18.08-.28-1.32-.1-2.65-.18-4-.3A6.38,6.38,0,0,1,158.46,195.06Zm-49.8-50.57-.43-.72a12.05,12.05,0,0,0-1.34,1.62c-.07.12.47.61.73.93ZM163.6,70.91c.48,1.44,1.39,1.32,2.25,1.2.11,0,.17-.44.26-.68Zm-25.52,91.61c1.26-1,2.11-1.85,2.13-3.18,0-.13-.19-.26-.29-.39ZM156.84,62.16l-.34.08c.29,1.35.56,2.71.86,4.05,0,.13.19.23.29.35.08-.11.25-.23.23-.32C157.55,64.94,157.19,63.55,156.84,62.16Zm19.92,6.39a8.41,8.41,0,0,1,2.57,3.95c0,.15.23.27.34.4.07-.08.21-.18.19-.23A6.12,6.12,0,0,0,176.76,68.55Zm-15.5-2.92,4.63-.76A4.88,4.88,0,0,0,161.26,65.63Zm20.32,106.5h.24v-4.37h-.24Zm-3.1-31.44c-.51.11-.87.17-1.22.27-.1,0-.27.18-.25.21.21.42.45.82.68,1.23C178.2,141.89,179,141.5,178.48,140.68ZM127.3,187.89c.81-.4,1.4-1.09.74-1.65-.33-.28-1.41.31-2.38.57C126.54,187,127.59,186.51,127.3,187.89ZM99.38,155.39l.07-.3c-.84,0-1.68,0-2.52,0-.07,0-.12.38-.18.58Zm36.82,10.52.29.24,2.75-3.16-.21-.16Zm-1.63,23.93c1.93.12,2.93.27,3.73-.83ZM170.11,67.53c1.82.08,2.61.47,3.19-.33,0-.06-.08-.33-.09-.33C172.51,67,171.82,67.15,170.11,67.53Zm-42.52,96.65-.37-.43,1.61-.89ZM148,169.83V170h3.17v-.17ZM189.32,75c.93.17,1.47.31,2,.37s.89,0,.93-.6Zm-11.39,101.3c-.45-.84-.34-.55-.16-.31.52.69.82.67.86-.28C178.67,174.62,177.68,175.6,177.92,176.32Zm35.39-86.48h.08V87h-.08Zm-32.07,82v-3.33l-.31,0ZM158.91,67.48l.16.27L161.84,66l-.17-.28Zm21.48,5.4c1.05.53,1.64.71,2.17.15.07-.08,0-.28,0-.42Zm-63.23,82.84-1.93,1C116.51,157.62,116.69,156.35,117.16,155.73Zm-16,10.91.38.22,1.09-2.29a1.17,1.17,0,0,0-.26-.08C101.92,165.2,101.53,165.93,101.13,166.65ZM136,57.86c-1.07-.25-1.67-.23-2.12.36,0,.05.05.21.08.32Zm28.26,12.72.1.35,1.42-.25c-.12-.2-.3-.6-.36-.58A8.78,8.78,0,0,0,164.24,70.58Zm-5.76,125.48,4.12.25v-.25Zm44.78-90.85-.35,0-.18,2.31.31,0Z"/><path class="cls-2" d="M66.13,164.38c-1.17,1.69-.28,3.59-.51,5.38-.11.87,0,1.76-.22,2.65v-3.18c-1,2,.93,4.33-1.13,6l-.36-1.29a49.29,49.29,0,0,0,.94,10.91c1,5.35,1.48,10.74,0,16.11-1.08,3.86-.34,7.75-.18,11.64a6.7,6.7,0,0,1-1.55,3.71c-1.16,1.47-.92-1.07-1.82-1.32a15.55,15.55,0,0,1,0,1.9c0,.37.4,1.07-.43,1.07s-.26-.66-.42-1-.36-.61-.54-.91a7.12,7.12,0,0,1-.32.87c-.74,1.43-1.25,3.1-2.31,4.24-2.24,2.41-4.08-1.38-6.32-.7,0-1.53-3.21-1.32-1.88-3.58.11-.18-.26-.7-.49-1a.65.65,0,0,0-.63-.06c-1.77,2.12-3.43,1.38-5.45.19-1.13-.67-2.52-1.91-4.28.23s-4.83,2.25-7.26.49c-1.09-.79-1.68-.25-2.64-.17-2.83.24-4-2.61-6.05-3.87-2.28-1.4-1.26-4-2.37-5.78A2,2,0,0,0,21,205c1.22.07,1.58-1,2.27-1.67-1.23-1.24,1.15-4-2.11-4.45.67-.22,1.48.1,1.32-.91s-.85-.49-1.25-.48c-.62,0-1.36.36-1.63-.36-.07-.18,1-.76,1.45-1.12-1.13.27-1.09-1-1.73-1.52l.78-.39-1.35-.51,2.71-.76-1.85-.79c2.58.18,3.22-1,2.87-2.86-.43-2.3.54-4.4,1-6.55a2.18,2.18,0,0,0-.36-1.68c-2-3.84-1.29-7.64,0-11.52.66-2,1.89-4.75,1.12-6.28-3.72-7.4-.12-14.48.17-21.68,0-.91-.9-1.83-1-2.78-.49-5.5.37-10.91,1.38-16.28.54-2.84-.59-5.63.21-8.51.49-1.76,1.52-4.79-3-3.54.47-.49.54-.63.64-.67.93-.3,2,.44,2.87-.39l-3.42-.6c-.46-.08-.91-.2-1.37-.31.27-.31.82-.67.77-.92-.14-.74-.58-1.42-.79-2.15-.55-2,1.12-.65,1.65-1a3.2,3.2,0,0,1,.67-.24L20.21,103c2.2,0,3.57,0,4.93,0,.63,0,1.4.38,1.85-.56s0-1.57-.54-2.2c-3.1-3.92-2.07-8.33,2-10.93,1.2-.76,1.47-3.05,2.06-4.68.45-1.22,1.35-1.66,2.28-1,3.39,2.47,8.22,2.77,10.49,6.94.57,1.06.28,2.53,1.55,3.25.09.05.13.21.19.32l.1-.47a2.83,2.83,0,0,0,.64,2.26l.45-1.49c.73.41.13.95.14,1.42,2.56-1-.1-2.37.45-3.49L48,94c-.25-1.26.58-2.22-.39-2.93,1.17-.7,1.39.64,1.85,1,2.7,2,2.26-.83,2.27-1.59A5.62,5.62,0,0,1,53,87.27c.21-.31.78-.38,1.19-.56-.16.33-.33.65-.48,1a3.51,3.51,0,0,0-.14.52,10,10,0,0,0,1.2-.18,3.48,3.48,0,0,0,.73-.39l-.12.81c1-.14,1.87-.18,1.64,1.29l1.71-.86c-1,1.4-1.58,2.65,0,3.78.13.09.38.24.43.19,2.93-2.46,4.15,2.23,6.73,1.76.2,0,.14,2.69-.57,4.09a36.18,36.18,0,0,0-2.79,6.94l.42-.76c.09.44.21.83.49.1.06-.15.08-.31.27-1,.11.79.24,1.06.17,1.27-1.8,5.19,3.72,3.43,5.32,5.42.37.46.91.79.64,1.3-.92,1.76-2,3.46-3,5.17-1.54,2.59-2.51,5.47-4.45,7.92-.52.66.92,3.78,2.22,4.8,3.65,2.86,1.28,5.87.78,8.85a19.46,19.46,0,0,0,0,5.38c.25,2.3.64,4.76.1,6.94-.68,2.74.53,5,1.07,7.34.9,4-.61,7.84-.1,11.76a3.56,3.56,0,0,1-.32,2.06q0-3.91,0-7.81c1-3.59-.24-6.92-1.42-10.26A37.74,37.74,0,0,1,66.13,164.38Zm-2-34,2.13,2.7c-.42-1.14-.85-2.27-2.17-2.67l-1.39-3.92C62.78,127.93,62.74,129.44,64.09,130.38Zm-.74,50.22a78.8,78.8,0,0,1,1.48,19.23A49.17,49.17,0,0,0,63.36,180.6ZM29.74,215.42a9.75,9.75,0,0,0,5,2.3c.3.07.69-.21,1-.33-.29-.35-.66-1.05-.87-1C33.23,216.76,31.68,216.11,29.74,215.42Zm14.11-6.67.64,1.37c.74-.48,1.5-.93,2.22-1.44a4,4,0,0,0,.66-.79,6,6,0,0,0-1-.32s-.11.46-.27.58a12.45,12.45,0,0,1-1.26.74c-.06-.14-.19-.3-.16-.43a8,8,0,0,1,.32-.95c-.22,0-.55,0-.65.13A5.93,5.93,0,0,0,43.85,208.75ZM41.74,215l.55-.19c-.56-1-1.59-.88-2.48-.92a4.89,4.89,0,0,0-1.46.4C39,214.92,39.84,215.3,41.74,215ZM41,88.15c1.76,1.92,1.82,4.66,3.2,6.76C43.37,92.53,43.2,89.85,41,88.15ZM29.41,215.47c-1.16-.88-2.67-.09-4.22-.48C26.66,216.1,28,217.19,29.41,215.47ZM41.5,127.59,39.63,134C41.45,132.12,41.34,129.83,41.5,127.59Zm22.72,71.94.11,0V188.19h-.11ZM63.62,210h.21v-6.45h-.21Zm-16.95,6.58c-.62-.35-1-.74-1.41-.76-1.45-.07-.75.86-.62,1.51Zm5.56,3.78.46-.29a6.1,6.1,0,0,0-1.14-1c-.36-.18-.64,0-.63.53C50.92,220.36,51.4,220.37,52.23,220.32Zm12.24-76.16.21,0V139.9h-.21ZM55,207.39l-1.52,1.79,1.06.76ZM65,149h-.21v3.22H65ZM51.88,136.16l.9.71c.17-.43.36-.86.49-1.3,0-.1-.18-.26-.28-.39Zm13.75,27.3V160l-.29,0Zm-18,46.13-.26-.42-2,1.55.22.31ZM65.27,97.37h.18V94.64h-.18ZM32.42,83.91c-.68-.28-.62.38-.84.6.17.12.4.39.51.34a4.65,4.65,0,0,0,.89-.54ZM55.9,221.33c-.47-.28-.8-.49-1.15-.67,0,0-.27.27-.24.3.26.38.55.73.83,1.09ZM63.16,180l.32,0-.15-2.65-.17,0Zm-22.5-55.27.48.6c.17-.3.46-.6.46-.9s-.32-.56-.49-.84Zm12.06,10.21-.66-.91c-.37.31-1.06.64-1,.92.08,1,1.1-.9,1.28.33Zm12-25.83,0-.35c-.66.11-1.33.21-2,.34,0,0,0,.31,0,.47Z"/><path class="cls-3" d="M92.67,49a.78.78,0,0,0,.08-.16c.14-1-1.54-1-1.14-2.15.67.74,1.36,1.48,2,2.23q4.41,5,8.8,10.1a7.58,7.58,0,0,1,.57,1.3l-3.71-4.26-.23.19,3.54,4.34-1.37-.9c0,.52,0,1,0,1.56s.21,1.07.09,1.13c-.56.27-1.21.42-1.44-.5,0-.16-.37-.25-.57-.37.66.87-2,.27-.65,1.47a1.44,1.44,0,0,1,.47,1.12l-4-4.23c.68,1.76.23,3.24,1.39,4.3.17.16,0,.64.06,1-2.48-.85.28,4.77-3.26,2.64-.13-.08-.35,0-.54,0,0,.18,0,.46.09.53.54.37.54.78.09,1.17s-.86-.11-1.1-.42c-1.27-1.65-2.48-3.33-3.73-5-.3-.4-.94-.55-.82,0,.44,2.09.08,2.77-2,1.53-.19-.11-.62.18-.79.24.74,1.66,2.43,3.71,2,4.84-.57,1.34-.2,3.62-2.77,4.33-1.59.44-3,2.5-3.4,4.49s-4.39,4.57-5.76,3.4a7.71,7.71,0,0,1-2.34-4.91,10.76,10.76,0,0,0-1.64-4.06c-.93-1.43-2,.18-2.4.55-3.34,2.91-4.22-.7-4.83-2.22-.87-2.16-2.82-3.41-3.61-5.48a.5.5,0,0,0-.44-.13c-3.1,3-5.12-.4-6.7-1.74-5.06-4.29-9.49-9.3-14.5-13.66-1.73-1.5-3.49-3.58-6.49-3.28-2.22.22-4.59-4.22-5-6.22a17.44,17.44,0,0,1,.27-7.85c.21-.89-.09-3.85,2.69-1.83.84.61.52-1.28,1.35-1.26,3.37.09,4.65-1.54,5.78-4.8,1.45-4.19,5.13-6.37,10.16-5.12-2.62-1.78-1.09-4.74-3.11-7.5l1.42,1.15c2.63-2.72,3.28,1.58,4.94,1-.51-1.32.91.22,1.37-.53,1.33-2.16,1-4.11.41-6.29a2.46,2.46,0,0,1,1.1-2c1-.6,1.48.95,2.3,1.06,3.59.5,3.22,4.89,5.86,6,2.12.87,3.07,1.71,2.83,4.13-.05.54,2.38.68,3.3,1.88,3.78,4.94,7.65,9.83,11.49,14.74.65-.34-.4-1.76,1-1.78L80,31.41l1.69.87c1.2.61,2,1.82,3.6,1.88,1.76.06,3,1.29,4.24,2.36s.37,3.5-1.3,4.4c-.67.36-1.25,1-.86,1.78s.24,2.19,2.12,2c1.36-.14.46,2.19,1.76,2.81C91.84,47.77,92.2,48.5,92.67,49ZM70.6,24.87l-.35.31L79,36.27l.36-.28ZM55.61,67a5,5,0,0,0,2.74.74c.12,0,.4-.62.3-.77C57.69,65.4,55.9,67.43,55.61,67ZM33.55,48c-.77-1.68-2.2-1.22-3.46-1.23,0,0-.13.32-.08.39C31,48.27,32.27,48,33.55,48ZM75.32,82.86c1.11.19,1.7,0,2.12-.61a11.56,11.56,0,0,0-1.93-.65c-.32-.05-.89-.09-.88.68C74.64,83.25,75.28,82.85,75.32,82.86Zm23.45-27.5-5.58-6.13C94.32,51.67,96,53.09,98.77,55.36ZM86.12,71.64c.18-2.12-1.23-3.4-2.49-4.77C84.33,68.52,85.85,69.75,86.12,71.64ZM66.36,74c-.6.15-1.16-.25-.94.37a4.73,4.73,0,0,0,1,1.23c.36-.33,1.06-.7,1-1A.75.75,0,0,0,66.36,74Zm-.85-55c.86,1.33,1.65,2.56,2.46,3.78a2.25,2.25,0,0,0,.44.39c.05-.07.17-.18.16-.22C67.8,21.47,67.17,19.87,65.52,19ZM30.63,32l6.07-.9C34.11,30.92,32.66,30.76,30.63,32Zm52.21,43.4c.06-.53-.1-.94-.72-.83a.91.91,0,0,0-.54.61c-.11.51.07.87.71.88S82.9,75.82,82.84,75.39ZM94.5,59l-.39.13.9,3.92.4-.11Zm-31-40.69c-.21-1.67.36-2.89-1-3.49C63.37,15.6,62.74,16.79,63.52,18.33ZM40.71,23c-1.43.29-2.08,1.33-2.91,2.73ZM36.37,38.78c.06-.34.2-.62.12-.79a1.08,1.08,0,0,0-.64-.53c-.19,0-.44.23-.66.37Zm-.5-1.6.36-.22-.95-.78a1.69,1.69,0,0,0-.31.5C34.87,37.22,35.24,37.24,35.87,37.18ZM93.76,58.81l-.23.05.69,3.27.28-.06Zm-13,19.32H81l.17-2.47-.38,0Z"/><path class="cls-4" d="M151.15,29c-.18.87-.08,2.14-.94,2.27-1.06.16-.16-1.08-.56-1.56-1.55,1.38-2.53-3.82-4.47-.37-.31.55-1.9.64-2.32,1.78a.54.54,0,0,1-.38-.05c-2.23-2-2.23-2-6.79.21-4.3,2.08-8.05,1.12-11-2.79-.16-.2-.21-.86-.9-.25-4.45,3.91-13.29,4.74-19,1.9-1.1-.55-1.92.46-2.88.72-.27.07-.1,1-.85,1s-.51-.79-.74-1.18a1.34,1.34,0,0,0-1.83-.37c-1.24,1.16-1.18,1.22-2.27.25a13.79,13.79,0,0,1,0,1.86c-.05.38.4,1.09-.35,1.11s-.48-.67-.48-1.1-.09-1.08-.73-.71c-1.1.63-.92-.21-1-.76-.31-2,.12-5.11-1-5.88-3.66-2.48-1-7.69-4.81-9.73,1.16-1.55-.43-2.66-.63-4h.32l1.7.12L88,9.77C90.43,10.89,92.72,12,95,13c1.07.47,2.21.63,2-1.16s.72-3.09,1.64-4.41c.21-.3.51-.95,1.07-.48.22.18.16.66.31,1,.35.73,1.06-.49,1.68.36.33.45,1.1,2,2.39.9l-.37,2.89-.08.69a4.2,4.2,0,0,0,.68-.16c1.9-.78,3.83-1.5,5.67-2.39,2.34-1.14,3.83.24,5.46,1.52,2.24,1.75,3.57-.81,5.25-1.38a14,14,0,0,1,5.64-.73c2.09.15,3.89-.72,6-1.3l-.77-.15a7.65,7.65,0,0,1,1-.93c2.9-1.84,5.45-.61,8,1,1.6,1,3.91,1.67,4.63,3.12,1.28,2.61,2.8,1.09,4.39,1.14,4.77.15,9.57.34,13.94,2.69.34.18.87,0,1.31,0,0-.78-1.33.09-.78-.91.1-.18.93.14,1.39,0a5.26,5.26,0,0,0,1.28-.68l-2-.46c2.78-1.17,5.06-.95,7.33,1.27a12,12,0,0,0,3,1.66c.06,0,.26-.12.27-.21,1.11-5.77,5-7.2,10-3.68,1.5,1.05,3.38,1.36,4.67,3A5.14,5.14,0,0,1,191.12,19c4.35-1.85,8.87-2.93,13.09-5,2.19-1.09,5.1.61,7.56,1.65,3.09,1.31,6.29,2.39,9.32,3.83.4.19.4,2.09,0,2.87s-1.13.93-.07,1.54l.51-1c1.07,2,.54,3.93.22,5.87V24.15l-.41,0V29h-.22V26.82c-.84,1.54.81,3.5-.86,4.6-1,.64-1,1.37-1.17,2.23-.07.31-.74.49-1.14.72L217.46,33c-.17.56-.28,1-.45,1.46s-.38.77-.57,1.15a7.2,7.2,0,0,1-.27-1.09c-.07-.77-.31-.74-1.12-.76-1.52,0,.07-1.76-.9-2.32-1.33,3.86-4.64,5.34-6.9,3-.53.58.37,1.95-.63,1.92s0-1.43-.11-1.47c-1.68-.75-2.8.56-3.85,1.4-2,1.6-9,1.28-10.6-.76-.49-.62-.93-.35-1.31-.12-3.66,2.19-6.49-.38-9.68-1.47-4-1.35-6.36-4.63-9.75-7.22L172.68,29,171,27.48c.27,3.41,3.27,2.64,4.56,4-.37.4-2.21.33-1,2.21.38.57-1.08.82-1.71.85a20.1,20.1,0,0,1-3.85-.22c-.27,0-.74-.75-.65-.95.79-1.84-1-1.58-1.63-1.75-3.33-.84-6.7-.38-10.06,0-.78.08-1.23-.73-1.59-.77-1-.1-.9-3.08-2.7-1C151.87,30.44,151,30.26,151.15,29Zm-31,2.34c-5.28-1.53-10.61-.13-15.7-2.18-.1,0-.28.08-.41.12.11.12.21.32.34.35,2,.46,3.6,1.88,5.83,1.76C113.53,31.23,116.85,31.36,120.17,31.36Zm48.18-.2a12.79,12.79,0,0,0-3.28-1c-2.74-.09-5.5.06-8.24.19-.49,0-1.31-.76-1.38,0s.89,1.16,1.68,1C160.81,30.57,164.47,30.82,168.35,31.16Zm33.42,4.66c-3,.83-6.06-.28-9.67,0C195.74,37.91,198.75,36.9,201.77,35.82ZM137.5,30.18c-3,.34-5.27,1.47-7.66.61-.45-.16-1.09.23-1.65.37.59.29,1.16.8,1.76.83A16.15,16.15,0,0,0,137.5,30.18Zm53.66,4.65h-6.33a2,2,0,0,0-.55.17,2.94,2.94,0,0,0,.43.38C186.81,36.64,188.84,36.24,191.16,34.84Zm-37.9-21.77c-1.91-.85-3.87.39-5.86.29-.08,0-.17.34-.26.52.2.08.42.26.61.22C149.62,13.77,151.48,13.41,153.26,13.07ZM121.5,10.92l7-.61C126.39,10.15,124.23,9.62,121.5,10.92Zm65.74,2.37c1.29,1.8,3.72,2.92,3.18,5.84C191.43,16,188.88,14.89,187.24,13.29Zm-4.12-1.89c-1.87-.15-3.77-.8-6,.57Zm-1,22.2-4.8-2.06A7.19,7.19,0,0,0,182.14,33.6ZM108.08,11.5c2-.21,3-.28,4-.44.29,0,.54-.35.81-.53-.29-.09-.62-.32-.87-.26C111,10.53,110,10.89,108.08,11.5Zm37.47,2.79a3,3,0,0,0-2.36-4C145.18,11.17,144.89,12.93,145.55,14.29ZM203,15.4l4.41-.76C206,14.12,204.75,14.19,203,15.4ZM137.66,7.11c-1.57-.64-2.67-.17-4.95.87Zm9.06,20.25-.43.23,1.43.94A2.39,2.39,0,0,0,148,28C148.13,27.28,147.69,27.22,146.72,27.37Zm63.82,7.58-.51-.71a9.22,9.22,0,0,0-1.09.94s.34.47.52.72ZM108,23.3a13.81,13.81,0,0,0-1.38-.52c-.13,0-.45.15-.45.25a.77.77,0,0,0,.24.57A1,1,0,0,0,108,23.3ZM171,27l-2.64-1.5C169,26.23,169.54,27.29,171,27Zm-69.82,5.56.39-2.54-.79.11Zm67.31-7.09.23-.4-1.58-.89a1.55,1.55,0,0,0-.13.3C167.47,24.81,168,25.13,168.47,25.45ZM169,13.51c-.36-.24-.47-1.15-1-.5a3,3,0,0,0-.34.65Zm20.88,3.34-.32,0,.16,2.09.16,0Z"/><path class="cls-3" d="M133.86,229.52l2.05,3.82c-1.42-1.1-1.4-3.22-3.14-4.07l2.39,4.55-.91-.23a8,8,0,0,0-.05,1.2,13,13,0,0,0,.28,1.4c-.73.09-1.48.25-1.47-.91,0-.18-.38-.36-.59-.54a6.43,6.43,0,0,0-.57,1.68c0,.42.34.87.41,1.43-.86-2-2.61-2.79-4.55-3.18l-.46,1.62c-1.09.19-1.58,2.84-2.78.94-.83.18.89,2.65-1.38,1.4-.68-.37-1.1-1.19-1.75-1.65s-1-2.72-2.08,0-4.74,2.92-6.92,4.73c-1.51,1.25-3.49,2.83-5.12,1.41-2.75-2.39-4.19-.76-6.16.86-1.5,1.23-3.17,1.08-4.31-1.08l-.17,1.24c-1.73-3-4-4.82-7.71-3.32-.26.1-.65-.14-1-.22a1.16,1.16,0,0,1,.17-.39c.4-.39.82-.75,1.23-1.13a17.39,17.39,0,0,1-1.91.13,5.24,5.24,0,0,1-1.2-.32c.19-.28.59-.62.53-.84-.23-.87-1.11-2.07-.82-2.49.78-1.12.14-2.38.26-3.67l-.69-.29c.4-.15.81-.28,1.2-.44a6.16,6.16,0,0,0,.68-.4l-.82-.55,1.28-.54c-.59-1,2.14-.35.94-1.69,1.88-1,4.52-2.52,2.37-4.68-1.39-1.4-1.38-3-2.3-4.29s-.75-3.45-2.5-4.42c1.82-1.44-.82-2.37-.42-3.59.35-1,1.24.38,1.74-.25l-.82-1.35a11.71,11.71,0,0,0,1.62.21c.15,0,.29-.37.44-.57,2.09-2.71,1.44-6.29,2.93-9.18.88-1.71,2.22-.44,3.06-.13,2.26.83,2.47-1.25,3.5-2.11.45-.37.52-1.3,1.44-.91.12.05.29.28.26.37s-.38.43-.36.61c.07.64.48.34.75.17a1.48,1.48,0,0,0,.63-.64c.86-2.71,2.39-1,3.53-.43,1,.52,1.65,1.29,2.93,1.47,1,.13-.15,1.39.05,2.55,1.17-2.11.27-4.62,2.17-6.14.5-.4.81-.49,1.08-.09a3.66,3.66,0,0,1,.26,1.36c.61-.5,1.24-1,1.84-1.51a3.1,3.1,0,0,0,.42-.57,4.06,4.06,0,0,1,.53.73,7,7,0,0,1,.29,1.06l.87-.94.22,1c1.5-2.16,2.39-4.86,5.2-5.83a6.74,6.74,0,0,1,.44.9c3.25.68,5,2.54,4.8,7.09.38-1.27.45-1.44.48-1.61s0-.35.06-.88l.41,1.78.41-2.8.32,2.79c1.13-3.51,2.8-2.62,4.33-.78.81,1,4.22,0,2.36,2.89-.93,1.41-.91,3.4-2.81,4.3-.64.3.35.8.75,1.09s.93.63,1.39,1c.22.15.41.34.62.51l-.13-1.38.71,1.39c-.69-.34.09,1.49-1,.66,0,0-.26.09-.27.17s0,.42,0,.51.51.34.62.27c.27-.17.48-.67.65,0,0,.17-.26.42-.36.65-.71,1.6,1.1,1,1.55,1.75,2,3.2,3.47,6.72,2.5,10.32C137.5,223.67,135.42,226.51,133.86,229.52Zm.6-19.75a15.83,15.83,0,0,1,3.1,11.76C139.08,218.5,136.79,210.51,134.46,209.77Zm-23.34,32.51c-1.06-.17-1.91-.32-2.77-.43-1.85-.25-2.89.17-2,.71A3.88,3.88,0,0,0,111.12,242.29Zm-16.71-1.95c-1.38-1.74-4.5-1.58-6.07.31C90.36,239.87,92.35,240.19,94.41,240.34Zm5.37,3.87,1.37-.74c-1.09-.16-2.19-.33-3.29-.47-.13,0-.41.19-.41.19C97.78,243.91,98.26,244.38,99.78,244.21Zm37.47-23.72v-4.37H137Zm-13.61,18.15c-.09-.43.69-1.15-.29-1.28a8,8,0,0,0-.85,0ZM93.13,200.93c.22-.31.49-.53.5-.76s-.32-.35-.5-.52l-.65.84Zm13.46.23.21,0,.68-2.75-.33-.06Zm18.16-8.49-.34,0v3.48Z"/><path class="cls-2" d="M206.9,186.59c1-2-.48-4-.07-6.7,2.34-5.48,5-11.56,7.53-17.67a4.79,4.79,0,0,0,.11-1.52l-1.82,1.58c2.09-2.79,3.26-4.64,4.72-6.21.94-1,2-.64,3.27.18,3,2,6.17,3.76,9.32,5.52a9.5,9.5,0,0,1,4.14,4.22l.32-.84a7.3,7.3,0,0,1-1.94,5.06c-.32.4-.52.25-1.32-2.13.23,3.71.64,6.82.2,10-.67,4.88-2.71,9.14-4.63,13.52-.92,2.1-1.33,4.47-2.49,6.4-1.06,1.76-3.1,2.94-3,5.36-1.63-.75-2.32,2.68-3.72,1.13-1.53-1.7-3.12-.55-4.62-.71-1.22-.13-.83-1.26-1.62-1.65-1.72-.86-3.57-.12-5.19-.65a4.83,4.83,0,0,1-3.13-6c1.14-3.23-1.42-7.31,2.35-9.77.29-.19.61-.35.92-.52Zm14.93-4.28.29,0-.84-3.34a3.37,3.37,0,0,1-2.43,1.52c.69.92,1.2,2.3,2.11,2.63s-.14-1.31.69-1.82Zm9.27-10.8H231v6h.11Zm-24.82,28.56c-.2.5-1-.47-.88.45s1,.88,1.72.83c.19,0,.51.21.47-.37C207.51,199.93,206.71,200.38,206.27,200.07Zm6.4,2.2-.4.42a5.63,5.63,0,0,0,1.12.8c.23.09.58-.12.88-.19C213.91,202.87,213.81,202.13,212.67,202.27Zm5.29-21.6,2.25,3C219.64,182.64,219.54,181.18,218,180.67Zm12.48-9h-.26l.26,5.12Zm-12,33.23c.59-1.69,0-1.53-.51-1.66s-.39.24-.44.48c-.21.9.92.45,1,1Zm.31-47.86.89-.5c-.19-.21-.44-.62-.57-.59a4.47,4.47,0,0,0-1.06.58Zm-1,13.4.35.87c.2-.24.54-.46.58-.72s-.2-.62-.31-.94Zm13.12,7.63-.37,0-.11,2.33.34,0Zm-10.21,1c-.34-.11-.58-.26-.66-.2a6.78,6.78,0,0,0-.77.75c.13.1.34.32.39.29C219.93,179.77,220.21,179.51,220.65,179.15Z"/><path d="M142.14,193c-3.54-1.37-7.1-2.7-10.62-4.12-4.67-1.89-9.39-3.67-13.93-5.84-5.53-2.64-11.34-4.43-17.07-6.49a76.42,76.42,0,0,1-9-3.54c-4.93-2.52-5.09-3.26-3-8.46,4.36-10.75,9.89-21,14.19-31.76,5.89-14.8,12.46-29.33,17.81-44.36,4-11.13,8.1-22.2,12.26-33.27,1-2.73,3.53-2,5.67-1.93,4.44.18,8,2.76,11.84,4.46,10.6,4.65,21.33,9,32,13.6q14.06,6.06,28,12.36c3.2,1.44,3.27,3.57,1,6.27-2.17,2.53-2.89,5.88-3.82,9-2.87,9.76-7.8,18.65-11.62,28-2.49,6.09-3.68,12.71-6.14,18.83-3.62,9-6.06,18.47-10.2,27.31-3.3,7-6.1,14.31-9.16,21.46-1.09,2.54-2.23,5.1-5.32,5.82-.3.07-.67-.16-1-.25l0,0a27.35,27.35,0,0,1-6.77-2.23c-2.67-1.06-5.53-1.61-8.27-2.48-2.27-.72-4.49-1.59-6.73-2.39ZM137.33,54.87c-2.22-.62-3.26.8-4,2.94-4.56,12.83-8.93,25.74-13.85,38.43-6.06,15.62-12.47,31.1-19,46.55-3,7.12-6.63,14-9.81,21-2.59,5.74-2.3,6.39,3.58,8.59,6.38,2.39,12.89,4.42,19.21,7,8.59,3.44,17,7.42,25.58,10.76,6.73,2.61,13.63,4.86,20.58,6.82s7.58,1.27,10.18-5.65c1.41-3.76,2.84-7.53,4.61-11.13,5.57-11.36,9.06-23.52,13.57-35.28,2.34-6.1,3.59-12.63,6.05-18.68,3.3-8.12,7.51-15.86,10.39-24.17,1.87-5.41,2.76-11.22,6.57-15.83,0-.06-.11-.4-.24-.48a23.38,23.38,0,0,0-2.7-1.53c-8.82-3.83-17.64-7.66-26.49-11.41-9.72-4.12-19.45-8.21-29.24-12.19C147.47,58.61,143.22,55,137.33,54.87Z"/><path d="M27.29,85.91c10.31.83,20.66,1,31,1.2,1.47,0,2.94-.24,4.4-.17,4.68.24,5.7,2.9,5,8.66a134,134,0,0,0-.74,18.54c.09,9.47,1.13,18.91.34,28.42-.7,8.43-.82,16.9-1.15,25.36-.35,8.94-1.16,17.91-.81,26.83.28,7.25.64,14.49.58,21.75,0,3.31-1.81,4.94-5.07,4.52-5.63-.73-11.17.94-16.78.47-7-.58-14-1-20.93-1.7-3.27-.32-3-3.19-3.11-5.38-.85-12.25,1.74-24.35,1.75-36.56,0-5.82-.4-11.64-.36-17.46,0-6.67.48-13.34.55-20,.09-8.56-.31-17.13.55-25.68a104.48,104.48,0,0,0-.19-19A19.29,19.29,0,0,1,23,88C23.66,86.05,25.34,85.55,27.29,85.91ZM21.61,209.23a12.45,12.45,0,0,0,.06,3.53c.52,1.69-1.46,4.3,2.18,4.94,7,1.22,14,1.41,21,2.12,5.66.57,11.28-1.09,17-.45a1.94,1.94,0,0,0,2.14-2c.15-2.64.21-5.29.22-7.93.05-10.94-.86-21.82-.19-32.82.92-15.3,1.48-30.64,2.1-46,.21-5.17-.61-10.37-.59-15.55,0-7.54.34-15.07.7-22.6.12-2.42-.67-3.74-3.08-3.83-1.89-.07-3.8.16-5.69.1-9.34-.28-18.7-.39-28-1-4.23-.29-5.49,1.08-5.26,5.12a159.09,159.09,0,0,1,.36,17.62c-.41,7.84-.87,15.66-.79,23.52.09,8.71-.33,17.42-.35,26.13,0,8.9.71,17.8,0,26.71C22.78,194.32,21.58,201.72,21.61,209.23Z"/><path d="M89.5,12.63c-1.09-3.56.81-5.41,5.17-5C99.44,8,104.2,8.9,109,8.85c10-.1,20,.92,30,1.19,7.12.19,14.22,1.06,21.34,1.47,8.91.52,17.84.8,26.75,1.34a271.62,271.62,0,0,0,27.37.68,16.87,16.87,0,0,0,2.43-.29c3.51-.66,5.37,1.09,5.25,5-.1,3.37-.29,6.73-.42,10.09a14.66,14.66,0,0,0,.42,3.33c.53,2.8-1.34,4.31-3.82,4-8.64-1.19-17.33-.34-26-1.1-8-.69-16.06-.6-24.09-1-7.87-.39-15.72-1.23-23.59-1.39-9.74-.2-19.46-1.22-29.25-.43-6.75.54-13.54,1.15-20.36.7-3.56-.24-6.89-5.68-5.87-10a24.33,24.33,0,0,0,.42-9.86Zm4-2.93c-1,.07-2.93-.24-2.36,2.61a32.06,32.06,0,0,1-.19,11.42c-.81,5.06,1.17,7.06,6.33,7,10.48-.17,20.91-1.61,31.42-1.14,9.82.44,19.69.27,29.47,1.12,12.22,1.06,24.47,1,36.68,1.94,7.09.57,14.23-.23,21.31.89,1.37.22,3.73,1.22,4-1.4.5-4.67-.13-9.4.62-14.09.29-1.8-.27-3.56-2.85-3.4-4.13.26-8.27.66-12.41.59q-12.65-.22-25.29-.91c-12.93-.68-25.85-1.54-38.78-2.29-3.09-.18-6.2-.15-9.3-.29q-10.56-.47-21.12-1C105.39,10.44,99.76,10.07,93.47,9.7Z"/><path d="M105.64,55.65c-.3,2.36-1.95,3.62-3.19,5a139.18,139.18,0,0,1-11.6,11.25c-2.65,2.35-4.46,5.63-6.89,8.25-2,2.19-4.43,4-6.66,6.05-4.22,3.78-6.34-.5-8.63-2.56-5-4.52-9.7-9.44-14.55-14.17s-9.33-9.33-14.23-13.74c-4.17-3.76-8.64-7.19-13-10.68-3.56-2.82-3.47-5.25,0-8.23a66.16,66.16,0,0,0,7.66-7.76C38.91,23.8,44.14,19.4,49,14.65c.84-.81,1.55-1.76,2.31-2.66,3.42-4,4.62-4.23,8.56-.66,7.83,7.1,15.63,14.23,23.26,21.54,4.85,4.65,9.31,9.71,14,14.48,2.36,2.38,5,4.49,7.46,6.77A6.32,6.32,0,0,1,105.64,55.65Zm-7.07-4.84c-5.65-5-10.9-10.49-16.3-15.8C74.39,27.25,66.11,19.9,58,12.39c-1.89-1.75-3.62-2.09-5.44.27-3.06,4-6.86,7.27-10.43,10.77-5.06,5-9.72,10.31-14.8,15.25-1.85,1.81-1.78,2.8.07,4.3,6.37,5.17,12.94,10.12,19,15.68,8.52,7.87,16.55,16.27,25,24.25,1.24,1.18,2.7,3.65,5.45,1.32C84.09,78,89.48,70,96.88,63.87c2.31-1.91,3.9-4.69,6-6.91.67-.71.82-1.07.18-1.71-1.48-1.48-3-2.95-4.47-4.42Z"/><path d="M106.14,243.14a38.61,38.61,0,0,0-12,1.34c-3.31.82-4.95-.29-5.15-3.76-.48-8.15-.29-16.36-1.69-24.44a55.34,55.34,0,0,1-.91-15.88c.26-2.24,1.51-2.37,3.15-2.51,12.47-1.05,25-1.29,37.4-3.19a15.9,15.9,0,0,1,3.08-.26c1.08,0,1.93.3,1.77,1.87-.73,7.16.11,14.25,1.36,21.29a135.49,135.49,0,0,1,2.28,20.86c0,2.09-1.36,1.61-2.87,1.68-4.13.18-8.24.79-12.35,1.27C115.19,242,110.18,242.65,106.14,243.14Zm-15.71-5.92c.08.77.22,2.6.5,4.4.13.83.62,1.79,1.63,1.46,5.65-1.85,11.53-1.37,17.3-2,6.62-.74,13.2-1.74,19.87-2.14,1.41-.09,4.28.75,4.09-2.33-.28-4.46-.63-8.94-1.31-13.35-1.35-8.74-3-17.44-2.12-26.35.09-.88-.43-.88-1-.81-4.5.55-9,1.24-13.5,1.65-8.23.75-16.48,1.28-24.71,2.07-1,.09-2.6-.71-3,.9-1.08,3.94-.42,8,.2,11.84A152.13,152.13,0,0,1,90.43,237.22Z"/><path d="M235.31,165.78c-1.35,5.06-2.52,10.17-4.08,15.15-2.33,7.42-4.61,14.89-8.25,21.82-1,2-2.68,3.31-5.1,2.46-4.26-1.48-8.49-3.07-12.71-4.65-4.41-1.66-3-5.06-2-7.93,3.47-10.38,7.13-20.71,10.77-31,1.64-4.64,3.62-5.27,9.77-2.85,3.25,1.28,6.23,3.22,9.65,4.14A2.62,2.62,0,0,1,235.31,165.78Zm-31.76,31.3a3,3,0,0,0,1.22,1.9c3.51,2.29,7.73,2.79,11.38,4.67,2.91,1.5,4.52.45,5.8-2.32a176.33,176.33,0,0,0,11.2-34.06c.42-1.79.59-3.34-1.81-3.82-3-.59-5.57-2.19-8.26-3.5-4.55-2.22-5.9-1.95-7.7,2.66-2.48,6.35-4.68,12.82-6.89,19.27C206.76,186.92,205.19,192,203.55,197.08Z"/><path d="M112.63,34.42l-.17-.07a.7.7,0,0,1,.17-.15s.09.07.14.1Z"/><path d="M111.11,34.26s0,.06,0,.09h-.17v-.08Z"/><path d="M111.76,34.34l-.06-.05s0,0,.06,0,0,0,.06,0Z"/><path d="M235,235.78l-.11,0,0-.08Z"/><path d="M145.09,133.29c-.2,4.77-3,7.23-8,7a6.55,6.55,0,0,1-5.91-6.28c.12-5.23,3.39-8.4,8.45-8.19C142.85,125.94,145.25,129.22,145.09,133.29Zm-1.58-.17c0-3.06-1.37-5.28-4.57-5.58-3.52-.32-6,2.56-5.94,6.61a4.29,4.29,0,0,0,4.32,4.36C141.51,138.8,143.44,136.93,143.5,133.12Z"/><path d="M117,143.59c.52,5.93-4,7.75-8.07,8-3.67.2-6.64-3-6.59-6.81.06-4,4.11-7.69,8.48-7.72A6.24,6.24,0,0,1,117,143.59Zm-7.69,6.59a6.29,6.29,0,0,0,6-6.13c0-3-1.32-5.23-4.55-5.39-3.69-.18-6.9,2.77-6.86,5.93A5.81,5.81,0,0,0,109.31,150.17Z"/><path d="M126.48,96.47c4.37,0,7.7,3.81,7.7,8.75,0,2.91-4,5.7-8.27,5.77a6.7,6.7,0,0,1-6.45-6.37C119.46,100.46,122.91,96.45,126.48,96.47Zm-.6,13c2.78-.56,6.1-.67,6.59-4.19.46-3.37-2.77-7.34-5.29-7.38-3-.05-6.25,3.2-6.07,6.58C121.26,107.29,123,109,125.88,109.48Z"/><path d="M124.76,125.11c0,4.32-2.45,6.92-6.53,6.92-4.35,0-6.74-1.9-6.75-5.36,0-5.55,2.54-8.63,7.18-8.63Q124.76,118,124.76,125.11Zm-1.65-.36c-.08-3.17-1.89-5.14-4.7-5.11-3.49,0-5.62,2.78-5.23,7.38.23,2.7,2.51,3.39,4.84,3.4C121.73,130.42,123.21,128.69,123.11,124.74Z"/><path d="M128.5,160.42c-3.14-.1-6.58-4.63-6.41-8.43.16-3.46,4.4-6.89,8.38-6.77,3.68.11,6.89,3.17,6.76,6.46C137.06,156.44,132.94,160.56,128.5,160.42Zm-4.6-8.16c0,3.23,2.83,6.57,5.4,6.81s6.6-4.3,6.37-7.5c-.18-2.56-3-4.94-6.23-4.93A5.8,5.8,0,0,0,123.9,152.25Z"/><path d="M108.65,164.68c-.15,3.78-3,6.85-6.31,6.72-4.43-.19-7.2-3.09-7-7.38.11-3.07,3.36-6.15,6.35-6C106.17,158.18,108.8,160.7,108.65,164.68Zm-1.86,3-1.2-.18a2.09,2.09,0,0,1,.22-.75c2.15-2.66,1.21-4.95-1.26-6.47A4.6,4.6,0,0,0,98,161.54c-1.73,2.53-1.09,5,1.28,7,2.85,2.43,5.22.9,7.58-.86l.73-.53-.11-.11Z"/><path d="M142,173.69c4.07,0,6.72,2.07,6.72,5.24,0,5.31-2.58,8.31-7.06,8.22-4.7-.09-8-3-8-7.07C133.71,176.34,137.17,173.68,142,173.69Zm-.54,12.08c3.4,0,5.78-2.43,5.71-6.15-.06-3.3-2.41-4.51-5.24-4.66-3.57-.2-6.5,2.08-6.54,4.73A6.26,6.26,0,0,0,141.49,185.76Z"/><path d="M156,159.41c-.07,4.82-3,7.77-7.64,7.7a6.58,6.58,0,0,1-6.27-6.58c.08-4.23,3.35-7.18,7.9-7.12C153.77,153.47,156.07,155.77,156,159.41Zm-1.62,1.1c-.34-2.43-.24-5.6-4.34-5.67-3.86-.07-6.25,2.09-6.06,5.66.14,2.62,1.37,4.92,4.2,5.23C151.91,166.15,154.4,164,154.4,160.52Z"/><path d="M167.76,175.12a6,6,0,0,1-6.51-6.11c-.09-3.36,3.56-7.26,6.92-7.4,4.6-.18,7.36,1.89,7.49,5.62C175.84,171.95,172.84,174.94,167.76,175.12ZM169,163.25c-3.71,0-6.33,2.53-6.29,5.45s2.61,5.11,5.95,5.09c3.07,0,5.36-2.44,5.28-5.91S171.47,163.31,169,163.25Z"/><path d="M184.06,148.16c-.11,4.17-3.59,7.84-7.3,7.7s-6.91-2.81-6.82-5.69c.13-4.41,3.89-8.54,7.61-8.38C180.73,141.93,184.14,145.26,184.06,148.16Zm-6.32-4.79c-4,.16-6.53,2.87-6.1,6.51.38,3.21,3.1,4.6,5.84,4.44a5,5,0,0,0,4.87-5.63A5.56,5.56,0,0,0,177.74,143.37Z"/><path d="M157.64,121a8.29,8.29,0,0,1,7.83-8.17c3.29,0,6.7,3.69,6.74,7.35,0,2.94-4.56,6.34-8.48,6.28C160.2,126.45,157.62,124.14,157.64,121Zm6.14,3.93c3.54.15,6.69-1.81,6.79-4.22a6.15,6.15,0,0,0-5.51-6.3c-2.54-.13-5.74,2.79-5.78,5.37C159.24,122.86,160.45,124.86,163.78,125Z"/><path d="M198.38,109.53c-.26,3.57-4,6.47-8.09,6.2-3.53-.24-5.67-2.95-5.43-6.89.25-4.16,3.94-6.93,8.7-6.54C196.66,102.56,198.67,105.56,198.38,109.53Zm-1.49,1.17c0-5.16-1.54-7.05-5.08-6.9-3.07.14-5.37,1.54-5.31,5,.05,3,1.28,5.47,4.62,5.45C194,114.26,196.6,113.11,196.89,110.7Z"/><path d="M164.9,193.57c-3.56.87-6.75.65-9.31-2.14a4.41,4.41,0,0,1-1.36-3.19c.19-3.29,4.32-6.83,7.55-6.55,5.14.44,7,2.19,6.63,6.29C168.16,190.41,167.53,192.71,164.9,193.57Zm-2.47-10.09a5.75,5.75,0,0,0-1.34-.19,5.68,5.68,0,0,0-5,3.6,3.31,3.31,0,0,0,1,3.9,6.22,6.22,0,0,0,7.14,1.39c2.94-1.27,2.7-4,2.1-6.36-.41-1.66-2.06-2.43-3.88-2.39Z"/><path d="M173,108.46c-3.58,0-6.12-3.08-6.11-7.42,0-3.05,3.38-6.27,6.54-6.24,4,0,7.18,2.71,7.13,5.95A7.85,7.85,0,0,1,173,108.46Zm-4.5-7.29c.36,2.77,1,5.53,4.55,5.82,3,.24,6.06-2.81,6.07-5.65,0-3.65-2.57-4.57-5.38-4.74S168.67,97.69,168.52,101.17Z"/><path d="M153.23,112.38a6,6,0,0,1-6.25,6.33c-3.93,0-7.23-2.33-7.25-5.1,0-4.91,2.28-7.47,6.69-7.44C150.62,106.21,153.23,108.59,153.23,112.38Zm-7,4.69c3.62.17,5.57-1.25,5.48-4.14s-1.7-5.18-5.21-5.13-5.53,1.83-5.22,5.5C141.54,116.57,144.55,116.59,146.23,117.07Z"/><path d="M131.64,92.71c-3.42,0-5.27-2-5.28-5.84,0-4.48,2.67-7.45,6.7-7.44,3.75,0,7.65,3.27,7.66,6.42C140.73,90.24,137.46,92.71,131.64,92.71Zm-3.63-6c-.26,2.84,1,4.58,3.84,4.7,4.73.2,7.23-1.8,7.23-5.39,0-2.47-3.07-5.21-5.85-5.22C129.82,80.83,128,82.87,128,86.76Z"/><path d="M185.49,122.13c3,0,6.56,3.27,6.55,6.11a7.57,7.57,0,0,1-7.66,7.6c-3.93,0-6.25-2.13-6.25-5.75C178.12,125.32,181.06,122.14,185.49,122.13Zm.31,1.42c-3.95,0-6.24,2.39-6.24,6,0,3.26,1.82,4.92,4.89,5.07a5.63,5.63,0,0,0,5.92-5.89C190.21,125.62,188.12,124.11,185.8,123.56Z"/><path d="M154.82,75.12c-.07-3.83,3.48-7.93,6.87-8,3,0,6.14,3.63,6.2,7.32s-2.36,5.6-7.13,5.71C156.83,80.29,154.88,78.62,154.82,75.12Zm1.43,1.53c.08,1.65,2.27,2,4.2,2,2.58,0,6,.31,5.73-3.82-.16-2.9-1-5.81-4.58-6.24C159.2,68.33,156.28,72.31,156.25,76.65Z"/><path d="M200.42,84.56c4-.08,6.45,2.26,6.51,6.3,0,2.47-5.15,7.3-8,6.92s-4.95-1.94-5.06-5.09C193.73,87.66,196.23,84.64,200.42,84.56ZM201,86c-3.47,0-5.58,2.68-5.48,6.24a3.94,3.94,0,0,0,3.44,4.09c2.33.33,6.68-3.77,6.5-6A4.44,4.44,0,0,0,201,86Z"/><path d="M148.27,66.12c0,4-2.84,6.1-8.15,6.09-3.41,0-5.29-2.52-5.33-7.12a6.58,6.58,0,0,1,6.87-6.35C145.38,58.81,148.27,62,148.27,66.12Zm-1.45.11c.1-3.06-2.43-6.24-5.17-6.26-3.19,0-5,1.65-5.21,4.89-.14,2.75.29,5.7,3.46,6.19C144.1,71.68,146.71,69.54,146.82,66.24Z"/><path d="M126,177.6l1.67-.31a6.4,6.4,0,0,1-1.36,1.39,7.85,7.85,0,0,1-10.83-4.38c-.73-2.27.67-3.86,2-5.32,1.87-2,7-2.55,9.1-.83,2.36,1.89,2.84,4.42,1.66,7.23a4.32,4.32,0,0,1-2.27,2.16c-.37-.56-.38-.57.33-1.42,1.46-1.77,1.18-3.73.42-5.6s-2.63-2.24-4.53-2.09-3.7.63-4.69,2.64c-1.12,2.28-.16,4,1.39,5.47C120.95,178.58,123.39,178.56,126,177.6Z"/><path d="M154.32,86.11c2.92,0,5.72,2.95,5.78,6.07.06,3.69-4.09,7.6-8.11,7.64-2.63,0-5.21-2.88-5.23-5.88C146.74,90.47,150.95,86.11,154.32,86.11Zm4.45,6.33a4.81,4.81,0,0,0-4.65-4.91c-2.71-.26-6,3.21-5.86,6.07.12,2.44,1.25,4.48,3.88,4.79S158.73,95.17,158.76,92.44Z"/><path d="M187.53,81.46c0,4-3.25,6.75-7.95,6.81-3.7,0-4.83-2.21-4.89-5.39-.07-3.46,2.92-7.41,5.5-7.39C185,75.51,187.53,77.53,187.53,81.46Zm-11.38.32c-.17,3.39.69,5,3.51,5,4.06,0,6.66-1.92,6.52-5.07-.16-3.51-2.42-5.19-5.67-4.81S176.48,79.9,176.15,81.78Z"/><path d="M163.8,140c0,4.1-2.89,6.71-7.32,6.67-3.4,0-6.17-2.36-6.17-5.19a7.78,7.78,0,0,1,7.56-7.65C160.74,133.83,163.81,137,163.8,140Zm-1.4.86c.15-2.7-2.22-5.54-4.77-5.7a5.34,5.34,0,0,0-5.78,5.32c0,2.87,1.69,4.88,4.68,4.81C159.35,145.28,162.44,145,162.4,140.91Z"/><path d="M91.14,170.21a1.32,1.32,0,0,1-.34-.05s-.06-.12-.09-.18.19-.11.24-.09S91.05,170.05,91.14,170.21Z"/><path d="M114.43,110.28l.07,0s0,.06,0,.08,0,0-.07,0Z"/><path d="M39.77,162.78c0,6.12-2.43,9-7.57,9-3,0-7.24-3.84-7.22-6.54a8,8,0,0,1,8.1-7.77C37.48,157.51,39.78,159.32,39.77,162.78Zm-6.31-3.63c-3.33,0-6.78,2.89-6.55,5.93A5.51,5.51,0,0,0,31.75,170c3.79.56,6.34-2.57,6.26-6.9C38,160.15,36,159.26,33.46,159.15Z"/><path d="M39.75,125l.15.38.07.07c-1.29,3-4,2.33-6.23,2.09-3.14-.35-6.24-1.43-7.64-4.71-1.32-3.1-.19-5.91,1.89-8.18,2.49-2.72,5.62-2.19,8.33-.47,3.93,2.49,5.09,6.38,3.46,10-.09.19-.69.46-.09.77Zm-1.32-3.87c-.15-3.7-3.26-6.89-6.8-6.6-3.37.27-4.13,3.05-4.29,5.71-.21,3.43,3.82,6.43,8.39,5.82C37.75,125.81,38.5,123.34,38.42,121.15Z"/><path d="M26.06,99.12c.1-3.84,4.45-7.89,8.39-7.82,3.63.06,7.08,4,7,8.07s-2.67,6-7.31,5.85C29.85,105.07,26,102.16,26.06,99.12Zm8-6.2c-2.78,0-6.35,3.46-6.3,6.09,0,2.23,3.73,4.86,6.82,4.76a4.6,4.6,0,0,0,4.73-4.18C39.68,96.15,36.82,92.92,34.07,92.92Z"/><path d="M57,158.26c3.3,0,6,2.28,6.07,5.11,0,3.11-3,8.55-4.76,8.35-2.61-.29-5.53,1.93-7.83-.9-1.42-1.75-3.06-3.41-3.15-5.84C47.19,161.45,51.79,158.3,57,158.26Zm-2.9,12.21c4.69-.17,7.59-2.46,7.25-6.09-.37-3.9-3.14-4.7-6.53-4.42-3.06.26-5.26,1.72-5.8,4.78C48.68,166.61,52.45,170.52,54.09,170.47Z"/><path d="M54.43,216.52c-3.94,0-7.67-4.21-7.67-8.62,0-3.69,3.49-6.82,7.59-6.82,3.94,0,8,3.46,8,6.84S57.69,216.53,54.43,216.52Zm-6-9.64c0,4.41,3.26,8.24,6.21,8.21,2,0,5.8-4.5,5.88-7s-3.6-5.74-6.86-5.46C50.71,202.87,48.52,204.44,48.4,206.89Z"/><path d="M31.48,149.44c-3.47,0-6-2.88-5.93-6.88,0-4.2,4.16-8.14,8.48-8.08a6.79,6.79,0,0,1,6.58,6.82C40.56,146.28,37,149.45,31.48,149.44Zm.59-1.58c3.94.13,6.88-2.43,6.9-6.23,0-3-1.54-5.12-4.63-5.49-3.4-.41-7.11,2.89-7,6.27C27.41,145.36,28.62,147.69,32.07,147.86Z"/><path d="M32.34,193c-5.23.07-8.16-2.16-8.22-6.27-.06-3.93,3.85-7.83,7.88-7.88,3.13,0,7.48,3.55,7.51,6.18C39.57,190.07,37,192.95,32.34,193Zm.5-1.42c3.12,0,4.86-2.15,4.82-5.94,0-2-3.62-5.15-5.84-5.14-3.48,0-5.93,2.62-5.94,6.31C25.87,189.82,28.47,191.6,32.84,191.59Z"/><path d="M63.74,98.09a7.58,7.58,0,0,1-7.64,7.78c-4.17.13-8.55-3.51-8.67-7.21-.09-3.05,4.31-7.69,7.4-7.79C60,90.68,63.61,93.6,63.74,98.09ZM56,92.25c-3,0-6.75,3.37-6.72,6.06s3.62,6.36,6.12,6.34a6.61,6.61,0,0,0,6.68-6.52C62.07,95.21,59,92.24,56,92.25Z"/><path d="M55,178.65a7.62,7.62,0,0,1,7.6,7.44A8.21,8.21,0,0,1,54.89,194c-3.84,0-8.43-4.24-8.51-7.91C46.28,182.19,50.4,178.65,55,178.65Zm-.86,1.4c-3.42-.11-5.91,2.28-6.11,5.87-.14,2.51,4,6.76,6.72,6.86,2.89.1,5.89-3.06,6-6.3C60.89,182.91,58.08,180.17,54.18,180Z"/><path d="M62.8,142.65c-.26,2,.06,5.28-3.34,5.89s-7.16,1.84-10.27-1a7,7,0,0,1-2.39-5.15c0-3.75,4-7.4,7.78-7.3C59,135.17,62.89,138.47,62.8,142.65Zm-1.58-.32c0-3-3.06-5.83-6.39-5.83a6.36,6.36,0,0,0-6.18,5.83c0,2.77,2.69,5.84,5.39,5.58C58.73,147.46,61.37,146.75,61.22,142.33Z"/><path d="M31.58,201.3c3.51,0,7.6,3.66,7.51,6.7-.13,4.67-3.08,7.75-7.53,7.83-3.56.06-7.55-4.18-7.62-8.12C23.89,204.44,27.64,201.28,31.58,201.3Zm4.06,11.92a12.78,12.78,0,0,0,.88-1.34c1.48-3,.62-5.6-1.7-7.63s-5-1.86-7.5-.11-1.85,4.19-.91,6.41c1.66,3.89,5.58,4.6,8.45,1.68a2.34,2.34,0,0,1,.61-.33l.14,1.3Z"/><path d="M56,128.38c-5,0-7.51-2.31-7.48-6.8,0-3.64,3.93-7.12,8-7.09,3.84,0,6.15,2.92,6.16,7.76C62.63,126.22,60.27,128.4,56,128.38Zm-.55-1.28c3.44,0,5.68-2.1,5.54-5.39-.13-2.9-.66-5.77-4.47-5.89-3.23-.1-6.52,3-6.33,6C50.37,125.09,51.81,127.34,55.42,127.09Z"/><path d="M39.69,125a.32.32,0,0,1,.07-.06s.05,0,0,0a.31.31,0,0,1-.06.07Z"/><path d="M40.1,125.18l.08.08Z"/><path d="M40.18,125.26l-.22.21-.07-.07.21-.21Z"/><path d="M197.23,24.33c.69,2.57-.44,4.84-3.89,5.13-6.07.52-10.12-2-10.59-6.16A7.66,7.66,0,0,1,188.81,15C193.32,14.24,197.22,18.24,197.23,24.33Zm-5,3.65c3.61-.12,2.58-3,2.61-4.9.06-3.92-2.34-6.54-5.5-6.26A4.42,4.42,0,0,0,185,21.7C185,25.4,188.34,28.16,192.26,28Z"/><path d="M212.11,16.85a6.84,6.84,0,0,1,7.32,6.64c.29,4-4.05,7.58-9.58,7.94-2.88.18-5.86-3.23-6.06-7S207.6,17.12,212.11,16.85Zm-1,12.9a6.28,6.28,0,0,0,6.19-5.64,5.46,5.46,0,0,0-5.67-5.46c-2.94.09-5.47,1.46-5.91,4.44A5.51,5.51,0,0,0,211.15,29.75Z"/><path d="M102.27,11.27c4.86,0,8.18,5.11,6.48,9.9-.21.58-.7,1.35.62,1a.55.55,0,0,1,.38.22,1.41,1.41,0,0,1-.28.54c-2,2.35-8.11,3.8-10.31,2.46a8.4,8.4,0,0,1-3.22-10.1A6.93,6.93,0,0,1,102.27,11.27Zm-.47,13c3.94,0,5.82-1.94,5.83-5.95A5.66,5.66,0,0,0,101.54,13,4.86,4.86,0,0,0,97,18.21C96.91,22,98.74,24.25,101.8,24.24Z"/><path d="M124.15,28c-3.89-.18-6.32-2.56-6.19-6,.23-5.73,3-8.79,7.89-8.58a6.83,6.83,0,0,1,6.45,7.1C132.1,24.4,128,28.23,124.15,28Zm6.52-9.29c-.17-2.17-2.4-3.56-5.55-3.67-3.63-.13-5.55,2.36-5.53,6.92,0,3.27,2.06,4.46,5,4.54C127.73,26.65,130.67,23.48,130.67,18.76Z"/><path d="M145.45,29.3c-3-.14-6.1-3.17-6-5.84.17-5.42,3.42-9.61,7.29-9.39,3.59.21,7.25,4.13,7.12,7.65C153.7,25.53,149.32,29.48,145.45,29.3Zm1-13.59c-2.91,0-5.62,3.41-5.49,7.33.09,2.78,2,4.42,4.59,4.75s6.8-3.14,6.79-5.43C152.36,18.87,149.56,15.71,146.49,15.71Z"/><path d="M168.56,29.72c-3.5,0-6.76-3.53-6.8-7.36s3.18-7.5,6.91-7.55c4.12-.06,8.35,4.83,8.27,9.56C176.89,26.77,172.27,29.73,168.56,29.72Zm.05-1.41c3.6-.14,6.68-2.38,6.57-4.79-.18-3.92-3.51-7.46-6.92-7.35-2.4.07-5.15,3.28-5.09,5.91C163.26,25.42,165.87,28.42,168.61,28.32Z"/><path d="M57.15,67.2q-9.37-9-18.73-17.91c-.77-.74-1.45-1.56-2.17-2.34l0,0c-1.88-1.85-3.77-3.69-5.63-5.56a2.16,2.16,0,0,1-.06-3.05,269.34,269.34,0,0,1,22-23.1c2.37-2.18,4.54-1.09,6.32.64C66.64,23.5,74.91,30.69,82.13,39,87,44.57,93.31,48.79,98,54.62c1.41,1.74,1.42,2.89-.19,4.55-6,6.16-11.71,12.58-17.79,18.64-1.58,1.58-2.72,4.21-5.38,4.26S70.09,80,68.24,78.26c-3.45-3.17-6.74-6.51-10.08-9.79a12.44,12.44,0,0,1-1-1.25Zm17,13.29a6,6,0,0,0,1.23-.62c1.86-1.67,3.8-3.28,5.51-5.09C86,69.32,91.1,63.77,96.2,58.24c.53-.57,2.21-.69,1-2.1s-2.35-2.9-3.69-4.18c-4.25-4-8.85-7.74-12.81-12a324.94,324.94,0,0,0-23.83-23.1c-.69-.6-1.58-1.71-2.79-.64-7.92,7-14.87,15-22,22.76a1.16,1.16,0,0,0,.08,1.8q4.68,4.52,9.33,9.06Q55.76,63.63,70,77.44A40.51,40.51,0,0,0,74.1,80.49Z"/><path d="M130.1,234.18c.51,3-1.53,3.67-3.73,3.64-4.14,0-8.28-.66-12.41-.55-6.1.15-12.19.65-18.27,1.17-2.12.18-2.79,0-2.51-2.5.59-5.09-.09-10.21-.33-15.32-.27-5.78-.32-11.57-.26-17.36,0-1.76,2-1.52,3-1.46,7,.38,13.76-.83,20.57-1.85a70.21,70.21,0,0,1,9.14-1.07c2,0,1.65,1.46,1.76,2.42,1.17,10.2,2.48,20.4,2.81,30.68,0,.73.16,1.45.24,2.18ZM94.35,231H95c0,1.47,0,2.94,0,4.41,0,.74.26,1,1,1,3.15-.16,6.33-.05,9.45-.45,7.22-.93,14.43-.28,21.65-.19.69,0,1.62.11,1.54-1.11-.28-4.42-.43-8.84-.84-13.25-.6-6.44-1.43-12.86-2-19.31-.11-1.22-.57-1.66-1.61-1.55-1.84.18-3.68.47-5.52.73-7.06,1-14.07,2.53-21.27,2.19-2-.1-3.18.37-3.11,3C94.48,214.65,94.35,222.85,94.35,231Z"/><path d="M222.28,177.7c-3.8,0-6.18-2.42-6.19-6.29,0-4.27,3.09-7.86,6.78-7.86,3.91,0,6.62,2.43,6.64,5.93C229.55,174.33,226.59,177.69,222.28,177.7Zm.49-1.62a5.72,5.72,0,0,0,5.49-6.16c-.08-3.5-2.29-4.81-5.4-4.92s-5.67,2.89-5.51,6.32S219.59,176.05,222.76,176.08Z"/><path d="M213.77,198a5.35,5.35,0,0,1-4.55-5.52c-.13-4.82,3.28-8.86,7.27-8.81,3.7,0,7.41,3.46,7.41,6.84C223.9,194.92,220,197.94,213.77,198Zm.67-1.24c5.19-.18,8.07-2.57,7.9-6.31a6,6,0,0,0-6.07-5.6c-3.25.14-5.93,3.35-5.74,7.06C210.65,194.52,211.91,196.34,214.44,196.73Z"/><polygon points="162.47 183.44 162.48 183.49 162.43 183.48 162.47 183.44"/><path d="M101.34,14.58s-.06,0-.07,0,0,0,0-.07.06,0,.07,0S101.33,14.55,101.34,14.58Z"/><path d="M73.74,66.83c-6.25,0-11.7-4.7-11.64-10,.07-6,6.18-12.1,12-12.1s11.15,5.82,11,12C85.11,61.39,79,66.83,73.74,66.83Zm-.47-1.64c4.46,0,10.2-4.69,10.2-8.34,0-5.16-4.29-10.48-8.45-10.46-6,0-11.2,4.79-11.28,10.3C63.68,61.1,68.27,65.19,73.27,65.19Z"/><path d="M45.69,41.49c0-6.1,5.9-13,11.16-13,6,0,11,4.56,11,10a11.76,11.76,0,0,1-11.63,12C50.31,50.61,45.68,46.62,45.69,41.49Zm20.49-2.59c0-5-4.13-8.73-9.71-8.74-4.11,0-9.52,5.94-9.56,10.5s4.15,8.16,9.27,8.13C62.11,48.76,66.18,44.72,66.18,38.89Z"/><path d="M50,49.73l-.06.06s0,0,0-.07,0,0,.05-.06Z"/><path d="M122.6,217.68c1.37,2.67-.31,5-2.54,7-2.62,2.29-5.23,4.86-9,5-9.31.35-10.82-4.46-11.29-11-.52-7.19,5.49-11.92,14-12C118.7,206.67,122.62,211.28,122.6,217.68ZM110,228c4.21.33,6.86-2.38,9.54-5,.93-.89.83-.94.32-1.4a.78.78,0,0,1-.17-.71c2.13-3.85,1-7.28-1.43-10.46-2.26-3-5.49-2.41-8.52-1.91-5.75,1-9,5.15-8.51,10.55C101.85,225.2,104.65,228,110,228Z"/><path d="M72.56,48.52c5.88.22,9,3.3,8.84,8.67-.11,3.49-4.17,6.93-8,6.82-4.89-.15-8.26-3.65-8-8.34C65.48,52.45,69.57,48.41,72.56,48.52Zm1,14.09c2.9.12,6-2.68,6.18-5.48C80,52.8,77.57,50.2,73.19,50c-3.24-.14-6.12,3-6.21,6.85C66.91,60,69.72,62.46,73.58,62.61Z"/><path d="M65.44,39.21c0,4.27-5,9.15-9.44,9.15-3.53,0-8.39-4.82-8.37-8.29,0-4.88,4.67-8.75,10.49-8.74C63,31.33,65.45,34,65.44,39.21ZM58,32.53c-4.84,0-8.91,3.48-8.92,7.61,0,2.79,3.92,6.69,6.74,6.71,4,0,8.24-4.1,8.22-7.94S61.64,32.52,58,32.53Z"/><path d="M103.72,219.36c-.16-4.68,3.64-9.07,8-9.21,3.77-.13,6.66,3.09,6.77,7.55a8.49,8.49,0,0,1-8.58,9C106.48,226.76,103.86,223.65,103.72,219.36Zm1.63-.1c0,2.55,2.41,5.39,4.61,5.44a6.51,6.51,0,0,0,6.65-6.72c0-3.35-2.15-5.88-5.05-5.87C108.4,212.11,105.35,215.62,105.35,219.26Z"/></svg>
