<?xml version="1.0" encoding="utf-8"?>
<!-- Generator: Adobe Illustrator 18.1.1, SVG Export Plug-In . SVG Version: 6.00 Build 0)  -->
<svg version="1.1" id="Ebene_1" xmlns="http://www.w3.org/2000/svg" xmlns:xlink="http://www.w3.org/1999/xlink" x="0px" y="0px"
	 width="180px" height="30px" viewBox="0 0 180 30" style="enable-background:new 0 0 180 30;" xml:space="preserve">
<g>
	<path style="fill:#FF5366;" d="M17.3,24.3c-1,2.1-3.8,3.3-6.7,3.3c-7,0-9.9-4.9-9.9-11.7c0-7.5,3.9-12.5,11.3-12.5
		c5.1,0,8.8,2.3,9.2,8.2L16.7,12c-0.3-2.5-1.3-4.5-4.7-4.5c-4.1,0-6.1,2.9-6.1,7.9c0,5.5,1.8,8.1,5.9,8.1c3.1,0,4.8-1.8,4.8-4.1
		v-0.8h-4.3V15h9.2v12.2h-3.6L17.3,24.3z"/>
	<path style="fill:#FF5366;" d="M27.7,8.2c-1.9,0-2.9-1.1-2.9-3c0-1.9,1.1-2.9,2.9-2.9c1.8,0,2.9,1.1,2.9,2.9
		C30.7,7.1,29.6,8.2,27.7,8.2z M30.2,27.2h-4.9V10.4h4.9V27.2z"/>
	<path style="fill:#FF5366;" d="M37.8,27.2l-5.9-16.8h5.3l3.6,12.1h0.1l3.6-12.1h5l-5.9,16.8H37.8z"/>
	<path style="fill:#FF5366;" d="M50.4,18.9c0-6.1,3.7-8.8,8.2-8.8c5.1,0,7.2,3.1,7.2,7.8c0,0.5,0,1.6-0.1,2.2H55.5
		c0.1,2.8,1.3,3.8,3.4,3.8c1.7,0,2.4-1,2.7-2.4l4.1,1c-0.6,3.1-3.1,5.2-7.1,5.2C52.4,27.6,50.4,23.4,50.4,18.9z M60.8,16.9
		c0-2.4-0.9-3.4-2.5-3.4c-1.4,0-2.7,0.9-2.8,3.4H60.8z"/>
	<path style="fill:#FF5366;" d="M84.8,15.1l-0.5,0.2c1.3,1.7,2.6,3.4,4.3,5.2c0.7-1.4,0.9-3.1,0.9-4.8h4.3c0.1,2.4-0.5,4.9-2.1,7.2
		c0.7,0.5,1.5,0.7,2.3,0.7c0.4,0,0.8-0.1,1.2-0.2l0.5,3.7c-0.9,0.3-1.8,0.5-2.7,0.5c-1.8,0-3.4-0.6-4.9-1.5c-1.3,1-3.5,1.6-6.3,1.6
		c-5.4,0-8.2-2.9-8.2-6.6c0-3.1,1.5-5.1,4.7-6.5c-0.8-1.4-1.1-2.5-1.1-3.9c0-3.7,3-6,7-6c2.9,0,5.7,1.2,5.7,4.6
		C90,11.1,89.1,13.3,84.8,15.1z M85.1,23.5c-1.9-1.8-3.4-3.7-5.1-6.1c-0.7,0.6-1.4,1.5-1.4,3c0,2,1.4,3.6,4,3.6
		C83.6,24,84.4,23.9,85.1,23.5z M82.9,12.7c1.3-0.6,3-1.4,3-3.2c0-1-0.6-1.7-1.8-1.7c-1.1,0-2,0.7-2,2
		C82.1,10.7,82.4,11.6,82.9,12.7z"/>
	<path style="fill:#FF5366;" d="M118,27.2l-9-16.5v16.5h-4.5V3.9h5.9l8.8,16.5V3.9h4.5v23.4H118z"/>
	<path style="fill:#FF5366;" d="M127.2,18.9c0-6.1,3.7-8.8,8.2-8.8c5.1,0,7.2,3.1,7.2,7.8c0,0.5,0,1.6-0.1,2.2h-10.2
		c0.1,2.8,1.3,3.8,3.4,3.8c1.7,0,2.4-1,2.7-2.4l4.1,1c-0.6,3.1-3.1,5.2-7.1,5.2C129.2,27.6,127.2,23.4,127.2,18.9z M137.7,16.9
		c0-2.4-0.9-3.4-2.5-3.4c-1.4,0-2.7,0.9-2.8,3.4H137.7z"/>
	<path style="fill:#FF5366;" d="M144.9,18.9c0-6.1,3.7-8.8,8.2-8.8c5.1,0,7.2,3.1,7.2,7.8c0,0.5,0,1.6-0.1,2.2H150
		c0.1,2.8,1.3,3.8,3.4,3.8c1.7,0,2.4-1,2.7-2.4l4.1,1c-0.6,3.1-3.1,5.2-7.1,5.2C146.9,27.6,144.9,23.4,144.9,18.9z M155.3,16.9
		c0-2.4-0.9-3.4-2.5-3.4c-1.4,0-2.7,0.9-2.8,3.4H155.3z"/>
	<path style="fill:#FF5366;" d="M178.6,27.2h-4.1l-0.3-1.6l-0.1,0c-1.2,1.3-2.7,2.1-5,2.1c-3.9,0-6.6-2.4-6.6-8.5
		c0-6.7,3.6-9.1,7.1-9.1c1.9,0,3.2,0.4,4.3,1.4V2.9h4.7V27.2z M173.8,14.9c-0.6-0.5-1.6-0.9-2.7-0.9c-2.5,0-3.4,2.2-3.4,5.1
		c0,3,0.9,4.8,3.2,4.8c1,0,2.1-0.5,2.9-1.2V14.9z"/>
</g>
</svg>
