<?xml version="1.0" encoding="utf-8"?>
<!-- Generator: Adobe Illustrator 18.1.1, SVG Export Plug-In . SVG Version: 6.00 Build 0)  -->
<svg version="1.1" id="Ebene_1" xmlns="http://www.w3.org/2000/svg" xmlns:xlink="http://www.w3.org/1999/xlink" x="0px" y="0px"
	 width="250px" height="250px" viewBox="-18 -60 250 250" style="enable-background:new -18 -60 250 250;" xml:space="preserve">
<g>
	<path d="M146.3,95.4c3.2,21.3,3,41.4,2,61.5c-0.2,4.5,0,9,0.1,13.5c0.2,6.9-1.8,9.7-8.3,12.1c-8.3,3.1-16.8,1.9-25.2,1.4
		c-9.1-0.5-18.2-2.3-27,2.1c-1.4,0.7-2.9,0.4-4.3-0.5c-1.2-0.8-2.6-1.8-4-1.9c-9.8-0.7-11.2-7.7-11.8-15.4
		c-1.2-16.2-2.9-32.5-3.5-48.7c-0.3-6.7,0-13.6,0.4-20.4c0.3-4.1-1-5.7-5.2-5.8c-13.3-0.2-12.6-0.3-12.9-13.7
		c-0.4-19.4,0.5-38.8,0.3-58.3c-0.2-14.1,1-28.2,5.2-41.9c3.3-11.1,17.6-21.9,28.3-22.9c4.1-0.4,6.6-3.6,9.2-6.2
		c7.5-7.6,19.8-10.4,29.7-6.1c5.5,2.4,11.1,4.8,15.7,8.4c3,2.3,5.5,5.2,9.2,6.4c0.6,0.2,1.2,0.5,1.9,0.7
		c12.2,2.5,18.2,9.2,20.2,24.6c2.6,19.7,1.4,39.6,2.4,59.3c0.8,16.2-2.2,32.1-2.3,48.2c0,2.5-1.4,3.5-3.6,4
		C157.6,96.9,152.4,98.1,146.3,95.4z M86.2,157.8c0,7.3,0,14.7,0,22c0,1.5-0.4,4.1,2.4,2.9c10.2-4.4,20.6-1.8,31-1.2
		c6.3,0.3,12.7,1,18.8-1.1c3.1-1.1,7-2.3,6.6-6.4c-1.2-14,0.1-27.9,0.2-41.9c0.2-18-2.5-35.8-3.3-53.7c-0.5-12.1-1.9-24.4,0.3-36.3
		c2.4-13.3,3.8-26.6,5.4-39.9c0.2-1.5,0-3.7,1.8-3.6c2.4,0.1,1.7,2.4,1.4,4c-1.8,11.5-2,23.1-4.4,34.6c-3.7,17.3-0.9,34.8-0.2,52.2
		c0.1,2.5,1.5,3.6,3.6,4.1c3.3,0.8,6.6,0.5,9.9,0.1c2.1-0.3,3-1.8,3.1-3.9c1-13.9,3.3-27.8,2.7-41.8c-0.2-5.2-0.7-10.3-0.7-15.4
		c-0.1-14.6-0.2-29.3-1.3-43.9c-1-13.5-5.4-24.4-20.6-27.1c-0.3-0.1-0.6-0.3-0.9-0.4c-2-1.1-2.6-0.2-2.7,1.8
		c-0.2,7.6-2.9,14.6-5.1,21.7c-4.9,15.8-13.9,28.9-26.9,38.7c-11.7,8.7-15.1,20.8-17,34C88.8,67,89.5,77,89.3,87
		C88.8,110.6,86.2,134.2,86.2,157.8z M63-2.5c2.5,1,3,2.5,3.3,4.1c1,6.7,2.4,13.4,2.9,20.2c1.8,24.8,1.2,49.5-0.5,74.3
		c-1.8,25.9,1,51.5,3.7,77.1c0.5,4.7,3.6,6.4,7.6,7.3c1.5,0.3,2.6,0.2,2.7-1.8c0.2-4.8,0.9-9.6,0.5-14.4
		c-1.2-17.8,1.1-35.5,1.8-53.2c0.4-12,1.2-23.9,1.1-35.9C86,63.5,87.7,52.2,91,40.9c1.6-5.4,5.1-10.1,4.2-16.5
		c-1.1-8.3-4.4-15.6-8.1-22.9C80.8-10.9,75.5-23.6,79-38c0.7-2.8-0.9-3.1-2.7-2.1c-8.1,4.4-17,8-20.4,17.9
		c-3.2,9.3-5.5,18.9-5.5,28.8c0.1,24.1-0.8,48.2-0.4,72.4c0.2,11.9-0.3,11.8,11.7,11.9c2.7,0,3.9-1,3.8-3.2c-0.3-8,2-16,1.6-23.8
		c-0.9-16.9,0.7-33.9-2.2-50.7C64,7.9,63.6,2.7,63-2.5z M108.3,2.2c1.8-3.3,2.9-5.7,4.3-8c5-8.3,9.8-16.8,11.5-26.4
		c2.9-16.6-1.5-24-18.2-22.6c-5.2,0.4-8.6,3-10.5,7.9c-3.3,8.9-2.6,17.4,1.5,26C100.4-13.3,106.7-7.4,108.3,2.2z M91.6-46.2
		c-9.7,5-11.4,10.4-10,22.8c1.9,16.4,13.2,29,17,44.9C107,8.8,107.3,0.8,99-11.3c-2.4-3.4-4.2-7.1-6.1-10.9
		C89.2-29.8,89-37.8,91.6-46.2z M125.7-49.2c3.8,8.8,1.8,16.4-1.1,24.3c-4,10.7-10.6,20-15,30.4c-2.5,5.8-5.5,11.4-8.6,17.7
		c2.9-0.5,4.2-1.8,5.6-2.9C124,6,132-13.4,135.8-34.9C137.2-43,134.7-46.4,125.7-49.2z"/>
</g>
</svg>
