<?xml version="1.0" standalone="no"?>
<!DOCTYPE svg PUBLIC "-//W3C//DTD SVG 20010904//EN"
 "http://www.w3.org/TR/2001/REC-SVG-20010904/DTD/svg10.dtd">
<svg version="1.0" xmlns="http://www.w3.org/2000/svg"
 width="500.000000pt" height="500.000000pt" viewBox="0 0 500.000000 500.000000"
 preserveAspectRatio="xMidYMid meet">
<metadata>
Created by potrace 1.12, written by Peter Selinger 2001-2015
</metadata>
<g transform="translate(0.000000,500.000000) scale(0.100000,-0.100000)"
fill="#000000" stroke="none">
<path d="M2320 4930 c0 -5 -13 -10 -30 -10 -16 0 -30 -4 -30 -10 0 -5 -9 -10
-19 -10 -11 0 -21 -6 -24 -12 -3 -10 -7 -10 -19 0 -12 10 -20 8 -44 -10 -43
-34 -74 -66 -74 -77 0 -5 -8 -16 -18 -23 -33 -23 -114 -92 -139 -118 -20 -20
-27 -22 -43 -12 -24 14 -100 16 -100 2 0 -5 -9 -10 -20 -10 -11 0 -20 -4 -20
-10 0 -5 -9 -10 -20 -10 -11 0 -20 -4 -20 -8 0 -5 -12 -15 -27 -23 -16 -8 -30
-16 -33 -19 -3 -3 -26 -16 -52 -29 -27 -13 -48 -28 -48 -33 0 -4 -6 -8 -14 -8
-22 0 -112 -94 -132 -137 -10 -21 -20 -40 -23 -43 -12 -11 -31 -50 -31 -65 0
-8 -4 -15 -10 -15 -5 0 -10 -11 -10 -24 0 -14 -4 -28 -10 -31 -5 -3 -10 -24
-10 -46 0 -21 -4 -39 -10 -39 -5 0 -10 -11 -10 -24 0 -14 -4 -28 -10 -31 -5
-3 -10 -30 -10 -60 0 -30 -4 -56 -9 -59 -23 -14 -30 -183 -31 -671 0 -275 -3
-404 -12 -438 -10 -41 -10 -50 2 -57 13 -8 13 -13 2 -30 -7 -11 -10 -26 -6
-31 11 -18 14 -128 4 -134 -13 -8 -13 -51 0 -75 7 -13 7 -21 0 -25 -13 -8 -13
-82 0 -90 6 -4 10 -16 9 -28 -5 -62 2 -257 10 -253 12 8 14 272 2 294 -7 13
-7 31 -1 53 7 23 7 35 0 37 -13 5 -13 49 -1 56 8 5 14 285 14 661 0 63 4 103
11 107 8 5 8 13 -1 28 -16 24 -18 226 -3 235 6 4 10 62 10 141 0 83 4 134 10
134 6 0 10 28 10 63 0 35 4 67 9 72 5 6 11 28 14 50 7 53 17 95 27 120 5 11
14 41 21 68 8 26 17 47 21 47 4 0 8 9 8 20 0 11 3 20 8 20 4 0 15 17 24 39 20
45 110 141 132 141 9 0 16 5 16 10 0 6 9 10 20 10 11 0 20 4 20 8 0 5 12 15
28 23 15 8 36 22 46 32 11 9 26 17 33 17 7 0 13 5 13 10 0 6 9 10 20 10 11 0
20 5 20 10 0 6 11 10 24 10 14 0 28 5 31 10 3 6 19 10 36 10 30 0 37 -15 20
-48 -19 -38 -30 -90 -32 -152 -3 -113 3 -220 12 -226 5 -3 9 -25 9 -50 0 -24
5 -44 10 -44 6 0 10 -18 10 -40 0 -22 3 -40 8 -40 8 0 32 -49 32 -67 0 -7 5
-13 10 -13 6 0 10 -13 10 -30 0 -16 5 -30 10 -30 6 0 10 -9 10 -20 0 -11 5
-20 10 -20 6 0 10 -9 10 -20 0 -11 5 -20 10 -20 6 0 10 -9 10 -20 0 -11 5 -20
10 -20 6 0 10 -9 10 -20 0 -11 5 -20 10 -20 6 0 10 -9 10 -20 0 -11 5 -20 10
-20 6 0 10 -9 10 -19 0 -11 3 -21 8 -23 7 -3 44 -77 64 -128 6 -14 14 -33 19
-42 5 -10 9 -36 9 -57 0 -22 5 -43 10 -46 6 -3 10 -25 10 -49 0 -40 18 -96 31
-96 3 0 11 12 18 26 10 23 9 26 -9 31 -17 5 -20 14 -20 66 0 33 -4 74 -9 91
-5 17 -15 51 -22 76 -7 25 -16 47 -19 50 -3 3 -23 39 -43 80 -46 92 -70 134
-79 138 -5 2 -8 12 -8 21 0 10 -14 47 -31 82 -17 35 -40 81 -50 102 -11 22
-19 52 -19 68 0 16 -4 29 -10 29 -5 0 -10 18 -10 39 0 22 -4 43 -10 46 -5 3
-10 44 -10 91 0 46 -4 84 -9 84 -9 0 -8 39 5 153 4 26 10 47 15 47 5 0 9 7 9
16 0 16 102 124 118 124 10 0 82 65 82 74 0 3 8 15 17 26 18 21 43 27 43 10 0
-5 -3 -10 -7 -10 -9 0 -33 -49 -33 -67 0 -7 -4 -13 -10 -13 -5 0 -10 -15 -10
-33 0 -18 -5 -38 -11 -44 -6 -6 -9 -56 -6 -139 5 -139 14 -204 28 -204 5 0 9
-6 9 -13 0 -18 24 -67 33 -67 4 0 7 -9 7 -20 0 -11 5 -20 10 -20 6 0 10 -7 10
-15 0 -15 30 -73 61 -117 11 -14 19 -31 19 -37 0 -6 5 -11 10 -11 6 0 10 -7
10 -15 0 -8 5 -15 10 -15 6 0 10 -7 10 -15 0 -8 3 -15 8 -15 12 0 50 -83 57
-125 3 -22 9 -64 12 -94 3 -30 12 -61 20 -69 19 -19 30 -6 15 18 -16 27 -15
30 8 30 11 0 20 4 20 8 0 4 -9 14 -20 22 -11 8 -20 26 -20 39 0 37 -23 131
-32 131 -5 0 -8 6 -8 13 0 6 -11 25 -25 41 -13 16 -27 37 -30 47 -4 11 -11 19
-16 19 -5 0 -9 6 -9 13 0 7 -9 23 -20 35 -11 12 -20 28 -20 37 0 8 -4 15 -10
15 -5 0 -10 6 -10 13 0 18 -24 67 -32 67 -5 0 -8 9 -8 20 0 11 -4 20 -10 20
-5 0 -10 7 -10 15 0 8 -9 30 -19 48 -11 19 -22 61 -25 93 -3 32 -8 86 -12 118
-5 51 -1 74 27 160 19 56 37 103 41 104 5 2 8 9 8 15 0 39 93 96 188 116 67
14 179 14 187 1 3 -5 15 -10 26 -10 10 0 19 -4 19 -10 0 -5 9 -10 20 -10 11 0
20 -4 20 -10 0 -5 7 -10 16 -10 21 0 84 -63 84 -84 0 -9 5 -16 10 -16 6 0 10
9 10 20 0 15 7 20 24 20 14 0 28 -4 31 -10 3 -5 17 -10 31 -10 13 0 24 -4 24
-10 0 -5 7 -10 15 -10 8 0 15 -3 15 -8 0 -4 14 -13 30 -20 20 -9 30 -21 30
-36 0 -12 9 -32 20 -44 17 -18 20 -35 20 -107 0 -47 -4 -85 -9 -85 -5 0 -12
-28 -14 -62 -8 -88 -18 -138 -28 -138 -5 0 -9 -9 -9 -20 0 -11 -4 -20 -10 -20
-5 0 -10 -14 -10 -30 0 -17 -4 -39 -10 -50 -5 -11 -14 -29 -20 -40 -5 -11 -10
-29 -10 -40 0 -11 -4 -20 -10 -20 -5 0 -10 -7 -10 -16 0 -14 -10 -36 -53 -119
-6 -11 -24 -47 -41 -80 -17 -33 -34 -61 -38 -63 -4 -2 -8 -12 -8 -23 0 -10 -4
-19 -8 -19 -5 0 -15 -12 -23 -27 -8 -15 -27 -41 -43 -58 -15 -16 -40 -45 -53
-62 -14 -18 -29 -33 -34 -33 -5 0 -48 -39 -96 -88 -49 -48 -104 -98 -123 -112
-38 -26 -80 -70 -80 -83 0 -15 -29 -38 -50 -40 -11 -1 -23 -9 -26 -19 -3 -10
-10 -18 -15 -18 -5 0 -9 -11 -9 -25 0 -14 -4 -25 -10 -25 -5 0 -10 -11 -10
-24 0 -13 -5 -26 -11 -28 -6 -2 -9 -17 -7 -33 4 -26 5 -27 12 -10 4 11 12 28
17 37 5 10 9 24 9 31 0 7 27 38 60 68 32 30 59 59 60 65 0 14 65 84 78 84 6 0
57 45 112 99 56 55 121 115 145 133 24 18 50 44 57 58 7 14 21 34 31 44 9 11
17 26 17 33 0 7 5 13 10 13 6 0 10 6 10 13 0 7 9 23 20 35 11 12 20 28 20 37
0 8 3 15 8 15 8 0 32 49 32 67 0 7 5 13 10 13 6 0 10 9 10 20 0 11 9 34 20 52
11 18 20 43 20 55 0 12 5 25 10 28 6 3 10 15 10 26 0 10 5 19 10 19 6 0 10 13
10 28 0 15 4 32 9 38 12 12 51 126 51 147 0 9 5 17 10 17 6 0 10 19 10 43 0
23 7 74 16 112 18 82 23 135 12 135 -4 0 -8 5 -8 10 0 6 14 10 30 10 17 0 30
-4 30 -10 0 -5 9 -10 20 -10 11 0 20 -4 20 -10 0 -5 9 -10 19 -10 11 0 23 -4
26 -10 3 -5 22 -10 41 -10 19 0 34 -4 34 -10 0 -5 11 -10 24 -10 14 0 28 -4
31 -10 3 -5 13 -10 21 -10 17 0 111 -92 132 -128 6 -12 12 -29 12 -37 0 -8 5
-15 10 -15 6 0 10 -9 10 -19 0 -11 5 -23 10 -26 6 -3 10 -17 10 -31 0 -13 4
-24 9 -24 9 0 15 -28 30 -155 22 -170 27 -291 36 -915 3 -168 10 -325 16 -349
6 -26 6 -48 1 -53 -5 -5 -5 -30 -1 -56 4 -27 3 -55 -3 -66 -11 -20 10 -42 25
-27 9 9 3 459 -8 514 -5 24 -3 42 5 51 8 11 8 20 1 35 -14 25 -14 104 -1 117
6 6 6 22 0 44 -5 19 -11 145 -14 280 -2 135 -6 261 -9 280 -3 19 -6 75 -8 123
-1 48 -6 90 -11 93 -4 3 -8 23 -8 45 0 21 -4 39 -10 39 -5 0 -10 6 -10 13 0 7
-9 32 -20 55 -11 22 -20 48 -20 57 0 8 -4 15 -10 15 -5 0 -10 6 -10 14 0 21
-99 121 -143 145 -21 12 -46 21 -57 21 -11 0 -20 5 -20 10 0 6 -18 10 -40 10
-22 0 -40 5 -40 10 0 6 -7 10 -15 10 -8 0 -24 5 -35 10 -11 6 -29 15 -40 20
-11 6 -27 10 -35 10 -8 0 -15 5 -15 10 0 6 -7 10 -15 10 -9 0 -19 8 -22 18
-10 26 -88 102 -106 102 -9 0 -18 4 -21 9 -3 4 -20 11 -37 15 -41 8 -139 56
-139 67 0 5 -7 9 -15 9 -9 0 -25 9 -37 20 -12 11 -32 20 -44 20 -13 0 -26 5
-29 10 -4 6 -58 10 -131 10 -76 0 -124 -4 -124 -10z"/>
<path d="M2763 4706 c2 -18 10 -42 16 -52 11 -16 12 -14 7 15 -3 18 -6 42 -6
52 0 11 -5 19 -11 19 -6 0 -9 -13 -6 -34z"/>
<path d="M1520 3831 c0 -6 4 -12 9 -15 10 -6 18 -53 27 -156 3 -36 10 -69 15
-75 5 -5 9 -40 9 -78 0 -37 4 -76 10 -86 5 -11 10 -136 11 -285 1 -147 5 -269
9 -271 12 -7 11 -473 0 -480 -6 -4 -10 -37 -10 -75 0 -38 -4 -72 -10 -75 -14
-8 -13 -52 1 -57 9 -3 9 -9 1 -24 -6 -11 -8 -36 -5 -55 3 -19 5 -41 4 -49 -1
-8 -5 -58 -7 -110 -3 -52 -10 -100 -16 -107 -5 -7 -7 -22 -3 -34 12 -35 14
-313 3 -326 -6 -7 -7 -35 -3 -65 3 -29 8 -93 11 -141 4 -58 9 -87 17 -84 8 2
10 83 9 277 -1 150 2 301 8 334 5 34 10 155 10 271 1 115 5 214 10 220 19 23
38 496 21 530 -6 11 -13 128 -16 265 -5 279 -13 400 -25 400 -5 0 -11 37 -14
83 -9 134 -17 201 -27 212 -5 5 -9 22 -9 37 0 21 -5 28 -20 28 -11 0 -20 -4
-20 -9z"/>
<path d="M3236 3789 c-3 -17 -3 -36 0 -41 4 -5 2 -20 -4 -31 -16 -36 -32 -186
-32 -309 0 -67 -4 -119 -10 -123 -5 -3 -10 -26 -10 -51 0 -24 -4 -52 -9 -62
-18 -35 -31 -90 -31 -128 0 -22 -4 -44 -10 -50 -5 -5 -11 -60 -12 -122 -2 -61
-6 -112 -10 -112 -5 0 -8 -36 -8 -80 0 -44 4 -80 9 -80 5 0 9 -82 10 -182 0
-101 5 -199 11 -218 5 -19 10 -103 10 -187 0 -83 4 -153 9 -155 5 -1 11 -52
14 -113 2 -60 7 -117 10 -125 4 -8 9 -78 12 -155 2 -77 5 -153 6 -170 1 -16 1
-59 -1 -95 -1 -36 0 -112 3 -169 3 -58 2 -110 -3 -116 -5 -6 -11 -71 -13 -145
-6 -155 -5 -139 -2 -250 9 -280 10 -260 -11 -260 -9 0 -29 -13 -44 -30 -15
-16 -35 -30 -44 -30 -9 0 -16 -4 -16 -8 0 -12 -70 -32 -108 -32 -17 0 -32 -5
-34 -11 -3 -9 -9 -9 -25 0 -14 7 -85 11 -200 11 -111 0 -183 4 -189 10 -7 7
-70 9 -180 7 -174 -5 -244 -13 -244 -28 0 -5 -9 -9 -20 -9 -11 0 -20 -4 -20
-10 0 -5 -9 -10 -19 -10 -11 0 -23 -5 -26 -10 -3 -5 -13 -10 -21 -10 -14 0
-15 15 -9 113 6 99 7 239 5 645 -1 174 9 393 21 428 5 17 10 97 10 177 1 81 4
149 9 152 4 3 8 114 9 247 1 133 6 247 11 253 12 14 12 213 0 220 -13 8 -13
128 -1 141 6 5 12 59 14 119 5 111 13 171 27 190 4 6 10 30 14 53 5 33 3 43
-6 40 -14 -5 -27 -49 -35 -115 -3 -24 -9 -43 -13 -43 -11 0 -18 -130 -30 -535
-9 -316 -21 -635 -35 -925 -4 -74 -11 -140 -16 -146 -5 -6 -9 -222 -9 -481 -1
-394 -3 -473 -15 -483 -11 -9 -19 -7 -36 9 -13 12 -35 21 -50 21 -32 0 -79 19
-79 32 0 4 -8 8 -18 8 -28 0 -42 21 -42 61 0 21 -4 41 -10 44 -5 3 -10 28 -10
54 0 26 -5 52 -12 59 -8 8 -8 15 2 26 8 10 10 26 5 43 -7 27 -20 139 -31 271
-3 34 -9 62 -13 62 -4 0 -8 64 -10 141 -2 130 -11 179 -33 179 -11 0 -6 -204
6 -218 7 -9 6 -16 -2 -21 -7 -4 -8 -12 -2 -21 6 -8 10 -30 10 -47 0 -18 4 -33
9 -33 5 0 8 -34 8 -76 0 -42 4 -79 9 -82 5 -4 10 -76 11 -161 2 -90 7 -159 13
-165 5 -5 10 -22 10 -37 0 -15 5 -31 11 -34 6 -4 8 -13 5 -21 -8 -21 4 -44 23
-44 9 0 31 -9 49 -20 18 -11 46 -20 62 -20 17 0 30 -4 30 -10 0 -5 9 -10 19
-10 11 0 22 -4 26 -10 3 -5 11 -7 18 -4 7 2 24 -7 39 -21 33 -30 47 -31 93 -5
20 11 42 20 50 20 8 0 15 5 15 10 0 6 19 10 43 10 24 0 48 5 54 11 8 8 38 9
90 5 43 -3 143 -8 223 -11 80 -3 165 -10 190 -14 58 -12 220 -12 220 0 0 5 23
9 50 9 28 0 50 5 50 10 0 6 14 10 30 10 17 0 30 5 30 10 0 6 6 10 14 10 7 0
39 25 71 56 58 55 58 55 47 92 -14 45 -21 151 -12 157 4 3 6 17 4 32 -9 83 -5
391 6 398 13 8 12 479 -1 572 -6 41 -12 106 -14 146 -2 40 -7 116 -10 170 l-7
97 24 0 c13 0 29 -5 35 -11 13 -13 209 -7 268 8 74 19 70 9 73 170 1 81 7 152
11 156 5 5 5 21 1 37 -4 15 -4 34 1 41 5 8 9 58 9 111 0 54 4 100 10 103 6 3
10 24 10 46 0 31 -4 39 -19 39 -16 0 -19 -11 -25 -87 -11 -145 -26 -351 -32
-464 -6 -102 -7 -105 -33 -116 -65 -27 -216 -42 -234 -24 -6 6 -21 11 -34 11
-13 0 -23 5 -23 10 0 6 -9 10 -19 10 -11 0 -23 6 -28 13 -22 34 -42 916 -23
1002 6 28 13 66 14 85 2 19 5 42 8 50 21 61 28 91 28 118 0 17 4 33 8 36 9 5
17 91 29 301 3 61 10 112 14 113 12 5 12 162 0 162 -5 0 -11 -14 -15 -31z"/>
<path d="M2460 3780 c0 -11 5 -20 10 -20 6 0 10 9 10 20 0 11 -4 20 -10 20 -5
0 -10 -9 -10 -20z"/>
<path d="M2386 3621 c-4 -7 -5 -15 -2 -18 9 -9 19 4 14 18 -4 11 -6 11 -12 0z"/>
<path d="M2360 3586 c0 -8 -3 -23 -7 -33 -6 -17 -6 -17 10 -1 19 19 22 34 7
43 -5 3 -10 0 -10 -9z"/>
<path d="M2320 3500 c0 -11 5 -20 10 -20 6 0 10 9 10 20 0 11 -4 20 -10 20 -5
0 -10 -9 -10 -20z"/>
<path d="M2300 3450 c0 -5 5 -10 10 -10 6 0 10 5 10 10 0 6 -4 10 -10 10 -5 0
-10 -4 -10 -10z"/>
<path d="M2280 3415 c0 -8 -4 -15 -10 -15 -5 0 -10 -9 -10 -20 0 -11 5 -20 10
-20 6 0 10 9 10 20 0 11 5 20 10 20 6 0 10 7 10 15 0 8 -4 15 -10 15 -5 0 -10
-7 -10 -15z"/>
<path d="M2240 3335 c0 -8 5 -15 10 -15 6 0 10 7 10 15 0 8 -4 15 -10 15 -5 0
-10 -7 -10 -15z"/>
<path d="M2106 2978 c-5 -21 -12 -38 -17 -38 -5 0 -9 -9 -9 -20 0 -11 5 -20
10 -20 6 0 10 9 10 19 0 11 5 21 11 23 6 2 9 19 7 38 l-4 35 -8 -37z"/>
<path d="M2172 2865 c-41 -44 -43 -92 -7 -123 14 -12 38 -22 54 -22 28 0 61
26 61 48 0 7 5 12 10 12 21 0 10 70 -15 95 -34 35 -66 32 -103 -10z m108 -41
c0 -24 -42 -64 -68 -64 -64 0 -69 73 -7 107 15 9 25 7 47 -9 15 -10 28 -26 28
-34z"/>
<path d="M1220 2023 c0 -17 -4 -35 -10 -38 -23 -14 -6 -22 68 -33 66 -10 103
-11 170 -3 7 0 10 6 7 11 -4 6 -10 8 -15 5 -5 -3 -19 -1 -31 5 -12 7 -25 8
-30 3 -5 -5 -36 -5 -74 1 -56 8 -65 12 -65 30 0 12 -5 28 -10 36 -7 11 -10 7
-10 -17z"/>
<path d="M1480 1956 c0 -10 9 -16 25 -16 14 0 25 5 25 10 0 6 -4 10 -9 10 -5
0 -16 3 -25 6 -11 4 -16 1 -16 -10z"/>
</g>
</svg>
