<?xml version="1.0" encoding="utf-8"?>
<!-- Generator: Adobe Illustrator 18.1.1, SVG Export Plug-In . SVG Version: 6.00 Build 0)  -->
<svg version="1.1" id="Ebene_1" xmlns="http://www.w3.org/2000/svg" xmlns:xlink="http://www.w3.org/1999/xlink" x="0px" y="0px"
	 width="250px" height="250px" viewBox="0 0 250 250" style="enable-background:new 0 0 250 250;" xml:space="preserve">
<g>
	<path d="M193.9,4.5c-7.2,3-13.5,6.6-19.5,10.8c-6.7,4.7-15,6-22.3,9.6c-7,3.4-14.4,6.3-21.4,9.8c-1.9,0.9-2.7,2.4-2.6,4.6
		c0.4,4.6,0.7,9.2,1.1,14.7c7.9-3.6,15.3-6.9,22.5-10.4c4.7-2.3,9.1-5.1,13.7-7.7c1.3-0.7,2.6-1.1,3.8,0c1.2,1.2,0,2.1-0.4,3.2
		c-5.9,15.4-15.1,29.1-22.5,43.7c-5.1,10-10.5,19.9-17.5,28.9c-0.8,1-1.1,3-2.9,1.9c-1.9-1.1-0.9-2.7,0-4
		c7.1-9.6,12.8-20.1,18.3-30.7c6-11.6,12.1-23.1,18.2-34.6c0.4-0.7,0.9-1.5-0.2-2.8c-9.3,6.2-19.8,10-29.7,15.2
		c-5,2.7-5.9,2.3-6.6-3.5c-0.6-4.2-0.7-8.5-1.6-12.6c-1.1-5.2,2-7.8,5.8-9.3c12.5-5.2,24.6-11.5,37.3-16.3
		c8.5-3.2,15.9-9.6,24.2-13.9c3.9-2,5.6-1.4,6,3.1c1,15,4,29.8,9.1,43.9c4.3,11.7,6.2,23.6,8.7,35.6c0.5,2.4-0.3,4-2.9,4.5
		c-2.7,0.6-5.3,1.4-7.9,2.1c-6.6,1.7-7.7,1.2-8.9-5.7c-1.4-8.1-2.3-16.2-3.6-24.3c-0.9-5.6-2.9-10.8-5.5-16.7c-2.5,4-5,7.1-6.6,10.7
		c-5.8,13.4-14.7,25-20.8,38.2c-3.8,8.2-7.8,16.2-11.9,24.2c-1.4,2.7-1,4.4,1.4,6.5c16.4,14.2,26,32.5,27.8,53.7
		c2.4,27.7-9.2,49-34.4,62.4c-18.2,9.6-37.3,13.9-57.4,8.4c-8.1-2.2-15.3-7.5-22.1-12.8c-9-6.9-16-15.7-21-25.4
		c-5.6-11-8.1-23-6.2-36c1.6-11.3,3.8-22.2,9.4-32c6.1-10.7,12.6-21.2,22.9-28.6c9.7-6.9,20.8-8.4,32.2-8c6.5,0.2,12.7,2.5,19,4.1
		c0.7,0.2,1.2,0.6,1.9,0.8c1.1,0.4,2.7,1,2.2,2.3c-0.6,1.6-2.2,0.9-3.5,0.4c-5.6-2.1-11.3-3.8-17.3-4.3
		c-17.9-1.5-32.7,3.8-43.2,18.7c-7.3,10.4-14.7,20.7-18,33.6c-6.5,25.4-1,47,17.2,65.6c9.3,9.5,20.1,17,33.2,19.5
		c21.3,4.1,40.6-2.1,58.1-14.2c16.5-11.4,23.7-27.8,23.3-47.6c-0.5-23.6-9.8-43.4-27.5-59c-3.7-3.3-4.2-5.4-1.8-9.8
		c10.6-19.5,20.4-39.4,31.7-58.5c3.3-5.6,7.6-11,9.1-17.6c0.7-3.1,2.4-2.8,4.4-1c1.3,1.2,1.4,3,2.1,4.6c5.6,13,7.1,26.9,9.3,40.7
		c0.3,1.6-0.5,5.6,3.1,3.8c2.6-1.4,8.7,2.5,7.6-5.9c-2.6-20.1-11.2-38.5-14.6-58.3C194.8,16.9,194.6,10.9,193.9,4.5z"/>
	<path d="M52.6,170.6c1.4-10.7,5.4-20.1,11.6-29.3c7.1-10.7,16.7-17.4,27.7-22.2c10-4.4,19.8-2.3,29.1,3.4
		c9.4,5.8,18.3,12.2,25.8,20.6c10.4,11.6,12.7,25.1,11,40c-1.1,10.3-4.5,19.4-12.9,25.6c-10.1,7.6-21,15-33.5,16.3
		c-12.7,1.2-26.6,2.7-36.5-9.3c-11.7-3.5-13.9-15.1-18-23.8C54.2,185.9,51.7,178.2,52.6,170.6z M153.9,176.7
		c0.4-13.5-3.6-25.9-14.9-35.4c-6-5.1-11.9-10.4-18.5-14.8c-6-4.1-12.8-6.8-20.2-5.6c-13.9,2.3-24.6,10-33,21.2
		c-5.4,7.3-9.7,15-11.3,24.2c-1.3,7.7,1.9,14.5,3.7,21.5c3,11.7,10.2,20.6,19.7,28c6.3,4.9,13.3,5.1,20.6,6.1
		c17.3,2.4,30.2-6.5,42.7-15.8C151.9,199.1,154.1,188.5,153.9,176.7z"/>
</g>
</svg>
