<?xml version="1.0" encoding="utf-8"?>
<!-- Generator: Adobe Illustrator 18.1.1, SVG Export Plug-In . SVG Version: 6.00 Build 0)  -->
<svg version="1.1" id="Ebene_1" xmlns="http://www.w3.org/2000/svg" xmlns:xlink="http://www.w3.org/1999/xlink" x="0px" y="0px"
	 width="250px" height="250px" viewBox="0 0 250 250" style="enable-background:new 0 0 250 250;" xml:space="preserve">
<g>
	<path d="M75.9,130.5c-1.3,5.5-0.7,10.8-2.5,15.7c-7.4,1-14.8-0.6-22.1-0.9c-1.5,3.6-2.6,35.4-1.6,41.7c0.5,0.5,1.2,0.6,1.8,0.6
		c5.7,0,9.4,2.6,11.3,8.2c2.8,8,4.5,16.3,5.8,24.7c0.5,2.8,0.8,5.6,1.5,8.3c2.7,10.7-4.5,19.3-15.2,17.4c-7.7-1.4-15.5-0.3-23.2-1.1
		c-1.7-0.2-3.6-0.4-4.8-0.3c-7.6-4.4-6.7-11.1-5.1-17.5c2-7.9,2.2-16.1,4.9-23.8c2.4-6.8,4.6-13.5,11.9-17.3c1.7-0.4,3.8,1.1,6.2,0
		c1.3-13.4,0.5-26.8,0.7-40.5c-4.1-0.7-7.5-0.3-11,1.9c-2.5-6.4-0.4-13-2.4-19.7c-8.2,0.3-16.8,0.3-25.4,1.4
		c-2.6-8.3-3-16.5-1.8-24.7c1.3-8.7,2.5-17.4,4.8-25.9c3.3-12.3,6.6-24.7,12.7-36c3.9-7.2,8.8-14.1,14.7-19.9
		c4.3-4.2,10.1-6.8,15.1-10.3c3.7-2.6,8.3-3.5,12-5.9c7.2-4.5,15.1-3.7,22.8-4.1C102.6,2,118,2.7,133.5,3.8c9.7,0.7,19.5,1,29.2,1.5
		c7.2,0.4,14.5,0.8,21.7,0.7c9.2,0,18.5,0.7,27.3,3.2c5.5,1.5,10.9,4.6,15.6,8.2c10.8,8.1,14.5,20.2,17.6,32.5
		c2,7.9,1.3,15.7-0.5,23.5c-1.3,5.8-2.1,11.6-4.2,17.3c-1.7,4.7-3.5,9.2-6.6,13.2c-5,6.4-9.8,12.9-15.3,18.8c-2.6,2.8-6.8,4.5-7.3,9
		c-10,2.6-20,1.9-29.8,1.6c-12.1-0.4-24.2-0.1-36.2-1c-10.8-0.8-21.6-0.9-32.4-1c-8.9-0.1-17.9,0.5-26.8,0.4
		C82.7,131.6,79.6,131.3,75.9,130.5z M73.2,125.9c8.8,1.4,17.4,2,26,1.6c7.1-0.3,14.1-0.7,21.2-0.3c14.2,0.8,28.5,0.8,42.7,1.1
		c11.2,0.3,22.5,0.5,33.7,0.9c5.5,0.2,10.3-0.5,14.3-5.1c2.2-2.5,4.3-5.1,6.7-7.3c6.4-5.8,10.7-13.2,15.1-20.3
		c4.3-7,5.3-15.2,7.1-23.1c3-13.1,1.2-25.5-3.8-37.9c-4.8-11.9-12.6-19.4-25.5-21.4c-3.4-0.5-7-0.5-10.2-1.8
		c-7-2.7-14.3-2.8-21.6-2.9c-5.8-0.1-11.7,0.3-17.5-0.2c-13.9-1.3-27.9-1.4-41.8-2.5C110,6,100.1,6.4,90.3,6.6
		c-9.4,0.2-18.9,0.9-27.7,4.9C49.9,17.4,39,25.4,31.1,37.3c-5,7.7-8.7,15.7-11.6,24.4c-5,15.3-9,30.7-10.6,46.7
		c-0.5,5.3-0.5,10.6-0.1,15.9c7.3,0.8,14.6-0.9,21.9-0.7c5,0.2,5.2,0.4,5.6,5.4c0.3,4.1-0.4,8.3,1.1,12.5
		c11.2-0.2,22.4,0.1,33.6,1.6C71.4,137.2,71.4,131.6,73.2,125.9z M41.7,240.9c0.8-3.3,1.4-6.4,1.5-9.7c0.1-6.4,0.7-12.9,1-19.3
		c0.3-5.8,0.6-11.5,0.9-17.3c0.1-2.7-0.9-3.6-3.8-3.5c-4.7,0.1-6.6,3.3-8.4,6.6c-6.5,11.7-5.4,25-7.7,37.7c-0.5,2.8,1.1,4.9,4.1,5.1
		C33.3,240.6,37.4,241.4,41.7,240.9z M49.2,192.9c0.1,16.1-1.9,32-1.5,48.2c6.5,1.1,12.3-0.9,17.9-4.1c0.7-2.6,1.9-5.1,1.3-7.7
		c-2.2-9.5-3.2-19.3-6.2-28.6C58.3,193.3,57.8,193,49.2,192.9z"/>
	<path d="M141.9,31.4c14.6,0.7,29.1,2.2,43.4,5c6,1.2,12,2,18.2,1.5c4.3-0.3,7.4,1.5,9.8,5.4c7.9,13-1.2,32.7-19.4,32.9
		c-9.7,0.1-19.5,0.4-29.1,1.1c-9.9,0.8-19.8,1-29.6,2c-2.6,0.3-5.3,0-7.9-0.4c-15-2-19.6-16.1-15.9-28.6
		c3.3-11.3,12.3-20.1,26.1-19.1C138.9,31.5,140.4,31.4,141.9,31.4z M141.3,35.4c-0.3,0-0.7,0-1,0c-15-0.5-26,6.6-27.2,24.5
		c-0.3,4.2,2.8,11.1,6.3,12.2c4.5,1.5,8.9,3.4,13.9,3.3c4.2,0,8.2-0.9,12.3-0.9c7.5,0,14.9-0.4,22.3-0.8c9.4-0.5,18.8-0.8,28.2-2
		c9.3-1.1,14.3-6.7,16.5-15.3c1.6-6.2-2.2-12-8.4-13.1c-5.3-1-10.8-1.6-16.1-2.8C172.6,37.1,156.9,36.7,141.3,35.4z"/>
	<path d="M151.7,96.4c9.2,0.4,18.2,0.6,27.1,1.2c2.7,0.2,5.3-0.7,7.9,0c2.5,0.6,3.9,1.6,2.9,4.3c-6.8,1.1-36.9-0.5-39.4-2
		C150.2,98.7,150.9,97.8,151.7,96.4z"/>
	<path d="M154,114.2c-0.3-2.4,0.7-3.6,3.2-3.6c3.1,0,6.3-0.3,9.4,0.1c6.4,0.8,12.9,0.8,19.3,0.7c2.8,0,4.5,0.6,4.8,3.5
		c-0.5,1.2-1.6,1.6-2.8,1.5c-10.8-0.9-21.7-1.1-32.6-1.3C154.9,115.1,154.5,114.6,154,114.2z"/>
</g>
</svg>
