<?xml version="1.0" standalone="no"?>
<!DOCTYPE svg PUBLIC "-//W3C//DTD SVG 20010904//EN"
 "http://www.w3.org/TR/2001/REC-SVG-20010904/DTD/svg10.dtd">
<svg version="1.0" xmlns="http://www.w3.org/2000/svg"
 width="130.000000pt" height="130.000000pt" viewBox="0 0 130.000000 130.000000"
 preserveAspectRatio="xMidYMid meet">
<metadata>
Created by potrace 1.12, written by Peter Selinger 2001-2015
</metadata>
<g transform="translate(0.000000,130.000000) scale(0.100000,-0.100000)"
fill="#000000" stroke="none">
<path d="M665 916 c-5 -2 -30 -10 -55 -17 -47 -14 -132 -73 -188 -132 -32 -34
-66 -47 -121 -47 -50 0 -127 -29 -164 -62 -36 -33 -36 -34 -39 -118 l-2 -85
53 0 c53 0 54 -1 73 -42 35 -74 111 -82 168 -17 16 19 30 41 30 48 0 21 200
32 423 22 16 0 33 -9 39 -19 30 -55 125 -52 173 5 25 29 30 31 85 29 l58 -2
10 46 c17 82 -18 184 -85 246 -70 66 -255 138 -368 144 -44 3 -84 3 -90 1z
m205 -37 c167 -58 250 -111 286 -180 25 -51 40 -134 30 -173 -6 -24 -11 -26
-56 -26 -46 0 -50 2 -50 24 0 15 -11 33 -27 45 -30 24 -44 20 -21 -6 20 -23
24 -51 11 -83 -15 -36 -39 -53 -75 -53 -45 0 -78 41 -78 97 0 53 16 68 79 77
l46 6 -56 2 c-67 1 -90 -17 -98 -81 l-6 -42 -217 -1 c-120 -1 -218 2 -218 6 0
3 -19 27 -43 52 -41 44 -45 46 -77 37 -41 -12 -76 -44 -84 -76 -7 -25 -37 -38
-76 -32 -21 3 -23 8 -23 71 0 101 16 114 182 148 88 18 98 23 145 67 125 117
188 145 311 138 44 -3 96 -10 115 -17z m-516 -334 c47 -47 55 -65 44 -96 -13
-39 -63 -79 -97 -79 -39 0 -63 31 -66 85 -3 36 1 51 21 75 14 16 35 31 47 33
12 2 23 5 24 6 1 0 13 -10 27 -24z"/>
</g>
</svg>
