<?xml version="1.0" encoding="utf-8"?>
<!-- Generator: Adobe Illustrator 18.1.1, SVG Export Plug-In . SVG Version: 6.00 Build 0)  -->
<svg version="1.1" id="Ebene_1" xmlns="http://www.w3.org/2000/svg" xmlns:xlink="http://www.w3.org/1999/xlink" x="0px" y="0px"
	 width="250px" height="250px" viewBox="0 0 250 250" style="enable-background:new 0 0 250 250;" xml:space="preserve">
<g>
	<path d="M130.5,200.2c-2.5,5-4.4,10.1-5.8,15.4c-1,3.8-2.2,7.6-3.8,11.3c-0.2,0.4-0.3,0.8-0.3,1.2c0,0.9-0.6,1.3-1.4,0.8
		c-0.6-0.4-1.2-0.4-1.8-0.3c-4,0.4-8,1.1-12,1.6c-2.1,0.3-2.1,0.2-2.2,2.4c-0.2,4-3.6,8.2-7.4,9.5c-2.4,0.8-4.8,1.4-7.4,1.3
		c-2.9-0.2-5.5-1.1-7.6-3.1c-2.3-2.1-3.9-4.7-4.5-7.9c-0.3-1.4-1.4-2-3.1-1.9c-2.7,0.2-5.4-0.4-8-0.6c-0.3,0-0.6-0.1-0.9-0.1
		c-2.8,0.1-5.5-0.3-8.3-0.4c-2.6-0.1-5.2-0.5-7.8-0.4c-1.7,0-3.4-0.3-5.1,0.1c-0.2,0-0.4,0-0.6,0c-0.5,0-0.8-0.2-0.9-0.7
		c0-0.5,0.4-0.6,0.8-0.6c0.8,0,1.6,0,2.5,0c2.7,0.1,5.5,0.1,8.2,0.2c0.8,0,1.5,0.2,2.3,0.3c2.6,0.2,5.2,0.1,7.7,0.5
		c0.5,0.1,0.8-0.1,0.8-0.7c0.1-1.7,0.1-3.5-0.2-5.2c-0.6-3.5-0.5-7-1.4-10.5c-1.1-4.2-2.8-7.9-6.3-10.6c-4.6-3.5-9.3-6.9-14.9-8.7
		c-3.8-1.2-7.7-2-11.7-2.1c-1.6,0-3.1-0.3-4.7-0.1c-2,0.3-3.6,0.9-4.3,3.3c-1.7,6.1-2.9,12.2-3.3,18.5c-0.1,1.4-0.2,2.8-0.7,4.2
		c-0.8,2.4-0.5,4.9-1.1,7.2c-0.2,0.8,0.1,1.2,1,1.1c0.3,0,0.5-0.1,0.8,0c2.2,0.9,3-0.6,3.6-2.2c0.5-1.3,1.5-2,2.6-2.6
		c1.9-1,3.9-1.7,6.2-1.6c1,0,2.1,0,3.1,0.1c0.3,0,0.5,0,0.8,0.1c2.4,1,4.6,2.1,6.3,4.2c1.6,1.9,1.7,4.1,1.4,6.4
		c-0.2,1.9-0.5,3.8-1.6,5.5c-0.7,1-1.4,1.9-2.6,2.5c-2.7,1.4-5.5,1.9-8.5,1c-3.8-1.2-6.7-3.3-8.5-6.9c-0.7-1.4-1-2.9-0.9-4.4
		c0-0.7-0.3-0.9-0.9-0.9c-0.8,0-1.6-0.1-2.3,0c-0.8,0.1-1.1-0.2-1.2-1c-0.1-0.9-0.2-1.8,0-2.8c0.2-0.9,0.3-1.9,0.3-2.9
		c-0.1-1.8,0.8-3.5,1-5.2c0.4-3.7,0.6-7.4,1.3-11.1c0.6-3.5,1.3-6.9,2.4-10.3c0.7-2.3,2.3-3.1,4.4-3.4c1.9-0.3,3.7,0,5.5,0
		c1.9,0,3.7,0.2,5.5,0.6c2.3,0.5,4.6,0.9,6.9,1.8c2.8,1,5.5,2.4,8.1,4c2.9,1.9,5.9,3.7,8.3,6.3c2.6,2.8,4,6.1,4.8,9.7
		c0.9,3.8,1,7.8,1.5,11.7c0.2,1.4,0.1,2.7,0.1,4.1c0,1,0.4,1.2,1.2,1.2c2.2,0.1,4.4,0.4,6.6,0.4c0.8,0,1.8,0.5,2.5,0
		c0.7-0.5,0.3-1.6,0.3-2.4c0.1-3.5,2.1-5.8,4.7-7.8c3.3-2.5,7-4.1,11.3-3.6c1.6,0.2,3.1,0.6,4.5,1.2c0.5,0.2,0.8,0.1,1.1-0.4
		c2.2-3.8,5.2-7,6.9-11c0.2-0.4,0.2-0.6,0-1.1c-0.8-1.6-2.3-2.6-3-4.2c-0.3-0.5-0.8-0.8-1.4-0.7c-0.9,0.1-1.8,0.2-2.6,0.4
		c-0.6,0.1-1,0-1.1-0.7c-0.1-0.7,0.2-1.1,0.8-1.2c1.9-0.2,3.8-0.5,5.6-0.6c1-0.1,2-0.4,3.1-0.4c0.7,0,1.2,0.3,1.3,1
		c0.1,0.8-0.7,0.8-1.2,0.8c-1,0-2,0.1-3,0.4c-0.6,0.1-0.6,0.3-0.3,0.8c0.7,1.1,1.7,2.1,2.5,3.2c1.9,2.7,3.5,5.6,5.2,8.4
		c2.8,4.7,5.6,9.3,8.8,13.8c0.1,0.2,0.3,0.3,0.4,0.6c1.4-2.2,1.8-4.7,2.6-7c1.6-4.7,2.5-9.5,4.5-14.1c0.9-2,1.6-4.2,3-6
		c0.2-0.3,0.2-0.5,0-0.8c-1.2-2.8-2.6-5.6-3.6-8.4c-0.7-1.9-1.9-1.7-3.2-1.6c-0.7,0-1.4,0.1-2.1,0c-0.3,0-0.5-0.2-0.5-0.5
		c0-0.3,0.3-0.4,0.5-0.5c1.8-0.4,3.6-0.3,5.3,0.4c1.1,0.4,1.3,1.5,1.5,2.4c0.6,2.2,2,4,2.8,6.2c0.8,2.3,1.8,4.5,2.8,6.7
		c0.7,1.5,1.5,3,2.2,4.5c1.1,2.1,2.1,4.2,3.3,6.2c0.5,0.8,0.9,1.1,1.8,0.7c3.6-1.5,7.1-1.4,10.8-0.2c0.4,0.1,1,0.1,1.4,0.3
		c3,1,5,3.1,6.3,6c0.8,1.9,1.3,3.9,1.6,6c0.5,2.9-0.4,5.5-1.8,7.9c-1.4,2.3-3.2,4.3-5.4,5.9c-3.2,2.3-6.8,2.8-10.6,1.7
		c-1.8-0.5-3.7-1.1-5.4-2.1c-0.6-0.3-1.2-0.7-1.6-1.2c-1.6-1.7-3.2-3.5-4-5.7c-1.6-4.2-2-8.4,0.9-12.4c1.4-1.8,3.1-3.1,4.7-4.7
		c0.4-0.5,0.4-0.7,0.1-1.2c-1.9-3.3-3.8-6.6-5.3-10C131.7,202.8,131.4,201.4,130.5,200.2z M146.4,213.8c-2.1-0.1-3.9,0.4-5.7,1
		c-0.6,0.2-0.8,0.4-0.4,1.1c0.8,1.2,1.5,2.4,2.1,3.7c0.9,1.9,1.8,3.7,2.9,5.4c0.2,0.4,0.5,0.7,0,1c-0.4,0.2-0.9,0.5-1.3-0.1
		c-0.3-0.4-0.5-0.9-0.8-1.4c-1.4-2.6-2.8-5.2-4.2-7.9c-0.4-0.7-0.8-0.8-1.3-0.3c-0.8,0.7-1.6,1.4-2.3,2.1c-1.8,1.8-3.3,3.9-3.6,6.5
		c-0.3,3.4,0.5,6.5,2.5,9.4c1.4,2.1,3,3.9,5.6,4.7c1.3,0.4,2.7,0.9,4,1.2c3.3,0.8,6.4,0,9-2c1.8-1.4,3.4-3.2,4.6-5.3
		c1.1-2,2.1-4.1,1.8-6.4c-0.2-1.6-0.5-3.2-1-4.7c-0.3-1.2-0.8-2.3-1.4-3.4c-0.9-1.6-2.3-2.5-4.1-3.1
		C150.6,214.7,148.6,213.6,146.4,213.8z M102,230.7c-2.1,0.4-4.1,0.2-6.1,0.5c-1.8,0.3-3.6-0.2-5.3,0.1c-1,0.2-1.8-0.6-1.4-1.6
		c0.4-1,0.7-2,1.3-2.9c1.8-2.6,3.4-5.2,5.1-7.8c0.3-0.5,0.4-0.8-0.3-1.2c-1.8-0.8-3.7-1.3-5.7-1.2c-3.2,0.2-5.9,1.7-8.5,3.5
		c-2.9,2.1-4.3,5-4.1,8.6c0,0.6,0.3,0.9,0.9,0.9c0.7,0.1,1.3,0.1,2,0.3c0.2,0,0.5,0.2,0.5,0.5c0,0.3-0.2,0.5-0.5,0.5
		c-0.6,0-1.3,0.4-1.9,0c-0.6-0.4-0.7,0-0.7,0.5c0.1,1,0.5,1.9,0.8,2.9c1.1,2.9,3,5.1,5.7,6.6c3,1.6,6.3,1.8,9.6,0.9
		c3.1-0.8,5.6-2.3,7.1-5.3C101.6,234.8,101.8,232.8,102,230.7z M31.5,237.9c3,0,5.2-0.8,6.9-2.8c1.3-1.6,1.8-3.5,2-5.5
		c0.2-2.3,0.6-4.3-1.7-6.2c-2.7-2.2-5.2-3.8-8.7-3.5c-3.3,0.4-6.5,0.9-8.2,4.2c-1.1,2-1.6,4.1-0.8,6.4
		C22.3,234.7,27.6,238.3,31.5,237.9z M117.8,227.7c0.4,0,1-0.1,0.3-1c-0.5-0.7-0.7-1.5-1.2-2.1c-3.2-4.3-5.6-9-8.5-13.5
		c-0.9-1.4-1.4-2.9-2.4-4.3c-0.5-0.7-0.7-0.5-1,0c-0.7,1.2-1.3,2.6-2.1,3.7c-1.5,2-2.9,4-4.2,6.1c-0.3,0.5-0.4,0.7,0.2,0.9
		c0.9,0.4,1.4,1.1,1.9,1.9c1.5,2.7,2.5,5.6,2.5,8.7c0,0.7,0.1,0.9,0.9,0.8c1.2-0.2,2.5-0.3,3.8-0.5
		C111.2,228.1,114.3,226.9,117.8,227.7z M94.2,229.9c0,0,0,0.1,0,0.1c2.3-0.2,4.5-0.3,6.8-0.5c0.5,0,1.2-0.2,1.1-1
		c-0.3-3.2-0.8-6.3-2.8-9c-0.6-0.9-2-0.9-2.6,0c-1.7,2.4-3.3,4.9-4.9,7.4c-0.4,0.7-0.6,1.5-0.9,2.3c-0.2,0.5-0.1,0.8,0.6,0.7
		C92.4,229.9,93.3,229.9,94.2,229.9z"/>
	<path d="M147.5,136.6c3,2.3,4,5.5,5.8,8.3c0.9,1.4,1.8,2.8,2.9,4c1.4,1.5,2.2,3.3,3.4,4.8c1.3,1.6,2.5,3.2,3.6,4.9
		c0.5,0.9,1.4,1.5,1.7,2.5c0.2,0.5,0.2,1.1-0.3,1.3c-0.5,0.2-0.8-0.3-1-0.7c-1.6-3.1-3.8-5.7-5.8-8.6c-0.6-0.8-1.4-0.4-2-0.2
		c-0.8,0.3-1.6,0.3-2.5,0.2c-1.4-0.1-2.7,0.1-4,0.5c-1.3,0.4-2.7,0.3-4,0.5c-0.6,0.1-1,0.4-1.6,0.4c-2.5,0.1-4.9,0.5-7.3,0.9
		c-1.9,0.3-3.8,0.5-5.8,0.6c-1.2,0.1-2.4,0.3-3.6,0.3c-2.8,0.1-5.7,0.3-8.5,0.8c-1.4,0.2-2.8,0.6-4.2,0.5c-2-0.1-4.1,0.7-6.1,0.2
		c-0.5-0.1-0.6,0.4-0.8,0.8c-1.1,2.3-2.5,4.5-3.9,6.7c-0.3,0.5-0.5,0.8-1.1,0.5c-0.5-0.3-0.5-0.8-0.3-1.2c0.8-1.3,1.6-2.7,2.4-4
		c1.3-2,2.3-4.2,3.3-6.4c1.1-2.3,2.3-4.7,3.6-6.9c1.2-2,2.4-4.1,3.7-6.1c0.3-0.5,0.4-1.1,0.6-1.6c0.1-0.3,0-0.5-0.3-0.6
		c-2.1-0.5-3.8-1.7-5.5-3c-1.5-1.2-2.2-2.8-2.6-4.6c-0.2-1-0.3-2-0.6-2.9c-0.2-0.7,0-1.3-0.1-2.1c-0.5-2.3-0.9-4.7-1.1-7.1
		c-0.2-2.2-0.3-4.5-0.5-6.7c-0.3-2.3-0.8-4.6-0.5-7c0.1-1-0.4-2.1-0.4-3.2c0.1-2.1-0.2-4.3-0.1-6.4c0.1-1.3-0.3-2.6,0-3.9
		c0.3-1.1,0.2-2.3,0.5-3.4c0.4-1.4,0.4-2.9,0.1-4.4c-0.2-0.9-0.1-1.9,0.1-2.8c0.5-2,1.2-2.5,3.4-2.7c1.6-0.2,3.1-0.3,4.6-0.5
		c4.2-0.8,8.4-1.6,12.6-2.6c0.8-0.2,1.8-0.2,2.7-0.2c4.6-0.4,9.2-0.9,13.8-1.7c3.7-0.7,6.3,0.8,7.8,4.3c0.5,1.1,0.7,2.4,1.1,3.5
		c1.4,3.5,2.4,7.2,3.2,10.9c0.7,3,1.6,5.9,1.4,9.1c-0.1,1.6,0.7,3,0.8,4.6c0.3,2.9,0.8,5.8,1,8.8c0.1,1.3,0,2.8,0.6,4.1
		c0.3,0.6,0.1,1.4,0,2.1c-0.4,2.4-0.2,4.8,0.2,7.2c0.2,1.1,0,2.2-0.1,3.2c-0.2,1.6-1.4,2.2-2.8,2.8
		C152.7,135.3,150.2,135.8,147.5,136.6z M142.3,75.3c-0.4,0-0.8-0.1-1.1,0c-2.9,0.7-6,0.8-8.9,1.1c-5.1,0.6-10.3,1.2-15.3,2.3
		c-1.9,0.4-3.8,0.8-5.6,1.1c-1.5,0.3-3,0.7-4.5,1c-0.1,0-0.3,0.1-0.3,0.2c-0.2,1-0.7,2-0.6,3.1c0.1,0.8,0.2,1.7,0.1,2.6
		c-0.2,3-0.7,6-0.5,9c0.2,2.5,0.1,5.1,0.2,7.7c0.1,3.5,0.8,7,1,10.5c0.4,5.7,1.1,11.4,2.1,17.1c0.6,3.5,4.2,6.3,6.9,6.8
		c1.3,0.2,2.6,0.5,4,0.7c4.2,0.4,8.4,0.3,12.5-0.3c2.9-0.4,5.7-1,8.6-1.5c3.1-0.5,6.1-1.2,9.2-1.7c1.9-0.3,3.5-1.4,5.4-1.6
		c1-0.1,1.4-1,1.6-1.9c0.3-2.1-0.3-4.2-0.2-6.3c0.2-5.4-0.5-10.7-1.4-15.9c-0.6-3.8-1.1-7.6-1.8-11.3c-0.6-2.7-1.2-5.4-1.9-8
		c-0.6-2.3-1.1-4.6-2.1-6.8c-0.7-1.8-1.1-3.7-2.4-5.3C145.8,76,144.3,75.4,142.3,75.3z M156.5,151.1c-1.6-2.4-3.2-4.7-4.7-6.9
		c-0.1-0.2-0.2-0.4-0.6-0.3c-1.8,0.7-3.6,0.7-5.5,0.9c-2.1,0.2-4.3,0.4-6.4,0.9c-2.2,0.6-4.5,0.3-6.7,0.9c-0.8,0.2-1.7,0.5-2.5-0.2
		c-0.4,1-1.3,0.4-2,0.5c-2.7,0.4-5.5,0.8-8.2,0.9c-2.3,0.1-4.5,0.5-6.6,1.1c-0.9,0.3-1.4,0.8-1.7,1.5c-0.4,0.7-0.6,1.6-1.1,2.2
		c-1,1.2-1.2,2.7-2.1,4.2C124.6,155.3,140.6,154.2,156.5,151.1z M113.8,147.2c0.5,0.2,0.8-0.2,1.2-0.2c2.5-0.4,4.9-0.9,7.4-1
		c1.8,0,3.6-0.3,5.4-0.5c0.7-0.1,1.3-0.3,2-0.3c1.8,0,3.5-0.6,5.4-0.5c1.2,0.1,2.3-0.6,3.4-0.6c3.9-0.2,7.6-1.1,11.4-1.6
		c0.5-0.1,0.7-0.2,0.4-0.8c-0.9-1.7-2-3.1-3.4-4.4c-0.3-0.2-0.5-0.5-1-0.5c-0.9,0.1-1.9,0.2-2.8,0.4c-4.3,0.9-8.6,1.7-12.9,2.3
		c-3.9,0.5-7.9,0.4-11.9,0.1c-0.5,0-0.7,0.1-0.9,0.5c-0.4,0.6-0.5,1.4-1,2.1C115.5,143.7,114.2,145.2,113.8,147.2z"/>
	<path d="M195.7,168.9c-2.4-3.8-5-7.3-8.4-10.1c-1-0.8-0.8-1.4,0.3-2.1c2.6-1.7,5.4-3,7.8-4.9c0.3-0.2,0.7-0.3,1-0.4
		c1.9-0.3,3.8-0.2,5.8-0.2c1.3,0,2.6,0,3.9-0.4c0.4-0.1,0.7-0.1,0.8,0.3c0.2,0.4,0,0.7-0.4,0.9c-1.1,0.4-2.2,0.4-3.4,0.4
		c-2.2,0.1-4.4,0.2-6.6,0.3c-0.5,0-0.9,0.2-1.2,0.6c-1,1.1-2.4,1.7-3.7,2.3c-1.2,0.5-2,1.7-3.3,2.3c-0.4,0.2,0.1,0.5,0.2,0.7
		c1.2,1.3,2.5,2.4,3.7,3.8c1.5,1.8,2.9,3.8,4.2,5.8c0.5,0.8,1.2,0.9,1.9,0.9c0.6,0,1.3-0.1,2.1-0.2c-1-0.9-1.9-1.8-2.8-2.5
		c-2.1-1.8-3.7-4-5.4-6c-0.4-0.5-0.8-1-1.4-1.4c-0.5-0.3-0.9-0.7,0-1.1c2.8-1.2,5.3-3.2,8.1-4.5c0.3-0.1,0.5-0.3,0.9-0.3
		c2.8,0.3,5.5,0,8.3-0.3c0.4,0,0.7-0.1,1,0.2c0.2,0.2,0.4,0.4,0.3,0.7c-0.1,0.3-0.3,0.4-0.6,0.3c-2.4,0-4.8,0.5-7.2,0.5
		c-2.5,0-4.3,1.1-6.2,2.3c-0.8,0.5-1.7,1.1-2.6,1.4c-0.7,0.2-0.9,0.4-0.3,1.1c2.5,3.1,5.2,5.9,8.2,8.5c1.3,1.1,2.5,0.9,3.9,1
		c2.1,0.1,4.2-0.2,6.3,0c2.6,0.2,5.2,0.1,7.7,0.2c3.6,0.1,7.1,0.2,10.7,0.5c0.3,0,0.6,0,0.9,0c2.1-0.3,3.9,0.8,5.8,1.4
		c0.7,0.2,1.2,1.6,1.1,2.6c0,0.5-0.1,0.8,0.5,0.9c0.4,0.1,0.6,0.6,0.3,1c-0.6,0.6-0.5,1.3-0.6,2.1c-0.3,3.4,0,6.9,0.1,10.3
		c0,2-0.2,4,0.1,6c0.2,1.6,0.1,3.3,0,5c0,0.7,0.1,1.4,0.3,2c0.2,0.6,0.1,1.1-0.6,1c-1.4-0.3-2.7,0.5-4.2,0.4
		c-2.2-0.2-4.4-0.3-6.6-0.6c-0.9-0.1-1-1.1-0.9-1.8c0.3-1.9-0.4-1.9-2-2c-0.7,0-1.5,0.1-2.2,0.1c-0.1,0-0.3,0.1-0.4,0
		c-1.2-0.8-2.6-0.1-3.9-0.3c-1.3-0.3-2.7-0.3-4-0.4c-4.5-0.4-9.1-0.6-13.7-0.8c-4.5-0.2-9.1-0.1-13.6-0.2c-2,0-4,0-6,0.4
		c-0.3,0.1-0.4,0-0.3,0.4c0.3,1.3-0.9,2.2-1.2,3.3c-0.1,0.3-0.5,0.2-0.7,0c-1-1.3-2.5-0.9-3.7-0.7c-2,0.3-3.9,0.1-5.9,0.3
		c-2,0.2-2.1-0.1-1.9-2.2c0.3-3.8,0.1-7.6,0.1-11.3c0.1-3.1,0.4-6.2,0.7-9.3c0.2-2.2,0.3-4.4,0.5-6.6c0-0.2-0.2-0.5,0.1-0.6
		c1-0.4,1.8-1.3,3.1-1.3c3,0,6,0,9,0c1.8,0,3.6,0,5.4-0.1c3.4-0.1,6.9,0,10.3,0.4C195.2,168.9,195.4,168.9,195.7,168.9z
		 M222.4,196.1c0.3,0,0.7,0,1,0c1.8,0,1.6,0.3,1.9-1.7c0.5-3.6-0.1-7.3,1.2-10.8c0.4-1.1-0.1-2.1-0.1-3.2c-0.1-1.5,0.5-3,0.3-4.5
		c-0.2-1.4,0.7-1.5,1.8-1.7c2-0.2,4-0.2,6-0.1c1.6,0.1,1.6,0.1,1.6-1.5c0-0.7-0.2-0.9-0.9-0.8c-1.1,0.2-2.1-0.3-3.2-0.5
		c-0.2,0-0.7-0.2-0.4-0.5c0.6-0.6-0.1-0.5-0.3-0.5c-0.8-0.1-1.8-0.3-2.5,0c-1.4,0.7-2.9,0.4-4.3,0.4c-1,0-1.9-0.3-2.9-0.2
		c-1,0-2.1,0.2-3.1,0c-2-0.4-4-0.1-6-0.3c-2.3-0.2-4.6-0.2-6.8-0.1c-1.7,0.1-3.4-0.1-5.1-0.1c-1.1,0-2.2,0.2-3.3,0.1
		c-2.1-0.2-4.2-0.6-6.4-0.5c-2.3,0.1-4.6,0-6.9,0c-4.1,0-8.1,0.2-12.2,0.3c-0.8,0-1.6,0.2-2.4,0.4c-0.3,0.1-0.7,0.2-0.6,0.6
		c0.1,0.4-0.4,1.1,0.1,1.2c0.8,0.2,1.4,1,2.5,0.7c1.1-0.3,2.3-0.1,3.5-0.3c1.1-0.2,2.2-0.1,3.3,0.1c1.2,0.2,2.1,1,1.9,1.7
		c-0.2,1-0.7,1.9-0.3,3c0.3,0.8,0.1,1.7,0.2,2.5c0.2,2.6,0.2,5.3,0,7.9c-0.1,2.2-0.3,4.4-0.5,6.5c0,0.5,0.1,0.7,0.6,0.8
		c1.2,0.1,2.4,0.2,3.6,0c4.1-0.5,8.2,0.2,12.3-0.2c1.5-0.1,3,0.1,4.5,0c2.2-0.1,4.4,0.2,6.6,0.3c2.2,0.1,4.5,0.2,6.7,0.5
		C216.5,196,219.4,196.4,222.4,196.1z M167.2,194.1c-0.4,1.1,0,1.4,1.1,1.5c3.1,0.3,6.2-0.2,9.3,0.1c0.4,0,0.3-0.3,0.4-0.5
		c0.4-1.7,0.4-3.3,0.4-5.1c-0.1-3.1,0.5-6.1,0.3-9.2c-0.1-2.1-0.3-4.2-0.1-6.3c0.1-0.5-0.3-0.6-0.7-0.6c-2.5-0.2-4.9,0-7.3,0.2
		c-0.6,0-1.1,0.2-1.6-0.1c-0.6-0.3-0.8,0.1-0.7,0.7c0.1,2.2-0.2,4.4-0.5,6.6c-0.4,3.2-0.1,6.4-0.5,9.6
		C167,192,167,193.1,167.2,194.1z M236.1,179.8c0-1.4,0-2.5,0-3.6c0-0.5-0.1-0.7-0.7-0.8c-2.3-0.3-4.6,0-7-0.1
		c-0.5,0-0.8,0.1-0.8,0.7c0.1,2.1-0.2,4.2,0,6.3c0,0.5,0.1,1.1,0,1.6c-0.7,1.9-0.3,4-1,6c-0.6,1.8-0.3,3.9-0.4,5.8
		c0,0.3,0,0.7,0.5,0.8c2.1,0.2,4.2,0.4,6.3,0c0.8-0.1,1.6-0.3,2.4-0.2c0.6,0,1.1-0.1,1.1-1C236.3,190.2,236.5,184.9,236.1,179.8z
		 M232.8,201.2c0.4,0.1,0.6-0.2,0.8-0.5c0.3-0.3,0.7-0.3,1-0.3c1.7-0.1,1.6-0.1,1.8-1.8c0.1-0.9-0.2-1.2-1.1-1.1
		c-2.3,0.3-4.7,0.4-7,0.4c-1.9,0-1.9,0-1.7,1.9c0,0.3,0.1,0.5,0.4,0.5c1.9-0.1,3.7,0.6,5.6,0.3c0.2,0,0.4-0.1,0.5,0.1
		C233.2,201,232.8,200.9,232.8,201.2z M172.6,196.6C172.6,196.6,172.6,196.6,172.6,196.6c-1.6,0-3.3,0-4.9,0c-1.1,0-0.5,0.9-0.7,1.3
		c-0.3,0.4,0.3,0.5,0.5,0.7c0.7-0.6,1.4,0,2,0c2,0.2,4-0.4,6-0.1c0.5,0.1,1,0.1,1.4,0.1c0.9-0.1,1.2-0.7,1.2-1.5
		c0-0.9-0.7-0.5-1.2-0.5C175.5,196.6,174.1,196.6,172.6,196.6z"/>
	<path d="M242.5,56.3c-0.4,0-0.8,0-1.2,0c-0.4,0-0.6-0.3-0.6-0.6c-0.2-3.3-1.5-6-4.3-7.9c-2.2-1.5-4.6-2.5-7.3-2.5
		c-0.8,0-1.7-0.2-2.5-0.1c-2.3,0.1-4,1.4-5.7,2.8c-1.3,1.2-2.2,2.5-2.5,4.2c-0.1,0.6-0.4,0.8-1.1,0.6c-4.4-1.2-8.9-2.3-13.5-2.7
		c-3.2-0.3-6.3-1-9.4-1.6c-1.4-0.2-2.7-0.5-4.1-0.5c-1.2,0-2.3-0.3-3.3-0.7c-0.3-0.1-0.7-0.2-0.9,0.1c-0.2,0.2-0.2,0.5-0.5,0.4
		c-0.4-0.1-0.3-0.5-0.3-0.8c-0.1-4.4-2-8.1-5.4-10.8c-3.1-2.4-6.5-4.1-10.7-2.8c-2,0.6-4,1.1-5.4,2.8c-1,1.3-1.7,2.7-2.1,4.3
		c-0.2,0.8-0.3,1.4-1.4,0.7c-0.7-0.4-1.6-0.5-2.3-0.7c-0.3-0.1-0.7-0.3-0.7-0.7c0-0.5,0.5-0.3,0.8-0.4c0.5,0,1,0,1.4,0.3
		c1,0.6,1.4,0.1,1.6-0.8c0.5-2,1.7-3.5,3.1-4.8c0.9-0.8,1.9-1.4,3.1-1.6c1.4-0.3,2.8-0.7,4.2-0.9c1.7-0.2,3.4,0.1,5,0.9
		c1.7,0.9,3.4,1.7,4.8,3c2.3,2.2,3.8,4.9,4.7,8c0.1,0.3,0.2,0.6,0.2,0.9c-0.3,1.4,0.7,1.7,1.7,1.9c1.8,0.3,3.7,0.4,5.5,0.8
		c3.8,0.7,7.6,1.6,11.5,2c4,0.4,8,1.5,11.9,2.4c0.5,0.1,1,0.4,1.1-0.4c0.5-2.5,2.4-3.9,4.1-5.3c1.9-1.6,4.1-2,6.6-1.8
		c2.9,0.2,5.5,0.9,8,2.4c2.5,1.6,4,3.8,4.7,6.6c0.3,1,0.6,1.8,1.8,2c0.6,0.1,0.9,0.1,0.7-0.6c-0.5-2.6-1.3-5.1-2.6-7.3
		c-3.1-4.9-7.5-8.1-13-10c-3.3-1.1-6.7-2.1-9.8-3.9c-1.4-0.8-2.6-1.9-3.7-3c-1.6-1.6-3.2-3.3-4.2-5.3c-1.9-3.6-5-5.3-8.7-6.4
		c-2.6-0.8-5.1-1.7-7.7-2.3c-3.5-0.8-6.9-1.9-10.5-2.4c-3.1-0.4-5.4,0.5-7.5,2.6c-1.7,1.7-3.5,2.8-6.1,2.1c-1.2-0.3-2.4-0.2-3.7-0.2
		c-0.7,0-1.1,0.4-1.5,0.9c-1.1,1.4-2,2.9-2.7,4.5c-1.9,4.4-3.4,9-4.9,13.6c-0.2,0.6-0.2,1.3-0.4,2c-0.1,0.4-0.3,0.9-0.8,0.8
		c-0.4-0.1-0.3-0.6-0.3-1c0.2-2,1.2-3.9,1.8-5.8c0.3-1.1,0.9-2.1,1.1-3.2c0.6-2.4,1.8-4.5,2.6-6.7c0.6-1.8,1.8-3.2,2.8-4.6
		c0.7-1,1.8-1.5,3.1-1.6c1.4-0.1,2.8,0,4.1,0.3c1.7,0.4,3.1-0.5,4-1.6c2.4-2.6,5.2-3.6,8.7-3.2c3.5,0.5,7,1.4,10.4,2.2
		c3.8,0.9,7.5,2.2,11.1,3.5c2.6,0.9,4.4,2.9,5.8,5.3c2,3.4,4.5,6.5,8,8.6c2.3,1.3,4.6,2.3,7.1,3c4.4,1.3,8.4,3.4,11.9,6.4
		c2.3,2,3.8,4.5,5,7.3c0.8,1.9,1.4,3.8,1.4,5.8c0,1.4,0,1.5-1.4,1.5C243,56.3,242.8,56.3,242.5,56.3
		C242.5,56.3,242.5,56.3,242.5,56.3z"/>
	<path d="M178.5,131c-1.2,0-1.8-0.7-2.3-1.5c-1.4-2.1-3-4-4.6-6c-0.8-1-1.9-1.7-2.9-2.4c-0.3-0.2-0.7-0.4-0.7-0.8
		c0-0.5,0.6-0.5,0.8-0.6c2.2-0.2,3.8-1.9,5.9-2.1c0.9-0.1,0.7-0.9,0.6-1.4c-0.3-2.2-0.4-4.4-1-6.6c-0.2-0.7-0.1-1.1,0.6-1.4
		c2.1-1.1,4-2.3,6.3-3c1.2-0.4,2.4-1,3.6-1.5c0.6-0.3,0.8-0.7,0.8-1.4c0-1-0.1-2.1-0.4-3.1c-0.2-0.6,0-0.9,0.6-1.1
		c0.5-0.2,0.9-0.5,1.4-0.7c2-1,2.1-1.1,1.2-3.1c-0.8-1.9-1.5-3.9-2.3-5.9c-0.2-0.4-0.5-0.9,0.2-1.1c0.5-0.1,0.9-0.1,1.1,0.6
		c0.7,2.3,1.4,4.6,2.4,6.8c0.5,1.1,0.8,1.2,1.8,0.7c1.6-0.8,3.1-1.9,4.9-2.3c0.9-0.2,1.6-0.9,2.6-1.1c0.4-0.1,0.5-0.4,0.4-0.8
		c-0.4-1.4-0.7-2.7-1.4-4c-0.3-0.4-0.6-1,0.1-1.3c0.6-0.3,0.8,0.2,1.1,0.6c1.1,1.2,1,2.8,1.4,4.3c0.2,0.6,0.4,0.5,0.6,0.3
		c0.9-0.8,2-0.9,3-1.5c0.9-0.6,1.7-0.5,2.6,0c1.6,0.9,3.2,1.7,4.7,2.7c1.3,0.8,2.5,1.1,3.9,0.5c3.4-1.2,6.8-2.6,10-4.3
		c0.5-0.3,1-0.4,1.4,0.2c0,0.1,0.1,0.1,0.2,0.1c2.8,1,5,3.2,7.8,4.3c0.5,0.2,0.8,0.2,1.3,0c3.4-1.3,7-2.3,10-4.5
		c0.8-0.6,1.7-0.8,2.7-1.1c0.4-0.1,0.8-0.3,1.1,0.1c0.2,0.4,0.2,0.8,0,1.3c-0.8,1.5-1.4,3-1.8,4.6c-0.4,1.9-1.1,3.7-1.8,5.6
		c-0.4,1.1-1,2.1-1.1,3.3c0,0.2-0.2,0.4-0.4,0.5c-2.4,1.4-4.9,2.5-7.6,3.4c-2,0.7-3.8,1.6-5.7,2.4c-3.6,1.5-7.3,3.1-11,4.4
		c-4.6,1.7-9,3.9-13.6,5.6c-1.8,0.7-3.7,1.3-5.6,2c-3.1,1.2-6,2.8-8.8,4.5c-1.3,0.8-2.8,1.4-4.3,1.9c-2.8,1-5.5,2.3-8.1,3.5
		C179.5,130.6,178.9,130.8,178.5,131z M170,120.9c0.8,1,1.9,1.7,2.6,2.7c1.4,1.9,3,3.7,4.4,5.6c0.5,0.7,1.1,0.8,1.8,0.4
		c1.3-0.6,2.7-1.3,4-1.9c2.6-1.1,5.2-2.1,7.7-3.3c5.5-2.7,11.1-5.5,16.8-7.7c5.7-2.2,11.5-4.3,17.1-6.8c6.3-2.8,12.8-5.1,19-8.1
		c0.4-0.2,0.6-0.4,0.7-0.8c0.6-1.5,1.1-3.1,1.7-4.6c0.9-2.5,1.6-5,2.4-7.5c-0.5-0.2-0.7,0.1-1,0.2c-1.3,0.3-1.9,1.4-3.1,1.9
		c-2.6,1.2-5.5,1.9-8,3.2c-0.5,0.2-0.9,0.1-1.3-0.1c-0.6-0.3-1.2-0.7-1.9-1c-2-1-3.6-2.5-5.8-3.3c-0.8-0.3-1.5-0.4-2.3-0.1
		c-0.7,0.3-1.3,0.6-1.9,0.9c-2.5,1.5-5.5,2-8.1,3.3c-0.3,0.2-0.8,0.4-1.3,0.2c-1.4-0.6-2.8-1.2-4.1-1.9c-1.3-0.7-2.5-1.4-3.9-1.9
		c-0.4-0.1-0.8-0.2-1.2,0.1c-1.1,0.9-2.6,1.1-3.7,2.1c-0.5,0.5-1.7,0.5-2.5,0.9c-3.9,1.7-7.6,3.6-11.3,5.4c-0.5,0.3-0.7,0.6-0.5,1.1
		c0.3,1,0.3,2.1,0.1,3.1c0,0.4-0.1,0.7-0.5,0.9c-1.4,0.7-2.7,1.6-4.2,1.9c-2.2,0.5-3.8,2-5.8,2.8c-0.6,0.2-0.7,0.7-0.6,1.3
		c0.3,2.2,0.6,4.4,0.8,6.6c0.1,0.9-0.1,1.6-1.1,1.9C173.4,119.4,171.7,120,170,120.9z"/>
	<path d="M143.1,43.5c1.3,0,2.5,0,3.8,0c0.3,0,0.7,0,0.7,0.5c0,0.4-0.3,0.4-0.6,0.5c-1.3,0.4-2.7,0.2-4.1,0.2
		c-1.7-0.1-3.5,0.3-5.2,0.3c-3.3,0-6.6-0.1-9.9-0.2c-1.1,0-2.2,0.3-3.3,0.2c-2.7-0.3-5.3,0.3-8,0.2c-1.1,0-2.2,0.4-3.3,0.2
		c-0.7-0.2-1.4-0.3-2.1,0.2c-0.5,0.3-0.5-0.3-0.6-0.7c-0.2-1.1-0.5-2.1-0.9-3.1c-1-2.4-3-3.5-5.3-4c-2.7-0.6-5.4-0.6-7.9,0.8
		c-2.5,1.4-4.5,3.3-4.9,6.3c-0.2,1.5-0.5,1.8-2,1.7c-4.9-0.3-9.9-0.1-14.8-0.2c-1.2,0-2.4-0.6-3.3-1.8c-1.9-2.4-2.3-5.1-2-8
		c0.2-2.2,0-4.4,0.2-6.5c0.5-4.8,0.7-9.6,2.2-14.1c0.8-2.4,2-4.5,4.1-5.9c0.9-0.6,2.2-0.9,3.3-1c3.2-0.4,6.5-0.7,9.7-0.5
		c0.9,0,1.7-0.4,2.6-0.5c1.4-0.2,2.8-0.1,4.2,0c2.4,0.2,4.8-0.3,7.2-0.1c3.2,0.3,6.4,0.2,9.7,0.1c4.2-0.1,8.4-0.1,12.6,0.3
		c1.5,0.2,3.1,0.7,4.5,1.2c4.7,1.5,6.1,5.5,6.9,9.7c0.9,4.5,1.2,9.1,1.2,13.6c0,3.3,0.5,6.6,0.6,9.9c0,0.7,0.4,0.9,1.1,0.9
		C140.6,43.5,141.9,43.5,143.1,43.5C143.1,43.5,143.1,43.5,143.1,43.5z M136.7,31.6c-0.1-1.7-0.1-3.4-0.2-5.1
		c-0.3-3.2-0.6-6.3-1.5-9.3c-0.8-2.4-1.8-4.9-4.3-6c-2.6-1.1-5.4-1.6-8.2-1.7c-2.1,0-4.1-0.2-6.2-0.2c-3.4-0.1-6.8,0.1-10.2-0.1
		c-3.7-0.1-7.5,0-11.2,0.1c-4.8,0.1-9.6,0.2-14.4,0.7c-4.1,0.4-6.5,2.6-7.8,6.5c-1.4,4.3-1.7,8.8-2.1,13.3c-0.2,2.8-0.2,5.6-0.4,8.4
		c-0.1,1.6,0.3,3.1,1.1,4.5c1,1.8,2.6,2.5,4.8,2.4c1.3-0.1,2.7-0.2,4,0c3.3,0.4,6.5-0.2,9.8,0c0.5,0,0.7-0.2,0.9-0.7
		c0.3-0.8,0.1-1.8,0.6-2.6c0.9-1.7,2.1-3,3.8-4c2.8-1.6,5.9-2.2,9-1.7c3.9,0.6,6.3,3.1,7.2,7c0.2,0.7,0.5,0.9,1.2,0.9
		c1.9-0.2,3.9-0.2,5.7-0.2c2.7,0.1,5.4-0.4,8.2-0.3c1.2,0.1,2.4,0,3.7,0c2.1,0.1,4.3,0,6.4,0.3c0.8,0.1,1.2-0.2,1.1-1.2
		C137.1,39,136.8,35.3,136.7,31.6z"/>
	<path d="M48.2,49.7c1.8,1.4,2.4,3.3,3.6,4.7c1.8,2.2,2.9,4.7,4.2,7.1c1,1.7,1.7,3.6,3.3,4.8c1.3,1,2.6,2,3.9,2.9
		c2.1,1.4,4.2,2.8,6.2,4.4c0.8,0.6,1.7,0.3,2.6,0.7c2,1.1,4,2.2,6,3.4c1.9,1.2,3.9,2.1,5.5,3.8c1.6,1.8,2.3,3.2,0.8,5.1
		c-0.7,0.8-1.6,1.3-2.6,1.6c-0.9,0.2-1.5-0.5-1.9-1.1c-1.5-1.8-3.4-2.8-5.4-3.8c-1.4-0.7-2.7-1.7-4.1-2.5c-2-1.2-4.2-1.8-6.6-1.1
		c-2.2,0.6-4.3,1.4-6.2,2.7c-1.6,1.1-3.1,0.5-4.5-0.4c-0.9-0.6-1.7-0.7-2.5-0.1c-0.1,0.1-0.3,0.2-0.5,0.3c-0.7,0.3-1.3,1-2.1,0.7
		c-1.3-0.5-2.5-1.2-3.2-2.4c-0.7-1.1,0-2.2,0.5-3.1c1-1.5,1.5-3,1.3-4.9c-0.4-4.4-2.6-7.9-5.1-11.3c-1.2-1.6-2.3-3.1-1.6-5.3
		c0.2-0.6-0.3-0.5-0.6-0.4c-1.9,0.7-3.9,1.4-5.8,2.2c-1.8,0.7-3.6,1.6-5.2,2.8c-0.5,0.4-0.8,0-1-0.4c-0.4-0.9-0.8-1.9-1.2-2.9
		c-0.2-0.6-0.1-1,0.6-1.3c2.7-1.1,5.4-2.3,8.2-3.2c1.4-0.5,2.5-1.4,3.8-2c0.2-0.1,0.4-0.1,0.4-0.4c0-0.3-0.2-0.4-0.4-0.4
		c-1.4-0.4-2.3-1.4-3.2-2.5c-0.4-0.5-0.7-1-0.8-1.6c-0.5-1.4-0.3-1.9,1.1-2.5c2.1-0.9,4.1-2.1,6-3.4c0.6-0.4,1-0.5,1.4,0.3
		c0.9,1.4,1.4,2.9,1.7,4.6c0.1,0.5,0.1,0.8,0.8,0.6c2.4-0.8,4.9-1.5,7.2-2.7c1.5-0.8,3.2-0.7,4.7,0.2c1.4,0.9,2.9,1.7,3.7,3.3
		c0.3,0.6,1.1,0.8,1.5,1.4c0.6,0.9,0.5,1.6-0.5,2c-0.9,0.3-1.7,0.2-2.5-0.4c-1.1-0.9-2.4-1.7-3.6-2.4c-0.7-0.4-1.2-0.4-2,0
		C52.2,48.1,50.4,49,48.2,49.7z M27.6,59.1c0.8-0.5,1.4-1.1,2.1-1.4c1.4-0.6,2.8-0.9,4.1-1.5c1.6-0.7,3.2-1.5,4.9-1.9
		c1.2-0.3,2.5,0.8,2.3,2c-0.3,1.4,0.1,2.5,1,3.6c1,1.2,1.9,2.6,2.7,3.9c1.4,2.2,2.6,4.6,2.9,7.3c0.3,2.1,0.6,4.1-0.8,6
		c-0.5,0.6-0.8,1.4-0.9,2.1c-0.2,0.6,0,1.1,0.5,1.6c1.4,1.2,1.9,1.3,3.8,0.2c1.2-0.7,2.2-0.5,3.3,0.1c0.3,0.2,0.6,0.3,0.9,0.5
		c0.9,0.5,1.7,0.6,2.7-0.1c2.4-1.8,5.2-2.7,8.1-3c1.7-0.2,3.4,0.2,4.7,1.1c2.9,1.9,6.1,3.5,9,5.5c0.9,0.6,1.3,1.5,2.2,2.1
		c0.4,0.3,0.8,0.4,1.3,0.1c2.3-1.5,2.5-2.9,0.4-4.8c-0.4-0.4-0.8-0.8-1.3-1.1c-2.6-1.7-5.3-3.2-8.1-4.7c-0.7-0.4-1.5-1.1-2.2-1.1
		c-1-0.1-1.8-0.5-2.5-1c-3.3-2.3-6.6-4.7-9.9-7.1c-1.1-0.8-2.2-1.7-2.7-3c-1-2.5-2.2-4.9-3.8-7.1c-1.7-2.2-2.4-5-5-6.6
		c-1-0.6-0.9-1.1,0.1-1.9c0.1-0.1,0.3-0.2,0.5-0.2c1.7-0.8,3.5-1.3,5-2.5c1.1-0.9,2.5-0.8,3.7,0c1.1,0.8,2.5,1.4,3.5,2.4
		c0.5,0.5,0.9,0.2,1.3-0.1c0.5-0.4-0.1-0.7-0.3-0.8c-0.8-0.6-1.3-1.4-1.9-2.2c-1.5-1.9-3.6-2.7-5.4-1.9c-3.1,1.3-6.3,2.4-9.5,3.5
		c-0.5,0.2-0.9,0.3-1.3,0c-0.5-0.4-0.2-0.9,0-1.2c0.8-1.5,0.1-2.8-0.4-4.2c-0.1-0.3-0.3-0.6-0.8-0.4c-2.1,1.1-4.1,2.2-6.2,3.3
		c-0.5,0.2-0.4,0.5-0.3,0.9c0.6,1.6,1.6,2.7,3.3,3.2c1,0.2,1.2,1.1,1.5,1.8c0.1,0.3,0,0.6-0.3,0.8c-1.1,0.7-2.2,1.5-3.4,2
		c-2.9,1.1-5.8,2.5-8.7,3.7c-0.7,0.3-0.9,0.6-0.5,1.3C27.5,58.5,27.5,58.8,27.6,59.1z"/>
	<path d="M12,117c2.9,0,5.7,0.4,8.5,1c2.1,0.5,4.4,0.7,6.5,1.1c2,0.4,4,0.7,6,1.2c1.9,0.5,3.8,0.4,5.7,0.8c2.1,0.4,4.3,0.8,6.4,1.4
		c1,0.3,2.1,0.4,3.1,0.7c3.1,1,6.3,1.7,9.6,2.2c3,0.5,6,1.3,9,1.8c2.8,0.4,5.5,1.1,8.2,1.8c2.4,0.6,4.9,0.5,7.2,1.1
		c1.4,0.4,2.9,0.8,4.1,1.6c1.4,1,2,2.7,2.2,4.5c0.2,2.1-0.2,4.1-0.3,6.2c-0.1,3.8-0.7,7.5-1,11.3c-0.2,2-0.4,4-0.6,6
		c-0.2,1.4-0.3,1.3-1.7,1.2c-2-0.3-3.6-1.6-5.6-1.7c-1.1-0.1-2.3-0.3-3.4-0.5c-0.5-0.1-0.8,0.1-1,0.5c-1.2,2.5-3.3,3.7-5.8,4.3
		c-1,0.3-2.1-0.4-3-0.8c-1.6-0.8-2.7-2-3.2-3.8c-0.7-2.7,1.4-7.5,4-8.6c1.2-0.5,2.5-0.2,3.7-0.4c1.3-0.2,2.3,0.2,3,1.4
		c0.1,0.2,0.3,0.4,0.5,0.4c2.1,0.7,2,2.4,1.7,4.1c-0.3,2.1-0.3,1.9,1.8,2.3c2.2,0.5,4.4,0.1,6.5,1.1c0.7,0.3,1.1,0.1,1.2-0.7
		c0.3-3.8,0.7-7.5,1-11.3c0.3-3.1,0.5-6.1,0.7-9.2c0.1-0.9,0.1-1.9-0.1-2.8c-0.3-1.3-1-2.3-2.4-2.8c-2-0.8-4.1-1.2-6.3-1.3
		c-2.5-0.2-4.9-1.1-7.3-1.6c-6.9-1.4-13.7-2.8-20.6-4.4c-4.2-0.9-8.3-2.2-12.5-2.8c-7.6-1.1-15.1-2.8-22.6-4.2
		c-1.5-0.3-3.1-0.3-4.7-0.1c-1.5,0.2-2.4,1.1-3.1,2.3c-0.9,1.7-1.4,3.4-1.3,5.3c0.1,1.1-0.5,2.2-0.7,3.2c-0.9,4-2.3,7.9-3,11.9
		c-0.2,1.3-0.4,2.6-0.8,3.9c-0.2,0.6,0,0.8,0.6,0.8c1.8,0.2,3.7,0.4,5.5,0.5c0.3,0,0.6,0,0.9,0.1c0.3,0.1,0.5,0.2,0.4,0.6
		C9.3,146.9,9,147,8.8,147c-0.8,0-1.6,0-2.3-0.1c-1.3-0.1-2.5-0.3-3.8-0.5c-0.5-0.1-0.9-0.2-1.4,0.2c-0.3,0.2-0.8,0.3-1.1-0.1
		c-0.2-0.3-0.3-0.6-0.1-1.1c0.7-1.2,0.8-2.5,1.1-3.8c0.5-3,1.6-5.9,2.3-8.8c0.6-2.7,1.7-5.3,1.8-8.1c0-2.1,0.9-4,2-5.8
		c0.7-1.1,1.8-1.6,3.1-1.8C10.9,117,11.5,117,12,117z M63.9,156.7c0,3.1,2.7,5.9,5.1,5.6c4.1-0.5,5.9-3.1,6-7c0-1-0.1-2.2-1.6-2.3
		c-0.2,0-0.3-0.3-0.5-0.4c-1.4-1.4-5.1-1.7-6.7-0.6c-0.2,0.2-0.4,0.3-0.6,0.5C64.6,153.8,64.1,155.4,63.9,156.7z"/>
	<path d="M85.7,139c-0.2,1.3-0.2,3.5-1.2,5.6c-0.4,0.9-1.2,0.6-1.8,0.4c-1.6-0.4-3.3-0.7-4.9-1c-1.7-0.3-3.4-0.4-5.1-0.9
		c-1.7-0.5-3.3-0.9-5.1-1c-2.8-0.1-5.4-1.2-8.2-1.4c-1.8-0.1-3.6-0.6-5.3-1.3c-1.4-0.5-2.8-0.5-4.3-0.7c-1.8-0.1-3.7-0.6-5.5-0.6
		c-1.1,0-1.9-1.4-1.3-2.6c0.8-1.8,0.7-3.7,0.9-5.5c0.1-1.4,0.1-1.5,1.4-1.2c2.8,0.5,5.7,0.5,8.5,0.7c0.9,0.1,1.7,0.4,2.5,0.5
		c2.5,0.5,5.1,0.8,7.6,1.3c1.5,0.3,3,0.7,4.5,1c0.4,0.1,0.9,0.1,1.3,0.1c1.9-0.1,3.6,0.5,5.4,0.7c0.9,0.1,1.9,0.2,2.8,0.4
		c1.3,0.3,2.6,0.5,3.9,0.5C84,134,86.1,135.4,85.7,139z M84.2,138.1c0-1.6-0.6-2.3-1.7-2.5c-0.8-0.2-1.7-0.1-2.5-0.3
		c-2.4-0.7-4.8-0.8-7.2-1.2c-2.7-0.4-5.3-0.9-8-1.3c-2.6-0.4-5.2-0.6-7.7-1.2c-3.7-0.9-7.6-0.8-11.3-1.3c-0.4-0.1-0.8,0.1-0.7,0.6
		c0.2,1.6-0.3,3.2-0.5,4.7c-0.1,0.7,0.1,0.9,0.8,0.9c2.7,0.2,5.5,0.4,8.1,1.3c3,1,6.2,1.3,9.3,1.9c1.7,0.3,3.5,0.7,5.2,1
		c1.7,0.3,3.5,0.5,5.2,0.8c3.1,0.5,6.2,1.1,9.2,1.6c0.4,0.1,0.7,0.1,0.9-0.5C83.7,141.1,84.1,139.5,84.2,138.1z"/>
	<path d="M210.9,33.8c-2.8-0.6-5.7-0.6-8.5-1.6c-1-0.3-2-0.3-3-0.4c-2.3-0.2-4.5-0.8-6.7-1.4c-2.6-0.7-5.2-0.8-7.8-1.5
		c-3.2-0.8-6.5-1.2-9.6-2.2c-1.6-0.5-1.9-1.3-1.2-2.8c1-2.5,3-4.1,4.8-5.8c2.1-1.9,4.7-2.3,7.5-1.5c2.9,0.7,5.7,1.6,8.6,2.2
		c2.9,0.5,5.6,1.5,8.3,2.5c1.2,0.4,2,1.4,2.6,2.4c1.1,1.6,2.7,2.8,3.6,4.5c0.7,1.3,1.9,1.8,2.7,2.8c0.4,0.5,1.2,0.8,0.7,1.7
		C212.4,33.5,211.9,34,210.9,33.8z M211.4,32.4c-0.8-0.7-1.6-1.1-2.1-1.8c-1.3-2-3.1-3.7-4.4-5.7c-0.9-1.4-2.3-2.3-3.8-2.9
		c-2.5-1-5.1-1.4-7.7-2.1c-2.7-0.7-5.4-1.7-8.2-2.2c-1.4-0.2-2.8-0.6-4.2,0.2c-2.4,1.3-4.2,3.3-5.6,5.6c-0.9,1.4-0.8,1.8,0.8,2.3
		c3.4,1,6.9,1.4,10.4,2.4c1.7,0.5,3.5,0.5,5.2,0.9c4.3,1.1,8.6,1.7,13,2.4C206.9,31.9,209,32.4,211.4,32.4z"/>
	<path d="M30.7,146.1c0.2,0,0.7,0.1,1.2,0.2c1.2,0.3,2.3,0.7,3.6,0.7c0.3,0,0.7,0,1,0.3c0.2,0.2,0.6,0.4,0.4,0.8
		c-0.2,0.4-0.5,0.5-0.9,0.4c-3.7-1-7.5-1.1-11.2-1.9c-1.1-0.2-1.3-0.7-1.2-1.7c0.5-2.9,1.4-5.7,1.9-8.6c0.5-2.5,0.8-5,1.3-7.4
		c0.2-0.9,0.3-1.8,0.4-2.6c0.1-0.3,0.1-0.7,0.6-0.5c2,0.9,4.2,0.6,6.3,1c2.1,0.4,4.2,0.5,6.2,1.3c1.3,0.4,1.9,1.5,1.7,3.3
		c-0.1,1.1-0.4,2.2-0.7,3.3c-0.3,1.1-0.3,2.3-0.6,3.4c-0.3,1.6-0.7,3.2-1,4.8c-0.3,1.6-0.7,3.2-0.9,4.8c-0.1,0.7-0.4,0.9-0.9,0.9
		c-0.6-0.1-0.7-0.6-0.6-1.1c0.5-2.2,0.9-4.4,1.4-6.5c0.8-3.3,1.2-6.6,1.7-9.9c0.2-1.4,0-1.7-1.5-1.9c-2.5-0.4-5.1-0.7-7.6-1.1
		c-0.8-0.1-1.5-0.3-2.3-0.5c-0.6-0.2-0.8-0.3-0.9,0.6c-0.1,1.8-0.6,3.5-0.9,5.3c-0.2,1.2-0.3,2.5-0.5,3.7c-0.6,2.4-1.1,4.7-1.4,7.2
		c-0.1,0.9,0.1,1.3,1,1.4C27.8,145.6,29.1,146.3,30.7,146.1z"/>
	<path d="M26.9,194.1c4.1,0.2,8.4,0.7,12.7,1.7c1.4,0.3,2.9,0.5,4.1,1.1c1.7,0.9,3.5,1.8,5,3.1c1.9,1.8,3.3,3.8,3.8,6.3
		c0.2,1,0.7,2,0.4,3.1c-0.2,0.8-0.6,1-1.3,1c-5.2-0.4-10.5-1-15.7-1.3c-2.7-0.2-5.4-0.1-8-0.6c-0.8-0.1-1.7-0.1-2.5-0.1
		c-1.1-0.1-1.6-0.7-1.5-1.7c0.3-3.9,0.7-7.7,1.6-11.5C25.5,194.6,25.6,193.8,26.9,194.1z M50.2,208.7c1.6,0.1,1.6,0.1,1.5-0.5
		c-0.7-5-3.8-8-8.2-10c-2.3-1-4.8-1.4-7.3-1.9c-2.9-0.6-5.9-0.8-8.8-0.9c-0.5,0-0.8,0.1-1.1,0.7c-0.3,0.7-0.2,1.5-0.4,2.1
		c-0.9,2.6-0.6,5.3-0.9,8c-0.1,0.5,0.2,0.6,0.7,0.8c0.9,0.2,1.9-0.1,2.8,0.2c2,0.7,4.2,0.3,6.3,0.5c2.1,0.3,4.3,0.2,6.5,0.3
		C44.3,208.1,47.4,208.5,50.2,208.7z"/>
	<path d="M13.6,78.3c-2.2,0.2-3.8-0.7-5.4-1.5C6,75.6,4,74,2.7,71.7c-0.9-1.5-1.2-3.3-1.1-4.9c0.3-3.6,1.2-7.1,3.3-10.1
		c1.4-2,3.7-3,6-3.6c0.8-0.2,1.6-0.2,2.4-0.3c1.4-0.1,2.7,0.3,3.8,1.2c1.2,1,2.7,1.6,3.9,2.5c2.1,1.6,4.1,3.5,4.4,6.4
		c0,0,0,0.1,0,0.1c0.9,3.9,0.1,7.6-1.9,10.9c-1.3,2.1-3.5,3.1-5.9,3.8C16.3,78.2,14.8,78.2,13.6,78.3z M24.5,66
		c0.1-2.3-0.5-5-2.8-7.1c-1.2-1.1-2.5-2.1-3.9-2.9c-1.8-1-3.7-2.1-6.1-1.7c-3,0.6-5.3,1.8-6.7,4.7c-0.6,1.4-0.9,2.9-1.4,4.3
		c-1.2,3.4-1.1,6.8,1.5,9.6C8,76,11.6,78,16.2,77c3-0.6,5.7-1.6,7.1-4.8C24.2,70.4,24.4,68.5,24.5,66z"/>
	<path d="M67,108.4c-3.1-0.1-5.8-0.7-8-2.4c-2.4-1.8-3.7-4.4-4.1-7.4c-0.1-0.5-0.1-1-0.2-1.4c-0.8-3,0.5-6.2,2.9-8.1
		c1.5-1.2,3-2.4,4.6-3.4c1.1-0.6,2.6-1,3.5-0.6c1.7,0.7,3.3,0.1,4.9,0.5c2,0.4,3.6,1.4,4.9,2.8c2.1,2.2,3.4,5,4,7.9
		c0.6,2.8-0.6,5.4-2.1,7.8c-1.9,3-4.8,3.8-8,4.1C68.5,108.2,67.7,108.5,67,108.4z M64.6,85.8c-2.5,1-4.5,2.6-6.4,4.3
		c-1.7,1.5-2.6,3.5-2.3,5.9c0.2,1.6,0.5,3.2,1,4.8c0.7,2.3,2,4.1,4.2,5.3c2.6,1.4,5.4,1.7,8.4,1.3c3.7-0.6,6.2-2.5,7.7-5.8
		c0.6-1.4,1.1-2.8,1-4.4c-0.2-2.5-1.3-4.6-2.6-6.7c-2.4-3.9-6.1-5.4-10.6-3.7c-0.2,0.1-0.6,0.3-0.7,0.1
		C63.8,86.3,64.6,86.3,64.6,85.8z"/>
	<path d="M9.6,147.7c0-3.2,2.2-5.8,4.9-7c4.3-1.8,7.2,2.3,7.1,5.6c0,1.7-0.1,1.7,1.6,2c4.8,0.8,9.5,1.6,14.2,2.6
		c4.1,0.9,8.3,1.4,12.3,2.5c3.1,0.8,6.4,1,9.6,1.5c0.6,0.1,1.3,0.2,1.9,0.3c0.3,0,0.6,0.2,0.6,0.6c0,0.4-0.4,0.4-0.7,0.4
		c-2.7-0.5-5.5-0.6-8.3-1.2c-2.9-0.6-5.8-1.3-8.7-1.9c-3.6-0.6-7.2-1.3-10.7-2.1c-3.9-0.8-7.7-1.4-11.6-2c-0.3-0.1-0.6-0.1-0.9,0.3
		c-1.1,1.9-2.8,3.1-4.9,3.7c-1.2,0.4-5-0.8-5.5-1.9C10.1,150,9.2,148.8,9.6,147.7z M10.5,146.8c-0.1,1.5,0.2,2.9,1.5,4
		c2.3,1.9,5.9,1.5,7.8-1.1c1.1-1.5,1.3-5.5-1-7.3c-0.6-0.4-1.1-0.9-1.8-1C13.9,140.9,10.2,143.7,10.5,146.8z"/>
	<path d="M25.5,126.9c-0.5,2.3-0.9,4.7-1.8,6.9c-0.2,0.4-0.5,0.7-1,0.8c-1.8,0.1-3.7,0.1-5.3-0.8c-1.3-0.7-2.6-0.7-4-0.8
		c-1.3-0.1-2.4-0.5-3.6-0.9c-0.9-0.3-1.7-2.4-1.5-3.5c0.3-2.1,0.5-4.1,0.8-6.2c0.1-0.8,0.5-0.8,1.1-0.6c2.5,0.9,5,1.2,7.6,1.6
		c2.2,0.4,4.4,1,6.5,1.6C25,125.3,25.6,125.9,25.5,126.9z M9.7,128.5c0,2.1,0,2.1,1.5,2.6c0.3,0.1,0.6,0.1,1,0.2
		c1.6,0.3,3.3,0.3,4.8,0.8c1.5,0.5,3.1,0.9,4.6,1.1c0.6,0.1,0.9-0.1,1.1-0.8c0.3-1.5,0.6-3,1-4.5c0.3-1.4,0.2-1.6-1.2-1.9
		c-3.8-0.8-7.6-1.5-11.4-2.3c-0.5-0.1-0.5,0-0.7,0.5C9.7,125.8,9.9,127.4,9.7,128.5z"/>
	<path d="M93.6,45.7c-0.1-2.9,1.1-4.5,3.6-5.7c1.8-0.8,3.6-1,5.5-1.2c1.8-0.1,3.2,0.6,4.1,2.3c0.9,2,2,3.9,1.5,6.2
		c-0.1,0.3-0.1,0.6-0.3,0.9c-1.6,2-3.5,3.7-5.9,4.4c-2.7,0.7-6.5-0.4-7.8-3.6C93.8,48,93.4,46.8,93.6,45.7z M94.4,46.2
		c0,0.8,0.1,1.6,0.5,2.4c1.2,2.2,4.4,3.5,6.8,2.7c1.8-0.6,3.4-1.7,4.7-3.1c0.2-0.3,0.4-0.6,0.6-0.9c0.7-1.5-0.2-5.1-1.5-6.1
		c-0.3-0.2-0.5-0.4-0.9-0.4c-2.6-0.5-5.1-0.4-7.4,0.9C95.5,42.6,94.2,44,94.4,46.2z"/>
	<path d="M188.4,201c0.5-1.4,1.2-2.6,3-2.9c2.2-0.4,4.3,1.6,4.3,3.8c0,2.3-0.3,2.9-1.9,3.5c-1.9,0.7-3.3,0.3-4.5-1.2
		c-0.6-0.7-0.8-0.7-1.1,0.2c-0.2,0.6-0.7,0.9-1.3,1.1c-2.1,0.6-5-0.7-5.9-2.7c-0.7-1.6,0.2-3.4,1.6-4.6c1.5-1.2,2.7-0.7,4.1,0
		c0.8,0.5,1.5,1.1,1.5,2.1C188,200.6,188.1,200.9,188.4,201z M184.7,198.8c-1.5,0-2.8,1.5-2.8,3.1c0,1.5,1.4,2.5,3.4,2.5
		c1.1,0,2.1-1,2.2-2.2C187.6,200.3,186.4,198.8,184.7,198.8z M189.6,202.2c0,1.4,1,2.5,2.2,2.5c1.9,0,2.8-1.1,2.7-3.7
		c0-0.7-1.2-1.5-2.2-1.4C190.7,199.6,189.6,200.7,189.6,202.2z"/>
	<path d="M172.4,52.5c-2.3,0.1-4.5-0.4-6.1-1.9c-2.9-2.8-3.3-6.4-0.9-10.1c0.4-0.6,0.8-1.3,1.2-1.9c0.2-0.3,0.4-0.7,0.7-1
		c1.7-1.7,6.9-1.9,8.8-0.3c1.2,1,2.4,2.1,3.2,3.5c1,1.7,1.4,3.5,0.7,5.4c-0.8,2.1-1.9,4-3.8,5.3C175,52.4,173.7,52.5,172.4,52.5z
		 M171.6,51.3c1.6-0.2,3.1,0,4.4-0.8c2.1-1.3,3.7-4.2,3.4-6.4c-0.4-2.5-3.5-6.1-5.7-6.5c-2.7-0.4-5.3-0.2-7.2,2.2
		c-2.4,3.2-2.8,6.4-0.3,9.3C167.7,50.8,169.7,51,171.6,51.3z"/>
	<path d="M228.5,48.3c3.7,0,7.5,2.4,8.6,5.5c0.6,1.7,0.6,3.5-0.4,5.2c-1.4,2.4-3.3,4.2-6.3,4.4c-2.8,0.1-4.9-1-6.6-3.2
		c-1-1.3-1.6-2.7-1.9-4.3c-0.4-2,0-3.7,1.7-5.1c0.9-0.7,1.5-1.6,2.7-2.1C227.1,48.5,227.8,48.2,228.5,48.3z M228.6,49.5
		c-2.1-0.1-3.5,1.2-4.9,2.4c-0.8,0.7-1.2,1.6-1.1,2.5c0.1,1.5,0.3,3,1.2,4.4c1.8,2.9,4.7,4.3,8.7,3.1c2.9-0.9,5.3-4.1,3.6-7.5
		C234.5,51.2,231.7,50,228.6,49.5z"/>
	<path d="M207,202.5c0-2.4,2.7-4.3,4.9-3.6c1.4,0.4,1.8,1.7,2.2,2.9c0.4,1.4,0.4,3.5-0.7,4c-1.3,0.5-2.6,1.1-4.1,0.4
		C207.9,205.5,207,204,207,202.5z M210.6,205.2c1.9,0,2.8-0.8,2.8-2.4c0-1.4-0.8-2.7-1.7-2.6c-2,0-3.7,1.5-3.7,3.4
		C208,204.7,208.8,205.2,210.6,205.2z"/>
	<path d="M221.9,202.5c0.1,1.7-1.4,3.9-2.8,4.1c-1.9,0.3-4.1-1-4.6-3c-0.3-1,0.1-1.9,0.7-2.7c1.3-1.9,4.1-2.4,5.9-1
		C221.9,200.6,221.9,201.6,221.9,202.5z M221.1,202c0-0.9-0.9-1.5-2.5-1.5c-1.5,0-3.2,1.7-3.2,3.2c0,0.9,1.3,1.9,2.5,1.9
		C219.5,205.6,221.1,203.8,221.1,202z"/>
	<path d="M112.4,98.6c0.1-2.3-0.4-4.2-0.7-6.2c-0.1-0.6-0.1-1.2-0.2-1.8c-0.1-0.7,0.3-1.1,1-1.2c2.2-0.2,4.4-0.9,6.6-1
		c3-0.1,6-0.9,9-1.1c2.5-0.2,5.1-0.7,7.6-1.3c3-0.6,6-1.1,9.1-0.7c0.7,0.1,1,0.4,1.2,1.1c0.5,1.5,0.6,3,1,4.4c0.6,2,1,4.1,1.5,6.1
		c0.2,0.8,0.1,1.6,0,2.4c-0.2,0.8-0.6,1.3-1.5,1.7c-3,1.3-6.1,1.8-9.2,2.4c-3.1,0.6-6.3,1.1-9.5,1.5c-2,0.3-3.8,0.8-5.8,1.2
		c-1.5,0.3-2.9,0.5-4.4,0.6c-2.8,0.3-5.1-1.5-5.4-4.4C112.6,101,112.3,99.7,112.4,98.6z M113.3,97.9c0,0.6-0.1,1.2,0,1.8
		c0.2,1.4,0.1,2.8,0.8,4.1c1.2,2,3.2,2.1,5.1,1.8c4.7-0.7,9.3-1.9,14.1-2.6c3.7-0.5,7.3-1.4,10.8-2.4c3.5-1,3.4-0.9,2.6-4.7
		c-0.5-2.5-1.4-4.9-1.6-7.5c-0.1-1.5-0.7-1.9-2.3-1.7c-2.4,0.3-4.8,0.3-7.2,0.8c-2.7,0.5-5.3,1.2-8.1,1.4c-2.6,0.2-5.2,0.5-7.8,1.1
		c-1.9,0.4-4,0.3-5.9,0.8c-1.3,0.3-1.5,0.5-1.2,1.8C113.1,94.2,113.3,96,113.3,97.9z"/>
	<path d="M146.5,128.6c-0.5,0-1.2-0.4-1.2,0.6c0,0.4-0.5,0.4-0.8,0c-0.8-1-1.1-2.2-1.6-3.3c-0.2-0.5-0.3-0.9-0.7-1.4
		c-0.4-0.5-0.4-1.2,0.5-1.4c1.4-0.3,2.7-0.9,4.1-1c0.3,0,0.6,0,0.7-0.4c0-0.3,0.3-0.5,0.4-0.3c0.9,1,1.8,0.1,2.6,0
		c0.3,0,0.5-0.1,0.8-0.2c1.7-0.2,1.6-0.2,2,1.4c0.2,0.7,0.5,1.5,0.6,2.2c0.1,1.5-0.2,2-1.5,2.6C150.6,128.2,148.5,128,146.5,128.6z
		 M152.7,125.2c-0.1-1.6-0.6-2.4-1.6-2.2c-2.1,0.3-4.2,0.7-6.3,1.1c-0.7,0.1-1.3,0.4-0.8,1.4c0.2,0.5,0.6,0.9,0.6,1.5
		c0,0.3,0.2,0.4,0.5,0.3c2.1-0.4,4.3-0.7,6.4-1.1C152.1,126,152.6,125.6,152.7,125.2z"/>
	<path d="M123.8,128.1c0-1.3-0.3-1.6-1.6-1.5c-2.2,0.1-4.2,1-6.3,1.1c-0.1,0-0.1,0-0.2,0c-0.6,0.2-1.3,0.1-1.4-0.5
		c-0.2-0.7,0.6-0.8,1.1-1c1-0.2,1.9-0.5,2.9-0.4c1.5,0.1,2.9-0.7,4.3-0.9c1.1-0.2,1.5,0.4,1.8,1.1c0.3,0.6,0.4,1.4,0.5,2.1
		c0.3,2,0.1,2.5-1.8,2.9c-2.5,0.5-5,0.9-7.5,1.3c-0.4,0.1-0.8-0.2-1-0.6c-0.7-1.1-1.1-2.3-1.6-3.5c-0.2-0.4-0.2-0.9,0.2-1.1
		c0.5-0.2,0.7,0.4,0.8,0.7c0.4,0.8,0.7,1.5,1,2.3c0.2,0.6,0.6,0.8,1.1,0.6c1.9-0.6,3.9-0.5,5.8-0.7
		C122.9,130.1,123.8,129,123.8,128.1z"/>
	<path d="M182.5,184.8c0-2.3,0-4.6,0-6.9c0-1.4,0.3-2.7,0.4-4.1c0-0.2,0.1-0.6,0.3-0.5c1.3,0.4,2-1.3,3.4-0.7c1.1,0.5,2.4,0,3.7,0.1
		c2,0.1,4.1,0.2,6.1,0.1c3,0,6-0.3,9-0.1c3.9,0.2,7.8,0.1,11.7,0.3c1.7,0.1,3.4,0.2,5.1,0.3c0.4,0,0.8-0.5,1.1-0.2
		c0.4,0.4,0.9,0.5,0.8,1.5c-0.3,1.9,0,3.9-0.1,5.9c0,1-0.2,2-0.3,3c-0.2,1.7,0.2,3.4-0.1,5.1c-0.1,0.7-0.1,1.2-1.2,1.2
		c-2.2-0.1-4.5-0.2-6.7-0.4c-2-0.1-4.1,0-6.1-0.6c-1.2-0.3-2.3,0.1-3.5,0c-2.7-0.1-5.4-0.3-8.2-0.5c-2.7-0.2-5.3-0.7-8-0.5
		c-1.8,0.1-3.5-0.3-5.2-0.2c-1.6,0.1-1.9-0.2-1.9-1.9c0-0.3,0-0.6-0.1-0.9C182.6,184.8,182.6,184.8,182.5,184.8z M222.9,177.2
		c0-0.5,0.2-1.5-0.1-2.2c-0.4-1-1.5-0.4-2.3-0.4c-1.9,0-3.7-0.6-5.6-0.3c-0.8,0.1-0.9,0.3-0.8,0.9c0.3,1.7,0.1,3.5,0,5.2
		c-0.1,2.3,0.1,4.7,0,7c0,0.5,0.1,0.6,0.6,0.7c2.3,0.1,4.5,0.4,6.8,0.4c0.8,0,1.1-0.3,1.1-1.1c0-0.9,0-1.8,0-2.8
		C222.5,182.2,223.2,179.9,222.9,177.2z M201.7,187.2c0.2-0.1,0.8,0.4,0.9-0.3c0.5-2.1,0.7-4.3,0.7-6.4c0-1.5,0-3,0.2-4.5
		c0.2-1.7-0.4-2.3-2.1-2.2c-0.1,0-0.2,0-0.3,0c-1.9,0.1-3.7,0.3-5.6,0.3c-1.4,0-1.4-0.1-1.4,1.3c-0.1,3.6,0.7,7.3,0,10.9
		c-0.1,0.5,0.2,0.5,0.6,0.5C196.9,186.9,199.2,187.4,201.7,187.2z M183.9,185c0.1,0,0.2-0.1,0.4-0.1c-0.5,1.4,0,1.5,1.2,1.5
		c2.2,0,4.5,0.1,6.7,0.2c0.3,0,0.6,0,0.6-0.4c-0.1-2.2,0.6-4.2,0.3-6.5c-0.2-1.5-0.4-3.1-0.1-4.7c0.1-0.6-0.2-0.9-0.9-1
		c-0.6,0-1.2,0-1.9-0.1c-0.8-0.1-1.7-0.3-2.4-0.2c-0.9,0.1-1.8,0.1-2.7,0.1c-0.5,0-0.9,0.2-1,0.8c-0.1,1.1-0.3,2.1-0.3,3.2
		C183.8,180.3,183.9,182.7,183.9,185z M213.4,187.9c-0.9-0.4-1.1-0.9-0.9-1.8c0.2-1.1,0.4-2.2,0.2-3.3c-0.1-0.7-0.3-1.3-0.1-2
		c0.4-1.3,0-2.6,0.3-3.9c0.1-0.6,0-1.3-0.1-1.9c0-0.4-0.3-0.7-0.7-0.7c-2.3-0.1-4.6-0.2-6.8-0.2c-0.3,0-0.6,0.1-0.6,0.5
		c0,1.4-0.1,2.7-0.2,4.1c-0.1,2.5,0,5-0.5,7.5c-0.2,0.9,0.2,1.3,1.1,1.3C207.9,187.4,210.6,187.9,213.4,187.9z"/>
	<path d="M197,98.5c-0.4,0-0.6-0.2-0.7-0.5c-0.1-0.3,0.1-0.4,0.3-0.5c1.2-0.5,2.5-1,3.7-1.5c0.3-0.1,0.5,0,0.7,0.2
		c0.1,0.2,0.1,0.5-0.1,0.6C199.6,97.6,198.2,97.8,197,98.5z"/>
	<path d="M190.4,101.6c-0.5,0-0.7-0.2-0.8-0.5c-0.2-0.4,0.2-0.5,0.4-0.6c0.8-0.4,1.7-0.8,2.5-1.2c0.4-0.2,0.8-0.3,1,0.2
		c0.2,0.5-0.1,0.7-0.5,0.9C192.1,100.9,191.2,101.3,190.4,101.6z"/>
	<path d="M183.1,111c0.4,0,0.6,0,0.7,0.3c0.1,0.3,0,0.5-0.3,0.6c-1.2,0.4-2.3,0.9-3.5,1.5c-0.3,0.2-0.6,0.1-0.8-0.2
		c-0.2-0.3-0.1-0.5,0.2-0.7C180.6,111.7,182.1,111.8,183.1,111z"/>
	<path d="M223.3,95.1c-0.7,0.1-0.9-0.1-1-0.4c-0.1-0.4,0.3-0.5,0.5-0.6c0.8-0.3,1.6-0.6,2.5-0.9c0.3-0.1,0.7-0.2,0.9,0.2
		c0.2,0.4-0.1,0.8-0.4,0.9C224.8,94.6,223.9,94.9,223.3,95.1z"/>
	<path d="M186.9,110.9c-0.6,0.1-0.9,0-1-0.3c-0.1-0.4,0.3-0.5,0.5-0.6c1-0.4,1.9-0.9,2.9-1.4c0.3-0.1,0.6-0.3,0.8,0
		c0.2,0.3-0.1,0.6-0.3,0.7C189,110.1,187.9,110.6,186.9,110.9z"/>
	<path d="M217.5,96.2c-0.3,1-1,1.4-1.8,1.6c-0.5,0.1-0.9,0.4-1.4,0.6c-0.3,0.2-0.6,0.1-0.8-0.2c-0.2-0.2-0.3-0.5,0-0.7
		C214.8,97.1,216,96.2,217.5,96.2z"/>
	<path d="M206.4,101.5c-0.3,0-0.5-0.2-0.5-0.4c-0.1-0.4,0.1-0.6,0.4-0.7c0.8-0.4,1.6-0.8,2.4-1.1c0.3-0.1,0.6-0.3,0.8,0
		c0.2,0.2,0,0.6-0.2,0.7C208.3,100.5,207.3,101,206.4,101.5z"/>
	<path d="M203.8,102.7c-0.1,0.3-0.2,0.6-0.5,0.7c-0.8,0.3-1.5,0.6-2.3,0.8c-0.4,0.1-0.7,0-0.8-0.4c-0.2-0.5,0.3-0.5,0.6-0.6
		c0.8-0.3,1.6-0.6,2.4-0.9C203.4,102.2,203.7,102.2,203.8,102.7z"/>
	<path d="M193.6,107c-0.4,0-0.7,0-0.7-0.3c0-0.3,0.2-0.4,0.4-0.4c1.1-0.4,2.2-0.6,3.2-1.2c0.2-0.1,0.5-0.1,0.6,0.2
		c0.1,0.3,0,0.5-0.3,0.6C195.8,106.4,194.6,106.8,193.6,107z"/>
	<path d="M206,93.8c-0.1,0.3-0.2,0.6-0.5,0.8c-0.6,0.3-1.2,0.5-1.9,0.7c-0.4,0.1-0.6-0.1-0.8-0.4c-0.2-0.4,0.1-0.5,0.4-0.7
		c0.6-0.3,1.3-0.6,1.9-0.8C205.7,93.2,206,93.3,206,93.8z"/>
	<path d="M84,26.3c1.7,0.1,3.8,0.4,5.9,0.4c2.7,0,5.4,0.2,8.1,0.3c1,0,1.9-0.2,2.6-0.9c0.5-0.5,1.1-0.9,1.6-1.3
		c0.7-0.6,1.2-1.4,1-2.4c-0.4-1.8,0-3.6-0.4-5.3c-0.1-0.3-0.1-0.7,0.4-0.8c0.4-0.1,0.4,0.3,0.5,0.6c0.5,1.2,0.4,2.5,0.4,3.8
		c0,1.4,0.5,2.8,0,4.2c-0.1,0.3-0.2,0.6-0.5,0.8c-2.4,2.3-5.2,3.1-8.4,2.6c-1.9-0.3-3.9-0.3-5.8-0.2c-1.8,0.1-3.6-0.6-5.4-0.4
		c-1.2,0.1-2.4,0.1-3.7,0c-2.1-0.1-3.4-1.3-3.4-3.6c0-2.1,0.1-4.2,0.8-6.2c0.5-1.4,1.4-2.3,3.4-2.7c2.2-0.4,4.4-0.4,6.6-0.6
		c2-0.2,4,0.4,6,0.3c1.9-0.1,3.9,0.1,5.9,0.4c0.8,0.1,1.5,0.3,2.3,0.6c0.6,0.2,0.7,0.7,0.8,1.2c0.1,0.3-0.1,0.5-0.4,0.4
		c-2.4-1.1-4.9-1.1-7.4-1.2c-1.7-0.1-3.5-0.3-5.2-0.4c-3.1-0.3-6.2-0.2-9.1,0.9c-1.4,0.5-2.1,1.8-2.1,3.2c-0.1,1.5-0.4,3-0.5,4.5
		c-0.1,1.1,0.4,1.6,1.3,1.7C80.6,26.2,82,26.5,84,26.3z"/>
	<path d="M130.4,21.6c-0.1,1-0.2,2-0.3,3c-0.1,1-1.2,1.6-2.5,1.6c-3.2,0.1-6.3-0.3-9.5-0.3c-1.2,0-2.4,0.1-3.7,0.1
		c-2.4,0-3.6-1.2-4-3.6c-0.2-1.4-0.3-2.8,0.1-4.2c0.4-1.2,0.9-2.3,1.8-3.2c0.5-0.6,1.3-0.2,1.9-0.2c1.5,0,3.1,0,4.6-0.2
		c1.8-0.2,3.6,0.1,5.4,0c2.2-0.2,3.7,0.9,4.6,2.5C129.8,18.4,130.6,19.9,130.4,21.6z M124.4,24.7c0.4,0,0.7,0,1.1,0
		c3.4-0.1,3.5,0.2,3.6-3.3c0-0.2,0.1-0.4,0.1-0.6c-0.2-2.6-1-4.3-3.7-4.6c-4-0.6-7.9-0.1-11.9,0.1c-0.4,0-0.6,0.2-0.8,0.5
		c-1.2,1.9-1.7,3.9-1.2,6.2c0.1,0.6,0.3,1.1,0.9,1.3c0.7,0.2,1.5,0.4,2.2,0.4C117.9,24.4,121.1,24.5,124.4,24.7z"/>
</g>
</svg>
