<?xml version="1.0" encoding="utf-8"?>
<!-- Generator: Adobe Illustrator 18.1.1, SVG Export Plug-In . SVG Version: 6.00 Build 0)  -->
<svg version="1.1" id="Ebene_1" xmlns="http://www.w3.org/2000/svg" xmlns:xlink="http://www.w3.org/1999/xlink" x="0px" y="0px"
	 width="250px" height="250px" viewBox="-18 -60 250 250" enable-background="new -18 -60 250 250" xml:space="preserve">
<g>
	<path d="M141,158.9c-1.3-3.1-3.4-5.1-6.3-6.1c-0.2-0.1-0.5-0.1-0.7-0.1c-0.2,0-0.5-0.1-0.7-0.1c-3.9-1.3-7.5-1.2-10.9,0.2
		c-0.3,0.1-0.5,0.2-0.6,0.2c-0.4,0-0.6-0.2-1-0.8c-0.9-1.4-1.7-3-2.5-4.4c-0.3-0.6-0.6-1.1-0.9-1.7c-0.7-1.4-1.5-2.9-2.2-4.5
		l-0.1-0.3c-0.9-2.1-1.9-4.2-2.6-6.3c-0.3-1-0.8-1.9-1.3-2.8c-0.6-1.1-1.1-2.2-1.5-3.3l-0.1-0.2c-0.2-0.8-0.5-1.8-1.5-2.2
		c-1.7-0.7-3.5-0.8-5.4-0.4c-0.2,0-0.7,0.2-0.6,0.6c0,0.3,0.3,0.6,0.7,0.6c0.5,0.1,1.1,0,1.6,0c0.2,0,0.3,0,0.5,0l0.3,0
		c0.2,0,0.4,0,0.6,0c1,0,1.7,0.3,2.2,1.5c0.6,1.7,1.4,3.3,2.1,4.9c0.5,1.2,1.1,2.3,1.5,3.5c0.1,0.3,0.2,0.5,0,0.7
		c-1.2,1.4-1.9,3.1-2.5,4.8c-0.2,0.4-0.3,0.8-0.5,1.3c-1.2,2.9-2.1,5.9-2.9,8.8c-0.5,1.7-1,3.5-1.6,5.2c-0.2,0.6-0.4,1.3-0.6,1.9
		c-0.5,1.6-1,3.3-1.9,4.9l0-0.1c-0.1-0.1-0.2-0.2-0.2-0.3c-3.4-4.8-6.5-9.9-8.8-13.7c-0.3-0.5-0.6-1-0.9-1.5c-1.4-2.3-2.8-4.7-4.3-7
		c-0.3-0.5-0.8-1-1.1-1.4c-0.5-0.5-0.9-1.1-1.3-1.7c-0.1-0.1-0.2-0.3-0.2-0.4c0,0,0.1-0.1,0.4-0.2c0.9-0.2,1.8-0.3,2.9-0.4l0,0
		c0.3,0,0.9,0,1.1-0.4c0.1-0.2,0.2-0.4,0.2-0.7c-0.1-0.5-0.4-1.1-1.4-1.1c-0.6,0-1.2,0.1-1.8,0.2c-0.4,0.1-0.8,0.2-1.3,0.2
		c-1.5,0.1-3,0.3-4.4,0.5c-0.4,0.1-0.8,0.1-1.2,0.2c-0.4,0-0.6,0.2-0.8,0.4c-0.2,0.2-0.2,0.5-0.2,0.9c0.1,0.6,0.4,0.9,0.9,0.9
		c0.1,0,0.2,0,0.4,0c0.5-0.1,0.9-0.1,1.4-0.2c0.4-0.1,0.8-0.1,1.3-0.2c0.6-0.1,1,0.1,1.3,0.6c0.4,0.8,1,1.6,1.6,2.2
		c0.5,0.6,1.1,1.3,1.5,2c0.2,0.4,0.2,0.6,0,0.9c-1,2.4-2.6,4.5-4,6.6c-1,1.4-2,2.9-2.9,4.4c-0.2,0.3-0.3,0.4-0.5,0.4
		c-0.1,0-0.2,0-0.4-0.1c-1.6-0.6-3.1-1-4.6-1.2c-0.5-0.1-1-0.1-1.5-0.1c-3.3,0-6.4,1.2-9.8,3.7c-3.2,2.4-4.7,4.8-4.8,7.9
		c0,0.3,0,0.5,0.1,0.8c0.1,0.6,0.2,1.2-0.3,1.5c-0.2,0.1-0.4,0.2-0.6,0.2c-0.3,0-0.5-0.1-0.8-0.1c-0.3-0.1-0.6-0.1-1-0.1
		c0,0,0,0,0,0c-1.3,0-2.6-0.1-3.9-0.2c-0.9-0.1-1.8-0.2-2.7-0.2c-0.8,0-1.1-0.2-1.1-1.1c0.1-1.5,0.1-2.8-0.1-4.1
		c-0.1-1.1-0.2-2.3-0.3-3.4c-0.3-2.7-0.5-5.5-1.1-8.2c-0.9-4.1-2.5-7.2-4.9-9.7c-2.4-2.5-5.3-4.4-8.1-6.1l-0.2-0.1
		c-2.6-1.6-5.4-3-8.1-4c-1.9-0.7-4-1.1-5.9-1.6l-0.9-0.2c-1.9-0.4-3.7-0.6-5.5-0.6c-0.6,0-1.3,0-1.9,0c-0.5,0-1.1,0-1.7,0
		c-0.7,0-1.4,0-1.9,0.1c-2.5,0.4-3.9,1.4-4.5,3.5c-1.1,3.5-1.8,7-2.4,10.3c-0.5,2.8-0.8,5.6-1,8.4c-0.1,0.9-0.2,1.8-0.2,2.7
		c-0.1,0.7-0.3,1.5-0.5,2.2c-0.3,1-0.5,2-0.5,3.1c0,0.9-0.1,1.8-0.3,2.8c-0.2,0.9-0.1,1.8,0,2.7l0,0.1c0.1,0.8,0.5,1.2,1.3,1.1
		c0.4,0,1,0,1.5,0c0.3,0,0.6,0,0.9,0c0.3,0,0.5,0.1,0.6,0.2c0.1,0.1,0.1,0.3,0.1,0.6c-0.1,1.6,0.2,3,0.9,4.5c1.7,3.5,4.5,5.8,8.6,7
		c1,0.3,2,0.5,3,0.5c1.8,0,3.6-0.5,5.6-1.5c1.2-0.6,2-1.6,2.6-2.5c1.1-1.6,1.4-3.5,1.7-5.5c0-0.3,0.1-0.6,0.1-1
		c0.1,0.2,0.4,0.4,0.9,0.4c0.1,0,0.1,0,0.2,0c0.1,0,0.3,0,0.4,0c0.6-0.1,1.2-0.2,1.9-0.2c0.5,0,1,0,1.5,0.1c0.5,0,1,0.1,1.5,0.1
		l0.2,0c1.6,0,3.2,0.1,4.8,0.2c1,0.1,2,0.2,3,0.2c1,0,1.9,0.1,2.9,0.2c1.8,0.1,3.6,0.3,5.5,0.2l0.1,0c0.2,0,0.3,0,0.5,0
		c0.1,0,0.2,0,0.3,0c0.8,0.1,1.5,0.2,2.3,0.3c1.5,0.2,3.1,0.4,4.7,0.4c0.4,0,0.7,0,1,0c1.6-0.1,2.6,0.5,2.9,1.8
		c0.6,3,2.1,5.7,4.5,7.9c2.1,1.9,4.7,3,7.7,3.1c0.3,0,0.5,0,0.8,0c2,0,4-0.4,6.7-1.3c4-1.3,7.3-5.6,7.5-9.6c0.1-2,0.1-2,2-2.2l0.1,0
		c1.3-0.2,2.6-0.4,3.9-0.6c2.7-0.4,5.4-0.8,8.1-1.1c0.2,0,0.4,0,0.6,0c0.4,0,0.8,0.1,1.1,0.3c0.3,0.2,0.5,0.3,0.7,0.3
		c0.5,0,0.8-0.4,0.9-1.1c0-0.4,0.1-0.8,0.3-1.1c1.4-3.2,2.6-6.7,3.8-11.3c1.5-5.6,3.3-10.5,5.6-15.1c0.5,0.7,0.8,1.5,1.1,2.3
		c0.1,0.4,0.3,0.8,0.5,1.2c1.6,3.6,3.6,7,5.3,10c0.3,0.4,0.3,0.6-0.1,1c-0.5,0.5-1.1,1-1.6,1.5c-1.1,1-2.2,2-3.1,3.2
		c-1.6,2.2-3.4,5.8-1,12.5c0.8,2.1,2.4,3.8,3.9,5.5l0.2,0.2c0.5,0.5,1.1,0.9,1.6,1.2c1.8,1,3.7,1.6,5.4,2.1c4,1.1,7.6,0.5,10.7-1.7
		c2.2-1.6,4-3.6,5.4-5.9c1.7-2.8,2.3-5.4,1.9-8C142.2,162.5,141.7,160.6,141,158.9z M126.5,165.6c0.3,0,0.5-0.1,0.7-0.3l0.1,0
		c0.2-0.1,0.3-0.3,0.4-0.4c0.1-0.3-0.1-0.6-0.3-0.8c-1.2-1.7-2.1-3.7-2.9-5.3c-0.5-1.2-1.2-2.4-2.1-3.7c-0.2-0.3-0.2-0.4-0.2-0.6
		c0-0.1,0.2-0.2,0.5-0.3c1.5-0.5,3.1-1,4.9-1c0.2,0,0.4,0,0.7,0c0.2,0,0.4,0,0.7,0c1.4,0,2.7,0.5,4,1c0.5,0.2,1.1,0.4,1.7,0.6
		c1.9,0.6,3.2,1.6,4,3c0.6,1,1.1,2.2,1.4,3.3c0.5,1.9,0.8,3.3,1,4.7c0.2,2.4-0.8,4.6-1.8,6.3c-1.2,2.1-2.7,3.8-4.5,5.2
		c-2.6,2.1-5.7,2.8-8.9,2c-1-0.2-2-0.6-3-0.9c-0.3-0.1-0.7-0.2-1-0.3c-2.6-0.8-4.1-2.7-5.5-4.7c-1.9-2.9-2.8-6-2.4-9.3
		c0.2-2.2,1.3-4.3,3.5-6.4c0.5-0.5,1.1-1,1.7-1.5c0.2-0.2,0.4-0.4,0.7-0.6c0.2-0.2,0.4-0.3,0.5-0.3c0.1,0,0.3,0.1,0.6,0.5
		c1.1,2,2.2,4.1,3.2,6.1l0.9,1.8c0.2,0.5,0.5,0.9,0.8,1.4C126.1,165.5,126.3,165.6,126.5,165.6z M80.7,156.4c0-0.1,0.1-0.3,0.2-0.5
		c1.4-2.2,2.9-4.3,4.2-6.1c0.5-0.7,0.9-1.5,1.3-2.2c0.2-0.5,0.5-1,0.8-1.4c0.1-0.2,0.3-0.4,0.4-0.4c0,0,0.2,0.1,0.4,0.4
		c0.5,0.7,0.9,1.6,1.3,2.3c0.3,0.6,0.7,1.3,1,1.9c1,1.6,1.9,3.2,2.9,4.8c1.7,2.9,3.5,6,5.6,8.8c0.2,0.3,0.4,0.7,0.6,1.1
		c0.2,0.3,0.4,0.7,0.6,1c0.3,0.4,0.3,0.6,0.2,0.6c0,0.1-0.3,0.1-0.4,0.1c-0.8-0.2-1.7-0.3-2.6-0.3c-1.6,0-3.2,0.3-4.7,0.6
		c-0.9,0.2-1.7,0.3-2.6,0.5c-0.5,0.1-0.9,0.1-1.4,0.2c-0.8,0.1-1.6,0.2-2.3,0.3c-0.3,0.1-0.5,0-0.6-0.1c-0.1-0.1-0.1-0.3-0.1-0.6
		c0-2.9-0.8-5.7-2.5-8.8c-0.5-1-1.2-1.6-1.9-1.9C80.9,156.6,80.7,156.5,80.7,156.4z M59.7,170.2C59.7,170.2,59.7,170.2,59.7,170.2
		c0.1,0,0.2,0,0.4,0.1c0.2,0.1,0.4,0.2,0.7,0.2c0.2,0,0.5,0,0.7-0.1c0.2,0,0.4-0.1,0.5-0.1c0.4,0,0.6-0.3,0.6-0.6
		c0-0.4-0.3-0.6-0.6-0.7c-0.7-0.1-1.4-0.2-2-0.3c-0.5,0-0.7-0.2-0.7-0.8c-0.2-3.6,1.1-6.5,4-8.5c2.3-1.6,5.1-3.3,8.4-3.5
		c1.9-0.1,3.7,0.3,5.6,1.2c0.3,0.1,0.4,0.2,0.4,0.4c0,0.1,0,0.3-0.2,0.6c-0.6,0.9-1.1,1.7-1.7,2.6c-1.1,1.7-2.3,3.5-3.5,5.2
		c-0.5,0.8-0.8,1.6-1.1,2.4c-0.1,0.2-0.1,0.4-0.2,0.6c-0.2,0.5-0.1,0.9,0.1,1.3c0.3,0.4,0.9,0.6,1.5,0.5c0.4-0.1,0.8-0.1,1.4-0.1
		c0.4,0,0.9,0,1.3,0c0.4,0,0.9,0,1.4,0c0.5,0,0.9,0,1.2-0.1c0.8-0.1,1.7-0.1,2.5-0.2c1.1,0,2.2-0.1,3.3-0.3c-0.2,2-0.4,3.9-1.3,5.6
		c-1.3,2.6-3.5,4.3-7,5.2c-1.3,0.3-2.6,0.5-3.8,0.5c0,0,0,0,0,0c-2,0-3.9-0.5-5.7-1.4c-2.6-1.4-4.5-3.6-5.6-6.5l-0.1-0.4
		c-0.3-0.8-0.6-1.6-0.7-2.5C59.6,170.6,59.6,170.3,59.7,170.2z M83,168.6c-1.6,0.2-3.3,0.3-4.9,0.4c-0.5,0-1.1,0.1-1.6,0.1l0-0.1
		h-0.1c-0.3,0-0.6,0-0.8,0c-0.3,0-0.6,0-0.8,0c-0.4,0-0.8,0-1.1,0c0,0-0.1,0-0.1,0c-0.1,0-0.3,0-0.3-0.1c-0.1-0.1,0-0.2,0-0.4
		c0.1-0.2,0.1-0.4,0.2-0.5c0.2-0.6,0.4-1.2,0.7-1.7c1.5-2.3,3.1-4.7,4.9-7.4c0.3-0.4,0.7-0.6,1.2-0.6c0.5,0,0.9,0.2,1.2,0.6
		c2,2.7,2.5,5.8,2.7,8.9C84,168.4,83.6,168.6,83,168.6z M22.4,168.3c0,0.2,0,0.3-0.1,0.5c-0.2,2.4-0.8,4.1-1.9,5.4
		c-1.6,1.9-3.8,2.8-6.8,2.8c-0.2,0-0.4,0-0.6,0c-3.8,0-8.6-3.5-9.8-7.3c-0.7-2-0.5-3.9,0.8-6.3c1.7-3.2,4.7-3.8,8.1-4.2
		c0.3,0,0.7-0.1,1-0.1c3.1,0,5.5,1.7,7.7,3.5C22.8,164.5,22.6,166.3,22.4,168.3z M22.4,162.3c-1.8-2.3-4.2-3.4-6.4-4.3
		c-0.2-0.1-0.4-0.1-0.6-0.1c-0.1,0-0.1,0-0.2,0c-0.5,0-1.1-0.1-1.6-0.1l-1,0c-0.2,0-0.4,0-0.6,0c-2,0-4,0.5-6.2,1.6
		c-1,0.5-2.1,1.2-2.7,2.7c-0.5,1.2-1,2.4-2.3,2.4c-0.3,0-0.7-0.1-1.1-0.3c-0.2-0.1-0.5-0.1-0.8,0c-0.4,0.1-0.6,0-0.8-0.2
		c-0.1-0.2-0.1-0.4-0.1-0.7c0.3-1.1,0.3-2.2,0.4-3.2c0.1-1.3,0.2-2.7,0.6-4c0.5-1.4,0.6-2.8,0.7-4.2c0.4-6,1.4-12,3.3-18.4
		c0.7-2.3,2-2.9,4.1-3.2c0.4-0.1,0.9-0.1,1.4-0.1c0.6,0,1.2,0,1.7,0.1c0.5,0,1,0.1,1.5,0.1c3.6,0.1,7.4,0.7,11.6,2.1
		c5.5,1.7,10.2,5.1,14.9,8.7c3,2.3,4.9,5.6,6.2,10.5c0.5,2,0.7,4.1,0.9,6.1c0.1,1.4,0.3,2.9,0.5,4.4c0.3,1.7,0.3,3.5,0.2,5.2
		c0,0.5-0.2,0.6-0.5,0.6c-0.1,0-0.1,0-0.2,0c-1.6-0.3-3.3-0.3-4.9-0.4c-0.9,0-1.9-0.1-2.8-0.1c-0.3,0-0.7-0.1-1-0.1
		c-0.4-0.1-0.9-0.1-1.3-0.2c-2.6-0.1-5.3-0.2-7.8-0.2l-0.4,0c-0.3,0-0.5,0-0.8,0c-0.6,0-1.1,0-1.7,0c-0.4,0-0.6,0.1-0.8,0.3
		C23.9,165.5,23.6,163.8,22.4,162.3z"/>
	<path d="M146,98.7c-0.2-0.3-0.5-0.6-0.7-0.9c-1.1-1.8-2.4-3.5-3.6-4.9c-0.5-0.7-1-1.4-1.5-2.1c-0.6-0.9-1.2-1.9-1.9-2.7
		c-0.9-1-1.7-2.2-2.4-3.3c-0.2-0.2-0.3-0.5-0.5-0.7c-0.5-0.8-1-1.7-1.5-2.6c-1.1-2-2.2-4-4.1-5.6c1-0.3,1.9-0.5,2.9-0.8
		c1.5-0.4,2.9-0.7,4.3-1.3c1.3-0.5,2.7-1.1,2.9-2.9l0-0.1c0.1-1,0.3-2.1,0.1-3.1c-0.4-2.3-0.6-4.7-0.2-7.1c0.1-0.7,0.2-1.5,0-2.2
		c-0.5-1.1-0.5-2.2-0.5-3.3c0-0.3,0-0.5,0-0.8c-0.1-1.7-0.3-3.4-0.5-5c-0.2-1.2-0.3-2.5-0.4-3.8c-0.1-0.7-0.2-1.4-0.4-2
		c-0.2-0.8-0.5-1.7-0.4-2.6c0.1-2.6-0.5-5.1-1.1-7.5c-0.1-0.5-0.3-1.1-0.4-1.6c-0.8-3.6-1.7-7.3-3.2-10.9c-0.2-0.5-0.4-1.1-0.5-1.6
		c-0.2-0.6-0.3-1.3-0.6-1.9c-1.6-3.6-4.2-5-8-4.4c-4.9,0.9-9.7,1.4-13.7,1.7c-0.3,0-0.6,0-0.9,0.1c-0.6,0-1.2,0.1-1.8,0.2
		c-3.6,0.8-7.6,1.7-12.6,2.6c-1.2,0.2-2.5,0.3-3.7,0.5c-0.3,0-0.6,0.1-0.9,0.1c-2.2,0.2-3,0.9-3.5,2.8c-0.3,1.1-0.3,2-0.1,2.8
		c0.3,1.4,0.3,2.8-0.1,4.3c-0.2,0.6-0.2,1.2-0.3,1.8c0,0.5-0.1,1.1-0.2,1.6c-0.2,0.8-0.1,1.5,0,2.3C86,34.4,86,35,86,35.5
		c-0.1,1.1,0,2.2,0,3.3c0.1,1,0.1,2.1,0,3.1c0,0.6,0.1,1.1,0.2,1.6c0.1,0.5,0.2,1,0.2,1.5c-0.2,1.9,0.1,3.7,0.3,5.5
		c0.1,0.5,0.1,1,0.2,1.5c0.2,1.6,0.3,3.1,0.4,4.7c0,0.7,0.1,1.3,0.1,2c0.2,2.1,0.5,4.4,1.1,7.1c0.1,0.3,0,0.6,0,0.9
		c0,0.4-0.1,0.8,0.1,1.2c0.2,0.5,0.3,1.1,0.4,1.7c0.1,0.4,0.1,0.8,0.2,1.2c0.4,1.6,1,3.3,2.7,4.7c1.5,1.2,3.3,2.5,5.5,3
		c0.1,0,0.2,0.1,0.2,0.1c0,0.1,0,0.2,0,0.2c-0.1,0.2-0.1,0.4-0.2,0.6c-0.1,0.4-0.2,0.7-0.4,1c-1.3,2-2.5,4-3.7,6.1
		c-1.4,2.3-2.6,4.8-3.6,6.9c-0.2,0.4-0.4,0.8-0.5,1.1c-0.8,1.8-1.7,3.6-2.7,5.2c-0.6,1-1.2,1.9-1.8,2.9c-0.2,0.4-0.4,0.7-0.6,1.1
		c-0.5,0.8-0.1,1.2,0.3,1.4c0.2,0.1,0.3,0.2,0.5,0.2c0.4,0,0.6-0.3,0.8-0.7l0.5-0.8c1.2-1.9,2.4-3.9,3.4-5.9c0-0.1,0.1-0.1,0.1-0.2
		c0.2-0.4,0.3-0.6,0.6-0.5c0.5,0.1,1,0.2,1.6,0.2c0.7,0,1.4-0.1,2.1-0.2c0.8-0.1,1.7-0.2,2.5-0.2c1.1,0.1,2.2-0.1,3.3-0.4
		c0.3-0.1,0.6-0.1,0.9-0.2c2.6-0.5,5.5-0.7,8.4-0.8c0.7,0,1.3-0.1,1.9-0.2c0.5-0.1,1.1-0.1,1.7-0.1c1.6-0.1,3.8-0.2,5.8-0.6
		c2.6-0.5,4.9-0.9,7.3-0.9c0.3,0,0.6-0.1,0.9-0.2c0.2-0.1,0.5-0.2,0.7-0.2c0.4,0,0.8-0.1,1.2-0.1c0.9,0,1.9-0.1,2.8-0.4
		c1-0.3,2.1-0.5,3.3-0.5c0.2,0,0.4,0,0.6,0l0.2,0c0.3,0,0.5,0,0.8,0c0.6,0,1.1-0.1,1.5-0.3l0.1,0c0.3-0.1,0.6-0.3,0.9-0.3
		c0.3,0,0.6,0.1,0.8,0.4c0.5,0.7,1.1,1.4,1.6,2.2c1.5,2,3.1,4.1,4.2,6.4l0.1,0.1c0.2,0.3,0.4,0.7,0.8,0.7c0.1,0,0.2,0,0.3-0.1
		c0.3-0.1,0.6-0.5,0.4-1.5C146.8,99.7,146.4,99.2,146,98.7z M88.1,23.6c-0.1-0.7,0.1-1.4,0.3-2.1c0.1-0.3,0.2-0.6,0.2-0.9
		c0,0,0.1-0.1,0.2-0.1c0.6-0.1,1.2-0.3,1.8-0.4c0.9-0.2,1.8-0.4,2.7-0.6c2.1-0.4,3.8-0.7,5.6-1.1c5.2-1.2,10.6-1.8,15.3-2.3
		c0.9-0.1,1.8-0.2,2.6-0.2c2.1-0.2,4.2-0.4,6.3-0.9c0.1,0,0.2,0,0.4,0c0.1,0,0.2,0,0.3,0c0.1,0,0.3,0,0.4,0c2.1,0.1,3.5,0.8,4.7,2.3
		c0.9,1.1,1.4,2.4,1.8,3.7c0.2,0.5,0.4,1.1,0.6,1.6c0.8,1.8,1.2,3.7,1.7,5.6c0.1,0.4,0.2,0.8,0.3,1.2c0.6,2.4,1.3,5,1.9,8
		c0.5,2.5,0.9,5,1.3,7.5c0.2,1.3,0.4,2.6,0.6,3.8c0.7,4.3,1.5,10.1,1.3,15.9c0,0.9,0.1,1.8,0.2,2.7c0.1,1.2,0.3,2.4,0.1,3.6
		c-0.2,1.1-0.6,1.7-1.4,1.8c-1,0.1-2,0.5-2.9,0.8c-0.8,0.3-1.7,0.6-2.5,0.8c-1.7,0.3-3.4,0.6-5,0.9c-1.3,0.3-2.7,0.5-4.1,0.8
		c-1,0.2-2,0.4-3,0.6c-1.8,0.4-3.7,0.7-5.6,1c-2.6,0.4-5.2,0.5-7.7,0.5c-1.6,0-3.3-0.1-4.8-0.2c-1.1-0.1-2.2-0.3-3.3-0.5L97.7,77
		c-2.8-0.5-6.2-3.3-6.8-6.7c-1.1-6.6-1.7-12-2.1-17c-0.1-1.5-0.3-3-0.5-4.5c-0.2-2-0.5-4-0.5-6c0-0.8,0-1.5,0-2.3
		c0-1.8,0-3.6-0.2-5.4c-0.2-2,0-4,0.2-5.9c0.1-1,0.2-2,0.3-3C88.2,25.4,88.2,24.6,88.1,23.6z M99.2,80.4c0.1-0.3,0.3-0.7,0.5-1
		c0.2-0.4,0.4-0.5,0.8-0.4c2.1,0.2,4,0.2,5.8,0.2c2.2,0,4.2-0.1,6.1-0.4c4.4-0.6,8.8-1.4,12.9-2.3c0.5-0.1,1.1-0.2,1.7-0.2
		c0.4,0,0.7-0.1,1.1-0.1c0.3,0,0.5,0.1,0.7,0.3c0,0,0.1,0.1,0.1,0.1c1.3,1.1,2.4,2.6,3.4,4.3c0.1,0.3,0.1,0.4,0.1,0.4
		c0,0.1-0.3,0.1-0.4,0.1c-1.3,0.2-2.6,0.4-3.9,0.6c-2.4,0.4-5,0.9-7.5,1c-0.5,0-1.1,0.2-1.6,0.3c-0.6,0.2-1.2,0.4-1.8,0.3
		c-1-0.1-2,0.1-3,0.3c-0.8,0.1-1.6,0.3-2.4,0.3c-0.4,0-0.8,0.1-1.2,0.2c-0.3,0-0.5,0.1-0.8,0.1c-0.5,0.1-1,0.1-1.5,0.2
		c-1.3,0.2-2.6,0.3-4,0.3c-2,0.1-3.9,0.4-5.8,0.7c-0.5,0.1-1.1,0.2-1.6,0.3c-0.2,0-0.3,0.1-0.4,0.1c-0.2,0.1-0.3,0.1-0.5,0.1
		c0,0-0.1,0-0.1,0c0.4-1.6,1.3-2.9,2.2-4.2c0.2-0.2,0.3-0.5,0.5-0.7C98.9,81.2,99.1,80.8,99.2,80.4z M110.2,86.4L110.2,86.4
		c0.1,0,0.2,0,0.2,0c0.1,0,0.3,0,0.4,0c0.1,0,0.3,0,0.5,0c0.3,0,0.7-0.1,1-0.5c0.3,0.3,0.7,0.4,1.1,0.4c0.4,0,0.9-0.1,1.2-0.2l0.1,0
		c1.1-0.3,2.3-0.4,3.4-0.4c1.1-0.1,2.2-0.1,3.3-0.4c2-0.5,4.1-0.7,6.3-0.9c0.3,0,0.6,0,0.9-0.1c1.5-0.1,3.1-0.2,4.6-0.8
		c0.2-0.1,0.2-0.1,0.4,0.2l0.1,0.1c1.5,2.2,3,4.4,4.6,6.7c-13.8,2.6-28.1,3.9-41.8,5.1c-1.9,0.2-3.8,0.3-5.7,0.5
		c0.3-0.5,0.5-1.1,0.7-1.6c0.3-0.8,0.6-1.6,1.2-2.3c0.4-0.4,0.6-1,0.8-1.5c0.1-0.2,0.2-0.5,0.3-0.7c0.4-0.8,0.9-1.2,1.6-1.5
		c2.1-0.6,4.3-1,6.6-1.1C104.7,87.2,107.5,86.8,110.2,86.4z"/>
	<path d="M219.6,113.5c-0.5-0.1-0.5-0.2-0.4-0.6l0-0.1c0.1-1.1-0.4-2.5-1.2-2.8c-0.4-0.2-0.9-0.3-1.3-0.5c-1.2-0.5-2.4-1-3.7-1
		c-0.3,0-0.5,0-0.8,0.1c-0.3,0.1-0.6,0.1-0.9,0c-3.6-0.4-7.4-0.5-10.7-0.5c-0.9,0-1.9,0-2.8,0c-1.6,0-3.3,0-4.9-0.1
		c-0.5,0-1-0.1-1.5-0.1c-0.6,0-1.2,0-1.8,0c-1,0-2.1,0.1-2.9,0c-0.2,0-0.5,0-0.7,0c-1.1,0-2.1,0-3.1-1c-3.1-2.7-5.8-5.5-8.2-8.4
		c-0.2-0.3-0.3-0.5-0.3-0.6c0-0.1,0.2-0.2,0.5-0.3c0.9-0.3,1.6-0.8,2.4-1.2l0.3-0.2c1.8-1.2,3.6-2.3,5.9-2.3l0.1,0
		c0.1,0,0.2,0,0.3,0h0c1.1,0,2.3-0.1,3.4-0.2c1.1-0.1,2.3-0.2,3.4-0.2l0.2,0c0.4,0,0.6-0.1,0.8-0.4c0.1-0.3-0.1-0.6-0.3-0.8l0-0.1
		c-0.2-0.3-0.5-0.3-0.7-0.3c-0.1,0-0.2,0-0.3,0l-0.4,0c-1.9,0.2-3.8,0.4-5.7,0.4c-0.8,0-1.6,0-2.3-0.1c-0.4,0-0.6,0.1-0.8,0.2
		c0,0-0.1,0-0.1,0.1c-1.4,0.6-2.7,1.4-3.9,2.2c-1.3,0.8-2.7,1.6-4.1,2.3c-0.4,0.2-0.7,0.4-0.7,0.7c0,0.3,0.2,0.5,0.6,0.7
		c0.5,0.3,0.8,0.7,1.1,1.1c0.1,0.1,0.2,0.2,0.2,0.3c0.4,0.5,0.8,0.9,1.2,1.4c1.3,1.6,2.7,3.2,4.3,4.6c0.6,0.5,1.2,1.1,1.8,1.7
		c0.2,0.2,0.5,0.4,0.7,0.6c-0.2,0-0.3,0-0.4,0c-0.5,0.1-0.9,0.1-1.4,0.1c-0.7,0-1.3-0.1-1.8-0.8c-1.4-2.2-2.8-4.1-4.2-5.8
		c-0.7-0.8-1.4-1.5-2.1-2.2c-0.5-0.5-1-1-1.5-1.5c0,0-0.1-0.1-0.1-0.1c-0.1-0.1-0.2-0.2-0.2-0.2c0,0,0,0,0.1-0.1
		c0.6-0.3,1.1-0.7,1.6-1.1c0.5-0.4,1-0.9,1.6-1.1c1.4-0.6,2.7-1.2,3.8-2.3c0.3-0.3,0.6-0.5,1.1-0.5c2-0.1,4.3-0.2,6.6-0.3
		c0.3,0,0.5,0,0.8,0c0.9,0,1.8,0,2.6-0.4c0.5-0.2,0.7-0.6,0.5-1.1c-0.2-0.4-0.5-0.5-1-0.4c-1.2,0.4-2.5,0.4-3.7,0.4l-0.8,0
		c-1.7,0-3.4,0-5.1,0.2c-0.4,0-0.8,0.1-1.1,0.4c-1.5,1.2-3.2,2.1-4.8,3.1c-1,0.6-2,1.1-3,1.8c-0.6,0.4-0.9,0.8-1,1.2
		c0,0.4,0.2,0.7,0.7,1.1c2.8,2.4,5.3,5.4,8.2,9.8l-0.1,0c0,0-0.1,0-0.1,0c-2.5-0.3-5.2-0.5-8.3-0.5c-0.7,0-1.3,0-2,0
		c-1.6,0-3.3,0.1-4.9,0.1l-0.5,0c-3,0-6,0-9,0c-0.9,0-1.5,0.4-2.1,0.8c-0.3,0.2-0.6,0.4-0.9,0.5c-0.3,0.1-0.3,0.4-0.2,0.6
		c0,0.1,0,0.1,0,0.2c-0.1,2-0.3,4.1-0.5,6.6c-0.1,1-0.2,2-0.3,3c-0.2,2.1-0.4,4.2-0.4,6.3c0,1.4,0,2.7,0,4.1c0,2.4,0,4.8-0.1,7.2
		c-0.1,1.1-0.1,1.7,0.2,2.1c0.2,0.2,0.5,0.3,1.1,0.3c0.2,0,0.5,0,0.8,0c0.8-0.1,1.7-0.1,2.5-0.1c1.1,0,2.3,0,3.4-0.2l0.2,0
		c0.4-0.1,0.9-0.2,1.4-0.2c0.8,0,1.5,0.3,1.9,0.9c0.1,0.2,0.4,0.3,0.6,0.3c0.2,0,0.4-0.1,0.4-0.3c0.1-0.4,0.3-0.8,0.6-1.2
		c0.4-0.6,0.8-1.3,0.6-2.2c0-0.1,0-0.2,0-0.2c0,0,0.1,0,0.1,0c0.1,0,0.1,0,0.2,0c1.8-0.4,3.7-0.4,5.4-0.4c0.2,0,0.4,0,0.6,0
		c1.1,0,2.1,0,3.2,0c3.4,0,7,0,10.5,0.2c5.1,0.2,9.5,0.4,13.6,0.8c0.4,0,0.7,0,1.1,0.1c1,0.1,1.9,0.1,2.9,0.3c0.5,0.1,1,0.1,1.6,0
		c0.3,0,0.6-0.1,0.9-0.1c0.6,0,1,0.1,1.4,0.4c0.1,0.1,0.2,0.1,0.4,0c0,0,0.1,0,0.1,0c0.2,0,0.5,0,0.7,0c0.5,0,1-0.1,1.5,0
		c0.9,0.1,1.5,0.1,1.7,0.4c0.2,0.2,0.2,0.7,0.1,1.5c-0.1,0.6,0,1.2,0.3,1.5c0.2,0.2,0.5,0.4,0.8,0.4c1.3,0.2,2.6,0.3,3.9,0.3
		c0.9,0.1,1.8,0.1,2.7,0.2c0.1,0,0.2,0,0.3,0c0.6,0,1.1-0.1,1.6-0.2c0.7-0.2,1.5-0.3,2.2-0.2c0.1,0,0.2,0,0.2,0
		c0.3,0,0.4-0.1,0.5-0.2c0.1-0.2,0.1-0.6,0-0.9c-0.3-0.7-0.4-1.3-0.3-2l0-0.3c0.1-1.5,0.2-3.1,0-4.7c-0.2-1.3-0.1-2.6-0.1-3.9
		c0-0.7,0-1.4,0-2.1c0-1-0.1-2.1-0.1-3.1c-0.1-2.4-0.2-4.8,0-7.2c0-0.1,0-0.2,0-0.3c0-0.6,0.1-1.2,0.5-1.7c0.2-0.2,0.3-0.5,0.2-0.8
		C220.1,113.7,219.9,113.5,219.6,113.5z M214.8,139.7c-0.1,0-0.1,0-0.2,0c0,0-0.1,0-0.1,0c-0.9,0.1-2,0-3.1-0.1
		c-0.8-0.1-1.6-0.2-2.5-0.2l0,0c-0.2,0-0.2,0-0.2-0.3c-0.1-0.9-0.1-1.3,0-1.5c0.2-0.2,0.7-0.2,1.5-0.2c2.5,0,4.7-0.1,7-0.4
		c0.4-0.1,0.7,0,0.8,0.1c0.1,0.1,0.1,0.4,0.1,0.8l0,0.2c-0.1,1.3-0.1,1.3-1.6,1.4c-0.4,0-0.8,0.1-1.1,0.4c-0.1,0.1-0.1,0.1-0.2,0.2
		c0,0-0.1,0.1-0.1,0.1c0-0.1,0-0.1,0-0.2C215.1,139.7,214.9,139.7,214.8,139.7z M159.7,134.4c0,0.1,0,0.1,0,0.2c0,0.2,0,0.2-0.2,0.2
		l0,0c-0.6,0-1.2-0.1-1.8-0.1c-0.8,0-1.7,0-2.5,0.1c-0.8,0-1.7,0.1-2.5,0.1c-0.9,0-1.7,0-2.4-0.1c-0.6-0.1-0.9-0.2-1-0.4
		c-0.1-0.2-0.1-0.5,0.1-0.9l0,0l0,0c-0.2-1.1-0.1-2.2,0-3c0.2-1.5,0.2-3.1,0.2-4.6c0-1.6,0-3.3,0.3-4.9c0.4-2.6,0.5-4.7,0.5-6.7
		c0-0.3,0-0.5,0.1-0.6c0,0,0.1,0,0.1,0s0.2,0,0.3,0.1c0.2,0.1,0.5,0.1,0.8,0.1c0.2,0,0.4,0,0.6,0c0.1,0,0.2,0,0.3,0l0.7-0.1
		c1.5-0.1,3-0.2,4.5-0.2c0.7,0,1.4,0,2,0.1l0,0c0.2,0,0.4,0,0.5,0.1c0,0.1,0.1,0.2,0,0.3c-0.2,1.8-0.1,3.6,0,5.4c0,0.3,0,0.6,0.1,1
		c0.1,1.6,0,3.3-0.1,4.9c-0.1,1.4-0.2,2.8-0.2,4.2C160.1,131,160.1,132.7,159.7,134.4z M149.1,137.2c0.1-0.2,0.1-0.4,0.1-0.6
		c0-0.2,0-0.4,0.1-0.5c0.1-0.1,0.2-0.1,0.4-0.1l0,0c1.1,0,2.3,0,3.4,0c0.4,0,0.9,0,1.3,0v0h0.2c0.4,0,0.8,0,1.2,0c0.4,0,0.8,0,1.2,0
		c0.8,0,1.4,0,2,0c0.1,0,0.2,0,0.3,0c0.1,0,0.2,0,0.3,0c0.2,0,0.3,0,0.3,0.5c0,0.8-0.3,1.3-1,1.3c-0.5,0-0.9,0-1.4-0.1
		c-0.5-0.1-0.9-0.1-1.5-0.1c-0.6,0-1.3,0.1-1.9,0.1c-0.9,0.1-1.8,0.1-2.6,0.1c-0.2,0-0.4-0.1-0.6-0.1c-0.2-0.1-0.5-0.2-0.8-0.2
		c-0.2,0-0.5,0.1-0.7,0.2c-0.1,0-0.1-0.1-0.2-0.1c-0.1,0-0.2-0.1-0.2-0.2C149,137.3,149,137.3,149.1,137.2z M161.4,133.6
		c0.2-2.1,0.4-4.3,0.5-6.5c0.2-2.8,0.2-5.4,0-7.9c0-0.3,0-0.6,0-0.9c0-0.6,0-1.2-0.2-1.7c-0.3-0.8-0.1-1.4,0.1-2.1
		c0.1-0.3,0.2-0.5,0.2-0.8c0.1-0.3,0-0.6-0.2-0.8c-0.4-0.5-1.1-0.9-1.8-1c-1.4-0.2-2.4-0.2-3.4-0.1c-0.5,0.1-1,0.1-1.5,0.1
		c-0.7,0-1.3,0-2,0.2c-0.1,0-0.3,0.1-0.4,0.1c-0.4,0-0.8-0.2-1.2-0.4c-0.2-0.1-0.5-0.3-0.8-0.4c-0.1,0-0.2-0.1-0.1-0.5
		c0-0.2,0.1-0.4,0.1-0.6c0-0.3,0.1-0.4,0.5-0.5l0.2,0c0.7-0.1,1.5-0.3,2.2-0.3c1.5,0,3-0.1,4.4-0.1c2.5-0.1,5.2-0.1,7.8-0.2
		c0.9,0,1.7,0,2.6,0c0.7,0,1.4,0,2,0c0.8,0,1.5,0,2.2-0.1c1.5-0.1,2.9,0.1,4.3,0.3c0.7,0.1,1.3,0.2,2,0.2c0.6,0.1,1.3,0,1.9,0
		c0.4,0,0.9-0.1,1.4-0.1h0c0.6,0,1.3,0,1.9,0.1c1.1,0.1,2.3,0.1,3.2,0c2.1-0.2,4.4-0.1,6.8,0.1c0.5,0,0.9,0.1,1.6,0.1
		c0.3,0,0.5,0,0.8,0c0.3,0,0.5,0,0.8,0c0.9,0,1.9,0,2.8,0.2c0.4,0.1,0.7,0.1,1.2,0.1c0.4,0,0.8,0,1.1-0.1c0.3,0,0.5,0,0.8,0
		c0.5,0,1.1,0,1.6,0.1c0.4,0.1,0.8,0.1,1.3,0.1c0.3,0,0.6,0,0.9,0.1c0.4,0,0.8,0.1,1.2,0.1c0.9,0,1.6-0.1,2.2-0.5
		c0.2-0.1,0.4-0.1,0.8-0.1c0.3,0,0.6,0,1,0.1c0.2,0,0.5,0.1,0.7,0.1c0,0,0.1,0,0.1,0c0.1,0,0.2,0,0.3,0c0,0,0,0.1-0.2,0.3
		c-0.1,0.1-0.1,0.3-0.1,0.3c0.1,0.3,0.6,0.4,0.6,0.4c0.3,0.1,0.7,0.1,1,0.2c0.5,0.1,1.1,0.3,1.7,0.3c0.2,0,0.3,0,0.5,0
		c0.1,0,0.2,0,0.3,0c0.3,0,0.5,0.1,0.5,0.7l0,0.1c0,0.7,0,1.1-0.1,1.2c-0.1,0.1-0.5,0.1-1.2,0.1l-0.1,0c-1-0.1-1.9-0.1-2.7-0.1
		c-1.2,0-2.3,0.1-3.3,0.2c-0.6,0.1-1.3,0.2-1.7,0.6c-0.2,0.3-0.3,0.7-0.2,1.2c0.1,0.8,0,1.6-0.1,2.4c-0.1,0.7-0.2,1.4-0.2,2.1
		c0,0.4,0.1,0.7,0.1,1.1c0.1,0.7,0.2,1.4,0,2c-0.8,2.2-0.9,4.6-0.9,6.8c0,1.3-0.1,2.7-0.3,4c0,0.2,0,0.3-0.1,0.5
		c-0.1,1.1-0.2,1.1-0.6,1.1c-0.1,0-0.2,0-0.4,0c-0.2,0-0.4,0-0.6,0c-0.1,0-0.3,0-0.4,0l-0.6,0c-0.8,0.1-1.6,0.1-2.4,0.1
		c-1.9,0-3.8-0.2-5.7-0.5l-0.6-0.1c-2-0.2-4.2-0.4-6.7-0.5c-0.7,0-1.5-0.1-2.2-0.1c-1.1-0.1-2.2-0.2-3.3-0.2c-0.4,0-0.7,0-1.1,0
		c-0.7,0-1.4,0-2.1,0c-0.8,0-1.7-0.1-2.4,0c-0.9,0.1-1.8,0.1-2.9,0.1c-0.9,0-1.9,0-2.8-0.1c-0.9,0-1.9-0.1-2.8-0.1
		c-1.4,0-2.6,0.1-3.7,0.2c-0.5,0.1-1,0.1-1.5,0.1c-0.7,0-1.4-0.1-2-0.1C161.4,134.2,161.3,134.1,161.4,133.6z M208.2,135.2
		c0-0.6,0-1.1,0-1.7c0-1.4,0-2.8,0.4-4.1c0.3-1,0.4-2,0.5-3c0.1-1,0.1-2,0.5-3c0.2-0.5,0.1-1,0.1-1.5l0-0.2c-0.1-1.2-0.1-2.4,0-3.5
		c0-0.9,0.1-1.8,0-2.8c0-0.2,0-0.4,0.1-0.5c0.1-0.1,0.2-0.1,0.4-0.1l0.1,0c0.9,0,1.9,0,2.8,0c0.6,0,1.2,0,1.9,0c0.9,0,1.6,0,2.3,0.1
		c0.5,0.1,0.6,0.2,0.6,0.6c0,0.8,0,1.5,0,2.4l0,1.2c0.2,3.1,0.3,6.2,0.3,9.5c0,2,0,4.1,0.1,6.1c0,0.3,0,0.5-0.2,0.7
		c-0.1,0.1-0.4,0.2-0.8,0.2c-0.8,0-1.5,0.1-2.2,0.2l-0.2,0c-0.8,0.1-1.6,0.2-2.6,0.2c-1.2,0-2.5-0.1-3.6-0.2
		C208.2,135.8,208.2,135.6,208.2,135.2z"/>
	<path d="M137.9-20.3c0.1,0,0.1,0,0.2,0c0.3,0,0.6-0.2,0.8-0.9c0.1-0.3,0.1-0.6,0.2-0.8c0.1-0.4,0.1-0.8,0.2-1.1l0.5-1.6
		c1.3-4,2.7-8.1,4.4-12c0.7-1.5,1.5-2.9,2.7-4.4c0.3-0.4,0.7-0.8,1.3-0.8l0.1,0c1.1,0,2.5-0.1,3.6,0.2c0.5,0.1,1,0.2,1.5,0.2
		c1.6,0,3.1-0.7,4.7-2.4c2.2-2.2,4.5-3,7.4-2.6c2.5,0.4,5,1,7.4,1.6c1,0.3,2.1,0.5,3.1,0.8c1.9,0.5,3.9,1.1,5.7,1.7
		c0.6,0.2,1.3,0.4,2,0.6c2.9,0.9,6.5,2.4,8.6,6.3c1,2,2.6,3.6,4.2,5.3c1.3,1.3,2.5,2.3,3.7,3c2.6,1.5,5.4,2.5,8.2,3.4
		c0.5,0.2,1.1,0.4,1.6,0.5c5.8,2,10,5.2,12.9,9.9c1.2,2,2.1,4.4,2.6,7.2c0.1,0.3,0,0.4,0,0.4c0,0,0,0-0.2,0c-0.1,0-0.2,0-0.4,0
		c-1.1-0.2-1.4-0.8-1.7-1.9c-0.7-3-2.3-5.2-4.8-6.7c-2.3-1.4-5-2.2-8-2.4c-2.8-0.2-4.9,0.4-6.7,1.9l-0.4,0.3
		c-1.6,1.3-3.3,2.7-3.8,5.1C199.4-9,199.2-9,199.1-9c-0.1,0-0.2,0-0.4-0.1c-0.1,0-0.1,0-0.2-0.1c-0.9-0.2-1.7-0.4-2.6-0.6
		c-3-0.7-6.2-1.4-9.4-1.8c-2.9-0.3-5.9-0.9-8.7-1.5c-0.9-0.2-1.8-0.4-2.8-0.5c-1.1-0.2-2.2-0.3-3.2-0.5c-0.8-0.1-1.5-0.2-2.3-0.3
		c-0.7-0.1-1.2-0.3-1.5-0.6c-0.2-0.3-0.2-0.6-0.1-1.1c0.1-0.3,0-0.6-0.1-0.8l0-0.1c-1-3.3-2.6-5.9-4.7-8c-1.4-1.3-3-2.1-4.6-3
		l-0.2-0.1c-1.5-0.8-3.3-1.1-5.1-0.9c-0.9,0.1-1.8,0.3-2.6,0.5c-0.5,0.1-1.1,0.3-1.6,0.4c-1.2,0.2-2.3,0.8-3.2,1.6
		c-1.2,1.1-2.6,2.7-3.1,4.9c-0.3,1-0.6,1.2-1.4,0.7c-0.4-0.2-0.9-0.3-1.5-0.3c0,0-0.1,0-0.1,0l-0.2,0c-0.2,0-0.6,0-0.7,0.5
		c0,0.4,0.2,0.6,0.8,0.8c0.3,0.1,0.5,0.1,0.8,0.2c0.5,0.1,1.1,0.2,1.5,0.5c0.3,0.2,0.6,0.3,0.8,0.3c0.5,0,0.7-0.5,0.8-1.1l0-0.1
		c0.4-1.6,1.1-3,2-4.2c1.2-1.5,2.9-2,4.6-2.6c0.2-0.1,0.4-0.1,0.7-0.2c1-0.3,2-0.5,2.9-0.5c2.5,0,4.9,1,7.7,3.2
		c3.4,2.7,5.2,6.4,5.3,10.6c0,0.1,0,0.1,0,0.2c0,0.2,0,0.6,0.4,0.7c0.1,0,0.1,0,0.2,0c0.2,0,0.4-0.2,0.4-0.3c0-0.1,0.1-0.1,0.1-0.2
		c0.2-0.2,0.5-0.1,0.8,0c0.9,0.3,2.1,0.7,3.4,0.7c1.2,0,2.5,0.2,3.7,0.4l0.4,0.1c0.9,0.2,1.8,0.3,2.8,0.5c2.2,0.4,4.4,0.9,6.7,1.1
		c4.7,0.4,9.2,1.6,13.5,2.7c0.2,0.1,0.4,0.1,0.5,0.1c0.6,0,0.7-0.4,0.8-0.8c0.3-1.5,1.1-2.9,2.5-4.1c1.5-1.4,3.2-2.7,5.6-2.8
		c0.4,0,0.9,0,1.3,0.1c0.4,0,0.7,0.1,1.1,0.1l0.1,0c2.4-0.1,4.7,0.7,7.2,2.4c2.6,1.8,4,4.4,4.2,7.8c0,0.5,0.3,0.8,0.8,0.8
		c0.2,0,0.3,0,0.5,0c0.2,0,0.4,0,0.6,0v0.1h1c0.7,0,1,0,1.2-0.3c0.2-0.2,0.3-0.7,0.2-1.4c0-2.2-0.7-4.2-1.4-5.9
		c-1.3-3.2-3-5.6-5-7.4c-3.3-2.8-7.3-5-11.9-6.4c-2.8-0.9-5.1-1.8-7.1-3c-3.1-1.8-5.5-4.4-8-8.5c-1.6-2.7-3.6-4.5-5.9-5.3
		c-3.5-1.3-7.2-2.6-11.1-3.5l-1-0.2c-3.1-0.7-6.3-1.5-9.5-2c-3.5-0.5-6.3,0.6-8.8,3.2c-1.3,1.3-2.5,1.8-3.9,1.5
		c-1.3-0.3-2.7-0.4-4.1-0.3c-1.3,0.1-2.4,0.6-3.2,1.6c-0.1,0.2-0.3,0.4-0.4,0.6c-0.9,1.3-1.9,2.6-2.4,4.1c-0.3,0.9-0.7,1.8-1.1,2.7
		c-0.6,1.3-1.2,2.6-1.5,4.1c-0.1,0.6-0.4,1.2-0.6,1.7c-0.2,0.5-0.4,1-0.5,1.5c-0.2,0.7-0.5,1.4-0.7,2.1c-0.5,1.2-0.9,2.4-1.1,3.7
		l0,0.1C137.4-21,137.4-20.4,137.9-20.3z"/>
	<path d="M231.8,26.7c-0.1-0.2-0.3-0.4-0.6-0.4c-0.2,0-0.4,0.1-0.5,0.1l-0.4,0.1c-0.8,0.3-1.7,0.6-2.5,1.1c-2.3,1.7-4.9,2.6-7.5,3.6
		c-0.8,0.3-1.7,0.6-2.5,0.9c-0.4,0.2-0.7,0.2-1.2,0c-1.3-0.5-2.5-1.3-3.6-2c-1.3-0.8-2.6-1.7-4.1-2.3c0,0-0.1,0-0.1-0.1
		c-0.2-0.3-0.5-0.4-0.8-0.4c-0.3,0-0.5,0.1-0.8,0.2c-3,1.5-6.2,2.9-10,4.3c-1.3,0.5-2.3,0.3-3.7-0.5c-0.9-0.6-1.9-1.1-2.8-1.6
		c-0.7-0.4-1.3-0.7-1.9-1.1c-1-0.6-1.8-0.5-2.8,0c-0.4,0.2-0.8,0.4-1.2,0.6c-0.6,0.2-1.2,0.5-1.8,0.9c-0.1,0.1-0.2,0.1-0.2,0.1
		c0,0-0.1,0-0.2-0.3c-0.1-0.4-0.2-0.9-0.3-1.3c-0.2-1-0.4-2.1-1.2-3c-0.1-0.1-0.1-0.1-0.2-0.2c-0.2-0.3-0.4-0.5-0.7-0.5
		c-0.1,0-0.3,0-0.4,0.1c-0.2,0.1-0.4,0.3-0.5,0.5c-0.1,0.3,0.1,0.7,0.3,1l0,0c0.6,1,1,2.2,1.3,3.4l0.1,0.5c0.1,0.2,0.1,0.4,0,0.5
		c0,0.1-0.1,0.1-0.2,0.1c-0.6,0.1-1.1,0.4-1.6,0.6c-0.4,0.2-0.7,0.4-1.1,0.5c-1.2,0.3-2.3,0.9-3.4,1.5c-0.5,0.3-1,0.6-1.6,0.8
		c-0.4,0.2-0.7,0.3-0.9,0.3c-0.2,0-0.4-0.1-0.7-0.9c-1-2.3-1.7-4.7-2.4-6.8c-0.2-0.5-0.4-0.8-0.9-0.8c-0.1,0-0.2,0-0.4,0
		c-0.3,0.1-0.4,0.2-0.5,0.3c-0.1,0.2,0,0.5,0.1,0.8c0,0.1,0,0.1,0.1,0.2c0.3,0.7,0.6,1.5,0.8,2.3c0.4,1.2,0.9,2.4,1.4,3.6
		c0.8,1.9,0.8,1.9-1.1,2.9l-0.2,0.1c-0.4,0.2-0.8,0.4-1.2,0.6c-0.6,0.3-0.8,0.7-0.6,1.3c0.3,1.1,0.4,2.2,0.4,3c0,0.7-0.2,1-0.7,1.3
		c-0.3,0.2-0.7,0.3-1,0.5c-0.8,0.4-1.7,0.8-2.5,1c-1.7,0.5-3.3,1.4-4.8,2.2c-0.5,0.3-1,0.6-1.5,0.8c-0.7,0.4-0.9,0.8-0.7,1.6
		c0.4,1.6,0.6,3.3,0.8,5c0.1,0.5,0.1,1.1,0.2,1.6c0,0.1,0,0.1,0,0.2c0,0.3,0.1,0.7-0.1,0.9c-0.1,0.1-0.2,0.2-0.4,0.2
		c-1.1,0.1-2.1,0.6-3,1.1c-0.9,0.5-1.9,1-3,1.1c-0.3,0-0.9,0.1-0.9,0.7c0,0.5,0.4,0.7,0.7,0.9l0,0c1.1,0.7,2.1,1.4,2.9,2.4l0.3,0.4
		c1.5,1.8,3,3.6,4.3,5.5c0.5,0.8,1.2,1.5,2.4,1.5l0,0l0,0c0.1,0,0.3-0.1,0.4-0.1c0.3-0.1,0.7-0.3,1.1-0.4l0.1,0
		c2.6-1.2,5.3-2.5,8-3.5c1.3-0.5,2.9-1.1,4.3-1.9c3.2-1.9,6.1-3.4,8.8-4.5c1-0.4,2.1-0.8,3.2-1.2c0.8-0.3,1.6-0.6,2.4-0.9
		c2.2-0.8,4.4-1.8,6.6-2.7c2.3-1,4.7-2,7-2.9c2.7-1,5.3-2.1,7.9-3.2c1-0.4,2.1-0.9,3.1-1.3c0.6-0.3,1.3-0.5,1.9-0.8
		c1.2-0.5,2.5-1.1,3.8-1.5c2.5-0.8,4.9-1.9,7.6-3.4c0.2-0.1,0.5-0.3,0.5-0.6c0.1-0.8,0.4-1.5,0.7-2.1c0.1-0.3,0.3-0.7,0.4-1.1
		c0.1-0.4,0.3-0.8,0.4-1.3c0.5-1.4,1-2.9,1.3-4.4c0.4-1.6,1-3.2,1.7-4.6C232.1,27.6,232.1,27.1,231.8,26.7z M158.3,56.2l0-0.2
		c-0.2-2.1-0.5-4.3-0.8-6.4c-0.1-0.7,0-1,0.5-1.2c0.9-0.3,1.7-0.8,2.5-1.3c1-0.6,2.1-1.2,3.3-1.5c1-0.2,2-0.8,2.9-1.3
		c0.4-0.2,0.9-0.5,1.3-0.7c0.5-0.2,0.5-0.7,0.6-1l0,0c0.1-0.9,0.2-2.1-0.2-3.2c-0.2-0.5-0.1-0.7,0.4-1c0.7-0.4,1.4-0.7,2.2-1.1
		c3-1.5,6.1-3,9.2-4.3c0.3-0.1,0.7-0.2,1.1-0.3c0.6-0.1,1.1-0.3,1.5-0.6c0.6-0.5,1.3-0.8,1.9-1.1c0.6-0.3,1.2-0.6,1.8-1
		c0.3-0.2,0.6-0.2,1-0.1c1.3,0.4,2.6,1.1,3.8,1.8l0.1,0.1c1.1,0.6,2.3,1.1,3.4,1.6c0.3,0.1,0.5,0.2,0.8,0.3c0.1,0.1,0.3,0.1,0.5,0.1
		c0.4,0,0.7-0.2,0.9-0.3c1.2-0.6,2.4-1,3.6-1.4c1.5-0.5,3.1-1.1,4.5-1.9c0.6-0.3,1.2-0.6,1.8-0.9c0.7-0.3,1.4-0.2,2.2,0.1
		c1.3,0.4,2.4,1.2,3.5,1.9c0.7,0.5,1.5,1,2.3,1.4c0.3,0.1,0.5,0.3,0.8,0.4c0.4,0.2,0.7,0.4,1.1,0.6c0.2,0.1,0.5,0.2,0.8,0.2
		c0.2,0,0.4,0,0.6-0.1c1.4-0.7,2.9-1.3,4.4-1.8c1.2-0.4,2.5-0.9,3.6-1.4c0.5-0.2,0.9-0.6,1.3-0.9c0.5-0.5,1-0.9,1.7-1
		c0.1,0,0.2-0.1,0.3-0.1c0.2-0.1,0.3-0.1,0.5-0.1c-0.2,0.7-0.4,1.4-0.6,2.1c-0.5,1.7-1.1,3.5-1.7,5.2c-0.2,0.5-0.4,1.1-0.6,1.6
		c-0.4,1-0.7,2-1.1,3c-0.1,0.4-0.3,0.5-0.6,0.7c-3.8,1.8-7.7,3.4-11.5,5c-2.5,1-5,2-7.5,3.1c-3.9,1.7-8,3.3-11.9,4.8
		c-1.7,0.7-3.4,1.3-5.2,2c-5.5,2.1-10.8,4.8-16,7.3l-0.8,0.4c-1.6,0.8-3.2,1.4-4.8,2.1c-0.9,0.4-1.9,0.8-2.9,1.2c-1,0.4-2,0.9-3,1.4
		c-0.3,0.2-0.7,0.3-1,0.5c-0.3,0.1-0.5,0.2-0.7,0.2c-0.3,0-0.6-0.2-0.9-0.6c-0.7-0.9-1.5-1.9-2.2-2.8c-0.7-0.9-1.5-1.9-2.2-2.8
		c-0.4-0.5-0.9-1-1.4-1.4c-0.4-0.4-0.8-0.7-1.1-1.2c1.7-0.9,3.4-1.5,5-1.9C158,58,158.4,57.3,158.3,56.2z"/>
	<path d="M56.6-14.1c2.2,0.1,4.5,0.1,6.6,0.1c2.7,0,5.5,0,8.2,0.2c0.2,0,0.3,0,0.5,0c1.3,0,1.6-0.5,1.7-1.8c0.3-2.6,1.8-4.5,4.8-6.2
		c1.4-0.8,2.9-1.2,4.6-1.2c1,0,2,0.1,3.2,0.4c2.7,0.6,4.3,1.9,5.2,3.9c0.5,1.1,0.7,2.2,0.9,3.1l0,0.1c0.1,0.3,0.1,0.8,0.5,0.8
		c0.1,0,0.2,0,0.3-0.1c0.3-0.2,0.6-0.3,1-0.3c0.3,0,0.6,0.1,1,0.1l0.1,0c0.6,0.1,1.3,0,2-0.1c0.4-0.1,0.8-0.1,1.2-0.1l0.1,0
		c1.2,0,2.4-0.1,3.5-0.1c1-0.1,1.9-0.1,2.9-0.1c0.6,0,1.1,0,1.6,0.1c0.6,0.1,1.2,0,1.8-0.1c0.5-0.1,1-0.1,1.5-0.1
		c3.3,0.1,6.6,0.1,9.9,0.2l0.2,0c0.8,0,1.6-0.1,2.4-0.1c0.9-0.1,1.8-0.2,2.7-0.1c0.2,0,0.5,0,0.7,0c0.4,0,0.8,0,1.3,0
		c0.8,0,1.5-0.1,2.1-0.2l0.1,0c0.3-0.1,0.6-0.2,0.6-0.6c0-0.6-0.6-0.6-0.9-0.6c-0.6,0-1.2,0-1.7,0l-1.9,0v0h-0.2c-0.4,0-0.7,0-1.1,0
		c-0.9,0-1.7,0-2.6,0l-0.1,0c-0.6,0-0.9-0.2-0.9-0.8c0-1.6-0.2-3.3-0.3-4.9c-0.1-1.6-0.3-3.3-0.3-5c0-3.8-0.2-8.8-1.2-13.7
		c-0.8-3.9-2.1-8.2-7-9.8l-0.3-0.1c-1.4-0.4-2.8-0.9-4.2-1.1c-2.6-0.3-5.4-0.4-8.5-0.4c-1.3,0-2.6,0-4.1,0.1l-1.1,0
		c-1.4,0-2.8,0.1-4.3,0.1c-1.6,0-3-0.1-4.3-0.2c-1.1-0.1-2.5,0-3.8,0c-0.8,0.1-1.6,0.1-2.4,0.1c-0.4,0-0.7,0-1,0
		c-0.8-0.1-1.5-0.1-2.1-0.1c-0.8,0-1.4,0-2.1,0.1c-0.4,0-0.7,0.1-1.1,0.2c-0.5,0.1-1,0.3-1.5,0.2c-0.6,0-1.2-0.1-1.8-0.1
		c-2.7,0-5.3,0.3-7.9,0.6c-1,0.1-2.3,0.4-3.4,1c-1.9,1.2-3.2,3-4.2,5.9c-1.3,3.9-1.7,8-2,12c-0.1,0.7-0.1,1.4-0.2,2.1
		c-0.1,1.1-0.1,2.3-0.1,3.4c0,1,0,2.1-0.1,3.2c-0.3,3.3,0.4,5.9,2.1,8.1C54.2-14.7,55.3-14.1,56.6-14.1z M119.2-17
		c-0.1,0.2-0.4,0.2-0.8,0.2c-1.6-0.2-3.3-0.2-4.9-0.3c-0.5,0-1,0-1.5,0c-0.6,0-1.1,0-1.7,0c-0.7,0-1.3,0-2,0c-1.4-0.1-2.8,0-4.2,0.1
		c-1.3,0.1-2.7,0.2-4,0.1c-1.9-0.1-3.9,0-5.8,0.2c-0.6,0.1-0.9,0-1.1-0.7c-0.8-4-3.3-6.5-7.3-7.1c-3.1-0.5-6.2,0.1-9.1,1.7
		c-1.6,0.9-2.8,2.2-3.9,4.1c-0.3,0.5-0.3,1-0.4,1.5c0,0.4-0.1,0.8-0.2,1.1c-0.2,0.4-0.3,0.6-0.7,0.6c-0.5,0-1.1,0-1.7,0
		c-0.9,0-1.9,0-2.8,0.1c-0.9,0-1.8,0.1-2.8,0.1c-0.9,0-1.8,0-2.5-0.1c-0.5-0.1-1-0.1-1.5-0.1c-0.9,0-1.7,0.1-2.5,0.1
		c-2.1,0.2-3.6-0.6-4.6-2.3c-0.8-1.5-1.2-2.9-1.1-4.4c0.1-1.3,0.1-2.7,0.2-4c0-1.4,0.1-2.9,0.2-4.4l0.1-1.2c0.3-4,0.7-8.1,2-12
		c1.3-3.9,3.7-6,7.7-6.4c4.9-0.5,9.8-0.6,14.3-0.7c0.9,0,1.7,0,2.6-0.1c1.8,0,3.6-0.1,5.4-0.1c1.1,0,2.2,0,3.2,0.1
		c0.9,0,1.9,0,3.1,0c0.7,0,1.4,0,2.2,0c0.7,0,1.4,0,2.2,0c1.1,0,2,0,2.8,0c0.8,0,1.6,0.1,2.5,0.1c1.2,0,2.5,0.1,3.7,0.1
		c3.1,0.1,5.8,0.6,8.2,1.6c2.4,1.1,3.4,3.4,4.2,5.9c0.9,3,1.2,6.1,1.5,9.3c0.1,0.9,0.1,1.8,0.1,2.7c0,0.8,0,1.6,0.1,2.3
		c0,3.6,0.4,7.3,0.7,10.8l0,0.3C119.4-17.5,119.3-17.2,119.2-17z"/>
	<path d="M9.2-0.3c0.3,0.6,0.7,0.8,1.2,0.5C12-1.1,13.9-2,15.5-2.6c1.3-0.5,2.7-1,4-1.5c0.6-0.2,1.2-0.5,1.8-0.7
		c0.1,0,0.3-0.1,0.4-0.1c0,0,0.1,0,0.1,0c0,0,0,0.1,0,0.3c-0.7,2.2,0.4,3.8,1.6,5.4c2.2,3,4.6,6.7,5.1,11.2c0.2,1.7-0.2,3.2-1.3,4.8
		c-0.5,0.8-1.3,2-0.5,3.2c0.7,1.1,1.7,1.9,3.3,2.5c0.2,0.1,0.3,0.1,0.5,0.1c0.5,0,0.8-0.2,1.2-0.5c0.2-0.1,0.4-0.2,0.6-0.3
		c0.2-0.1,0.4-0.2,0.5-0.3C33.4,21,34,21,35,21.6c0.7,0.5,1.7,1,2.8,1c0.7,0,1.3-0.2,1.9-0.6c1.7-1.1,3.7-2,6.1-2.7
		c0.7-0.2,1.3-0.3,2-0.3c1.4,0,2.9,0.4,4.5,1.4c0.6,0.3,1.1,0.7,1.6,1c0.8,0.5,1.6,1,2.4,1.5c2.2,1.1,4,2.1,5.4,3.8l0.1,0.1
		c0.4,0.5,0.9,1.1,1.7,1.1c0.1,0,0.2,0,0.4,0c1.2-0.3,2.1-0.8,2.7-1.6c1.5-2,0.8-3.5-0.8-5.3c-1.1-1.3-2.6-2.1-4-2.9
		c-0.5-0.3-1-0.6-1.4-0.9c-2.1-1.3-4-2.4-6-3.4c-0.4-0.2-0.8-0.3-1.2-0.3c-0.5-0.1-0.9-0.1-1.4-0.4c-1.9-1.5-3.9-2.9-6.3-4.4
		C44.3,7.8,43.1,6.9,42,6l-0.5-0.4c-1.3-1-2-2.3-2.7-3.8c-0.2-0.3-0.3-0.7-0.5-1c-0.4-0.7-0.7-1.3-1.1-2c-0.9-1.7-1.9-3.6-3.2-5.2
		c-0.4-0.5-0.8-1.1-1.1-1.7c-0.6-1-1.3-2-2.3-2.9c2.3-0.8,4.1-1.8,5.4-2.6c0.6-0.4,1.1-0.4,1.8,0c1.2,0.7,2.5,1.4,3.6,2.4
		c0.8,0.7,1.7,0.8,2.7,0.4c0.5-0.2,0.8-0.5,1-0.8c0.1-0.4,0-0.8-0.3-1.4c-0.2-0.3-0.5-0.5-0.8-0.7c-0.3-0.2-0.6-0.4-0.7-0.7
		c-0.7-1.5-2-2.3-3.3-3.1c-0.1-0.1-0.3-0.2-0.4-0.3c-1.4-0.9-3.3-1-4.8-0.2c-2,1.1-4.2,1.7-6.3,2.4l-0.8,0.3c-0.1,0-0.2,0.1-0.3,0.1
		c-0.2,0-0.2-0.1-0.3-0.6c-0.3-1.8-0.9-3.3-1.7-4.6c-0.3-0.4-0.5-0.6-0.9-0.6c-0.2,0-0.5,0.1-0.8,0.3c-1.9,1.3-3.9,2.4-6,3.3
		c-1.5,0.6-1.7,1.2-1.2,2.7c0.2,0.7,0.5,1.2,0.9,1.6c0.9,1,1.9,2.1,3.3,2.5c0.3,0.1,0.3,0.1,0.3,0.3c0,0.1,0,0.1-0.2,0.2
		c0,0-0.1,0-0.1,0.1c-0.5,0.2-0.9,0.5-1.3,0.8c-0.8,0.5-1.5,1-2.4,1.3c-1.7,0.6-3.4,1.3-5.1,2c-1,0.4-2,0.9-3.1,1.2
		C8.2-4.5,8-4.3,7.9-4.1C7.8-3.8,7.8-3.5,7.9-3.2C8.3-2.3,8.7-1.3,9.2-0.3z M22.4-10.1c-0.1-0.1-0.1-0.2-0.1-0.3
		c-0.3-0.6-0.5-1.3-1.4-1.5c-1.5-0.4-2.6-1.4-3.2-3.1c-0.2-0.4-0.2-0.6,0.2-0.7c2-1,4-2.1,5.9-3.1L24-19c0.1,0,0.2-0.1,0.2-0.1
		c0.1,0,0.2,0,0.3,0.4c0,0.1,0.1,0.3,0.1,0.4c0.5,1.2,0.9,2.4,0.2,3.7c-0.2,0.4-0.5,1,0.1,1.4c0.2,0.1,0.4,0.2,0.6,0.2
		c0.3,0,0.5-0.1,0.8-0.2c3.4-1.2,6.5-2.3,9.5-3.5c0.4-0.2,0.9-0.3,1.3-0.3c1.4,0,2.8,0.8,3.9,2.1c0.2,0.2,0.3,0.4,0.5,0.6
		c0.4,0.6,0.9,1.1,1.4,1.6c0,0,0.1,0.1,0.1,0.1c0.1,0.1,0.3,0.2,0.3,0.3c0,0.1-0.1,0.2-0.1,0.2c-0.4,0.4-0.7,0.4-1.1,0.1
		c-0.7-0.7-1.5-1.2-2.3-1.6c-0.4-0.2-0.8-0.5-1.2-0.8c-1.3-0.9-2.8-0.9-3.9,0c-1,0.8-2.1,1.3-3.3,1.7c-0.6,0.2-1.2,0.5-1.7,0.8
		c-0.1,0-0.1,0.1-0.2,0.1c-0.1,0-0.2,0.1-0.3,0.2c-0.6,0.4-0.9,0.8-0.9,1.2c0,0.3,0.3,0.6,0.8,0.9c1.7,1,2.6,2.6,3.5,4.2
		c0.4,0.8,0.9,1.6,1.4,2.3C35.8-1,37.1,1.4,38,4c0.5,1.4,1.7,2.3,2.8,3.1c3.4,2.5,6.8,4.9,9.9,7.1c0.9,0.6,1.7,0.9,2.6,1
		c0.5,0,1,0.4,1.5,0.7c0.2,0.2,0.5,0.3,0.7,0.4c2.6,1.4,5.4,2.9,8,4.7c0.4,0.3,0.7,0.6,1.1,0.9l0.1,0.1c1,0.9,1.4,1.7,1.4,2.4
		c-0.1,0.7-0.6,1.4-1.8,2.1c-0.4,0.3-0.7,0.2-1.1-0.1c-0.4-0.3-0.7-0.6-1-1c-0.3-0.4-0.7-0.8-1.1-1.1c-1.6-1.1-3.3-2-4.9-3
		c-1.4-0.8-2.8-1.6-4.1-2.5c-1.1-0.7-2.5-1.1-4-1.1c-0.3,0-0.5,0-0.8,0c-3.1,0.3-5.8,1.3-8.2,3.1c-0.8,0.6-1.5,0.6-2.5,0.1
		c-0.3-0.2-0.6-0.3-0.9-0.5c-1.4-0.8-2.4-0.8-3.5-0.1c-0.9,0.5-1.4,0.7-1.8,0.7c-0.6,0-1-0.3-1.8-0.9c-0.5-0.4-0.6-0.8-0.5-1.4
		c0.2-0.8,0.5-1.5,0.9-2.1c1.5-1.9,1.2-4,0.9-6l0-0.1c-0.4-3-1.9-5.6-3-7.3c-0.7-1.1-1.7-2.6-2.7-3.9c-0.9-1.1-1.2-2.2-1-3.5
		c0.1-0.5,0-1.1-0.4-1.5c-0.5-0.6-1.3-0.9-2.1-0.7c-1.7,0.4-3.2,1.2-4.8,1.9L16-4.5c-0.7,0.3-1.5,0.6-2.3,0.8
		c-0.6,0.2-1.3,0.4-1.9,0.7c-0.5,0.2-1,0.5-1.4,0.9C10.2-2,10-1.9,9.8-1.7c0,0,0-0.1,0-0.1C9.7-2,9.7-2.2,9.6-2.4
		C9.4-2.6,9.4-2.8,9.4-3C9.5-3.2,9.7-3.3,10-3.5c1.1-0.4,2.1-0.9,3.2-1.4c1.8-0.8,3.7-1.6,5.5-2.3c0.9-0.3,1.6-0.9,2.4-1.4
		c0.3-0.2,0.6-0.4,1-0.6C22.5-9.3,22.6-9.7,22.4-10.1z"/>
	<path d="M-8.9,85.3c-0.2-0.1-0.4-0.1-0.7-0.1c-0.1,0-0.2,0-0.2,0l-1.5-0.2c-1.3-0.1-2.7-0.3-4-0.4c-0.3,0-0.4-0.1-0.5-0.1
		c-0.1-0.1,0-0.2,0-0.5c0.3-1,0.5-2.1,0.7-3.1c0-0.2,0.1-0.5,0.1-0.7c0.4-2.2,1-4.4,1.6-6.5c0.5-1.8,1-3.6,1.4-5.4
		c0.1-0.4,0.2-0.7,0.3-1.1c0.2-0.7,0.5-1.5,0.4-2.2c-0.1-1.8,0.3-3.5,1.3-5.2c0.8-1.4,1.7-2.1,2.9-2.2c1.8-0.2,3.3-0.2,4.6,0.1
		c2.8,0.5,5.6,1.1,8.3,1.6c4.7,0.9,9.5,1.9,14.3,2.6c2.8,0.4,5.7,1.1,8.4,1.8c1.3,0.3,2.7,0.7,4.1,1c5.8,1.3,11.7,2.5,17.4,3.7
		l3.2,0.7c0.9,0.2,1.7,0.4,2.6,0.6c1.5,0.4,3.1,0.8,4.7,1c2.3,0.2,4.3,0.6,6.2,1.3c1.2,0.5,2,1.3,2.3,2.7c0.2,0.8,0.2,1.7,0.1,2.7
		c-0.1,1.3-0.2,2.7-0.3,4c-0.1,1.7-0.3,3.5-0.4,5.2c-0.2,1.9-0.3,3.8-0.5,5.6c-0.2,1.9-0.3,3.8-0.5,5.6c-0.1,0.7-0.4,0.7-0.5,0.7
		c-0.1,0-0.3,0-0.5-0.1c-1.3-0.6-2.7-0.7-4.1-0.8c-0.8-0.1-1.7-0.1-2.5-0.3c-0.2,0-0.4-0.1-0.5-0.1c-1.4-0.3-1.4-0.3-1.2-2l0-0.1
		c0.2-1.4,0.4-3.4-1.8-4.2c-0.2-0.1-0.3-0.2-0.4-0.4c-0.8-1.2-1.8-1.6-3.2-1.4c-0.4,0.1-0.9,0.1-1.4,0.1h-0.1c-0.7,0-1.5,0-2.3,0.3
		c-2.5,1-4.8,5.9-4.1,8.7c0.5,1.8,1.6,3,3.3,3.9c0.1,0.1,0.2,0.1,0.4,0.2c0.7,0.4,1.5,0.7,2.2,0.7c0.2,0,0.4,0,0.6-0.1
		c3-0.8,4.8-2.2,5.9-4.4c0.2-0.4,0.4-0.5,0.8-0.5l0.6,0.1c0.9,0.2,1.9,0.4,2.9,0.4c1,0.1,2,0.5,2.9,0.9c0.8,0.3,1.7,0.7,2.6,0.8
		l0.1,0c0.3,0,0.6,0.1,0.8,0.1c0.7,0,0.8-0.4,0.9-1.4c0.3-2.1,0.5-4.1,0.6-6c0.1-1.5,0.3-3,0.4-4.4c0.2-2.2,0.5-4.6,0.6-6.9
		c0-0.7,0.1-1.5,0.2-2.2c0.1-1.3,0.3-2.7,0.1-4c-0.3-2.2-1-3.7-2.2-4.6c-1.1-0.8-2.6-1.2-3.9-1.6l-0.2-0.1c-1.2-0.3-2.5-0.5-3.7-0.6
		c-1.2-0.1-2.4-0.2-3.5-0.5c-2.5-0.7-5.3-1.4-8.2-1.8c-1.6-0.2-3.2-0.6-4.7-0.9c-1.4-0.3-2.8-0.6-4.3-0.8c-3.5-0.5-6.6-1.3-9.6-2.2
		c-0.5-0.2-1.1-0.3-1.6-0.4c-0.5-0.1-1-0.2-1.5-0.3c-1.7-0.5-3.4-0.8-5.1-1.2c-0.4-0.1-0.9-0.2-1.3-0.2c-0.8-0.2-1.7-0.2-2.5-0.3
		c-1-0.1-2.1-0.2-3.1-0.5c-1.7-0.4-3.5-0.8-5.2-1.1l-0.8-0.1c-0.8-0.1-1.7-0.3-2.5-0.4c-1.3-0.2-2.7-0.4-4-0.7c-2.9-0.7-5.7-1-8.5-1
		h-0.1c-0.2,0-0.3,0-0.5,0c-0.2,0-0.4,0-0.5,0c-0.2,0-0.5,0-0.6,0C-9,56.4-10,57-10.7,58.1c-1.3,2-2,4-2,5.9c0,2-0.6,3.9-1.1,5.8
		c-0.2,0.8-0.4,1.5-0.6,2.3c-0.3,1.1-0.6,2.3-1,3.4c-0.5,1.7-1.1,3.6-1.4,5.4l0,0.2c-0.2,1.2-0.4,2.5-1,3.6
		c-0.3,0.5-0.2,0.9,0.1,1.2c0.2,0.3,0.5,0.4,0.7,0.4c0.2,0,0.4-0.1,0.6-0.2c0.2-0.2,0.4-0.2,0.7-0.2c0.2,0,0.3,0,0.5,0l0.1,0
		c0.5,0.1,1,0.1,1.4,0.2c0.8,0.1,1.5,0.2,2.3,0.3c0.7,0.1,1.3,0.1,2,0.1l0.4,0c0.3,0,0.6-0.2,0.7-0.5C-8.3,85.7-8.5,85.4-8.9,85.3z
		 M57,94.6c-0.1,4-2.1,6.3-5.9,6.8c-0.1,0-0.2,0-0.4,0h0c-1,0-2-0.5-2.8-1.3c-1.1-1.1-1.8-2.6-1.7-4.1c0.2-1.4,0.8-3,1.7-4.2
		c0.1-0.2,0.3-0.3,0.6-0.5c0.6-0.4,1.6-0.7,2.7-0.7c1.6,0,3.1,0.5,3.9,1.2c0,0,0.1,0.1,0.1,0.2c0.1,0.2,0.3,0.3,0.4,0.3
		C56.8,92.5,57,93.4,57,94.6z"/>
	<path d="M54.8,82.5c1.1,0.3,2.2,0.5,3.3,0.6c0.6,0.1,1.2,0.2,1.8,0.3l0.9,0.2c1.3,0.2,2.7,0.5,4,0.8l0.1,0c0.3,0.1,0.5,0.1,0.8,0.1
		c0.5,0,0.8-0.2,1-0.7c0.8-1.7,1-3.5,1.1-4.8c0-0.3,0.1-0.6,0.1-0.8c0.2-1.6-0.1-3-0.9-3.9c-0.7-0.8-1.8-1.3-3-1.3
		c-1.5,0-2.7-0.2-3.9-0.5c-0.9-0.2-1.8-0.3-2.7-0.4l-0.1,0c-0.7-0.1-1.4-0.2-2.1-0.3c-1.1-0.2-2.2-0.4-3.3-0.4c-0.2,0-0.3,0-0.5,0
		c-0.3,0-0.5,0-0.8-0.1l-0.9-0.2c-1.2-0.3-2.4-0.6-3.6-0.8c-1.2-0.2-2.4-0.4-3.5-0.6c-1.3-0.2-2.7-0.4-4.1-0.7
		c-0.3-0.1-0.6-0.1-0.9-0.2c-0.5-0.1-1-0.3-1.6-0.3c-0.8-0.1-1.6-0.1-2.4-0.1c-2-0.1-4.1-0.2-6.1-0.6c-0.4-0.1-0.6-0.1-0.8-0.1
		c-0.7,0-0.7,0.4-0.8,1.4l0,0c0,0.4-0.1,0.7-0.1,1.1c-0.1,1.5-0.2,3-0.8,4.4c-0.3,0.7-0.3,1.5,0.1,2.1c0.3,0.5,0.8,0.7,1.3,0.7
		l0.1,0c1.1,0,2.3,0.1,3.4,0.3c0.7,0.1,1.4,0.2,2.1,0.3l0.4,0c1.3,0.1,2.6,0.2,3.8,0.6c2.1,0.7,3.8,1.1,5.3,1.3
		c1.3,0.1,2.6,0.4,3.9,0.7c1.4,0.3,2.9,0.7,4.4,0.7C51.5,81.6,53.2,82.1,54.8,82.5z M27.2,70.3c0-0.1,0-0.2,0.1-0.3
		c0.1-0.1,0.2-0.1,0.3-0.1c0.1,0,0.1,0,0.2,0c1.3,0.2,2.7,0.3,4,0.4c2.4,0.2,4.9,0.3,7.3,0.9c1.7,0.4,3.5,0.6,5.3,0.9
		c0.8,0.1,1.6,0.2,2.5,0.3c1.4,0.2,2.8,0.4,4.2,0.7c1.3,0.2,2.5,0.4,3.8,0.6c0.8,0.1,1.5,0.2,2.3,0.3c1.6,0.2,3.3,0.4,4.9,0.9
		c0.4,0.1,0.9,0.2,1.4,0.2c0.4,0,0.8,0,1.2,0.1c1.2,0.3,1.7,1,1.6,2.4c-0.1,1.2-0.4,2.7-0.9,4.6c-0.1,0.4-0.3,0.4-0.4,0.4
		c-0.1,0-0.2,0-0.3,0c-1.6-0.3-3.2-0.6-4.8-0.8c-1.5-0.3-3-0.5-4.4-0.8c-0.8-0.1-1.7-0.3-2.5-0.4c-0.9-0.1-1.8-0.3-2.7-0.4
		c-1.3-0.2-2.6-0.5-3.8-0.7c-0.5-0.1-0.9-0.2-1.4-0.3c-0.9-0.2-1.9-0.3-2.8-0.5c-2.1-0.4-4.4-0.7-6.5-1.4c-2.3-0.8-4.8-1-7.1-1.2
		c-0.3,0-0.6-0.1-0.9-0.1c-0.3,0-0.5-0.1-0.6-0.2c-0.1-0.1-0.1-0.3-0.1-0.6c0.1-0.4,0.1-0.8,0.2-1.2C27.2,72.7,27.4,71.5,27.2,70.3z
		"/>
	<path d="M157.1-33.6c1.8,0.5,3.8,0.9,5.6,1.3c1.3,0.3,2.7,0.5,4,0.9c1.2,0.3,2.5,0.5,3.7,0.7c1.4,0.2,2.8,0.4,4.1,0.8l0.6,0.2
		c2,0.5,4,1.1,6.1,1.3c0.2,0,0.5,0,0.7,0c0.8,0,1.5,0.1,2.3,0.3c1.7,0.6,3.5,0.8,5.2,1c1.1,0.1,2.2,0.3,3.3,0.5c0.2,0,0.3,0,0.4,0
		c0.9,0,1.4-0.6,1.7-1.2c0.5-0.8,0-1.2-0.4-1.5c-0.1-0.1-0.2-0.2-0.3-0.3c-0.3-0.4-0.8-0.8-1.1-1.1c-0.6-0.5-1.2-1-1.5-1.7
		c-0.5-1-1.3-1.8-2-2.7c-0.5-0.6-1.1-1.2-1.6-1.9c-0.7-0.9-1.5-2-2.7-2.4l-0.2-0.1c-2.6-1-5.4-1.9-8.2-2.5c-2.1-0.4-4.1-1-6.1-1.5
		c-0.8-0.2-1.7-0.5-2.5-0.7c-0.9-0.2-1.8-0.4-2.6-0.4c-2,0-3.6,0.7-5,1.9c-0.2,0.2-0.4,0.3-0.6,0.5c-1.7,1.5-3.4,3.1-4.3,5.4
		c-0.4,0.9-0.4,1.5-0.2,2C155.8-34.1,156.3-33.8,157.1-33.6z M157.5-36.9c1.6-2.6,3.4-4.3,5.5-5.5c0.6-0.3,1.2-0.5,1.9-0.5
		c0.6,0,1.3,0.1,1.9,0.2l0.3,0.1c1.9,0.3,3.7,0.9,5.5,1.4c0.9,0.3,1.8,0.5,2.7,0.8c0.8,0.2,1.6,0.4,2.4,0.6c1.7,0.4,3.6,0.8,5.3,1.5
		c1.8,0.7,3,1.5,3.8,2.8c0.6,1,1.4,1.9,2.1,2.8c0.8,0.9,1.6,1.9,2.2,2.9c0.3,0.5,0.7,0.8,1.2,1.1c0.2,0.1,0.4,0.3,0.6,0.5
		c-1.6,0-3.1-0.3-4.5-0.6c-0.6-0.1-1.1-0.2-1.7-0.3l-0.6-0.1c-4.1-0.6-8.3-1.3-12.4-2.3c-0.8-0.2-1.7-0.3-2.5-0.4
		c-0.9-0.1-1.8-0.3-2.7-0.5c-1.6-0.4-3.2-0.8-4.8-1.1c-1.8-0.4-3.8-0.8-5.6-1.3c-0.8-0.2-1.1-0.4-1.2-0.7
		C156.9-35.8,157-36.2,157.5-36.9z"/>
	<path d="M22.2,72.7c-0.4,2.4-0.7,4.9-1.3,7.3c-0.4,1.8-0.8,3.6-1.2,5.3l-0.3,1.2c-0.1,0.3-0.1,0.7,0.1,1c0.1,0.2,0.3,0.3,0.6,0.3
		c0.6,0.1,0.9-0.3,1-1c0.1-1,0.3-2,0.6-3c0.1-0.6,0.2-1.2,0.4-1.8c0.3-1.5,0.6-3,0.9-4.4l0.1-0.3c0.1-0.5,0.2-1,0.2-1.5
		c0.1-0.7,0.2-1.3,0.3-1.9c0.4-1.2,0.6-2.3,0.7-3.4c0.2-1.7-0.4-2.9-1.8-3.4c-1.4-0.5-2.9-0.7-4.3-0.9c-0.6-0.1-1.3-0.2-1.9-0.3
		c-0.8-0.2-1.6-0.2-2.4-0.2c-1.3-0.1-2.7-0.2-3.9-0.7c-0.1-0.1-0.2-0.1-0.3-0.1c-0.4,0-0.5,0.4-0.5,0.7c-0.1,0.3-0.1,0.7-0.2,1
		C9,67,8.9,67.6,8.8,68.1c-0.3,1.4-0.6,2.8-0.8,4.2c-0.2,1.1-0.4,2.2-0.6,3.2c-0.2,1.2-0.6,2.5-0.9,3.6c-0.4,1.6-0.8,3.2-1.1,4.9
		c-0.2,1.1,0.2,1.6,1.3,1.9c1.7,0.4,3.4,0.6,5.1,0.8c2,0.3,4,0.5,6,1.1c0.1,0,0.2,0,0.3,0c0.4,0,0.6-0.2,0.8-0.5
		c0.2-0.5-0.1-0.7-0.3-0.9c0,0-0.1-0.1-0.1-0.1c-0.3-0.3-0.7-0.3-1-0.3l-0.1,0c-1.1,0-2.2-0.3-3.3-0.6l-0.1,0
		c-0.3-0.1-0.7-0.1-1-0.2c-0.1,0-0.2,0-0.2,0l0,0l0,0c-0.2,0-0.4,0-0.5,0c0,0,0,0,0,0c-0.8,0-1.5-0.2-2.2-0.3
		c-0.5-0.1-1-0.2-1.4-0.3c-0.4,0-0.6-0.1-0.7-0.3c-0.1-0.2-0.2-0.5-0.1-0.9c0.3-2.2,0.8-4.4,1.3-6.5l0.1-0.6
		c0.2-0.7,0.3-1.5,0.3-2.2c0.1-0.5,0.1-1,0.2-1.5c0.1-0.6,0.2-1.2,0.4-1.8c0.2-1.1,0.5-2.3,0.6-3.5c0-0.6,0.1-0.6,0.2-0.6
		c0.1,0,0.2,0,0.3,0.1l0.2,0.1c0.9,0.2,1.6,0.4,2.3,0.5c1.8,0.3,3.6,0.5,5.3,0.8c0.8,0.1,1.5,0.2,2.3,0.3c0.8,0.1,1.1,0.2,1.3,0.5
		c0.2,0.2,0.2,0.6,0.1,1.3C22.5,71,22.4,71.9,22.2,72.7z"/>
	<path d="M33.6,149.8c0.1,0,0.2,0,0.2,0c0.7,0,1.1-0.3,1.3-1.1c0.2-0.9,0-1.7-0.2-2.4c-0.1-0.2-0.1-0.5-0.2-0.7
		c-0.5-2.4-1.8-4.5-3.8-6.4c-1.2-1.1-2.7-1.9-4.1-2.7c-0.3-0.2-0.6-0.3-1-0.5c-0.9-0.5-2-0.7-3.1-0.9c-0.3-0.1-0.7-0.1-1-0.2
		c-4-0.9-8.3-1.5-12.7-1.7c-0.2,0-0.4-0.1-0.5-0.1c-0.9,0-1,0.7-1.1,1.2l0,0.1c-0.8,3.4-1.3,7.1-1.6,11.6c0,0.5,0.1,1,0.4,1.3
		c0.3,0.3,0.7,0.5,1.3,0.5c0.3,0,0.6,0,0.9,0c0.5,0,1.1,0,1.6,0.1c1.9,0.3,3.8,0.4,5.7,0.5c0.8,0,1.6,0.1,2.4,0.1
		c3.4,0.2,6.7,0.5,10,0.8C29.8,149.5,31.7,149.7,33.6,149.8z M23.3,147.1c-0.6,0-1.2,0-1.8,0c-1.5,0-3.1,0-4.6-0.2
		c-0.8-0.1-1.6-0.1-2.4-0.1c-1.3,0-2.6,0-3.9-0.4c-0.3-0.1-0.6-0.1-0.9-0.1c-0.2,0-0.4,0-0.6,0c-0.2,0-0.4,0-0.6,0
		c-0.3,0-0.5,0-0.7-0.1c-0.5-0.1-0.6-0.2-0.5-0.6c0.1-0.9,0.2-1.9,0.2-2.8c0.1-1.7,0.1-3.4,0.7-5.1c0.1-0.3,0.1-0.7,0.2-1
		c0-0.4,0.1-0.8,0.2-1.1c0.2-0.5,0.4-0.6,0.9-0.6l0.1,0c3.3,0.1,6.2,0.4,8.8,0.9c0.4,0.1,0.8,0.2,1.3,0.2c2,0.4,4.1,0.8,6,1.6
		c4.8,2.2,7.5,5.4,8.1,9.9c0,0.1,0,0.3,0,0.3c0,0-0.1,0.1-0.4,0.1c-0.2,0-0.5,0-0.9,0c-0.8-0.1-1.7-0.2-2.6-0.2
		C27.7,147.4,25.5,147.2,23.3,147.1z"/>
	<path d="M-9.7,16.4c1.3,0.7,2.9,1.6,4.8,1.6c0.2,0,0.4,0,0.7,0c0.4-0.1,0.8-0.1,1.3-0.1c0.9-0.1,1.9-0.1,2.9-0.4
		c2.2-0.6,4.6-1.6,5.9-3.8c2.1-3.5,2.8-7.2,1.9-11c0,0,0-0.1,0-0.1C7.4-0.7,5.3-2.5,3.4-4.1C2.7-4.5,2.1-4.9,1.4-5.3
		c-0.7-0.4-1.4-0.8-2-1.3C-1.7-7.5-3-7.9-4.5-7.9l-0.3,0c-0.7,0-1.5,0.1-2.1,0.2c-2,0.6-4.5,1.5-6.1,3.7c-1.9,2.7-3,6-3.4,10.2
		c-0.1,1.8,0.2,3.5,1.1,5C-14.1,13.3-12.3,15-9.7,16.4z M-14.1,2.8c0.2-0.5,0.3-1.1,0.5-1.6c0.3-0.9,0.5-1.8,0.9-2.7
		c1.2-2.6,3.2-4,6.6-4.6c0.3-0.1,0.7-0.1,1-0.1c1.8,0,3.4,0.9,4.9,1.7C1-3.8,2.3-2.9,3.7-1.6c1.9,1.7,2.9,4.1,2.8,7
		c-0.1,2.7-0.4,4.4-1.1,6.1c-1.4,3.3-4.4,4.2-7,4.7c-0.8,0.2-1.5,0.3-2.3,0.3c0,0,0,0,0,0c-3.1,0-6-1.5-8.7-4.4
		C-14.9,9.8-15.4,6.5-14.1,2.8z"/>
	<path d="M57.7,27.6c-1.4-1.5-3-2.5-5-2.9c-0.6-0.1-1.1-0.1-1.6-0.1c-0.2,0-0.3,0-0.5,0c-0.9,0-1.8,0-2.8-0.3
		c-0.9-0.4-2.3-0.1-3.6,0.7c-1.4,0.8-2.7,1.8-3.9,2.8c-0.2,0.2-0.5,0.4-0.7,0.6c-2.5,2-3.7,5.3-2.9,8.3c0.1,0.4,0.2,0.8,0.2,1.2
		l0,0.2c0.4,3.1,1.8,5.6,4.1,7.4c2,1.5,4.5,2.3,8.1,2.5c0.1,0,0.3,0,0.4,0c0.3,0,0.7-0.1,1.1-0.1c0.3-0.1,0.6-0.1,0.9-0.1
		c2.9-0.3,6.1-1,8.1-4.2c1.3-2.1,2.7-4.9,2.1-7.9C61.1,32.4,59.7,29.8,57.7,27.6z M46.3,25.6c-0.2,0.1-0.4,0.3-0.2,0.7
		c0.1,0.1,0.2,0.2,0.3,0.2c0.2,0,0.3-0.1,0.5-0.1c0,0,0.1,0,0.1,0c1.2-0.4,2.4-0.7,3.5-0.7c2.8,0,5.2,1.5,6.9,4.3
		c1.2,1.9,2.3,4.1,2.6,6.6c0.1,1.6-0.4,3.1-0.9,4.3c-1.5,3.3-3.9,5.2-7.5,5.7c-3.1,0.5-5.8,0.1-8.3-1.3c-2-1.1-3.4-2.8-4.1-5.2
		c-0.4-1.4-0.7-2.9-0.9-4.8c-0.3-2.3,0.5-4.1,2.2-5.7C42.1,28.1,44,26.5,46.3,25.6C46.3,25.5,46.3,25.5,46.3,25.6z"/>
	<path d="M-1.8,92.5c2.3-0.7,3.9-1.9,5-3.8c0.2-0.3,0.4-0.3,0.7-0.2c3.9,0.6,7.8,1.2,11.6,2c3.7,0.8,7.5,1.5,10.7,2.1
		c2,0.4,4.1,0.8,6.1,1.3c0.9,0.2,1.7,0.4,2.6,0.6c1.6,0.3,3.2,0.5,4.8,0.7c1.2,0.1,2.3,0.3,3.5,0.5c0.1,0,0.2,0,0.3,0
		c0.4,0,0.6-0.2,0.6-0.5c0-0.4-0.3-0.7-0.7-0.7c-0.3-0.1-0.7-0.1-1-0.1c-0.3,0-0.6-0.1-0.9-0.1c-1-0.1-2-0.3-2.9-0.4
		c-2.2-0.3-4.5-0.5-6.6-1.1c-2.5-0.7-5-1.1-7.5-1.6c-1.6-0.3-3.2-0.6-4.8-0.9c-4.4-1-9.1-1.8-14.2-2.6c-1.6-0.2-1.6-0.2-1.5-1.8l0,0
		c0-1.7-0.7-3.5-1.8-4.7c-1.5-1.5-3.4-1.9-5.5-1c-3,1.3-5,4.1-4.9,7.1c-0.3,1,0.2,1.9,0.6,2.7c0.1,0.3,0.3,0.5,0.4,0.8
		c0.4,1,3.5,2.1,5,2.1C-2.2,92.6-2,92.5-1.8,92.5z M1.8,88.9c-1.1,1.4-2.6,2.2-4.3,2.2c0,0,0,0,0,0c-1.2,0-2.3-0.4-3.2-1.2
		c-1.1-0.9-1.5-2.1-1.4-3.9C-7.3,85-6.9,83.8-6,82.8c1.1-1.2,2.8-2,4.3-2c0.3,0,0.5,0,0.7,0.1c0.7,0.1,1.1,0.5,1.6,0.9l0.1,0.1
		C3.2,83.6,2.8,87.5,1.8,88.9z"/>
	<path d="M6,73.2c0.8-2,1.2-4.2,1.6-6.2l0.1-0.7c0.1-1.1-0.6-1.7-1.3-1.9c-1.9-0.6-4.2-1.2-6.6-1.6c-0.5-0.1-1-0.2-1.5-0.2
		c-2-0.3-4.1-0.7-6-1.4C-7.9,61-8,61-8.2,61c-0.6,0-0.7,0.6-0.7,0.9c-0.2,1.7-0.4,3.4-0.6,5.1L-9.7,68C-9.8,69.1-9,71.3-8,71.6
		c0.2,0.1,0.5,0.1,0.7,0.2c0.9,0.3,1.9,0.6,2.9,0.7l0.5,0c1.2,0.1,2.3,0.2,3.5,0.8c1,0.6,2.3,0.8,3.9,0.8c0.5,0,1,0,1.4,0
		C5.4,74.1,5.8,73.8,6,73.2z M5.6,67.3l-0.2,0.9c-0.3,1.1-0.5,2.3-0.7,3.5c-0.1,0.7-0.4,0.7-0.9,0.6c-1.8-0.3-3.3-0.6-4.6-1.1
		c-1.1-0.4-2.2-0.5-3.3-0.6c-0.5-0.1-1-0.1-1.5-0.2l-0.1,0c-0.3,0-0.6-0.1-0.9-0.2C-8,69.9-8,69.9-8,67.9c0.1-0.4,0.1-0.9,0.1-1.4
		c0.1-0.9,0.1-1.9,0.4-2.8c0.1-0.4,0.2-0.4,0.3-0.4c0.1,0,0.1,0,0.2,0c2.7,0.6,5.4,1.1,8,1.7c1.1,0.2,2.3,0.5,3.4,0.7
		c0.7,0.1,1,0.2,1.2,0.5C5.8,66.3,5.7,66.7,5.6,67.3z"/>
	<path d="M88.9-19.4c-0.8-1.7-2.3-2.6-4.2-2.4c-1.9,0.2-3.8,0.4-5.5,1.2c-2.7,1.3-3.8,3-3.7,5.8c-0.2,1.2,0.2,2.4,0.6,3.5
		c1.1,2.9,4,3.9,6.2,3.9c0.6,0,1.2-0.1,1.7-0.2c2.2-0.6,4.2-2.1,6-4.5c0.2-0.3,0.3-0.6,0.4-1c0.4-2.2-0.5-4.1-1.4-6L88.9-19.4z
		 M88.8-13.4c-0.1,0.3-0.3,0.6-0.6,0.9c-1.2,1.4-2.7,2.4-4.6,3.1c-0.5,0.2-1,0.3-1.6,0.3c0,0,0,0,0,0c-2,0-4.2-1.2-5.1-2.9
		c-0.4-0.7-0.5-1.4-0.5-2.3c-0.1-1.9,0.8-3.3,2.8-4.5c1.4-0.8,2.9-1.2,4.6-1.2c0.8,0,1.7,0.1,2.6,0.3c0.3,0.1,0.5,0.2,0.8,0.4
		C88.6-18.3,89.5-14.9,88.8-13.4z"/>
	<path d="M173.2,137.3c-1.8,0.3-2.5,1.5-3,2.7c-0.1-0.1-0.1-0.2-0.1-0.4c0-1.2-0.8-1.8-1.6-2.3c-0.8-0.5-1.5-0.8-2.3-0.8
		c-0.7,0-1.3,0.3-1.9,0.8c-1.4,1.1-2.4,3-1.6,4.8c0.8,1.7,2.9,2.9,4.9,2.9c0.4,0,0.8-0.1,1.2-0.2c0.8-0.2,1.2-0.6,1.4-1.2
		c0.2-0.5,0.3-0.6,0.3-0.6c0.1,0,0.2,0.1,0.5,0.5c0.8,1.1,1.8,1.6,2.9,1.6c0.5,0,1.1-0.1,1.7-0.3c1.7-0.6,2-1.1,2-3.6
		c0-1-0.4-2.1-1.2-2.8C175.6,137.5,174.4,137.1,173.2,137.3z M176.3,140.2c0,1.4-0.2,2.3-0.8,2.9c-0.4,0.4-1,0.6-1.8,0.6
		c-1.2,0-2.1-1-2.1-2.3c0-1.4,1.1-2.4,2.6-2.5l0.1,0C175.2,139,176.3,139.7,176.3,140.2z M166.6,138.1l0,0.1c0.7,0,1.3,0.3,1.8,0.8
		c0.6,0.6,0.9,1.5,0.9,2.5c0,1.1-0.9,2.1-2,2.1c-2,0-3.3-1-3.3-2.4c0-0.8,0.3-1.6,0.9-2.2c0.5-0.5,1.1-0.8,1.7-0.8L166.6,138.1
		C166.6,138.1,166.6,138.1,166.6,138.1z"/>
	<path d="M158.1-23.4c-0.8-0.7-2.4-1.2-4.2-1.2c-2.1,0-3.9,0.6-4.8,1.4c-0.2,0.2-0.4,0.5-0.6,0.8l-0.1,0.2c-0.3,0.4-0.5,0.8-0.8,1.2
		c-0.1,0.2-0.3,0.4-0.4,0.6c-2.4,3.7-2,7.4,0.9,10.3c1.3,1.3,3.2,2,5.6,2c0.2,0,0.4,0,0.6,0l0.2,0c1.1,0,2.4-0.1,3.7-0.9
		c1.7-1.2,2.9-2.8,3.9-5.4c0.7-1.8,0.4-3.6-0.8-5.5C160.5-21.2,159.3-22.3,158.1-23.4z M157.9-10.2c-1,0.6-2,0.7-3.2,0.7
		c-0.4,0-0.8,0-1.2,0.1l-0.4-0.1c-1.8-0.3-3.6-0.5-4.9-2c-2.9-3.4-1.5-6.8,0.3-9.1c1.2-1.6,2.8-2.3,5-2.3c0.6,0,1.2,0,2,0.1
		c2.1,0.3,5.2,3.8,5.6,6.3C161.5-14.4,160-11.5,157.9-10.2z"/>
	<path d="M210.4-12.4C210.4-12.4,210.4-12.4,210.4-12.4c-0.1,0-0.3,0-0.4,0c-0.6,0-1.3,0.2-1.9,0.5c-0.9,0.3-1.5,0.9-2.1,1.5
		c-0.2,0.2-0.4,0.4-0.6,0.6c-1.5,1.3-2.1,3-1.7,5.2c0.3,1.6,0.9,3,1.9,4.4c1.7,2.2,3.7,3.2,6.2,3.2c0.2,0,0.3,0,0.5,0
		c2.6-0.1,4.7-1.6,6.4-4.5c1.2-2,0.9-4,0.4-5.3C218-9.9,214.1-12.4,210.4-12.4z M217.9-2.1c-0.6,1.5-2,2.7-3.7,3.2
		c-0.9,0.3-1.8,0.4-2.7,0.4c0,0,0,0,0,0c-2.4,0-4.4-1.2-5.8-3.4c-0.8-1.3-1-2.8-1.2-4.3c-0.1-0.9,0.3-1.7,1-2.3l0.3-0.2
		c1.3-1.1,2.5-2.1,4.3-2.1c0.1,0,0.2,0,0.2,0c2.6,0.4,5.7,1.3,7.4,4.7C218.4-4.9,218.5-3.5,217.9-2.1z"/>
	<path d="M203.1,139.1c-0.7-0.6-1.6-0.8-2.5-0.8c-1.5,0-2.8,0.7-3.6,1.9c-0.3,0.4-0.6,1-0.7,1.6c0-0.3-0.1-0.5-0.2-0.7
		c-0.3-1-0.8-2.5-2.3-3c-1.3-0.4-2.9,0.1-3.9,1.1c-0.7,0.8-1.2,1.7-1.2,2.6c0,1.5,0.9,3,2.3,3.7c0.5,0.2,1,0.4,1.5,0.4
		c0.9,0,1.8-0.3,2.6-0.7l0.1-0.1c0.7-0.3,1-1.1,1-2.1c0.5,1.7,2.3,3.1,4.2,3.1c0.2,0,0.4,0,0.6-0.1c1.4-0.2,2.9-2.5,2.9-4.3l0-0.1
		C203.9,140.7,203.9,139.7,203.1,139.1z M202.9,141.3c0,0.8-0.3,1.7-0.9,2.4c-0.6,0.7-1.3,1.1-2,1.1c-1.2,0-2.4-0.9-2.4-1.8
		c0-0.6,0.3-1.4,0.9-2c0.6-0.6,1.4-1,2.1-1l0,0C202,139.9,202.9,140.5,202.9,141.3z M193.6,139.4v0.1c0.8,0,1.5,1.2,1.5,2.5
		c0,1.5-0.8,2.3-2.6,2.3l-0.1,0c-0.8,0-1.4-0.1-1.7-0.4c-0.4-0.3-0.5-0.6-0.5-1.2c0-1.7,1.6-3.2,3.5-3.2L193.6,139.4
		C193.6,139.4,193.6,139.4,193.6,139.4z"/>
	<path d="M93.5,31.8c0.1,0.5,0.2,1,0.2,1.5c0.2,1.5,0.5,3,0.4,4.7c-0.1,0.8,0.1,1.7,0.2,2.6c0.1,0.4,0.1,0.8,0.2,1.2
		c0.3,2.7,2.3,4.5,4.9,4.5c0.2,0,0.4,0,0.6,0c1.3-0.1,2.8-0.3,4.4-0.6c0.8-0.1,1.6-0.3,2.4-0.5c1.1-0.3,2.2-0.5,3.4-0.7
		c3.1-0.4,6.3-0.9,9.5-1.5c0.5-0.1,1-0.2,1.5-0.3c2.6-0.5,5.2-1,7.7-2.1c1-0.4,1.5-0.9,1.6-1.8c0.1-0.7,0.2-1.6,0-2.5
		c-0.2-0.7-0.4-1.5-0.5-2.2c-0.3-1.3-0.6-2.6-1-3.9c-0.2-0.7-0.3-1.4-0.5-2.1c-0.1-0.8-0.3-1.6-0.5-2.4c-0.2-0.7-0.6-1.1-1.3-1.2
		c-0.8-0.1-1.6-0.2-2.4-0.2c-2.3,0-4.6,0.4-6.8,0.9l-0.7,0.1c-2.2,0.5-4.6,1-6.8,1.1c-1.4,0.1-2.9,0.3-4.3,0.5
		c-1.5,0.2-3.1,0.5-4.7,0.5c-1.2,0.1-2.4,0.3-3.6,0.5c-1,0.2-2,0.4-3.1,0.5c-0.4,0-0.7,0.2-0.9,0.4c-0.2,0.2-0.3,0.6-0.2,1
		c0,0.2,0.1,0.4,0.1,0.7C93.5,31.1,93.5,31.5,93.5,31.8z M94.9,31.7c-0.2-1.2-0.1-1.3,1.1-1.6c1-0.2,2-0.3,3-0.4c1-0.1,2-0.2,3-0.4
		c2.8-0.6,5.6-0.9,7.8-1.1c2-0.2,3.9-0.6,5.8-1c0.7-0.2,1.5-0.3,2.2-0.4c1.6-0.3,3.3-0.4,4.9-0.6c0.7-0.1,1.5-0.1,2.2-0.2
		c0.2,0,0.4,0,0.5,0c1,0,1.4,0.4,1.6,1.6c0.2,1.6,0.6,3.3,1,4.8c0.2,0.9,0.5,1.8,0.6,2.7l0.1,0.3c0.7,3.3,0.7,3.3-2.3,4.2l-0.2,0.1
		c-2.9,0.8-6.8,1.8-10.8,2.4c-2.4,0.4-4.9,0.9-7.2,1.3c-2.2,0.5-4.6,0.9-6.9,1.3c-0.5,0.1-1,0.1-1.4,0.1c-1.7,0-2.8-0.6-3.5-1.9
		c-0.5-0.9-0.6-2-0.7-3c0-0.3-0.1-0.7-0.1-1c-0.1-0.4,0-0.8,0-1.2c0-0.2,0-0.4,0-0.6C95.5,35.6,95.3,33.8,94.9,31.7z"/>
	<path d="M129.9,60.5c-0.2,0-0.4,0.2-0.5,0.5c0,0.2-0.2,0.3-0.5,0.3c-1,0.1-1.9,0.4-2.9,0.6c-0.4,0.1-0.8,0.3-1.3,0.4
		c-0.6,0.1-0.8,0.4-0.8,0.7c-0.1,0.3,0,0.7,0.2,1c0.2,0.3,0.3,0.6,0.5,0.9c0.1,0.1,0.1,0.3,0.2,0.4c0.2,0.4,0.3,0.7,0.4,1.1
		c0.3,0.8,0.6,1.6,1.1,2.2c0.2,0.2,0.4,0.4,0.7,0.4c0.2,0,0.4-0.2,0.4-0.4c0-0.6,0.2-0.6,0.4-0.6c0.1,0,0.2,0,0.3,0
		c0.1,0,0.2,0,0.4,0h0l0,0c0.8-0.2,1.7-0.3,2.5-0.4c1.1-0.1,2.3-0.3,3.4-0.7c1.4-0.6,1.8-1.1,1.6-2.7c0-0.6-0.2-1.1-0.4-1.6
		c-0.1-0.2-0.1-0.5-0.2-0.7l0-0.2c-0.3-1.1-0.4-1.5-1.1-1.5c-0.3,0-0.6,0-1,0.1c-0.1,0-0.3,0.1-0.4,0.1c-0.1,0-0.2,0.1-0.4,0.1
		c-0.3,0-0.5,0.2-0.8,0.3c-0.3,0.1-0.6,0.3-0.9,0.3c-0.3,0-0.6-0.1-0.8-0.4C130,60.6,130,60.5,129.9,60.5z M126,63.9
		c0.1-0.2,0.5-0.3,0.8-0.4c2.1-0.4,4.2-0.8,6.3-1.1c0.1,0,0.1,0,0.2,0c1,0,1.2,1.3,1.2,2.1c-0.1,0.4-0.5,0.8-1,0.9
		c-1.6,0.3-3.3,0.6-4.9,0.9c-0.5,0.1-1,0.2-1.5,0.3c-0.1,0-0.2,0-0.3,0c0,0,0-0.1,0-0.1c0-0.5-0.2-0.9-0.4-1.2
		c-0.1-0.1-0.1-0.2-0.2-0.3C125.9,64.4,125.9,64.1,126,63.9z"/>
	<path d="M107.1,67.3c-0.1-0.6-0.2-1.3-0.5-1.9c-0.2-0.6-0.6-1.3-1.5-1.3c-0.1,0-0.3,0-0.4,0c-0.5,0.1-1.1,0.3-1.6,0.4
		c-0.9,0.3-1.8,0.6-2.7,0.5c-1-0.1-1.9,0.2-2.8,0.4l-0.3,0.1c-0.4,0.1-0.8,0.2-1,0.5c-0.1,0.2-0.1,0.4-0.1,0.6
		c0.1,0.4,0.5,0.7,1,0.7c0.2,0,0.4,0,0.6-0.1c0.1,0,0.1,0,0.2,0c1-0.1,2.1-0.3,3.1-0.6c1.1-0.3,2.1-0.5,3.2-0.6
		c1.1-0.1,1.4,0,1.4,1.3c0,0.8-0.9,1.8-1.8,1.9c-0.6,0.1-1.2,0.1-1.7,0.1c-1.4,0.1-2.8,0.2-4.1,0.6c-0.1,0-0.2,0-0.3,0
		c-0.2,0-0.4-0.1-0.6-0.6c-0.3-0.8-0.6-1.6-1-2.4c0,0,0-0.1-0.1-0.1c-0.1-0.3-0.3-0.7-0.7-0.7c-0.1,0-0.2,0-0.3,0.1
		c-0.4,0.2-0.5,0.8-0.2,1.3c0.1,0.3,0.3,0.6,0.4,0.9c0.4,0.9,0.7,1.8,1.3,2.6c0.3,0.4,0.6,0.6,1,0.6c0.1,0,0.1,0,0.2,0
		c0.6-0.1,1.2-0.2,1.9-0.3c1.9-0.3,3.8-0.6,5.7-1c2-0.4,2.3-1.2,1.9-3.1L107.1,67.3z"/>
	<path d="M164.3,124.1v0.2h0.2c0,0,0,0.1,0,0.1c0,0.2,0,0.4,0,0.6c0,1.5,0.3,2.1,1.7,2.1c0.1,0,0.3,0,0.5,0c0.8,0,1.7,0,2.5,0.1
		c0.9,0.1,1.8,0.2,2.7,0.1c0.4,0,0.7,0,1.1,0c1.4,0,2.8,0.2,4.2,0.3c0.9,0.1,1.8,0.2,2.6,0.2l0.5,0c2.5,0.2,5.1,0.3,7.7,0.4
		c0.4,0,0.9,0,1.4-0.1c0.4,0,0.8-0.1,1.1-0.1c0.4,0,0.7,0,1,0.1c1.5,0.4,3,0.4,4.5,0.5c0.5,0,1.1,0,1.7,0.1l0.9,0.1
		c1.9,0.1,3.9,0.3,5.9,0.3c0,0,0.1,0,0.1,0c1,0,1.1-0.5,1.2-1.1l0-0.2c0.2-1,0.2-1.9,0.1-2.8c0-0.7-0.1-1.5,0-2.2l0.1-0.6
		c0.1-0.8,0.2-1.6,0.2-2.4c0-0.7,0-1.4,0-2.1c0-1.2-0.1-2.5,0.1-3.8c0.1-0.8-0.3-1.1-0.6-1.4c-0.1-0.1-0.2-0.1-0.2-0.2
		c-0.1-0.1-0.2-0.1-0.3-0.1c-0.2,0-0.3,0.1-0.4,0.2c-0.1,0.1-0.3,0.1-0.4,0.1c0,0,0,0,0,0l-0.7-0.1c-1.5-0.1-3-0.2-4.4-0.3
		c-2-0.1-4-0.1-6-0.2c-1.9,0-3.8,0-5.7-0.1c-0.7,0-1.4-0.1-2.3-0.1c-1.3,0-2.6,0-3.8,0.1c-0.9,0-1.9,0.1-2.9,0.1
		c-2.1,0-4.2,0-6.1-0.1c-0.4,0-0.9,0-1.3,0.1c-0.4,0-0.7,0.1-1.1,0.1c-0.5,0-0.8-0.1-1.2-0.2c-0.2-0.1-0.4-0.1-0.6-0.1
		c-0.5,0-0.9,0.2-1.3,0.5c-0.4,0.2-0.7,0.4-1.1,0.4c-0.1,0-0.2,0-0.4-0.1c0,0-0.1,0-0.1,0c-0.3,0-0.4,0.5-0.4,0.7
		c0,0.4-0.1,0.8-0.1,1.2c-0.1,0.9-0.2,1.9-0.3,2.9c0,1.6,0,3.2,0,4.8C164.3,122.8,164.3,123.5,164.3,124.1z M183.5,126.4
		c-0.3,0-0.7,0-1,0c-1.2,0-2.4-0.1-3.5-0.2c-0.8-0.1-1.6-0.2-2.5-0.2c-0.2,0-0.4,0-0.4-0.1c0-0.1,0-0.2,0-0.3
		c0.4-2.3,0.3-4.6,0.1-6.8c-0.1-1.3-0.2-2.7-0.1-4.1c0-1.1,0-1.1,0.7-1.1c0.1,0,0.2,0,0.3,0l0.5,0c1.3,0,2.5-0.1,3.8-0.2
		c0.5,0,1.1-0.1,1.6-0.1c0.1,0,0.1,0,0.2,0c0,0,0.1,0,0.1,0c0.9-0.1,1.4,0,1.7,0.4c0.3,0.3,0.4,0.8,0.3,1.6
		c-0.2,1.5-0.3,2.9-0.2,4.5c0.1,2-0.2,4.2-0.7,6.3c-0.1,0.3-0.2,0.3-0.2,0.3c-0.1,0-0.2,0-0.2,0c-0.1,0-0.2,0-0.2,0
		C183.6,126.4,183.6,126.4,183.5,126.4z M183.6,126.5L183.6,126.5C183.6,126.5,183.6,126.5,183.6,126.5L183.6,126.5z M174.9,119.1
		c0.2,1.3,0,2.5-0.1,3.7c-0.1,0.9-0.2,1.8-0.2,2.8c0,0.1,0,0.2,0,0.2c0,0-0.2,0.1-0.4,0l0,0c-0.6,0-1.2-0.1-1.8-0.1
		c-1.4-0.1-2.9-0.2-4.4-0.2c-0.2,0-0.4,0-0.6,0l-0.1,0c-0.6,0-0.9-0.1-1-0.3c-0.1-0.2-0.1-0.5,0.1-1.1l0.1-0.3l-0.5,0.1
		c0-0.6,0-1.2,0-1.8c0-1.6,0-3.3,0-5c0-0.6,0.1-1.1,0.1-1.7c0.1-0.5,0.1-1,0.1-1.5c0-0.5,0.3-0.7,0.8-0.7c0,0,0,0,0,0l0.4,0
		c0.3,0,0.6,0,0.9,0c0.6,0,1,0,1.4-0.1c0.1,0,0.3,0,0.4,0c0.6,0,1.2,0.1,1.8,0.2l0.1,0c0.3,0,0.7,0.1,1,0.1l0.3,0c0.2,0,0.4,0,0.6,0
		c0.3,0,0.5,0.1,0.7,0.2c0.1,0.1,0.1,0.3,0.1,0.5C174.4,116,174.7,117.6,174.9,119.1z M204.5,120.9c-0.1,1-0.2,2-0.2,3
		c0,0.5,0,0.9,0,1.4c0,0.5,0,0.9,0,1.4c0,0.4,0,0.6-0.2,0.7c-0.1,0.1-0.4,0.2-0.8,0.2h-0.1c-1.3,0-2.7-0.1-4-0.2
		c-0.9-0.1-1.8-0.1-2.7-0.2c-0.4,0-0.5-0.1-0.5-0.5c0-1.3,0-2.6,0-3.8c0-1,0-2.1,0-3.2c0-0.4,0-0.9,0-1.3c0.1-1.3,0.1-2.6-0.1-4
		c0-0.3,0-0.4,0-0.5c0.1-0.1,0.3-0.2,0.6-0.2c0.3,0,0.6-0.1,1-0.1c0.8,0,1.6,0.1,2.3,0.2c0.7,0.1,1.5,0.2,2.3,0.2
		c0.2,0,0.4,0,0.7-0.1c0.2,0,0.5-0.1,0.7-0.1c0.4,0,0.6,0.1,0.8,0.5c0.2,0.5,0.1,1.1,0.1,1.6c0,0.2,0,0.4,0,0.6
		C204.8,118.1,204.7,119.6,204.5,120.9z M194.7,114.8c0.1,0.4,0.1,0.9,0,1.3c-0.1,0.6-0.1,1.3-0.1,1.9c0,0.7,0,1.4-0.2,2.1
		c-0.2,0.6-0.1,1.1,0,1.6c0,0.1,0.1,0.3,0.1,0.4c0.2,0.9,0,1.8-0.1,2.6c0,0.2-0.1,0.4-0.1,0.6c-0.1,0.6-0.1,1.3,0.5,1.7
		c-1.2,0-2.3-0.1-3.5-0.2c-1.2-0.1-2.4-0.2-3.6-0.2c-0.2,0-0.4,0-0.5,0l-0.1,0c-0.4,0-0.6-0.1-0.8-0.3c-0.2-0.2-0.2-0.5-0.1-0.9
		c0.4-1.9,0.4-3.8,0.4-5.6c0-0.6,0-1.3,0-1.9c0-0.5,0-1,0.1-1.5c0-0.9,0.1-1.7,0.1-2.6c0-0.3,0.1-0.3,0.4-0.3l0.1,0
		c2.3,0.1,4.5,0.2,6.8,0.2c0.4,0,0.5,0.2,0.6,0.6C194.6,114.4,194.6,114.6,194.7,114.8z"/>
	<path d="M178.9,38L178.9,38L178.9,38c0.6-0.3,1.1-0.5,1.7-0.7c0.8-0.3,1.5-0.6,2.2-1.1c0.3-0.2,0.3-0.5,0.1-0.8
		c-0.2-0.3-0.5-0.4-0.9-0.3c-1.1,0.4-2.3,0.9-3.7,1.5c-0.3,0.1-0.5,0.4-0.4,0.7C178.2,37.8,178.4,38,178.9,38z"/>
	<path d="M172.3,41.2L172.3,41.2L172.3,41.2c0.3-0.1,0.5-0.2,0.8-0.3c0.6-0.3,1.2-0.5,1.9-0.8c0.2-0.1,0.9-0.4,0.6-1.1
		c-0.1-0.3-0.3-0.5-0.6-0.5c-0.2,0-0.4,0.1-0.6,0.2c-0.7,0.3-1.3,0.6-2,0.9l-0.6,0.3c0,0-0.1,0-0.1,0c-0.2,0.1-0.4,0.2-0.4,0.3
		c0,0.1,0,0.3,0,0.4C171.5,41,171.8,41.2,172.3,41.2z"/>
	<path d="M161.7,53c0.1,0,0.2,0,0.4-0.1c1.1-0.6,2.2-1,3.4-1.5c0.4-0.1,0.5-0.4,0.4-0.8c-0.1-0.3-0.3-0.5-0.8-0.4l0,0l0,0
		c-0.5,0.4-1.1,0.6-1.8,0.7c-0.6,0.2-1.3,0.4-1.9,0.7c-0.1,0.1-0.3,0.3-0.4,0.5c0,0.1,0,0.3,0.1,0.5C161.2,52.9,161.4,53,161.7,53z"
		/>
	<path d="M204.8,34.7c0.1,0,0.2,0,0.4,0c0.2-0.1,0.4-0.1,0.6-0.2c0.6-0.2,1.2-0.4,1.9-0.7c0.2-0.1,0.4-0.3,0.5-0.5
		c0.1-0.2,0.1-0.4,0-0.6c-0.1-0.2-0.3-0.4-0.6-0.4c-0.2,0-0.3,0.1-0.5,0.1c-0.8,0.3-1.7,0.6-2.5,0.9l-0.1,0
		c-0.2,0.1-0.6,0.2-0.5,0.7C204.1,34.5,204.4,34.7,204.8,34.7z"/>
	<path d="M168.5,50.5c0.1,0,0.2,0,0.4,0c1-0.3,2.1-0.9,3-1.6c0.2-0.2,0.6-0.5,0.3-0.9c-0.1-0.2-0.2-0.2-0.4-0.2
		c-0.2,0-0.3,0.1-0.5,0.1l-0.1,0c-0.6,0.3-1.2,0.5-1.8,0.8l-1.1,0.5c0,0-0.1,0-0.1,0c-0.2,0.1-0.6,0.3-0.5,0.7
		C167.9,50.3,168.1,50.5,168.5,50.5z"/>
	<path d="M195.9,38.1c0.1,0,0.2,0,0.4-0.1l0.2-0.1c0.4-0.2,0.7-0.4,1.1-0.5c0.8-0.2,1.6-0.6,1.9-1.7l0.1-0.2l-0.2,0
		c-1.1,0-2,0.5-2.9,0.9c-0.3,0.2-0.7,0.3-1.1,0.5c-0.2,0.1-0.2,0.2-0.3,0.3c-0.1,0.2,0.1,0.5,0.2,0.6
		C195.5,38,195.7,38.1,195.9,38.1z"/>
	<path d="M187.6,40.5c0.1,0.3,0.3,0.5,0.7,0.5l0,0l0,0c0.2-0.1,0.5-0.2,0.7-0.4c0.7-0.4,1.4-0.7,2.1-1.1c0.1-0.1,0.3-0.2,0.3-0.4
		c0-0.2,0-0.3-0.1-0.5c-0.1-0.2-0.3-0.2-0.5-0.2c-0.2,0-0.4,0.1-0.5,0.2c-0.8,0.4-1.7,0.8-2.4,1.1C187.6,39.8,187.5,40.1,187.6,40.5
		z"/>
	<path d="M182.4,42.6c-0.2,0.1-0.4,0.1-0.5,0.3c-0.1,0.1-0.1,0.3,0,0.5c0.1,0.3,0.4,0.5,0.7,0.5c0.1,0,0.2,0,0.3-0.1
		c0.7-0.2,1.4-0.5,2.3-0.8c0.3-0.1,0.5-0.4,0.6-0.8l0,0l0,0c0-0.5-0.3-0.6-0.5-0.6c-0.1,0-0.2,0-0.4,0.1c-0.5,0.2-1,0.4-1.4,0.6
		c-0.3,0.1-0.6,0.2-0.9,0.4C182.5,42.5,182.4,42.5,182.4,42.6z"/>
	<path d="M174.6,46.1c0.1,0.4,0.5,0.4,0.8,0.4l0.2,0c1.3-0.3,2.4-0.6,3.3-1.1c0.4-0.2,0.5-0.5,0.4-0.8c-0.1-0.4-0.5-0.5-0.9-0.3
		c-0.6,0.4-1.4,0.6-2.1,0.8c-0.4,0.1-0.8,0.2-1.2,0.4C174.9,45.6,174.6,45.7,174.6,46.1z"/>
	<path d="M185.4,34.9c0.1,0,0.2,0,0.3,0c0.7-0.2,1.3-0.5,1.9-0.7c0.4-0.2,0.5-0.5,0.6-0.9l0,0l0,0c-0.1-0.5-0.4-0.8-1-0.6
		c-0.5,0.2-1.1,0.4-1.6,0.7l-0.4,0.2c-0.2,0.1-0.7,0.3-0.5,0.9C184.9,34.8,185.2,34.9,185.4,34.9z"/>
	<path d="M86.3-39.8c0-0.2,0-0.4,0-0.6c0-1.1,0-2.2-0.4-3.3c0,0,0-0.1,0-0.1c-0.1-0.3-0.2-0.6-0.7-0.6c-0.2,0-0.3,0.1-0.4,0.2
		c-0.1,0.1-0.1,0.2-0.1,0.3c-0.1-0.4-0.3-0.8-0.8-0.9c-0.8-0.3-1.5-0.5-2.3-0.6c-2.1-0.3-4-0.4-5.9-0.4c-0.9,0-1.8-0.1-2.6-0.2
		c-0.8-0.1-1.5-0.2-2.3-0.2c-0.4,0-0.7,0-1,0.1c-0.9,0.1-1.8,0.2-2.7,0.2c-1.3,0.1-2.6,0.2-3.9,0.4c-1.9,0.3-3,1.2-3.5,2.8
		c-0.7,2.1-0.8,4.3-0.8,6.3c0,2.3,1.3,3.6,3.5,3.8c1.4,0.1,2.6,0.1,3.7,0c0.2,0,0.4,0,0.6,0c0.7,0,1.5,0.1,2.2,0.2
		c0.8,0.1,1.7,0.2,2.6,0.2c0.8,0,1.4-0.1,2.1-0.1c1.3,0,2.6,0.1,3.7,0.3c0.6,0.1,1.2,0.1,1.8,0.1c2.6,0,4.8-0.9,6.7-2.7
		c0.3-0.3,0.4-0.5,0.5-0.9c0.3-1,0.2-2,0.1-2.9C86.3-38.9,86.3-39.3,86.3-39.8z M84.7-43c0,0,0-0.1,0.1-0.1c0.2,0.8,0.2,1.7,0.2,2.5
		c0,0.8,0,1.7,0.2,2.6c0.2,0.8-0.1,1.5-0.9,2.2c-0.2,0.2-0.5,0.4-0.8,0.6c-0.3,0.2-0.6,0.5-0.9,0.7c-0.7,0.7-1.5,0.9-2.5,0.9
		c-0.8,0-1.6-0.1-2.3-0.1c-1.9-0.1-3.8-0.2-5.8-0.2c-1.3,0-2.6-0.1-3.8-0.2c-0.7-0.1-1.4-0.1-2.1-0.2c-0.4,0-0.7,0-1.1,0
		c-0.9,0-1.6-0.1-2.4-0.2c-0.5-0.1-0.9-0.1-1.4-0.1c-0.4,0-0.7-0.2-0.9-0.4c-0.2-0.3-0.3-0.6-0.3-1.1c0.1-0.6,0.2-1.3,0.2-1.9
		c0.1-0.9,0.3-1.7,0.3-2.6c0.1-1.5,0.8-2.6,2-3c1.9-0.7,3.9-1,6.3-1c0.9,0,1.8,0,2.8,0.1c0.5,0,0.9,0.1,1.4,0.1
		c1.2,0.1,2.5,0.2,3.8,0.3c0.4,0,0.7,0,1.1,0.1c2.1,0.1,4.3,0.2,6.2,1.1C84.3-42.8,84.6-42.8,84.7-43z"/>
	<path d="M106.9-46.1c-0.2,0-0.3,0-0.5,0c-0.7,0.1-1.7,0-2.6,0c-0.5,0-1,0-1.5,0c-0.5,0-0.9,0-1.3,0.1c-1.5,0.2-3,0.2-4.6,0.2
		c-0.1,0-0.3,0-0.5,0c-0.2,0-0.4-0.1-0.6-0.1c-0.4,0-0.7,0.1-1,0.4c-0.8,0.8-1.4,1.9-1.8,3.3c-0.4,1.4-0.3,2.9-0.1,4.2
		c0.3,2.4,1.7,3.7,4,3.7l0.1,0c0.5,0,1,0,1.5-0.1c0.7,0,1.4-0.1,2.1-0.1c1.3,0,2.6,0.1,3.8,0.2c1.5,0.1,3,0.2,4.4,0.2
		c0.4,0,0.8,0,1.3,0c1.4-0.1,2.5-0.8,2.6-1.7c0.1-0.7,0.2-1.4,0.2-2.1c0-0.3,0.1-0.6,0.1-0.9c0.2-1.8-0.6-3.3-1.4-4.6
		C110.5-44.7,109.1-46.1,106.9-46.1z M111-39.7c0,0.1,0,0.2,0,0.3c0,0.1,0,0.2,0,0.3c-0.1,3.1-0.1,3.1-2.6,3.2c-0.3,0-0.5,0-0.8,0
		c-0.1,0-0.3,0-0.4,0l-0.7,0c-2.3-0.1-4.2-0.2-5.9-0.2c-1.4,0-2.6,0-3.8,0.1c-0.1,0-0.1,0-0.2,0c0,0,0,0,0,0c-0.6,0-1.1-0.2-1.7-0.3
		l-0.3-0.1c-0.5-0.1-0.7-0.6-0.8-1.2c-0.4-2.1,0-4.1,1.2-6c0.2-0.3,0.4-0.4,0.7-0.4c0.9,0,1.9-0.1,2.8-0.1c1.6-0.1,3.3-0.2,4.9-0.2
		c1.5,0,2.9,0.1,4.1,0.3C110.1-43.8,110.8-42.1,111-39.7z"/>
</g>
</svg>
