<?xml version="1.0" encoding="utf-8"?>
<!-- Generator: Adobe Illustrator 18.1.1, SVG Export Plug-In . SVG Version: 6.00 Build 0)  -->
<svg version="1.1" id="Ebene_1" xmlns="http://www.w3.org/2000/svg" xmlns:xlink="http://www.w3.org/1999/xlink" x="0px" y="0px"
	 width="250px" height="250px" viewBox="-172 295.9 250 250" style="enable-background:new -172 295.9 250 250;"
	 xml:space="preserve">
<g>
	<path d="M51,354.9c0-9.2,0-18.3,0-27.5c0-1.1-0.8-3,1.4-3c1.8,0,1.8,1.5,1.8,2.9c0.2,8.5,0.5,17.1,0.6,25.6c0,1.4-0.6,2.4,1.6,2.4
		c3.4,0,7.1,1.2,10.3,0.4c4-1,4,0.9,4.4,3.7c2.1,12.5,1.4,25.1,1.5,37.6c0.1,13.9,0.8,27.8-0.6,41.7c-0.4,3.7-0.9,6-5.7,4.8
		c-3.5-0.9-7.3,0.1-10.9-0.7c-1.7-0.4-2.8,0.3-2.3,2.6c1.4,5.9,0.7,11.9,0.8,17.8c0,1.1,0.9,3.1-1.2,3.1c-1.5,0-1.7-1.7-1.9-3.1
		c-0.5-5.3-0.3-10.6-0.7-15.9c-0.4-4.9-2.8-5.9-6.5-4.6c-3.5,1.3-3.7-0.4-3.7-2.9c0-5.2-0.2-10.3,0.1-15.5
		c0.4-8.2-1.1-16.2-1.1-24.3c0-2.4-1.3-2.6-3.2-2.7c-19.4-1.2-38.7-2.9-58.2-3.2c-20.9-0.3-41.9-1.5-62.8-1.7c-2,0-4,0.2-6,0.2
		c-8.7,0-8.6,0-9,8.8c-0.8,17.3,0.5,34.5,0.2,51.8c-0.2,9.5-1,10.4-10.7,11.1c-13.4,1-26.8-0.6-40.2,0.2c-1.3,0.1-2.6,0-4,0.2
		c-3.1,0.3-5.7-2.2-5.1-5c2-8.5,1.9-17.1,2.1-25.8c0.1-3.6,0.9-7.2,0.4-10.9c-0.4-2.7-1-3.9-4.1-3.9c-7.4,0.1-7.5-0.1-7.1-7.4
		c0.7-13.7,1.4-27.4,2.1-41.1c0.2-3.8,1.5-6,5.7-5.3c2.9,0.5,4.4-0.6,3.9-3.8c-0.2-1.5,0-3,0-4.5c0-7.7,1.1-8.8,8.8-8.9
		c8.3-0.1,8.2-0.1,8.1-8.3c-0.1-8,0.1-16,0.1-23.9c0-1.5,0.1-2.8,2-2.7c3,0.1,6,0.3,9,0.6c1.5,0.2,2.1,1.3,2.3,2.8
		c1.1,8.7,1.5,17.5,0.2,26.3c-0.2,1.5-1.6,4.2,1.4,4.1c2.9-0.2,7.8,2.5,8.2-3.3c0.4-4.8,0.2-9.7-0.1-14.5c-0.1-3.1,0.9-4,4-3.9
		c7.9,0.4,9.2,1.4,9.4,9.1c0.4,12.8,0.4,12.5,12.9,13c23.3,0.9,46.7,2.2,70,3.3c13.4,0.6,26.7,0.9,40.1,1.7
		C29.7,353,40,354,51,354.9z M69,383.3c0-5.7,0.1-11.3,0-17c-0.2-6.2-0.9-6.8-6.9-7c-2-0.1-3.9-0.7-5.9-0.8
		c-23.1-1.6-46.2-3.3-69.3-4.7c-13.3-0.8-26.7-1-40.1-1.7c-15.6-0.8-31.2-2-46.8-2.7c-16.9-0.7-33.7,1-50.6,1.8
		c-2.9,0.1-3.5,1.1-3.5,3.8c0.4,19.5-0.7,39.1-0.2,58.6c0.1,2,2.9,3.5,1,5.2c-2.4,2.2-1.7,4.9-1.7,7.4c-0.2,10.6,0.3,21.3-1.8,31.8
		c-0.3,1.4-0.6,2.6,1.7,2.4c15.8-0.9,31.6,1.5,47.4-0.1c2.9-0.3,3.8-1.3,3.8-4.4c0.2-20.9-0.6-41.8,0.7-62.6c0.2-3.1,1.1-4,4-4
		c10.9,0.1,21.8-0.2,32.7,0.2c18.2,0.6,36.3,1.6,54.5,1.5c16.2-0.1,32.3,2.5,48.5,2.6c2.6,0,5.2,0.8,5.3,4.6
		c0.5,12.7,1.4,25.5,1.8,38.2c0.1,2.9,1.1,3.6,3.3,3.6c6,0.1,12.1,0,18.1,0.2c2.2,0.1,2.7-0.6,2.9-2.8
		C69.6,419.5,69.4,401.4,69,383.3z M-157,379.3c0-2.5-0.2-5,0-7.5c0.2-2.6-1.6-2.3-3.1-2.7c-2.2-0.6-2.6,0.7-2.7,2.3
		c-1.2,14-2.6,28-2.2,42.1c0.1,4.2,3,2.4,4.9,2.8c2.3,0.4,2.7-0.5,2.9-3C-156.5,402-159.3,390.6-157,379.3z M-129.6,335.3
		c-0.1-5.3,0-11.1-1.3-16.8c-0.6-2.5-2.1-2-3.7-2.1c-2.3-0.2-1.6,1.5-1.7,2.7c-0.3,8.2-0.6,16.5-0.7,24.7c0,1.5-1.2,4.1,2,4
		c2.3-0.1,4.5-0.4,4.6-3.7C-130.3,341.3-129.9,338.5-129.6,335.3z M-107.1,342.6c-0.3-3.6-0.6-7.4-0.9-11.2
		c-0.2-2.2-1.9-1.9-3.3-2.2c-2.5-0.5-1.6,1.4-1.7,2.5c-0.4,3.6,0.3,7.2-0.3,10.9c-0.4,2-1.4,4.6,2.6,4.7
		C-107,347.4-106.6,345.5-107.1,342.6z"/>
	<path d="M-116.2,526.3c-15-0.7-30-1.6-45.1-2.1c-3.3-0.1-4.4-1.1-4.6-4.3c-0.5-13.9-2.2-27.7-2.1-41.6c0-4,1.4-4.9,4.9-4.8
		c15.5,0.4,31,0.4,46.6,1.1c24.7,1.1,49.4,0.5,74.1,1.3c14.4,0.5,28.7,0.7,43.1,0.9c19,0.2,37.9,0.6,56.9,1c0.5,0,1,0.1,1.5,0
		c12-0.9,11.1-1.6,10.8,10.9c-0.3,10.1-0.3,20.1,0.7,30.2c0.3,2.6-0.9,6,2.9,7.5c0.9,0.4,0.7,1.8,0.3,2.7c-0.4,1-1.3,0.7-2.1,0.6
		c-12-0.7-24.1-0.4-36.2-0.8c-12.3-0.4-24.8,0.2-37.1,0.6c-9.3,0.3-18.5-0.9-27.8-0.8c-13.8,0.2-27.5-0.1-41.2-0.6
		c-15.2-0.5-30.3-1.3-45.5-2C-116.2,526.2-116.2,526.2-116.2,526.3z M67.2,525.1c-0.5-5.6-1.4-11.2-1.4-16.8
		c-0.1-7.9,0-15.9,0.6-23.8c0.3-3.7-1.9-3.6-4.1-3.6c-11.7-0.4-23.4,0.7-35,0c-20.5-1.3-41.1,0.3-61.6-1.3c-17-1.3-34-0.8-51.1-1.2
		c-24.1-0.6-48.2-1.2-72.2-2.1c-4.9-0.2-6.6,0.9-6.6,6.2c0,11.5,1.6,22.8,2.4,34.2c0.2,3.4,1.5,4.4,4.3,4.6
		c12.1,0.7,24.1,1.3,36.2,1.9c11.6,0.5,23.2,0.6,34.8,1.4c21.1,1.4,42.3,0.6,63.5,1.5c15.7,0.7,31.5-0.1,47.2-0.3
		C38.7,525.6,53.1,526.2,67.2,525.1z"/>
	<path d="M-129.4,397.7c-8.7-0.3-12.9-5.2-12.6-14.9c0.2-8.9,7.3-16.7,14.7-16.4c5.8,0.2,13.7,8.3,13.1,14.2
		C-115.3,391.1-118.9,397.7-129.4,397.7z M-139.1,384.5c0.3,7.6,3.3,10.2,10.9,9.9c5.9-0.2,11.4-6.8,11.1-13.4
		c-0.2-5.2-6.8-11-12.3-10.8C-135.1,370.4-139.4,376.8-139.1,384.5z"/>
</g>
</svg>
