<?xml version="1.0" encoding="utf-8"?>
<!-- Generator: Adobe Illustrator 18.1.1, SVG Export Plug-In . SVG Version: 6.00 Build 0)  -->
<svg version="1.1" id="Ebene_1" xmlns="http://www.w3.org/2000/svg" xmlns:xlink="http://www.w3.org/1999/xlink" x="0px" y="0px"
	 width="53px" height="53px" viewBox="0 0 53 53" style="enable-background:new 0 0 53 53;" xml:space="preserve">
<path style="fill:#FFFFFF;" d="M22.3,9.2c-5.4,1.5-9,6.7-8.8,12.3c0.1,2.5,0.7,4.3,2.4,6.9c1.7,2.5,7.8,11.1,9.6,19.5
	c0.1,0.4,0.6,0.4,0.6,0c1.8-8.3,7.9-16.9,9.6-19.5c1.8-2.7,2.4-4.6,2.4-7.3C38.2,13.1,30.6,6.9,22.3,9.2z M25.8,26.2
	c-3,0-5.5-2.4-5.5-5.5s2.4-5.5,5.5-5.5c3,0,5.5,2.4,5.5,5.5S28.8,26.2,25.8,26.2z"/>
</svg>
