<?xml version="1.0" encoding="utf-8"?>
<!-- Generator: Adobe Illustrator 18.1.1, SVG Export Plug-In . SVG Version: 6.00 Build 0)  -->
<svg version="1.1" id="Ebene_1" xmlns="http://www.w3.org/2000/svg" xmlns:xlink="http://www.w3.org/1999/xlink" x="0px" y="0px"
	 width="53px" height="53px" viewBox="0 0 53 53" style="enable-background:new 0 0 53 53;" xml:space="preserve">
<path style="fill:#FFFFFF;" d="M26.2,14.2c-0.6-2-2.4-3.5-4.6-3.5s-4,1.5-4.6,3.5h-5.8v2.5H17c0.6,2,2.4,3.5,4.6,3.5s4-1.5,4.6-3.5
	h16v-2.5H26.2z M21.6,17.8c-1.2,0-2.2-1-2.2-2.2s1-2.2,2.2-2.2s2.2,1,2.2,2.2S22.8,17.8,21.6,17.8z"/>
<path style="fill:#FFFFFF;" d="M34.2,25.2c-0.6-2-2.4-3.5-4.6-3.5c-2.2,0-4,1.5-4.6,3.5H11.2v2.5H25c0.6,2,2.4,3.5,4.6,3.5
	c2.2,0,4-1.5,4.6-3.5h8v-2.5H34.2z M29.6,28.8c-1.2,0-2.2-1-2.2-2.2c0-1.2,1-2.2,2.2-2.2s2.2,1,2.2,2.2
	C31.8,27.7,30.8,28.8,29.6,28.8z"/>
<path style="fill:#FFFFFF;" d="M24.2,36.2c-0.6-2-2.4-3.5-4.6-3.5s-4,1.5-4.6,3.5h-3.8v2.5H15c0.6,2,2.4,3.5,4.6,3.5s4-1.5,4.6-3.5
	h18v-2.5H24.2z M19.6,39.8c-1.2,0-2.2-1-2.2-2.2c0-1.2,1-2.2,2.2-2.2s2.2,1,2.2,2.2C21.8,38.7,20.8,39.8,19.6,39.8z"/>
</svg>
