<?xml version="1.0" standalone="no"?>
<!DOCTYPE svg PUBLIC "-//W3C//DTD SVG 20010904//EN"
 "http://www.w3.org/TR/2001/REC-SVG-20010904/DTD/svg10.dtd">
<svg version="1.0" xmlns="http://www.w3.org/2000/svg"
 viewBox="0 0 130.000000 130.000000"
 preserveAspectRatio="xMidYMid meet">
<metadata>
Created by potrace 1.12, written by Peter Selinger 2001-2015
</metadata>
<g transform="translate(0.000000,130.000000) scale(0.100000,-0.100000)"
fill="#000000" stroke="none">
<path d="M550 1105 c0 -28 56 -72 100 -79 50 -8 88 1 116 26 21 19 22 19 75
-2 71 -28 118 -65 135 -105 16 -39 35 -116 40 -165 2 -19 8 -57 14 -85 6 -27
15 -70 20 -95 4 -25 20 -87 35 -137 35 -124 32 -142 -25 -159 -58 -18 -60 -17
-60 5 0 10 -9 38 -19 62 -11 24 -22 62 -26 84 -7 47 -41 183 -59 239 -26 81
-32 49 -33 -171 -1 -198 -3 -217 -20 -227 -11 -6 -96 -10 -210 -11 l-192 0 -6
27 c-4 14 -4 55 -1 90 9 103 11 327 3 334 -13 14 -24 -10 -42 -91 -10 -44 -22
-88 -27 -98 -8 -15 -68 -239 -68 -252 0 -3 -16 -5 -35 -5 -41 0 -40 -8 -20
150 56 447 101 564 241 621 30 12 54 25 54 30 0 5 -3 9 -6 9 -13 0 -130 -61
-150 -78 -33 -28 -71 -110 -93 -203 -38 -157 -39 -159 -65 -339 -3 -19 -8 -72
-11 -117 -7 -92 -8 -91 60 -95 36 -3 40 -1 46 27 4 17 16 64 28 105 11 41 31
114 43 162 13 48 26 88 30 88 4 0 5 -26 3 -57 -9 -98 -12 -311 -6 -321 5 -8
369 -7 446 1 19 2 20 9 19 180 -1 98 1 175 4 172 9 -9 42 -118 42 -140 0 -17
36 -136 60 -201 l8 -22 69 23 68 22 -3 39 c-2 21 -14 77 -27 124 -34 120 -55
213 -71 305 -8 44 -18 101 -22 127 -14 77 -45 112 -139 154 -46 21 -83 41 -83
45 0 18 -26 15 -27 -4 -3 -29 -15 -38 -61 -44 -56 -7 -85 2 -121 38 -23 23
-31 26 -31 14z"/>
</g>
</svg>
