<?xml version="1.0" encoding="utf-8"?>
<!-- Generator: Adobe Illustrator 18.1.1, SVG Export Plug-In . SVG Version: 6.00 Build 0)  -->
<svg version="1.1" id="Ebene_1" xmlns="http://www.w3.org/2000/svg" xmlns:xlink="http://www.w3.org/1999/xlink" x="0px" y="0px"
	 width="250px" height="250px" viewBox="-18 -60 250 250" style="enable-background:new -18 -60 250 250;" xml:space="preserve">
<g>
	<path d="M134.4,151.1c-20.3-1.4-39.8,0.9-59.4,1.4c-9.2,0.3-18.7-0.1-27.8-2.2c-12.1-2.8-18.1-12.3-22.8-22.7
		c-5.5-12.1-8.8-24.8-11.1-37.8c-0.7-3.9-3.2-4.3-6.1-4.7c-6.7-0.9-13.4-1.5-19.9-3.6c-3.1-1-5.4-2.3-5.3-5.8c0.1-3.8,2.6-5.9,6-6.5
		C-5.3,68,1.4,67,8.1,66.3c5.9-0.6,6.4-1.1,5.5-6.6c-1.2-7-0.6-7.8,6.4-7.6c12.3,0.2,24.6,1.1,36.9,0.8c21.6-0.6,43.2,0.6,64.8-0.4
		c13.6-0.7,27.3-0.3,41,0.3c7,0.3,14.1-1.3,21.2-1.3c13.1,0,11.4-0.8,13.1,12.1c1.1,8.2,0.6,8.3,8.9,8.1c6.3-0.2,12.5-0.6,18.7,0.7
		c3.6,0.7,6.7,2.3,7.2,6.1c0.5,3.7-2.9,5.1-5.6,6.4c-1.8,0.9-3.9,1.1-5.9,1.3c-5.8,0.5-11.3,1.9-17,2.9c-5.2,0.9-6.5,3.4-6.3,8.2
		c0.5,8-1.2,15.9-3.6,23.5c-5.4,16.7-15.9,27.7-34.6,28.6C150.6,149.8,142.2,150.5,134.4,151.1z M44.8,56.3c0-0.3,0-0.7,0-1
		c-7.5,0-14.9,0-22.4,0c-6.2,0-6.5,0.4-5.7,6.3c0.9,6.3-0.3,7.8-6.7,8.6C3,71-4,71.7-11.1,72.5c-1.6,0.2-3.7,0.5-3.8,2.7
		c-0.1,2.1,2,2.6,3.6,3c6.8,2,13.8,3.4,20.9,4c4.9,0.4,8.4,1.3,6.9,7.3c-0.2,0.9,0.3,2,0.5,3c1.9,10.9,5.2,21.3,9.5,31.5
		c7.7,18.2,15.8,24.1,33.8,24.5c12.9,0.2,25.7-0.4,38.6-0.9c21.9-0.8,43.9-0.3,65.8-3.2c8-1.1,15-4.8,19.1-11.4
		c7-11.2,10.2-23.9,10.2-37.2c0-0.8,0-1.8-0.4-2.5c-2.5-5-2.1-5.9,3.3-7c2.3-0.5,4.8-0.3,7-1c6.8-2,14.2-1,20.9-3.5
		c1.5-0.6,3.6-0.8,3.4-3.1c-0.2-2-1.8-2.9-3.5-3.1c-8.6-1-17.2-2.3-25.7,0.1c-4,1.1-4.6-0.5-4.4-3.5c0.3-3.6-0.3-7.1-0.8-10.6
		c-1.1-7.2-1.4-7.6-8.6-7.3c-9.8,0.4-19.5,1.1-29.3,1.2c-15.5,0-31,0-46.5,0.4C87.8,56.8,66.3,56.3,44.8,56.3z"/>
	<path d="M178.3,37.4c-10-1-19.9,0.7-29.9,0.9c-17.6,0.4-35.1,1-52.7,1.7c-16.7,0.6-33.4,1.7-50.2,2c-10.5,0.2-20.9-1.7-31.4-0.7
		c-1,0.1-2.2,0.3-2.5-1c-0.3-1.1,0.7-1.8,1.3-2.5c4.2-4.5,9.3-7.9,14.7-10.7C40.9,20.7,54.1,14.4,68,9.3c5.1-1.9,8.6-4.4,11.5-9.5
		c7.1-12.2,18.9-19,34.5-14.9c12.8,3.4,24,9.2,30,22c0.7,1.5,2.1,2.1,3.7,2.3c17.1,1.6,31.1,10.9,45.6,18.8c2.7,1.5,6.4,3.7,5.4,7.2
		c-1,3.7-5.1,3-8.3,2.8C186.4,37.8,182.3,37.6,178.3,37.4z M194.5,34.4c-14.7-10.9-30-20-48.3-22.4c-2.7-0.4-4.3-1.3-5.5-3.7
		C135.4-2.5,126-8.1,114.9-11.4c-15-4.5-27.8,1.2-34.6,15.2c-1.3,2.7-2.7,5.3-5.8,6c-11.3,2.7-21.1,9.1-31.8,13.4
		c-8.7,3.5-17,7.8-24.4,14c7.6-0.6,14.8,1.7,22.2,1.6c15.2-0.3,30.4-1.1,45.6-1.8c17.2-0.8,34.4-1.3,51.6-1.8
		c12.7-0.3,25.2-2.2,37.9-1.7C182,33.8,188.3,34.1,194.5,34.4z"/>
	<path d="M107.5,10.9c-3.5,0-7.1,0.2-10.6,0c-4.8-0.3-5-1.2-3-5.5c2.6-5.6,7-8.1,12.9-7.8c6.6,0.4,11.9,2.8,14.8,9.4
		c1.6,3.5,0,3.8-2.5,3.9C115.2,10.9,111.4,10.8,107.5,10.9C107.5,10.8,107.5,10.8,107.5,10.9z M96.4,7.5c5.8,0,10.9,0,16.1,0
		c0.8,0,1.7,0,2.5,0c2.3,0,3.2-0.8,1.6-3C112.3-1.6,100.1-0.3,96.4,7.5z"/>
</g>
</svg>
