<?xml version="1.0" standalone="no"?>
<!DOCTYPE svg PUBLIC "-//W3C//DTD SVG 20010904//EN"
 "http://www.w3.org/TR/2001/REC-SVG-20010904/DTD/svg10.dtd">
<svg version="1.0" xmlns="http://www.w3.org/2000/svg"
 viewBox="0 0 130.000000 130.000000"
 preserveAspectRatio="xMidYMid meet">
<metadata>
Created by potrace 1.12, written by Peter Selinger 2001-2015
</metadata>
<g transform="translate(0.000000,130.000000) scale(0.100000,-0.100000)"
fill="#ffffff" stroke="none">
<path d="M590 1100 c-99 -6 -140 -22 -161 -62 -6 -12 -8 -62 -5 -131 4 -62 9
-161 12 -222 13 -278 29 -432 45 -451 43 -52 167 -68 298 -38 104 23 106 28
104 198 -1 130 -8 308 -18 497 -5 78 -24 150 -47 173 -23 22 -80 46 -107 44
-14 0 -69 -4 -121 -8z m173 -28 c24 -4 57 -34 57 -53 0 -4 -18 1 -39 12 -32
15 -61 18 -160 18 -111 -1 -124 -3 -141 -22 -13 -13 -20 -36 -21 -61 0 -36 -1
-38 -10 -18 -5 13 -6 38 -1 55 13 51 46 67 157 76 55 4 107 6 115 3 8 -3 27
-7 43 -10z m6 -57 c35 -17 37 -26 52 -193 12 -136 9 -226 -7 -242 -12 -12
-173 -16 -242 -6 -32 5 -56 14 -61 24 -29 54 -44 395 -19 420 18 18 241 16
277 -3z m68 -97 c-3 -8 -6 -5 -6 6 -1 11 2 17 5 13 3 -3 4 -12 1 -19z m-380
-95 c-2 -21 -4 -6 -4 32 0 39 2 55 4 38 2 -18 2 -50 0 -70z m391 26 c-3 -20
-5 -19 -9 9 -3 20 -2 29 4 23 5 -5 7 -19 5 -32z m-374 -178 c10 -85 30 -107
108 -117 35 -4 85 -7 111 -5 46 2 47 1 35 -18 -8 -13 -16 -17 -22 -11 -13 13
-43 13 -51 0 -3 -6 -3 -19 0 -30 7 -21 39 -27 50 -10 4 7 11 8 18 2 15 -12
105 -6 122 8 10 8 13 5 11 -15 -1 -18 -6 -25 -21 -23 -11 0 -37 0 -57 0 -35
-2 -38 -4 -38 -32 0 -29 1 -30 45 -28 36 1 45 5 45 20 0 10 7 18 15 18 11 0
15 -12 15 -50 0 -38 -4 -50 -15 -50 -8 0 -15 7 -15 15 0 8 5 15 12 15 8 0 9 3
1 11 -5 5 -30 9 -54 7 -48 -3 -48 -3 -33 -76 6 -29 24 -46 24 -22 0 14 47 12
56 -2 6 -9 10 -5 14 12 3 14 9 20 12 15 3 -6 0 -25 -7 -42 -15 -34 -44 -47
-136 -57 -26 -3 -54 -8 -62 -12 -21 -8 -117 13 -141 31 -24 18 -45 158 -46
310 -1 55 -5 123 -9 152 -4 29 -4 50 0 48 3 -3 9 -31 13 -64z m386 -117 l0
-46 -19 23 c-17 21 -17 25 -4 46 9 13 17 23 19 23 2 0 4 -21 4 -46z m-30 -44
c0 -5 -20 -10 -45 -10 -25 0 -45 5 -45 10 0 6 20 10 45 10 25 0 45 -4 45 -10z
m-140 -10 c0 -5 -2 -10 -4 -10 -3 0 -8 5 -11 10 -3 6 -1 10 4 10 6 0 11 -4 11
-10z m120 -70 c0 -5 -12 -10 -27 -9 l-28 1 25 8 c14 4 26 8 28 9 1 1 2 -3 2
-9z"/>
<path d="M508 542 c-26 -5 -34 -43 -12 -59 18 -13 100 -18 128 -7 19 7 21 38
4 51 -14 11 -93 21 -120 15z m95 -22 c9 0 17 -7 17 -15 0 -12 -13 -15 -60 -15
-43 0 -60 4 -60 13 0 23 14 29 50 23 19 -3 43 -6 53 -6z"/>
<path d="M508 431 c-30 -25 -18 -51 24 -51 51 0 76 10 73 28 -1 10 0 11 2 5 6
-18 23 -16 23 2 0 10 10 15 33 14 21 -1 25 -3 12 -6 -31 -8 -42 -22 -25 -33
12 -8 9 -9 -10 -8 -21 3 -25 -1 -22 -22 2 -14 7 -26 11 -28 4 -1 5 -16 3 -32
-4 -28 -2 -30 31 -30 20 0 39 -5 42 -11 5 -6 13 -3 22 10 8 12 11 26 6 34 -4
6 -10 41 -13 77 l-5 65 -93 1 c-74 2 -96 -1 -114 -15z m69 -27 c-3 -3 -20 -4
-39 -2 l-33 4 35 10 c31 9 52 2 37 -12z m113 -74 c0 -13 -11 -13 -30 0 -12 8
-11 10 8 10 12 0 22 -4 22 -10z m-5 -30 c18 -8 17 -9 -7 -9 -16 -1 -28 4 -28
9 0 12 8 12 35 0z"/>
<path d="M515 357 c-27 -21 -9 -37 41 -37 40 0 44 2 44 25 0 22 -4 25 -33 25
-18 0 -41 -6 -52 -13z m65 -7 c0 -5 -12 -10 -27 -9 l-28 1 25 8 c14 4 26 8 28
9 1 1 2 -3 2 -9z"/>
<path d="M510 276 c0 -33 11 -38 60 -27 49 11 52 13 44 35 -4 12 -19 16 -55
16 -45 0 -49 -2 -49 -24z"/>
</g>
</svg>
