<?xml version="1.0" standalone="no"?>
<!DOCTYPE svg PUBLIC "-//W3C//DTD SVG 20010904//EN"
 "http://www.w3.org/TR/2001/REC-SVG-20010904/DTD/svg10.dtd">
<svg version="1.0" xmlns="http://www.w3.org/2000/svg"
 width="500.000000pt" height="500.000000pt" viewBox="0 0 500.000000 500.000000"
 preserveAspectRatio="xMidYMid meet">
<metadata>
Created by potrace 1.12, written by Peter Selinger 2001-2015
</metadata>
<g transform="translate(0.000000,500.000000) scale(0.100000,-0.100000)"
fill="#000000" stroke="none">
<path d="M1983 4666 c-13 -6 -23 -14 -23 -18 0 -5 -11 -8 -24 -8 -16 0 -27 -7
-31 -20 -3 -11 -13 -21 -21 -21 -8 -1 -18 -2 -23 -3 -24 -3 -161 -83 -161 -93
0 -17 12 -16 36 2 10 8 26 15 35 15 21 0 74 27 89 45 7 8 23 15 35 15 13 0 25
4 27 8 6 14 78 52 99 52 10 0 19 5 19 10 0 6 8 5 20 -2 11 -7 20 -19 20 -26 0
-7 6 -22 12 -35 15 -26 138 -147 151 -147 4 0 17 -9 29 -20 12 -11 28 -20 35
-20 7 0 13 -4 13 -10 0 -5 10 -10 23 -10 13 0 27 -4 33 -9 16 -15 93 -23 279
-28 172 -4 265 6 265 29 0 4 14 8 30 8 17 0 30 5 30 10 0 6 9 10 20 10 11 0
20 3 20 8 0 4 17 15 39 24 21 9 45 23 53 30 13 12 22 18 80 51 13 6 30 20 39
30 9 9 23 17 30 17 8 0 21 9 29 20 11 15 26 20 62 20 26 0 50 -4 53 -10 3 -5
18 -10 32 -10 15 0 40 -4 57 -9 119 -36 174 -56 198 -72 14 -11 33 -19 41 -19
8 0 37 -22 65 -50 28 -27 55 -50 61 -50 14 0 121 -109 121 -123 0 -7 9 -19 20
-27 11 -8 20 -22 20 -32 0 -10 3 -18 8 -18 8 0 32 -49 32 -67 0 -7 5 -13 10
-13 6 0 10 -7 10 -16 0 -8 6 -22 14 -30 8 -7 17 -32 21 -54 4 -22 11 -40 16
-40 5 0 9 -9 9 -20 0 -11 5 -20 10 -20 6 0 10 -7 10 -15 0 -8 4 -23 9 -33 29
-57 51 -127 51 -163 0 -16 5 -29 10 -29 6 0 10 -13 10 -28 0 -15 4 -32 9 -37
12 -12 41 -113 50 -175 4 -25 10 -50 14 -56 4 -7 8 -33 9 -58 0 -26 5 -49 10
-52 4 -3 8 -27 8 -54 0 -27 5 -52 10 -55 6 -3 10 -24 10 -46 0 -21 4 -39 9
-39 5 0 11 -24 15 -52 10 -90 18 -133 26 -143 8 -9 42 -187 54 -280 3 -22 10
-67 16 -100 6 -33 13 -80 16 -105 3 -25 9 -54 14 -65 5 -11 11 -40 15 -65 14
-94 24 -157 35 -210 6 -30 13 -73 17 -95 3 -22 9 -44 14 -49 5 -6 9 -18 9 -28
0 -10 4 -26 9 -36 16 -33 31 -89 31 -120 0 -17 5 -34 10 -37 6 -3 10 -19 10
-35 0 -16 5 -32 10 -35 6 -3 10 -27 10 -52 0 -47 2 -56 40 -169 11 -33 20 -69
20 -80 0 -11 4 -24 8 -29 11 -13 32 -87 32 -114 0 -11 4 -21 9 -21 10 0 19
-44 28 -129 6 -60 -10 -101 -38 -101 -15 0 -16 -4 -6 -30 7 -19 17 -28 25 -25
8 3 20 5 29 5 10 0 13 8 11 27 -2 21 2 29 16 31 10 2 28 12 39 22 18 18 18 20
3 51 -9 18 -16 45 -16 60 0 15 -4 31 -10 34 -5 3 -10 22 -10 41 0 19 -4 34
-10 34 -5 0 -10 15 -10 33 0 18 -4 37 -9 42 -5 6 -15 39 -22 75 -8 36 -16 67
-19 70 -8 7 -40 122 -55 195 -23 116 -25 121 -45 170 -8 19 -13 43 -27 125 -3
19 -9 40 -12 45 -4 6 -8 26 -10 45 -1 19 -6 37 -11 38 -6 2 -10 21 -10 42 0
21 -4 41 -9 44 -9 6 -16 33 -31 126 -5 30 -14 78 -19 105 -27 131 -40 213 -40
248 -1 20 -5 37 -11 37 -5 0 -10 22 -10 49 0 28 -4 53 -10 56 -5 3 -10 26 -10
50 0 24 -4 47 -10 50 -5 3 -10 25 -10 49 0 23 -4 46 -9 52 -5 5 -12 43 -15 84
-3 41 -10 102 -16 135 -6 33 -13 77 -16 98 -4 20 -10 37 -14 37 -8 0 -17 42
-26 133 -4 31 -10 60 -15 63 -5 3 -9 16 -9 29 0 13 -4 27 -10 30 -5 3 -10 24
-10 46 0 21 -4 39 -10 39 -5 0 -10 10 -10 23 0 24 -22 92 -33 103 -4 4 -7 18
-7 31 0 13 -4 31 -9 41 -5 9 -15 32 -21 50 -7 17 -16 32 -21 32 -5 0 -9 13 -9
29 0 17 -4 33 -10 36 -5 3 -10 17 -10 31 0 13 -4 24 -10 24 -5 0 -10 9 -10 20
0 11 -4 20 -10 20 -5 0 -10 10 -10 23 0 12 -9 33 -20 47 -11 14 -20 35 -20 48
0 12 -4 22 -9 22 -5 0 -11 8 -14 18 -6 17 -37 72 -47 82 -3 3 -12 18 -20 33
-29 58 -143 147 -186 147 -8 0 -17 6 -20 13 -3 8 -32 27 -64 42 -33 16 -60 32
-60 37 0 4 -9 8 -20 8 -11 0 -20 5 -20 10 0 6 -13 10 -30 10 -16 0 -30 4 -30
9 0 4 -19 11 -42 15 -24 3 -63 10 -88 15 -25 6 -58 13 -75 16 -16 4 -39 11
-51 17 -11 5 -34 8 -50 6 -25 -3 -29 -7 -27 -30 1 -16 -2 -28 -8 -28 -5 0 -21
-13 -36 -29 -32 -32 -72 -56 -90 -53 -6 1 -17 -10 -24 -26 -12 -27 -59 -60
-59 -41 0 5 -7 9 -15 9 -8 0 -15 -4 -15 -10 0 -5 -11 -10 -24 -10 -14 0 -28
-4 -31 -10 -3 -5 -15 -10 -27 -10 -11 0 -32 -8 -46 -18 -15 -10 -51 -19 -82
-21 -30 -2 -63 -7 -72 -12 -20 -11 -85 -11 -113 0 -11 5 -30 4 -42 -2 -16 -7
-27 -6 -36 2 -8 6 -34 12 -58 14 -24 1 -46 4 -49 7 -13 13 -52 30 -69 30 -11
0 -23 5 -26 10 -3 6 -15 10 -26 10 -10 0 -19 6 -19 13 0 6 -18 22 -40 35 -22
12 -40 26 -40 31 0 4 -13 22 -30 39 -16 18 -30 38 -30 45 0 7 -7 23 -16 35
-12 18 -24 22 -67 21 -29 -1 -62 -6 -74 -13z m982 -236 c-3 -5 -10 -10 -16
-10 -5 0 -9 5 -9 10 0 6 7 10 16 10 8 0 12 -4 9 -10z m-40 -20 c-3 -5 -10 -10
-16 -10 -5 0 -9 5 -9 10 0 6 7 10 16 10 8 0 12 -4 9 -10z"/>
<path d="M1625 4487 c-11 -7 -22 -14 -25 -17 -26 -26 -75 -50 -102 -50 -22 0
-39 -7 -48 -20 -8 -11 -25 -20 -38 -20 -13 0 -35 -9 -49 -20 -14 -11 -40 -20
-58 -20 -53 0 -165 -68 -165 -99 0 -6 -13 -24 -30 -39 -16 -16 -30 -33 -30
-38 0 -5 -14 -25 -30 -44 -16 -19 -30 -45 -30 -57 0 -13 -4 -23 -10 -23 -5 0
-10 -11 -10 -24 0 -14 -4 -28 -10 -31 -5 -3 -10 -17 -10 -30 0 -13 -4 -26 -9
-29 -7 -5 -14 -33 -23 -93 -1 -7 -5 -10 -10 -7 -4 3 -11 -3 -14 -13 -3 -10
-10 -26 -15 -35 -5 -10 -9 -27 -9 -38 0 -11 -4 -20 -10 -20 -5 0 -10 -13 -10
-30 0 -16 -4 -30 -10 -30 -5 0 -10 -9 -10 -19 0 -11 -4 -23 -10 -26 -5 -3 -10
-17 -10 -31 0 -13 -4 -24 -10 -24 -5 0 -10 -7 -10 -15 0 -8 -4 -23 -9 -33 -5
-9 -17 -43 -26 -75 -9 -32 -23 -64 -31 -72 -8 -7 -14 -21 -14 -29 0 -9 -3 -16
-8 -16 -8 0 -32 -71 -32 -95 0 -8 -4 -24 -10 -35 -5 -11 -14 -29 -20 -40 -5
-11 -10 -27 -10 -35 0 -8 -4 -15 -10 -15 -5 0 -10 -8 -10 -18 0 -10 -4 -22
-10 -28 -5 -5 -11 -28 -12 -49 -2 -23 -10 -45 -19 -52 -9 -7 -19 -29 -23 -50
-3 -21 -13 -51 -21 -67 -8 -15 -15 -43 -15 -62 0 -18 -4 -36 -10 -39 -5 -3
-10 -17 -10 -30 0 -13 -4 -27 -10 -30 -5 -3 -10 -22 -10 -41 0 -19 -7 -46 -16
-60 -9 -14 -19 -48 -21 -77 -2 -29 -8 -53 -14 -55 -11 -5 -12 -62 0 -62 12 0
28 43 41 112 6 32 16 60 21 63 5 4 9 19 9 35 0 16 5 32 10 35 6 3 10 19 10 36
0 16 5 29 10 29 6 0 10 9 10 19 0 11 5 23 10 26 6 4 10 21 8 38 -2 36 75 268
103 307 12 18 15 30 8 43 -8 14 -6 17 12 17 13 0 19 5 16 13 -3 7 1 21 9 32 8
10 14 31 14 46 0 15 5 31 10 34 6 3 10 14 10 24 0 9 9 27 20 39 11 12 20 28
20 36 0 8 4 16 10 18 5 2 11 26 13 53 4 39 8 49 21 47 9 -2 16 4 16 13 0 9 9
34 19 56 11 22 17 47 14 55 -3 8 1 14 11 14 9 0 16 8 16 19 0 11 5 23 10 26 6
3 10 21 10 38 0 18 11 55 25 82 13 28 25 53 25 57 0 4 12 32 26 62 21 44 23
58 14 75 -9 17 -8 21 5 21 9 0 14 4 11 9 -3 5 1 11 9 15 8 3 23 21 32 41 9 19
20 35 25 35 4 0 8 6 8 14 0 7 14 27 30 44 17 18 30 35 30 40 0 4 15 25 34 45
25 27 42 37 64 37 29 0 113 37 120 53 2 4 16 7 32 7 16 0 30 3 32 8 4 10 83
52 98 52 6 0 31 14 55 30 24 17 48 30 54 30 6 0 11 9 11 20 0 23 -24 26 -55 7z
m-545 -403 c0 -8 -4 -12 -10 -9 -5 3 -10 10 -10 16 0 5 5 9 10 9 6 0 10 -7 10
-16z"/>
<path d="M3559 3139 c-2 -120 3 -274 11 -359 8 -72 18 -683 20 -1175 0 -16 -2
-116 -5 -222 -3 -119 -1 -194 5 -198 6 -3 10 -28 10 -56 0 -27 4 -49 9 -49 14
0 24 56 15 82 -4 13 -7 63 -5 111 1 48 -2 93 -5 99 -12 20 -10 152 3 165 6 7
9 22 6 34 -4 12 0 25 8 30 11 7 12 12 2 29 -8 11 -13 52 -13 95 0 43 -4 75
-10 75 -5 0 -10 5 -10 10 0 6 10 10 21 10 17 0 19 3 10 14 -16 19 -26 413 -15
599 3 53 2 87 -4 87 -6 0 -4 23 5 57 10 40 11 59 4 61 -6 2 -11 13 -11 25 0
16 3 18 9 8 7 -11 9 -11 13 0 3 8 -2 25 -10 38 -14 21 -14 24 1 32 13 8 14 14
7 29 -6 11 -14 29 -20 40 -14 27 -13 63 2 78 9 9 9 12 0 12 -8 0 -12 20 -12
62 0 60 1 61 18 42 10 -10 23 -39 30 -64 7 -25 17 -54 21 -65 19 -47 31 -94
31 -123 0 -17 5 -34 10 -37 6 -3 10 -22 10 -41 0 -19 5 -34 10 -34 6 0 10 -7
10 -15 0 -8 4 -23 9 -33 5 -9 15 -37 21 -62 15 -53 48 -148 61 -172 5 -10 9
-31 9 -48 0 -16 5 -30 10 -30 6 0 10 -18 10 -40 0 -22 5 -40 10 -40 6 0 10 -9
10 -20 0 -11 5 -20 10 -20 6 0 10 -18 10 -39 0 -22 5 -43 10 -46 6 -3 10 -21
10 -40 0 -19 5 -37 12 -41 19 -12 4 167 -16 182 -9 6 -16 23 -16 37 0 14 -4
29 -10 32 -5 3 -10 17 -10 31 0 31 -23 104 -32 104 -5 0 -8 13 -8 29 0 16 -4
31 -10 33 -5 2 -12 23 -14 48 -8 69 -17 103 -33 122 -8 9 -17 44 -20 78 -3 33
-10 63 -14 66 -5 3 -9 27 -9 54 0 26 -9 69 -20 95 -11 26 -20 54 -20 64 0 9
-9 36 -20 59 -11 22 -20 50 -20 61 0 11 -4 23 -10 26 -5 3 -10 14 -10 24 0 11
-9 21 -22 24 -13 2 -31 8 -40 12 -16 6 -18 1 -19 -36z"/>
<path d="M1352 3060 c-6 -11 -12 -48 -12 -83 0 -51 -4 -68 -20 -82 -11 -10
-20 -26 -20 -37 0 -10 -4 -18 -10 -18 -5 0 -10 -9 -10 -19 0 -11 -4 -23 -10
-26 -5 -3 -10 -15 -10 -26 0 -11 -15 -52 -34 -92 -19 -40 -39 -90 -45 -112 -6
-22 -17 -49 -25 -60 -9 -11 -16 -35 -16 -52 0 -18 -5 -33 -11 -33 -6 0 -8 -9
-4 -20 5 -14 2 -20 -9 -20 -9 0 -16 -9 -16 -20 0 -11 -4 -20 -10 -20 -5 0 -10
-8 -10 -17 0 -10 -9 -29 -20 -43 -11 -14 -20 -33 -20 -42 0 -10 -4 -18 -10
-18 -5 0 -10 -11 -10 -25 0 -13 -9 -40 -20 -60 -11 -20 -20 -43 -20 -53 0 -10
-9 -24 -20 -32 -11 -8 -20 -22 -20 -32 0 -9 -4 -20 -10 -23 -5 -3 -10 -14 -10
-25 0 -10 -13 -44 -30 -75 -16 -31 -30 -66 -30 -76 0 -10 -4 -19 -8 -19 -8 0
-32 -58 -32 -79 0 -7 -7 -19 -15 -28 -9 -8 -19 -28 -22 -44 -3 -16 -9 -29 -14
-29 -5 0 -9 -9 -9 -20 0 -11 -4 -20 -10 -20 -5 0 -10 -12 -10 -27 0 -16 -9
-43 -20 -61 -11 -18 -20 -43 -20 -57 0 -13 -4 -27 -10 -30 -5 -3 -10 -15 -10
-26 0 -10 -4 -19 -8 -19 -5 0 -14 -19 -21 -42 -7 -24 -17 -51 -22 -60 -5 -10
-9 -27 -9 -38 0 -11 -4 -20 -10 -20 -5 0 -10 -13 -10 -30 0 -16 -4 -30 -8 -30
-5 0 -15 -23 -22 -50 -7 -28 -17 -50 -22 -50 -4 0 -8 -11 -8 -25 0 -28 -17
-62 -42 -86 -26 -24 -22 -29 22 -29 32 0 40 4 40 18 0 10 9 24 19 32 11 7 23
32 27 54 3 23 13 50 20 61 8 11 14 32 14 47 0 15 4 30 10 33 5 3 10 17 10 30
0 13 4 27 10 30 5 3 10 22 10 41 0 19 5 34 10 34 6 0 10 7 10 15 0 8 9 30 20
50 11 20 20 44 20 55 0 11 5 20 10 20 6 0 10 11 10 24 0 14 5 28 10 31 6 3 10
14 10 23 0 9 14 44 30 77 17 33 30 70 30 82 0 13 4 23 8 23 4 0 9 16 10 37 2
25 12 44 31 62 28 25 58 91 42 91 -4 0 -8 7 -8 15 0 8 8 15 16 15 11 0 17 10
19 26 2 29 17 60 43 88 11 11 19 33 19 48 0 30 42 121 66 146 8 8 12 22 9 32
-3 11 0 20 10 24 8 3 15 12 15 21 0 8 5 15 10 15 6 0 10 14 10 30 0 17 5 30
10 30 6 0 10 9 10 19 0 11 5 23 10 26 6 3 10 17 10 31 0 13 5 24 10 24 6 0 10
9 10 19 0 11 5 23 10 26 6 3 10 17 10 31 0 13 5 24 10 24 6 0 10 9 10 20 0 11
9 34 20 52 11 18 20 45 20 60 0 14 4 28 10 30 5 2 10 20 12 41 1 20 7 37 14
37 7 0 9 10 6 26 -4 24 9 43 30 44 9 0 23 -136 19 -180 -2 -19 -5 -187 -7
-373 -1 -214 -6 -343 -13 -351 -5 -6 -10 -61 -11 -121 0 -61 -3 -139 -7 -175
-6 -51 -8 -210 -5 -342 0 -7 -2 -114 -5 -238 -2 -140 0 -249 7 -288 8 -45 8
-68 0 -77 -13 -16 -3 -45 16 -45 8 0 14 -4 14 -9 0 -6 84 -10 198 -10 108 0
229 -4 267 -9 78 -9 133 -8 217 3 40 5 62 4 72 -4 11 -9 20 -9 34 -2 11 6 22
8 25 5 6 -6 111 -6 370 2 93 3 174 1 180 -3 17 -13 77 -16 77 -5 0 7 126 11
358 11 353 0 357 1 375 22 l17 22 19 -22 c26 -30 34 -26 27 15 -4 19 -3 41 2
47 14 18 23 77 12 77 -14 0 -13 123 1 137 7 7 8 17 3 25 -9 14 -10 19 -12 56
-1 12 -6 22 -12 22 -6 0 -10 -33 -10 -79 0 -44 -5 -83 -10 -86 -6 -4 -10 -16
-9 -28 1 -12 1 -49 1 -82 l-2 -61 -56 -10 c-30 -5 -57 -6 -60 -2 -7 12 -82 10
-86 -2 -2 -7 -15 -6 -36 2 -25 10 -39 10 -63 1 -21 -8 -38 -9 -50 -3 -22 12
-96 13 -103 1 -4 -7 -183 -8 -466 -4 -8 0 -241 -1 -517 -4 -322 -2 -503 0
-503 6 0 5 -10 9 -22 9 -13 -1 -62 -1 -110 0 -81 2 -88 4 -88 22 0 11 -4 20
-8 20 -11 0 -32 302 -23 315 5 6 9 97 9 203 1 154 -1 200 -13 222 -18 36 -18
35 0 53 10 10 16 45 20 104 3 48 11 144 18 213 8 72 13 202 11 305 -2 99 -3
188 -3 198 0 9 0 29 1 45 0 15 0 41 -1 57 -1 17 0 50 2 75 3 27 0 48 -7 52 -8
6 -8 13 2 28 6 11 12 38 12 60 0 22 -6 49 -12 60 -9 15 -10 23 -2 28 19 13 24
40 7 46 -13 5 -12 9 7 26 20 17 22 26 17 82 -3 34 -10 64 -16 66 -6 2 -11 12
-11 21 0 16 -31 61 -41 61 -2 0 -10 -9 -17 -20z"/>
<path d="M420 2337 c0 -13 -4 -27 -9 -32 -9 -11 -33 -126 -27 -132 2 -3 7 6
11 19 3 13 10 32 15 43 29 67 38 125 20 125 -5 0 -10 -10 -10 -23z"/>
<path d="M3940 1948 c0 -15 5 -30 10 -33 6 -3 10 -24 10 -45 0 -21 5 -42 10
-45 6 -3 10 -19 10 -36 0 -16 5 -29 10 -29 6 0 10 -13 10 -30 0 -16 4 -30 8
-30 5 0 15 -23 22 -51 8 -27 18 -52 22 -55 4 -3 8 -16 8 -29 0 -13 5 -27 10
-30 6 -3 10 -19 10 -35 0 -16 5 -32 10 -35 6 -3 10 -17 10 -30 0 -13 4 -26 9
-29 9 -6 17 -42 27 -123 4 -24 9 -43 13 -43 4 0 12 -21 20 -47 7 -27 17 -58
22 -71 5 -13 9 -34 9 -47 0 -13 5 -27 10 -30 6 -3 10 -17 10 -30 0 -13 5 -27
10 -30 6 -3 10 -19 10 -36 0 -16 5 -29 10 -29 6 0 10 -9 10 -19 0 -11 8 -36
19 -58 10 -21 26 -55 35 -75 8 -21 22 -38 29 -38 8 0 42 27 76 60 50 48 59 61
46 66 -10 4 -28 -2 -45 -15 -38 -27 -80 -28 -80 -2 0 11 -4 23 -10 26 -5 3
-10 17 -10 30 0 13 -4 27 -10 30 -5 3 -10 24 -10 46 0 29 -5 41 -17 46 -30 11
-38 26 -41 73 -2 25 -10 55 -18 68 -8 12 -13 26 -10 30 2 4 -4 25 -15 46 -10
22 -19 50 -19 62 0 13 -4 26 -10 29 -5 3 -10 22 -10 41 0 19 -4 34 -10 34 -5
0 -10 18 -10 40 0 22 -4 40 -10 40 -5 0 -10 11 -10 25 0 14 -4 33 -9 43 -28
54 -36 77 -33 93 2 10 -5 20 -18 24 -15 5 -20 15 -20 40 0 19 -10 50 -21 70
-12 20 -23 57 -24 83 -2 26 -4 50 -4 53 -1 3 -12 19 -26 35 l-25 29 0 -27z"/>
<path d="M266 1821 c-4 -7 -5 -15 -2 -18 9 -9 19 4 14 18 -4 11 -6 11 -12 0z"/>
<path d="M266 1752 c-4 -13 -5 -26 -2 -29 10 -11 18 4 14 29 l-4 23 -8 -23z"/>
<path d="M245 1690 c-3 -5 -1 -10 4 -10 6 0 11 5 11 10 0 6 -2 10 -4 10 -3 0
-8 -4 -11 -10z"/>
<path d="M236 1644 c-7 -19 2 -37 15 -29 12 8 12 45 0 45 -5 0 -12 -7 -15 -16z"/>
<path d="M220 1574 c0 -14 4 -23 10 -19 6 3 10 15 10 26 0 10 -4 19 -10 19 -5
0 -10 -12 -10 -26z"/>
<path d="M205 1523 c-4 -13 -11 -23 -16 -23 -5 0 -9 -9 -9 -20 0 -11 -4 -20
-10 -20 -5 0 -10 -9 -10 -19 0 -11 -4 -23 -10 -26 -5 -3 -10 -19 -10 -35 0
-16 -4 -32 -10 -35 -5 -3 -10 -24 -10 -45 0 -21 -4 -42 -10 -45 -5 -3 -10 -22
-10 -41 0 -27 4 -34 19 -34 20 0 27 24 37 135 3 33 10 64 15 70 5 5 9 19 9 32
0 13 4 23 9 23 14 0 33 56 28 82 l-4 23 -8 -22z"/>
<path d="M80 1120 c0 -13 7 -20 20 -20 28 0 100 -23 100 -32 0 -5 9 -8 19 -8
11 0 21 -5 23 -11 2 -6 13 -9 23 -7 20 5 20 5 0 13 -11 5 -40 21 -64 37 -25
15 -53 28 -63 28 -10 0 -18 5 -18 10 0 6 -9 10 -20 10 -13 0 -20 -7 -20 -20z"/>
<path d="M310 1030 c0 -5 6 -10 14 -10 7 0 16 -9 19 -20 3 -11 12 -20 21 -20
23 0 20 9 -11 36 -30 26 -43 30 -43 14z"/>
<path d="M390 970 c0 -5 7 -10 15 -10 8 0 15 5 15 10 0 6 -7 10 -15 10 -8 0
-15 -4 -15 -10z"/>
<path d="M4850 910 c0 -5 7 -10 15 -10 8 0 15 5 15 10 0 6 -7 10 -15 10 -8 0
-15 -4 -15 -10z"/>
<path d="M4636 883 c-3 -10 -9 -24 -12 -30 -4 -8 2 -13 15 -13 12 0 21 5 21
10 0 6 15 10 34 10 19 0 42 3 50 6 15 6 15 8 -1 20 -27 20 -99 18 -107 -3z"/>
<path d="M4530 849 c0 -5 -7 -9 -16 -9 -8 0 -12 -4 -9 -10 3 -5 17 -10 30 -10
29 0 41 26 14 33 -10 3 -19 1 -19 -4z"/>
</g>
</svg>
