<?xml version="1.0" encoding="utf-8"?>
<!-- Generator: Adobe Illustrator 18.1.1, SVG Export Plug-In . SVG Version: 6.00 Build 0)  -->
<svg version="1.1" id="Ebene_1" xmlns="http://www.w3.org/2000/svg" xmlns:xlink="http://www.w3.org/1999/xlink" x="0px" y="0px"
	 width="250px" height="250px" viewBox="-18 -60 250 250" style="enable-background:new -18 -60 250 250;" xml:space="preserve">
<g>
	<path d="M166.2,50.3c1.4,20.6-0.3,41.1,0.5,61.6c0.5,11.7,0.1,23.4-0.1,35.1c-0.1,6.2-0.7,12.5-1.3,18.7c-0.3,2.7-0.6,4.4-4.9,4.2
		c-12.1-0.7-24.3,0-36.5,0.1c-18.4,0.1-36.8,0.3-55.2-0.1c-6.2-0.1-12.3-0.9-18.6-0.9c-2,0-3.8-0.4-3.7-3.1
		c0.1-16.8-0.8-33.7,0.4-50.5c1.2-17.7,1.6-35.4,1.8-53.1c0-1-0.1-2-0.3-4.3c-4.1,6.7-6.1,13-8.5,19.1C35,89.4,29.2,101.2,24,113.3
		c-5.1,12-9.9,24.1-13.7,36.7c-2.4,8-3.4,8.4-10.6,4.8c-5.4-2.7-10.2-6.3-16.1-8.1c-1.4-0.4-2.1-1-1.6-3
		c4.5-15.5,9.2-30.9,12.9-46.5c2.1-8.9,5-17.4,7-26.3c3-13.1,7.7-25.7,12.9-38C20.7,19.5,24.7,5.6,31-7.4
		c3.4-6.9,7.7-12.5,16.1-15.2c10.3-3.3,19.7-9.2,29.6-13.9c1.8-0.9,3.6-2.3,5.5-2.7c3.1-0.6,6.4-2.6,7.7,3.5c1,4.8,6.6,7.3,11.3,8.9
		c13,4.6,25.2,2.6,36.8-4.7c2.9-1.8,6.7-2.3,7.6-6.8c0.3-1.3,2.8-1.1,4.2-0.7c9.2,2.4,18.5,4.4,27,9.5c6.4,3.8,10.4,9,13.4,15.1
		c10.1,20.6,15.2,42.6,18.9,65.1c3.5,21.7,7.7,43.3,13.3,64.7c3,11.3,6.3,22.5,9.2,33.8c1.5,5.7-0.5,8.7-6.4,9.6
		c-5.6,0.9-11.1,2.1-16.5,3.7c-2.4,0.7-4.1,4.2-6.1,3.1c-2.7-1.4-3-5.2-3.8-8.1c-6.5-20.9-13.6-41.7-19.1-63
		C175.8,79.7,170.1,65.3,166.2,50.3z M129.6,166.2c0-0.1,0-0.1,0-0.2c9.5,0,18.9,0,28.4,0c2,0,4.2,0.3,4.3-2.9
		c0.2-6.2,1.2-12.3,1.1-18.5c-0.2-33.6,0.1-67.2-1.9-100.8c-0.1-1.7-1-4.4,1.4-4.9c2.8-0.6,4.1,1.6,5,4.1c1.9,5.7,3.3,11.5,4.9,17.3
		c6.1,21.7,12.2,43.5,19.4,64.9c3.6,10.5,6.9,21.1,10.3,31.7c0.5,1.6,0.4,3.9,3,2.8c5.1-2.1,10.6-2.4,15.9-4c6.6-2,6.9-2.2,5.1-8.9
		c-3.8-14.4-8.2-28.7-11.3-43.2c-5.3-24.9-9.8-49.9-14.5-74.8c-2.9-15.1-7.7-29.6-15.3-42.9c-7.4-13-20.3-17.7-34.2-20.5
		c-1.7-0.4-2.4,1-3.5,1.8c-9.9,6.6-19.7,13.1-32.5,12.5c-10.8-0.5-21.2-2.6-27.7-11.9c-3.4-4.8-5.6-4-9.5-1.9
		C68-28.8,58-23,47.3-18.9c-5.9,2.3-8.8,6.3-11.8,10.9c-1.4,2.1-2.3,4.6-3.3,7c-2.5,6.4-4.5,13-7.3,19.2
		C17.4,35.2,10.5,52.4,5.4,70.2C-0.5,91-6.5,111.7-12.4,132.5c-3.2,11.4-3.2,11.4,7.1,16.5c2.1,1.1,4.2,2.4,6.1,3.8
		c2.6,1.9,4,1.5,5.1-1.7c7.4-23.2,17.7-45.2,27.4-67.5c5.1-11.6,9.3-23.6,14-35.5c0.6-1.4-0.7-4,2-4c2.3,0,2.7,2.4,3.4,4.1
		c0.5,1,0.3,2.4,0.4,3.5c0.6,8.1-1.9,16-1.1,24.2c1.1,11.3,0,22.6-0.9,33.9c-1.3,16.6-1.6,33.2-1.2,49.9c0.1,4.7,2,6.6,7,6.3
		c8.2-0.6,16.3,0.7,24.5,0.3C97.5,165.7,113.6,166.2,129.6,166.2z"/>
</g>
</svg>
