<?xml version="1.0" encoding="utf-8"?>
<!-- Generator: Adobe Illustrator 18.1.1, SVG Export Plug-In . SVG Version: 6.00 Build 0)  -->
<svg version="1.1" id="Ebene_1" xmlns="http://www.w3.org/2000/svg" xmlns:xlink="http://www.w3.org/1999/xlink" x="0px" y="0px"
	 width="250px" height="250px" viewBox="-18 -60 250 250" style="enable-background:new -18 -60 250 250;" xml:space="preserve">
<g>
	<path d="M195.8,167.3c-0.6-11.4-1.6-22.8-1.7-34.2c-0.2-13.9-0.7-27.9,0.1-41.8c0.1-1.9,0.2-3.7,0.1-5.6c-0.2-2.2-1.1-3-3.7-2.9
		c-14.1,0.5-28.2,1.4-42.2,2.5c-1.5,0.1-3.1-0.1-4.6-0.4c-6.7-1.1-5.8-0.9-4.5-7.3c1-4.7-0.9-9.9,2.5-14.3c0.1-0.2-0.3-1-0.6-1.3
		c-4.5-3.3-4.7-7.5-2.9-12.3c0.6-1.6-0.1-2.6-1.6-3.2c-4.3-1.8-4-5.1-1.7-7.8c2.9-3.3,3.2-6.8,2.8-10.9c-0.3-2.8-0.4-5.8,0.9-8.6
		c0.7-1.6,0.6-2.9-0.5-4.2c-1.2-1.4-1.3-3.2-0.8-4.8c0.9-2.9,0.8-5.7-0.6-8.4c-0.2-0.3-0.4-0.7-0.3-1c2.2-6.9,0.5-14.3,2.7-21.2
		c0.8-2.4,1-4.3-0.9-6c-3.4-3.3-3.6-6.4,0.2-9.4c2.5-2,2.8-4,0.4-6.4c-2.3-2.3-1.8-4.7,0.6-6.5c2.2-1.6,2.4-3.2,1.5-5.7
		c-1.8-4.8-0.2-6.5,5.2-4.9c7.2,2.1,14,5.3,20.6,9c4.4,2.6,8.6,5.7,13.3,7.7c5.9,2.6,11.7,4.6,18.7,3.6c10-1.4,13.2,1.6,14.2,11.8
		c1.1,12.4,1.5,24.8,2.3,37.2c1.3,19.9,1.3,39.8,0.8,59.6c-0.6,28.4,0.9,56.8,0.8,85.2c-0.1,9.8-1,19.7-4.9,29
		c-1.8,4.3-5.2,6.9-9.6,6c-4.3-0.9-6.5-4.7-6.6-9.2c-0.1-4.4,0-8.9,0-13.3C195.8,167.3,195.8,167.3,195.8,167.3z M143.5-56.6
		c2.1,4.7,2.8,7.8-0.5,10.6c-1.8,1.5-0.5,3.1,0.5,4.5c1.8,2.6,2.1,5-0.6,7.1c-2.7,2.2-3,4.4-0.8,7.4c2.2,3,3.7,6.3,0,9.5
		c-1.2,1.1-1,2.5-0.2,3.8c1.5,2.7,1,5.4-0.4,7.8c-1.9,3.4-1.1,6.6-0.7,10.3c0.5,5.2,3.8,10.4,1.5,15.7c-1.7,3.9-2.1,7.6-0.8,11.4
		c1.4,4-1,6.5-2.3,9.7c-1.1,2.8,4.8,5.6,2.6,9.9c-0.1,0.1-0.1,0.3-0.1,0.5c-1.1,3-0.9,5.5,2,7.7c1.8,1.3,3.7,4,2.5,5.7
		c-2.8,4-1.5,8.3-2.2,12.4c-0.4,2.7,0.5,3,2.5,3c4.4,0,8.9,0.2,13.3-0.2c10.5-0.8,21-1.7,31.6-1.3c1.5,0.1,2.3-0.1,2.4-1.7
		c0.1-3.6,0.2-7.2-0.6-10.7c-0.4-1.7-1.1-2.8-3.2-2.3c-5.3,1.3-9.5-2.1-14.1-3.5c-1.1-0.3-3-1.1-2.3-2.8c0.7-1.7,2.4-0.5,3.6-0.2
		c3.5,0.9,6.9,1.8,10.4,2.5c1.9,0.4,4.1,0.1,4.7-2c0.6-2.2,1.2-4.9,0.5-7c-0.7-2.1-2.9-0.1-4.5,0c-5,0.4-8.9-1.7-13.6-5.4
		c4.9-0.9,7.7,1.7,11.1,1.7c5.6,0,7.1-1.2,6.9-6.7c-0.1-3.4-0.5-6.8-0.1-10.2c0.4-3.6-0.3-4.9-4.3-4c-6.8,1.5-13.6,0.7-19.8-2.7
		c-0.9-0.5-1.9-1.1-1.5-2.3c0.5-1.3,1.7-0.8,2.6-0.6c3,0.6,6,1.5,9,1.8c11.4,1.3,14.3-1.6,13.3-12.9c-0.3-3-1.6-4.3-4.5-4.2
		c-1.9,0-3.8,0.1-5.6-0.2c-5.1-0.7-9.1-4-10.2-8.3c2.5,1.2,4.8,2.7,7.3,3.5c10.4,3.3,13.4,1,12.9-9.6c-0.1-1.2-0.3-2.4-0.3-3.6
		c0.2-4.9-1.7-7.2-6.9-6.4c-1.5,0.3-3.1-0.2-4.4-1.1c-1.5-1.1-3.8-2.4-3-4.2c1.2-2.7,2.6,0.6,4.1,0.7c0.7,0,1.3,0.4,2,0.4
		c3.2-0.2,7.3,1,8.4-3.7c1-4.3,1-7.9-4.6-9.4c-7.5-1.9-13.8-6.4-20.4-10.3C159.6-50.4,152.4-53.5,143.5-56.6z M199.9,162.5
		c0,6.7-0.4,12.2,0.9,17.6c0.6,2.4,1.2,5.3,3.7,5.6c2.8,0.4,3.6-2.6,4.3-4.9c0.7-2.4,1.7-4.9,1.9-7.4c0.6-6.8,1.3-13.6,1.4-20.4
		c0.7-28.3-1.5-56.5-0.1-84.8c0.2-3.4,1.2-6.8,0.7-10.2c-1.8-14.9,0.4-29.9-1.2-44.9c-1.5-14.2-1.3-28.6-3.2-42.8
		c-0.6-4.2-2.8-6.3-6.7-6c-3.8,0.3-5.7,3-6,7c-0.5,7.1-0.1,14.3-0.2,21.4c-0.4,34.6,2.5,69.1,2.6,103.7
		C198.1,118.9,199.3,141.3,199.9,162.5z"/>
	<path d="M96.5,187.1c-16.3,0-32.6-0.1-49,0c-9.5,0.1-19.1,0.5-28.6,1c-5.7,0.3-11.2-0.5-16.8-0.9c-7.1-0.6-9.9-4.6-10.5-11.9
		c-1.1-12.3,2.6-23.9,3.9-35.9C-2.1,118,5,97.5,6.1,76c0.2-3.8,1.8-7.2,3.2-10.7c2.7-6.9,7.4-11.2,15-12.3
		c7.8-1.1,15.5-2.4,23.2-3.8c8.2-1.5,10.8-4.2,12-12.3c1.9-12.9,1.3-25.9,0.5-38.8c-0.8-13-0.2-25.9,1.8-38.7c0.1-0.3,0.1-0.7,0.2-1
		c1.7-6.2,6.5-11,10.9-10.8c3.7,0.2,7.2,5.2,8.4,11.7c3.9,22.2,1.7,44.1-2.4,66c-0.9,5-1.3,10.1-1.5,15.2c-0.3,7.7,2,10.2,9.5,11.1
		c6.1,0.7,12.2,1.4,18.3,2c17.7,1.8,26.2,11.2,26.3,29.4c0.1,7,0.1,13.9,0.6,20.9c1.5,18.7,2.3,37.4,3.4,56.1
		c0.3,4.9,0.8,9.8,1.2,14.8c0.5,6.1-1,8-6.7,10.4c-6.5,2.8-13.3,2.5-20.1,2.7c-4.4,0.1-8.9,0-13.3,0
		C96.5,187.7,96.5,187.4,96.5,187.1z M97.6,182.9c0,0.3,0,0.6,0,1c1.4,0,2.7,0,4.1,0c8,0.2,16-0.2,24-1.1c6.5-0.8,8.4-3.1,7.6-9.2
		c-0.4-3.6-1-7.1-1.1-10.7c-1-22.1-3-44.2-4.9-66.2c-0.2-2.4-0.1-4.8,0.2-7.1c1.1-8.6-0.8-16.6-4.6-24.2c-2.3-4.6-6-6.7-11-7.1
		c-8.1-0.7-16.3-1.4-24.4-2.2c-9.1-0.8-13.5-5.5-13.8-14.5c-0.2-4.8,0.1-9.5,0.8-14.3c2-14.1,5.3-28.1,4.7-42.6
		c-0.4-9.2-0.6-18.4-2.4-27.4c-0.4-2.2-1-5.1-4-5.2c-3-0.2-5,1.9-6.3,4.5c-0.7,1.4-1.2,2.9-1.5,4.4c-1.7,8.4-2.3,16.9-2,25.4
		c0.5,14,1,27.9,0.8,41.9c-0.1,4.5-0.8,8.8-1.8,13.1c-1.6,6.9-6.4,10.3-12.9,11.5C42.4,54,35.7,55.5,28.9,56
		c-10.8,0.8-16.6,6.8-18.8,16.9c-0.6,3-1.4,6-1.6,9.1c-1.2,21-8,41.1-10.6,61.9c-1.4,11.1-4,22.1-3.2,33.4c0.2,2.9,1.6,4.7,4.4,5.5
		c4.2,1.2,8.4,1.3,12.7,1.2c11.6-0.3,23.1-1,34.7-1.1C63.6,182.7,80.6,182.9,97.6,182.9z"/>
</g>
</svg>
