<?xml version="1.0" encoding="utf-8"?>
<!-- Generator: Adobe Illustrator 18.1.1, SVG Export Plug-In . SVG Version: 6.00 Build 0)  -->
<svg version="1.1" id="Ebene_1" xmlns="http://www.w3.org/2000/svg" xmlns:xlink="http://www.w3.org/1999/xlink" x="0px" y="0px"
	 width="250px" height="250px" viewBox="-172 295.9 250 250" style="enable-background:new -172 295.9 250 250;"
	 xml:space="preserve">
<g>
	<path d="M-166.9,428c-0.4-6.3-1.1-12.6,0.7-19.1c1.8-6.5,5.5-10.5,11.8-12.7c4-1.4,7.1,1.3,10.8,1.2c8-0.3,16.1,0.5,24.2,1
		c2.2,0.1,3.1-0.4,3.4-2.9c0.5-4.7,1.6-9.4,2.6-14.1c2.3-10.7,5.9-14.1,16.9-14.9c14.8-1,29.6-1.6,44.5-1.4
		c16,0.2,31.8,2.8,47.8,2.6c4.9-0.1,10.2,0.1,15.1,2C20,373.3,23,380.4,24,389.4c1.5,14.2,2.1,14.4,16.6,12.8
		c3.4-0.4,6.7-1.6,10.2-1.9c4.8-0.5,7.3,1.7,9.3,5.6c3.4,6.7,5.9,13.6,6.5,21c1.1,12.5,5.4,24.4,5.8,37c0.2,7.3-2,10.5-8.8,12.6
		c-9.6,2.9-19.1,1.2-28.7,1.1c-9.1-0.1-18.2,0.6-27.3,0.3c-12.2-0.4-24.3-0.2-36.5-1.1c-11.5-0.9-22.9-1.9-34.6-0.8
		c-12.3,1.2-24.8,1.5-37.3,0.9c-11.8-0.6-23.5-1.2-35.3-1.5c-5.8-0.1-11.6-0.6-17.2-2c-4.4-1.1-7.7-3.6-8.4-8.6
		c-1.2-9-4-17.7-4.9-26.9C-166.9,434.7-167.1,431.4-166.9,428z M23.8,473.3c7.9-0.7,20.8,1.3,33.7-0.5c9.4-1.3,14-6.3,11.3-15.6
		c-4-13.7-5.1-27.9-8.8-41.6c-2.7-10.1-2.8-10.1-13-9.2c-0.3,0-0.7-0.1-1-0.1c-18-1-36,0.3-54-0.5c-19.2-0.8-38.5-1.1-57.8-1.1
		c-15.8,0-31.4-2.1-47.1-2.7c-11.3-0.4-22.8,0.5-34.1-2.3c-7.6-1.9-15.6,4.1-15.9,12c-0.3,7.3-0.1,14.6-0.1,21.9
		c0,10.2,3.5,19.8,4.9,29.7c0.8,5.4,3.2,6.8,8,7.6c11,1.8,22,0.6,33,1.7c13,1.3,26,0.6,39,0.2c9.6-0.3,19.1-2,28.7-1.2
		c9.9,0.9,19.8,1.5,29.6,1.7C-6.9,473.6,6,473.3,23.8,473.3z M-1,402c10,0.3,10,0.3,10-8.5c0-6-0.8-6.4-6.8-7.3
		c-10.3-1.5-20.7-0.7-31.1-1.8c-15.3-1.7-30.6-3.6-46-2.8c-6.4,0.3-12.8-0.2-19.1,0.2c-7,0.5-10,4.6-9.6,15.4c0.2,4.6,5.3,0.8,8,2.1
		c1.1,0.5,2.5,0.5,3.8,0.6c12.3,0.8,24.6,2.5,36.8,2.1C-37,401.4-19,401.3-1,402z M12.1,402.2c1.3-0.1,2.3-0.3,3.2-0.3
		c6.1-0.3,6.1-0.3,5.1-6.3c-0.6-3.8-1.1-7.6-1.5-11.3c-0.4-4.2-2-7.5-6.3-9.2c-4.3-1.8-8.8-2.3-13.3-3c-10.2-1.4-20.4-0.4-30.6-2.1
		c-9.1-1.5-18.5-0.5-27.8-0.7c-13.8-0.3-27.6,0.5-41.4,2.3c-3,0.4-4.7,2.5-6.1,5.2c-3.1,6-3.6,12.7-5.8,18.9c-0.5,1.4-1,2.6,1.1,2.9
		c1.7,0.2,3.4,0.4,3.3-2.3c0-2.1,0.2-4.3,0.4-6.4c0.9-7.1,3.5-10.7,9.2-11.2c12.5-1.1,25-1.5,37.5-1c11.7,0.5,23.3,1.6,35,2.3
		c10.4,0.6,20.9,0.8,31.2,2.4c4.1,0.6,6,3.2,6.7,6.9C12.9,393.4,13.1,397.7,12.1,402.2z"/>
	<path d="M-147.6,436.2c-0.6-12.2,7.1-24.5,20-27.8c5.8-1.5,11.6-0.7,17.4-0.8c8.1,0,13.8,3.4,20.1,6.8c10.5,5.7,13.7,23.6,7.9,34.1
		c-5.9,10.8-15.1,15.6-26,17.5C-124,468.6-147.7,456.8-147.6,436.2z M-110.8,410.5c-10.4-0.4-19.1,0.9-25.4,8
		c-7.1,7.8-9.3,17.2-5,27.2c4.8,11.1,14.6,16.1,25.7,16.5c13.3,0.6,24-5.3,30-18c3.4-7.3,0.8-22.5-5.3-26.1
		C-97.3,414.2-103.5,408.7-110.8,410.5z"/>
	<path d="M58,441.2c-1.2,13.4-7.3,21-19.9,25.2c-11.8,3.9-23.1,2.1-33.8-2.3c-9.1-3.8-11.9-12.7-12.3-22.1
		c-0.7-17.7,10.2-25.3,25.3-29c9.5-2.3,18.2,0.4,27,2.5c6.3,1.5,13,11.8,13.6,19.8C58.1,437.2,58,439.1,58,441.2z M54,436.9
		c1-5.4-2.2-10.1-5.2-14.9c-0.7-1.2-1.5-2.4-3.3-2.8c-3.4-0.6-6.6-1.7-10-2.5c-8.7-2-17.3-0.6-24.9,3.1c-12,5.8-16.2,15.9-13.6,29.3
		c1,4.9,3.3,9.8,8.1,11.9c5.2,2.3,10.5,4.7,16.6,4.6C41.2,465.1,53.8,458,54,436.9z"/>
	<path d="M-54.4,439.7c8.9,0,17.8,0,26.6,0c7.2,0,7.8,0.6,7.6,7.4c-0.1,4-0.2,8,0.5,11.9c0.9,5-1.3,6.4-5.7,6.8
		c-7.7,0.6-15.5-0.5-23.2-0.2c-4,0.1-7.9,0.3-11.9,0.7c-3.4,0.4-5.7-1.1-6.5-4.1c-0.9-3.7-4-7.1-1.8-11.6c0.6-1.2-0.2-3.3-0.7-4.8
		c-2-5.8-2-5.8,4.1-5.6c3.7,0.1,7.3,0,11,0C-54.4,440.1-54.4,439.9-54.4,439.7z M-66.7,443.2c0.9,3.6,1.8,6.4,1.7,9.4
		c-0.3,6.2,1.7,8.5,7.7,8.8c3.5,0.2,6.9,0.2,10.4,0.2c6.6-0.1,13.2-0.2,19.8-0.3c2.2,0,3.7-0.9,3-3.3c-1-3.5-0.6-6.9-0.1-10.3
		c0.3-2.8-0.4-4.5-3.5-4.5C-40.8,443.2-53.6,443.2-66.7,443.2z"/>
	<path d="M-64.9,413c16-1.2,32.2,0.6,48.2-1.5c1.7-0.2,3.4-0.4,4.2,1.7c0.3,0.7,0.7,1.7,0.5,2.3c-0.5,1.4-1.5,0.5-2.4,0.3
		c-3.6-0.8-7.4,0-10.7,0.5c-9.8,1.4-19.5-1.7-29.3-0.1c-6.3,1-12.8-0.4-19,1.3c-2.4,0.6-4.3-0.2-4.6-2.3c-0.3-2.7,2.3-1.6,3.7-1.7
		C-71.2,413.2-68,413.2-64.9,413z"/>
</g>
</svg>
