<?xml version="1.0" encoding="utf-8"?>
<!-- Generator: Adobe Illustrator 18.1.1, SVG Export Plug-In . SVG Version: 6.00 Build 0)  -->
<svg version="1.1" id="Ebene_1" xmlns="http://www.w3.org/2000/svg" xmlns:xlink="http://www.w3.org/1999/xlink" x="0px" y="0px"
	 width="250px" height="250px" viewBox="-172 295.9 250 250" style="enable-background:new -172 295.9 250 250;"
	 xml:space="preserve">
<g>
	<path d="M-5,439.4c-0.7,9.7,1,18.9,1.3,28.1c0.6,17.6-0.8,35-5.9,51.8c-2.4,7.9-5.6,16-13.6,20.7c-9.3,5.5-24.8,4.2-33.9-1.9
		c-10.6-7.1-14.6-17.8-18-29.2c-6.8-22.8-5.4-46.3-6-69.5c-0.7-24.6-1.1-49.2-5.1-73.5c-1.7-10.2-6.7-19.4-12.5-27.8
		c-2.4-3.4-0.5-5.9-1-8.7c-1.3-8.5-0.6-16.9,4.9-24.1c4.5-6,14.9-8.1,20.5-3.5c6.8,5.6,14.3,4.7,22,4.2c9.6-0.6,18.8-3.4,28.1-5.2
		c6.1-1.2,18.9,6,22.3,11.6c7.6,12.6,5.6,24.5-0.9,37c-4.4,8.4-5.5,18-6.1,27.4c-1,13.9-0.4,27.8,2.1,41.6
		C-5.3,425.4-5.2,432.7-5,439.4z M-84.1,360c0.6,3.1,1.2,6.2,1.7,9.3c1.8,12.1,4.4,24.3,4.2,36.5c-0.2,11.2,0.9,22.4,0.6,33.7
		c-0.3,12.9,1.1,25.8,1.7,38.7c0.7,16.7,4.1,32.6,12.1,47.6c5.1,9.6,21.9,17.6,34,14c9.6-2.8,13-10.8,15.9-19
		c7.1-20.6,7-42.1,5.8-63.5c-0.9-16.5-2.3-33-4.8-49.4c-2.4-15.7-2.3-31.6,1.2-47.8c-7.8,7.6-15.7,14-23.4,20.8
		c-5.1,4.5-10.3,7.5-17,8.3c-8.1,0.9-18.6-2.4-22-11.5C-76.5,371.3-79,364.9-84.1,360z M-0.8,330.6c0.3-20.6-11.2-27.9-25.8-25.8
		c-7.7,1.1-15.4,3.5-23.3,4.1c-9.4,0.7-19,2.9-26.6-5.3c-0.3-0.3-1-0.1-1.4-0.3c-9-2.4-15.7,2.8-18.1,11.5
		c-3.1,11.6-0.5,22,6.7,31.2c7.4,9.6,13.7,19.9,18.1,31.3c2,5.1,6.1,8,11.2,8.8c6.7,1.1,13.4,0.5,18.8-4.2c9.6-8.4,20-15.9,28-26.1
		C-6.8,347.8,0.3,340.1-0.8,330.6z"/>
	<path d="M-21.7,348.8c-8.2,0.4-17.7-4.6-20.1-10.4c-3.9-9.7-1.4-20.3,6.1-26.5c9.4-7.7,19.1-5,24,6.3c1.3,3,3.8,5.5,5.3,8.6
		C-1.9,336.2-12.3,349.8-21.7,348.8z M-9.2,329c0.4-2.1,0-4.9-1.9-6.4c-2.2-1.8-3.2-3.8-4.1-6.2c-1.5-3.9-4.3-5.3-8.7-4.4
		c-10,2.1-13.3,5.3-14.9,15.6c-1.5,9.7,4.6,16.9,15.3,17.8C-17.3,345.9-9.1,336.7-9.2,329z"/>
	<path d="M-56,327c-0.5,14.5-12,21.5-25.4,16.2c-12.4-4.9-16-19-11.8-28.3c2.6-5.9,7-8.2,12.8-8.4c7.8-0.4,20.3,7.6,23.3,14.8
		C-56.4,323.2-55.3,325.2-56,327z M-60,326.7c0.2-2.7-0.9-5.2-2.8-8.1c-3.6-5.7-9.6-6-14.7-8c-5.9-2.3-11.4,1.9-12.8,8.1
		c-1.2,5.2-0.2,9.8,2.2,14.4c3.2,6.1,11.7,9.8,18.2,8.1C-65.1,339.8-60,332.7-60,326.7z"/>
	<path d="M-60.8,363.4c1.4-3.8,0.4-9.1,5-12.4c2.3-1.6,4.5-2,7-1c6.9,2.6,12.2,13.7,9.5,20.5c-1.3,3.2-4.2,5.1-7.7,5.7
		c-4.4,0.7-8.3-0.8-11.1-4.3C-59.8,369.7-60.7,367-60.8,363.4z M-56.2,364c-0.4,1.6,0.2,3.6,1.2,5.6c1.7,3.3,4.5,3.8,7.6,2.9
		c3.2-0.8,5.2-2.8,5.2-6.3c0-0.6-0.2-1.2-0.3-1.8c-4.7,1.6-1.6-1.9-1.6-2.8c-0.2-3.9-3.1-8.4-5.9-8.1c-3.8,0.4-5.4,3.4-6,6.9
		C-56.1,361.3-56.1,362.4-56.2,364z"/>
</g>
</svg>
