<?xml version="1.0" encoding="utf-8"?>
<!-- Generator: Adobe Illustrator 18.1.1, SVG Export Plug-In . SVG Version: 6.00 Build 0)  -->
<svg version="1.1" id="Ebene_1" xmlns="http://www.w3.org/2000/svg" xmlns:xlink="http://www.w3.org/1999/xlink" x="0px" y="0px"
	 width="250px" height="250px" viewBox="-18 -60 250 250" style="enable-background:new -18 -60 250 250;" xml:space="preserve">
<g>
	<path d="M28.3,190c1.3-6,5.5-9,8.7-12.5c6.4-7,13-13.8,19.7-20.4c4.4-4.3,10.1-7.2,14.5-11.7c8.8-9.2,18.4-17.6,28-26.1
		c3.1-2.8,2.8-4.7-0.3-7.6c-6.8-6.2-11.6-14.1-17-21.5c-3.4-4.7-7.1-9.2-10-14.3c-1.6-2.7-2.9-0.2-3.9,0.7
		c-5.3,4.9-10.7,9.9-15.8,15c-12,12-25.8,21.9-37.9,33.7c-6.6,6.5-13.4,12.8-21.3,19.4c0.3-3,0.9-4.6,2.5-6.2
		c20.2-20.2,43.2-37.3,63-57.9c2.4-2.5,5.3-4.7,8.1-6.8c2.2-1.6,1.9-3.4,0.8-5.3c-4.1-6.8-7-14.4-12.3-20.5
		c-1.9-2.2-2.7-5.1-3.3-8.2c-0.6-3.4-2.5-6.8-3.8-10.3c-2.7-7.3-2.4-14.5-3.3-21.9c-1.1-8.9,1.2-17.1,2.1-25.6
		c0.9-8.1,5.5-14.4,10.6-20.9c8.4-10.7,20.3-15,32-19.6c10.3-4,20.3-0.5,29.8,4.1c6.7,3.3,12.8,7.5,19.2,11.3
		c8,4.9,12.5,12.6,15.4,20.8c3.5,9.9,5.5,20.4,7.8,30.8c1.6,7.4,0.8,14.8-2.4,21.8c-4.9,10.5-7.6,22.1-14.1,31.9
		c-4.6,6.9-4.1,6.7,1.9,12.8c9.8,9.8,21.4,17.5,30.8,27.7c6.6,7.2,13.7,13.9,21,20.2c5.8,5,9.9,11.1,16.2,16.5
		c-4.1-0.7-6.1-2.8-8.2-5.1c-3.4-3.7-7.3-6.9-11.7-9.4c-2-1.1-3.2-3-4.6-4.6c-8.7-9.5-18.2-17.9-28.2-25.9
		c-7.5-6-14.4-12.8-20.9-19.8c-10.8-11.6-21.5-23.2-32.4-34.7C97.7,28.5,87.1,16.4,76.7,4c-3.3-3.9-6.1-8.5-7-13.9
		c-2.5-14.3,9.7-27.9,29.1-21.7c5.6,1.8,11.3,3.4,16.4,6.4c10.6,6.1,17.5,15,20.4,26.9c2,7.9-2.5,12.9-8.2,17.1
		c-5.5,4-9.9,9.3-15.8,12.6c-1.9,1.1-2,2.1-0.4,3.9c8.4,9.2,16.8,18.4,25,27.7c1.9,2.1,2.9,0.8,4-0.4c3-3.2,5.4-7,7.1-11
		c3.4-8.1,6.5-16.3,9.9-24.5c2.7-6.6,3.3-13.6,1.7-20.4c-2.1-8.9-4.8-17.6-7.6-26.3c-3.1-10-9.4-17.4-18.6-22.5
		c-9.9-5.5-19.5-11.9-31-13.4c-16.2-2.1-29.4,4.8-39.2,16.7c-19.5,23.5-19.1,49.9-7.7,76.5c8.7,20.3,21.9,38,34.4,56
		c12,17.2,27.6,31,41.8,46.2c8.5,9.2,19.1,16.5,28.2,25.1c5.7,5.4,12.6,9.2,17.5,15.3c1.6,1.9,4,2.6,5.5,4.4c1.2,1.3,4.7,1.9,3,4.2
		c-1.3,1.9-3.3-0.6-4.7-1.6c-3.1-2.1-6-4.4-8.8-6.8c-7.1-6-14.3-11.9-21.1-18.1c-5.9-5.3-11.7-11-17.8-15.9
		c-9.7-7.8-16.6-18.2-26.1-26c-2.4-2-3.7-0.2-5.2,1.1c-7.7,7.2-14.8,15-23,21.5c-16,12.7-29.4,27.9-43.4,42.5
		C33.5,187.4,31.5,188.7,28.3,190z M88.7-28.1c-5.3-0.5-9.6,0.6-13,5.2c-5.3,7.1-3.4,12.6,1.1,19.5c7.8,11.8,18.4,21.4,27.8,32
		c1.5,1.7,2.3,2.1,4.3,0.3c5.7-5,11.6-9.7,17.5-14.5c7.5-6.2,8.3-10.1,3.2-18.3C120.3-19.2,106-26.3,88.7-28.1z"/>
	<path d="M17.9,172.5c-0.5-0.3-1.7-0.6-2.1-1.4c-0.6-1.2,0.5-2.2,1.3-3c6.6-6.3,13-12.8,19.8-18.8c3.8-3.4,7.6-6.7,10.7-10.6
		c0.7-0.9,1.5-2.6,3.2-1c1.5,1.4,0.8,2.6-0.4,3.8c-8.5,9.3-17.7,17.8-27,26.3c-1.2,1.1-2.3,2.4-3.3,3.8
		C19.6,172.2,19.4,173.2,17.9,172.5z"/>
	<path d="M193.3,179.9c-2.3,1.6-3.5,0.4-4.7-0.4c-11.9-7.9-21.9-17.9-32.2-27.6c-1-0.9-3.4-2.1-1.1-4c1.9-1.6,2.9,0.1,4.1,1.2
		c9.1,8.3,18.1,16.6,27.4,24.7C189,175.7,190.1,178.5,193.3,179.9z"/>
	<path d="M42.1,130c-0.5,0.7-0.9,1.3-1.3,1.8c-6.9,7.6-13.7,15.4-20.8,22.8c-2.2,2.3-3.6,5.3-5.9,7.5c-1.1,1.1-1.8,3.3-3.9,1.7
		c-2.3-1.7-0.7-3.4,0.3-4.8c4.4-5.9,9.4-11.4,14.9-16.4c4.5-4.1,8.4-8.7,12.7-12.9c0.8-0.8,1.5-2,2.9-1.2
		C41.4,128.8,41.7,129.5,42.1,130z"/>
	<path d="M221.1,155.8c-8.6-3.7-14.8-9.6-21.4-14.9c-4.3-3.5-8.2-7.5-12.3-11.2c-1.1-1-2.2-2-2.9-3.4c-0.6-1.1-0.5-1.9,0.4-2.7
		c1.1-0.9,1.7-0.1,2.5,0.6c5.1,4.6,10.2,9.2,15.3,13.8c4.4,4,8.9,7.7,13.7,11.1C218.5,150.5,220.6,152,221.1,155.8z"/>
	<path d="M1.8,155.7c-0.4-0.3-1.4-0.6-1.7-1.2c-0.5-1.1,0.5-1.8,1.2-2.5c5.1-4.7,10.1-9.4,15.2-14.1c4.7-4.4,9.4-8.7,14.1-13
		c0.9-0.8,1.8-2,3-1.1c1.9,1.3-0.1,2.5-0.7,3.3c-6.3,7.7-14,14-21.3,20.6c-2.4,2.1-4.7,4.3-7.1,6.5C3.8,154.7,3.3,155.6,1.8,155.7z"
		/>
	<path d="M27.7,178.9c-1.3-0.4-2.1-1.3-1.4-2.7c0.6-1.2,1.4-2.3,2.4-3.2c8.2-8.5,16.4-16.9,24.7-25.3c1-1,2.3-3.3,4.1-1.4
		c1.9,2-0.7,2.8-1.6,3.9c-7.9,9.7-17.9,17.3-25.8,27C29.5,178,28.9,178.9,27.7,178.9z"/>
	<path d="M210.1,159.2c-3.2-1.4-6.3-2.2-8.5-3.9c-8.7-6.6-17.2-13.4-25.7-20.3c-1.2-1-3.9-2.1-1.9-4.3c2-2.1,3.3,0.5,4.5,1.6
		c8.8,8.3,18.4,15.5,28.2,22.7C207.9,155.8,209.5,156.6,210.1,159.2z"/>
	<path d="M197.7,162.8c-6-0.1-10.3-3.2-14.4-6.5c-6.2-5-12.1-10.2-18.2-15.3c-1-0.9-2.5-1.4-1.3-3.1c1.3-1.8,2.6-1.2,3.8-0.1
		c6.4,5.5,12.7,11.1,19.2,16.6C190.3,157.3,194.1,160,197.7,162.8z"/>
	<path d="M30.7,118.6c-0.5,0.6-0.8,1.1-1.3,1.5c-9,8.8-17.9,17.7-27,26.4c-1.4,1.3-2.8,4.9-5,2.9c-2.5-2.3,1.4-3.6,2.6-4.8
		c9-8.9,18.3-17.4,27.4-26.1c0.6-0.6,1.1-1.4,2.1-1C30,117.6,30.2,118.1,30.7,118.6z"/>
</g>
</svg>
