<?xml version="1.0" encoding="utf-8"?>
<!-- Generator: Adobe Illustrator 18.1.1, SVG Export Plug-In . SVG Version: 6.00 Build 0)  -->
<svg version="1.1" id="Ebene_1" xmlns="http://www.w3.org/2000/svg" xmlns:xlink="http://www.w3.org/1999/xlink" x="0px" y="0px"
	 width="250px" height="250px" viewBox="0 0 250 250" style="enable-background:new 0 0 250 250;" xml:space="preserve">
<g>
	<path d="M55.5,4.3C55.6,0.8,58.3,2,60.1,2c25.2-0.5,50.4-0.4,75.6-0.1c16.7,0.2,33.3-1.1,50-1.9c7.3-0.4,7.7,0.7,7.4,7.7
		c-0.9,18.3-2.7,36.6-1.9,55.1c1.1,27.4,2.7,54.7,2.9,82.1c0.1,20.9,1.6,41.8,2.7,62.8c0.6,11.4-1.3,22.7,0.3,34.1
		c0.3,2.3-2,2.9-4,2.5c-2.2-0.5-4.6-0.9-6.6-0.1c-5.7,2.4-6.3-0.9-6.3-5.2c0-1.2-0.4-2.3-0.5-3.5c-0.6-5.5-3.5-7.1-9.1-7.5
		c-24.3-1.7-48.3,2.5-72.4,2.9c-7.8,0.2-15.6,0.3-23.4,0.3c-2.7,0-3.6,0.6-2.6,3.5c1.2,3.7,1,7.7,1,11.7c0,2.4-0.5,4-3.6,3.2
		c-1.6-0.4-3.4,0.1-5,0.3c-6.2,0.5-6.6-0.2-6.6-6.2c0.1-31.8,0-63.7-1.1-95.5c-0.8-23.8-2.6-47.6-1.9-71.5
		c0.6-21.6-0.5-43.2-1.2-64.8C53.2,9.3,51.9,6,55.5,4.3c0.7,10.5,1.8,20.9,2,31.4c0.4,18.6,0.3,37.2,0.2,55.7
		c-0.1,25.4,2.5,50.7,2.9,76.1c0.3,17.9,0.2,35.8,0.4,53.7c0.1,8.2,0.2,8.1,7.7,7.3c3.6-0.3,7.2-0.4,10.7-0.4c15,0.2,30-0.3,44.9-2
		c19.7-2.2,39.5-2.3,59.2-0.7c10.3,0.9,9,0.2,9.1-8.4c0.2-21.1-1.6-42.2-2.1-63.3c-0.5-20.8-0.3-41.6-1.7-62.3
		c-1.9-27.6-1.4-55.2,1.1-82.7c0.4-4.7-1-5.6-5.1-5.4c-20.4,1-40.8,1.8-61.2,1.3C100.8,4.1,78.1,4.3,55.5,4.3z M180.5,228.5
		c0.9,2.1,1.7,3.4,2.1,4.8c0.5,1.4,0.8,2.9,0.9,4.4c0.3,2.6,2.1,2.7,4.1,2.6c1.8-0.1,3.8,0.3,4.6-2.2c1.5-4.9-0.4-8.1-5.5-8.8
		C184.9,229.2,183.1,228.9,180.5,228.5z M61.4,238.7c0,0-0.1,0-0.1,0c0,1.5,0.1,3,0,4.5c-0.1,2.2,1,3.1,3,2.9c1.9-0.1,4-0.3,4.1-2.7
		c0.2-3.2,0.4-6.4-0.6-9.5c-0.6-1.8-1.7-2.4-3.4-1.9c-1.5,0.4-3.1,0.6-3,2.7C61.4,236.1,61.4,237.4,61.4,238.7z"/>
	<path d="M156.1,218.8c-24.3,2.6-48.6,0.9-73,1.1c-1.5,0-3.1-0.3-4.6-0.4c-8.9-0.6-8.9-0.6-8.9-9.7c0-20.5-1.7-40.8-3.6-61.1
		c-1.8-19-1.1-38.1,0-57.1c0.7-11.9,0.9-23.8,0-35.7c-0.6-7.6-0.6-15.3-0.5-23c0.1-5.1-0.7-10.2-0.9-15.3c-0.1-3,0.8-3.4,3.8-3.5
		c22.5-1,44.9-0.1,67.4-1.2c13.9-0.7,27.9-0.8,41.8,0.5c1.6,0.1,2.9,0.3,2.8,2.6c-0.1,11.7,0.2,23.5-0.2,35.2
		c-0.4,12.4,0.3,24.8-0.3,37.2c-0.8,17.6,0.5,35.4-0.8,52.9c-1.1,14.8-1.8,29.5-0.6,44.3c0.7,8.5,1.8,16.9,2.6,25.4
		c0.6,6.5,0.3,6.7-6.2,7.6C168.7,219.3,162.4,218.8,156.1,218.8z M123.7,111.4c-0.2-13.6,0.3-27.2-0.7-40.8c-1.3-16.5-2.1-33-3-49.4
		c-0.2-3.2-1.3-4.5-4.6-4.6c-14.6-0.4-29.2-1.1-43.9,0.2c-2.6,0.2-3.9,1.3-3.6,3.8c1.3,9.8-0.4,19.7,0.7,29.5
		c1.7,13.6,1.3,27.1,0.7,40.8c-0.8,17.1-2.1,34.4-0.7,51.5c1.9,23.2,4.2,46.4,4.4,69.7c0,3.4,1,4.8,4.7,4.8
		c14.3-0.1,28.6,0,42.9,0.3c3.5,0.1,4.8-1,4.5-4.6c-0.9-11.4-1.7-22.7-2-34.1C122.3,155.9,124.7,133.6,123.7,111.4z M127,172.4
		c-0.9,11.3,2,26.1,2.2,41.1c0,2.8,1.6,3.3,4.1,3.2c13.6-0.8,27.1-2.3,40.8-1.9c2.8,0.1,4.1-1.3,3.7-4.2c-0.5-4.9-0.9-9.8-1.5-14.7
		c-1.4-12.4-2.8-24.8-1.8-37.2c0.9-11.9,2.1-23.8,1.7-35.7c-0.7-20.3,0.6-40.5,0.5-60.7c-0.1-13.1,0.3-26.2,0.1-39.3
		c-0.1-4.9-2.1-6.8-7-7.2c-14.1-1.2-28.2,0.2-42.3,0c-3.6-0.1-4.2,2-4,5c0.7,10,1.2,20.1,2,30.1C128.3,90.1,127.7,129.4,127,172.4z"
		/>
	<path d="M115.8,136.1c-0.1,1.8,0,3.8-2.1,3.6c-2.8-0.3-3-2.9-3-5.1c0-1.6,0.1-4.1,2.2-3.9C116.1,131,115.1,134.3,115.8,136.1z"/>
	<path d="M133,134.9c0.1-1.2,0.1-2.4,0.3-3.6c0.3-1.9-0.3-4.8,2.8-4.4c2.6,0.3,2.4,3,2.3,5c-0.1,2-0.3,4.1-0.7,6.1
		c-0.3,1.5-0.3,3.9-2.7,3.6c-2.3-0.3-1.8-2.5-2-4.1C132.9,136.6,133,135.8,133,134.9z"/>
</g>
</svg>
