<?xml version="1.0" encoding="utf-8"?>
<!-- Generator: Adobe Illustrator 18.1.1, SVG Export Plug-In . SVG Version: 6.00 Build 0)  -->
<svg version="1.1" id="Ebene_1" xmlns="http://www.w3.org/2000/svg" xmlns:xlink="http://www.w3.org/1999/xlink" x="0px" y="0px"
	 width="250px" height="250px" viewBox="0 0 250 250" style="enable-background:new 0 0 250 250;" xml:space="preserve">
<g>
	<path d="M102.7,83.6c2.7-4.1,5.4-8.2,8.8-11.8c0.8-0.1,1.2,0.4,1.5,1c5.3,10.6,14.1,18.4,22.2,26.7c2.2,2.2,5.4,3.9,8.5,5.3
		c4.5,2.1,8.6,4.8,12.7,7.8l-0.3,0.2l0.2-0.1c4.5,0.8,8.5,3,11.7,5.8c3.3,2.9,7.2,4.1,11.1,5c9.2,2.2,18.3,4.5,27.5,6.7
		c12.5,3,23.7,8.1,33.9,15.6c5.7,4.2,6.9,7.5,2.8,13.1c-4,5.4-8.9,10-15.6,12.5c-6.7,2.5-13.5,2.5-20.4,3c-11.7,0.9-23.4,1.7-35,2.9
		c-6.2,0.6-12.2-0.1-18.4-0.1c-5.8,0-11.6-1.2-17.4-1.3c-6.7-0.1-13.1-2-19.6-2.9c-3.4-0.5-6.9-1-10.3-1.8c-5.2-1.2-9.6-3.8-12-8.8
		c-0.8-1.6-1.6-3.2-2.4-4.8c-1.6,0.3-2.5,1.4-3.3,2.3c-9.7,10.5-22.1,12.6-35.5,11.2c-8.5-0.9-17.1-2.1-25.7-2.6
		c-7.4-0.4-13.8-2.9-19.8-6.8c-4.1-2.7-5.4-9.8-2.6-16c2.5-5.5,3.9-11.3,5.7-16.9c2.9-9,4-18.4,6-27.6c1.4-6.6,3.8-12.9,7.2-18.9
		c3.5,1.2,5.1,4.1,7.8,5.6c7.8,4.4,16,6.4,25,6.8c9.2,0.4,17.8-0.5,26.7-3.6c5.9-2,11.4-4.3,16.9-7.2c0.7-0.4,1.5-0.7,2.4-0.2
		c0.3-0.2,0.4,0,0.2,0.1C102.3,84,103.2,83.9,102.7,83.6z M26.1,90.6c-4.3,4.4-5.6,10.2-6.6,15.9c-1.4,7.5-2.8,15-4.9,22.3
		c-1.8,6.1-4.4,12-6.1,18.2c-1,3.4-1.7,7.4,1.2,10.4c2.8,2.9,6.3,5.1,10.3,5.6c6.4,0.9,12.6,2.4,19.2,2.5c4.1,0.1,8.3,0.3,12.3,1.2
		c6,1.2,11.9,0.8,17.7-0.1c8.8-1.4,15.7-6,21-13.1c1-1.4,1.7-3.4,4.1-2.7c1.8,1.5,1.7,3.9,2.6,5.8c2,4,4.4,7.3,9,9.2
		c6.2,2.6,12.9,3.1,19.2,4.1c8.3,1.3,16.8,2.3,25.3,2.3c8.4,0.1,17,1.4,25.2,0.3c13-1.7,26.2-1.1,39.1-3.8c6.4,2.1,11.8-1.4,17-3.7
		c4.3-2,8.2-5.4,9.6-10.7c-9.5-9.3-20.8-14.8-33-18.9c-3.2-1.1-6.7-1.1-9.9-2.3c-5.7-2.1-11.6-3.6-17.6-4.9
		c-6.8-1.5-13.7-2.8-19.4-7.7c-5.4,6.1-11.5,11.1-16.2,17.5c-1.6,2.1-3.2,3.8-6.5,2.9c5.1-8.5,12.8-14.6,18.8-22.2
		c-4.2-2.2-8.2-4.3-12.1-6.3c-1.9,1.5-3.4,3.1-4.3,5c-2.4,5.4-7.2,9-10.8,13.4c-1.1,1.3-2.2,3.1-4.7,1.6
		c4.1-8.6,12.1-14.1,16.6-22.5c-3.5-2.6-7.7-3.7-11-6.7c-3.5,3.8-6.6,7.8-10.3,11c-3.5,3-5.4,8.2-11,8.9
		c3.7-9.4,13.7-13.9,17.7-23.1c-5.7-6.6-11.1-13.6-17.8-19.7c-0.9,1-1.7,2.3-2.7,3.2C98.1,92.2,86.7,96.4,75,99.2
		c-6.6,1.6-13.7,1.4-20.8,1c-10.5-0.6-19.7-3.9-28.3-9.7c0.5-0.2,0.5-0.3,0.1-0.3C26.1,90.2,26.1,90.5,26.1,90.6z"/>
</g>
</svg>
