<?xml version="1.0" standalone="no"?>
<!DOCTYPE svg PUBLIC "-//W3C//DTD SVG 20010904//EN"
 "http://www.w3.org/TR/2001/REC-SVG-20010904/DTD/svg10.dtd">
<svg version="1.0" xmlns="http://www.w3.org/2000/svg"
 viewBox="0 0 130.000000 130.000000"
 preserveAspectRatio="xMidYMid meet">
<metadata>
Created by potrace 1.12, written by Peter Selinger 2001-2015
</metadata>
<g transform="translate(0.000000,130.000000) scale(0.100000,-0.100000)"
fill="#000000" stroke="none">
<path d="M552 873 c-11 -15 -29 -47 -41 -71 -16 -31 -33 -48 -66 -63 -39 -19
-50 -19 -102 -9 -32 6 -80 20 -106 31 -27 11 -51 18 -53 16 -8 -7 -6 -250 1
-280 7 -26 11 -28 39 -22 39 8 554 19 749 16 136 -2 150 -1 182 19 42 26 44
48 13 110 l-23 45 -100 6 c-55 3 -120 14 -145 23 -25 10 -61 22 -80 27 -97 28
-183 88 -214 150 -16 33 -31 33 -54 2z m150 -124 c22 -11 92 -38 156 -60 94
-33 130 -40 200 -42 l85 -2 13 -35 c32 -88 7 -101 -188 -98 -130 2 -526 -7
-690 -16 l-67 -4 -5 77 c-13 167 -13 173 -1 178 7 2 26 -2 42 -10 15 -8 55
-20 88 -27 54 -10 65 -9 106 9 51 23 64 36 103 105 l28 48 45 -51 c25 -29 63
-61 85 -72z"/>
</g>
</svg>
