<?xml version="1.0" encoding="utf-8"?>
<!-- Generator: Adobe Illustrator 18.1.1, SVG Export Plug-In . SVG Version: 6.00 Build 0)  -->
<svg version="1.1" id="Ebene_1" xmlns="http://www.w3.org/2000/svg" xmlns:xlink="http://www.w3.org/1999/xlink" x="0px" y="0px"
	 width="250px" height="250px" viewBox="0 0 250 250" style="enable-background:new 0 0 250 250;" xml:space="preserve">
<g>
	<path d="M59.2,143.2c-6.3-1.7-12.9-1.4-19-3.6c-6.1-2.2-10.7-5.8-13.3-11.8c-5.8-13.3,3-21.8,16.2-26.3c7.2-2.5,14.9-1.8,22.5-0.7
		c18.2,2.6,36.1,6.5,54.5,7.6c21.2,1.4,36.6-8.5,48.4-25.1c4.1-5.7,6.6-12.3,9.8-18.5c7-13.8,14.5-27.8,30.4-33.5
		c10.8-3.9,21.3-3.8,31.3,3.6c12.9,9.6,13.7,25.1,1.1,35.1c-3.4,2.7-7.1,4.9-10.8,7.1c-13.8,7.9-24.8,18.9-34.3,31.6
		c-6.9,9.2-14.3,18.1-24.1,24.5c-2.3,1.5-2.7,2.6-0.8,5c9.6,11.9,18.8,24.1,28.9,35.6c2.4,2.7,4.7,5.4,7,8.2c0.9,1,2.5,2.3,0.8,3.6
		c-1.3,1-2.3-0.5-3.1-1.4c-5.2-5.8-10.7-11.2-15.3-17.5c-7.4-10-16.1-18.9-23.7-29.4c-1.8,9-1.7,17.9-2.5,26.7
		c-0.3,3.2-0.9,6.4-1.5,9.6c-0.2,1.2-0.7,2.7-2.4,2.1c-1.2-0.4-1-1.8-0.8-2.8c2.1-9,1.8-18.3,2.7-27.4c0.6-5.4,0-6-4.5-3.6
		c-6.1,3.3-12.2,2.1-17.8-0.1c-16.4-6.5-32.8-5.2-49.4-1.4c-2.5,0.6-4.2,1.9-5.4,4c-9.4,16.4-18.8,32.7-27.6,49.3
		c-4.7,8.9-10.8,17-16.2,25.5c-1.1,1.8-2.8,2.5-4.6,1.3c-2-1.3-0.7-2.9,0.3-4.2c12.8-17.1,21.6-36.6,32.9-54.6
		c3.2-5.2,5.9-10.7,9-16c1.4-2.5,0.9-3.2-1.8-3.1c-7.2,0.3-13.9,0.6-19.6,6.6c-6.9,7.4-16.1,12.2-24.4,17.8
		c-7.9,5.4-14.7,12.1-23.1,16.8c-0.9,0.5-1.7,1.5-2.6,1.9c-2,0.8-4.9,3.4-6.1,1c-1.3-2.6,2.7-2.4,4.3-3.5c4.1-2.9,8.6-5.4,12.5-8.5
		c12.6-10.3,27.2-17.7,39.5-28.3C57.6,145.7,59,145.1,59.2,143.2z M55.1,102.6c-4.1,0.5-7.3,0.7-10.5,1.3c-9,1.7-15.6,8.5-15.9,16
		c-0.3,7.8,5.5,14.9,14.5,17.1c15.4,3.6,30.9,3.9,46.4,0c9.9-2.5,20-4.6,30.4-3.4c6.7,0.8,13,3.1,19.3,5c8.7,2.5,16.3,0.8,24.1-3.8
		c13.9-8.3,23.6-20.4,33.3-32.7c6.7-8.5,14-16.4,23.1-22.5c5.6-3.7,11.3-7.2,16.5-11.2c8.3-6.3,10.9-14.1,8.1-22.2
		c-2.8-8-11.4-13.9-20.7-13.8c-12.1,0.1-21.4,5.3-29.3,14.7c-9.5,11.2-14,25-21.6,37.2c-7.7,12.3-17.9,21.4-32.1,25.6
		c-13.5,4-26.8,1.7-40.1-0.3C85.4,107.2,69.9,104.9,55.1,102.6z"/>
</g>
</svg>
