<?xml version="1.0" encoding="utf-8"?>
<!-- Generator: Adobe Illustrator 18.1.1, SVG Export Plug-In . SVG Version: 6.00 Build 0)  -->
<svg version="1.1" id="Ebene_1" xmlns="http://www.w3.org/2000/svg" xmlns:xlink="http://www.w3.org/1999/xlink" x="0px" y="0px"
	 width="250px" height="250px" viewBox="0 0 250 250" style="enable-background:new 0 0 250 250;" xml:space="preserve">
<g>
	<path d="M81.3,91.1c0.3-2.9,2.7-3,4.7-3c14.4-0.5,28.7-1,43.1-1.2c4.6,0,9.1,1.2,9.9,7.2c0.5,3.7,3.5,3.3,6.1,3.2
		c14.5-0.3,29.1-0.9,43.6-1.1c12.1-0.2,24.3,0,36.4,0.1c2.5,0,5.3-0.2,7,2.5c1.1,1.8,2,0.5,2.8-0.3c1.7-1.7,3.2-3.7,5.5-4.7
		c5-2.3,10.6,1,9.5,6.1c-3.3,15.2-4.5,30.9-8.7,45.9c-1.8,6.3-5.5,11.5-9.5,16.5c-3.5,4.3-8.3,5.9-13.3,6.2c-4,0.2-4,1.9-3.4,4.9
		c0.6,2.5,1,5.1,2,7.5c0.5,1.3,2.7,3.4-0.4,4c-2.4,0.5-5.8,2.2-6.9-1.9c-0.8-2.8-1-5.8-1.5-8.7c-0.7-4.2-2.7-6-7.4-6
		c-19.4,0-38.8-0.8-58.2-0.5c-29.8,0.3-59.6,0-89.3,1.6c-4.1,0.2-8.2,1.4-12.4,0.8c-1.9-0.3-2.8,0.7-3.4,2.4
		c-1.3,3.8-2.7,7.5-3,11.5c-0.4,5.5-4.5,4.3-7.7,3.8c-4-0.6-2.1-3.5-1.7-5.7c0.2-1,0.5-2,0.8-3c1.8-5.5,3.2-10.5-5-12.2
		c-2.5-0.5-4.6-3.2-5.3-6.1c-4.4-18-11.1-35.3-14.9-53.5c-0.4-1.7-0.5-3.4-0.6-5.2c-0.1-1.5,0.8-2.6,2.2-1.9c5.7,3,13.3-1,17.8,5.7
		c2.8-3.5,1.2-9,6.1-10.1c2.1-0.5,4.5,0.2,5.8,3.5c-6.9-1.8-7.2,2.6-7.8,7c-1.4,10.6,2.7,20.5,3.7,30.8c0.3,3.5,4.4,3.4,7.3,3.5
		c10.9,0.2,21.9,0.2,32.8,0.3c19.9,0.2,39.9,0.8,59.8,0.5c21.8-0.3,43.6-1.2,65.5-1.9c8-0.3,15.9-0.9,23.9-0.9c4,0,5.5-1.8,6.2-5.3
		c1.9-9.2,3.8-18.3,6-27.4c1.1-4.4-0.2-6.1-4.6-6.1c-20.1-0.1-40.2-1.3-60.3-0.2c-6.7,0.4-13.5,0.5-20.3,0.6c-2.9,0-4.3,1-4.6,4.2
		c-0.5,6.4-1.5,12.7-2.2,19.1c-0.5,4.2-2.3,6.7-7,6.4c-13.2-0.7-26.3,0.2-39.4,1.5c-1.6,0.2-3.5,0-4.2-1.4c-1.9-3.7-4.8-2.7-7.6-1.9
		c-7.5,2-15,4.1-22.6,6.1c-2.5,0.7-5.1,1.1-7.7,1.4c-3.8,0.4-6.6-1.2-7.3-5.1c-1.9-10.2-4.6-20.2-8-30.1c-2-5.9,1-10,7.1-11.4
		c6.6-1.5,13.3-2.5,20-3.6c3.3-0.6,5.2-1.7,4.8-5.7c-0.4-4.3,0.5-8.6,0.7-12.9c0.2-3.1,2-4.3,4.7-4.4c17.5-0.5,35-1,52.5,0.4
		c3.7,0.3,4.8,1.9,3.8,5.5c-1.4,5.2-3.1,10.1-6.6,15.5c-1.3-3.9,0.6-6.4,1.5-8.9c3.4-9.3,3.5-9.3-6.1-9.7c-13.3-0.5-26.7-0.6-40-0.3
		c-4.7,0.1-7.8,1-7.1,6.6c0.2,1.3-0.3,2.7-0.5,4.1c-1,7.6-1,7.7,6.7,7.8c1.9,0,2.9,0.6,3.2,2.5C78.5,88.1,79.7,89.7,81.3,91.1
		c4.2,8.1,7.9,16.5,11.1,25.1c1.8,4.9,2.9,9.1-3.5,10.9c0.4,1.3,1.2,1.3,1.8,1.2c13.4-1.4,26.9-2.3,40.4-1.5c2.4,0.1,2.8-1.2,3-3.2
		c0.7-6,1.8-12,2.2-18c1.1-15.4,0-16.5-15.3-15.3C107.8,91.3,94.5,89.7,81.3,91.1z M142.1,165.1c0-0.2,0-0.3,0-0.5
		c4.9,0,9.7-0.1,14.6,0c19.4,0.3,38.8,0.5,58.2,0.9c5.8,0.1,10.3-2.2,14.3-6.3c7.7-7.8,10.7-17.7,12.3-28.1
		c1.6-9.9,2.9-19.9,4.4-29.8c0.2-1.4,1.7-3.2,0-4.3c-1.8-1.2-3.8-0.1-5.1,1.3c-5,5.4-10.2,10.5-11.1,18.6c-0.9,7.3-3,14.5-4.5,21.8
		c-1.2,6-4.7,9.4-10.9,10c-8.9,0.9-17.6,2.4-26.8,2.1c-36.5-1.1-73.1-2.1-109.7-0.3c-13,0.6-26-1-38.9-2.3c-8-0.8-13.8-6-14.4-12.3
		c-0.7-7.3-2.2-14.4-3.4-21.6c-1.3-8.2-7.9-12.7-15.9-10.4c-1.7,0.5-1.6,1.7-1.4,2.9c0.8,4.4,0.9,9.2,2.8,13.2
		c5.7,12.1,7.5,25.2,11.6,37.7c1.6,5,4.1,7.7,9.1,8.5c3.3,0.5,6.5,0.9,9.8,0.7c11.1-0.7,22.1-1.8,33.2-1.9
		C94.2,164.9,118.1,165.1,142.1,165.1z M70.4,86.9c-1.4,0.1-2.8,0.1-4.1,0.4c-7.6,1.8-15.2,3.3-22.9,4.3c-7.4,1-9.2,4.2-6.5,11.3
		c3.1,8,5.7,16,6.7,24.4c0.5,4.2,2.5,5.5,6.7,4.6c12.5-2.7,24.6-6.7,37.4-8.2c3.7-0.4,3.5-3.4,2.5-6c-3.3-8.9-6.6-17.8-11.7-26
		C76.5,88.6,74.5,86.4,70.4,86.9z M219.5,143.4c-60.7,0.7-121.3,1.7-182,1.5c13.8,1,27.4,3.8,41.3,3.1c37.9-2,75.9-0.8,113.8-0.4
		C201.7,147.6,210.7,146.1,219.5,143.4z M33.4,170.8c-4,3.4-3.8,8.4-5.2,12.8c-0.1,0.3,0.3,1,0.6,1.2c0.8,0.4,1.4-0.2,1.6-0.8
		C31.6,179.6,32.2,175.2,33.4,170.8z"/>
</g>
</svg>
