<?xml version="1.0" encoding="utf-8"?>
<!-- Generator: Adobe Illustrator 18.1.1, SVG Export Plug-In . SVG Version: 6.00 Build 0)  -->
<svg version="1.1" id="Ebene_1" xmlns="http://www.w3.org/2000/svg" xmlns:xlink="http://www.w3.org/1999/xlink" x="0px" y="0px"
	 width="250px" height="250px" viewBox="-18 -60 250 250" enable-background="new -18 -60 250 250" xml:space="preserve">
<g>
	<path d="M39.5,171.2c-0.6,0.2-0.4,0.9-0.3,1.2l0,0.1c0.8,2.3,0.4,4.6,0,6.8l-0.1,0.5c-0.1,0.7-0.6,1.1-1.4,1.1
		c-1.8-0.1-3.3-0.4-4.7-0.8c-0.7-0.2-1.4-0.5-2.1-0.8c-0.8-0.3-1.6-0.7-2.4-0.9c-2.6-0.7-4.1-2.5-4.6-5.2c-0.1-0.3-0.1-0.5-0.2-0.8
		c0-0.1-0.1-0.2-0.1-0.3c-0.7-2.2-0.5-4.5,0.6-7.3c0.4-0.9,0.8-1.7,1.3-2.6c0.5-1,1.1-2,1.5-3.1c0.1-0.3,0.2-0.6,0.3-0.8
		c0.4-1.2,0.8-2.4,1.7-3.4c0.5-0.5,0.5-1.1,0.1-1.6c-0.1-0.1-0.1-0.2,0.2-0.5c1.2-1.2,1.9-2.6,2.2-4c0.2-0.9,0.6-1.2,1.5-1.2
		c2.9,0,6-0.2,8.9-1.3c1.6-0.6,2.3-1.5,2.5-3c0-0.1,0-0.2,0-0.3c0-0.3,0-0.6,0.2-0.9c1.3-1.7,1.4-3.8,1.3-5.2
		c-0.1-1.5,0.2-3,0.5-4.5c0.1-0.7,0.3-1.3,0.4-2c0.1-0.6,0.2-1.1,0.3-1.7c0.2-1.4,0.5-2.8,0.6-4.2c0-0.4,0-0.9,0-1.3
		c0-0.5,0-1.1,0.1-1.7c0-0.2,0.1-0.5,0.1-0.7c0.1-0.7,0.2-1.5,0.1-2.2c-0.4-2.6-2.2-4.2-3.9-5.7c0,0-0.1-0.1-0.1-0.1
		c-0.2-0.2-0.4-0.4-0.7-0.4c-0.1,0-0.2,0-0.3,0.1c-0.4,0.2-0.8,0.3-1.2,0.3c-0.7,0.2-1.5,0.3-2,0.9c-1,1-2.2,1.9-3.3,2.8
		c-0.9,0.7-1.9,1.5-2.8,2.3c-0.3,0.3-0.7,0.7-0.8,1.3c-0.1,0.4,0.1,0.8,0.4,1c0.2,0.1,0.7,0.2,1,0c0.1-0.1,0.2-0.2,0.4-0.3
		c0.3-0.2,0.7-0.5,0.9-0.8c2.2-2.8,5.1-4.5,7.4-5.7l0.1,0c0.1-0.1,0.3-0.2,0.4-0.2c0,0,0.1,0,0.2,0.1c0.2,0.2,0.4,0.4,0.5,0.6
		c0.9,0.9,1.8,1.8,2,3.2c0.2,1.2,0.1,2.5,0,3.7c-0.1,0.9-0.2,1.7-0.2,2.6c0.1,1.7-0.3,3.3-0.6,4.9c-0.3,1.2-0.5,2.4-0.6,3.6
		l-0.1,0.9c-0.2,2.8-0.5,5.7-1.7,8.4c-0.1,0.3-0.2,0.6-0.3,0.8c-0.2,0.7-0.5,1.4-1.1,1.7c-1.7,0.9-3.2,1.6-5,1.6l-0.2,0
		c-0.5,0-0.9,0-1.4-0.1c-0.5,0-0.9-0.1-1.4-0.1c-0.5,0-1,0-1.5,0.2c-0.3,0.1-0.4-0.2-0.6-0.5c-0.5-0.9-1-1.8-1.6-2.6
		c-0.3-0.5-0.2-0.7,0-0.8c1.7-1.4,3.1-3,4.3-5l0.1-0.2c1-1.7,2.1-3.4,1.5-5.7c-0.9-3.3-2.6-6.1-5-8.5c-1.1-1.1-2-2.5-2.8-3.7
		c-0.3-0.5-0.6-1-1-1.5c-1.8-2.6-3.7-4.5-5.9-5.9c-0.8-0.5-1.7-0.8-2.6-0.8c-0.9,0-1.8,0.3-2.5,1c-2.2,2-3.6,4.1-4.2,6.4
		c-0.1,0.3-0.2,0.6-0.3,1c-0.4,1.1-0.8,2.2-0.3,3.5c0,0,0,0.1,0,0.1c0,0.1-0.2,0.2-0.3,0.2c-0.5,0.1-1,0.3-1.4,0.5
		c-0.4,0.2-0.8,0.3-1.2,0.4c-1.7,0.3-3.2,0.9-4.5,1.5c-1,0.5-2.1,1-3.1,1.5c-0.6,0.3-1.3,0.6-2,0.9c-1.7,0.8-3.1,1.6-4.4,2.5
		c-1.1,0.8-1.5,1.7-1.4,2.8c0.2,2.1,1,3.9,2.4,5.3c0.7,0.7,1.3,1.6,1.9,2.4c0.2,0.2,0.3,0.5,0.5,0.7c0.6,0.9,0.4,1.4-0.2,2.2
		c-0.9,1.1-1.8,2.1-2.5,3.4c-0.2,0.4-0.3,0.8-0.4,1.2c-0.1,0.5-0.3,1-0.5,1.4c-0.6,0.8-1.2,1.8-1.4,2.8c-0.2,1.1-0.5,2-0.9,3
		c-0.8,1.8-0.7,2.1,1.1,3.1c1.6,0.8,3.2,0.9,4.9,1c0.8,0,1.6,0.1,2.3,0.2c0.3,0.1,0.7,0.1,1.1,0.1c1.1,0,2.3-0.2,3.4-0.5
		c0.8-0.2,1.6-0.4,2.4-0.4c0.1,0,0.1,0,0.2,0c0.1,0,0.3,0,0.3,0c0,0,0,0.1-0.1,0.3c-0.9,1.3-0.7,2.9-0.4,4.2c0.3,1.1,0,1.9-1,2.7
		c-1.9,1.6-3.6,3.3-5.3,5.1c-1.5,1.6-3.1,3.2-4.8,4.6c-3.7,3.2-8.1,7.1-12.4,11c-0.1,0.1-0.2,0.2-0.3,0.3c-0.4,0.4-0.8,0.7-1.3,0.9
		l-0.1,0v2.6l0.2,0c0.1,0,0.1,0,0.2,0c1.2,0,1.9-0.9,2.5-1.6l0.1-0.1c1-1.3,2.2-2.3,3.4-3.3c1-0.8,2-1.6,2.9-2.6
		c0.6-0.7,1.3-1.2,2.1-1.7c0.8-0.6,1.7-1.2,2.3-2c1.2-1.4,2.6-2.7,4.4-4.1c0.3-0.2,0.6-0.4,0.9-0.6c0.8-0.6,1.7-1.2,2.3-2
		c0.6-0.8,1.4-1.5,2.1-2.1c0.7-0.6,1.3-1.2,1.9-1.9c0.3-0.4,0.5-0.3,0.5,0.1c0.1,1.2,0.3,2.3,0.5,3.4c0.1,0.4,0.2,0.8,0.2,1.2
		c0.4,2,0.8,3.9,1.8,5.7c0.6,1.1,1.4,1.6,2.4,1.7c3.4,0.3,6.6-0.5,9.4-2.3c0.1,0,0.2-0.1,0.2-0.1c0.3-0.1,0.5-0.3,0.6-0.5
		c0.1-0.2,0-0.3-0.1-0.5c-0.1-0.3-0.3-0.4-0.6-0.4c-0.2,0-0.4,0.1-0.7,0.2c-0.1,0-0.2,0.1-0.3,0.1c-0.1,0-0.2,0.1-0.3,0.1
		c0,0-0.1,0.1-0.1,0.1c-2.1,0.9-4.3,1.8-6.8,2.3c-0.9,0.2-1.7-0.2-2-0.9c-0.7-1.4-1.4-2.9-1.6-4.5c-0.5-2.4-0.8-4.5-0.7-6.6
		c0-1.2-0.1-2.3-0.3-3.3c-0.2-0.8-0.2-1.7-0.2-2.5l0-0.5c0-2.2,2-4.2,4-4.8c1.1-0.3,2.2-0.7,3.3-1.1c0.9-0.3,1.8-0.6,2.7-0.9
		c1.6-0.5,3.2-1,4.8-1c0.8,0,1.5,0.1,2.3,0.3c0.5,0.1,0.7,0.3,0.8,0.5c0.1,0.2,0,0.4-0.1,0.8c-0.4,0.9-0.8,1.8-1.3,2.7
		c-0.8,1.9-1.7,3.8-2.7,5.6c-1,1.8-1.5,3.8-1.4,6.5c0,1.7,0.6,3.2,1.1,4.8l0,0.1c0.7,2.1,2.2,3.2,3.7,4.1c1.1,0.7,2.3,1,3.5,1.4
		c0.8,0.2,1.6,0.5,2.4,0.8c1.9,0.8,4.1,1.3,6.9,1.6c0.7,0.1,1.1-0.1,1.5-0.6c0.6-0.7,0.7-1.5,0.8-2.3c0.1-0.4,0.1-0.8,0.3-1.2
		c0.8-2.2,0.2-4.1-0.6-6.1C40.5,171.3,40.1,171,39.5,171.2z M25.4,151.7c0.4-0.1,0.9-0.2,1.3-0.7l0.1-0.2l-0.2-0.1
		c-0.5-0.2-0.9-0.2-1.4-0.2c-0.4,0-0.9,0-1.3-0.2c-2.3-0.9-3.4-2.8-3-5.1c0.4-2,2.2-3.6,4.3-3.6c0.8,0,1.5,0.2,2.1,0.6
		c1.2,0.7,2.6,3.7,2.3,5c-0.3,1.5-0.6,2.7-1.2,3.7c-0.4,0.8-1.3,1.3-2.3,1.3c-0.5,0-0.9-0.1-1.2-0.4
		C25.2,151.8,25.3,151.7,25.4,151.7z M1.5,142.6c0.1,0,0.1,0,0.1,0c0.9,0.2,1.9,0.3,2.8,0.5c1.9,0.3,3.9,0.6,5.8,1.2
		c2.6,0.9,5,2,7.2,3.1c0,0,0.1,0.1,0.2,0.1c0.2,0.1,0.4,0.2,0.6,0.2c0.1,0,0.3-0.1,0.5-0.3c0.1-0.1,0.1-0.3,0.1-0.4
		c-0.1-0.3-0.3-0.4-0.6-0.5c-0.1,0-0.1,0-0.1-0.1c-2.4-1.4-5-2.3-7.5-3.2l-0.9-0.3c-1.3-0.5-2.6-0.7-4-0.9c-1.2-0.2-2.5-0.4-3.7-0.8
		c-0.3-0.1-0.7,0-1.1,0c-0.3,0.1-0.6,0.1-0.9,0.1c-0.4-0.1-0.7-0.2-0.7-0.5c-0.4-1.7-1.5-2.9-2.5-4.2c-0.2-0.3-0.5-0.6-0.7-0.9
		c-0.8-1-1.2-2.2-1.3-3.9c-0.1-0.5,0.1-0.7,0.3-0.8c0.7-0.3,1.3-0.8,1.9-1.2c1.1-0.8,2.2-1.5,3.6-1.7c0.7-0.1,1.4-0.5,2.1-1
		c0.4-0.2,0.7-0.5,1.1-0.7c1.6-0.8,3.3-1.3,5.1-1.5c0.3-0.1,0.6-0.1,0.8-0.3c0.6-0.4,1.2-0.5,1.9-0.5c1.1,0,2.1,0.5,3,0.9
		c2.9,1.5,4.9,3.2,6.4,5.2c0.4,0.6,1,1.2,1.5,1.7c0.8,0.8,1.6,1.7,2.1,2.7c0.7,1.4,0.9,2.8,1.1,4.3l0,0.3c0,0.1,0,0.2,0,0.3
		c-0.1,0.1-0.3,0.1-0.5,0.1l-0.1,0c-2.2,0.2-3.8,1-5,2.4c-1.2,1.3-1.5,3-0.9,5c0.4,1.6,1.3,2.8,2.6,3.4c0.3,0.1,0.4,0.2,0.4,0.4
		c0,0.2-0.2,0.3-0.5,0.3c-2.9,0.7-5.8,1.7-8.6,2.8l-0.9,0.4c-1.4,0.5-2.9,1.1-4,2.4c-0.2,0.3-0.4,0.4-0.7,0.4
		c-0.5-0.1-1-0.2-1.6-0.2c-1.1,0-2.1,0.2-3.1,0.5c-0.5,0.1-1.1,0.2-1.6,0.3c-2.1,0.3-4.4,0.1-7.4-0.7c-0.2-0.1-0.3-0.1-0.4-0.3
		c-0.1-0.2-0.1-0.5,0-0.8c0.1-0.3,0.2-0.7,0.3-1c0.5-1.4,0.9-2.9,1.6-4.3c0.2-0.4,0.3-0.8,0.5-1.2c0.2-0.5,0.4-1.1,0.7-1.6
		c0.7-1.4,1.7-2.5,2.7-3.7c0.4-0.4,0.8-0.9,1.1-1.4C0.5,142.7,0.9,142.6,1.5,142.6z M29.2,140.3c-0.3,0.3-0.6,0.6-1,0.7
		c-0.2-0.6-0.3-1.3-0.4-1.9c-0.3-1.8-0.7-3.7-1.9-5.2c-0.5-0.7-1-1.4-1.5-2c-1.4-2-2.9-4-5-5.3c-0.3-0.2-0.7-0.4-1-0.7
		c-1.5-1-3-2.1-5-2.1c-0.2,0-0.4-0.1-0.6-0.2c-0.1-0.1-0.2-0.1-0.3-0.1c-0.1,0-0.1-0.1-0.2-0.1c0,0,0,0,0,0c0.9-0.5,1-1.4,1.1-2.2
		c0-0.2,0-0.5,0.1-0.7c0.1-0.3,0.1-0.6,0.2-0.9c0.1-0.7,0.2-1.3,0.5-1.9c0.8-1.5,1.9-3.3,3.4-4.7c0.4-0.4,1-0.6,1.7-0.6
		c0.7,0,1.3,0.2,1.8,0.7c1.3,1.1,2.4,2.4,3.4,3.8l0.1,0.1c0.9,1.1,1.7,2.3,2.5,3.4c1.4,2,2.9,4.1,4.6,5.9c1.8,2,2.6,4.5,2.5,7
		c-0.1,1.2-0.6,2.4-1.6,3.3c-0.5,0.5-1,1.1-1.4,1.7c-0.5,0.7-1.1,1.4-1.8,2L29.2,140.3z"/>
	<path d="M223.3,104.4c-0.3-0.5-0.7-1-1.1-1.4c-0.5-0.5-1-1.1-1.2-1.8c-0.1-0.2-0.3-0.4-0.5-0.4c-0.5-0.1-0.7-0.4-0.9-0.9l-0.1-0.2
		c-0.8-1.5-2.2-2.2-3.6-2.6c-0.7-0.2-1.4-0.4-2.1-0.6c-0.7-0.2-1.4-0.4-2.1-0.6c-0.4-0.1-0.7-0.3-1.1-0.4c-1.2-0.4-2.4-0.9-3.7-1.2
		c-0.6-0.1-1.3-0.1-2-0.1c-0.6,0-1.1,0.1-1.5,0c-0.7-0.1-1.6-0.1-2.4,0c-0.7,0.1-1.4,0.1-2,0.1c0,0-0.1,0-0.1,0
		c-0.3,0-0.5,0.2-0.5,0.4c0,0.4,0.3,0.5,0.5,0.6c1,0.4,1.9,0.5,2.8,0.3c1.1-0.1,2-0.2,2.9-0.2c1.4,0,2.7,0.2,3.9,0.6
		c0.6,0.2,1.2,0.4,1.8,0.7c1,0.4,2,0.8,3.1,1c2.1,0.5,3.6,1.4,4.7,2.9c0.5,0.6,1,1.2,1.5,1.7c0.4,0.4,0.8,0.9,1.2,1.4
		c1,1.3,1.4,2.4,1.2,3.5c-1,4.6-3.3,7.3-7.3,8.5c-1.7,0.5-3.4,0.8-5.3,0.8c-1.3,0-2.6-0.1-4.1-0.3c-0.7-0.1-1.5-0.3-2.2-0.5
		c-1-0.3-2-0.6-3-0.6c-1.7-0.1-3.9,0.6-4.7,2.2c-1.1,2.2-2.5,5.1-3.6,8.2l-0.2,0.6c-0.5,1.4-1,2.8-1.4,4.2c-0.2,0.6-0.4,1.2-0.6,1.8
		c-0.4,1-0.8,2-0.8,3.1c0,0.5-0.2,0.9-0.3,1.4c0,0.1-0.1,0.3-0.1,0.4c-0.3,0.9-0.6,1.7-1,2.5c-0.6,1.4-1.2,2.9-1.4,4.5
		c-0.2,1.7-0.7,3.4-1.2,4.9c-0.2,0.5-0.3,1-0.4,1.5c-0.5,1.6-0.9,3.3-1.2,5c-0.4,2-0.9,4.1-1.5,6.1c-0.4,1.3-0.8,2.6-1.1,3.9
		c-0.4,1.4-0.7,2.8-1.2,4.2c-0.2,0.4-0.3,0.9-0.5,1.3c-0.7,2.1-1.5,4.3-2.7,6.2c-2.1,3.3-4.6,6.4-9.2,6.8c-1.7,0.2-3-0.1-4.2-0.9
		l-0.1-0.1c-1.3-0.9-2.5-1.7-2.6-3.4c0-0.2-0.1-0.4-0.2-0.6c0-0.1-0.1-0.2-0.1-0.2c-0.1-0.2-0.2-0.4-0.3-0.6
		c-0.4-0.9-0.9-1.8-0.9-2.7c0-1,0-2-0.1-2.9c-0.1-1.4-0.2-2.9,0-4.3c0.1-0.4,0-0.8,0-1.2c0-0.4-0.1-0.8,0-1.1
		c0.2-0.7,0.3-1.5,0.4-2.2c0.1-1,0.3-2,0.6-2.9c0.2-0.8,0.3-1.5,0.4-2.3c0.1-0.7,0.2-1.4,0.4-2.1c0.1-0.5,0.4-1,0.6-1.5
		c0.4-0.7,0.7-1.5,0.7-2.4c0-0.8,0.2-1.5,0.5-2.2c0.1-0.4,0.3-0.8,0.4-1.3c0.1-0.7,0.3-1.3,0.4-2c0.2-0.9,0.4-1.8,0.6-2.7
		c0.1-0.7-0.1-1.2-0.8-1.5c-1.7-0.7-3.2-0.2-4.1,1.3c-0.4,0.7-0.8,1.3-1.2,2c-0.9,1.4-1.8,2.8-2.5,4.3c-0.4,0.8-0.9,1.6-1.4,2.4
		c-0.6,1-1.3,2.1-1.8,3.2c-0.4,0.9-0.9,1.8-1.4,2.7c-0.7,1.4-1.4,2.7-2,4.2c-0.5,1.3-1.2,2.5-2,3.6c-0.7,1.1-1.4,2.1-1.9,3.3
		c-0.8,1.9-2,3.6-3.6,4.9c-1,0.8-2.1,1.6-3.3,1.6c-0.2,0-0.3,0-0.5,0c-2.2-0.4-4-1.8-5.3-4.1c-1-1.7-1.6-3.7-2.2-6.2
		c-0.5-2-0.7-4.2-0.8-7.1c0-0.4,0.1-0.8,0.2-1.2c0.1-0.5,0.2-1,0.2-1.5c-0.2-1.4,0.1-2.7,0.3-3.9c0.1-0.3,0.1-0.7,0.2-1
		c0.4-2,0.9-4,1.5-5.9c0.5-1.7,1-3.5,1.3-5.3l0-0.2c0.2-0.8,0.3-1.7,0.7-2.4c0.5-1.1,0.9-2.3,1.2-3.4c0.4-1.2,0.7-2.4,1.3-3.6
		c0.4-0.9,0.7-1.8,0.9-2.7c0.2-0.8,0.4-1.7,0.8-2.5c0.3-0.6,0.6-1.3,0.8-1.9l0.2-0.5c0.5-1.1,0.8-2.3,1.2-3.4
		c0.3-0.8,0.5-1.6,0.8-2.4c0.5-1.3,0.9-2.7,1.2-4.1l0.2-0.7c0.3-1,0.6-2,1-2.8c1.2-2.8,2.3-5.5,2.3-8.5c0-0.8-0.2-1.4-0.6-1.9
		c-1.3-1.6-3.1-2.5-4.8-3.1c-0.9-0.4-1.8-0.7-2.7-1c-2.3-0.9-4.6-1.7-6.8-2.8c-2.2-1.1-3.6-2.8-4.2-5.1c-0.7-2.7,0.6-4.8,2.1-6.6
		c0.6-0.8,1.4-1.2,2.4-1.3c0.4,0,0.9-0.1,1.3-0.1c1.4-0.2,3-0.3,4.2-0.1l0.3,0.1c0.9,0.2,2,0.3,2.8,0.1c1-0.2,2.1-0.2,3.1-0.2
		c1,0,1.9,0,2.9-0.2c0.5-0.1,1-0.1,1.6-0.1c1.9,0,3.8,0.5,5.8,1.1c1,0.3,2.1,0.7,2.5,1.6c1.1,2.3,2.6,4.3,4.8,6.7
		c3.4,3.6,7.6,5,11.7,6c3.6,0.8,7.3,1,10.8,1.3c1,0.1,1.9,0.1,2.9,0.2c0.1,0,0.2,0,0.3,0c0.2,0,0.5,0,0.7,0c2.9-0.2,5.9-0.9,9.1-2
		c2.2-0.8,4.8-1.9,6.9-4.2c1-1.1,2.2-2.5,2.6-4c0.6-2.3,1-4.7,1.1-7.5c0-0.6-0.1-1.2-0.3-1.8c-0.1-0.6-0.3-1.2-0.2-1.8
		c0.3-2.7-1-4.7-2.2-6.7l-0.3-0.5c-0.3-0.4-0.6-0.6-1-0.4c-0.4,0.2-0.7,0.5-0.7,1c0,0.4,0.1,0.7,0.3,0.9l0.1,0.1
		c0.1,0.2,0.3,0.5,0.4,0.7c0.4,0.7,0.8,1.3,0.9,2.1c0.9,4.6,0.9,8.8-0.1,12.7c-0.8,3.1-2.9,5.7-5.9,7.3c-3.6,1.9-7.9,2.9-12.7,2.9
		l-0.2,0c-2.1,0-4.3-0.3-6.4-0.6c-1-0.1-2.1-0.3-3.1-0.4c-1-0.1-2-0.4-3-0.7c-0.8-0.3-1.6-0.5-2.5-0.7c-1.7-0.3-3.1-1.1-4.4-1.9
		c-2.1-1.4-4-3.3-6-6.1c-1.5-2.2-2.5-4.4-3-6.6c-0.7-3.3-0.4-6.6,0-9.4c0.4-2.6,1.9-4.3,3.4-6.1c0.2-0.2,0.3-0.4,0.5-0.6
		c0.7-0.8,1.5-1.4,2.3-1.9c0.5-0.4,1-0.7,1.5-1.1c0.1-0.1,0.3-0.2,0.5-0.2c0.4-0.1,0.9-0.3,0.8-0.9c-0.1-0.6-0.6-1.1-1-1.5l-0.1-0.1
		c-2.5-2.2-3.2-7.2-0.4-10.4l0.3-0.3c0.5-0.6,1-1.2,1.7-1.6c0.6-0.3,1.4-0.5,2.3-0.5c2.5,0,5.6,1.4,6.2,3.7c0.3,1,0.9,1.7,1.5,2.5
		c0.4,0.5,0.8,0.9,1.1,1.4c0.2,0.3,0.5,0.6,0.8,0.6c0.2,0,0.3-0.1,0.4-0.2c0.4-0.4,0.3-1,0-1.4c-0.1-0.1-0.1-0.1-0.2-0.2
		c0,0-0.1-0.1-0.1-0.1c-0.2-0.3-0.4-0.5-0.6-0.8c-0.4-0.4-0.7-0.8-0.9-1.3c-0.6-1.5-1.7-2.6-2.7-3.6c-1.3-1.2-3.2-2-5.1-2.1
		c-0.2,0-0.4,0-0.7,0c-1.9,0-3.4,0.7-4.4,2c-0.2,0.3-0.5,0.6-0.7,0.8c-1.3,1.5-2.5,2.9-2.4,5.2c0.1,2.2,0.3,4.7,2.3,6.7
		c0.4,0.4,0.7,0.7,0.7,0.9c0,0.2-0.4,0.4-0.8,0.7c-1.9,1.2-3.5,2.8-5.3,4.7c-2,2.1-2.7,4.6-3.3,7c-0.2,0.9-0.1,1.8-0.1,2.7
		c0,0.6,0.1,1.2,0,1.9c-0.1,1.2,0.1,2.4,0.3,3.5c0.1,0.5,0.2,1,0.2,1.5c0,0.1,0,0.2,0.1,0.2c0.1,0.1,0.1,0.2,0,0.2
		c0,0-0.1,0.1-0.1,0.1c-0.1,0-0.2-0.1-0.3-0.1c-1-0.6-2.2-0.8-3.3-1c-0.5-0.1-1.1-0.2-1.6-0.3c-0.8-0.2-1.7-0.3-2.6-0.3
		c-1,0-2,0.1-3,0.2c-0.9,0.1-1.8,0.2-2.7,0.2l-1,0c-0.9,0-1.9,0-2.8,0c-1.2,0-2.2,0-3.2-0.1c-0.5,0-1-0.1-1.4-0.1
		c-2,0-3.5,0.5-4.6,1.7c-2,2-3.7,3.9-3.3,6.9c0.2,1.7,0.8,4.1,2.8,5.6c2.3,1.7,4.9,2.7,7.5,3.7l0.7,0.3c0.6,0.2,1.1,0.5,1.7,0.7
		c1,0.4,2,0.9,3,1.1c1.1,0.3,1.8,1.1,2.6,1.9c0.2,0.2,0.4,0.4,0.6,0.6c0.3,0.3,0.4,0.7,0,1.1c-0.2,0.2-0.2,0.4-0.3,0.6
		c0,0.1,0,0.2-0.1,0.2c-0.3,0.7-0.4,1.5-0.6,2.3c-0.1,0.6-0.2,1.2-0.4,1.8l0,0.1c-0.7,2-1.4,4.1-2.3,6c-0.5,1-0.7,2.1-0.9,3.2
		c-0.2,1.1-0.4,2.2-0.9,3.2c-0.4,0.8-0.7,1.6-0.9,2.4c-0.2,0.7-0.5,1.4-0.8,2.1c-1.4,3.3-2.5,6.8-3.6,10.1c-0.2,0.6-0.4,1.1-0.5,1.7
		c-0.7,2.2-1.3,4.5-1.8,6.7c-0.2,1-0.5,1.9-0.7,2.9c-0.2,0.8-0.4,1.5-0.6,2.3c-0.7,2.6-1.5,5.2-1.6,8.1l0,0.8
		c-0.1,3.5-0.3,7,0.6,10.5c0.8,3.2,1.6,6.5,4.3,9.1c1.3,1.2,3,2,4.6,2.2c2.5,0.2,5.1-0.8,6.8-2.7l0.3-0.3c1.4-1.6,2.9-3.2,3.5-5.4
		c0.3-0.9,0.8-1.7,1.4-2.5c0.5-0.7,1.1-1.5,1.4-2.4c0.5-1.3,1.1-2.6,1.7-3.8c0.6-1.1,1.2-2.3,1.7-3.5c0.3-0.8,0.7-1.5,1.2-2.1
		c0.2-0.2,0.3-0.5,0.5-0.8c0.6-1,1.2-2,2.1-2.8c0.3-0.3,0.3-0.7,0.2-1c0-0.3-0.1-0.5,0.1-0.6c1.1-0.8,1.8-2,2.2-3.7
		c0.1-0.5,0.6-0.6,0.9-0.6l0.1,0c0,0,0.1,0,0.1,0c0.1,0.1,0,0.3,0,0.4c0,0.1,0,0.2,0,0.3c-0.1,1.1-0.4,2.2-0.7,3.3
		c-0.2,0.8-0.5,1.6-0.6,2.5c-0.2,1.1-0.5,2.1-0.8,3.2c-0.4,1.3-0.8,2.6-0.9,4c-0.1,0.7-0.2,1.3-0.3,2c-0.2,1-0.3,2-0.4,3
		c0,1.5-0.1,3-0.2,4.5l0,0.9c-0.2,4.5,0.3,8,1.7,11.3c1,2.4,3.1,3.6,5,4.5c0.2,0.1,0.4,0.1,0.6,0.1c0.1,0,0.2,0,0.2,0
		c0.3,0,0.7,0,1-0.1c2.1-0.1,4.2-0.2,6.2-1.5c0.4-0.2,0.8-0.4,1.2-0.6c1-0.4,2-0.8,2.3-2.2h0c1.1-0.5,1.7-1.4,2.2-2.3
		c0.2-0.4,0.5-0.7,0.7-1.1c0.5-0.7,0.7-1.5,0.9-2.2c0.2-0.7,0.3-1.3,0.7-1.9c1.6-2.4,2.5-4.9,2.7-7.4l0-0.2c0-0.7,0.1-1.6,0.4-2
		c0.7-1.1,0.9-2.3,1.1-3.5c0.1-0.7,0.3-1.5,0.6-2.2c0.6-1.6,0.9-3.2,1.3-4.8c0.5-2.2,1-4.5,2.1-6.6c0.1-0.1,0.1-0.3,0.1-0.4
		c0-0.1,0-0.1,0-0.2c0.4-2.5,1.3-4.9,2-7.3c0.2-0.7,0.5-1.4,0.7-2l0.2-0.6c0.6-1.7,1.1-3.6,1.6-5.4c0.7-2.6,1.5-5.4,3.2-7.7
		c0.7-0.9,1.1-2,1.4-3.1c0.2-0.5,0.4-1,0.6-1.5c0.4-0.8,1.7-1.9,2.6-1.9c0.1,0,0.2,0,0.3,0c2.3,0.6,4.7,1.1,7,1.6l0.2,0
		c1.7,0.3,3.3,0.3,5.1-0.2c1.1-0.3,2-0.5,2.8-0.7c1.8-0.4,3.9-1.1,4.8-3.4c0.2-0.5,0.6-0.9,1.3-1.4c1-0.7,2.1-3.4,1.8-4.5
		c-0.1-0.5-0.1-0.9,0.1-1.3C223.9,105.7,223.7,105.1,223.3,104.4z"/>
	<path d="M108.8,72.7c-0.6-0.3-1.2-0.6-1.8-0.9c-0.6-0.3-1.2-0.7-1.8-0.9c-1-0.4-2-1.1-2.7-1.6c-1.2-0.9-1.9-0.7-2.6,0.4
		c-0.7,1.1-1.2,2.3-1.7,3.5c-0.2,0.4-0.4,0.8-0.6,1.3c-0.2,0.5-0.1,1,0.1,1.4c0.7,1.5,0.3,2.7-1.1,3.7c-0.9,0.6-2,1-3.5,1.2
		c-0.1,0-0.2,0-0.4,0c-1.8,0-4.5-2.1-4.8-3.7c-0.4-2,1.4-4.9,3.2-5.3c1.3-0.3,2.3-0.6,2.6-2.3c0.1-0.5,0.4-1,0.7-1.6
		c0.2-0.3,0.4-0.7,0.6-1c0.3-0.6,0.3-1,0.2-1.3C95,65.2,94.5,65,94,64.9c-2.8-0.9-5.7-2-8.4-3.4c-1.3-0.7-2-0.6-2.9,0.4
		c-3,3.2-6.7,5.4-10.3,7.6L72,69.7c-1.2,0.7-1.3,1.5-1.1,2.5c0.1,0.5,0.3,1,0.5,1.3l0.2,0.5c0.7,1.5,1.4,3.1,2.1,4.7
		c0.2,0.4,0.2,0.6-0.2,0.9c-1.2,0.8-2.4,1.6-3.9,1.9c-0.9,0.2-1.6,0.7-2.3,1.1l-0.1,0.1c-0.9,0.6-1.1,1.4-0.7,2.3
		c0.6,1.4,1.3,2.7,2,4c0.3,0.6,0.8,1.2,1.7,1c1.7-0.4,2.9,0.2,4,2c0.7,1.1,0.8,1.9,0.3,2.8c-1.5,2.6-3,4.2-5,5.2
		c-1.7,0.8-3.1,0.7-4.6-0.2c-1.3-0.9-2-2.2-2.7-3.6c-0.7-1.6-0.1-3.9,1.4-4.7c0.4-0.2,0.6-0.4,0.7-0.7s0-0.6-0.2-0.9
		c-0.9-1.5-1.7-2.6-2.5-3.7c-0.4-0.5-0.7-0.7-1.2-0.7c-0.2,0-0.5,0.1-0.8,0.2c-1.4,0.6-2.7,1.4-3.9,2.2c-1,0.7-2.1,1.4-3.2,1.9
		c-0.3,0.1-0.5,0.3-0.8,0.5c-0.7,0.6-0.6,1.2-0.3,1.9c0.6,1.4,1.3,2.7,2,4c0.9,1.6,1.8,3.2,2.4,5l0.2,0.4c0.3,0.9,0.7,1.8,1,2.7
		c0.4,1,0.8,1.9,1.3,2.8c0.9,1.9,1.9,3.9,2.2,6.1c0.1,0.4,0.3,0.8,0.5,1.2l0.1,0.2c0.2,0.4,0.4,0.8,0.7,1.2c1.1,2.1,2.3,4.3,2.9,6.7
		c0.3,1.3,0.8,2.5,1.3,3.6c0.2,0.5,0.4,0.9,0.7,1.4c0.5,1,1.1,2.1,1.4,3.3c0.1,0.5,0.3,1,0.4,1.4c0.3,1.1,0.6,2.3,1.2,3.3l0.2,0.4
		c0.5,1,1.1,2,1.5,3.1l0.3,0.9c1.6,4.1,3.2,8.3,4.8,12.4c0.5,1.4,1.1,2.8,1.7,4.1c0.4,1,0.8,2,1.3,3c0.7,1.7,1.3,3.4,1.8,5.1
		c0.7,2.1,1.4,4.3,2.4,6.4c0.4,1,0.7,1.5,1.6,1.5c0.3,0,0.6-0.1,1.2-0.2c0.6-0.2,1.3-0.3,2-0.4c1.1-0.2,2.3-0.4,3.4-0.9
		c0.1-0.1,0.3,0,0.3,0c0.2,0.3,0.3,0.8,0.4,1.2c0.1,0.3,0.1,0.6,0.2,0.9c0,0.1-0.1,0.2-0.4,0.4c-0.1,0-0.1,0.1-0.2,0.1
		c-0.8,0.5-1.3,1.2-1.5,2c-0.4,2.1,0.2,4.5,1.8,6.3c1.4,1.7,3.3,2.7,5.3,2.7l0.5,0c0.6,0,1.3,0,1.9-0.3c2.9-1.3,4.6-3.3,5.2-6.1
		c0.3-1.6-0.1-3.4-1-4.8c-0.9-1.2-2.1-2-3.4-2.2c-0.8-0.1-1-0.3-1.1-1c0-0.3-0.1-0.6-0.2-0.9c0-0.1-0.1-0.3-0.1-0.4
		c-0.1-0.5,0.1-0.7,0.4-0.7c0.3-0.1,0.6-0.2,0.8-0.3c0.6-0.2,1.1-0.4,1.7-0.4c1.6-0.1,3-0.5,4.3-1c0.9-0.4,1.3-0.8,1.5-1.3
		c0.2-0.5,0-1.1-0.4-2c0,0,0-0.1-0.1-0.1c0,0,0,0,0-0.1c-0.5-1-0.9-2.1-1.3-3.1c-0.1-0.4-0.3-0.7-0.4-1.1c-0.7-1.8-1-3.8-1.4-5.7
		c-0.3-1.8-0.7-3.7-1.3-5.5c-1.3-3.6-2-7.1-2.3-10.5l0-0.6c-0.3-3.9-0.6-8-0.8-12c-0.1-1.7-0.1-3.4-0.1-5c0-1.4,0-2.9-0.1-4.3
		c-0.1-3.5,0.4-6.9,0.9-10.2c0.2-1.2,0.4-2.4,0.5-3.5c0.3-2.1,0.6-4.2,1-6.3c0.1-0.5,0.2-1.1,0.3-1.6c0.4-1.8,0.8-3.7,1.5-5.5
		c0.7-1.8,1.2-3.5,1.6-5c0.4-1.8,0.9-3.2,1.6-4.4c0.1-0.2,0.3-0.5,0.4-0.7c0.6-1,1.2-2.1,1.9-3.1c0.3-0.4,0.4-0.9,0.3-1.3
		C109.5,73.2,109.2,72.9,108.8,72.7z M99.3,101.4c-0.1,1.5-0.3,3.1-0.8,4.5c-0.5,1.3-0.5,2.8-0.6,4.2l-0.1,1.2
		c-0.1,2.7-0.3,5.5-0.2,8.3c0.1,3.4,0.3,6.7,0.4,9.2c0.1,1,0.1,2,0.1,2.9c0,1.2,0.1,2.5,0.2,3.8c0.1,0.9,0.3,1.9,0.4,2.8
		c0.1,0.7,0.3,1.4,0.4,2.1c0.3,2.3,1,4.5,1.6,6.7c0.3,1,0.6,1.9,0.9,2.9c0.4,1.6,0.7,3.2,1,4.8c0.1,0.7,0.2,1.4,0.4,2
		c0.3,1.8,0.9,3.6,1.7,5.4c0.6,1.2,0.7,1.9,0.5,2.3c-0.2,0.4-0.9,0.7-2.1,0.9c-0.6,0.1-1.2,0.2-1.8,0.3c-1.3,0.2-2.6,0.3-3.9,0.8
		c-0.6,0.2-1,0.3-1.1,0.7c-0.1,0.3,0.1,0.6,0.5,1.2c0.5,0.8,0.6,1.7,0.7,2.4c0,1,0.5,1.5,1.5,1.6c2,0.3,3.6,0.6,4.2,2.5
		c0.7,2.2,0.1,4.2-1.6,5.8c-1,1-2.3,2-3.9,2c-0.3,0-0.5,0-0.8-0.1c-0.7-0.1-1.2-0.3-1.6-0.6c-1.6-1.1-2.5-2.7-2.9-4.8
		c-0.2-1.2,0.5-2.2,1.8-2.7c1-0.4,0.9-1.1,0.7-1.7c-0.2-0.6-0.4-1.3-0.5-1.9c-0.1-0.4-0.2-0.7-0.3-1.1c-0.2-0.8-0.7-1.2-1.3-1.2
		c-0.2,0-0.5,0.1-0.8,0.2c-1.1,0.6-2.4,0.8-3.6,1c-0.8,0.1-1.5,0.3-2.3,0.5c-0.1,0-0.1,0-0.2,0c-0.1,0-0.3,0-0.5-0.4
		c-0.1-0.3-0.3-0.6-0.4-0.8c-0.2-0.5-0.5-1-0.7-1.5c-0.3-0.7-0.5-1.5-0.7-2.2c-1-2.9-2-6-3.3-8.9c-1.4-3.3-2.7-6.6-4-9.8
		c-0.3-0.7-0.5-1.3-0.8-2c-1.4-3.5-2.8-7.1-4.6-10.5c-0.4-0.9-0.7-1.8-1-2.8c-0.3-1-0.6-2.1-1.2-3.1c-1.1-2-1.9-4.1-2.7-6.2
		c-0.5-1.4-1-2.8-1.6-4.1c-0.5-1-1-1.9-1.5-2.8c-0.9-1.5-1.2-3.2-1.5-4.9l-0.1-0.6c-0.2-0.9-0.4-2-1-3c-0.7-1.1-1.1-2.1-1.4-3
		c-0.7-2.5-2-4.8-3.1-7c-0.5-0.9-1-1.8-1.4-2.7c-0.1-0.1-0.1-0.2-0.2-0.3c-0.1-0.2-0.2-0.4-0.3-0.6c-0.6-1.7-0.6-1.7,0.7-2.6
		l0.3-0.2c0.5-0.4,1.1-0.7,1.7-1.1c0.7-0.4,1.5-0.9,2.2-1.4c0.7-0.6,1.5-0.4,2,0.4l0.1,0.2c0.1,0.2,0.3,0.5,0.4,0.7
		c0.4,0.6,0.4,1.1,0,1.7c-2.3,3-2,5.8,1.2,9.2c1.6,1.7,3.6,2,5.6,2.1c1.2,0.1,2.5-0.4,3.4-1.1c2-1.6,3.8-3.1,4.7-5.6
		c0.6-1.7,0.4-3.6-0.6-5.1C74.5,88.9,73,88,71.3,88c-1,0-1.4-0.3-1.8-1.2l-0.1-0.2c-0.1-0.3-0.3-0.7-0.4-1c-0.5-1.7-0.4-1.8,1.3-2.4
		c1.3-0.4,2.6-1.1,3.8-1.8c0.4-0.2,0.8-0.4,1.2-0.6c0.8-0.4,1-1.3,0.6-2.3c-0.9-2-1.7-3.7-2.5-5.5c-0.6-1.4-0.5-1.8,0.8-2.4
		c0.5-0.2,1-0.6,1.4-1c0.3-0.2,0.5-0.5,0.8-0.6c2.5-1.6,4.9-3.5,7-5.2c0.7-0.6,1.1-0.8,2-0.3c1.6,0.9,3.3,1.5,5,2.1
		c0.5,0.2,1,0.4,1.5,0.6c0.4,0.2,0.7,0.3,0.7,0.5c0.1,0.2,0,0.4-0.2,0.8c0,0-0.1,0.1-0.1,0.2c-0.2,1.8-1.6,2.3-3.3,2.8
		c-1.4,0.4-2,1.5-2.5,2.5l-0.2,0.3c-1.5,2.8-1.1,5.2,1.1,7.1c2.2,1.9,2.6,2.1,4.6,2.2c1.8,0.1,3.4-0.4,4.4-0.9
		c1.5-0.7,2.6-2,3.3-4.1c0.3-0.8-0.1-1.9-0.5-2.6c-0.2-0.4-0.2-0.6,0.1-0.9c0.5-0.4,0.6-1,0.8-1.5c0.1-0.2,0.1-0.4,0.2-0.6
		c0.4-0.9,0.9-1.1,1.5-0.5c0.8,0.6,1.7,1,2.6,1.4c0.6,0.3,1.2,0.5,1.8,0.9c0.4,0.2,0.6,0.4,0.6,0.6c0,0.2-0.1,0.4-0.3,0.8
		c-1,1.5-1.7,3.2-2.4,4.8c-0.5,1.1-0.8,2.3-1.1,3.4c-0.3,1.2-0.6,2.3-1.1,3.4c-1.2,2.9-1.7,6-2.2,9c-0.1,0.9-0.3,1.9-0.5,2.9
		C99.5,99.5,99.4,100.5,99.3,101.4z"/>
	<path d="M28-15.6c0.1,0.3,0.2,0.6,0.2,0.8c0.1,0.3,0.2,0.7,0.3,1c0.3,1.2,0.6,2.4,1.1,3.5c1,2.4,2,4.4,3,6.1
		c0.8,1.5,1.8,3.2,3.1,4.6c3,3.2,5.6,5.4,8.4,7.1c2.3,1.4,5.2,2.9,8.3,3.6c0.9,0.2,1.8,0.3,2.7,0.4c0.7,0.1,1.3,0.2,2,0.3
		c1.9,0.3,3.9,0.6,6.4,0.7c0.4,0,0.8,0,1.1,0c2.7,0,5.4-0.7,8-1.4c0.7-0.2,1.4-0.4,2.2-0.5c1.9-0.5,3.7-1.4,5.4-2.4
		c0.3-0.2,0.6-0.3,1-0.5c3.3-1.8,6.3-4,8.8-6.6c3-3.1,4.7-6.8,6-10.1c1-2.6,2-5.4,1.5-8.3c0-0.3,0.1-0.7,0.2-1
		c0.1-0.4,0.3-0.8,0.2-1.2c-0.4-2.4-0.3-4.9-0.2-7.3l0-1c0-0.6-0.1-1.2-0.2-2c-0.1-0.4-0.1-0.8-0.2-1.3c-0.2-1.1-0.3-2.2-0.9-3.2
		c0-0.1,0-0.2,0-0.3c0-0.1,0-0.1,0-0.2c0-1.3-0.5-2.5-1-3.5c-0.6-1.2-1.3-2.4-1.9-3.6c-0.4-0.7-0.8-1.5-1.2-2.2
		c-0.5-0.9-1.1-1.9-2.1-2.5c-0.4-0.2-0.6-0.5-0.6-1.1c-0.1-1-0.6-1.7-1.5-2.3c-2.4-1.6-5.2-3.4-8.2-4.6c-0.3-0.1-0.6-0.3-0.9-0.4
		c-0.8-0.4-1.7-0.8-2.6-0.8c-1.5-0.1-2.9-0.3-4.2-0.6c-0.1,0-0.3,0-0.4,0c-0.1,0-0.3,0-0.4,0.2c-0.2,0.4-0.4,0.5-0.6,0.5
		c-0.2,0-0.4-0.1-0.7-0.2c-0.1,0-0.2-0.1-0.3-0.1c-0.5-0.2-1,0-1.5,0.2c-0.2,0.1-0.3,0.1-0.5,0.2c-0.2,0.1-0.4,0.4-0.3,0.6
		c0,0.2,0.3,0.4,0.5,0.4l0.3,0.1c0.7,0.1,1.5,0.3,2.2,0.4c0.8,0.1,1.7,0.1,2.5,0.2c1.1,0,2.3,0.1,3.4,0.3c1,0.2,1.4,0.7,1.2,1.6
		c-0.1,0.4-0.1,0.9-0.1,1.3l0,0.6c0.1,1.9,0.3,3.9-0.2,5.8c-0.1,0.2-0.1,0.4-0.1,0.6c-0.1,0.5-0.1,1-0.6,1.3c-0.8,0.6-2,1.3-3,1.4
		c-1.2,0.1-2,0.7-2.7,1.3c-0.3,0.2-0.5,0.4-0.8,0.5c-0.5,0.3-0.9,0.5-1.2,0.5c-0.3,0-0.6-0.2-1.1-0.6c-0.2-0.1-0.3-0.3-0.5-0.5
		c-0.3-0.3-0.7-0.7-1.2-0.9c-1-0.3-1.9-0.9-2.8-1.4c-0.8-0.5-1.7-1-2.6-1.3c-0.7-0.3-1.4-0.6-2-0.9c-1.1-0.5-2.2-1-3.3-1.3
		c-0.7-0.2-1.1-0.7-1-1.2c0.1-0.8,0-1.5-0.2-2.2c-0.1-0.4-0.2-0.8-0.2-1.2l0-0.2c0-0.4,0-0.4,0.2-0.5c1.1-0.3,1.8-1.2,2.4-2
		c0.2-0.3,0.4-0.5,0.7-0.8c0.1-0.1,0.1-0.1,0.2-0.2c0.2-0.2,0.5-0.4,0.5-0.7c0-0.1-0.1-0.3-0.2-0.4c-0.2-0.2-0.3-0.2-0.5-0.2
		c-0.4,0-0.8,0.4-1.1,0.6c0,0-0.1,0.1-0.1,0.1c0,0-0.1,0.1-0.1,0.1l-0.2,0.2c-0.9,0.9-1.7,1.7-2.9,1.7c-0.3,0-0.7-0.1-1-0.2
		c-0.3-0.1-0.8,0-1,0.1c-0.4,0.2-1,0.1-1.5,0c-0.2,0-0.4-0.1-0.6-0.1c-0.3,0-0.5-0.2-0.5-0.3c0-0.2,0.1-0.2,0.4-0.3l0.1-0.1
		c1.6-0.7,3.3-1.2,5-1.7c0.4-0.1,0.8-0.2,1.1-0.3c1-0.3,2-0.6,3-0.7c2-0.2,3.9-0.2,5.9-0.2c0.5,0,1,0,1.5,0l0.2,0
		c0.3,0,0.6,0,0.9-0.2c0,0,0.1,0,0.1,0c0.1-0.1,0.4-0.2,0.4-0.6c0-0.2-0.1-0.4-0.5-0.4c0,0-0.1,0-0.1,0l-0.1,0c-0.6,0-1.1,0-1.7,0
		l-1.5,0l0-0.1l-0.2,0c-0.4,0-0.8,0-1.2,0c-0.9,0-1.8,0.1-2.7,0.1c-3.3,0.3-6.5,1.4-9.6,2.5c-0.5,0.2-1,0.3-1.5,0.5
		c-1.8,0.6-3.2,1.3-4.3,2.2c-0.9,0.8-1.8,1.6-2.6,2.4c-2.1,2-4.5,4.4-6.4,7.2c-2.4,3.6-4,6.7-5,9.9c-0.6,2-1,4.1-1.4,6.2
		c-0.5,2.7-0.7,4.8-0.7,6.8C27.3-18.4,27.7-17,28-15.6z M52.5-47c0.1,0.3,0.1,0.6,0,0.9c-0.1,0.3-0.1,0.7,0.1,1.1
		c0,0-0.1,0.1-0.2,0.1l-0.1,0c-3.3,1.9-6,3.7-8.5,5.4c-0.3,0.2-0.5,0.5-0.7,0.7c-0.3,0.4-0.6,0.8-1.2,0.9c-0.4,0-0.7-0.3-1-0.6
		c-0.3-0.3-0.5-0.6-0.9-0.7c-0.2,0-0.3-0.1-0.5-0.2c-0.3-0.1-0.5-0.3-0.9-0.3c-0.7-0.1-1.2-0.2-1.4-0.9c-0.2-0.5-0.7-0.7-1.2-0.5
		c-0.2,0.1-0.6,0.3-0.6,0.6c-0.1,0.5,0.4,0.7,0.7,0.8l0.1,0.1c1.4,0.7,2.6,1.4,3.7,2.2c1.1,0.8,1.7,1.5,1.5,3.1
		c-0.4,2.3-0.2,4.6,0,6.6c0,0.3,0,0.7-0.1,1c0,0.2-0.1,0.5-0.1,0.8c-0.1,2.3-1.2,3.9-2.5,5.7c-0.3,0.5-0.6,0.9-1,1.4l-0.3,0.5
		c-0.7,1.1-1.4,2.2-2.1,3.3c-0.2,0.3-0.2,0.3-0.3,0.3c-0.1,0-0.1,0-0.2-0.1c-0.3-0.2-0.6-0.3-1-0.5c-0.5-0.2-1-0.4-1.4-0.8
		c-0.2-0.2-0.5-0.3-0.7-0.3c-0.2,0-0.4,0.1-0.6,0.3C31-16,31-15.8,31-15.7c0,0.2,0.3,0.4,0.4,0.5c0.1,0,0.1,0.1,0.1,0.1
		c0.3,0.3,0.7,0.6,1.2,0.8c1.8,0.7,2.7,2.3,3.5,3.8C36.7-9.7,37.4-9,38-8.3c0.4,0.4,0.8,0.9,1.1,1.3c1.3,1.8,2.7,3.8,4,5.8
		c0,0.1,0.1,0.1,0.1,0.2c0.1,0.2,0.2,0.4,0.4,0.5c1.8,1.3,2.1,3.1,2,5.5c0,0.2,0,0.3,0,0.5c0.1,0.4,0.1,0.6-0.1,0.7c0,0-0.1,0-0.1,0
		c-0.1,0-0.3-0.2-0.5-0.3c-0.1-0.1-0.2-0.2-0.4-0.3c-3.5-2-6.5-4.8-9-8.4c-3.3-4.8-5.2-9-6-13.2c-0.1-0.5-0.2-1-0.3-1.5
		c-0.3-1.4-0.5-2.7-0.6-3.9c0.1-2.9,0.6-5.5,1.1-8l0.1-0.4c0.8-3.8,2.5-7.1,4.5-10.7c1.4-2.5,3.5-4.7,5.4-6.7l0.4-0.4
		c1.3-1.3,2.7-2.6,4.1-3.8c0.5-0.4,1.1-0.7,1.5-0.7c0.3,0,0.6,0.1,0.9,0.3c1.3,0.8,2.6,0.9,3.7,0.9c0.3,0,0.6,0,0.9,0
		c0.3,0,0.5,0,0.6,0.1c0.1,0.1,0.1,0.3,0.1,0.6l0,0.3C52-49,51.9-48,52.5-47z M95.1-32c0.1,0.3,0.2,0.5,0.2,0.8
		c0,0.1,0.1,0.3,0.1,0.4c0.2,0.5,0.2,0.8-0.1,1c-0.2,0.1-0.4,0.2-0.6,0.2c-0.3,0-0.7-0.1-1.1-0.4c-1.4-0.9-2.9-1.3-4.4-1.8
		c-0.5-0.2-1.1-0.3-1.7-0.5c-0.4-0.1-0.9-0.3-1.2-0.6c-0.2-0.2-0.4-0.4-0.6-0.6c-0.7-0.7-1.4-1.4-1.8-2.3c-0.5-1.1-1.3-1.9-2.1-2.7
		c-0.4-0.4-0.9-0.9-1.3-1.3c-0.6-0.7-0.9-1.5-1.1-2.6c-0.3-1.6-0.2-3.2-0.1-4.8c0.1-1.6,0.2-3.3-0.1-5c0-0.1,0-0.2,0-0.3
		c0,0,0.1-0.1,0.2-0.1c0.1,0,0.3,0,0.5,0.1c1.3,0.5,2.4,1.3,3.6,2l0.6,0.4c4.7,2.9,7,7.8,9.3,12.5c0.2,0.3,0.3,0.6,0.5,0.9
		c0.3,0.5,0.6,0.9,0.7,1.5c0,0.2,0.1,0.3,0.1,0.4c0.1,0.3,0.2,0.6,0.1,0.8C94.8-33.2,95-32.6,95.1-32z M95.9-20.8
		c0,2.1,0.1,4.3-0.1,6.4c-0.3,2.6-0.9,4.7-2,6.5c-0.5,0.9-1,1.8-1.4,2.8c-0.3,0.6-0.6,1.3-0.9,2c-1.3,2.5-3.3,4.7-6.2,6.9
		c-2.5,1.8-5.3,3.4-8.6,4.9c-1.1,0.5-2.4,0.8-4.2,1c-0.1,0-0.1,0-0.2,0c-0.1,0-0.1,0-0.1-0.1c-0.1-0.4-0.3-0.7-0.5-1.1
		c-0.3-0.6-0.5-1.1-0.5-1.7c0-1.1-0.2-2.1-0.6-3c-0.6-1.3,0.3-2,1.2-2.7c0.2-0.2,0.4-0.3,0.6-0.4c0.8-0.6,1.7-1.3,2-2.5
		c0.1-0.3,0.4-0.4,0.7-0.6c0.1,0,0.1-0.1,0.2-0.1l0.2-0.1c1.1-0.6,2.2-1.2,2.9-2.4c0.3-0.4,0.6-0.6,0.9-0.6c0.2,0,0.4,0.1,0.6,0.2
		c0.8,0.5,1.7,0.7,2.6,0.9c0.4,0.1,0.7,0.2,1.1,0.3C84-4,84.3-3.9,84.4-3.5c0.1,0.5,0.3,1,0.5,1.5c0.3,0.7,0.5,1.4,0.6,2.1
		c0,0.5,0.2,0.9,0.6,1.1c0,0,0.1,0.1,0.1,0.1c0.1,0.1,0.3,0.3,0.5,0.3c0.1,0,0.2,0,0.3-0.1c0.4-0.2,0.2-0.6,0.2-0.7
		c0-0.1,0-0.1-0.1-0.2c-0.1-0.6-0.3-1.3-0.5-1.9c-0.2-0.7-0.4-1.4-0.5-2.1c-0.2-1.2-1.1-1.9-2.5-2c-0.5,0-0.9-0.2-1.4-0.3
		c-0.1,0-0.3-0.1-0.4-0.1c-0.4-0.1-0.6-0.3-0.6-0.6c-0.1-0.8-0.4-1.5-0.6-2.2c-0.4-1.1-0.8-2.1-0.6-3.3c0-0.1,0-0.2,0-0.3
		c-0.7-1.3-0.6-2.7-0.5-4.1l0-0.5c0.1-1.6-0.1-3-0.4-4.3c-0.1-0.5,0-1,0.3-1.1c0.5-0.3,0.9-0.8,1.3-1.2c0.3-0.4,0.6-0.7,1-1
		c0.9-0.7,1.5-1.6,2-2.5c0.8-1.3,1.9-2.4,3.8-3.6c0.4-0.2,1-0.1,1.5,0.1l0.9,0.3c1,0.4,2.1,0.8,3.1,1.2l0.1,0
		c0.6,0.2,1.2,0.5,1.8,0.5c0.1,0,0.3,0,0.4,0c0.4-0.1,0.6,0,0.7,0.6c0.2,1.2,0.2,2.6,0.1,4.4C95.9-22.6,95.9-21.7,95.9-20.8z
		 M47,3.3c-0.3-2.6-0.2-2.6,1.4-3.6c0.3-0.2,0.6-0.4,1-0.6L49.6-1c1.6-1,3.3-2.1,5.2-2.4C55.9-3.6,56-4.8,56-5.2
		c0-1.1-0.1-2.1-0.2-3.2c-0.1-0.7-0.2-1.5-0.2-2.3c0-0.8-0.2-1.5-0.4-2.2c-0.1-0.2-0.1-0.4-0.1-0.6c-0.1-0.5,0-0.8,0.5-1.1
		c2.2-1.5,4.5-2.9,6.7-4.3l0.2-0.1c1-0.6,2-1.4,2.9-2.1c0.4-0.3,0.8-0.7,1.3-1c0.1-0.1,0.2-0.1,0.3-0.2c0.2-0.2,0.3-0.3,0.5-0.4
		c0.4-0.1,0.7-0.4,1-0.7c0.4-0.3,0.7-0.6,1.1-0.6c0.1,0,0.1,0,0.2,0c0.6,0.1,1.1,0.2,1.7,0.3c1.8,0.3,3.6,0.6,5.1,1.9
		c1.1,1,1.3,2.6,1.4,4c0.1,3,0.6,5.9,1,8.2c0.1,0.3,0.2,0.7,0.3,1c0.1,0.4,0.2,0.7,0.3,1.1c0.1,0.4,0,0.5,0,0.5c0,0-0.1,0-0.1,0
		c-0.1,0-0.2,0-0.4-0.1c-0.9-0.3-1.8,0.1-2.4,1C76-5.3,75.2-4.5,74.4-4c-1.1,0.7-1.8,1.6-2.5,2.5l-0.2,0.3c-0.8,1-1.5,1.5-2.6,1.5
		c-0.4,0-0.9-0.1-1.5-0.2c-3.4-0.8-6.7-1.9-9.8-2.9c-0.5-0.2-1.1-0.3-1.5-0.3c-0.5,0-0.9,0.2-0.9,0.6C55.3-2,55.8-1.9,56-1.9
		c0,0,0.1,0,0.1,0l9.4,2.7l0.3,0.1C66,1,66.2,1,66.3,1.1c2.5,0.8,3.4,2.1,3.4,4.8c0,1.2,0.3,2.5,0.9,3.5c0.2,0.3,0.3,0.6,0.2,0.7
		c-0.1,0.2-0.4,0.2-0.7,0.3c-0.3,0.1-0.5,0.1-0.8,0.2c-0.5,0.1-0.9,0.3-1.4,0.3c-0.3,0-0.6,0-0.9,0.1c-0.8,0-1.7,0.1-2.5,0.2
		c-2,0-3.9-0.4-5.8-0.7c-0.7-0.1-1.4-0.2-2.1-0.3c-3-0.4-5.9-1.3-8.7-2.5c-0.9-0.4-1.3-1-1.1-1.9C47.1,5,47.1,4.2,47,3.3z M44.6-1.5
		c-0.2-0.3-0.4-0.6-0.6-0.9C43.4-3.2,42.8-4,42.6-5c0-0.2-0.2-0.4-0.4-0.6c-0.9-0.7-1.6-1.6-2.3-2.4c-0.5-0.6-1-1.2-1.6-1.8
		c-0.4-0.4-0.6-0.9-0.8-1.4c-0.3-0.6-0.5-1.3-1.2-1.8c-0.1,0-0.1-0.1-0.1-0.2c0-0.3,0.1-0.6,0.3-0.9c0.7-0.8,1.1-1.7,1.7-2.8
		c0.7-1.4,1.5-2.7,2.5-3.9l0.5,0.5c1.1,1,2.5,1.6,4.2,1.8c2.4,0.3,4.4,1.5,5.9,2.5c0.2,0.1,0.4,0.3,0.6,0.4c0.8,0.5,1.6,0.9,1.7,1.9
		c0.1,0.4,0.1,0.8,0.2,1.3c0.1,0.4,0.1,0.9,0.2,1.3c0.3,2.2,0.5,4,0.5,5.7c0,0.6-0.1,0.7-0.6,0.8c-1.1,0.2-2,0.7-2.9,1.2
		c-0.4,0.2-0.9,0.5-1.3,0.7c-0.5,0.2-1,0.5-1.5,0.8c-0.4,0.3-0.9,0.5-1.4,0.8C45.8-0.5,45.2-0.7,44.6-1.5z M84.7-30.7
		c-1.2,1.2-2.3,2.5-3.4,3.8c-1.1,1.3-2.2,2.6-3.4,3.8c-0.3,0.3-0.5,0.4-0.9,0.2c-2.3-1-4.3-1.7-6.2-2c-0.5-0.1-0.8-0.4-0.8-1
		c-0.1-1.3-0.2-2.7-0.3-3.8c0-0.4-0.1-0.8-0.1-1.2c-0.1-2-0.2-3.7-0.5-5.3c-0.1-0.5,0.1-0.7,0.4-0.9c2.8-1.7,5-2.8,7.3-3.6
		c0.2-0.1,0.5-0.1,0.6-0.1c0.4,0,0.7,0.2,1,0.5c1.9,2,3.9,4.1,5.7,6.5c0.2,0.3,0.4,0.5,0.6,0.7C85.8-31.9,85.8-31.9,84.7-30.7z
		 M68.2-29.1c-0.1,0.9-0.1,1.9,0,2.8l0,0.6c0,1-0.4,1.4-1.1,1.8c-1.6,0.9-2.9,1.9-4.1,3c-1,0.9-2.3,1.6-3.5,2.3
		c-0.5,0.3-1,0.6-1.5,0.9c-0.3,0.2-0.6,0.4-0.9,0.7c-0.6,0.5-1.2,0.9-1.9,1.1c-0.6,0.1-0.8,0.1-1.1-0.1c-0.4-0.2-0.8-0.5-1.3-0.7
		c-0.9-0.5-1.9-1.1-2.8-1.7c-0.8-0.5-1.7-0.7-2.6-0.9c-0.2,0-0.5-0.1-0.7-0.1c-0.4-0.1-0.8-0.1-1.1-0.2c-0.9-0.1-1.8-0.2-2.5-0.8
		c-0.2-0.1-0.3-0.2-0.6-0.2c-0.2,0-0.3,0-0.5,0.1c-0.2,0.1-0.4,0.1-0.6,0l-0.7-0.2c0.3-0.4,0.7-0.8,1-1.2c0.5-0.5,0.5-1.2,0.5-1.9
		c0-0.2,0-0.3,0-0.4c0-0.7,0.2-1.4,0.3-2.1c0.2-1.2,0.4-2.4,0.2-3.6l-0.3-2.1c-0.2-1.5-0.4-3,0.5-4.2c0.7-0.8,1.6-1.6,2.5-2.2
		c0.2-0.2,0.4-0.3,0.6-0.5c0.9-0.7,1.8-1.3,2.7-1.9c1.2-0.7,2.4-1.5,3.4-2.5c0.2-0.2,0.5-0.3,0.8-0.5c0.4-0.2,0.8-0.4,1.1-0.8
		c0,0,0.2-0.1,0.5,0.1c4.9,2,8.7,4,12.1,6.3c0.2,0.2,0.4,0.4,0.5,0.7C68.1-34.6,68.5-31.9,68.2-29.1z M65.2-56.7L65.2-56.7
		L65.2-56.7L65.2-56.7z"/>
	<path d="M140.1,12.6l0.6-1.4c0.9-2,2-3.9,3.1-5.7c2.3-3.9,4.4-7.2,6.5-10.2c1.3-1.9,2.5-3.9,3.7-5.8c0.4-0.7,0.8-1.4,1.2-2
		c0.5-0.8,0.9-1.7,1.3-2.4c1.1-2.3,2.4-4.5,3.8-6.7c1.5-2.4,2.9-4.8,4.1-7.4c0.3-0.7,0.3-1.2,0.1-1.6c-0.2-0.4-0.6-0.7-1.3-0.8
		c-2.7-0.5-5.1-2-7.3-3.5c-0.3-0.2-0.6-0.4-0.8-0.5c-0.3-0.2-0.5-0.2-0.7-0.2c-0.2,0-0.6,0.1-0.8,0.7c-0.4,1.1-0.9,2.1-1.4,3.1
		c-0.3,0.5-0.5,1-0.8,1.6c-0.3,0.7-1,2.1,0.4,3.2c0.7,0.6,1,1.4,0.7,2.2c-1.1,3.2-2.3,4.2-5.1,4.2l-0.1,0c-1.6,0-5.6-1.6-6.6-2.6
		c-0.2-0.2-0.3-0.3-0.5-0.6c-1-1.6-0.4-4.5,1.2-6.1c0.9-0.9,1.9-1,2.9-0.2c0.5,0.4,0.8,0.6,1.1,0.6c0.5,0,0.7-0.5,0.9-1.2
		c0.5-1.7,1.4-3.3,2.3-4.8l0.2-0.4c0.3-0.6,0.5-0.9,0.4-1.3c-0.1-0.4-0.5-0.6-1.1-0.9c-0.5-0.3-1.1-0.5-1.6-0.8
		c-2.5-1.2-5-2.5-7.1-4.4c-0.5-0.5-1.2-0.7-1.8-0.7c-0.4-0.1-0.7,0.2-0.9,0.4c-0.1,0.1-0.3,0.2-0.4,0.2c0,0,0,0,0,0
		c-1.4-0.1-1.8,0.9-2.2,1.7c-0.1,0.1-0.1,0.2-0.2,0.4l-0.2,0.5c-0.6,1.3-1.2,2.6-1.9,3.7c-0.5,0.7-1,1.5-1.4,2.2
		c-0.8,1.2-1.6,2.4-2.3,3.6l-0.2,0.4c-0.9,1.6-1.8,3.2-2.9,4.7c-1,1.3-1.8,2.8-2.6,4.2c-0.7,1.3-1.5,2.7-2.4,3.9
		c-0.4,0.5-0.8,1.1-1.1,1.6c-0.8,1.1-1.6,2.3-2.5,3.3c-2.1,2.2-3.8,4.7-4.8,7.4c-1.1,2.8-2.7,5.4-4.2,8c-0.6,1-1.1,1.9-1.7,2.9
		c-0.6,1-1.1,2.1-1.7,3.1c-0.4,0.7-0.7,1.4-1.1,2.1c-0.4,0.8-0.8,1.7-1.2,2.5c-0.4,0.9-0.8,1.8-1.3,2.7c-0.4,0.8-0.9,1.6-1.3,2.4
		c-1.5,2.7-3,5.5-4.7,8.2c-0.9,1.6-1.7,3.2-2.5,4.8c-0.8,1.7-1.7,3.5-2.7,5.2c-0.3,0.4-0.3,0.9-0.1,1.3c0.2,0.3,0.5,0.5,0.9,0.5
		l0.1,0c0.8,0,1.5,0.4,2.1,0.8c0.2,0.2,0.5,0.3,0.7,0.4c0.7,0.4,1.3,0.7,2,1.1c1.8,1.1,3.8,2.2,5.8,2.9c0.3,0.1,0.6,0.3,0.7,0.6
		c0.1,0.3-0.2,0.6-0.4,0.9c-0.6,0.7-1,1.3-1.3,2.1c-0.3,0.7-0.6,1-1.1,1c0,0,0,0,0,0l-0.1,0c-1.8,0-2.9,1.1-4.1,2.2l-0.3,0.3
		c-2.2,2-1.6,4.6-1.1,7l0.1,0.4c0.4,1.8,1.6,2.9,3,4c1.6,1.3,3.5,2,5.5,2c0.4,0,0.9,0,1.3-0.1c1.1-0.2,2.5-0.5,3.5-1.5
		c2.1-2.2,2.6-5.5,1.2-8.3c-1.1-2.2-1.1-3.7,0-5.2c0.1-0.1,0.1-0.2,0.1-0.3l0-0.1c0.1-0.2,0.2-0.3,0.3-0.3c0.1,0,0.2,0,0.3,0.1
		c0.8,0.4,1.6,0.7,2.4,1c2,0.8,4.1,1.7,5.9,3.1c0.2,0.2,0.4,0.3,0.6,0.3c0.3,0,0.4-0.2,0.6-0.4c0.4-0.6,0.8-1.1,1.2-1.7
		c0.7-1,1.4-2,1.9-3c0.9-1.6,1.9-3.3,2.8-4.9c2.8-4.9,5.7-10,8.9-14.9C135.6,22.5,137.8,17.5,140.1,12.6z M106.3,45.9
		c-0.2,1.2-0.6,2.3-1,3.3l-0.2,0.5c-0.4,1.1-0.3,2,0.4,3c1.6,2.2,1.9,4.2,0.8,6.1c-0.9,1.6-2.6,2.6-4.5,2.6c-1,0-2-0.3-3-0.8
		c-3.1-1.7-4.5-4.2-4.5-7.6c0-0.9,0.5-1.8,1.3-2.3l0.3-0.2c0.9-0.6,1.7-1.1,2.7-1.1c0.2,0,0.4,0,0.6,0.1c0.1,0,0.1,0,0.2,0
		c0.7,0,1-0.8,1.2-1.3l0.1-0.1c0.3-0.7,0.7-1.2,1.1-1.8c0.2-0.2,0.3-0.4,0.4-0.7c0,0,0.1-0.1,0.1-0.1c0.1-0.1,0.1-0.2,0.2-0.3
		c0.7-1.5,1.1-2.3,0.8-2.9c-0.2-0.6-1-0.9-2.4-1.4c-2.2-0.8-3.9-1.8-5.3-2.9c-0.7-0.6-1.5-0.8-2.3-1.1c-0.4-0.1-0.8-0.3-1.1-0.4
		c-0.2-0.1-0.5-0.2-0.5-0.4c0-0.1,0-0.2,0.1-0.5c0.6-1.2,1.2-2.4,1.7-3.6c0.9-2,1.9-4.1,3.1-6.1c2.6-4.3,4.6-7.8,6.2-11.2
		c1.6-3.3,3.4-6.4,5.1-9.5c0.6-1.1,1.3-2.3,1.9-3.4c1.4-2.5,2.8-5.2,3.9-8c0.8-2.3,2.4-4.2,3.7-5.6c2.4-2.7,4.2-5.7,6-8.7l0.4-0.7
		c1.1-1.8,2.2-3.6,3.3-5.4c0.6-1,1.2-2,1.9-3l0.8-1.3c1.8-2.9,3.6-5.9,5.3-8.8c0.2-0.3,0.3-0.5,0.4-0.8c0.2-0.4,0.3-0.7,0.6-1.1
		c0.6-0.8,1.4-0.9,2.2-0.2c2.4,2,5.1,3.7,7.9,5c0.4,0.2,0.6,0.4,0.7,0.6c0.1,0.2,0,0.4-0.1,0.6c-0.6,1.2-1.2,2.3-1.7,3.2
		c-0.1,0.2-0.2,0.3-0.2,0.3c0,0-0.1,0-0.3-0.1c-1.2-0.7-2.5-0.5-3.7,0.6c-1.7,1.5-2.8,3.5-3.1,6c-0.2,1.5,0.5,2.9,2,4
		c1,0.7,2.1,1.2,3.2,1.6c0.7,0.3,1.4,0.6,2,0.9c0.3,0.2,0.7,0.2,1,0.2c0.1,0,0.3,0,0.5,0c0.2,0,0.3,0,0.5,0c0.1,0,0.2,0,0.4,0
		c0.2,0,0.3,0,0.5-0.1c0.5-0.1,1.1-0.1,1.7-0.2c1.1-0.2,1.8-0.7,2.4-1.7c0.9-1.4,1.7-3,1.7-4.9c0-1.1,0-2.2-1-3.1
		c-0.2-0.1-0.4-0.4-0.1-1c0.4-1,0.9-1.9,1.4-2.8l0.1-0.3c0.2-0.4,0.4-0.4,0.5-0.4c0.1,0,0.3,0.1,0.5,0.2c0.8,0.4,1.6,0.9,2.5,1.5
		c1.5,1.1,2.9,1.6,4.3,1.7c0.3,0,0.6,0.1,0.7,0.3c0.1,0.2,0,0.5-0.2,0.8c-0.5,0.8-0.9,1.6-1.4,2.4c-0.8,1.3-1.5,2.6-2.3,3.9
		c-1.5,2.5-3,5.2-4.3,7.9c-1,2.1-2.3,4.2-3.6,6.1l-1.6,2.4c-3.4,5.2-6.9,10.5-9.6,16.2c-0.5,1.1-1,2.2-1.5,3.2
		c-1.4,2.9-2.8,5.9-4.2,8.9c-1.1,2.2-2.4,4.2-3.6,6.2c-0.3,0.5-0.6,0.9-0.9,1.4c-2.4,3.9-4.7,8.1-6.9,12.1l-0.1,0.2
		c-1.4,2.6-3.1,5.1-4.5,7.1c-0.4,0.6-0.8,0.7-1.3,0.2c-1.7-1.4-3.8-2.1-5.8-2.8c-1-0.3-1.8-0.8-2.5-1.4c-0.4-0.3-0.8-0.5-1.1-0.5
		C106.9,44.7,106.5,44.9,106.3,45.9z"/>
	<path d="M231.9,77.2c-0.1-0.4-0.2-0.7-0.2-1.1c0-0.2-0.1-0.4-0.1-0.6c-0.1-0.7-0.2-1.4,0-2.1c0.5-1.3,0.4-2.7,0.2-4
		c0-0.3-0.1-0.6-0.1-0.9c-0.1-1.6-1.4-2.3-2.6-2.9l-0.1,0c-0.9-0.5-1.4-1-1.6-1.8c-0.2-0.7-0.4-1.5-0.5-2.2
		c-0.2-1.1-0.4-2.2-0.8-3.3c-0.1-0.3-0.2-0.5-0.3-0.8c-0.4-1.2-0.8-2.4-1.7-3.2c-1.3-1.2-1.9-2.7-1.8-4.2c0.2-2-0.1-4-0.3-5.8
		c-0.1-0.5-0.1-0.9-0.2-1.4l-0.1-0.4c-0.2-1.3-0.3-2.7-0.8-4c-0.7-2-1.7-3.9-2.7-5.8c-0.8-1.5-1.6-3-2.2-4.5c-0.3-0.7-0.7-1.4-1.1-2
		c-0.6-0.9-1.2-1.8-1.4-2.8c-0.1-0.4-0.3-0.6-0.5-0.9c-0.2-0.2-0.3-0.4-0.4-0.7c-0.5-1.4-0.9-2.7-1.4-4.1c-0.8-2.4-0.5-4.6,0.9-6.5
		c1.1-1.5,1.7-3.1,2.3-4.7c0.6-1.9,1.4-3.8,2.2-5.6c0.4-0.9,0.7-1.7,1.1-2.6c1.4-3.4,2.1-6.3,2.3-9.1c0-0.2,0-0.4,0-0.7
		c0-0.5,0-1,0.1-1.5c0.5-1.9,0.7-3.5,0.5-4.8c-0.2-1.6-0.2-3.1-0.1-4.7c0-0.8,0.1-1.7,0-2.6c0-1.8-0.3-3.2-0.8-4.5
		c-0.3-0.8-0.5-1.7-0.7-2.6c-0.2-1-0.5-2.1-1-3.1c-0.1-0.2-0.2-0.4-0.3-0.7c-0.3-0.7-0.7-1.5-1.1-2.2c-0.1-0.2-0.3-0.4-0.3-0.6
		c-0.2-0.8-0.8-1.3-1.3-1.8c-0.4-0.4-0.9-0.7-1.1-1.3c-0.1-0.2-0.3-0.2-0.6-0.2l-0.1,0c-0.5,0-0.9-0.4-0.9-0.7
		c-0.1-0.4-0.4-0.6-0.7-0.8c-0.1-0.1-0.3-0.2-0.3-0.3c-0.5-0.6-1.1-0.6-1.7-0.6c-0.4,0-0.8,0-1.2-0.2c-1.1-0.6-2.2-0.7-3.4-0.8
		c-1-0.1-2-0.2-2.9-0.6c-0.3-0.1-0.6-0.1-1-0.1c-0.3,0-0.7,0-1-0.1c-0.9-0.3-1.8-0.5-2.8-0.5c-1.9,0-3.7,0.6-5.4,1.3
		c-0.8,0.3-1.7,0.6-2.6,0.8c-0.1,0-0.3,0.1-0.3,0.2c-0.1,0.1-0.1,0.1-0.1,0.1c-0.2,0.1-0.5,0.3-0.7,0.4c-0.7,0.5-1.3,0.9-2.1,0.9
		c-0.4,0-0.7,0.2-0.9,0.6c-0.4,0.9-1.2,1.5-2,2.1c-0.2,0.1-0.3,0.2-0.5,0.4c-1.2,1-1.8,2.2-2.4,3.5c-0.2,0.4-0.3,0.7-0.5,1.1
		c-0.4,0.8-0.5,1.8-0.6,2.6c0,0.7-0.1,1.3-0.3,2c-0.4,1.1-0.4,2.4-0.5,3.5c0,0.9-0.1,1.9-0.3,2.8c-0.5,2.1,0.1,4.2,0.6,6.1
		c0.2,0.9,0.4,1.7,0.6,2.6c0.2,1.2,0.8,2.4,1.5,3.5c0.3,0.5,0.6,1.1,0.9,1.7c0.2,0.5,0.6,1,0.9,1.4c0.4,0.6,0.8,1.1,1,1.8
		c0.2,0.6,0.4,1.2,0.8,1.8c0.4,0.7,0.9,1.4,1.4,2.1c0.3,0.5,0.7,1,1,1.5c0.3,0.4,0.6,0.8,0.9,1.1c0.7,0.8,1.3,1.6,1.4,2.7
		c0,0.3,0.4,0.6,0.5,0.7c1.2,0.8,2.2,1.7,3.2,2.7c0.4,0.4,0.9,0.8,1.4,1.2c2.2,2,4.7,3.5,7.5,4.6c0.7,0.3,1.4,0.7,2.1,1
		c1.2,0.6,2.4,1.2,3.7,1.6c0.9,0.2,1,0.6,1.1,1.5c0.1,2.1,0.3,4.6,1.4,7c0.5,1,1,2,1.5,2.9c0.7,1.3,1.4,2.6,2,4
		c0.2,0.4,0.3,0.7,0.5,1.1c0.3,0.6,0.6,1.3,0.8,1.9c0.3,1,1,1.8,1.8,2.7c0.7,0.8,1.1,1.8,1.4,2.9c0.1,0.3,0.2,0.5,0.3,0.8
		c1.3,3.3,1.8,7,1.7,11.4c-0.1,2.3,0.9,4,2,5.7c1.3,2,2,4.2,2.6,6.2c0.1,0.3,0.2,0.5,0.2,0.8c0.6,2,1.1,4.1,3.3,5.4
		c1,0.6,1.6,1.6,1.9,3.3c0.2,1.2,0.1,2.3,0,3.7c0,0.4-0.1,0.8-0.1,1.2c-0.1,0.9,0.2,1.8,0.5,2.7c0.1,0.4,0.3,0.9,0.4,1.3
		c0.1,0.3,0.3,0.6,0.6,0.6c0,0,0.1,0,0.1,0c0.3-0.1,0.4-0.4,0.5-0.5c0,0,0-0.1,0-0.1C232.4,78.9,232.1,78,231.9,77.2z M218.4-23.4
		c0.2,1.1,0.2,2.2,0.2,3.4c0,1.2-0.1,2.4,0.1,3.6c0.2,0.9,0,1.7-0.2,2.6c-0.1,0.5-0.2,1.1-0.3,1.7c0,0.3,0,0.6-0.1,0.9
		c-0.1,1.4-0.2,2.9-0.5,4.3c-0.6,2.6-1.7,5-2.7,6.7c-0.3,0.6-0.5,1.2-0.7,1.7c-0.3,0.9-0.6,1.7-1,2.6c-0.4,1-0.8,2-1.1,3
		c-0.4,1.4-1.2,2.8-2.2,4c-0.3,0.3-0.5,0.4-1,0.3c-1.6-0.2-3-0.8-4.4-1.5c-0.9-0.4-1.8-0.8-2.7-1.1c-3.1-1-5.4-3.1-7.7-5.2
		c-0.4-0.3-0.7-0.6-1.1-0.9c-0.8-0.6-1.6-1.3-2.2-2.1c-0.3-0.4-0.5-0.8-0.8-1.3c-0.2-0.5-0.5-1-0.8-1.4c-1.5-1.8-2.7-3.9-3.9-5.9
		c-0.5-0.8-1-1.6-1.5-2.4c-0.6-1-1.1-2-1.6-3.1c-0.3-0.6-0.6-1.2-0.9-1.8c-0.8-1.5-0.9-3.1-1.1-4.6c0-0.3-0.1-0.7-0.1-1
		c-0.2-2.1-0.3-4.3-0.1-6.5c0.2-3.2,0.6-6.9,2.6-9.8c1.2-1.7,3.2-4.1,6-5.1c1.2-0.4,2.8-1,4.4-1.7c1.2-0.5,2.6-0.7,4.1-0.7
		c1.4,0,2.9,0.2,4.4,0.4l0.2,0c2.3,0.3,5.1,0.8,7.6,2c2.1,1,4.5,2.4,5.7,5.2c1.1,2.7,2,5.4,2.7,8.5c0,0.2,0.1,0.5,0.2,0.7
		C218.3-26.4,218.6-25,218.4-23.4L218.4-23.4L218.4-23.4z"/>
	<path d="M-5.1,26c3.1,1.5,6.2,3.1,8.7,4.5c1.4,0.8,2.7,1.8,4,2.7c0.5,0.4,1.1,0.8,1.6,1.2c2.9,2.1,6.6,4.9,9.8,8.4
		c2.2,2.4,4.6,5,6.7,7.8c3.8,4.8,6.2,8.7,7.9,12.6l0,0.1c0.3,0.8,0.7,1.6,0.4,2.4c-0.2,0.5,0,1,0.4,1.2c0.1,0.1,0.3,0.1,0.4,0.1
		c0.3,0,0.5-0.2,0.7-0.3c0,0,0.1-0.1,0.1-0.1c0.1-0.1,0.2-0.2,0.3-0.3c0.1-0.1,0.2-0.3,0.4-0.3c1.7-0.5,3.4-1.2,5.1-1.9
		c1-0.4,2-0.8,3.1-1.2c0.2-0.1,0.3-0.1,0.4-0.1c0.1,0,0.2,0,0.4,0.2c0.6,0.8,0.7,2.1,0.1,2.9c-0.1,0.2-0.3,0.4-0.4,0.6
		c-0.5,0.6-0.9,1.2-1.1,2c-0.5,2.7,0.1,5.2,1.5,6.9c1.1,1.4,2.8,2.1,4.9,2.1c0.1,0,0.3,0,0.4,0c0.3,0,0.5,0.1,0.8,0.1
		c0.8,0,1.7-0.2,2.7-0.5c2.5-0.9,4.2-2.1,5-3.9c1-2,0.9-4.6-0.3-6.8c-1.1-2.1-3-3.4-5.1-3.7c-1.3-0.2-1.9-0.4-2.1-1.7l-0.1-0.4
		c-0.2-1-0.2-1,1.1-1.6c0.5-0.2,1-0.3,1.5-0.4c0.7-0.1,1.4-0.3,2-0.6c0.3-0.1,0.5-0.3,0.8-0.4c1.7-1,3.5-2,5.5-2.5
		c0.6-0.2,1.1-0.5,1.3-1c0.2-0.5,0.2-1.1-0.1-1.7c-0.8-1.8-1.5-3.6-2.2-5.4c-0.8-1.9-1.5-4-2.5-5.9c-2-4.1-3.9-7.4-6.1-10.2
		c-0.7-0.9-1.4-1.8-2.1-2.6c-0.6-0.7-1.2-1.4-1.8-2.2c-2.9-3.7-6.5-7.3-10.9-10.8c-1.3-1-2.8-2-4.1-2.9c-0.8-0.5-1.5-1-2.2-1.5
		l-0.6-0.4c-2-1.4-4-2.8-6.2-3.9c-1.1-0.5-2.4-1.2-3.6-1.9c-0.5-0.3-1.1-0.6-1.6-1C15.9,1.3,12-1,7.8-2.4C7.5-2.5,7.2-2.5,7-2.5
		c-0.6,0-0.9,0.3-1.1,1C5.9-1.2,5.8-1.1,5.5-1C4.9-0.8,4.6-0.2,4.4,0.3C4.2,0.7,4,1.1,3.8,1.5C3.4,2.4,3.1,3.2,2.6,4.1
		C2.2,4.8,1.8,5.6,1.3,6.3C1,6.9,0.7,7.4,0.4,8C0.2,8.4,0,8.8,0.1,9.1c0.1,0.2,0.3,0.4,0.6,0.5c1.4,0.5,2.7,1.1,4,1.8l0.2,0.1
		c0.9,0.4,1.6,0.4,2.2-0.1c0.7-0.6,1.5-0.9,2.7-0.9c0.2,0,0.3,0,0.5,0c1.3,0.1,2.8,1,3.5,2.2c0.4,0.7,0.7,1.7,0.1,2.8
		c-0.1,0.2-0.2,0.4-0.2,0.6c0,0.1,0,0.2-0.1,0.3c-0.7,2.6-2.1,4.3-4.2,5.2c-0.5,0.2-1,0.3-1.5,0.3c-1.5,0-2.7-1-3-2.7
		c-0.2-0.9-0.7-1.6-1.7-2.1c-0.8-0.4-1.6-0.7-2.4-0.9C-0.2,16-1.2,15.8-2,15.2c-0.4-0.3-1-0.1-1.1,0.5c-0.4,1.7-1.3,3.2-2.2,4.6
		c-0.3,0.5-0.7,1.1-1,1.6c-0.7,1.3-0.9,2-0.7,2.6C-6.8,25.1-6.2,25.5-5.1,26z M15.8,16.1c0.2-0.7,0.4-1.5,0.2-2.4
		C15.2,10.9,12.8,9,10,9c-0.4,0-0.9,0-1.3,0.1C8.3,9.3,7.8,9.3,7.4,9.4C6.9,9.5,6.3,9.6,5.7,9.8c-0.1,0-0.3,0-0.4,0
		C4.5,9.8,3.8,9.4,3.1,9L2.8,8.9c-0.1,0-0.1-0.1-0.1-0.1C2.7,8.6,2.9,8.2,3,8c0.7-1.2,1.3-2.5,1.8-3.7C5.2,3.5,5.6,2.6,6,1.7
		c0.1-0.3,0.3-0.6,0.4-0.9c0.4-1,0.5-1.3,0.8-1.3c0.3,0,0.7,0.2,1.3,0.4c3.1,1.2,6,2.8,8.8,4.4c1.2,0.7,2.5,1.4,3.8,2.1
		c4.4,2.3,8.6,5,12.4,7.5c5.8,3.9,11.1,8.8,15.6,14.6l0.6,0.8c2,2.6,4.1,5.2,5.8,8.1c1.8,3,3.3,6.3,4.5,9.7c0.5,1.4,1.1,2.8,2,4.7
		c0.4,0.8,0.2,1.3-0.5,1.7c-0.4,0.2-0.8,0.4-1.2,0.5c-0.2,0.1-0.4,0.2-0.6,0.3c-0.6,0.3-1.2,0.5-1.8,0.8c-2.4,1.1-4.9,2.2-7.6,2.7
		c-0.4,0.1-0.7,0.2-0.9,0.5c-0.2,0.3-0.2,0.6-0.1,1c0.4,1.1,0.8,2.4,1.4,3.5c0.4,0.9,1.1,1.3,2,1.3l0.2,0c1.5,0,2.9,0.6,3.9,1.6
		c1,1.1,1.5,2.5,1.4,4.1c0.1,2.5-1.2,4.2-3.7,5.3c-1.4,0.6-2.7,0.9-3.9,0.9c0,0,0,0,0,0c-1.1,0-2.1-0.2-3.1-0.7
		c-1.2-0.5-2.3-2.3-2.5-4.1c-0.2-1.5,0.2-2.7,1-3.4c1.3-1.1,1.6-2.5,0.9-4.4c-0.7-2-1.1-2.8-1.9-2.8c-0.5,0-1.1,0.4-2.1,0.9
		l-0.5,0.3c-1.5,0.9-3.2,1.5-4.7,2.2c-0.7,0.3-1.4,0.5-2,0.8c-0.1,0.1-0.2,0.1-0.3,0.1c-0.1,0-0.2,0-0.2-0.3
		c-0.2-2.4-1.3-4.4-2.4-6.3c-0.3-0.5-0.6-1-0.8-1.6c-1.1-2.1-2.5-4-4-5.7c-0.5-0.6-1-1.2-1.5-1.9c-1.8-2.4-3.4-4.1-5-5.6
		c-0.4-0.3-0.7-0.7-1-1.3L20.3,42c-0.4-0.6-0.8-1.3-1.6-1.5c-0.1,0-0.2-0.1-0.3-0.1c-0.6-1.2-1.6-2-2.6-2.8c-0.5-0.4-1-0.8-1.4-1.3
		c-0.6-0.6-1.2-1-1.9-1.5c-0.4-0.3-0.8-0.6-1.2-0.9c-3.2-2.6-6.7-4.8-10.9-7c-0.3-0.1-0.5-0.3-0.8-0.5c-0.7-0.4-1.4-0.9-2.3-0.9
		c-0.1,0-0.1,0-0.2-0.3l0-0.1c-0.1-0.4-0.5-0.7-0.9-0.7c-0.6,0.1-1,0-1.1-0.1c-0.1-0.2,0.1-0.6,0.2-0.9c0.1-0.2,0.2-0.3,0.2-0.5
		c0.6-1.6,1.4-3.1,2.2-4.6c0.2-0.3,0.3-0.6,0.5-0.9c0.2-0.4,0.4-0.4,0.6-0.4c0.1,0,0.2,0,0.4,0.1c0.4,0.1,0.7,0.2,1.1,0.3
		C0.8,17.7,1.4,17.9,2,18c0.4,0.1,0.5,0.3,0.6,0.8c0.6,3.3,3.5,4.5,6,4.5c0.6,0,1.3-0.1,1.9-0.2c2.8-0.7,4.4-2.7,5.2-6.2
		C15.7,16.6,15.7,16.4,15.8,16.1z"/>
	<path d="M57,155.5c-0.1-0.3-0.3-0.6-0.4-0.9c-0.4-0.9-0.7-1.8-1.6-2.4c0,0-0.1-0.1-0.1-0.1c-0.2-0.1-0.5-0.3-0.7-0.2
		c-0.1,0.1-0.2,0.2-0.2,0.3c0,0.2,0,0.3,0.1,0.5c0,0,0,0.1,0.1,0.1c0.2,0.5,0.5,1,0.7,1.5c1.1,2.3,2.3,4.7,2.7,7.3l0,0.3
		c0.3,1.7,0.3,2.1-2,2.6c-0.9,0.2-1.8,0.3-2.7,0.4c-1,0.1-2.1,0.3-3.1,0.5c-1.5,0.4-3,0.5-4.5,0.7c-1.5,0.2-2.9,0.4-4.3,0.7
		c-2.3-0.2-4.2-0.4-6-0.9c-1.8-0.4-2.9-1.3-3.5-2.7c-1.1-2.5-1.2-4.6-0.3-6.7c0.1-0.3,0.1-0.5,0.1-0.7c-0.1-0.3-0.4-0.4-0.7-0.5
		c-0.7-0.3-1.2-0.1-1.2,0.5c-0.1,0.5-0.2,1-0.3,1.5c-0.3,1.3-0.6,2.6-0.1,4l0.1,0.2c0.6,1.5,1.2,3.1,2.7,4c1.9,1.2,3.5,1.9,5.3,2.2
		c1.3,0.2,2.6,0.3,4,0.3c3,0,5.9-0.5,8.6-1.1c2.3-0.5,4.7-0.9,7.7-1.2c0.9-0.1,1.5-0.4,1.9-1c0.4-0.5,0.5-1.2,0.4-2
		C59.3,160.1,58.1,157.6,57,155.5z"/>
	<path d="M60.6,133.6c-1-2-2.9-2.4-4.8-2.7c-1.1-0.2-2.3-0.2-3.4-0.3c-0.9,0-1.8-0.1-2.7-0.2c-0.1,0-0.2,0-0.3,0
		c-0.7,0-0.8,0.4-0.8,0.7c0,0.3,0.1,0.5,0.3,0.7c0.2,0.2,0.5,0.3,0.8,0.3c0.5-0.1,1.1-0.1,1.7-0.1c1.8,0,3.7,0.3,5.4,0.7l0.5,0.1
		c1.6,0.3,2.4,1.3,2.4,3c0,1.1-0.3,2.2-0.6,3.3c-0.2,0.6-0.4,1.2-0.5,1.8c-0.9,4.4-3.9,7.1-7,9.3c-2.6,1.9-5.6,3.4-9.6,5
		c-1.2,0.5-2.4,0.7-4,0.7c-1.2,0-2.4-0.1-3.6-0.3c-1.4-0.2-2.6-1-3.8-1.8l-0.5-0.4l0.1,0.5c0.2,1,0.3,1.3,1,1.6
		c2.4,1.2,4.8,1.8,7.1,1.8c1.4,0,2.9-0.2,4.2-0.7c6.1-2.1,10.5-4.9,13.8-8.6c0.2-0.2,0.4-0.4,0.7-0.6c0.4-0.3,0.9-0.7,1.2-1.3
		c0.2-0.5,0.5-1.1,0.7-1.6c0.6-1.3,1.2-2.6,1.6-4c0.5-1.8,1-3.6,0.7-5.5C61,134.4,60.8,134,60.6,133.6z"/>
	<path d="M203.8,63.9C203.8,63.9,203.8,63.9,203.8,63.9c-0.3,0.2-0.7,0.6-0.4,1c0.1,0.2,0.3,0.2,0.4,0.2c0.2,0,0.3-0.1,0.4-0.2
		c0,0,0.1-0.1,0.1-0.1c3.8-1.8,4.9-5.3,5.4-8.1c0-2-0.2-3.6-1.4-5c-1.7-2-3.5-3.1-5.5-3.4c-1.1-0.2-2-0.2-2.8-0.2
		c-1.1,0-2.1,0.1-3,0.4c-2.2,0.6-4.4,1.6-5.1,4.6c-0.1,0.3-0.3,1.2,0.7,1.4c0.8,0.2,1.3-0.2,1.4-1c0-0.1,0-0.1,0-0.2
		c0-0.3,0.1-0.6,0.2-0.8c1.4-2,4-3.3,6.6-3.3c2,0,3.9,0.8,5.1,2.1c2,2.2,2.5,4.3,1.6,6.7C206.7,60.6,205.5,62.4,203.8,63.9z"/>
	<path d="M173.2,80.7c1,1.7,2.7,2.9,5.1,3.8c0.4,0.1,0.8,0.2,1.2,0.2c1.3,0,2.7-0.7,3.5-1.8l0.1-0.2l-0.2-0.1
		c-0.2-0.1-0.4-0.2-0.6-0.2c-0.3,0-0.5,0.1-0.7,0.2c-0.1,0-0.2,0.1-0.3,0.1c-0.7,0.2-1.3,0.3-1.8,0.3c-0.6,0-1.1-0.1-1.6-0.4
		c-1.6-0.8-2.8-1.7-3.7-2.9c-0.2-0.2-0.4-0.6-0.8-0.6c-0.1,0-0.3,0-0.4,0.1c-0.2,0.1-0.3,0.3-0.3,0.4c-0.1,0.3,0.1,0.6,0.3,0.8
		L173.2,80.7z"/>
	<path d="M191.3,54.8c-0.2-0.1-0.5-0.1-0.6-0.2c-1.9-1.1-3.8-1.7-5.8-1.7c-0.5,0-0.9,0-1.2-0.4c-0.3-0.4-0.8-0.6-1.2-0.7
		c-0.1,0-0.2-0.1-0.3-0.1c-0.9-0.3-1.7-0.3-2.6-0.4c-0.7,0-1.3-0.1-2-0.2l-0.2,0c0,0-0.1,0-0.1,0c-0.4,0-0.5,0.2-0.6,0.4
		c0,0.2,0,0.3,0.1,0.4c0.2,0.2,0.4,0.2,0.7,0.2l0.1,0c0.3,0,0.6,0.1,1,0.1c0.6,0.1,1.3,0.2,1.9,0.1c0.9-0.1,1.7,0.3,2.5,0.7
		c0.8,0.4,1.6,0.7,2.5,0.7l0.1,0c0.4,0,0.9,0.2,1.3,0.3c0.9,0.3,1.8,0.8,2.6,1.2c0.5,0.3,1.1,0.6,1.6,0.8l0.1,0
		c0.2,0.1,0.4,0.2,0.6,0.2c0.2,0,0.4-0.1,0.6-0.4c0.1-0.2,0.1-0.4,0-0.5c-0.1-0.3-0.5-0.4-0.7-0.5C191.5,54.8,191.4,54.8,191.3,54.8
		z"/>
	<path d="M177.7,64.7l0.2,0v0l0.4,0c0.1,0,0.3,0,0.4,0c0.2,0,0.5,0,0.6-0.2c0.1-0.1,0.1-0.3,0.1-0.4c0-0.3-0.3-0.5-0.7-0.5h0
		c-1.4,0-2.8-0.1-4.2-0.2c-0.7-0.1-1.5-0.1-2.3-0.2l-0.1,0c-0.1,0-0.2,0-0.2,0c-0.5,0-0.6,0.3-0.6,0.5c0,0.5,0.5,0.6,0.8,0.6l0.1,0
		c1.4,0.1,2.7,0.3,4.1,0.4L177.7,64.7z"/>
	<path d="M195.1,70.2c-0.1-0.1-0.3-0.1-0.4-0.2c-1.5-1-3.1-2-4.6-3c-0.2-0.1-0.4-0.2-0.6-0.2c-0.1,0-0.3,0.1-0.5,0.3
		c-0.2,0.4,0.1,0.6,0.3,0.8c0,0,0.1,0.1,0.1,0.1c0.7,0.7,1.6,1.2,2.4,1.7c0.5,0.3,1,0.6,1.4,0.9c0.6,0.4,1.2,0.8,1.8,1.1
		c0.1,0.1,0.3,0.1,0.4,0.1c0.2,0,0.5-0.1,0.6-0.7l0-0.1l0-0.1C195.8,70.6,195.5,70.4,195.1,70.2z"/>
</g>
</svg>
