<?xml version="1.0" encoding="utf-8"?>
<!-- Generator: Adobe Illustrator 18.1.1, SVG Export Plug-In . SVG Version: 6.00 Build 0)  -->
<svg version="1.1" id="Ebene_1" xmlns="http://www.w3.org/2000/svg" xmlns:xlink="http://www.w3.org/1999/xlink" x="0px" y="0px"
	 width="250px" height="250px" viewBox="0 0 250 250" style="enable-background:new 0 0 250 250;" xml:space="preserve">
<g>
	<path d="M0,246.7c0.7-0.2,1.1-0.8,1.6-1.2c4.1-3.7,8.2-7.4,12.4-11c3.5-3,6.5-6.7,10-9.7c0.9-0.7,1.3-1.5,1-2.9
		c-0.3-1.3-0.5-2.7,0.4-4c0.1-0.1,0.2-0.4,0.1-0.5c-0.2-0.2-0.4-0.1-0.6,0c-2.3,0.2-4.5,1.2-6.9,0.8c-2.4-0.4-4.9,0-7.1-1.1
		c-1.7-0.9-1.8-1.1-1-2.8c0.4-1,0.8-2,0.9-3c0.2-1,0.8-1.9,1.4-2.7c0.6-0.8,0.5-1.8,1-2.6c0.7-1.3,1.5-2.3,2.4-3.4
		c0.7-0.8,0.9-1.4,0.2-2.4c-0.8-1.1-1.5-2.2-2.4-3.1c-1.4-1.4-2.2-3.2-2.4-5.2c-0.1-1.2,0.4-1.9,1.3-2.6c1.4-1,2.9-1.8,4.3-2.5
		c1.7-0.8,3.4-1.6,5.1-2.4c1.4-0.6,2.9-1.2,4.5-1.5c0.9-0.1,1.7-0.7,2.7-0.9c0.3,0,0.6-0.3,0.5-0.5c-0.6-1.6,0.3-2.9,0.7-4.3
		c0.7-2.5,2.3-4.5,4.2-6.3c1.5-1.4,3.4-1.1,4.8-0.2c2.3,1.5,4.2,3.5,5.8,5.8c1.2,1.8,2.2,3.7,3.8,5.2c2.3,2.4,4,5.2,4.9,8.4
		c0.7,2.3-0.5,4-1.6,5.8c-1.2,1.9-2.6,3.6-4.3,5c-0.4,0.3-0.4,0.7-0.1,1.1c0.6,0.8,1.1,1.7,1.6,2.6c0.2,0.3,0.4,0.7,0.8,0.6
		c1.5-0.3,3,0,4.4,0c1.8,0,3.5-0.8,5.1-1.6c0.9-0.5,1.1-1.7,1.5-2.6c1.4-3,1.6-6.2,1.8-9.3c0.2-2.9,1.4-5.7,1.3-8.6
		c-0.1-2.1,0.6-4.2,0.2-6.3c-0.3-1.7-1.6-2.7-2.6-3.9c-0.3-0.3-0.6-0.1-0.9,0.1c-2.8,1.5-5.4,3.2-7.4,5.7c-0.3,0.4-0.8,0.7-1.2,1
		c-0.2,0.2-0.5,0.1-0.7,0c-0.3-0.2-0.4-0.4-0.3-0.8c0.1-0.5,0.4-0.8,0.7-1.1c1.9-1.8,4.2-3.2,6.1-5.1c0.8-0.9,2.1-0.7,3.2-1.2
		c0.4-0.2,0.6,0.2,0.9,0.4c1.7,1.6,3.4,3.2,3.8,5.6c0.2,1-0.1,2-0.2,2.9c-0.1,1-0.1,2-0.1,3c-0.1,2-0.5,3.9-0.8,5.9
		c-0.3,2.2-1,4.3-0.9,6.6c0.1,1.7,0,3.5-1.2,5c-0.3,0.4-0.2,0.9-0.3,1.3c-0.2,1.5-0.9,2.3-2.4,2.9c-2.9,1.1-5.9,1.3-8.9,1.3
		c-1.1,0-1.6,0.5-1.7,1.4c-0.3,1.6-1.1,2.8-2.1,3.9c-0.2,0.2-0.5,0.5-0.2,0.8c0.5,0.5,0.3,1-0.1,1.3c-1.1,1.2-1.5,2.8-2,4.3
		c-0.7,2-2,3.7-2.8,5.6c-1,2.4-1.5,4.8-0.6,7.4c0.1,0.4,0.3,0.7,0.3,1.1c0.5,2.8,2.1,4.6,4.8,5.4c1.6,0.4,2.9,1.3,4.5,1.7
		c1.5,0.5,3.1,0.7,4.7,0.8c0.8,0.1,1.4-0.4,1.6-1.2c0.4-2.5,1-4.9,0.1-7.4c-0.1-0.4-0.4-0.9,0.1-1.1c0.5-0.2,0.8,0.3,1,0.7
		c0.7,1.9,1.3,3.8,0.6,6c-0.4,1.1-0.3,2.5-1.1,3.5c-0.4,0.5-0.7,0.6-1.3,0.6c-2.4-0.3-4.7-0.7-6.9-1.6c-1.9-0.8-4.1-1.1-5.9-2.2
		c-1.5-0.9-3-2.1-3.6-4c-0.6-1.6-1.1-3.1-1.1-4.8c-0.1-2.2,0.3-4.4,1.4-6.4c1.5-2.7,2.7-5.5,4-8.3c0.4-0.9,0.2-1.2-0.8-1.5
		c-2.5-0.8-4.8-0.1-7.2,0.6c-2,0.6-3.9,1.4-5.9,2c-2.2,0.6-4.1,2.7-4.1,5c0,1,0,2.1,0.2,3c0.3,1.1,0.3,2.2,0.3,3.3
		c0,2.2,0.3,4.5,0.8,6.6c0.3,1.6,1,3.1,1.7,4.5c0.4,0.8,1.3,1.2,2.3,1c2.4-0.5,4.6-1.4,6.8-2.3c0.1-0.1,0.3-0.2,0.4-0.2
		c0.5-0.1,1-0.6,1.3,0c0.3,0.6-0.4,0.7-0.7,0.9c-2.8,1.8-5.9,2.5-9.3,2.3c-1.1-0.1-1.7-0.8-2.2-1.6c-1-1.7-1.4-3.7-1.8-5.6
		c-0.3-1.5-0.7-3-0.8-4.6c0-0.6-0.5-0.8-0.9-0.2c-1.2,1.5-2.8,2.5-4,4.1c-0.7,1-2,1.8-3.1,2.6c-1.6,1.2-3.1,2.6-4.4,4.1
		c-1.3,1.5-3.1,2.3-4.4,3.7c-2,2.1-4.5,3.6-6.3,5.9C2,248.1,1.3,249,0,249C0,248.2,0,247.4,0,246.7z M19.7,201.4
		c-0.6,0-1.2,0.1-1.6,0.5c-1.3,1.7-2.9,3.2-3.9,5.1c-0.5,0.9-0.8,1.9-1.2,2.8c-0.8,1.7-1.3,3.6-1.9,5.4c-0.2,0.5-0.2,1.1,0.5,1.3
		c2.4,0.6,4.9,1.1,7.4,0.7c2.1-0.3,4.1-1.1,6.3-0.6c0.4,0.1,0.7-0.2,0.9-0.4c1.1-1.4,2.7-1.9,4.2-2.5c3-1.1,6-2.3,9.2-3
		c0.3-0.1,0.6-0.1,0.7-0.5c0-0.3-0.3-0.5-0.5-0.6c-1.4-0.7-2.1-1.9-2.5-3.3c-0.5-1.7-0.4-3.3,0.9-4.8c1.3-1.5,3-2.1,4.9-2.3
		c0.5-0.1,0.9-0.1,0.8-0.7c-0.2-1.6-0.4-3.2-1.1-4.7c-0.8-1.8-2.5-2.9-3.6-4.4c-1.7-2.4-4-4-6.5-5.3c-1.6-0.8-3.3-1.5-5.1-0.4
		c-0.2,0.1-0.5,0.2-0.8,0.2c-1.8,0.3-3.5,0.8-5.1,1.6c-1.1,0.5-2,1.4-3.1,1.6c-2.2,0.3-3.7,2-5.6,2.9c-0.4,0.2-0.5,0.6-0.4,1
		c0.1,1.4,0.5,2.8,1.4,4c1.2,1.6,2.7,3,3.2,5c0.1,0.4,0.5,0.5,0.9,0.6c0.7,0.2,1.3-0.3,1.9-0.1c2.5,0.8,5.1,0.8,7.6,1.6
		c2.8,1,5.7,1.9,8.3,3.5c0.3,0.2,0.8,0.3,0.6,0.7c-0.2,0.4-0.6,0-0.9-0.1c-2.3-1.1-4.7-2.3-7.2-3.1C25.5,202.2,22.6,202,19.7,201.4z
		 M46,200.3c0.6-0.1,1-0.6,1.5-1c1.3-1.1,2.1-2.5,3.2-3.7c0.9-0.9,1.5-2.1,1.6-3.5c0.2-2.7-0.8-5.3-2.5-7.2
		c-2.6-2.9-4.7-6.2-7.1-9.3c-1.1-1.4-2.1-2.8-3.5-3.9c-1.1-0.9-2.8-1-3.8,0c-1.5,1.4-2.5,3-3.5,4.8c-0.5,0.9-0.5,1.9-0.7,2.8
		c-0.2,0.9,0,2.1-1.1,2.7c-0.3,0.1-0.1,0.4,0.1,0.5c0.3,0.1,0.6,0.3,1,0.4c2.4,0.1,4.1,1.6,5.9,2.8c2.8,1.8,4.5,4.8,6.5,7.3
		C45.3,195.1,45.3,197.8,46,200.3z M42.7,210.8c1.1,1.1,3.3,0.7,4-0.8c0.6-1.2,0.9-2.5,1.2-3.8c0.2-1.4-1.2-4.4-2.4-5.2
		c-2.7-1.6-6.2,0.1-6.8,3.1c-0.4,2.5,0.8,4.4,3.1,5.3c0.9,0.3,1.8,0.1,2.7,0.4C44,210.6,43.3,210.5,42.7,210.8z"/>
	<path d="M203.3,154.2c-4.6-0.3-9.2-0.4-13.7-1.5c-4.3-1-8.4-2.4-11.6-5.9c-1.9-2.1-3.5-4.2-4.8-6.7c-0.5-1-1.7-1.4-2.6-1.7
		c-2.4-0.7-5-1.4-7.5-1c-2,0.3-4,0-6,0.4c-1,0.2-2.1,0-3.1-0.2c-1.9-0.3-3.7,0.1-5.5,0.2c-1,0.1-1.9,0.6-2.5,1.4
		c-1.6,2-2.9,4-2.1,6.8c0.6,2.4,2.1,4.1,4.3,5.2c3.1,1.6,6.3,2.6,9.5,3.9c1.8,0.7,3.5,1.6,4.7,3.1c0.4,0.5,0.6,1.2,0.6,1.8
		c0,3-1,5.7-2.2,8.4c-0.4,0.9-0.7,1.8-1,2.8c-0.4,1.6-0.8,3.2-1.4,4.7c-0.7,1.9-1.2,3.9-2,5.8c-0.3,0.8-0.6,1.6-1,2.4
		c-0.8,1.6-0.9,3.5-1.7,5.2c-1.1,2.2-1.5,4.7-2.6,7c-0.4,0.8-0.6,1.7-0.7,2.6c-0.8,3.8-2.1,7.4-2.8,11.2c-0.3,1.6-0.8,3.3-0.5,5
		c0.1,0.9-0.4,1.8-0.3,2.7c0.1,2.4,0.3,4.8,0.8,7.2c0.5,2.2,1.2,4.3,2.2,6.3c1.2,2.2,3,3.8,5.4,4.2c1.5,0.3,2.8-0.6,4-1.6
		c1.6-1.4,2.8-3,3.7-5c1-2.5,2.9-4.5,3.8-7c0.9-2.4,2.3-4.6,3.3-7c0.9-1.9,2.2-3.6,3.1-5.5c1.1-2.2,2.5-4.2,3.7-6.3
		c0.9-1.5,2.3-1.9,3.9-1.3c0.7,0.3,0.8,0.7,0.7,1.2c-0.3,1.6-0.7,3.2-1,4.7c-0.2,1.2-0.8,2.3-0.8,3.5c0,1.4-1,2.5-1.3,3.8
		c-0.4,1.4-0.4,2.9-0.8,4.3c-0.5,1.7-0.6,3.4-0.9,5.2c-0.1,0.7,0.2,1.5,0.1,2.3c-0.3,2.4,0.1,4.8,0,7.2c0,1.2,0.7,2.3,1.2,3.5
		c0.1,0.2,0.3,0.5,0.3,0.7c0.1,1.8,1.4,2.7,2.7,3.6c1.3,0.9,2.8,1.1,4.4,1c4.5-0.5,7.1-3.4,9.4-6.9c1.5-2.3,2.3-5,3.2-7.6
		c0.9-2.6,1.4-5.4,2.3-8.1c1.2-3.6,1.7-7.4,2.8-11c0.6-2.1,1.4-4.2,1.7-6.4c0.3-2.5,1.6-4.6,2.4-7c0.2-0.6,0.5-1.2,0.5-1.9
		c0-1.7,1-3.2,1.4-4.8c0.4-1.6,1-3.3,1.6-4.9c1-2.8,2.2-5.5,3.6-8.2c0.7-1.5,2.8-2.2,4.5-2.1c1.8,0.1,3.4,0.9,5.2,1.2
		c3.2,0.5,6.3,0.6,9.5-0.4c4.4-1.4,6.6-4.4,7.5-8.6c0.3-1.3-0.4-2.6-1.2-3.6c-0.9-1.1-1.9-2-2.7-3.1c-1.2-1.6-2.8-2.5-4.8-2.9
		c-1.7-0.4-3.3-1.1-4.9-1.7c-2.3-0.7-4.6-0.7-6.9-0.4c-0.9,0.1-1.8,0-2.7-0.3c-0.2-0.1-0.4-0.1-0.4-0.4c0-0.2,0.3-0.3,0.4-0.3
		c1.4,0.2,2.9-0.3,4.3-0.1c1.1,0.2,2.3-0.2,3.5,0.1c1.6,0.4,3.2,1,4.7,1.6c1.4,0.5,2.8,0.7,4.1,1.2c1.4,0.5,2.7,1.1,3.5,2.5
		c0.3,0.5,0.5,1.1,1.2,1.1c0.1,0,0.3,0.1,0.4,0.3c0.4,1.4,1.7,2,2.3,3.2c0.4,0.7,0.5,1.2,0.2,1.9c-0.2,0.5-0.2,0.9-0.1,1.4
		c0.3,1.1-0.8,3.6-1.7,4.3c-0.5,0.4-1.1,0.9-1.3,1.5c-0.9,2.1-2.7,2.8-4.7,3.2c-0.9,0.2-1.8,0.4-2.8,0.7c-1.6,0.4-3.2,0.5-5,0.2
		c-2.4-0.5-4.8-1-7.2-1.6c-1.1-0.3-2.7,0.9-3.2,1.9c-0.7,1.5-1,3.2-2,4.6c-1.8,2.3-2.5,5-3.3,7.8c-0.5,2-1.2,4-1.8,6
		c-1,3.1-2.2,6.2-2.7,9.4c0,0.2,0,0.4-0.1,0.6c-1.8,3.6-2.1,7.7-3.4,11.4c-0.7,1.9-0.6,3.9-1.7,5.7c-0.4,0.6-0.4,1.6-0.5,2.4
		c-0.2,2.7-1.2,5.1-2.6,7.3c-0.8,1.3-0.6,2.9-1.6,4.1c-0.9,1.1-1.4,2.6-2.9,3.3c0,0-0.1,0-0.1,0c-0.3,2-2.2,1.9-3.4,2.7
		c-2.2,1.5-4.7,1.4-7.1,1.5c-0.3,0-0.6,0-0.8-0.1c-2.1-0.9-3.9-2.1-4.9-4.4c-1.5-3.6-1.9-7.3-1.7-11.2c0.1-1.8,0.2-3.6,0.2-5.4
		c0-1.6,0.5-3.3,0.6-4.9c0.2-2.5,1.3-4.7,1.7-7.1c0.3-2,1.2-3.8,1.3-5.8c0-0.3,0.3-0.9-0.2-1c-0.4,0-1,0.1-1.1,0.7
		c-0.3,1.4-0.9,2.7-2.1,3.6c-0.6,0.4,0.1,1.2-0.4,1.7c-1.1,1-1.8,2.3-2.5,3.6c-0.4,0.7-0.9,1.4-1.2,2.1c-1,2.5-2.5,4.8-3.4,7.3
		c-0.7,1.8-2.3,3.1-2.8,4.9c-0.7,2.3-2.2,3.9-3.7,5.6c-1.7,1.9-4.2,2.9-6.7,2.6c-1.5-0.1-3.1-0.8-4.5-2.1c-2.6-2.5-3.5-5.7-4.3-9
		c-0.9-3.7-0.7-7.5-0.6-11.3c0.1-3.6,1.3-6.9,2.2-10.3c0.8-3.2,1.5-6.4,2.5-9.5c1.3-4,2.5-8,4.1-11.8c0.7-1.5,1.1-3.1,1.7-4.5
		c1-2.1,0.9-4.3,1.8-6.4c0.9-2,1.6-4.1,2.3-6.1c0.5-1.3,0.3-2.8,0.9-4.1c0.1-0.3,0.1-0.6,0.3-0.8c0.4-0.4,0.3-1,0-1.4
		c-1-1-1.9-2.2-3.3-2.6c-1.6-0.4-3.1-1.2-4.7-1.8c-2.8-1.1-5.7-2.1-8.2-3.9c-1.7-1.3-2.4-3.3-2.7-5.5c-0.4-3,1.3-4.9,3.2-6.7
		c1.7-1.6,3.8-1.7,5.9-1.5c2.3,0.2,4.6,0.1,7,0.1c2.8-0.1,5.5-0.9,8.3-0.1c1.6,0.4,3.3,0.5,4.8,1.3c0.2,0.1,0.4,0.2,0.6,0
		c0.2-0.2,0-0.4,0-0.6c-0.2-1.6-0.6-3.3-0.5-4.9c0.1-1.5-0.3-3,0-4.5c0.6-2.5,1.4-4.9,3.2-6.9c1.6-1.8,3.2-3.4,5.3-4.7
		c1.2-0.8,1.1-0.9,0.1-1.8c-1.9-1.8-2.2-4.1-2.3-6.6c-0.1-2.7,1.6-4.1,3-5.9c1.3-1.7,3.3-2,4.9-1.8c1.7,0.1,3.6,0.8,5,2.1
		c1.1,1,2.2,2.1,2.7,3.5c0.3,0.8,1.1,1.4,1.6,2.1c0.1,0.1,0.3,0.2,0.3,0.3c0.3,0.4,0.3,0.9,0,1.2c-0.4,0.3-0.8,0-1-0.3
		c-0.8-1.3-2.2-2.3-2.6-3.8c-0.8-3.1-6.1-4.8-8.8-3.3c-0.9,0.5-1.4,1.3-2,2c-2.7,3.2-2.2,8.3,0.5,10.7c0.5,0.4,1,0.9,1.1,1.4
		c0.1,0.7-0.8,0.6-1.2,1c-1.2,1.1-2.7,1.8-3.8,3.1c-1.7,2-3.6,3.8-4,6.8c-0.5,3.2-0.7,6.3,0,9.5c0.5,2.4,1.6,4.7,3,6.7
		c1.7,2.4,3.6,4.6,6,6.2c1.4,0.9,2.8,1.7,4.4,2c1.9,0.3,3.6,1.2,5.5,1.4c3.2,0.3,6.4,1,9.7,0.9c4.4,0,8.9-0.9,12.8-3
		c3-1.6,5.2-4.1,6-7.5c1-4.2,0.9-8.5,0.1-12.8c-0.2-1.1-0.9-1.9-1.3-2.9c-0.2-0.3-0.4-0.6-0.3-1c0-0.4,0.2-0.6,0.6-0.8
		c0.4-0.1,0.6,0.1,0.8,0.4c1.4,2.2,2.8,4.2,2.5,7c-0.1,1.2,0.5,2.3,0.5,3.6c-0.1,2.5-0.4,5.1-1.1,7.5c-0.4,1.4-1.5,2.7-2.5,3.9
		c-1.9,2.1-4.2,3.2-6.8,4.2c-3,1-6,1.8-9.1,2C203.9,154.3,203.6,154.2,203.3,154.2z"/>
	<path d="M115.5,243.2c-4.3,0.1-7.8-4.7-7-8.8c0.2-0.9,0.7-1.4,1.4-1.9c0.3-0.2,0.9-0.4,0.7-0.8c-0.3-0.7-0.2-1.5-0.6-2.2
		c-0.1-0.2-0.3-0.2-0.5-0.1c-1.7,0.8-3.5,0.9-5.3,1.3c-1.6,0.4-1.9,0.3-2.5-1.2c-1.7-3.7-2.6-7.7-4.2-11.5c-1-2.4-2-4.7-3-7.1
		c-1.7-4.4-3.4-8.9-5.1-13.3c-0.5-1.2-1.1-2.3-1.7-3.5c-0.8-1.5-1.1-3.2-1.6-4.7c-0.5-1.7-1.4-3.1-2.1-4.7c-0.5-1.1-1-2.3-1.3-3.5
		c-0.7-2.9-2.2-5.4-3.5-8c-0.2-0.4-0.5-0.9-0.6-1.4c-0.4-3.3-2.3-6-3.5-9c-0.4-1-0.8-2.1-1.2-3.1c-1.1-3.2-3.1-5.9-4.4-9
		c-0.3-0.7-0.3-1.2,0.3-1.7c0.2-0.2,0.5-0.4,0.7-0.5c2.5-1.2,4.6-3,7.1-4.1c0.7-0.3,1.2-0.3,1.7,0.4c0.9,1.2,1.7,2.4,2.5,3.6
		c0.4,0.6,0.3,1-0.4,1.4c-1.6,0.9-2.3,3.3-1.5,5c0.7,1.4,1.4,2.8,2.8,3.7c1.6,1.1,3.1,1,4.7,0.3c2.4-1.1,3.9-3,5.1-5.2
		c0.6-1,0.3-2-0.3-3c-1-1.7-2.2-2.6-4.2-2.1c-0.7,0.2-1-0.2-1.4-0.9c-0.7-1.3-1.4-2.6-2-4c-0.4-0.9-0.1-1.6,0.6-2.1
		c0.7-0.5,1.5-1,2.4-1.1c1.5-0.3,2.7-1.1,4-2c0.5-0.3,0.5-0.6,0.3-1.1c-0.8-1.7-1.6-3.4-2.3-5.2c-0.2-0.4-0.4-0.8-0.5-1.3
		c-0.2-1-0.1-1.6,1-2.3c3.8-2.3,7.7-4.6,10.8-7.9c0.8-0.9,1.5-1,2.7-0.4c2.7,1.4,5.6,2.5,8.5,3.4c1.1,0.4,1.4,0.7,0.9,1.8
		c-0.4,0.9-1.2,1.7-1.3,2.6c-0.3,1.5-1.1,1.9-2.5,2.2c-2,0.4-3.7,3.5-3.4,5.5c0.3,1.8,3.5,4.1,5.4,3.8c1.2-0.2,2.5-0.6,3.5-1.3
		c1.5-1,1.9-2.3,1.2-3.9c-0.2-0.4-0.3-0.8-0.1-1.2c0.7-1.6,1.4-3.2,2.3-4.7c0.6-1.1,1.3-1.1,2.3-0.4c0.8,0.6,1.8,1.2,2.7,1.6
		c1.3,0.5,2.4,1.3,3.6,1.8c0.7,0.3,0.9,1.2,0.4,1.9c-0.9,1.2-1.6,2.5-2.3,3.8c-0.8,1.4-1.3,2.9-1.6,4.4c-0.4,1.7-0.9,3.4-1.6,5
		c-0.9,2.3-1.3,4.7-1.8,7.1c-0.7,3.2-1,6.5-1.6,9.8c-0.6,3.4-1,6.8-0.9,10.2c0.1,3.1,0.1,6.2,0.2,9.3c0.2,4.2,0.5,8.4,0.8,12.6
		c0.3,3.7,1.1,7.2,2.3,10.6c1.3,3.7,1.3,7.6,2.7,11.2c0.5,1.4,1,2.9,1.7,4.2c0,0.1,0.1,0.1,0.1,0.2c0.8,1.6,0.6,2.3-1,3
		c-1.3,0.6-2.7,0.9-4.2,1c-0.9,0.1-1.7,0.5-2.5,0.7c-0.5,0.1-0.6,0.5-0.5,1c0.1,0.4,0.3,0.8,0.3,1.2c0.1,0.8,0.5,1,1.3,1.1
		c2.9,0.4,4.9,3.7,4.3,6.7c-0.6,2.9-2.4,4.8-5.1,6C117,243.3,116.2,243.2,115.5,243.2z M110.3,141.4c-2,0-2.3-0.2-4.5-2.1
		c-2.4-2-2.4-4.4-1.1-6.9c0.6-1.1,1.1-2.3,2.6-2.7c1.6-0.4,3.2-0.9,3.4-2.9c0,0,0-0.1,0.1-0.1c0.5-0.9,0.3-1.3-0.7-1.6
		c-2.2-0.8-4.5-1.6-6.5-2.7c-1.1-0.6-1.5-0.3-2.2,0.3c-2.3,1.8-4.5,3.6-6.9,5.2c-0.8,0.5-1.4,1.2-2.2,1.6c-1.4,0.7-1.6,1.1-0.9,2.6
		c0.8,1.9,1.6,3.7,2.5,5.5c0.4,0.8,0.3,1.6-0.5,2c-1.6,0.8-3.2,1.8-5,2.4c-1.8,0.6-2,0.9-1.4,2.7c0.1,0.4,0.3,0.8,0.5,1.3
		c0.4,0.9,0.9,1.2,2,1.3c3.6,0.1,5.7,4,4.5,7.2c-0.9,2.4-2.7,4-4.6,5.5c-0.9,0.7-2.2,1.1-3.3,1.1c-1.9-0.1-3.8-0.4-5.4-2
		c-3-3.1-3.6-5.8-1.2-8.9c0.5-0.7,0.5-1.3,0.1-1.9c-0.2-0.3-0.4-0.6-0.6-0.9c-0.5-0.9-1.4-1.1-2.3-0.4c-1.2,1-2.6,1.6-3.9,2.5
		c-1.7,1.2-1.8,1.1-1,3.1c0.1,0.3,0.3,0.6,0.5,0.9c1.6,3.2,3.5,6.2,4.6,9.7c0.3,1.1,0.8,2.1,1.5,3.1c0.6,0.9,0.8,1.9,1,2.9
		c0.4,1.9,0.6,3.8,1.7,5.5c0.6,0.9,1.1,1.8,1.5,2.8c1.5,3.4,2.5,7,4.4,10.3c1,1.8,1.2,4,2.2,5.9c2.1,4,3.7,8.3,5.3,12.5
		c1.3,3.3,2.6,6.6,4,9.8c1.5,3.6,2.7,7.3,4,11c0.3,0.8,0.7,1.6,1.1,2.4c0.2,0.4,0.4,0.6,0.9,0.5c2-0.6,4.1-0.7,5.9-1.6
		c0.9-0.4,1.6-0.1,1.8,0.9c0.3,1,0.5,2,0.8,3c0.2,0.7,0.1,1.1-0.6,1.4c-1.3,0.5-2.1,1.6-1.9,3c0.3,2,1.2,3.8,3,5
		c0.5,0.3,1.1,0.5,1.7,0.6c2.1,0.4,3.5-0.7,4.9-2c1.7-1.6,2.4-3.7,1.7-6c-0.7-2.1-2.5-2.4-4.4-2.7c-0.8-0.1-1.3-0.6-1.3-1.4
		c0-0.9-0.2-1.8-0.7-2.5c-0.8-1.1-0.7-1.2,0.5-1.6c1.9-0.6,3.8-0.7,5.7-1c2.6-0.4,2.9-1.2,1.8-3.5c-0.8-1.7-1.4-3.5-1.7-5.3
		c-0.4-2.3-0.7-4.6-1.3-6.8c-0.9-3.2-2.1-6.3-2.5-9.6c-0.2-1.6-0.7-3.3-0.8-4.9c-0.2-2.2-0.1-4.5-0.3-6.7c-0.2-3.1-0.3-6.1-0.4-9.2
		c-0.1-2.9,0.1-5.9,0.2-8.8c0.1-1.6,0.1-3.3,0.6-4.8c0.8-2.4,0.7-4.9,1.1-7.4c0.7-4,1-8,2.6-11.8c0.9-2.2,1.3-4.6,2.2-6.8
		c0.7-1.7,1.4-3.3,2.3-4.8c0.6-0.9,0.4-1.2-0.4-1.7c-1.4-0.8-3-1.2-4.3-2.3c-0.9-0.7-1.5-0.3-1.8,0.6c-0.3,0.7-0.4,1.5-1,2
		c-0.4,0.4-0.4,0.6-0.1,1.1c0.4,0.7,0.8,1.7,0.5,2.4c-0.6,1.7-1.6,3.2-3.2,4C113.4,141.1,112,141.5,110.3,141.4z"/>
	<path d="M80.6,1.7c1.1,0,2.2,0,3.3,0c0.2,0,0.4-0.1,0.5,0.2c0,0.2-0.2,0.3-0.3,0.4c-0.3,0.2-0.7,0.2-1,0.2c-2.5,0-5,0-7.4,0.2
		c-1.5,0.1-2.8,0.7-4.2,1.1c-1.7,0.5-3.4,1-5.1,1.7c-0.3,0.1-0.6,0.2-0.6,0.6c0,0.4,0.4,0.5,0.7,0.5c0.7,0.1,1.4,0.4,2.2,0.2
		c0.3-0.1,0.6-0.2,0.9-0.1c2,0.7,3.1-0.5,4.3-1.7c0.1-0.1,0.2-0.2,0.3-0.2c0.4-0.4,1-0.8,1.4-0.4c0.4,0.4-0.3,0.8-0.6,1.1
		c-0.9,1-1.6,2.3-3,2.7c-0.4,0.1-0.3,0.5-0.3,0.9c0.1,1.1,0.7,2.2,0.4,3.4c-0.1,0.7,0.4,1.3,1.2,1.5c1.9,0.5,3.5,1.5,5.3,2.2
		c1.9,0.7,3.5,2,5.5,2.7c0.7,0.2,1,0.9,1.6,1.3c1.1,0.9,1.5,0.8,2.6,0.1c1.1-0.7,1.9-1.6,3.4-1.8c1-0.1,2.2-0.8,3.1-1.5
		c0.7-0.5,0.6-1.4,0.7-2.1c0.5-2.1,0.3-4.3,0.2-6.4c0-0.4,0-0.8,0.1-1.2c0.2-1.1-0.3-1.6-1.3-1.8c-2-0.4-4-0.3-6-0.5
		c-0.8-0.1-1.6-0.3-2.5-0.4c-0.1,0-0.3-0.2-0.3-0.3c0-0.1,0.1-0.3,0.2-0.4c0.6-0.2,1.2-0.6,1.9-0.3C88.3,3.5,89,4,89.4,3
		c0-0.1,0.4,0,0.5,0c1.4,0.3,2.8,0.5,4.2,0.6c1.2,0.1,2.3,0.8,3.4,1.2c2.9,1.2,5.6,2.8,8.2,4.6c0.8,0.6,1.3,1.2,1.5,2.2
		c0.1,0.5,0.3,0.9,0.7,1.2c1,0.5,1.5,1.4,2,2.4c1.1,1.9,2.1,3.8,3.2,5.8c0.5,1,1,2.1,0.9,3.4c0,0.2-0.1,0.4,0,0.6
		c0.8,1.4,0.8,2.9,1.1,4.4c0.1,0.7,0.2,1.3,0.2,2c-0.1,2.8-0.2,5.6,0.2,8.4c0.1,0.8-0.5,1.4-0.4,2.2c0.4,2.9-0.5,5.6-1.5,8.2
		c-1.5,3.6-3.2,7.2-6,10c-2.5,2.6-5.5,4.8-8.7,6.6c-2,1.1-4,2.3-6.3,2.9c-3.7,0.9-7.3,2.1-11.2,1.9c-2.1-0.2-4.2-0.4-6.3-0.7
		c-1.6-0.3-3.2-0.4-4.7-0.7c-3-0.7-5.6-2-8.3-3.5c-3.2-1.9-5.9-4.3-8.4-7c-1.2-1.3-2.2-2.9-3-4.5c-1.1-2-2.1-4-3-6.1
		c-0.6-1.5-1-3-1.4-4.6c-0.4-1.6-1-3.3-1-5c0-2.3,0.3-4.5,0.7-6.7c0.4-2.1,0.8-4.2,1.4-6.2c1.1-3.5,2.9-6.8,5-9.8
		c1.8-2.6,4-4.9,6.4-7.1c0.9-0.8,1.7-1.6,2.6-2.4c1.3-1,2.7-1.7,4.2-2.2c3.6-1.2,7.2-2.6,11-3c1.3-0.1,2.6-0.1,3.9-0.2
		C80.6,1.6,80.6,1.6,80.6,1.7z M59.3,38.7c0.5,0.1,1.1-0.4,1.5,0c1.1,1,2.5,0.7,3.7,1c1.1,0.2,2.2,0.3,3.2,1
		c1.3,0.9,2.7,1.6,4.1,2.4c0.4,0.2,0.8,0.2,1.3,0.1c1.2-0.3,1.9-1.2,2.9-1.8c1.7-1,3.5-1.8,5-3.2c1.3-1.1,2.6-2.1,4.1-3
		c0.7-0.4,1.3-0.8,1.2-2c0-1.1-0.1-2.2,0-3.4c0.3-2.8-0.1-5.6-1-8.3c-0.1-0.3-0.3-0.6-0.6-0.8c-3.8-2.6-7.9-4.6-12.1-6.4
		c-0.3-0.1-0.6-0.2-0.8,0c-0.5,0.6-1.3,0.7-1.9,1.2c-1.9,1.7-4.2,2.8-6.2,4.3c-1.1,0.9-2.3,1.7-3.1,2.8c-1.1,1.4-0.7,3.2-0.5,4.8
		c0.1,0.5,0.2,1.1,0.2,1.7c0.3,1.9-0.4,3.8-0.5,5.6c0,0.7,0.1,1.6-0.5,2.2c-1.5,1.5-2.7,3.3-3.6,5.2c-0.5,1-0.9,1.9-1.6,2.8
		c-0.3,0.4-0.4,1.2-0.1,1.4c1.1,0.8,1,2.3,1.9,3.2c1.4,1.3,2.4,3,3.9,4.2c0.1,0.1,0.3,0.3,0.4,0.4c0.2,1.5,1.3,2.5,2.1,3.6
		c0.6,1,1.5,1,2.4,0.6c1-0.5,1.9-1.1,2.9-1.6c1.4-0.6,2.7-1.6,4.2-1.9c0.6-0.1,0.8-0.4,0.8-1c0-1.9-0.2-3.8-0.5-5.8
		c-0.1-0.9-0.2-1.7-0.4-2.6c-0.2-1.4-1.5-1.8-2.5-2.5c-1.8-1.2-3.8-2.2-6-2.5C61.9,40.3,60.5,39.8,59.3,38.7z M82.6,70.4
		c1.1-0.2,2.3-0.2,3.4-0.3c0.7,0,1.5-0.4,2.2-0.6c0.8-0.2,1.1-0.4,0.6-1.3c-0.6-1-0.9-2.2-0.9-3.4c0-2.7-0.9-4.1-3.5-4.9
		c-0.3-0.1-0.5-0.1-0.8-0.2c-3.1-0.9-6.3-1.8-9.4-2.7c-0.3-0.1-0.7-0.1-0.6-0.5c0.1-0.4,0.4-0.5,0.7-0.4c0.5,0,1,0.1,1.5,0.3
		c3.2,1.1,6.4,2.2,9.8,2.9c1.9,0.4,3.1,0.2,4.3-1.3c0.8-1,1.5-2.1,2.7-2.8c0.9-0.5,1.7-1.3,2.3-2.2c0.5-0.7,1.2-1.2,2.2-0.9
		c0.7,0.2,0.8,0,0.7-0.7c-0.1-0.7-0.4-1.4-0.5-2.1c-0.5-2.7-0.9-5.4-1-8.1c0-1.5-0.3-3.1-1.4-4.1c-1.9-1.7-4.5-1.7-6.9-2.3
		c-0.9-0.2-1.6,1-2.4,1.3c-0.3,0.1-0.6,0.4-0.8,0.6c-1.4,1.1-2.7,2.2-4.2,3.1c-2.3,1.4-4.7,2.9-6.9,4.4c-0.5,0.4-0.7,0.7-0.5,1.3
		c0.2,0.9,0.5,1.8,0.5,2.8c0.1,1.8,0.5,3.6,0.4,5.4c0,0.7-0.2,1.5-1,1.6c-2.1,0.3-3.9,1.5-5.6,2.6c-2.6,1.6-2.9,1.2-2.5,4.4
		c0.1,0.8,0.1,1.5,0,2.3c-0.2,1,0.2,1.7,1.2,2.2c2.8,1.2,5.7,2,8.7,2.5C77.3,69.8,79.9,70.3,82.6,70.4z M114.1,35.5
		c0.1-1.5,0.2-3-0.1-4.4c-0.1-0.5-0.3-0.8-0.9-0.8c-0.8,0.1-1.5-0.2-2.2-0.5c-1.3-0.6-2.7-1-4-1.5c-0.5-0.2-1.2-0.4-1.7-0.1
		c-1.5,1-2.9,2.1-3.9,3.6c-0.6,0.9-1.1,1.8-2,2.5c-0.8,0.6-1.3,1.6-2.2,2.2c-0.4,0.3-0.5,0.9-0.4,1.4c0.4,1.4,0.4,2.8,0.4,4.2
		c-0.1,1.6-0.2,3.2,0.5,4.7c0,0.1,0,0.2,0,0.2c-0.2,2,1,3.7,1.3,5.6c0.1,0.4,0.4,0.6,0.8,0.8c0.6,0.2,1.2,0.4,1.9,0.5
		c1.3,0,2.2,0.7,2.3,1.8c0.2,1.4,0.7,2.6,1,4c0,0.2,0.3,0.5,0,0.7c-0.3,0.2-0.5-0.1-0.7-0.3c-0.3-0.2-0.5-0.6-0.5-1
		c-0.1-1.3-0.8-2.4-1.1-3.6c-0.1-0.5-0.5-0.7-1-0.8c-1.2-0.4-2.5-0.6-3.7-1.2c-0.8-0.4-1.3-0.1-1.8,0.5c-0.7,1.1-1.9,1.8-3,2.4
		c-0.4,0.2-0.9,0.4-1,0.8c-0.4,1.4-1.5,2-2.5,2.8c-0.9,0.7-1.9,1.5-1.2,3c0.4,0.9,0.6,1.9,0.6,2.9c0,1.1,0.7,1.9,1,2.9
		c0.1,0.2,0.3,0.2,0.6,0.2c1.4-0.1,2.9-0.4,4.2-1c3-1.3,5.9-2.9,8.6-4.9c2.6-1.9,4.8-4.1,6.3-7c0.8-1.5,1.4-3.2,2.3-4.7
		c1.2-2.1,1.8-4.3,2-6.6C114.3,41.7,114.1,38.6,114.1,35.5z M46.5,37.7c0.1,1.7,0.5,3.6,0.8,5.5c0.8,5,3.2,9.3,6,13.3
		c2.4,3.4,5.4,6.3,9.1,8.5c0.4,0.2,0.7,0.8,1.2,0.6c0.5-0.3,0.2-0.9,0.2-1.4c0.1-2.2-0.1-4.3-2.1-5.7c-0.2-0.1-0.3-0.4-0.5-0.7
		c-1.3-2-2.6-3.9-4-5.8c-0.9-1.2-2.1-2.1-2.8-3.5c-0.9-1.6-1.8-3.2-3.6-3.9c-0.4-0.2-0.8-0.5-1.1-0.8c-0.2-0.2-0.7-0.4-0.4-0.8
		c0.3-0.4,0.7-0.2,1,0.1c0.7,0.6,1.6,0.8,2.4,1.3c0.4,0.2,0.6,0.2,0.8-0.2c0.8-1.3,1.6-2.6,2.4-3.8c1.4-2.3,3.4-4.3,3.5-7.2
		c0-0.6,0.3-1.2,0.2-1.8c-0.2-2.2-0.4-4.4,0-6.5c0.3-1.6-0.4-2.5-1.5-3.3c-1.2-0.8-2.4-1.6-3.7-2.2c-0.3-0.1-0.7-0.3-0.7-0.7
		c0-0.2,0.3-0.4,0.5-0.4c0.4-0.2,0.8,0.1,1,0.4c0.3,0.8,0.9,0.9,1.6,1c0.5,0.1,0.9,0.4,1.3,0.6c0.8,0.3,1.1,1.4,2,1.3
		c1-0.1,1.3-1.1,2-1.6c2.7-2,5.6-3.7,8.4-5.4c0.2-0.1,0.4-0.2,0.3-0.4c-0.3-0.7,0.2-1.4-0.1-2c-0.6-1-0.5-2.2-0.5-3.2
		c0-0.7-0.2-0.9-0.9-0.9c-1.5,0.1-3,0-4.4-0.8c-0.9-0.6-1.8-0.3-2.7,0.4c-1.4,1.2-2.8,2.5-4.1,3.8c-2.1,2.2-4.3,4.4-5.8,7.2
		c-1.9,3.4-3.8,6.8-4.6,10.8C47.1,31.9,46.6,34.6,46.5,37.7z M87.3,28.1c0.1,1.4,0.3,3.2,0.4,5c0,0.7,0.4,1.1,1,1.2
		c2.2,0.4,4.2,1.1,6.2,2c0.4,0.2,0.7,0.1,1.1-0.2c2.4-2.4,4.4-5.2,6.8-7.6c1.3-1.3,1.2-1.3,0-2.7c-0.2-0.2-0.4-0.5-0.6-0.7
		c-1.7-2.3-3.7-4.5-5.7-6.5c-0.6-0.6-1.1-0.7-1.9-0.5c-2.6,0.8-5,2.1-7.3,3.6c-0.4,0.3-0.6,0.6-0.5,1.1C87.1,24.4,87.2,26,87.3,28.1
		z M113,25.2c0.1-0.4-0.1-0.9-0.3-1.3c-0.2-0.9-0.9-1.6-1.3-2.4c-2.3-4.8-4.7-9.6-9.4-12.6c-1.3-0.8-2.7-1.7-4.2-2.3
		C97.4,6.3,96.9,6.3,97,7c0.6,3.2-0.4,6.5,0.2,9.8c0.2,1.1,0.5,1.9,1.2,2.7c1.1,1.3,2.6,2.4,3.4,4c0.6,1.2,1.6,2,2.4,2.9
		c0.3,0.4,0.8,0.5,1.3,0.7c2,0.7,4.1,1.1,6,2.2c0.5,0.3,1.3,0.6,1.9,0.2c0.6-0.4,0.2-1.1,0.1-1.6C113.4,27,112.9,26.2,113,25.2z"/>
	<path d="M165.3,38.5c3,0,4.1-1.1,5.3-4.3c0.3-0.9-0.1-1.8-0.8-2.4c-1.2-0.9-0.8-2-0.4-3c0.7-1.6,1.6-3,2.2-4.7
		c0.2-0.6,0.6-0.7,1.2-0.3c2.6,1.6,5.1,3.4,8.2,4c1.3,0.3,1.6,0.9,1.1,2.1c-1.1,2.6-2.6,5-4.1,7.4c-1.3,2.2-2.7,4.4-3.8,6.7
		c-0.4,0.8-0.8,1.6-1.3,2.4c-1.6,2.6-3.1,5.3-4.9,7.8c-2.3,3.3-4.5,6.7-6.5,10.2c-1.1,1.9-2.2,3.7-3.1,5.7
		c-2.5,5.4-4.8,10.8-8.1,15.7c-4.2,6.4-7.9,13.2-11.7,19.8c-0.9,1.6-2.1,3.1-3.1,4.7c-0.2,0.3-0.4,0.5-0.9,0.1
		c-2.5-2-5.5-2.9-8.3-4.2c-0.4-0.2-0.7-0.1-0.8,0.3c0,0.1-0.1,0.2-0.1,0.3c-1.3,1.8-1,3.5,0,5.4c1.4,2.9,0.8,6.1-1.2,8.1
		c-0.9,1-2.3,1.3-3.4,1.4c-2.4,0.3-4.7-0.2-6.7-1.8c-1.3-1.1-2.5-2.2-2.9-3.9c-0.5-2.5-1.2-5.1,1-7.1c1.2-1.1,2.4-2.5,4.4-2.4
		c0.7,0,1.1-0.6,1.3-1.1c0.3-0.8,0.7-1.4,1.2-2c0.7-0.8,0.6-1.4-0.4-1.8c-2.8-1-5.2-2.6-7.8-4c-0.9-0.5-1.7-1.3-3-1.3
		c-0.7,0-1.1-0.7-0.6-1.5c2-3.2,3.2-6.8,5.2-10c2.1-3.5,4-7,6-10.6c0.9-1.6,1.6-3.5,2.5-5.1c0.9-1.7,1.8-3.5,2.8-5.2
		c2-3.6,4.3-7.1,5.9-10.9c1.1-2.7,2.7-5.1,4.8-7.3c1.4-1.4,2.4-3.3,3.6-4.9c1.9-2.6,3-5.5,4.9-8.1c1.2-1.6,2.2-3.4,3.1-5.1
		c1.1-2,2.5-3.8,3.8-5.8c0.9-1.3,1.5-2.8,2.2-4.2c0.4-0.9,0.7-2.1,2.1-2c0.5,0,0.7-0.7,1.3-0.6c0.6,0.1,1.2,0.2,1.7,0.7
		c2.5,2.4,5.7,3.7,8.7,5.3c1.2,0.6,1.3,0.7,0.6,1.8c-1,1.7-2,3.4-2.5,5.2c-0.4,1.2-0.6,1.3-1.6,0.5c-1.1-0.8-2.2-0.7-3.2,0.2
		c-1.7,1.7-2.2,4.6-1.2,6.4c0.1,0.2,0.3,0.4,0.5,0.6C159.6,37,163.8,38.6,165.3,38.5z M165.4,39.9c-0.9,0-1.7,0.1-2.2-0.1
		c-1.7-0.9-3.7-1.3-5.2-2.5c-1.3-0.9-2.1-2.2-1.9-3.8c0.3-2.3,1.2-4.3,3-5.9c1-0.8,2.2-1.3,3.5-0.5c0.5,0.3,0.6,0.1,0.8-0.3
		c0.5-1.1,1.1-2.2,1.7-3.2c0.4-0.8,0-1.2-0.7-1.5c-2.9-1.3-5.5-2.9-7.9-4.9c-0.9-0.7-1.8-0.6-2.5,0.3c-0.5,0.6-0.6,1.3-1,1.9
		c-2,3.4-4.1,6.7-6.1,10.1c-1.7,2.8-3.5,5.6-5.1,8.4c-1.9,3.3-3.8,6.5-6.3,9.4c-1.5,1.7-2.9,3.5-3.8,5.7c-1,2.8-2.5,5.4-3.9,8
		c-2.4,4.3-4.9,8.5-7.1,12.9c-1.9,3.8-4,7.5-6.2,11.1c-1.9,3.1-3.2,6.5-4.8,9.7c-0.3,0.6-0.1,0.8,0.5,1.1c1.2,0.5,2.5,0.7,3.4,1.5
		c1.6,1.3,3.5,2.2,5.4,3c2.7,1,2.8,1.1,1.4,4.1c-0.1,0.1-0.2,0.3-0.2,0.4c-0.5,0.8-1.1,1.6-1.5,2.5c-0.2,0.5-0.5,1.4-1.3,1.3
		c-1.5-0.3-2.6,0.5-3.8,1.3c-0.8,0.6-1.4,1.5-1.4,2.5c-0.1,3.5,1.4,6.1,4.6,7.8c3.2,1.7,6.4,0.5,7.7-1.9c1.3-2.3,0.6-4.4-0.8-6.3
		c-0.7-1-0.8-1.8-0.4-2.8c0.5-1.3,1-2.5,1.3-3.9c0.2-1.2,0.8-1.4,1.8-0.6c0.8,0.7,1.6,1.1,2.6,1.4c2,0.7,4,1.3,5.7,2.7
		c0.7,0.5,1.2,0.4,1.6-0.3c1.6-2.3,3.1-4.7,4.5-7.2c2.2-4.1,4.5-8.2,7-12.2c1.5-2.5,3.2-4.9,4.5-7.6c2-4,3.8-8.1,5.7-12.1
		c2.9-6.3,6.8-12,10.6-17.8c1.5-2.3,3-4.5,4.2-7c1.3-2.7,2.8-5.3,4.3-7.9c1.2-2.1,2.4-4.2,3.6-6.3c0.5-0.9,0.2-1.3-0.7-1.4
		c-1.6-0.2-2.9-0.8-4.2-1.7c-0.8-0.6-1.6-1.1-2.5-1.5c-0.6-0.3-1-0.2-1.3,0.4c-0.5,1-1,2.1-1.5,3.1c-0.2,0.4-0.3,0.9,0.1,1.3
		c1,0.8,1,1.8,1,2.9c0,1.8-0.8,3.3-1.7,4.8c-0.5,0.9-1.3,1.4-2.3,1.6C166.8,39.7,165.9,39.8,165.4,39.9z"/>
	<path d="M248.1,135c0.1-1.8,0.4-3.3,0.1-4.9c-0.2-1.5-0.7-2.7-1.9-3.4c-2.4-1.4-2.8-3.8-3.4-6.1c-0.6-2.2-1.4-4.3-2.6-6.3
		c-1.1-1.7-2.1-3.4-2-5.6c0.1-3.9-0.3-7.8-1.7-11.4c-0.5-1.3-0.9-2.7-1.8-3.7c-0.7-0.8-1.4-1.6-1.7-2.6c-0.4-1.1-0.9-2-1.3-3
		c-1-2.4-2.4-4.6-3.5-6.9c-1.1-2.2-1.3-4.6-1.4-6.9c0-0.9-0.2-1.5-1.2-1.7c-2.1-0.5-3.9-1.8-5.8-2.6c-2.7-1.1-5.2-2.6-7.4-4.6
		c-1.5-1.3-2.9-2.8-4.6-3.9c-0.2-0.1-0.4-0.3-0.4-0.5c-0.2-1.6-1.5-2.6-2.3-3.9c-0.8-1.2-1.6-2.3-2.4-3.6c-0.3-0.6-0.6-1.1-0.8-1.7
		c-0.4-1.2-1.4-2.1-1.9-3.2c-0.8-1.7-2.1-3.3-2.4-5.1c-0.5-2.9-1.8-5.6-1.1-8.7c0.4-2.1,0.1-4.3,0.8-6.3c0.5-1.5,0.1-3.1,0.9-4.6
		c0.8-1.6,1.4-3.3,2.9-4.5c0.9-0.7,2-1.4,2.5-2.5c0.1-0.3,0.4-0.5,0.7-0.5c1.2,0,2-0.8,2.9-1.4c0.2-0.1,0.3-0.3,0.4-0.3
		c3.5-0.9,6.7-3.1,10.6-1.6c0.6,0.2,1.5,0,2,0.3c2,0.9,4.4,0.3,6.3,1.4c0.9,0.5,2-0.1,2.8,0.8c0.3,0.4,0.8,0.4,1,1
		c0.1,0.4,0.6,0.8,1.2,0.8c0.2,0,0.5,0,0.5,0.1c0.5,1.2,2.1,1.6,2.4,3c0.1,0.3,0.2,0.5,0.3,0.7c0.6,0.9,1,1.9,1.4,2.8
		c0.8,1.9,0.9,3.9,1.7,5.7c0.5,1.4,0.7,2.9,0.8,4.4c0.1,2.4-0.3,4.8,0.1,7.3c0.2,1.5-0.1,3.2-0.5,4.7c-0.2,0.7-0.1,1.5-0.2,2.2
		c-0.2,3.2-1,6.1-2.3,9.1c-1.1,2.7-2.4,5.3-3.3,8.1c-0.5,1.6-1.1,3.2-2.2,4.7c-1.5,2-1.7,4.2-0.9,6.7c0.4,1.4,0.9,2.7,1.4,4.1
		c0.2,0.6,0.8,0.9,0.9,1.5c0.4,1.9,1.8,3.2,2.5,4.9c1.4,3.5,3.7,6.7,4.9,10.3c0.5,1.4,0.6,2.9,0.8,4.4c0.3,2.4,0.7,4.7,0.5,7.2
		c-0.1,1.6,0.5,3.1,1.8,4.4c1,1,1.4,2.5,1.9,3.9c0.6,1.8,0.8,3.7,1.3,5.5c0.3,0.9,0.9,1.5,1.7,1.9c1.2,0.6,2.5,1.3,2.6,2.8
		c0.1,1.6,0.4,3.2-0.2,4.8c-0.3,0.9,0,1.9,0.1,2.8c0.2,1.2,0.9,2.4,0.4,3.6c-0.1,0.2-0.1,0.5-0.4,0.5c-0.3,0.1-0.4-0.2-0.5-0.4
		C248.6,137.5,247.9,136.2,248.1,135z M236.6,35.6c0.2-1.8-0.2-3.4-0.6-5c-0.6-2.9-1.5-5.8-2.7-8.6c-1.2-2.7-3.3-4.2-5.8-5.3
		c-2.4-1.1-5.1-1.7-7.7-2c-2.9-0.4-5.9-0.9-8.8,0.3c-1.4,0.6-2.9,1.1-4.3,1.7c-2.7,1-4.6,3.1-6.1,5.2c-2,2.8-2.5,6.4-2.7,9.9
		c-0.1,2.2-0.1,4.4,0.1,6.5c0.2,1.9,0.2,3.9,1.2,5.7c0.9,1.6,1.5,3.3,2.5,4.9c1.8,2.8,3.4,5.7,5.4,8.3c0.7,0.8,0.9,1.9,1.6,2.7
		c1,1.2,2.2,2,3.3,3c2.3,2.1,4.7,4.2,7.8,5.2c2.4,0.8,4.5,2.3,7.1,2.6c0.5,0.1,0.9,0,1.2-0.4c1-1.2,1.8-2.6,2.2-4.1
		c0.6-1.9,1.5-3.7,2.1-5.6c0.2-0.6,0.4-1.2,0.7-1.7c1.2-2.1,2.2-4.4,2.7-6.8c0.4-1.7,0.4-3.5,0.5-5.3c0.1-1.4,0.8-2.8,0.5-4.3
		C236.5,40.3,237.1,37.8,236.6,35.6z"/>
	<path d="M68.6,136.3c-5.6,0.2-7.3-4.6-6.5-8.7c0.2-1,0.9-1.7,1.5-2.4c0.7-0.9,0.6-2.3-0.1-3.2c-0.3-0.4-0.6-0.3-1-0.2
		c-2.7,1-5.3,2.2-8.1,3.1c-0.3,0.1-0.5,0.5-0.8,0.7c-0.3,0.2-0.6,0.6-1,0.3c-0.3-0.2-0.5-0.6-0.4-1c0.3-1-0.1-1.8-0.4-2.6
		c-2-4.6-4.8-8.8-7.9-12.7c-2.1-2.7-4.4-5.2-6.8-7.8c-2.9-3.2-6.3-5.9-9.8-8.4c-1.9-1.3-3.6-2.8-5.6-3.9c-2.9-1.6-5.8-3.1-8.7-4.5
		c-2.1-1-2.4-1.5-1.1-3.9c1.1-2.1,2.6-4,3.2-6.3c0.1-0.4,0.5-0.6,0.8-0.3c1.6,1.1,3.5,1.2,5.1,2.1c0.8,0.4,1.4,1,1.6,2
		c0.4,2.3,2.5,3.4,4.7,2.5c2.4-1,3.7-2.9,4.4-5.4c0.1-0.3,0.1-0.6,0.2-0.9c1.4-2.7-1.5-5.2-3.7-5.3c-1.2-0.1-2.4,0-3.3,0.9
		c-0.6,0.5-1.3,0.4-1.9,0.1c-1.4-0.7-2.7-1.4-4.2-1.9c-0.8-0.3-0.5-0.8-0.2-1.3c0.7-1.3,1.6-2.6,2.3-4c0.6-1.2,1.2-2.5,1.8-3.8
		c0.2-0.5,0.5-1,1-1.2c0.3-0.1,0.5-0.3,0.6-0.6c0.2-1,0.8-1,1.6-0.7c4.8,1.6,9,4.3,13.3,6.8c1.2,0.7,2.4,1.3,3.6,1.9
		c2.4,1.2,4.6,2.8,6.7,4.3c2.1,1.5,4.3,2.8,6.4,4.4c4,3.2,7.7,6.7,10.9,10.7c1.3,1.6,2.7,3.1,3.9,4.8c2.4,3.2,4.3,6.6,6,10.2
		c1.8,3.7,3,7.6,4.7,11.3c0.5,1.1,0.1,2.1-1,2.4c-2.3,0.6-4.3,1.8-6.3,2.9c-1.1,0.6-2.4,0.6-3.5,1c-1.6,0.7-1.4,0.6-1.1,2.2
		c0.3,1.4,1,1.7,2.3,1.9c4.5,0.5,7.2,6.2,5.2,10.2c-1,2-2.9,3.1-4.9,3.8C70.9,136.3,69.7,136.5,68.6,136.3z M76.4,128.9
		c0.2-3.4-2.3-6-5.7-5.9c-1,0-1.6-0.5-1.9-1.2c-0.5-1.1-1-2.3-1.4-3.5c-0.2-0.6,0.1-1.2,0.8-1.3c3.4-0.6,6.4-2.2,9.5-3.5
		c0.6-0.3,1.3-0.5,1.9-0.8c0.8-0.5,1-1.1,0.6-2c-0.7-1.5-1.4-3.1-1.9-4.6c-1.2-3.4-2.7-6.7-4.5-9.7c-1.9-3.2-4.2-6-6.5-8.9
		c-4.5-5.7-9.7-10.6-15.7-14.6c-4-2.7-8.1-5.3-12.4-7.5c-4.2-2.2-8.2-4.7-12.6-6.4c-1.8-0.7-1.8-0.7-2.4,1c-0.1,0.3-0.2,0.6-0.4,0.8
		c-1,2.1-1.8,4.3-3,6.3c-0.2,0.4-0.5,0.9-0.1,1.1c0.9,0.5,2,1.1,3,0.9c1-0.2,2-0.4,3-0.6c3.2-0.7,6.2,1.3,7.1,4.4
		c0.3,1.2-0.1,2.1-0.4,3.1c-0.6,2.9-1.9,5.3-5.1,6.1c-2.7,0.7-6.9-0.2-7.6-4.1c-0.1-0.5-0.2-0.8-0.7-0.9c-0.9-0.3-1.8-0.5-2.7-0.8
		c-0.5-0.2-0.9-0.1-1.2,0.5c-1,1.8-2,3.6-2.7,5.5c-0.3,0.8-1.3,2,0.8,1.7c0.3,0,0.6,0.2,0.7,0.5c0.1,0.2,0.1,0.5,0.4,0.5
		c1.2,0,2.1,0.9,3,1.4c3.8,2,7.5,4.2,10.9,7c1,0.8,2.2,1.4,3.1,2.3c1.3,1.4,3.1,2.3,4,4c0.1,0.1,0.2,0.2,0.4,0.2
		c0.8,0.2,1.2,0.9,1.6,1.6c0.3,0.5,0.7,1,1.1,1.3c1.9,1.6,3.5,3.6,5,5.5c1.9,2.5,4,4.8,5.4,7.6c1.3,2.5,2.9,4.9,3.2,7.8
		c0.1,0.6,0.4,0.6,0.8,0.4c2.3-1,4.7-1.8,6.8-3c2.9-1.7,3-2,4.3,1.5c0.6,1.7,0.5,3.1-0.8,4.2c-2.3,1.9-0.8,6.8,1.6,7.9
		c2.5,1.1,4.8,0.7,7.1-0.2C75,133.4,76.6,131.7,76.4,128.9z"/>
	<path d="M59.1,226.2c2.7-0.7,5.8-0.7,8.8-1.4c1.9-0.4,3.8-0.5,5.7-0.9c2.7-0.6,2.4-1.2,2.2-3.1c-0.5-3.2-2.1-6-3.4-8.9
		c-0.1-0.2-0.3-0.4,0-0.6c0.2-0.1,0.4,0.1,0.6,0.2c1.1,0.7,1.4,2.1,2,3.1c1.2,2.3,2.2,4.7,2.6,7.4c0.2,1.6-0.6,2.6-2.2,2.8
		c-2.6,0.3-5.1,0.7-7.7,1.2c-4.1,0.8-8.3,1.5-12.5,0.7c-2-0.3-3.6-1.1-5.2-2.2c-1.5-0.9-2.1-2.5-2.7-4.1c-0.8-1.9,0.1-3.6,0.4-5.4
		c0.1-0.6,0.5-0.6,1-0.4c0.4,0.2,0.8,0.3,0.5,0.9c-1,2.3-0.7,4.5,0.3,6.8c0.7,1.7,2,2.4,3.6,2.8C54.9,225.8,56.8,226,59.1,226.2z"/>
	<path d="M48.2,212.7c1.3,0.9,2.6,1.8,4,1.9c2.6,0.3,5.1,0.6,7.6-0.4c3.4-1.3,6.7-2.9,9.7-5c3.3-2.4,6.2-5.1,7.1-9.4
		c0.4-1.7,1.1-3.3,1.1-5.1c0-1.7-0.8-2.9-2.5-3.2c-2.5-0.5-5.1-1-7.7-0.7c-0.5,0.1-0.9-0.2-0.9-0.7c0-0.5,0.5-0.5,0.9-0.5
		c2,0.2,4.1,0.2,6.1,0.5c1.8,0.3,3.7,0.7,4.7,2.6c0.2,0.4,0.4,0.7,0.4,1.2c0.4,1.9-0.1,3.7-0.7,5.4c-0.6,2-1.5,3.7-2.3,5.6
		c-0.4,0.9-1.3,1.2-1.8,1.8c-3.7,4.2-8.6,6.8-13.8,8.6c-3.7,1.3-7.6,0.7-11.2-1.1C48.5,213.9,48.4,213.7,48.2,212.7z"/>
	<path d="M227.6,115.8c-0.6,3-1.7,6.2-5.3,7.9c-0.2,0.1-0.5,0.4-0.7,0.1c-0.3-0.3,0.1-0.6,0.3-0.7c1.8-1.6,3-3.6,3.8-5.9
		c0.9-2.4,0.5-4.6-1.6-6.9c-3.2-3.5-9.4-2.6-12,1.1c-0.2,0.3-0.2,0.7-0.3,1.1c-0.1,0.7-0.5,0.9-1.1,0.8c-0.6-0.2-0.7-0.6-0.6-1.2
		c0.6-2.7,2.7-3.7,5-4.4c1.9-0.5,3.8-0.4,5.7-0.2c2.3,0.3,4,1.6,5.4,3.3C227.4,112.2,227.7,113.6,227.6,115.8z"/>
	<path d="M200.9,141.9c-1,1.3-2.9,2.1-4.5,1.5c-2-0.7-3.9-1.8-5-3.7c-0.2-0.3-0.6-0.8,0-1.1c0.4-0.3,0.7,0.1,0.9,0.4
		c1,1.3,2.3,2.2,3.7,2.9c1.2,0.6,2.4,0.4,3.5,0.1C200,141.9,200.4,141.5,200.9,141.9z"/>
	<path d="M195.5,110.3c1.5,0.3,3.1,0.1,4.6,0.6c0.5,0.2,1,0.3,1.4,0.7c0.3,0.4,0.9,0.5,1.4,0.5c2.1,0,4,0.6,5.7,1.6
		c0.3,0.2,0.7,0.3,1.1,0.4c0.4,0.1,0.8,0.3,0.6,0.8c-0.2,0.5-0.6,0.3-1,0.1c-1.4-0.7-2.8-1.5-4.3-2.1c-0.5-0.2-1-0.3-1.4-0.3
		c-1.9,0-3.3-1.5-5.1-1.4c-0.9,0.1-1.9-0.1-2.8-0.2c-0.3,0-0.7,0-0.6-0.4C194.9,110.2,195.3,110.3,195.5,110.3z"/>
	<path d="M195.7,123.5c-1.8-0.2-3.6-0.4-5.4-0.6c-0.3,0-0.7,0-0.7-0.4c0-0.5,0.4-0.3,0.7-0.3c2.2,0.1,4.3,0.5,6.5,0.4
		c0.3,0,0.5,0.1,0.5,0.4c0,0.4-0.2,0.4-0.5,0.4C196.4,123.5,196,123.5,195.7,123.5C195.7,123.5,195.7,123.5,195.7,123.5z"/>
	<path d="M213.9,130.1c-0.1,0.5-0.4,0.6-0.8,0.4c-0.6-0.3-1.2-0.7-1.7-1.1c-1.2-0.9-2.6-1.5-3.7-2.6c-0.2-0.2-0.5-0.3-0.4-0.6
		c0.2-0.4,0.5-0.2,0.8,0c1.5,1,3.1,2,4.6,3C213,129.5,213.6,129.7,213.9,130.1z"/>
</g>
</svg>
