<?xml version="1.0" encoding="utf-8"?>
<!-- Generator: Adobe Illustrator 18.1.1, SVG Export Plug-In . SVG Version: 6.00 Build 0)  -->
<svg version="1.1" id="Ebene_1" xmlns="http://www.w3.org/2000/svg" xmlns:xlink="http://www.w3.org/1999/xlink" x="0px" y="0px"
	 width="250px" height="250px" viewBox="-18 -60 250 250" style="enable-background:new -18 -60 250 250;" xml:space="preserve">
<g>
	<path d="M138.8-60c1.8,0.9,3.6,1.7,5.3,2.9c7.4,5.1,7.8,19,0.7,24.8c-0.8,0.6-1.7,1.6-2.6,1c-1.4-0.9-0.3-2.1,0.2-3
		c1.8-2.9,2.7-6.1,3.1-9.5c0.8-6.4-2.7-11.4-8.8-12.8c-6.3-1.4-13.2,2.4-14.9,8.2c-0.4,1.3-0.8,2.5-1.2,3.8
		c-1.1,3.4-3.1,4.2-6.8,3.6c-6.2-1.1-12.6-1.7-18.9-0.6c-2.2,0.4-3.8,0.1-5.5-2.1c-2.4-3.1-5.6-5.8-8.8-8.2
		c-3.7-2.7-8.1-2.6-11.9-0.3c-4.3,2.6-5.4,7.2-4.7,11.9c0.6,4.1,2.4,7.8,6.2,9.9c3.1,1.7,3.1,3.3,0.7,5.7
		C60.7-14.4,60.2-2.3,66.6,9.9c6.1,11.6,15.8,18.9,29.6,19.3c15,0.4,29.4-1.6,42.2-10.3c8.7-5.9,12.2-14.1,9.7-24.4
		c-1.7-6.7-2.5-14-8.1-19.2c-0.9-0.9-1.4-2-0.3-3.1c1.4-1.3,2.4-0.2,3.4,0.7c6.5,5.6,8.5,13.4,9.9,21.4c2.8,16.5-6.4,24.5-20.4,31.2
		c-13.6,6.4-28.5,7.7-43.3,6.1c-7.8-0.8-14.8-4.9-20.1-10.7c-4.3-4.7-9.4-5.3-14.6-4.2c-9.6,2-19.2,4.7-28.6,7.5
		c-4.8,1.4-8,6.2-7.4,10.7c0.6,4.9,2.7,9,7.9,10.7c5.2,1.6,10.5,2.1,15.8,2.8c1.5,0.2,3,0.2,4.5,0.5c10.6,1.8,13.6,5.4,12.3,16.1
		c-2.2,18.6-3.1,37.3-4.6,55.9c-1.2,14.8-2.1,30,2.9,44.6c2.3,6.8,5.5,12.9,11,17.7c5.6,4.7,10.7,4.1,14.9-1.9c2.3-3.3,3.1-7,4-10.8
		c3.4-14.8,6.8-29.7,10.2-44.5c0.5-2.2,1.7-4,3-5.7c1.4-1.7,3.2-2.3,5.4-1.9c2.4,0.4,2.6,2.3,3,4.1c1.2,5.7-0.3,11.3-0.2,17
		c0.2,13,1.1,25.7,6.9,37.7c2.4,4.9,5,9.2,11.2,9.4c6.4,0.2,10.7-3.3,13.9-8.4c4-6.3,4.6-13.6,5.1-20.8c0.9-12.4,0.5-24.7,0.5-37.1
		c0.1-18.4,0.7-36.7,3.5-54.9c1.3-8.5,4.4-11.2,13.1-11c7.9,0.2,15.2-1.3,21.9-5.8c9.2-6.3,9.1-17.3,0.2-23.9
		c-9.4-7-19.2-6.1-29.6-3.4c-2.8,0.8-6.7,3.5-8.3,0c-0.7-1.5,4.5-2.4,7.1-2.9c8.7-1.8,17.4-5.4,26.4-0.6c4.4,2.4,8.3,5.5,12.3,8.5
		c2.6,1.9,2.1,5.2,2.5,7.9c1,6.9-4.3,15.1-10.3,18.6c-7,4.1-14.4,5.3-22.2,5c-5-0.1-6.6,2.3-7.6,6.7c-2.5,11.1-1.8,22.6-3.1,33.7
		c-1.7,14.6,0.2,29.3-1.8,43.8c-0.2,1.6-0.1,3.3,0.2,5c1.5,11.8-1,23.1-7.1,33c-3.8,6.2-10.3,10.4-18.1,10
		c-7.7-0.4-11.6-5.8-14.3-12.4c-5.2-12.6-7.1-25.7-6.9-39.2c0-3.5-0.9-6.9,0.1-10.4c-0.4-0.1-0.8-0.2-1.3-0.3c-2,7-4.3,14-6,21.2
		c-2.5,9.8-3.4,20-7.8,29.4c-5.7,12.5-19.1,14.5-27.7,3.7c-6.5-8.3-9.6-17.9-11.2-28.1c-1.7-10.4,0.3-20.7-0.2-31.1
		c-0.5-9.9,1.9-19.7,2.4-29.4c0.6-12,2.5-23.9,1.5-36c-0.4-4.4-3.5-4.9-6.7-5.3c-7-0.9-14-1.3-20.8-3.3c-6.7-1.9-11.8-7.5-12-13.3
		c-0.3-6.9,4.3-13.4,11.9-14.7c11.4-1.9,21.6-8.6,33.6-7.6c2.3,0.2,2.5-1.2,2-2.9c-0.6-1.8-1.1-3.5-1.8-5.2
		C55.6-6,58.6-15.7,65.8-24.4c2.2-2.6,1.6-3.8-0.8-5.9c-8.3-7.6-6.4-21.3,3.4-25.7c4.4-2,8.6-0.9,12.6,0.9c1.9,0.9,4,2.1,5.2,3.8
		c5.2,7.2,12.6,7.2,20.3,6.7c0.7,0,1.4-0.3,2-0.2c5.1,1.1,8.9,1.1,9.6-6c0.3-3.4,4.5-5.6,8-7c1.9-0.8,3.7-1.4,5.6-2.1
		C134.1-60,136.5-60,138.8-60z"/>
	<path d="M107.7,13.3c-3.4-0.7-7.1-1.2-9.9-3.9c-0.7-0.7-1.6-1.5-1-2.6c0.6-1.1,1.7-0.7,2.6-0.2c4.6,2.8,9.3,4.5,14.4,0.9
		c0.3-0.2,1-0.1,1.3,0.2c0.6,0.5,0.3,1.2-0.1,1.8C113.2,11.9,110.8,13.1,107.7,13.3z"/>
	<path d="M89.9-18.8c-1.1,0-2.4,0.4-2.7-0.9c-0.4-1.6,1.1-1.9,2.2-2.1c2.9-0.6,5.9-1,8.8-1.5c1-0.2,2.2-0.4,2.5,0.8
		c0.4,1.6-1.1,1.9-2.1,2.1C95.6-19.7,92.7-19.3,89.9-18.8z"/>
	<path d="M118.4-21.5c4.7-0.7,8.5,1.8,12.7,2.9c0.6,0.2,1,0.9,0.8,1.6c-0.2,0.8-0.9,1-1.5,0.8C126.2-17.3,121.7-17.9,118.4-21.5z"/>
</g>
</svg>
