<?xml version="1.0" encoding="utf-8"?>
<!-- Generator: Adobe Illustrator 18.1.1, SVG Export Plug-In . SVG Version: 6.00 Build 0)  -->
<svg version="1.1" id="Ebene_1" xmlns="http://www.w3.org/2000/svg" xmlns:xlink="http://www.w3.org/1999/xlink" x="0px" y="0px"
	 width="250px" height="250px" viewBox="0 0 250 250" style="enable-background:new 0 0 250 250;" xml:space="preserve">
<g>
	<path d="M57.3,0.3c2.9-0.3,5.9-0.5,8.8,0c7.3,1.2,8.4,2.8,9.1,10.3c1.1,12.3,2.2,24.6,5.3,36.5c4.2,15.8,7.3,31.8,12,47.4
		c4.3,14.1,14.3,21.9,27.4,26.2c18,5.8,36.6,7.9,55.5,7.7c6.8-0.1,12.7,5.2,14.3,12.9c3.2,14.9,5.6,30.1,9.3,44.9
		c4.8,19.4,6,39.5,11.1,58.8c0.8,3-0.2,4-3.1,4.5c-8.4,1.5-10.7-0.5-12.6-8.9c-3.7-16.4-7.9-32.7-11.9-49.1
		c-3.2-13.1-7.4-26.1-9.6-39.5c-0.7-4.4-2.4-6.4-7.5-6.3c-18.9,0.6-37.8-0.7-56.7-2c-4.2-0.3-6,1.4-7.6,5.2
		c-6.9,16.1-14.2,32-21.2,48.1C73,213,66.1,228.9,59.5,245c-1.6,3.9-3.7,5.4-7.8,4.5c-1.7-0.4-3.5-0.2-5.2-0.4
		c-3-0.3-3.7-1.5-2.8-4.5c3.5-12.6,8.3-24.7,12.9-36.8c8.7-22.9,17.9-45.6,26.9-68.3c1.8-4.5,1.7-8.1-2-11.7
		c-7.9-8-9.7-19-12.8-29.2c-2-6.8-3.1-13.9-5-20.8c-2.4-8.4-3.1-17-3.6-25.7c-0.1-2.5-0.5-4.3-3.8-4.3C46.3,47.5,43,44.8,41.7,34.3
		c-1.1-9.3-1.1-18.7-2.3-28c-0.4-2.9,1.6-4.3,4.4-4.9C48.3,0.4,52.8,0.1,57.3,0.3z M43.5,9.3c0.4,5.1,1,9.6,1,14.1
		c0,4.6,0.5,9,1.6,13.4c1.9,7,3.9,8.5,11.1,7.6c4.4-0.6,6.4,0.7,6.5,5.4c0.3,12.9,1.1,25.7,6.2,37.8c0.3,0.6,0.4,1.3,0.5,2
		c2.8,14.8,6.6,29.2,17.5,40.5c1.8,1.8,1.9,3.8,0.9,6.2c-9.5,23.7-19,47.4-28.3,71.1c-4.4,11.1-8.9,22.2-11.7,33.9
		c-0.4,1.5-1.8,3.6,0.8,4.4c2.3,0.7,4.4,0.5,5.6-2.2c2-4.4,4.2-8.8,6.2-13.2c7-16.1,13.8-32.2,20.8-48.3c5.7-13,11.6-26,17.2-39
		c1.1-2.5,2.3-2.8,4.7-2.6c18.9,1.2,37.8,3,56.8,2.3c11.2-0.4,13.1,1.7,15.7,12.3c4.4,18,9.3,35.9,13.6,54c2.6,11,6.2,21.7,8,32.9
		c0.2,1.2,0.6,2.5,1.3,3.3c1.4,1.4,3.4,1.8,5.3,1.3c1.3-0.3,1.1-1.5,1-2.6c-1.6-10.5-3.1-20.9-4.8-31.4c-3.7-22.1-9.7-43.7-12.7-66
		c-1.8-13.2-4.6-15.2-18.1-15.5c-6.9-0.1-13.9-0.1-20.8-1c-16.3-2-32.3-5.1-46.3-14.5c-5-3.4-8.4-7.9-11.3-13.3
		c-6-10.9-7.3-23.1-10.3-34.8c-5-19-8.2-38.4-10.3-57.9c-0.4-3.9-2.3-5.2-5.8-6c-5.6-1.3-11.1,0.4-16.6,0.2
		C44.5,3.7,42.7,5.6,43.5,9.3z"/>
</g>
</svg>
