<?xml version="1.0" encoding="utf-8"?>
<!-- Generator: Adobe Illustrator 18.1.1, SVG Export Plug-In . SVG Version: 6.00 Build 0)  -->
<svg version="1.1" id="Ebene_1" xmlns="http://www.w3.org/2000/svg" xmlns:xlink="http://www.w3.org/1999/xlink" x="0px" y="0px"
	 width="250px" height="250px" viewBox="-18 -60 250 250" style="enable-background:new -18 -60 250 250;" xml:space="preserve">
<g>
	<path d="M67.6,7.9c1-9.5,2.2-18.9,2.9-28.4c0.6-8.1,1.5-16,4.1-24c2.9-8.8,17.2-16.5,25.4-15.4c6.9,0.8,13.5,2,18.6,7.3
		c1,1,2.1,0.9,3.3,1.1c10,2.3,16,8.6,18,18.5c2.9,14.2,2.6,28.8,4.9,43.1c1.9,11.4,4,22.7,7.7,33.7c0.6,1.9,1.8,2.3,3.4,2.4
		c10.5,0.8,20.9,2.5,31.1,4.6c13.3,2.7,26.8,6,39,12.5c6.7,3.5,8,14.7,2.6,22.1c-9.4,12.7-19,25.3-28.5,38
		c-11.4,15.3-21.2,31.6-31.2,47.8c-9,14.7-19.7,19.1-36.8,15.6c-9.7-2-19.7-0.9-29.5-1.4c-7.4-0.4-15-0.4-22.3,0.6
		c-7.7,1.1-15.4,1.2-23,1.8c-2.7,0.2-4.9-0.4-7.1-2c-12.5-9-21.2-21.2-26.3-35.4c-9.6-26.9-22.1-52.3-38-76.1
		c-6.6-9.9-4.7-15.1,6.6-18.3c0.7-0.2,1.3-0.4,2-0.5C4.6,53.7,14.8,52,25,50.1c9.5-1.8,19.2-1.2,28.6-2.9c3.5-0.6,4.9-2.2,6.5-5.2
		C65.6,31.3,65.8,19.4,67.6,7.9z M114.6,181.1c7.4,0.2,14.9,0.1,22.3,1.1c8.6,1.2,17.1,0,23.4-6.9c3.3-3.6,6.3-7.7,8.7-12
		c14.3-25.7,31.8-49.1,50-72c3.4-4.2,6.7-8.7,8.5-13.9c1.6-4.5-0.2-9.7-3.8-10.8c-8-2.6-15.8-5.8-23.8-8.3
		c-14.1-4.4-28.7-7.3-43.5-8.7c-0.7-0.1-2.1-1.1-2.3,0.6c-0.4,3.7-3.2,3-4.4,1.6c-4.2-5-9.8-4.1-15.1-4.5c-17-1.1-34-1.1-51,0.7
		C52.6,51.6,21,51.4-9.4,60.5c-5.3,1.6-6.9,4.5-3.8,9.1c5.9,8.7,11.3,17.8,16.5,26.9c7.2,12.5,13.6,25.6,18.8,39
		c4.8,12.5,10,24.5,17.9,35.2c5.7,7.7,12.3,13,22.9,12.5C80.1,182.4,97.3,180.2,114.6,181.1z M121.2-25c-0.6-6.3,1.2-13.4-1.8-20.1
		c-0.7-1.6-1.3-3.4-3.5-2.9c-6.8,1.4-13.4,4.2-17,10.1C91.8-26.1,85.6-13.8,81.2-0.5C76.5,13.8,75.4,29,70.3,43.2
		c-0.6,1.8-0.1,3,2.1,2.9c5.1-0.4,10.1-0.7,15.2-1.3c16.4-1.8,32.9-2.7,49.3-0.2c1.4,0.2,3,0.5,3.8-0.5c1.3-1.6-0.7-2.8-1.4-3.8
		C125.6,20.8,118.6-0.4,121.2-25z M72.4,12.9C76.4,1.2,79-11,85-22c5.1-9.3,8.5-19.6,18.4-25.5c3.4-2,7.4-1.8,10.7-4
		C100.9-63.7,82-54.4,78.5-41.1C73.9-23.4,73.6-5.2,72.4,12.9z M146,41c-1.4-6.4-3-12.1-3.8-18c-2.3-16-4.3-32-6-48.1
		c-0.7-7.3-1.4-15.1-7.9-20.4c-1.3-1.1-2.6-2.9-4.3-1.6c-1.3,1,0.6,2.3,0.9,3.5c0.4,1.3,0.9,2.6,0.9,3.9c0,8.3-0.4,16.6-0.3,24.9
		c0.1,5.6-0.4,11.5,1.3,16.7C131.4,15.6,136,29.3,146,41z"/>
</g>
</svg>
