<?xml version="1.0" encoding="utf-8"?>
<!-- Generator: Adobe Illustrator 18.1.1, SVG Export Plug-In . SVG Version: 6.00 Build 0)  -->
<svg version="1.1" id="Ebene_1" xmlns="http://www.w3.org/2000/svg" xmlns:xlink="http://www.w3.org/1999/xlink" x="0px" y="0px"
	 width="250px" height="250px" viewBox="-18 -60 250 250" style="enable-background:new -18 -60 250 250;" xml:space="preserve">
<g>
	<path d="M25.6,81.5c1-0.1,2.1-0.1,3.1-0.2c7.3-0.3,7.6-0.6,7.1-8.1c-0.1-0.8-0.5-1.7-0.4-2.5c0.4-3.4,0.6-6.9,1.6-10.1
		c1.4-4.7,5.6-1.4,8.4-2.1c9.3-2.4,18.7,0.1,28.1-0.2c29.3-0.9,58.6-1.4,87.8-3.4c14.2-1,28.4-1.1,42.6,0.2c4.7,0.4,9.5,0,14.3,0
		c2.6,0,4,1.4,3.4,3.9c-4.3,16.8-4.4,34.4-9.5,50.9c-8.7,28.2-20.7,54.7-42.1,76c-2.6,2.6-5.5,4.2-9.1,3.9
		c-16.1-1.5-32.1,0.8-48.2,0.2c-4.4-0.1-8.9-0.3-13.3-0.1c-7.6,0.4-13.4-2.9-17.8-8.5c-9.4-11.6-22-18.8-34.3-26.6
		c-14.6-9.3-30.6-16.2-43.9-27.4c-3-2.5-5.9-5.3-8.4-8.3c-5.7-6.6-6.7-23.2-2.1-30.6c1.5-2.5,3.8-4,6.7-4.3c8.7-1,17.4-1.8,26-2.7
		C25.6,81.4,25.6,81.4,25.6,81.5z M63.4,61.1c-5.6,0.1-11.3,0-16.9,0.5c-5.3,0.4-6.8,3.1-6.9,7.6c-0.1,4.6,0.1,9.3,0.1,13.9
		c0,1.3,0.3,2.9-2,2.5c-12.9-2.1-25.4,1.6-38,2.7c-2.1,0.2-4.5,0.6-5,3C-7,99.5-9,108-3,115.3c3.6,4.5,7.8,8.6,12.7,11.8
		c15.1,10,31.2,18.4,46.7,27.8c8.9,5.4,17.7,11,24.6,19.1c5.3,6.3,11,11.9,20,11.9c2.9,0,5.8,0.1,8.7,0.2
		c15.8,0.4,31.5-1.4,47.3-0.5c3.2,0.2,7.3,0.8,9.8-1.9c7.5-8.2,15.8-15.9,20.7-26c5.9-12.1,12-24.1,17.1-36.7
		c7.7-19,9.2-39.2,13.1-58.9c0.5-2.7-0.5-3.2-2.9-3.2c-24.7,0-49.5-1.2-74.2,0.9C114.8,62,89.1,60.6,63.4,61.1z"/>
	<path d="M126.5,26.5c1.3-5.6,1.7-11.6,1.4-17.6c-0.3-7-3.1-13.3-5.5-19.7c-6.7-17.8,1.8-39.6,18.8-47.9c0.6-0.3,1.2-0.7,1.9-0.9
		c1.5-0.5,3.4-1,4,0.8c0.6,1.8-1.5,2-2.6,2.5c-11.4,5.5-17.4,15-20.7,26.7c-1.7,5.8,0.1,11.2,1.8,16.5c3,9.6,7.5,18.8,6.8,29.3
		c-0.2,4-1,7.8-2.5,11.4c-0.4,0.9-0.9,2.1-2.1,1.9C126.2,29.4,126.7,27.9,126.5,26.5z"/>
	<path d="M152.1,44.3c-1.3-2.8-1-4.5-0.4-6c5.8-13.5,1.5-25.8-4.7-37.8c-1.5-2.9-3.6-5.5-4.5-8.6c-2-7.3,1.8-13.6,4.4-20.1
		c0.6-1.6,2.8-1.6,4.1-0.7c1.9,1.2,0.2,2.3-0.5,3.3c-2.6,4-3.5,8.5-4.6,13c-0.6,2.4,0.3,4.6,1.5,6.8c4.8,8.8,9.7,17.7,11.1,27.9
		C159.8,30.2,156.9,37,152.1,44.3z"/>
	<path d="M98.9,42.7c4.4-11.1-1-22.2-5.4-33c-3.7-9,2.5-23.5,8.6-28.9c1.1-0.9,2.3-1.4,3.8-1.4c0.9,0,1.8,0.6,1.8,1.5
		c0,0.5-0.4,1.3-0.9,1.6C94-9,94.1,5.3,99.9,17.1c4.4,9,6.1,18.1,2.4,27.7c-0.5,1.2-0.4,2.9-2.2,3C99,47.9,98.7,46.9,98.9,42.7z"/>
	<path d="M26.4,94.3c8.1-0.4,8.4-0.5,11,7.3c3.1,9,5.7,18.3,8.5,27.4c0.4,1.2,1.1,2.6-0.3,3.8c-1.1,0.9-2.3,0.8-3.3,0
		c-8.7-6.2-18.9-9.7-27.5-16.1c-3.8-2.8-5.8-6.8-7.3-10.9c-1.7-4.9,1.2-9.1,6.6-10.1C18.2,94.9,22.3,94.7,26.4,94.3z M39.6,125.9
		c-1-9.5-4.3-18.1-7.6-26.6c-0.5-1.3-1.8-1.5-3.1-1.3c-4.9,0.6-9.9,1-14.7,1.7c-3.7,0.6-4.6,2.3-2.7,6.1
		C17.4,117.6,30.3,118.9,39.6,125.9z"/>
</g>
</svg>
