<?xml version="1.0" encoding="utf-8"?>
<!-- Generator: Adobe Illustrator 18.1.1, SVG Export Plug-In . SVG Version: 6.00 Build 0)  -->
<svg version="1.1" id="Ebene_1" xmlns="http://www.w3.org/2000/svg" xmlns:xlink="http://www.w3.org/1999/xlink" x="0px" y="0px"
	 width="250px" height="250px" viewBox="0 0 250 250" style="enable-background:new 0 0 250 250;" xml:space="preserve">
<g>
	<path d="M23.4,81c1.1-2.5,4.4-2.6,5.6-4.6c-0.8-2.8-2.5-0.8-3.6-1.6c-0.3-0.7-0.6-1.4-0.9-2.3c-3.4-0.4-7,2.8-10.4-0.1
		c0.2-2.5,1.6-3,3.7-3c2,0,4,0,6-0.3c2-0.3,3.9-1.1,4.2-3.5c0.3-0.1,0.8-0.1,0.6-0.7c-0.6,0-0.5,0.4-0.5,0.8c-2.1,0-2-2.5-3.5-3.1
		c-6.6,2.7-6.6,2.7-8.7,1.1c4.3-4.4,12-3.3,15-9.3c-0.1-1.9-1.9-1.7-2.5-2.4c-1.7-0.4-1.2,2.4-3,1.4c-1.3-0.7-1.8-1.7-0.7-3.1
		c4.5-6.2,9.1-12.3,15.3-17.2c4.6-3.6,9.9-5.7,14.7-8.3c0.2-2.1,0.4-3.7,0.6-5.4C56,6.9,60.2,6.7,69.2,5.5
		c10.2-1.3,20.3,0.3,30.4,0.9c8,0.5,16.1-0.2,24.1,0.1c9.4,0.3,18.8-0.5,28.2,0.2c6.6,0.5,13.2,0.2,19.8-0.4c4.5-0.4,8.8-0.6,13.3,0
		c6.4,0.8,12.9-0.3,19.3,0.4c7.6,0.8,15.5,0.1,22.9,2.8c0.9,0.3,1.9,0.4,2.6,1.3c4.3,5.7,8.8,11.6,9.1,18.9
		c0.5,10.8,0.6,21.6-0.1,32.4c-0.7,11.6-1.6,23.1-1.2,34.7c0.4,15.1-2,29.9-2.2,44.9c-0.1,6.9,0.4,13.8,0.9,20.6
		c0.6,8.9,1.4,17.7,2.3,26.6c0.7,7.4-6.3,14.6-14.3,14.5c-13.2-0.2-26.4-0.6-39.6-0.7c-7.6-0.1-15.2-0.6-22.7-0.8
		c-8.1-0.2-16.2,0-24.2,0.4c-9,0.4-18,0.4-27,0c-1.5-0.1-3,0-4.3,0.5c-2.8,12-8.8,22.2-15.9,31.9c-3.3,4.5-8.5,7.1-11,11.9
		c-6.4-0.1-6.4-0.1-10.2-12.1c-5.5,1-7.3,7.3-12.4,8.9c-4.3-1.6-5.5-3.2-5.6-7.9c-0.1-3.7,2.5-6.8,2.5-10.8c-4,1.5-6.8,4.1-9.1,7
		c-1,1.3-1.9,2.3-3.7,1.8c-2.1-0.6-1.9-2.4-2.1-4.1c-0.2-2.3,1.4-4,2-6.1c0.5-1.7,1.1-3.4,1.7-5.3c-5.1-0.8-7.6,6.3-13,4.1
		c-2.3-5.5,2.1-9.4,3.3-14.2c-4-0.9-7.8,3.7-12,0.4c0.8-6.8,6.4-10,10.1-14.8c-3.6-1.5-6,2.6-9.8,1.6c-1-6.9,4.1-10.9,7.8-16.1
		c-4.7-1.2-9.1-0.3-13.4-0.7c-1-0.6-1.1-1.6-1.2-2.8c6.3-2.8,10-8.4,14.5-13.4c-4.4-2.2-8.7-0.6-13.2-0.9c-0.3-2.5-2.5-3.7-4-5.8
		c4.3-3.1,9.1-5.1,12.8-8.7c-2.7-1.4-5.3,1.7-8.2,0.2c-0.2-3.7,1.3-6.3,4.5-8.3c2.4-1.5,4.6-3.2,5.9-5.9c-3.1-1.5-5,0.2-6.8,2.2
		c-3.8-1.7-4.3-3.1-1.5-5c4.3-2.9,6.6-7.3,9.5-11.7c-4,1-8.1-1-12.3,1.4c-1.3-4.3,2.7-4.5,4.3-6.2c1.9-2,4.1-3.8,6.2-5.7
		c-1.3-1.1-2.4-2-3.4-2.9c-2.4-0.1-4.4,1.7-6.8,1.4c-1.3-1.1-0.9-2.3-0.3-3.8c4.3,0.3,8-0.9,10.9-4.7c-3.7-2.7-5.9,0.9-8.9,1.4
		c-1-0.2-1.9-1-2.3-2.4c4.1-3.5,9.5-5.5,12.7-10.1c-0.8-1.5-2.8-0.8-3.1-2.2c-2.7-0.7-5.6,3-8.3-1.2C19.1,82.5,21.3,81.8,23.4,81
		c0.2,0,0.3-0.1,0.4-0.2C23.7,80.9,23.6,80.9,23.4,81z M22.9,174.4c1-0.4,2.5,0.8,3.1-0.9c3.2,1.2,6.2,2.6,6.6,6.6
		c-1,3.5-4,5.8-5.8,9.4c2.2-0.2,3.8-0.3,5.3-0.4c2.2,1.2,3.3,3,3.9,5.1c-1.7,3.8-5.8,5.5-7.5,9.1c2,1.2,3.5-0.1,5.2-0.6
		c1.4-0.5,3-0.3,4.1,1.1c1,1.3,1.1,2.8,0.2,4.2c-1.6,2.3-2.4,4.9-4,7.9c2.5-0.5,3.9-1.6,5.5-2.4c1.9-1.1,4.2-2.2,6-0.3
		c1.9,1.9,2.8,4.5,1,7.3c-1,1.5-2.1,3-1.2,5.4c2.3-2.5,5.3-3.8,8.2-5.2c3.7,2,4.3,5,3.5,8.6c-0.4,1.9-1.1,3.8-1.8,5.7
		c-0.8,2-0.6,3.7,1,5.3c5.2-2.6,7.3-8.6,12.7-10.3c4.9,2.4,4.4,7.3,5.5,11.2c2.6,2.2,4.4,1.6,6-1.2c1.1-2,1.3-4.7,3.3-6
		c8.5-5.5,11.3-14.8,15.9-22.9c1.5-2.7,2.6-5.6,2.3-9.3c-6.9-0.1-13.8,0.3-20.7-0.7c-5.4-0.8-10.9,0.1-16.3-1.4
		c-3.3-0.9-6.6-2-7.5-5.7c-1.2-4.5-1.6-9.2-3-13.6c-1.5-4.7-0.4-9.5-0.8-14.2c-0.8-8.7-0.7-17.5-0.7-26.2c0-7.1,0.5-14.2,0.8-21.3
		c0.2-3.8,1.1-7.7,0.6-11.3c-0.8-5.9,1-11.6,0.7-17.6c-0.3-4.6,1.2-9.5,1.2-14.2c0.1-11.1-0.1-22.3,0.3-33.4c0.2-4.2-2.3-8-0.6-12.1
		c-8.4,0-17.2,6.5-25.3,18.8c1.8,1.8,4.3,3.4,4.1,6.4c-0.2,2.9-3.3,3.8-4.9,5.7c1.6,2.1,4.6,3.1,3.5,6.2c-1,1.8-3.2,2.1-3.7,4
		c4,6,4,6.3,0.2,11.2c4.1,4.8,4.1,4.8-2.5,11.4c1.4,1.3,2.6,2.9,3.1,4.8c0.5,2.3-1.7,3.3-2.7,4.7c1.8,1.9,3.9,3.2,3.8,5.8
		c-1.2,2-3.6,3-4.4,5.2c1.9,1.2,4,2.3,4.4,4.7c0.6,3.9-3.5,5.3-4.8,8.3c0.5,0.3,0.9,0.5,1.3,0.8c4.7,3,4.8,4.7,1.4,9.1
		c-1.5,2-4.1,2.5-5.6,5.2c4.7-1.4,5.4,1.8,6.5,4.3c-2.7,4.4-4.6,5.9-9.3,7.5c-0.1,0.4-0.3,0.3-0.2,0.1c0.4-0.5-0.3,0,0.3,0
		c-0.9,1.2-3.2,0.8-3.6,3.2c6.2-0.3,13-2.5,16.1,5.2c-0.5,2-1.8,3-2.9,4.1c-1.9,1.9-4.3,3.7-4.1,6.9c-1.3-0.4-2.3,0-3.2,0.9
		c0.3,0.3,0.2,0.3-0.1,0.1C22.8,174.5,22.8,174.5,22.9,174.4z M103.2,198.2c0.9-5.7,1.9-11,1.9-16.5c0-2.6-1.5-4.3-3.5-5.7
		c-13.4-9.2-20.1-22.9-23-38.1c-3.1-16.6-4.6-33.5-2.9-50.5c0.9-8.8,1.5-17.5,3-26.2c1-5.5,3-10.7,3.7-16.4
		c1-8.6,8.9-15.3,16.8-16.1c5.3-0.5,10.6-0.1,15.8,0.5c3.9,0.4,7.9,1.6,10.8,4.7c5.9,6.2,10.6,13.3,11.7,21.9
		c1.4,11,1.4,22.2-0.4,33.2c-1.5,9.5-2.2,19-3.8,28.5c-2.1,12.7-3.1,25.6-5.7,38.1c-1.6,7.5-5.3,14.3-12,18.8
		c-2.2,1.5-4.2,3.2-6.7,4.8c0.5,6.2-0.8,12.5-1.1,19.6c4.7,0,9.1,0.1,13.5,0c9.2-0.2,18.5-0.6,27.7-0.8c6.5-0.1,12.9,0.5,19.4,0.4
		c10.5-0.2,21,0.6,31.5,0.3c10.1-0.2,20.2,1.3,30.1-1.1c2.8-2.5,3.2-5.6,3-9.1c-0.8-13.9-1.3-27.8-1.9-41.7
		c-0.3-7,0.6-13.9,0.9-20.9c1-18.2-0.7-36.5,0.5-54.7c0.8-12.8,0.4-25.6,0.6-38.4c0.1-7.5-3.2-13.3-7-19.3
		c-3.8,0.8-7.1-0.4-10.6-0.6c-11.5-0.9-23.1-1.9-34.6-1.4c-2.5,0.1-4.9-0.6-7.4-0.7c-7.7-0.5-15.2,1.1-22.9,1
		c-13.3-0.2-26.5,0-39.8-0.1c-6.6,0-13.3,0.4-19.9-0.3c-7.3-0.7-14.5-1.2-21.8,0c-2.2,0.4-4.5,0.8-6.4-0.6c-1.2,1-2.6,1.7-2.7,3.1
		c-0.2,4-1.4,7.8-1.2,11.8c0.3,6.2,1.1,12.5,1.1,18.7C60,63.7,60,83.1,58.4,102.5c-0.7,8.9,0.3,18-0.7,26.9
		c-1.3,10.6-0.6,21.2-0.2,31.8c0.4,8.8,0.5,17.6,1.4,26.3c0.6,6.2,2,8.4,8.1,8.9C78.8,197.4,90.6,198.1,103.2,198.2z M106.3,174.9
		c9.5-4.7,15.7-11.6,17.5-21.8c1.6-9.5,2.7-19,4-28.5c1-6.7,2.6-13.4,3-20.1c0.5-8.5,2-16.8,2.6-25.3c0.7-11.1,0.6-22.2-2.6-32.9
		c-2.1-7-9.8-14.4-18.5-13.9c-4.1,0.3-8.3,0.1-12.5,0.1c-4.2-0.1-7.3,1.7-10,4.7c-2.5,2.8-3.6,6-4.1,9.9c-0.9,7.5-2.7,14.9-4,22.3
		c-0.9,5.2-1.1,10.5-1.5,15.8c-1,12,0.1,23.9,0.9,35.8c0.7,9.9,2.5,19.7,5.7,29.1C90.6,160.5,96.5,169.3,106.3,174.9z"/>
	<path d="M164.5,30.9c7.2,0.9,14,0.9,20.8,0.9c9.2,0.1,18.4-0.5,27.6,0.7c4,0.5,6,2.1,6.1,6.2c0.1,7.1-0.2,14.2-1.6,21.2
		c-0.6,2.9,0.9,6-2.1,8.8c-1.6,1.5-2.7,2.4-4.8,2.3c-10-0.4-19.9-0.5-29.9-0.2c-6.1,0.2-12.3,0-17.8,0c-3-2.5-3.1-5.1-3-7.8
		c0.2-6.1-0.7-12.4,0-18.4C160.3,40.2,159.4,34.2,164.5,30.9z M163,66c2,0.8,3.6,1.5,5.5,1.4c13.3-0.2,26.5,0.2,39.8-0.1
		c2.6-0.1,4.4-0.6,5.6-2.7c0.5-9.6,2.8-19,0.8-28.7c-16.6-2.9-33,0.1-49.9-1.6C163.2,45,162.8,55.3,163,66z"/>
	<path d="M151.9,153.1c-0.2-2.4,0.4-3.5,2.7-3.4c3.9,0,7.9-0.1,11.8-0.2c3.1-0.1,4.1,1.4,3.1,4.7
		C163.7,152.8,157.8,156.3,151.9,153.1z"/>
	<path d="M217.6,134c-4.9,1.9-9.6,1.1-14.1,1.4c-1.6-3.4,0-4.8,2.5-5.6C211.1,128.3,215.1,129.6,217.6,134z"/>
	<path d="M176.1,93.5c1.7,0.8,2.2,2,3.4,3.8c-7,1.6-13.4-0.7-19.6,0.5c-1.3-1.6-1.1-2.8,0.4-3.3c1.5-0.6,3.1-0.6,4.8-0.4
		C168.9,94.3,172.8,94.6,176.1,93.5z"/>
	<path d="M155.9,135.1c-0.4-3.2,0.2-4.6,2.4-4.6c3.5-0.1,7-0.1,10.4-0.1c2.1,0,3.4,1,4.2,3.7C167.3,135.1,161.7,134.3,155.9,135.1z"
		/>
	<path d="M178.3,148.3c4.3,1.5,10.3-2.7,13.3,4.5c-4.5,2.1-8.9,0.7-13.1,0.3C176.6,152.9,176.6,150.7,178.3,148.3z"/>
	<path d="M216.8,113.1c1.1,1,1.9,2.2,2.6,4.3c-5.3,0-10.2,0-15,0c-0.6-1.2-0.5-2.1,0.1-3.3C208.3,112.9,212.2,112.2,216.8,113.1z"/>
	<path d="M156.5,117.4c-1.1-1.5-0.8-2.6,0-3.8c4-0.4,8.1-0.1,12.2-1c2.6-0.6,4.4,0.7,5.4,3.7C167.9,116.7,162.1,117.1,156.5,117.4z"
		/>
	<path d="M204.2,153.2c-0.3-1.6-0.2-3,1-3.4c3.1-1.2,6.2-2.1,9.6-1.4c1.4,0.3,2.4,1.2,2.3,2.8c-0.1,1.6-1.2,2.5-2.7,2.2
		C211.1,152.9,207.7,155.7,204.2,153.2z"/>
	<path d="M218.8,97.3c-5.1,0.8-9.8,0.8-14.3,0.6c-0.8-2.1-0.7-3.9,0.8-4c4-0.4,8.1-1.1,12,0.6C218.2,94.9,218.5,95.6,218.8,97.3z"/>
	<path d="M196.7,119.1c-4.4,0.9-8.6-1.9-12.6,0.4c-1.6-2.7-0.8-4.2,1.7-4.5c2.6-0.4,5.2-0.5,7.9-0.6
		C196.4,114.3,197.4,115.8,196.7,119.1z"/>
	<path d="M194.1,135.1c-3.6,1.8-9,2-13.7,0.6c-0.8-3.4,2-2.9,3.9-3.3C190.7,130.9,191.7,131.2,194.1,135.1z"/>
	<path d="M183.3,94.7c3.6-0.5,6.8-1.2,9.8-1c1.8,1,2.5,2.4,3,4.3c-3.6,0.2-7,0.5-10.4,0.5C183.6,98.5,183.6,98.3,183.3,94.7z"/>
</g>
</svg>
