<?xml version="1.0" encoding="utf-8"?>
<!-- Generator: Adobe Illustrator 18.1.1, SVG Export Plug-In . SVG Version: 6.00 Build 0)  -->
<svg version="1.1" id="Ebene_1" xmlns="http://www.w3.org/2000/svg" xmlns:xlink="http://www.w3.org/1999/xlink" x="0px" y="0px"
	 width="250px" height="250px" viewBox="-18 -60 250 250" style="enable-background:new -18 -60 250 250;" xml:space="preserve">
<g>
	<path d="M-17.8,64.2c-0.1-18.9,4.7-36.9,11.4-54.4c5.9-15.2,17.1-26.3,29.2-36.4C34.3-36.1,47-44.1,60.6-50.3
		c17.9-8.2,37.2-9.3,56.6-9.7c14.7-0.3,28.6,3,41.8,8.7c22.1,9.5,38.2,26.2,52.2,45.4c9.6,13,15.5,27.2,19.2,42.7
		c2,8.3,1.7,16.7,1.3,25.2c-0.4,7.8-0.6,15.5-1.2,23.2c-1,12.5-6.5,23.4-12.4,34c-14.4,25.7-34.4,46.5-61.4,58.6
		c-25.6,11.5-52.5,15.3-80.2,6.5c-15.3-4.8-30.2-10.3-43.1-20C11.3,147.7-5.1,126.9-12,99.6C-15,88-18.9,76.5-17.8,64.2z M-14.3,65
		c-1.4,11,2.7,21.7,5.1,32.5c2.9,13,9,24.9,16,36c4.7,7.5,11.7,13.6,17.9,20c15.7,16.3,36.2,23.4,57.3,29
		c12.1,3.2,24.9,4.9,37.3,2.9c30.3-4.7,55.8-18.5,76.6-41.4c14.5-15.9,24-34.2,29.8-54.7c2.6-9.2,1.8-18.8,2.2-28.3
		c0.8-16.4-0.9-32.5-8.8-47.3c-9.5-17.8-22.2-33.2-37.3-46.4c-11.7-10.2-25.2-16.7-40.3-20.5c-14.7-3.7-29.5-4-44.3-2.4
		c-11.6,1.2-23.3,3-33.9,8.2c-21.3,10.4-41,23.2-56,41.9C3.4-0.7-0.4,4.6-2.7,10.3C-10,27.6-14.1,45.7-14.3,65z"/>
	<path d="M178.3,57.7c0,20.1-2.9,34.7-11.7,47.3c-10.1,14.6-24.3,24.2-41.1,30c-7.8,2.7-15.9,3.3-23.9,4.2
		c-4.9,0.6-9.9-1.2-14.3-2.8c-10.9-3.9-22.1-7.8-31.3-15.4c-1-0.9-2.3-1.6-3.1-2.6c-13.5-17.6-24.8-35.8-21.2-59.8
		c1.4-9,1.6-18.1,4.8-26.8C43.5,13.5,54.8-1.7,73.9-6.9c18.3-5,37.7-9.2,56.7-1c10.2,4.4,18.8,11.3,26.9,18.8
		C172.5,24.9,177.8,42.8,178.3,57.7z M174.7,61.8c-0.1-20.2-6-35.7-19.6-47.9C141.9,2.1,128.5-9.4,108.9-8.4
		C98.2-7.9,87.8-6.2,77.4-3.6C69.8-1.7,63.5,2.5,57.7,7.5c-18.8,16.2-22,38.3-23,61.2c-0.5,11.4,4.5,21.1,9.3,31.2
		c10.9,22.8,31.5,30.7,53.5,34.6c18.7,3.3,35.8-4.8,50.4-16.1C166.9,103.6,175.3,83.5,174.7,61.8z"/>
</g>
</svg>
