<?xml version="1.0" encoding="utf-8"?>
<!-- Generator: Adobe Illustrator 18.1.1, SVG Export Plug-In . SVG Version: 6.00 Build 0)  -->
<svg version="1.1" id="Ebene_1" xmlns="http://www.w3.org/2000/svg" xmlns:xlink="http://www.w3.org/1999/xlink" x="0px" y="0px"
	 width="250px" height="250px" viewBox="0 0 250 250" style="enable-background:new 0 0 250 250;" xml:space="preserve">
<g>
	<path d="M23.1,116.8c-6.1,0-12.2-0.1-18.2,0c-2.9,0-4.7-0.7-4-4c0.1-0.3,0-0.7,0-1c-1.8-12.1-1.1-11.3,11.3-11
		c26.2,0.6,52.3,0.4,78.4,0.2c17.5-0.1,35-0.2,52.5,0.9c6,0.4,12.1-0.7,18.2-0.7c18.4,0.1,36.7,0.7,55.1,0.7
		c10.1,0,20.2-0.7,30.3-1.5c2.8-0.2,3.8,0.4,3.4,3.1c-0.2,1.2-0.1,2.4-0.2,3.5c-0.4,7.5-1.7,8.6-9.3,8.7
		c-14.2,0.2-28.3,0.7-42.5,0.9c-3,0-3.4,1.1-2.7,3.7c3.2,11.6,3.9,23.6,4.5,35.5c0.8,15.3,1.5,30.7,2,46c0.2,5.8-1.4,7-7.2,6.9
		c-3-0.1-4.3-1.3-4-4.4c0.6-5.4-0.5-10.8-1.7-16c-4.6-20.2-7.3-40.8-11.4-61.2c-0.1-0.3-0.1-0.7-0.1-1c-1.2-10.8-1.2-11-12.4-10.5
		c-18.5,0.8-37.1,1.7-55.6,0.5c-15.9-1-31.7,1.8-47.5-0.3c-3.3-0.4-5,0.8-4.9,4.5c0.6,18.8-0.8,37.4-3.2,56c-0.9,7-2.3,14-2.6,21
		c-0.1,2.9-1.4,4.3-4.4,4.1c-2.9-0.1-4.2-1.5-4.4-4.3c-0.5-5.5,0.5-10.8,1.2-16.1c1.9-16.6,1.6-33.3,1-50c-0.1-2,0-4.1,0-6.1
		c0.3-8.9,0.3-8.8-8.5-8.4C31.8,117,27.4,116.8,23.1,116.8z M46.9,198.1c0.6-1,1-1.4,1.1-1.8c3.3-25.4,6.8-50.8,5.8-76.6
		c-0.3-6.3,1-7.3,7.4-7c5.2,0.3,10.5,0.7,15.7,0.6c32.2-0.3,64.5,0.7,96.7-0.8c6.2-0.3,7.3,0.8,7.1,6.9c-0.3,7.5,1.5,14.8,2.8,22
		c3.9,20.5,8.1,41,11.1,61.7c0.1,1,0,2.1,1.5,2.1c1,0,1.5-0.7,1.7-1.6c0.2-1.2,0.3-2.3,0.4-3.5c0.3-15.9-1.4-31.7-2-47.5
		c-0.5-12.3-0.8-24.6-5.4-36.3c-1-2.4,1.3-3.1,2.9-2.8c4.6,0.8,9.1,0.1,13.6,0c11.8-0.1,23.6-0.8,35.4-1.1c4.5-0.1,3.8-3.5,4.1-6.2
		c0.4-3.6-2.4-2.6-4.2-2.5c-9.8,0.7-19.5,0.9-29.3,0.8c-26.1-0.1-52.3-0.4-78.4-0.1c-18.5,0.2-37-1.3-55.7-0.1
		c-16.8,1.1-33.8,0.1-50.6-0.1c-6.7-0.1-13.5-0.5-20.2-0.5c-3,0-5.4,0.6-5,5c0.3,3.9,1.6,5.5,5.4,5.3c10.3-0.6,20.5,0.6,30.8-0.6
		c8.9-1,8.9-0.8,8.7,8c0,1.4-0.1,2.7,0,4.1c0.7,21.9,1.9,43.9-2,65.7C45.7,193.3,45.4,195.6,46.9,198.1z"/>
</g>
</svg>
