<?xml version="1.0" encoding="utf-8"?>
<!-- Generator: Adobe Illustrator 18.1.1, SVG Export Plug-In . SVG Version: 6.00 Build 0)  -->
<svg version="1.1" id="Ebene_1" xmlns="http://www.w3.org/2000/svg" xmlns:xlink="http://www.w3.org/1999/xlink" x="0px" y="0px"
	 width="250px" height="250px" viewBox="-172 295.9 250 250" style="enable-background:new -172 295.9 250 250;"
	 xml:space="preserve">
<g>
	<path d="M-113.5,388.5c-11.2,4.6-22.3,9.4-32.9,15.1c-3.5,1.9-5.2,0.8-6.7-2.1c-2-3.6-3.7-7.3-5-11.3c-3.3-10.2-6-20.7-11.4-30.1
		c-1.5-2.5,0.2-3.6,2.2-4.6c14.8-7.4,29.7-14.7,45-20.9c12.1-4.9,24.1-10,35.6-16.2c2.9-1.6,3.8-0.5,4.2,2.8c1,9.2,3.2,18,11.5,23.8
		c5.4,3.8,11.5,4.5,18,4.3c9.4-0.3,17.8-3.2,25.8-8c8.9-5.3,12.7-13.7,15.1-23c0.7-2.8,1.6-2.9,3.7-1.8c14.5,8,30.6,12.5,45.2,20.5
		c10.8,5.9,22.5,10.4,33.6,15.9c5.9,3,6.5,4.2,2.9,9.7c-5.7,8.8-7.7,19-11.4,28.5c-1.5,3.7-3,7.3-4.5,11c-1.4,3.6-3.5,3.6-6.7,2.7
		c-5-1.5-9.4-4.2-13.8-6.7c-5-2.8-10.6-3.8-15.6-6.2c-2.3-1.1-2.9-0.1-2.8,2.2c0.6,16.8,1.1,33.5,1.5,50.3
		c0.3,14.1-0.5,28.3,0.5,42.3c0.9,12.2-0.9,24.2-1,36.3c0,2.4-0.3,5.2-3.5,4.8c-18.7-2.7-37.5-0.9-56.3-0.7
		c-11.1,0.1-22.4,0.6-33.3-1c-11.7-1.7-23.2-1.4-34.7-0.5c-2.1,0.2-2.7-0.7-2.7-2.4c-0.5-23.1-3.5-46-0.5-69.2
		c1.7-12.9,1.9-26.2,1-39.3C-111.4,405.9-110.9,397-113.5,388.5z M-86.5,322.6c-7.8,3.6-15.4,7.3-23.1,10.6
		c-15.7,6.7-31.4,13.1-46.7,20.7c-3.3,1.6-7.9,2.5-9.3,5.2c-1.4,2.7,2.3,6.3,3.5,9.7c0.2,0.5,0.1,1,0.3,1.5c4,9,5.5,19.1,10.5,27.8
		c1.4,2.5,2.5,2.3,4.6,1.3c11-4.9,22.2-9.6,33.3-14.4c2.9-1.2,4.1-0.6,4.8,2.6c0.8,3.6,0.4,7.3,0.7,10.9c1,11.1,2.5,22.1,1.7,33.3
		c-0.9,12.1-2.5,24.2-2.5,36.3c0,16.8,1.2,33.5,1.8,50.3c0.1,2.4,0.8,3.3,3.1,3.2c9.7-0.2,19.4,0.5,29.1,1.3
		c24.1,2.1,48.3,0,72.5-0.3c4.3,0,8.6,0.5,12.8,0.7c2,0.1,4-0.3,3.9-2.7c-0.2-8,2.1-15.8,1.6-23.8c-0.6-8.3-1.3-16.5-1.1-24.8
		c0.3-11.3,0.6-22.5,0-33.8c-0.9-16.6,0.6-33.3-1.9-49.8c-0.5-3.6,1.3-3.2,3.9-2.3c10.1,3.8,20,7.7,29.4,13.2c5.7,3.3,5.9,3,8.7-2.8
		c0.9-1.9,1.8-3.9,2.6-5.9c4-10.3,5.9-21.4,12.3-30.7c1.1-1.6,0.7-2.4-1-3.5c-14.4-9-30.7-13.9-45.5-22.2c-9.1-5.1-19.4-7.5-29-11.7
		c-2.9-1.2-3.8-1.6-5,2.1c-1.7,5.4-3.7,11-8.5,14.9c-7.5,6.3-15.9,10.7-25.6,12.3c-9.8,1.5-19.5,1.8-28.2-4.1
		C-81.5,342-84.4,332.6-86.5,322.6z"/>
</g>
</svg>
