<?xml version="1.0" encoding="utf-8"?>
<!-- Generator: Adobe Illustrator 18.1.1, SVG Export Plug-In . SVG Version: 6.00 Build 0)  -->
<svg version="1.1" id="Ebene_1" xmlns="http://www.w3.org/2000/svg" xmlns:xlink="http://www.w3.org/1999/xlink" x="0px" y="0px"
	 width="250px" height="250px" viewBox="-172 295.9 250 250" style="enable-background:new -172 295.9 250 250;"
	 xml:space="preserve">
<g>
	<path d="M-100.7,505.4c13.7-0.1,27.4-0.4,41.1,0.3c1.9,0.1,2.9-0.1,2.6-2.3c0-0.3,0-0.7,0-1c-0.1-5.1,1.8-11.9-0.7-15
		c-2.6-3.2-9.7-0.7-14.7-1.1c-15.4-1.3-30.8-2.1-46.3-1.9c-13.8,0.2-27.6,1.2-41.4,1c-3.3-0.1-4.5-0.4-4-4.3
		c2.7-20.4,1.2-40.9-0.2-61.2c-1.9-26.6-1.2-53.2-1.7-79.8c-0.1-3.2,1-3.7,3.9-4c16.2-1.6,32.5,1.2,48.7,0
		c17.8-1.3,35.6-0.8,53.4-0.9c10.5,0,21.1,1.4,31.6,1.6c14.3,0.4,28.7-0.3,43,0.6c14.1,0.9,28-1.1,41.9-1.1c2.1,0,4.4-0.5,6.2-1.4
		c3.3-1.7,4.7-0.9,4.3,2.7c-1.6,15.3,1.1,30.5,1.5,45.8c0.5,22,1.2,44,1.8,65.9c0.3,11.3,0.5,22.5,1.1,33.8c0.2,3.3-1.3,3.2-3.5,3
		c-12.6-0.9-25.1-1.2-37.7-1c-15.4,0.3-30.8,0.6-46.1,0.9c-7.9,0.1-15.8,0.4-23.7,0.3c-2.7,0-3.2,0.9-3.3,3.4
		c-0.1,4.4,1.2,8.8,0.2,13.2c-0.5,2,0.4,3.1,2.7,2.9c15.5-1,31.1,0.1,46.6,0.1c5.1,0,10.2,0.5,15.3-0.5c1.2-0.2,3.3-0.9,3.5,1.5
		c0.3,2.6-1.8,2.4-3.4,2.4c-8.6,0.4-17.1-0.4-25.7-0.7c-14.4-0.4-28.7,0.2-43.1,0.5c-15.5,0.4-30.8-1-46.2-1.8
		c-6.6-0.3-13.2,0.7-19.8,1.3c-1.4,0.1-2.8,0.7-3.1-1.2c-0.4-2.2,1.2-2.3,2.8-2.3C-109,505.4-104.9,505.4-100.7,505.4z M67,450.4
		c-0.1,0-0.2,0-0.2,0c0-10.3,0.6-20.7-0.1-31c-1.7-23.7-2.4-47.4-3.5-71.1c-0.4-8.3-1.1-9.4-9.5-8.6c-1.2,0.1-2.3,0.4-3.5,0.4
		c-6-0.4-11.8,2.7-17.6,1.9c-8.1-1.1-16.2-1-24.2-1.4c-18.8-1-37.6,0.1-56.5-1.2c-16.8-1.2-33.6-1.1-50.4-0.7
		c-10.9,0.3-21.7,1-32.6,0.4c-9.1-0.5-18.2-0.4-27.3,0.2c-3,0.2-4.6,1-4.5,4.4c0.1,7.3-0.2,14.6-0.2,21.9
		c0.1,17.5,0.6,35.1,1.9,52.6c1.1,15.7,0.7,31.5,0.9,47.3c0,4.5-0.3,9-0.7,13.5c-0.2,2.7,0.6,3.8,3.4,4c7.8,0.6,15.6,0.5,23.4-0.1
		c17.9-1.5,35.8-0.7,53.7,0.3c14,0.8,28-0.4,42,0.5c7.4,0.5,14.9-0.6,22.4-0.5c26.4,0.4,52.8-0.8,79.2-0.7c3,0,4.1-1,4-4.1
		C66.9,469.1,67,459.7,67,450.4z M-45,496.5C-45,496.5-45,496.5-45,496.5c-0.1-1.5,0-3-0.1-4.5c-0.2-6.1-0.4-6.2-6.4-5.7
		c-2,0.1-2.3,0.9-2.7,2.6c-0.9,4.6-0.8,9.2-0.7,13.8c0,1.6,0.5,2.7,2.9,2.9c7,0.7,7,1,7-6.2C-45,498.5-45,497.5-45,496.5z"/>
	<path d="M-150.5,353.1c18.4,1.5,35.9-1.3,53.5-0.9c11.7,0.3,23.4-1,35.1-0.8c7.1,0.2,14.3,1.1,21.4,1.4c10.4,0.4,20.8,0.5,31.3,0.8
		c12.8,0.4,25.7,0.8,38.5,1.2c4.2,0.1,8.5,0.3,12.7,0.2c3.4,0,4.7,0.1,4,4.7c-1.2,7.7-1,15.6-0.8,23.4c0.6,24.4,1.5,48.8,2.2,73.3
		c0.1,3.5-0.2,6.9,0.5,10.4c0.7,3.4-1.9,5.1-4.8,5.9c-5.8,1.6-11.6,1.1-17.5,0.6c-12.6-1.1-25.1-3.1-37.7-3.3
		c-24.2-0.4-48.4-2.6-72.7-1.4c-14.1,0.7-28.2-0.5-42.3,0.5c-5.5,0.4-11.2-1-16.5,1.9c-2,1.1-2.2-1.1-2.2-2.6
		c-0.1-5.3-0.2-10.6-0.3-15.9c-0.5-20.1-1.1-40.3-1.3-60.4c-0.1-9.1,1-18.1,0.5-27.2C-147.2,360.8-145.5,356.2-150.5,353.1z
		 M42,390.8c0-7,0.1-12.4,0-17.9c-0.1-4.3,1.3-10.1-0.9-12.5c-2.1-2.3-8-1.1-12.3-1.4c-0.3,0-0.7,0-1,0.1
		c-20.2,1.6-40.3-1.3-60.4-2.1c-18.7-0.7-37.4-1.7-56.1-1.3c-15.1,0.3-30.1,0.9-45.2,1.4c-9.7,0.3-9.7,0.3-10,10.1
		c0,1.5-0.1,3-0.1,4.5c0.3,16,0.4,32,0.4,47.9c-0.1,14.3,1.1,28.5,0.6,42.8c-0.1,1.6-1.2,4.3,2.7,3.6c10.3-1.8,20.8-1.3,31.2-1.5
		c8.7-0.2,17.5,1,26.1,0.2c11.4-1,22.7-0.2,34-0.3c12.6-0.1,25.1,1.4,37.7,1.7c8.5,0.2,17,1,25.5,1.9c9.4,1,18.8,2.1,28.2,0.2
		c1.3-0.3,3,0.1,2.6-1.9c-0.8-4.1-0.1-8.2-0.3-12.3C43.6,432.4,41.8,410.9,42,390.8z"/>
</g>
</svg>
