<?xml version="1.0" standalone="no"?>
<!DOCTYPE svg PUBLIC "-//W3C//DTD SVG 20010904//EN"
 "http://www.w3.org/TR/2001/REC-SVG-20010904/DTD/svg10.dtd">
<svg version="1.0" xmlns="http://www.w3.org/2000/svg"
 width="130.000000pt" height="130.000000pt" viewBox="0 0 130.000000 130.000000"
 preserveAspectRatio="xMidYMid meet">
<metadata>
Created by potrace 1.12, written by Peter Selinger 2001-2015
</metadata>
<g transform="translate(0.000000,130.000000) scale(0.100000,-0.100000)"
fill="#000000" stroke="none">
<path d="M830 966 c0 -3 16 -12 36 -21 33 -13 35 -17 32 -52 -3 -39 -3 -38
-78 -60 -13 -4 -12 -6 2 -14 12 -7 25 -6 38 1 16 9 22 8 26 -4 13 -33 -6 -36
-189 -35 -100 0 -194 -2 -208 -6 -31 -8 -34 -4 -43 48 -7 36 -6 37 24 37 20 0
30 5 30 15 0 14 -50 22 -115 17 -11 -1 -37 -2 -57 -3 -25 -1 -38 -6 -38 -15 0
-10 15 -14 55 -14 51 0 56 -2 66 -27 23 -60 23 -93 0 -117 -22 -23 -22 -23
-59 -5 -64 33 -171 19 -214 -28 -45 -49 -54 -148 -18 -210 25 -45 99 -93 144
-93 64 0 142 59 168 128 l12 32 108 0 108 0 0 31 c0 17 -5 39 -10 50 -12 22
-13 22 128 70 52 18 100 38 107 45 11 11 14 10 18 -6 3 -13 -3 -24 -20 -35
-58 -39 -84 -185 -44 -251 23 -37 93 -74 142 -74 57 0 143 65 164 125 16 47 6
94 -30 141 -35 46 -76 70 -134 79 -53 8 -61 16 -61 67 0 29 7 45 35 73 29 28
34 39 26 53 -14 27 -32 38 -67 45 -18 3 -43 9 -58 13 -14 3 -26 3 -26 0z m125
-66 c0 -7 -6 -15 -12 -17 -8 -3 -13 4 -13 17 0 13 5 20 13 18 6 -3 12 -11 12
-18z m-166 -150 l56 -1 -50 -20 c-27 -11 -70 -27 -95 -36 -25 -8 -68 -26 -95
-39 -86 -40 -97 -38 -118 25 -10 29 -15 56 -12 59 10 10 139 20 199 16 32 -2
84 -4 115 -4z m-315 -118 c6 -18 3 -22 -16 -22 -32 0 -53 61 -29 84 13 14 16
13 27 -12 6 -16 15 -38 18 -50z m-139 56 c14 -6 25 -15 25 -19 0 -4 -27 -30
-60 -59 -33 -29 -60 -56 -60 -61 0 -5 41 -9 91 -9 89 0 90 0 84 -22 -8 -30
-90 -106 -122 -114 -38 -10 -111 25 -147 69 -24 30 -31 49 -31 80 0 94 51 147
142 147 29 0 64 -5 78 -12z m678 1 c20 -5 37 -14 37 -18 0 -5 9 -11 19 -14 25
-6 61 -77 61 -120 0 -61 -92 -147 -158 -147 -46 0 -108 36 -123 72 -21 51 -8
139 29 196 11 18 42 32 42 19 0 -23 24 -125 32 -134 16 -19 31 -16 23 5 -4 9
-11 37 -16 62 -5 25 -11 55 -14 68 -6 26 8 28 68 11z m-603 -59 c0 -26 -4 -30
-37 -36 -21 -4 -47 -11 -58 -16 -11 -5 1 11 27 36 26 25 52 46 57 46 6 0 11
-13 11 -30z m228 -43 c3 -27 2 -27 -52 -27 -30 0 -57 4 -60 8 -9 15 11 34 45
42 51 12 64 8 67 -23z m-144 -12 c4 -11 -2 -15 -24 -15 -29 0 -38 9 -23 23 12
12 41 7 47 -8z m-74 -5 c0 -5 -17 -9 -37 -9 -38 1 -38 1 -8 9 43 11 45 11 45
0z"/>
</g>
</svg>
