<?xml version="1.0" encoding="utf-8"?>
<!-- Generator: Adobe Illustrator 18.1.1, SVG Export Plug-In . SVG Version: 6.00 Build 0)  -->
<svg version="1.1" id="Ebene_1" xmlns="http://www.w3.org/2000/svg" xmlns:xlink="http://www.w3.org/1999/xlink" x="0px" y="0px"
	 width="250px" height="250px" viewBox="-18 -60 250 250" style="enable-background:new -18 -60 250 250;" xml:space="preserve">
<g>
	<path d="M-18,93.1c7.9-25.7,31.8-38.6,57.8-30.4c5,1.6,7.1,0.3,9.5-3.7c5.4-8.9,12.5-16.6,17.1-26c1.2-2.4,1.5-4.2-0.1-6.4
		c-2.7-3.6-5.2-7.3-7.9-11c-1.3-1.7-3.1-1.8-5-1.5c-2,0.3-4,0.6-6,0.8c-2.3,0.3-3.5-1-3.7-3.1c-0.2-2.2,1.3-2.9,3.1-3.1
		c8-0.8,16-1.7,24-2.3c2.2-0.2,4.8,0.2,5.1,2.9c0.3,3.1-2.7,2.8-4.7,3.3c-2.6,0.7-6.7-1.3-7.6,1.7c-0.8,2.7,2.6,5.1,4.4,7.5
		c8.7,11.7,15.4,24.7,22.3,37.5c5.5,10.2,12.2,19.6,18.5,29.2c2.4,3.6,3.5,0.2,4.2-1.5c3.2-9.1,6.7-18.3,9.3-27.6
		c4.5-16,10.7-31.3,18.8-45.8c0.8-1.4,0.9-2.5,0.3-3.7c-3.6-8.5-7.2-16.9-10.7-25.4c-1-2.5-3.1-2.8-5.4-2.8c-2.7-0.1-5.4-0.1-8-0.3
		c-1-0.1-2-0.7-2-1.9c0-1.3,1-1.5,2-1.9c8.1-2.6,16.6,1.7,19.9,9.4c8.8,20.8,16.3,42.1,26.9,62.1c1.2,2.2,2.7,4.2,3.8,6.5
		c1.2,2.4,2.8,3.1,5.3,2c13.1-5.6,25.7-1.9,38.2,2.1c5.5,1.8,9.6,6,12.3,10.7c5.8,10.1,10.4,21.4,7.5,33
		c-4.5,18.6-16.2,31.7-35,37.3c-8.5,2.5-16.6-0.5-24.5-3.2c-18.2-6.2-29-25.5-29-41.3c0-11.7,5.2-20.6,13.7-27.8
		c8.4-7.1,8.7-6.9,3.4-16.7C154.3,41.5,149.2,31,145,19.2c-5.9,10-10.7,19.5-13.6,29.8c-4.8,17.1-11.1,33.6-16.8,50.4
		c-0.6,1.9-1.7,3-3.7,2.6c-13-2.4-25.6,1.6-38.4,2.7c-1.3,0.1-2.7,0.5-4,0.5c-3.5-0.2-4.9,1.3-5.3,4.9c-1.9,16-12.8,27.1-28.8,30.7
		C20.8,143.9,8,143-2.8,133.5c-6.8-5.9-11.3-13.6-13.5-22.5c-0.5-1.9-1.1-3.9-1.6-5.8C-18,101.2-18,97.2-18,93.1z M187.4,59.4
		c-3.5-0.3-6.9,1.1-10.3,1.6c-4.7,0.7-5.1,3.1-2.9,6.6c4.8,7.5,7.2,16.2,12.4,23.5c1,1.4,1.5,2.7-0.2,3.9c-1.6,1.1-3.2,0.9-4.3-0.9
		c-0.6-1-1.1-2.1-1.7-3.1c-3.9-7.4-7.7-14.8-11.5-22.3c-1.2-2.3-2.5-3.9-4.9-1.7c-5.7,5.3-11.8,10.3-15.1,17.8
		c-6.5,15,4.1,43.2,23.3,48.2c2.1,0.6,4.2,1.2,6.2,2c10.1,4.2,20.2,2.4,28.1-3.7c14.4-11.1,24.5-24.9,18.6-44.9
		c-2.3-7.7-3.8-16.3-11.8-20.1C205.2,62.6,196.9,58.4,187.4,59.4z M40.7,107.1c0,0,0,0.1,0,0.1c-4.7,0-9.4,0-14.1,0
		c-5-0.1-6.4-1.9-4.8-6.6c0.7-2.2,1.7-4.4,2.9-6.3c4.7-7.3,9.4-14.7,14.6-21.6c2.8-3.7,1.2-4.7-1.9-6c-8.1-3.5-16.3-3.5-24.4-0.3
		C0.9,71.2-13,80-13.4,96.1c-0.5,20.9,12.5,45.3,41.7,42.2c16.5-1.7,26.7-10.5,29.7-26.4c0.7-3.5,0.2-5.4-4.2-4.9
		C49.5,107.5,45.1,107.1,40.7,107.1z M104.2,97.3c1.8,0.2,3.1-0.3,1.6-3c-1.4-2.5-2.8-4.9-4.2-7.4c-5.3-9.1-12-17.3-16.4-26.9
		c-3.2-7.1-7.5-13.7-11.3-20.6c-2-3.6-3.5-4.3-6-0.2c-2.1,3.4-3.5,7.1-6.2,10.3c-3.8,4.4-6.9,9.4-10.3,14.2
		c-0.9,1.2-1.4,2.2,0.1,3.4c7.9,5.9,9.1,15.1,11.7,23.7c1,3.2-1.9,8,2.2,9.4c3.2,1.1,7.2-0.4,10.9-0.8c1-0.1,2-0.5,3-0.5
		C87.3,98.2,95.3,94.9,104.2,97.3z M58.8,97.3c-1.1-8.5-2.1-15.4-5.9-21.5c-3.6-5.7-7.2-5.9-10.7,0c-3.3,5.5-7.1,10.5-10.9,15.5
		c-1.5,2-2.5,4.3-3.4,6.6c-1.4,3.4,0,4.4,3.3,4.6c7.2,0.5,14.3-0.3,21.4-0.4C57,102.1,60,101.2,58.8,97.3z"/>
</g>
</svg>
