<?xml version="1.0" encoding="utf-8"?>
<!-- Generator: Adobe Illustrator 18.1.1, SVG Export Plug-In . SVG Version: 6.00 Build 0)  -->
<svg version="1.1" id="Ebene_1" xmlns="http://www.w3.org/2000/svg" xmlns:xlink="http://www.w3.org/1999/xlink" x="0px" y="0px"
	 width="250px" height="250px" viewBox="112 -113 250 250" style="enable-background:new 112 -113 250 250;" xml:space="preserve">
<g>
	<path d="M213.9,39.9c-1.6,10.9-5.7,19.8-7.3,29.3c-2.3,13.7-9,24.8-17.9,35c-3.6,4.1-6.5,8.6-9.7,12.9c-1.9,2.7-1.9,4.2,1.6,4.7
		c7.4,1.2,7.8,8.6,11.5,13.1c1.2,1.4-1.2,2.2-2.4,2c-10.3-1.7-20.4-4.5-29.8-9.1c-3.5-1.7-4.5-4.7-2.4-8.5c2.8-5,5.2-10.3,8.4-15
		c9-13.4,15.8-27.8,21.6-42.8c1.3-3.2,1.6-6.5,1.6-9.9c0-5.2,0.1-10.4,0.5-15.6c0.5-5.7,1.1-11.5-1.1-17c-2.3-5.8-0.5-11.6-1.1-17.8
		c-8.9,3.1-14.7-1.6-20-7.6c-3.4-4-3.1-8.7-2.6-13.4c1.7-17.3,7.6-33.7,11.1-50.6c0.8-3.6,3.1-4.5,6.4-3.7c1.1,0.3,2.3,0.5,3.5,0.6
		c11.9,1.3,15.7,5.7,14.8,17.4c-0.2,3.2-0.7,6.3-1.1,10c2.2-0.9,2.6-2.4,3.1-3.9c1.4-4.5,4-8.5,6.3-12.6c0.7-1.2,1.3-2.8,2.6-2.9
		c4.9-0.5,6.2-5.1,9.3-7.6c2.6-2,0.5-4.2,0.1-6.3c-1.4-7.1-3-14.2,0.4-21.2c2.9-5.9,7.4-10,13.7-11.9c6.8-2.1,15,2.6,15.7,9.7
		c1.2,12.3,1.5,24.5-11.5,31.9c-2.6,1.5-4,4.5-5.7,7c-0.7,1.1-0.7,2-0.1,3.3c9.2,20.8,26.8,29.9,47.8,33.7c9.4,1.7,19,2.3,28.5,3.1
		c3.4,0.3,4.8,2.3,5.3,5.1c0.5,2.8,1,5.9-2.3,7.5c-1.7,0.8-1.9,2.2-2,3.7c-1.1,11.3-1.5,22.7-2,34.1c-0.3,7.4-1.8,14.6-2.3,22
		c-1.6,22.8-3.7,45.5-5.5,68.3c-0.3,3.3-0.8,6.8-4.5,6.7c-3.8-0.1-5.4-3.7-5.4-7.2c-0.1-6,0.1-12.1,0.4-18.1
		c1-18.1-0.1-36.3,2.3-54.4c2-14.9,3.6-29.7,4.1-44.7c0.3-7.1-0.3-7.8-7.4-7c-7.3,0.8-14.3,3.5-21.8,3.5c-11.2,0-18.1-7.3-24.8-14.7
		c-3.2-3.5-5.4-4.2-8.4-0.4c-1.2,1.4-2.6,2.8-3.3,4.4c-4.1,9.1-6.1,18.9-7,28.8c-0.4,4.4,2.8,7.6,6.1,10.5c8.7,7.7,17.9,14.8,24,25
		c3.1,5.2,3.5,10.8,4.1,16.4c1.1,11.9,2.2,23.7,3.3,35.6c0.6,7.2,2.9,13.5,9.5,17.4c1,0.6,2.1,1.3,2.7,2.3c1.4,2.4,6.4,3.4,3.6,7.6
		c-2.5,3.6-10.2,5.4-13.2,3c-5.1-4.1-10.2-8.2-16.2-11.1c-2-1-3.1-2.9-3.7-5.2c-0.9-3.8-1.8-7.6-1.8-11.5c0-8.5-2.4-16.3-6.1-23.8
		c-2.9-5.8-4.5-12-6.1-18.1c-1.1-4.4-2.7-8.3-6.5-11C220.7,48.1,217.7,44.5,213.9,39.9z M269.4-8.2c5.1,0.7,9.9-1.3,14.9-2.2
		c8.1-1.3,16.4-1.4,24.4-3.8c1.4-0.4,2.6-0.7,2.7-2.4c0.1-1.3-0.5-3.1-1.3-3c-2.9,0.3-4.4-2.7-7.1-2.5c-7.8,0.6-15.4-1.5-23-2.8
		c-15.7-2.6-29.3-9.3-40.6-20.8c-4.4-4.5-5.2-10.7-10.8-15c-7.3-5.6-14.1-6.3-18.7,1.9c-2.8,5-4.6,10.6-7.9,15.2
		c-2.1,3-4.3,5.6-4.3,9.3c0.2,8.1-2.7,15.4-5.3,22.9c-2.6,7.6-1.9,15.7-1.3,23.5c0.6,8.6,8.2,12.4,14.4,16.6
		c15.6,10.7,29,22.8,32.1,42.8c0.1,0.5,0.2,1,0.4,1.5c5.5,11.4,8.9,23.2,8.9,35.9c0,2.8,0.4,6.3,2.6,8c5.9,4.5,12.1,8.6,18.4,12.3
		c2.3,1.3,5.8,1.1,7.3-1.6c1.3-2.4-1.9-3.4-3.2-5c-0.5-0.6-1.1-1.3-1.8-1.7c-6.4-4.1-9.6-10-10.2-17.6c-1.1-12.7-2.7-25.4-3.7-38.2
		c-0.6-7.3-2.9-13.7-7.5-19.4c-5.1-6.5-10.7-12.6-17.1-17.8c-7.6-6.1-11.4-13.5-8.6-23.4c1.1-3.9,2.3-7.8,2.8-11.8
		c0.8-6.9,4.1-12.3,9-17c2.7-2.5,5-2.4,7.4,0.2c1.2,1.4,2.4,2.8,3.7,4.2C252.3-13.1,259.1-7.1,269.4-8.2z M194,25.8
		c-1.8,2.1-1.2,4.6-1.5,6.9c-1.3,8.7,0.9,17.6-1.5,26.1c-3.6,13-9.7,25.1-16.2,36.8c-4.2,7.6-9,15-13.4,22.5c-2,3.4-2.2,6.4,1.8,8.4
		c7.5,3.8,15.5,6.1,23.9,7.8c-0.4-6.6-4.5-9.4-9.7-11c-3.4-1-4.1-2.5-1.9-5.4c3.3-4.5,6.4-9.1,9.7-13.5c5.3-7.1,11.9-13.6,14.3-22.4
		c3.9-14.1,8.4-28,11-42.4c0.3-1.6,0.2-2.5-1.1-3.4C204.2,32.8,199.1,29.3,194,25.8z M167.6-19.9C165.5-8.4,173.1-2.5,180-0.3
		c3.3,1,6.4,0.5,7.1-3.3c1.2-6,3.3-11.6,5.4-17.3c4-10.9,4-22.5,5.5-33.8c1.7-12.6,0.7-13.5-12.1-15.5c-0.8-0.1-1.7-0.3-2.4-0.6
		c-3.5-1.3-5,0.4-5.8,3.5c-1.2,5.2-2.6,10.4-3.7,15.7C171.9-41,167.9-30.9,167.6-19.9z M220-67.5c1.8,0.5,3.6,0.7,5.2,1.5
		c3.2,1.6,5.3,0.9,6.7-2.5c1.1-2.7,3.4-4.5,6-5.9c3.5-1.7,5.7-4.7,7.1-8.2c2.7-6.4,2.5-13.2,1.7-19.9c-0.5-3.9-5.7-7.2-9.5-6.4
		c-8.5,1.7-14.8,10.9-13.6,19.5c0.6,4.3-0.4,8.8,1.4,13.1c0.7,1.6-0.4,3.6-1.9,4.9C222-70.3,220.5-69.4,220-67.5z M295.5,121.1
		c2.6-1.6,2.3-4,2.4-6c0.8-22.7,3.8-45.2,5.2-67.8c1.1-17.4,2.3-34.9,3.7-52.3c0.1-1.4,1.9-4.4-2.1-4.3c-3.1,0.1-3.9,1.4-3.9,4.3
		c-0.1,7.2-0.3,14.4-1,21.6c-1.2,12.2-3.4,24.3-4.1,36.5c-1.2,19.4-1.5,38.9-2.1,58.4C293.6,114.6,293.5,117.8,295.5,121.1z"/>
	<path d="M304.7-48.4c-5,7.1-2.8,14.7-4.6,21.6c-4.6-4.6-1.2-20.3,2.6-24.3c1.5-1.6,3-0.9,4.3,0.4c4.3,4.1,5.5,18.2,1.5,23.9
		C308.2-34.1,308.1-41.1,304.7-48.4z"/>
</g>
</svg>
