<?xml version="1.0" encoding="utf-8"?>
<!-- Generator: Adobe Illustrator 18.1.1, SVG Export Plug-In . SVG Version: 6.00 Build 0)  -->
<svg version="1.1" id="Ebene_1" xmlns="http://www.w3.org/2000/svg" xmlns:xlink="http://www.w3.org/1999/xlink" x="0px" y="0px"
	 width="250px" height="250px" viewBox="-18 -60 250 250" style="enable-background:new -18 -60 250 250;" xml:space="preserve">
<g>
	<path d="M126.5,10.7c0.3,26.2-2.9,52.1-5,78.1c-1.3,16-0.3,32.1-0.6,48.2c-0.3,13-1.1,25.9-1.5,38.9c-0.1,2.8-1.1,5.5,0.6,8.5
		c1,1.8-1.1,3.9-2.5,5c-2.1,1.7-2.1-0.9-2.9-2c-0.3-0.5-1.1-1-1.6-1c-8.2,0.8-15.9-5.1-24.2-1.5c-2.1,0.9-2.9-0.2-3.7-2.2
		c-1.5-3.8,0-7.5-0.3-11.2c-1.1-14.9,0.5-29.7,1.4-44.5c0.4-6.7-0.5-13.6-0.3-20.4c0.8-23.2,1.3-46.4,2.3-69.6c0.7-16,2-32,3-48
		c0.1-1.7,0.1-3.4,0.1-5.1c0-2.9-1.1-4.3-4.3-4.1c-5.5,0.3-10.9,0.1-16.4,0.4c-2.6,0.1-4-0.9-4.1-3.3c-0.5-11.4-0.6-22.9,0.5-34.3
		c0.3-3,3.3-2.7,5.4-2.4c17.1,2.2,34.2,3.6,51.5,1.4c2.5-0.3,4.2,0,5,2.9c2.7,10.1,13,15,22.8,11.1c5.8-2.3,6.8-1.7,7.2,4.5
		c0.4,5.1-0.1,10.3,1.1,15.3c0.8,3.4-0.7,5.1-4.3,5.2c-8.5,0.3-17,1.2-25.5,0.1c-3.1-0.4-3.8,0.5-3.6,3.9
		C126.8-6.7,126.5,2,126.5,10.7z M88,165.7c0,4.1-0.1,8.2,0,12.3c0,1.8,0,4.1,3,3.5c5.9-1.2,11.6,0.3,17.3,1.2c6.2,1,7.3,0,7.5-6.2
		c0.5-15.3,2-30.7,1.1-46.1c-1.6-29.3,2.2-58.3,4.1-87.5c0.4-6.4,1.3-12.9,1.1-19.3c-0.4-13-0.4-25.9,0-38.9c0.1-2-0.3-3.8-2.9-4
		c-7.2-0.4-14.3-0.8-21.5-1.1c-1.4-0.1-2.9-0.1-2.6,2c0.7,4.8-0.4,9.6-0.9,14.3c-1.1,8.9,0.2,17.8-0.7,26.6c-2,19.4-3,38.8-3.7,58.2
		c-0.6,16-0.5,32.1-0.9,48.1C88.7,141.1,87.3,153.4,88,165.7z M131.3-22.7c3.4,0.2,6.8,0.4,10.2,0.5c3.4,0.1,6.8,0.2,10.2,0
		c2.1-0.1,5.2,0.5,4.7-3.6c-0.5-3.9-0.8-7.8-1-11.7c-0.2-3.2-0.8-4.5-4.6-3.3c-8.9,2.7-20-1.4-23.4-9.2c-1.9-4.4-4.8-4.7-8.3-4.5
		c-14.5,0.8-29-0.6-43.4-1.2c-4.1-0.2-5.7,0.9-5.8,4.7c-0.1,7.2,0.2,14.4-0.4,21.5c-0.4,4.7,1.1,6.1,5.5,5.9
		C93.8-24.6,112.5-23,131.3-22.7z"/>
</g>
</svg>
