<?xml version="1.0" encoding="utf-8"?>
<!-- Generator: Adobe Illustrator 18.1.1, SVG Export Plug-In . SVG Version: 6.00 Build 0)  -->
<svg version="1.1" id="Ebene_1" xmlns="http://www.w3.org/2000/svg" xmlns:xlink="http://www.w3.org/1999/xlink" x="0px" y="0px"
	 width="250px" height="250px" viewBox="0 0 250 250" style="enable-background:new 0 0 250 250;" xml:space="preserve">
<g>
	<path d="M140.9,167.5c1-0.5,2.1-0.3,3.1-0.6c0.4-0.1,0.9-0.1,1.4-0.1c0.8,0,1.5-0.3,2.1-0.8c0.2-0.2,0.6-0.2,0.8-0.1
		c0.3,0.2,0.6,0.1,0.9,0.2c0.4,0.2,0.8-0.2,0.7-0.7c-0.1-1.2-0.3-2.3-0.3-3.5c0-0.4-0.1-0.9-0.2-1.3c-0.2-2-0.6-4-1.6-5.8
		c-0.3-0.5-0.5-1.2-0.1-1.8c0.5-0.6,1.2-0.7,1.9-0.7c1.4,0,2.8,0.1,4.1-0.4c0.6-0.2,1.2,0.1,1.8-0.1c0.2-0.1,0.3,0.1,0.4,0.3
		c0.1,1.2,0.6,2.4,0.5,3.7c0,0.3,0.3,0.6,0.4,0.9c0.6,1.5,1.1,3,1.2,4.6c0,0.7,0.4,1.3,0.7,1.8c0.2,0.4,0.9,0.5,1.3,0.4
		c0.9-0.2,1.8-0.2,2.7-0.4c0.8-0.2,1.6-0.3,2.4-0.3c0.6,0,1.1,0,1.7,0.1c0.6,0.1,1.3-0.1,1.9-0.2c1-0.1,2.1-0.2,3.1-0.6
		c0.1,0,0.2,0,0.3,0c1.1,0.6,2.1-0.1,3.1-0.4c0.5-0.2,1.1-0.3,1.6-0.3c0.6-0.1,0.8,0.6,1,1c0.4,0.9,0.8,1.8,1.3,2.6
		c0.5,0.7,0.8,1.6,1.2,2.4c0.4,1,0.9,1.9,1.6,2.7c0.2,0.2,0.3,0.4,0.3,0.7c0.1,0.5,0.4,1,0.6,1.5c0.4,0.8,0.2,1.1-0.7,1.1
		c-1,0.1-1.9,0.6-2.9,0.8c-1.4,0.4-2.8,0.9-4.3,1c-0.4,0-0.6,0.2-0.5,0.6c0.2,0.9,0.3,1.8,0.6,2.6c0.9,2.5,0.7,5.2,1,7.8
		c0.1,1,0.4,1.9,0.4,2.9c0.1,1.6,0.4,3.2,0.7,4.8c0.3,1.9,0.7,3.9,1,5.8c0.4,2.4,1.1,4.7,1.6,7.1c0.5,2.5,1.1,5,1.5,7.6
		c0.3,2.4,1,4.7,1.5,7c0.3,1.3,0.3,2.7,0.6,4c0.6,2.8,0.9,5.6,1.6,8.4c0.1,0.6-0.1,0.8-0.6,1c-0.6,0.2-0.6-0.3-0.7-0.7
		c-0.3-1.8-0.7-3.6-1-5.4c-0.4-2.5-0.6-5-1.1-7.5c-0.5-2.6-1.1-5.1-1.5-7.7c-0.2-1.3-0.5-2.6-0.8-3.8c-0.4-1.9-0.7-3.9-1.2-5.8
		c-0.4-1.7-0.7-3.4-1-5.1c-0.4-2.3-0.9-4.6-1.3-6.9c-0.2-1.3-0.4-2.6-0.5-3.9c0-1-0.3-1.9-0.4-2.9c-0.2-1.5-0.2-3-0.5-4.5
		c-0.2-1.3-0.7-2.6-1-4c0,0,0-0.1,0-0.1c-0.3-1.2-0.3-1.2-1.6-1.1c-0.7,0.1-1.5,0.2-2.2,0.2c-0.3,0-0.4,0.3-0.6,0.4
		c-0.3,0.1-0.6,0-0.9,0c-0.8-0.1-1.5,0-2.3,0c-1,0.1-1.9,0.3-2.9,0.6c-1,0.2-2,0.5-3,0.7c-0.4,0.1-0.8,0.2-1.2,0.2
		c-0.3,0-0.5-0.1-0.8,0.1c-0.3,0.2-0.8,0.2-1.2,0.2c-0.4,0-0.4,0.1-0.3,0.4c0.3,0.7,0.8,1.5,0.9,2.3c0.2,0.9,0.4,1.7,0.9,2.4
		c0.2,0.2,0.2,0.7,0.1,0.9c-0.1,0.5,0.4,0.7,0.2,1.2c0,0.2,0.2,0.2,0.4,0.2c1.1,0.1,2.2-0.2,3.2-0.1c0.3,0.1,0.3-0.3,0.3-0.5
		c0-1-0.2-2-0.4-2.9c-0.2-0.7-0.3-1.5-0.5-2.2c-0.1-0.6-0.2-1.1-0.5-1.6c-0.1-0.2-0.2-0.5,0-0.7c0.1-0.2,0.3-0.4,0.4,0
		c0.1,0.3,0.3,0.5,0.5,0.5c0.5,0.1,0.7,0.4,0.8,0.9c0.1,0.6,0.2,1.1,0.2,1.8c0,0.5,0.2,1,0.4,1.4c0.2,0.6,0.2,1.2,0.3,1.8
		c0.1,0.6,0.4,1.2,0.6,1.7c0.1,0.3,0.4,0.2,0.6,0.2c0.7-0.1,1.3-0.4,2-0.2c0.4,0.1,0.6,0.2,0.5,0.8c-0.1,0.6,0.2,1.2,0.2,1.8
		c0,0.7,0.3,1.4,0.6,2.1c0.4,0.6,0,1.2-0.7,1.4c-0.9,0.3-1.9,0-2.8,0.2c-2.5,0.5-5.1,0.3-7.6,0.7c-1.7,0.3-3.5,0.5-5.1,1.1
		c-0.6,0.2-1-0.1-1.2-0.6c-0.6-1.3-1.2-2.7-1.3-4.2c0-0.5,0.1-0.7,0.6-0.7c0.5,0,1-0.2,1.4-0.3c0.4-0.1,0.5-0.4,0.4-0.7
		c-0.2-0.9-0.4-1.8-0.5-2.7c-0.3-1.7-0.7-3.3-0.9-5c0-0.1,0-0.2,0-0.3c0-0.1,0.3-0.3,0.1-0.4c-0.2-0.1-0.4-0.1-0.6,0.1
		c-0.3,0.4-0.8,0.3-1.2,0.5c-0.1,0-0.2,0.1-0.2,0.1c-0.7-0.6-1.4,0.2-2,0.1c-1-0.1-1.8,0.3-2.8,0.2c-0.5,0-1,0.2-1.5,0.3
		c-1.6,0.5-3.2,0.6-4.8,0.9c-2.2,0.4-4.3,0.5-6.5,1c-0.5,0.1-1.1,0.2-1.7,0.2c-1,0-1.9,0.2-2.8,0.3c-1,0.1-2,0.4-3.1,0.5
		c-1.4,0.2-2.9,0.5-4.3,0.6c-1.3,0.1-2.6,0.1-3.8,0.3c-1.5,0.3-3,0.5-4.4,0.8c-0.8,0.1-1.6,0-2.4,0.2c-1.2,0.3-2.4,0.3-3.5,0.8
		c-0.3,0.1-0.7,0.1-1,0.1c-2.1,0.1-4.2,0.8-6.2,1.3c-0.1,0-0.2,0.1-0.3,0.1c-1.5-0.2-2.7,0.5-4.1,0.7c-2.3,0.2-4.6,0.8-7,1
		c-1.8,0.2-3.7,0.3-5.5,0.8c-0.7,0.2-1.4,0.2-2.2,0.2c-0.7,0-0.7,0.3-0.5,0.8c0.3,1.2,0.6,2.4,0.8,3.6c0.2,1.5,0.6,2.9,0.8,4.4
		c0.2,1.4,0.4,2.8,0.9,4.2c0.4,1,0.4,2,0.6,3c0.5,2.1,0.7,4.2,1.1,6.3c0.4,2.9,0.8,5.7,1.3,8.6c0.2,1.5,0.3,3,0.6,4.5
		c0.3,1.5,0.5,2.9,0.9,4.4c0.2,0.8,0.3,1.6,0.5,2.4c0.8,3.3,1.6,6.6,2.2,9.9c0.5,2.4,1,4.9,1.5,7.3c0.1,0.3,0.1,0.5,0,0.8
		c-0.1,0.3-0.4,0.5-0.6,0.5c-0.3,0-0.2-0.3-0.3-0.5c-0.9-2.4-1.2-5-1.8-7.5c-0.3-1.3-0.6-2.7-0.9-4.1c-0.3-1.6-0.8-3.1-1.2-4.7
		c-0.5-1.6-0.7-3.3-1-4.9c-0.3-1.5-0.6-3-0.8-4.6c-0.4-2.7-0.9-5.4-1.2-8.1c-0.2-1.7-0.4-3.5-0.7-5.2c-0.2-1-0.1-2-0.4-3
		c-0.5-2-0.6-4.1-1.4-6.1c-0.4-1-0.3-2.3-0.5-3.4c-0.3-1.8-0.7-3.6-1-5.3c-0.2-0.9-0.4-1.8-0.6-2.6c-0.1-0.5-0.4-0.6-0.8-0.5
		c-2.7,0.4-5.4,0.8-8.2,1.1c-1.4,0.2-1.7-0.4-1.2-1.7c1.3-3.4,3.3-6.5,5.1-9.6c0.6-1.1,1.4-1.3,2.4-1.3c1.7-0.1,3.3-0.5,4.9-0.7
		c1.9-0.2,3.8-1,5.7-0.9c0.3,0,0.6-0.1,0.6-0.5c0-1.1,0.5-2.1,0.5-3.3c0-1.1-0.1-2.2-0.5-3.2c-0.3-0.7-0.1-1.4-0.2-2.1
		c-0.1-0.9-0.5-1.7-0.4-2.6c0-0.2-0.3-0.4,0-0.5c0.3-0.2,0.5-0.6,0.9-0.5c1.1,0.2,2.1-0.2,3.2-0.3c0.7-0.1,1.2,0.2,1.2,0.9
		c0,0.7,0.2,1.4,0.4,2c0.4,1.7,0.2,3.4,0.5,5.1c0.2,1,0.4,2,0.7,2.9c0.1,0.3,0.3,0.5,0.6,0.5c1.5-0.1,2.9-0.1,4.4-0.5
		c0.1,0,0.2,0,0.3-0.1c1.4-0.2,1.4-0.2,1.3-1.6c-0.1-0.8-0.2-1.5-0.3-2.3c-0.2-0.7-0.1-1.3,0.1-1.9c0.1-0.4,0.4-0.5,0.7-0.3
		c0.6,0.5,1.2,0.3,1.8,0.1c1.9-0.7,1.5-0.3,1.9,1.2c0.2,0.7,0.1,1.4,0,2.1c-0.1,0.7,0,0.9,0.7,0.8c0.5-0.1,1-0.2,1.5-0.3
		c0.5-0.1,0.9-0.1,1.4,0c0.5,0.1,1.1-0.1,1.6-0.2c0.8-0.2,1.6-0.5,2.4-0.6c1.9-0.2,3.8-0.5,5.7-0.7c0.2,0,0.4,0,0.7,0
		c0.3,0,0.6,0.1,0.9-0.2c0.1-0.2,0.5-0.2,0.7-0.1c0.7,0.2,1.4,0,2.1-0.2c0,0,0.1,0,0.1,0c1.6,0.4,2.9-0.6,4.4-0.6
		c0.8,0,1.6-0.1,2.4-0.1c0.8,0,1.5-0.4,2.3-0.3c0.8,0.1,1.5-0.6,2.3-0.2c0.2,0.1,0.5-0.2,0.7-0.3c0.7-0.3,1.4-0.2,2.1-0.3
		c0.1,0,0.2,0,0.3,0c1.2-0.6,2.6-0.3,3.8-0.4C139.8,167.7,140.3,167.5,140.9,167.5z M102,172.3c0-0.6,0.1-1.3,0-2
		c-0.1-0.6-0.3-0.8-0.9-0.6c-0.3,0.1-0.5,0.3-0.8,0.2c-0.6-0.1-0.6,0.3-0.5,0.7c0.4,1.4,0.3,2.8,0.3,4.2c0,0.5-0.2,0.8-0.7,0.8
		c-1.2,0-2.3,0.3-3.5,0.4c-1.1,0.1-2.1,0.5-3.2,0.3c-0.6-0.1-1-0.4-1.1-1c-0.2-0.8-0.3-1.6-0.5-2.4c-0.2-1-0.5-2-0.5-3
		c0-1,0-1.9-0.2-2.8c-0.5-2.2-0.8-2.4-2.9-1.6c-0.3,0.1-0.5,0.2-0.4,0.6c0.1,0.8,0.3,1.6,0.4,2.4c0.3,2,0.5,4,0.2,6
		c-0.1,0.7-0.4,1.4-0.5,2.1c-0.2,1-0.2,1.1-1.2,1.2c-1.2,0.2-2.3,0.2-3.5,0.6c-0.6,0.2-1.3,0.3-1.9,0.4c-0.5,0-1.1,0.1-1.6,0.1
		c-1.1,0.2-2.2,0.4-3.3,0.5c-0.6,0-1.3,0.2-1.7,0.8c-1,1.2-1.5,2.5-2.3,3.8c-0.8,1.2-1.1,2.7-2.2,3.7c-0.1,0.1-0.1,0.1-0.1,0.2
		c-0.1,0.2-0.2,0.5,0,0.7c0.2,0.2,0.4,0.2,0.7,0.2c0.3,0,0.6-0.2,0.8-0.2c1.1,0.2,2.1-0.2,3.1-0.3c1.5-0.2,3-0.6,4.5-0.8
		c1.2-0.2,2.3-0.6,3.6-0.3c0.6,0.1,1.2,0.1,1.8-0.1c2-0.5,4-0.7,6-1c0.7-0.1,1.4-0.4,2.2-0.2c0.1,0,0.1,0,0.2-0.1
		c0.9-0.8,2-0.6,3-0.6c2.1-0.1,4-1,6.1-0.8c0.1,0,0.2-0.1,0.2-0.1c0.4-0.3,0.9-0.3,1.4-0.3c0.3,0,0.7,0.2,0.8-0.4
		c0-0.2,0.4-0.3,0.6-0.2c1,0.3,2,0,2.9-0.3c1.7-0.5,3.4-0.7,5-1c1.5-0.3,3,0,4.4-0.5c1.3-0.4,2.7,0,3.9-0.7c0.1-0.1,0.3,0,0.5,0
		c0.4,0.1,0.7,0,1-0.1c0.8,0,1.6-0.3,2.5-0.2c0.2,0,0.5,0.1,0.7,0c1.2-0.3,2.5-0.6,3.7-0.8c0.3-0.1,0.7-0.2,1-0.1
		c0.6,0.2,1.1,0,1.6-0.1c0.7-0.1,1.3-0.3,2-0.4c2.6-0.4,5.1-0.8,7.7-0.9c0.1,0,0.2,0,0.2-0.1c0.5-0.4,1.2-0.4,1.8-0.4
		c1.2,0,2.5-0.1,3.6-0.4c1.5-0.5,3,0,4.4-0.6c0,0,0.2,0,0.2,0c0.2,0.3,0.3,0.2,0.5-0.1c0.1-0.2,0.3-0.2,0.5-0.2c0.4,0,0.8,0,1.2-0.2
		c0.1-0.1,0.3-0.1,0.4,0.1c0.2,0.3,0.4,0.2,0.6,0.1c0.3-0.2,0.7-0.2,1-0.3c1-0.2,2-0.1,2.9-0.5c0.2-0.1,0.4,0,0.5,0
		c0.3,0.2,0.6,0.4,0.8-0.2c0.1-0.2,0.4-0.2,0.5-0.1c0.4,0.3,0.6,0.2,0.9-0.1c0.1-0.1,0.2-0.1,0.3-0.1c1,0.2,1.9-0.2,2.9-0.2
		c1,0,2.2,0,3.1-0.7c0.1-0.1,0.3-0.1,0.4-0.1c1.1,0.1,2.1-0.3,3.2-0.5c0.7-0.1,1.4-0.1,2.1-0.3c1-0.2,2-0.3,3-0.2
		c0.5,0,1.1,0,1.6-0.4c0.5-0.3,1.1-0.7,1.8-0.6c0.7,0.1,1.2-0.4,1.8-0.6c0.3-0.1,0.1-0.4-0.1-0.6c-0.3-0.5-0.6-1-0.8-1.5
		c-0.9-1.9-1.8-3.8-2.7-5.7c-0.2-0.5-0.5-1.1-1.2-0.5c-0.1,0.1-0.3,0.1-0.5,0.1c-0.7,0.1-1.4,0.1-2.1,0.2c-1.5,0.2-3.1,0.5-4.6,0.5
		c-2,0.1-4,0.6-6.1,0.6c-1.3,0-2.7,0.2-4.1,0.2c-1.1,0-1.4-0.3-1.7-1.3c-0.4-1.3-0.4-2.7-0.8-4.1c-0.5-1.8-1.2-3.5-1.4-5.4
		c0-0.4-0.2-0.6-0.7-0.6c-1.6,0-3.2,0.5-4.8,0.6c-0.2,0-0.3,0.2-0.3,0.4c0.2,0.9,0.4,1.9,0.8,2.7c0.4,1,0.3,2.2,0.6,3.2
		c0.2,0.7,0.1,1.5,0.2,2.2c0.1,1,0.3,2,0.4,3c0.1,0.7-0.3,1.4-0.7,1.5c-2,0.5-4,0.5-6,0.9c-1.5,0.3-2.9,0.5-4.4,0.8
		c-0.9,0.2-1.9,0.4-2.8,0.6c-1,0.2-2,0.3-3,0.6c-0.8,0.2-1.7,0.4-2.5,0.3c-0.6-0.1-1,0.2-1.5,0.3c-0.4,0.1-0.8,0.2-1.2,0.1
		c-1.2-0.3-2.3,0-3.5,0.1c-1.2,0.1-2.5,0.4-3.7,0.5c-1.4,0.2-2.9,0.4-4.3,0.6c-1.2,0.2-2.4,0.5-3.6,0.6c-1.9,0.2-3.8,0.5-5.6,0.7
		c-1.8,0.2-3.7,0.5-5.5,1c-0.5,0.1-0.8,0-0.8-0.6C102.1,173.2,102,172.7,102,172.3z M160.2,185.9c-1.7,0.1-3.3,0.6-4.9,1.1
		c-1.2,0.4-2.1,1.4-3.5,1.3c-0.3,0-0.2,0.1-0.2,0.4c0,1,0.4,2,0.6,3c0.1,0.4,0.2,0.5,0.7,0.5c1.9-0.4,3.8-0.8,5.8-0.9
		c1.2-0.1,2.3-0.3,3.5-0.3c1.5,0,3-0.3,4.5-0.3c0.4,0,0.5-0.2,0.4-0.5c-0.4-1.1-0.4-2.3-0.5-3.5c0-0.4-0.2-0.5-0.6-0.4
		c-0.4,0.1-0.8,0.3-1.3,0.4c-0.7,0.1-1.5,0.2-2.2-0.1C161.6,186,160.9,185.7,160.2,185.9z M153.4,186.1c-0.1,0.7,0.2,0.7,0.6,0.5
		c1-0.3,2-0.8,3-0.9c1-0.1,1.1-0.3,0.6-1.2c-0.5-1-0.9-1.9-1.1-3c-0.2-1.1-0.6-2.1-1.2-3.1c-0.4-0.7-1.6-0.3-2.2-0.1
		c-0.1,0-0.3,0.1-0.4,0.1c-0.4,0-0.7-0.3-1.1-0.1c0.3,1.2,0.5,2.2,0.7,3.4c0.1,0.4,0.3,0.8,0.2,1.3c-0.1,0.4,0,0.8,0.2,1.2
		C153.1,184.8,153.3,185.5,153.4,186.1z"/>
	<path d="M115.6,25.4c-0.1,0.7-0.3,1.3-0.4,2c-0.5,1.8-1.1,3.5-1.4,5.4c-0.1,0.6-0.6,1-1.2,0.9c-1.8-0.4-3.6-0.4-5.5-0.6
		c-1-0.1-2-0.2-3,0c-1.4,0.3-1.9-0.4-1.7-1.6c0.1-1.1,0.3-2.3,0.3-3.4c0-1.4,0.4-2.8,0.4-4.2c0-1,0-2,0.1-3c0.1-1.3,0.1-2.7,0.4-4
		c0-0.1,0-0.2,0.1-0.3c0.2-1.6,0.2-1.6-1.4-1.9c-0.7-0.1-1.4-0.3-2.1-0.5c-0.5-0.2-0.7,0-0.7,0.6c0,1.5-0.2,3-0.3,4.4
		c-0.1,2.9-0.6,5.7-0.8,8.5c-0.1,1.3-0.2,2.7-0.3,4c0,0.8-0.6,1.2-1.3,1c-1-0.2-2.1-0.4-3.1-0.3c-0.4,0.1-0.7-0.3-1-0.3
		c-1.8-0.4-3.7-0.4-5.6-0.5c-0.2,0-0.4,0-0.7-0.1c-1.3-0.4-2.7-0.4-4-0.4c-0.1,0-0.3,0-0.4,0c-0.4-0.2-0.9-0.3-0.9-0.9
		c0-0.6,0.6-0.5,1-0.5c1.6,0,3.3,0.1,4.9,0.4c0.2,0,0.5,0.1,0.7,0c0.7-0.3,1.3-0.1,1.9,0.1c0.7,0.2,1.4,0.3,2.2,0.2
		c0.6-0.1,1.2,0.3,1.9,0.2c0.9-0.1,1.7,0.3,2.6,0.2c0.4-0.1,0.5-0.2,0.5-0.6c0.1-2.8,0.3-5.5,0.6-8.3c0.1-1,0.1-2.1,0.2-3.1
		c0-0.9,0.1-1.7,0.2-2.5c0.1-1,0-1.9,0.1-2.9c0-1.2,0.6-1.5,1.7-1c0.8,0.4,1.7,0.4,2.5,0.5c0.8,0.1,1.6,0.2,2.4,0.3
		c0.6,0.1,1,0.6,0.9,1.2c-0.3,2-0.3,4-0.5,5.9c-0.1,1.1,0,2.3-0.2,3.4c-0.3,2.3-0.4,4.6-0.7,6.9c-0.1,0.5,0.1,0.7,0.6,0.7
		c0.1,0,0.3,0.1,0.4,0c1.6-0.4,3.2,0.2,4.8,0.5c0.8,0.1,1.5,0.1,2.3,0.3c0.2,0.1,0.4,0,0.4-0.3c0.2-1,0.7-1.9,0.7-2.9
		c0-0.1,0-0.2,0.1-0.3c0.8-1.5,1-3.3,1.4-4.9c0.2-0.6,0.3-0.7,0.9-0.3c0.9,0.6,1.9,0.8,2.9,1.2c0.5,0.2,0.7,0.5,0.7,0.9
		c0,0.3,0.1,0.6,0,0.9c-0.7,2-0.5,4-0.7,6c0,0.1,0,0.2,0,0.3c-0.3,1.4-0.3,1.3,1.2,1.4c1.6,0.1,3.1,0.4,4.7,0.7
		c1.5,0.3,3,0.4,4.5,0.6c1.7,0.2,3.5,0.5,5.2,0.8c2.6,0.5,5.2,0.8,7.7,1.1c1.6,0.2,3.1,0.6,4.7,0.7c1.6,0.1,3.2,0.5,4.9,0.7
		c1.1,0.1,2.1,0.6,3.2,0.8c0.3,0.1,0.6,0.1,1,0.2c2,0.3,4,0.6,6,0.8c1.9,0.2,3.7,0.8,5.6,1c0.2,0,0.4,0.1,0.6,0
		c0.6-0.3,1.1-0.2,1.4,0.5c0.1,0.2,0.3,0.2,0.5,0.3c1.4,0.2,2.8,0.5,4.2,0.7c0.3,0.1,0.7,0.1,1-0.3c0.3-0.3,0.6-0.4,1-0.1
		c0.4,0.3,0.9,0.6,0.8,1.2c-0.1,0.5-0.1,0.9-0.2,1.4c-0.3,0.9-0.1,1.9-0.6,2.8c0,0.1-0.1,0.2,0,0.3c0.4,0.6,0.1,1.2,0.1,1.7
		c0.1,1.7-0.4,3.3-0.6,5c-0.1,0.6,0,1.1,0,1.7c-0.1,1.2-0.3,2.3-0.7,3.5c-0.1,0.2,0,0.4,0.1,0.5c0.2,0.5,0.2,0.9-0.1,1.4
		c-0.1,0.2-0.1,0.3-0.1,0.5c0.2,0.4,0,0.8-0.1,1.3c-0.2,0.5-0.2,1.2-0.2,1.7c0.1,0.9-0.3,1.7-0.3,2.6c-0.1,1.1-0.5,2.1-0.5,3.1
		c-0.1,1.1-0.2,2.2-0.2,3.3c0,0.2,0,0.5-0.2,0.6c-0.3,0.3-0.3,0.7-0.2,1.1c0.1,0.3,0.1,0.6-0.2,0.8c-0.2,0.1-0.2,0.2-0.1,0.4
		c0.2,1,0.1,2-0.3,3c-0.1,0.3-0.2,0.6,0,0.9c0.1,0.1,0.1,0.3,0.1,0.4c-0.7,1.6-0.3,3.3-0.6,5c-0.3,1.3-0.6,2.5-0.6,3.8
		c0,0.2-0.2,0.4-0.3,0.6c-0.2,0.2-0.2,0.4-0.1,0.7c0.1,0.4,0.1,0.7-0.1,1.1c-0.1,0.1-0.1,0.2-0.1,0.4c0.2,1.1,0,2.2-0.4,3.3
		c-0.2,0.6-0.2,1.3-0.2,2c-0.1,1.2-0.5,2.4-0.6,3.6c0,1.7-1.1,3.1-1.2,4.9c-0.1,1.2-0.4,2.3-0.5,3.5c0,0.6-0.4,1.2-0.5,1.8
		c0,0.5-0.1,1,0,1.4c0,0.2,0,0.4,0,0.6c-0.4,0.9-0.4,1.9-0.6,2.9c-0.5,2.2-0.5,4.5-1,6.7c-0.2,0.9-0.4,1.8-0.6,2.8
		c-0.2,1.2-0.2,2.5-0.3,3.7c-0.2,1.2-0.5,2.4-0.7,3.6c0,0.2-0.1,0.4-0.1,0.5c0.1,0.7-0.1,1.3-0.4,2c-0.2,0.5-0.1,1.1-0.1,1.7
		c0,0.8-0.1,1.7-0.2,2.5c-0.2,1-0.5,2-0.5,3c0,0.7-0.3,1.3-0.3,2c0,0.6-1.3,1.1-1.8,0.8c-0.3-0.2-0.3-0.5-0.3-0.8
		c0.1-1.2,0.3-2.5,0.5-3.7c0.3-1.6,0.7-3.1,0.6-4.8c-0.1-1,0.3-1.9,0.4-2.9c0.4-2.3,0.8-4.7,1-7c0.1-0.8,0.3-1.6,0.5-2.4
		c0.4-1.6,0.4-3.3,0.9-5c0.3-0.9,0.2-1.9,0.4-2.9c0.4-1.5,0.6-3,0.8-4.5c0.3-2,0.7-4.1,1-6.1c0.2-1.3,0.6-2.6,0.9-3.9
		c0.5-1.9,0.8-3.9,1-5.9c0.1-0.9,0.3-1.8,0.4-2.6c0.2-1.2,0.5-2.4,0.7-3.6c0.3-2.1,0.5-4.1,0.8-6.2c0.3-2.2,0.5-4.4,0.7-6.6
		c0.1-0.6,0.3-1.2,0.4-1.8c0.2-1.4,0.6-2.8,0.7-4.2c0-0.9,0.2-1.7,0.4-2.6c0.3-1.2,0.4-2.5,0.4-3.7c0.1-1.7,0.4-3.4,0.6-5.1
		c0.3-2.6,0.8-5.2,1.2-7.8c0.2-1.6,0.2-3.2,0.3-4.8c0.1-0.7-0.1-1.5,0-2.2c0-0.4-0.6-0.5-0.9-0.6c-0.3-0.1-0.6,0-0.9,0
		c-0.6,0-1.2,0.1-1.7-0.4c-0.4-0.4-1-0.3-1.4-0.3c-0.8-0.1-1.6-0.3-2.3-0.6c-1-0.4-2-0.2-2.9-0.5c-1.4-0.4-2.9-0.3-4.3-0.8
		c-0.8-0.3-1.8-0.3-2.8-0.2c-0.2,0-0.3,0-0.5,0c-1.7-0.6-3.5-0.9-5.2-1c-2-0.2-4-0.9-6-1c-2-0.1-3.9-0.5-5.9-0.8
		c-1.7-0.3-3.4-0.6-5.1-0.9c-2.1-0.3-4.2-0.6-6.2-1c-0.5-0.1-0.9-0.1-1.4-0.1c-1.5-0.1-3-0.7-4.5-0.8c-1.1-0.1-2.2-0.2-3.3-0.4
		c-0.5,0-0.9,0.1-1.4,0.2c-0.6,0.1-0.9-0.1-1-0.6c-0.2-0.6-0.3-1.3-0.2-2c0.3-1.6,0.4-3.2,0.5-4.8c0.1-0.5,0.2-1,0.3-1.6
		c0.1-0.5,0-0.8-0.5-0.9C116.6,25.8,116.1,25.6,115.6,25.4z"/>
	<path d="M232.6,11.6c0.1,0.5,0.9,1,1.2,0.7c0.4-0.4,0.7-0.3,1.1-0.2c1.9,0.6,3.9,1,5.8,1.3c0.7,0.1,1.5,0.2,2.1,0.7
		c0.3,0.3,0.7,0,1.1,0.1c1.6,0.2,3.1,0.7,4.7,0.6c0.4,0,0.7,0.3,1,0.5c0.1,0.1,0.2,0.2,0.1,0.3c-0.6,1.6-1.2,3.2-1.8,4.8
		c-0.7,1.8-1.6,3.4-2.5,5.1c-0.5,1.1-1.2,2-1.7,3.1c-0.6,1.2-1.2,2.3-1.4,3.6c-0.1,0.5-0.4,0.9-0.5,1.5c-0.2,1.3-0.6,2.6-1,3.9
		c-0.3,1-0.4,2.1-0.6,3.1c-0.1,0.3-0.4,0.5-0.5,0.9c-0.3,1-0.4,1.9-0.7,2.9c-0.2,0.9-0.4,1.8-0.7,2.6c-0.2,0.7-0.1,1.4-0.3,2.1
		c-0.4,1.4-0.6,2.8-0.9,4.2c-0.1,0.5-0.1,1-0.2,1.5c0,0.2,0,0.4,0.3,0.5c0.4,0.2,0.5,0.5,0,0.7c-0.1,0.1-0.4,0.1-0.3,0.3
		c0.1,0.7-0.4,1.4-0.1,2.1c0.1,0.3-0.1,0.6-0.1,0.9c0,0.7-0.2,1.3-0.1,2c0.1,0.7-0.3,1.3-0.6,1.8c-0.2,0.3-0.6,0.5-1.1,0.4
		c-1.5-0.4-3-1.1-4.6-1.4c-0.4-0.1-0.9-0.3-1.3-0.5c-0.9-0.4-1.9-0.4-2.8-0.8c-1-0.4-1.9-0.8-3-0.9c-0.4-0.1-0.9-0.2-1.3-0.4
		c-0.7-0.4-1.5-0.8-2.3-1c-1.9-0.6-3.8-1.2-5.7-1.5c-1.7-0.3-3.4-0.6-4.9-1.6c-0.5-0.3-1.2-0.4-1.9-0.1c-0.8,0.3-1.5,0.7-2.3,0.9
		c-1.3,0.4-2.5,1-3.8,1.3c-1.1,0.3-2.3,0.6-3.5,0.8c-1.4,0.2-2.7,0.9-4.1,1c-0.3,0-0.5,0.3-0.8,0.4c-1.6,0.5-3.2,0.9-4.8,1.2
		c-0.4,0.1-0.6,0.4-0.9,0.5c-0.6,0.3-1.1,0.5-1.7,0.7c-0.1,0-0.2,0-0.3,0.1c-1,1.1-2.6,1.3-3.8,2.1c-0.6,0.4-1.3,0.8-1.9,1.3
		c-0.3,0.2-0.6,0.3-1,0.3c-0.5,0.1-0.8-0.3-0.8-0.9c0-1.3,0.8-2.2,1.5-3.1c0.4-0.4,0.8-0.8,1-1.3c0-0.1,0.1-0.2,0.2-0.3
		c1-0.5,1.6-1.4,2.3-2.2c0.7-0.8,1.8-1.3,2.4-2.1c0.7-1.2,2-1.7,2.7-2.8c0.1-0.1,0.2-0.2,0.4-0.2c0.4-0.2,0.7-0.5,0.9-0.9
		c0.2-0.4,0.5-0.7,0.9-1c0.5-0.4,0.9-1.1,1.3-1.6c0.2-0.3-0.1-0.4-0.3-0.5c-0.8-0.3-1.7-0.6-2.4-1.1c-0.3-0.2-0.6-0.4-1-0.6
		c-0.6-0.3-1-0.8-1.8-0.8c-0.6,0-1.4-0.3-2-0.6c-0.4-0.2-0.7-0.6-0.5-1.1c0.3-0.7,0.5-1.5,1.1-2c0.3-0.3,0.3-0.6,0.4-1
		c0.9-2.2,1.4-4.6,1.9-6.9c0.2-1.1,0.6-2.1,0.8-3.2c0.3-1.2,0.6-2.5,0.6-3.8c0-0.7,0.1-1.4,0.2-2.2c0.4-2.6,1.1-5.2,1.8-7.7
		c0.7-2.4,1.6-4.9,2-7.4c0.3-1.8,0.7-3.7,1.2-5.5c0.1-0.4,0.4-0.7,0.8-0.6c0.8,0.1,1.5-0.1,2.2-0.5c0.1-0.1,0.3-0.1,0.4-0.1
		c1.4,0,2.7,0,4.1,0.5c0.5,0.2,1.1,0.2,1.6,0.4c0.2,0.1,0.3,0.1,0.5,0c0.5-0.4,0.8,0,1.1,0.3c0.2,0.2,0.4,0.2,0.6,0.2
		c0.8,0,1.5,0.2,2.2,0.6c0.1,0,0.2,0.1,0.3,0.1c2.6,0.3,4.9,1.3,7.4,1.8c2.5,0.5,5,1.1,7.5,1.9c0.3,0.1,0.7,0.2,1,0.1
		c0.3-0.1,0.6,0,0.9,0.1c0.5,0.2,1.1,0.3,1.6,0.3c0.4,0,0.7,0.1,1.1,0.2c1.1,0.5,2.3,0.6,3.4,1c0.8,0.3,1.6,0.1,2.4,0.5
		C232.2,12,232.4,11.7,232.6,11.6z M181.2,61.9c0.5-0.4,0.9-0.5,1.3-0.7c1-0.5,2.1-0.9,3-1.4c1.4-0.8,3-1,4.5-1.5
		c0.3-0.1,0.5,0.1,0.7,0.2c0.1,0,0.2,0,0.2-0.1c0.1-0.4,0.5-0.3,0.8-0.5c0.5-0.3,1.1,0,1.5-0.3c1.1-0.7,2.4-0.8,3.6-1.2
		c1.1-0.3,2.3-0.3,3.3-0.8c0,0,0.1,0,0.1,0c2-0.6,4-1,5.8-2c0.8-0.4,1.3-0.5,2.2-0.3c1,0.2,2,0.5,3,0.7c0.3,0.1,0.6,0.1,0.9,0.3
		c0.4,0.4,0.9,0.4,1.4,0.5c1.1,0.2,2.4,0.4,3.3,0.9c0.9,0.5,1.9,0.4,2.7,0.9c0.3,0.2,0.7,0.4,1,0.4c1,0,1.9,0.4,2.8,0.8
		c0.8,0.3,1.6,0.8,2.4,0.8c1.2,0,2,0.7,3.1,0.9c1.4,0.3,2.8,0.8,4.2,1c1,0.1,1.4-0.3,1.1-1.3c-0.1-0.4-0.1-0.8,0-1.2
		c0.6-1.8,0.6-3.7,0.8-5.5c0.2-1.9,0.6-3.7,0.9-5.6c0.2-1.1,0.6-2.2,0.7-3.3c0.1-1.1,0.4-2.2,0.8-3.1c0.8-2,1.1-4.1,1.7-6.1
		c0.3-1.2,0.7-2.4,1.1-3.6c0.3-1,0.6-2.1,1.2-3c2.2-3.2,3.8-6.7,5.2-10.3c0.3-0.7,0-1.1-0.8-1c-0.9,0.1-1.7-0.3-2.5-0.6
		c-1-0.3-1.9-0.9-3-0.5c-0.2,0.1-0.5,0-0.6-0.1c-0.6-0.4-1.3-0.5-1.9-0.6c-2.1-0.5-4.2-1-6.3-1.5c-1.3-0.3-2.7-0.3-4-0.7
		c-1.3-0.4-2.5-0.8-3.8-0.8c-0.6,0-1.1-0.5-1.6-0.5c-1.4-0.1-2.7-0.9-4.2-0.9c-0.9,0-1.7-0.5-2.6-0.6c-1.5-0.1-2.9-0.8-4.3-1.1
		c-0.9-0.2-1.8-0.6-2.7-0.9c-1-0.3-2.1-0.5-3.1-0.9c-0.5-0.2-1-0.4-1.5-0.2c-0.1,0-0.3,0.1-0.3-0.1c-0.1-0.4-0.2-0.2-0.4-0.1
		c-0.3,0.2-0.6,0.5-1,0.5c-1.3-0.3-2.7-0.3-4-0.3c-1,0-2-0.1-3-0.1c-0.6,0-1.1,0.2-1.2,0.8c-0.2,1.1-0.6,2.2-0.7,3.3
		c-0.2,1.3-0.5,2.6-0.9,3.9c-0.5,2-1.4,3.9-1.9,6c-0.5,2.1-1,4.2-1.1,6.3c0,1.1-0.2,2.3-0.5,3.4c-0.6,2.3-0.9,4.7-1.6,7
		c-0.2,0.7-0.4,1.6-0.4,2.4c-0.1,1.4-0.8,2.6-1.3,3.9c-0.2,0.5,0,0.8,0.5,0.8c0.1,0,0.2,0,0.4,0c0.7,0.2,1.4,0.6,2,1
		c0.4,0.3,0.7,0.8,1.2,0.8c1.1,0.1,2,0.8,3,1.3c0.3,0.2,0.5,0.4,0.4,0.8c-0.1,0.4-0.2,0.9-0.4,1.2c-0.9,1.3-1.9,2.5-2.8,3.8
		c-0.7,0.9-1.8,1.3-2.5,2.2c-1,1.2-2.2,2.2-3.3,3.3c-0.7,0.7-1.2,1.6-2.1,2.1C181.5,61.2,181.4,61.5,181.2,61.9z"/>
	<path d="M209.8,118.8c0.1,0.9,0.3,2,0.5,3.1c0.1,0.5,0.2,1,0.2,1.4c0.1,1.2-0.3,1.6-1.5,1.7c-0.4,0-0.7,0.1-1.1,0.3
		c-0.4,0.3-0.6,0.2-0.8-0.3c-0.6-1.6-1.1-3.2-1.3-4.8c0-0.2,0-0.3-0.3-0.3c-0.6,0.1-1.2,1-1.1,1.6c0.2,1,0.5,2,0.9,2.9
		c0.5,1.1,0,1.9-1.1,2.3c-0.9,0.4-1.9,0.7-2.9,1c-0.6,0.2-1.1,0.1-1.3-0.5c-0.4-0.9-0.8-1.7-0.9-2.7c-0.1-0.7-0.5-1.3-0.7-1.9
		c-0.1-0.4-0.6-0.4-1-0.2c-0.1,0.1-0.3,0.2-0.4,0.2c-0.9,0.1-0.8,0.6-0.8,1.3c0.2,1.3,0.3,2.7,0.6,4c0.1,0.3,0.1,0.6,0,0.9
		c-0.1,0.4-0.4,0.6-0.7,0.4c-0.4-0.3-0.9-0.2-1.3-0.2c-0.9,0.2-1.3-0.3-1.6-1c-0.5-1.2-1-2.4-1.3-3.7c-0.3-1.3-0.7-2.7-1.2-4
		c-0.3-1-0.5-2.1-0.7-3.2c-0.1-0.5,0.3-0.8,0.7-0.9c0.6-0.3,1.2-0.5,1.8-0.8c0.1,0,0.1,0,0.2-0.1c0.5-0.9,1.3-1.1,2.2-1.2
		c0.8-0.1,1.2-0.9,1.9-1.3c0.1-0.1,0.2-0.2,0.3-0.2c1.4-0.2,2.6-0.9,3.9-1.4c1.2-0.4,2.4-0.8,3.6-1.1c0.3-0.1,0.5-0.2,0.9,0
		c0.4,0.2,0.7-0.4,1.1-0.4c0.1,0,0.2-0.2,0.3-0.2c1.3,0,2.3-1,3.6-0.8c0.9,0.1,1.8-0.2,2.6-0.4c0.1,0,0.3,0,0.4-0.1
		c1-0.8,2.2-0.6,3.4-0.8c1.3-0.2,2.5-0.5,3.6-1.1c0.3-0.1,0.7-0.3,1.1-0.2c0.3,0,0.4-0.1,0.6-0.3c1-0.7,0.4-1.7,0.3-2.5
		c-0.1-0.8-0.1-1.4,0.2-2.1c0.6-1.4,1.6-2.5,2.6-3.6c0.2-0.2,0.5-0.4,0.7-0.5c1.6-0.6,2.9-1.8,4.8-1.7c0.3,0,0.5-0.1,0.8-0.2
		c1.2-0.6,2.3-0.2,3.5,0c0.8,0.1,1.7,0.2,2.4,0.5c2,0.9,3.9,1.9,5.4,3.6c2,2.2,3.1,4.8,3.5,7.6c0.1,0.8,0,1.5-0.1,2.3
		c-0.2,1.6-0.4,3.3-1.3,4.7c-1,1.5-2.1,3-3.7,3.9c-0.6,0.4-1.5,0.5-2.1,1c-0.8,0.7-1.8,0.4-2.7,0.8c-1.3,0.5-2.5,0.3-3.7-0.1
		c-0.5-0.2-1.1,0-1.6-0.2c-1.6-0.6-3-1.5-4.4-2.4c-0.7-0.5-1.5-1.1-2.1-1.8c-0.4-0.4-0.9-0.6-1.2-1.1c-0.1-0.2-0.3-0.1-0.4-0.1
		c-0.5,0.1-1,0.2-1.5,0.4c-1.3,0.6-2.7,0.9-4,1.5c-0.8,0.3-1.6,0.5-2.4,0.8c-0.1,0-0.2,0.1-0.3,0.1c-1.2-0.2-2.4,0.4-3.6,0.4
		c-0.6,0-1.3,0.2-1.9,0.4C209.5,117.8,209.9,118.2,209.8,118.8z M235.5,117.9c0.3,0,0.7,0.1,1.1,0c2.3-0.4,4.2-1.4,6-2.9
		c2.4-2.1,3.3-4.8,3.2-7.8c-0.1-2.8-1.4-5.1-3.5-6.9c-1.7-1.5-3.8-2.6-6.2-2.9c-1.6-0.2-3.1-0.3-4.7,0c-1.7,0.3-3.3,1-4.7,2
		c-1.2,0.8-2.2,2.1-2.7,3.5c-0.3,0.8-0.2,1,0.5,1.4c0.2,0.1,0.4,0.2,0.4,0.5c-0.1,1.2-0.8,2.1-1.5,3c-0.2,0.3-0.7,0.1-0.9,0.3
		c-1.1,1-2.6,0.7-3.9,1.1c-0.6,0.2-1.5,0.2-2.2,0.4c-1,0.3-1.9,0.7-2.9,0.9c-2.4,0.3-4.8,0.8-7.2,1.5c-2.1,0.6-4.4,0.9-6.5,1.7
		c-0.5,0.2-1.1,0.3-1.4,0.7c-0.4,0.6-1.1,0.9-1.6,1.2c-1.6,0.9-3.2,1.5-4.7,2.5c-0.3,0.2-0.4,0.4-0.3,0.7c0.2,0.8,0.3,1.5,0.5,2.3
		c0.2,1.1,0.8,2.1,0.9,3.2c0.1,0.8,0.5,1.5,0.8,2.3c0.2,0.5,0.6,0.7,1.1,0.6c0.5-0.1,0.3-0.6,0.3-1c0-0.1-0.1-0.3-0.1-0.4
		c-0.4-1.5-0.6-3-0.3-4.6c0.1-0.3,0.2-0.5,0.5-0.4c0.8,0.5,1.4-0.2,2.1-0.3c1-0.2,1.5,0,1.8,1c0.3,1.1,0.5,2.2,0.9,3.3
		c0.3,0.9,0.3,0.9,1.2,0.6c0.1,0,0.2-0.1,0.3-0.1c0.5,0.1,1-0.2,1.4-0.4c0.4-0.2,0.5-0.4,0.3-0.8c-0.7-1.3-0.7-2.8-1-4.2
		c-0.1-0.3,0-0.7,0.4-0.8c0.5-0.2,1-0.5,1.5-0.7c0.2-0.1,0.3-0.1,0.4-0.3c0.3-0.6,0.6-0.6,1-0.2c0.4,0.4,0.6,1,0.7,1.6
		c0.2,1.1,0.4,2.2,0.8,3.2c0.2,0.6,0.6,0.7,1.2,0.5c0.6-0.2,0.5-0.7,0.4-1.1c-0.1-0.4-0.3-0.7-0.3-1.1c-0.1-1.3-0.3-2.6-0.6-3.9
		c-0.1-0.6,0.2-1,0.8-1.2c1.6-0.5,3.3-0.5,4.9-0.8c1.1-0.2,2.2-0.5,3.3-0.8c1.3-0.4,2.6-0.7,3.7-1.6c0.1-0.1,0.3-0.1,0.4-0.2
		c0.7-0.1,1.3-0.3,1.7-1c0.2-0.3,0.5-0.2,0.6,0.1c1.2,1.8,2.9,3,4.6,4.2C230.5,117.1,232.8,117.9,235.5,117.9z"/>
	<path d="M7.5,128.3c0,0.1,0,0.2,0,0.4c0.1,0.8,0.3,1.6,0.5,2.3c0.2,0.8,0,1.7,0.1,2.5c0.1,0.8,0.1,1.6,0.3,2.4
		c0.3,1,0.1,2.1,0.4,3.1c0.2,0.8,0.2,1.6,0.5,2.3c0.2,0.5,0,1.1,0.1,1.7c0.2,1.2,0.6,2.3,0.6,3.6c0,0.6,0.1,1.2,0.4,1.7
		c0.1,0.2,0.1,0.4,0.1,0.6c0,0.7,0.2,1.3,0.5,2c0.6,1.2,0.6,2.5,0.8,3.8c0.1,1.2,0.4,2.4,0.6,3.6c0.1,0.5,0.1,1.1,0.3,1.6
		c0.2,1,0.1,2,0.4,2.9c0.1,0.2,0,0.4,0.2,0.4c0.7,0.1,0.4,0.3,0.1,0.5c-0.2,0.1-0.2,0.2-0.2,0.4c0,0.7,0,1.3,0,2
		c0,0.2,0.1,0.4,0.3,0.4c0.6,0.1,0.4,0.5,0.3,0.8c-0.1,0.2-0.5,0.4-0.1,0.8c-0.5-0.1-0.9-0.2-1.4-0.3c-0.3-0.1-0.2-0.3-0.3-0.6
		c-0.1-0.8,0-1.7,0-2.5c-0.1-1.4-0.3-2.8-0.5-4.2c-0.2-1.5-0.4-3-0.7-4.4c-0.4-2.2-0.9-4.4-1.4-6.6c-0.3-1.7-0.8-3.3-1-5
		c-0.3-2-0.7-3.9-0.8-5.9c-0.2-2-0.7-4-0.6-6.1c0.1-2.8-1.1-5.4-1.2-8.2c0-0.8-0.3-1.3-0.5-2c-0.2-0.7,0-1.5-0.2-2.3
		c-0.2-0.7-0.4-1.4-0.5-2.1c-0.2-1.1-0.3-2.2-0.4-3.3c0-0.9-0.4-1.6-0.5-2.4c-0.3-1.9-1.1-3.6-0.9-5.6c0.1-1.1-0.4-2.1-0.5-3.1
		c-0.3-2.2-0.9-4.3-1.3-6.4c-0.2-0.9,0-1.8-0.1-2.7c-0.1-2.4-0.1-4.9-0.2-7.3c0-0.4-0.4-0.9-0.1-1.2c0.4-0.4,1-0.6,1.6-0.8
		c1.3-0.4,2.7-0.6,4-0.8c1.2-0.2,2.3-0.5,3.4-0.8c1.5-0.5,3-0.7,4.5-1c2.3-0.5,4.7-0.8,7-1.3c2.7-0.6,5.4-0.9,8.1-1.2
		c1.3-0.1,2.5-0.5,3.8-0.6c2.5-0.1,4.9-0.6,7.3-0.8c1.1-0.1,2.1-0.5,3.1-0.7c1.3-0.3,2.7-0.2,4-0.7c1-0.3,2.1-0.3,3.1-0.6
		c0.7-0.1,1.3,0.4,1.3,1.1c0,0.8,0.3,1.5,0.4,2.3c0.4,2.3,1.4,4.6,1.5,7c0,0.5,0.2,1,0.3,1.5c0.4,1.3,0.3,2.6,0.5,3.9
		c0.2,1,0.5,2,0.4,3c-0.1,1.5,0.2,2.9,0.4,4.4c0.2,1.4,0.1,2.8,0.3,4.1c0.1,1.2,0.3,2.4,0.2,3.6c-0.1,1.1,0,2.2,0.1,3.3
		c0,1.1,0.1,2.2,0.2,3.3c0,1.5,0.1,3,0.3,4.4c0.2,1.7,0.4,3.4,0.6,5.1c0.2,1.3,0.3,2.7,0.7,4c0.3,1,0.4,2,0.7,3c0.6,2,1.1,4,1.4,6.1
		c0.1,0.9,0.4,1.9,0.8,2.8c0.3,0.8,0.2,1.7,0.4,2.5c0.5,1.9,0.9,3.8,1.3,5.8c0.6,2.7,0.8,5.5,1.2,8.3c0.2,1,0.3,2.1,0.4,3.1
		c0.1,0.4,0,0.7-0.5,0.7c-0.5,0-0.9,0-1-0.6c-0.2-1.8-0.5-3.5-0.7-5.3c-0.2-2-0.5-3.9-0.9-5.8c-0.3-1.5-0.4-3-0.8-4.4
		c-0.5-1.9-0.7-3.8-1.3-5.7c-0.6-2-0.9-4.1-1.5-6.2c-0.3-1.2-0.8-2.4-0.9-3.6c-0.3-2.1-0.8-4.1-1-6.1c-0.1-1-0.4-2-0.4-3
		c-0.1-1.8-0.4-3.5-0.3-5.3c0.1-1.4-0.1-2.8-0.2-4.2c-0.1-1.8,0-3.6-0.1-5.4c-0.2-2.8-0.3-5.6-0.6-8.3c-0.1-1.8-0.3-3.5-0.7-5.3
		c-0.7-3.4-1-7-2.2-10.3c-0.2-0.6-0.3-1.3-0.4-1.9c-0.1-0.5-0.3-0.7-0.8-0.6c-0.5,0.1-0.9,0.2-1.4,0.3c-2.5,0.4-4.9,0.9-7.4,1.5
		c-1.1,0.2-2.2,0.2-3.2,0.3c-1.2,0.1-2.3,0.5-3.5,0.4c-1.9-0.1-3.7,0.6-5.5,0.7c-3.3,0.1-6.6,1.1-9.9,1.6c-2.4,0.4-4.9,0.9-7.3,1.4
		c-1.9,0.4-3.8,1-5.8,1.4c-1.1,0.2-2.3,0.3-3.3,0.8c-0.4,0.2-0.6,0.5-0.5,0.9C2.1,88.2,1.9,89.1,2,90c0.2,1.9-0.2,3.9-0.1,5.8
		c0,0.8,0.2,1.5,0.4,2.3c0.6,2.4,1.1,4.7,1.4,7.1c0.2,1.2,0.2,2.4,0.3,3.6c0,0.3,0.1,0.7,0.3,1c0.7,1.4,0.7,3.1,1,4.6
		c0.1,0.6,0.1,1.1,0.2,1.7c0.2,1.2,0.6,2.4,0.8,3.6c0.2,1.4,0.2,2.9,0.4,4.3c0.1,0.8,0.3,1.6,0.4,2.4C7.2,127.1,7.4,127.7,7.5,128.3
		z"/>
	<path d="M51.1,236.5c-1.4,0.3-2.6-0.6-3.9-1c-0.7-0.2-1.5-0.7-1.9-1.5c-0.2-0.3-0.7-0.3-0.9-0.6c-0.6-0.7-1.3-1.4-1.7-2.3
		c-0.3-0.6-0.7-1.1-1-1.6c-0.2-0.4-0.4-0.8-0.5-1.3c-0.2-0.7-0.6-1.4-0.8-2.1c0,0-0.1-0.1-0.1-0.1c0-1.4-1.1-1.4-2-1.5
		c-1.2-0.1-2.4-0.5-3.6-0.6c-1.8-0.2-3.5-0.9-5.2-1.6c-0.8-0.3-1.7-0.4-2.4-0.9c-0.3-0.2-0.4,0-0.5,0.3c-0.6,1.3-1.2,2.7-1.7,4.1
		c-0.1,0.2-0.1,0.4-0.2,0.6c-0.5,1.2-0.9,1.3-2.1,0.8c-0.3-0.1-0.6-0.3-1-0.2c-0.5,0.1-0.6-0.2-0.5-0.6c0.3-1.4,0.5-2.9,1.1-4.2
		c0.1-0.2,0.3-0.4,0.1-0.6c-0.2-0.2-0.4-0.1-0.6,0c-0.7,0.1-1.1,0.4-1.2,1.1c-0.2,0.9-0.4,1.7-0.6,2.6c-0.1,0.9-0.8,1.4-1.8,1.3
		c-1-0.2-2.1-0.3-3.1-0.5c-0.5-0.1-0.7-0.5-0.7-1c0-0.7,0.1-1.4,0.3-2c0.3-0.8,0.3-1.7,0.6-2.5c0.2-0.4-0.2-0.6-0.5-0.6
		c-0.4-0.1-0.8-0.1-1.2-0.2c-0.3-0.1-0.4,0.2-0.5,0.4c-0.6,1.3-1.2,2.5-1.6,3.9c-0.1,0.3-0.2,0.5-0.3,0.7c-0.3,0.4-0.7,0.4-0.9,0
		c-0.2-0.3-0.5-0.5-0.8-0.6c-0.8-0.4-1-0.6-0.9-1.5c0.2-2.4,0.9-4.6,1.4-6.9c0.2-1,0.6-2,0.9-3c0.2-0.9,0.6-1.1,1.6-1
		c0.7,0.1,1.4,0.3,2.1-0.1c0.4-0.2,0.9,0,1.4,0.1c0.6,0.2,1.1,0.3,1.8,0.1c0.5-0.1,1.1-0.2,1.7,0c1,0.4,2.2,0.4,3.3,0.5
		c0.3,0,0.5,0,0.7,0.2c0.1,0.1,0.2,0.2,0.3,0.1c1-0.5,1.8,0.3,2.6,0.5c0.7,0.2,1.4,0.3,2.1,0.5c1.1,0.4,2.3,0.3,3.4,1
		c0.6,0.4,1.3,0.7,2.1,0.8c0.3,0,0.6,0.2,0.8,0.2c0.8-0.1,1.4,0.2,2,0.5c0.6,0.3,1.3,0.4,1.9,0.7c1.2,0.6,2.6,0.3,3.8,1
		c0.4,0.2,1.3-0.4,1.4-0.8c0.2-0.6,0.4-1.1,0.6-1.7c0.3-0.9,1.1-1.2,1.8-1.6c1.6-0.9,3.3-1.4,5.3-1.1c1.3,0.2,2.5,0.6,3.8,0.9
		c0.9,0.2,1.7,0.5,2.4,1.1c0.9,0.8,2.1,1.5,2.8,2.5c1,1.6,2.2,3.3,2.4,5.3c0.1,1,0.4,1.9,0.3,2.9c-0.2,2.2-0.4,4.3-1.8,6.2
		c-0.8,1.1-1.5,2.1-2.5,3c-0.5,0.4-1,0.8-1.6,1c-1.3,0.5-2.6,1-4.1,1.1C52.4,236.8,51.8,236.4,51.1,236.5z M53,235.1
		c0.4,0.1,1.1-0.1,1.8-0.3c1.1-0.3,2.1-0.6,3.1-1.2c1.4-0.9,2.4-2.1,3.2-3.5c0.8-1.4,1.1-3,1-4.6c-0.1-1.7-0.5-3.4-1.5-5
		c-0.9-1.5-2.1-2.8-3.5-3.8c-1.4-1-2.9-1.6-4.6-1.9c-2.6-0.5-5.1-0.3-7.2,1.5c-0.4,0.4-0.5,0.7-0.2,1.2c0.3,0.3,0.3,0.7,0,0.9
		c-0.9,0.7-1.7,1.9-3.2,1.3c0,0-0.1,0-0.2,0c-0.4,0.3-0.9,0.2-1.3,0c-0.9-0.4-1.9-0.6-2.8-1c-0.9-0.5-1.9-0.5-2.8-0.7
		c-1.5-0.3-2.9-1-4.4-1.4c-1.8-0.6-3.7-1-5.6-1.6c-1.5-0.5-3-0.9-4.5-1.2c-0.5-0.1-1-0.2-1.5,0.1c-0.2,0.1-0.5,0.1-0.7,0.1
		c-1.8,0-3.7-0.3-5.5-0.2c-0.5,0-0.8,0.2-0.9,0.7c-0.1,0.3-0.2,0.6-0.3,0.9c-0.5,2-0.9,4-1.4,5.9c0,0.2,0,0.4,0,0.6
		c0.1,0.4,0.3,0.7,0.7,0.7c0.4,0,0.4-0.4,0.5-0.7c0.1-0.2,0.1-0.3,0.2-0.5c0.4-1.3,0.9-2.6,1.9-3.7c0.2-0.2,0.5-0.4,0.6-0.2
		c0.5,0.7,1.2,0.5,1.8,0.7c0.9,0.3,1.2,0.7,1,1.6c-0.3,1.2-0.6,2.4-0.9,3.6c-0.1,0.4,0,0.6,0.5,0.6c0.4,0,0.8,0.1,1.2,0.3
		c0.6,0.3,1.4,0.1,1.5-0.5c0-1.4,0.8-2.6,1.1-3.9c0.1-0.3,0.3-0.6,0.7-0.6c0.5,0,1,0.1,1.4,0.2c0.2,0,0.4,0.1,0.6-0.1
		c0.4-0.5,0.7-0.1,0.8,0.3c0.2,0.6,0.1,1.1-0.1,1.7c-0.3,1-0.6,1.9-0.8,2.9c-0.1,0.7,0.1,1.1,0.8,1.1c0.6,0,0.7-0.5,0.8-0.9
		c0.1-0.3,0.1-0.5,0.2-0.8c0.5-1.1,1-2.2,1.4-3.4c0.2-0.7,0.7-0.8,1.4-0.7c1.4,0.2,2.6,0.9,3.9,1.4c1.1,0.4,2.2,0.8,3.3,1
		c0.8,0.2,1.7,0.2,2.4,0.5c1,0.3,1.9-0.1,2.8,0.2c0.2,0.1,0.6,0.2,1,0c0.4-0.3,0.6,0,0.6,0.3c0.2,2.1,1.1,4,2,5.9
		c1.5,3.1,4,5.1,7.3,5.9C51.2,235,51.9,235,53,235.1z"/>
	<path d="M19.1,87.5c0.6,0.1,1.1-0.2,1.6-0.3c1.4-0.3,2.9-0.4,4.3-0.8c0.3-0.1,0.6,0,0.9,0c1.1,0,2.2-0.4,3.2-0.6
		c0.6-0.1,1.1-0.1,1.7-0.2c0.2-0.1,0.5-0.1,0.7-0.1c1.5-0.5,3.2-0.5,4.7-0.9c1.7-0.4,3.4-0.7,5.1-1c1.4-0.2,2.9-0.4,4.3-0.9
		c0.1,0,0.1,0,0.2,0c0.5,0,1.7,1.1,1.7,1.6c0.1,1.1,0.3,2.2,0.4,3.3c0.1,1.7,0.3,3.5,0.3,5.2c0,0.7,0.4,1.4,0.3,2.2
		c0,1,0.3,2.1,0.3,3.1c-0.1,0.9,0.5,1.7,0.4,2.6c-0.1,0.9,0,1.8,0.2,2.6c0.3,1.5,0.4,3,0.6,4.5c0.1,1.1,0.2,2.2,0.1,3.4
		c-0.1,1.3,0,2.6,0,3.9c0,1.7,0.3,3.3,0.4,5c0,1.6,0.4,3.1,0.5,4.7c0.2,1.7,0.7,3.2,0.9,4.9c0.3,1.7,0.6,3.5,1,5.2
		c0.4,1.8,0.8,3.5,1.1,5.3c0.2,1,0.5,2,0.7,3c0.6,2.7,1.2,5.4,1.6,8.1c0.4,2.5,0.8,4.9,1.2,7.4c0,0.2,0.1,0.5,0.3,0.6
		c0.4,0.4,0.2,0.7,0.1,1.1c-0.1,0.4-0.5,0.4-0.8,0.5c-0.1,0-0.3,0-0.4-0.1c-0.2-0.6-0.7-0.4-1.1-0.4c-1.5,0.3-3-0.1-4.6,0.1
		c-1.2,0.2-2.5,0.2-3.7,0.3c-1.3,0-2.5,0.5-3.8,0.6c-1,0.1-1.9,0.4-2.9,0.6c-2,0.3-4,0.5-6,0.8c-1.3,0.2-2.6,0.4-3.9,0.7
		c-2.1,0.4-4.2,0.7-6.3,1.1c-1.9,0.4-3.8,1-5.7,1.4c-0.3,0.1-0.5,0.2-0.7,0.5c-0.3,0.4-1.3,0.3-1.5-0.2c0-0.1,0-0.2,0-0.2
		c0.7-0.7,0.1-1.4,0-2.1c-0.6-3.1-1.2-6.2-1.6-9.3c-0.3-2-0.8-3.9-1.1-5.9c-0.3-1.8-0.7-3.6-0.9-5.4c-0.2-2-0.6-3.9-0.9-5.9
		c-0.3-2.2-0.5-4.4-0.8-6.7c-0.3-2.4-0.6-4.8-1-7.2c-0.4-2.4-0.5-4.8-1.1-7.2c-0.4-1.9-0.7-3.8-1.2-5.7c-0.5-2.1-0.7-4.3-1.1-6.5
		c-0.4-2.1-0.9-4.2-1-6.3c-0.1-1.3-0.6-2.6-1-3.8c-0.3-0.9-0.5-1.8-0.7-2.7c-0.1-0.5,0.1-1,0.6-1.2c0.7-0.3,1.5-0.5,2.3-0.5
		c1.4,0,2.7-0.5,4-0.8c0.7-0.2,1.4-0.2,2.2-0.3c1.6-0.3,3.3-0.6,4.9-1C18.6,87.6,18.9,87.6,19.1,87.5z M46.9,89
		c0.2-1.4-0.3-2.5-0.4-3.8c-0.1-1.1-0.1-1.1-1.2-0.9c-0.1,0-0.2,0.1-0.3,0c-1.7-0.1-3.3,0.5-4.9,0.7c-2.1,0.3-4.2,0.8-6.3,1.1
		c-3.4,0.6-6.8,1.1-10.2,1.6c-3.4,0.6-6.8,1.2-10.3,1.8c-2.3,0.4-4.6,0.8-6.9,1.2c-0.9,0.2-0.9,0.3-0.8,1.2c0.1,0.4,0.2,0.9,0.3,1.3
		c0.4,1.8,1.1,3.5,1.3,5.3c0.1,0.9,0.1,1.8,0.3,2.6c0.4,1.8,0.7,3.6,1,5.5c0.4,2.4,0.8,4.9,1.3,7.3c0.4,2,0.8,4.1,1.1,6.1
		c0.1,1,0.1,2,0.4,3c0.4,1.5,0.4,3,0.7,4.4c0.2,1.1,0.1,2.3,0.3,3.4c0.4,2.5,0.6,5.1,1,7.6c0.5,2.9,0.8,5.9,1.3,8.8
		c0.4,2.2,0.9,4.3,1.2,6.5c0.3,2.2,0.8,4.5,1.3,6.7c0.3,1.4,0.7,2.7,0.8,4.2c0,0.3,0.2,0.4,0.5,0.3c0.7-0.2,1.5-0.4,2.3-0.5
		c1-0.3,2.2-0.2,3.1-0.9c0,0,0.1,0,0.2,0c0.5,0.5,0.9,0,1.2-0.1c0.6-0.3,1.2-1,2-0.4c0,0,0.1,0,0.2,0c1.1-0.2,2.2-0.3,3.3-0.6
		c1.9-0.6,3.9-0.4,5.8-1c1.7-0.5,3.5-0.2,5.2-0.9c0.8-0.4,1.8-0.4,2.7-0.4c0.3,0,0.7,0,1-0.1c0.8-0.3,1.7-0.3,2.6-0.4
		c2.5-0.4,5.1,0.2,7.6-0.5c0.7-0.2,0.9-0.3,0.8-1c-0.1-0.8-0.2-1.6-0.4-2.3c-0.7-2.5-0.8-5.2-1.4-7.7c-0.6-2.3-0.7-4.7-1.4-7.1
		c-0.3-1-0.2-2-0.5-3c-0.6-2-1-4.1-1.4-6.1c-0.2-1.1-0.2-2.3-0.5-3.4c-0.6-2.3-0.9-4.5-1.2-6.8c-0.1-0.9-0.2-1.7-0.2-2.6
		c-0.1-1.5-0.3-3.1-0.3-4.6c0-2.4,0-4.9-0.2-7.3c-0.3-3-0.6-6.1-1.1-9.1C47.2,95.1,47.3,92,46.9,89z"/>
	<path d="M222.3,211.2c-0.2,0-0.3-0.1-0.4-0.2c-1.4-1.3-2.8-2.5-4.2-3.7c-1-0.8-1.7-1.8-2.8-2.5c-0.8-0.5-1.4-1.4-2.1-2
		c-1.4-1.3-3-2.4-4.5-3.6c-0.7-0.5-1.4-1-1.8-1.8c-0.2-0.4-0.6-0.7-1.1-0.7c-1.3,0-2.6,0-3.9-0.1c-1.1-0.1-2.2-0.4-3.4-0.6
		c-1.5-0.3-3-0.7-4.6-0.7c-1,0-2-0.4-3.1-0.5c-1,0-2-0.1-3.1,0c-1.1,0.1-2.2,0.2-3.3,0.1c-0.3,0-0.4,0.1-0.6,0.2
		c-0.3,0.2-0.5,0.3-0.9,0.2c-0.9-0.1-1.1-0.5-0.6-1.3c0.5-1,1.5-1.3,2.4-1.7c1.7-0.7,3.3-1.5,5.1-1.9c0.8-0.2,1.6-0.7,2.5-0.9
		c1.3-0.3,2.5-1,3.7-1.5c0.6-0.3,0.6-0.5,0.1-0.9c-0.9-0.6-1.3-1.7-1.9-2.6c-0.1-0.2-0.3-0.4-0.5-0.5c-0.6-0.2-1-0.7-1.4-1.1
		c-0.3-0.4-0.2-0.8,0.2-1.2c0.7-0.6,1.6-1,2.2-1.7c1.1-1.2,2.1-2.5,3.1-3.9c0.8-1,1.6-2.1,2.4-3.1c0.1-0.1,0.2-0.2,0.3-0.4
		c0.8-1.9,1.9-3.6,3.2-5.2c0.9-1.1,1.8-2.2,2.8-3.2c1.1-1.2,2.1-2.5,3-3.8c0.6-0.9,1.3-1.8,2-2.6c0.3-0.4,0.6-0.5,1.1-0.2
		c0.4,0.2,0.9,0.3,1.4,0.3c0.7,0,1.4,0.4,2.1,0.9c0.8,0.6,1.6,1.2,2.4,1.7c0.6,0.4,1.2,1,1.7,1.5c1.1,1,2.2,1.8,3.3,2.7
		c2,1.7,4.2,3.1,6.1,4.8c0.6,0.6,1.4,0.9,2.1,1.3c1.1,0.5,1.8,1.5,2.8,2.2c0.6,0.5,1.2,1,1.9,1.4c0.4,0.2,0.8,0.1,1,0.7
		c0,0.2,0.6,0,0.8,0.2c0.4,0.3,0.8,0.6,1.2,1c1,0.9,2.2,1.5,3.2,2.4c1.2,1.1,2.7,1.9,4.1,2.7c0.4,0.2,0.5,0.5,0.7,0.8
		c0.1,0.1,0,0.2-0.1,0.3c-0.8,0.9-1.6,1.7-2.4,2.5c-1.1,1.1-2.3,1.9-3.4,2.9c-0.1,0.1-0.2,0.2-0.3,0.2c-1.6,0.9-2.9,2.1-4.1,3.4
		c-1,1.1-1.9,2.3-2.8,3.4c-0.4,0.5-0.8,1.2-1.2,1.6c-0.4,0.4-0.8,0.8-1.2,1.3c-0.7,1-1.5,1.9-2.2,2.9c-1.1,1.5-2.1,3-3.1,4.5
		c-0.2,0.3-0.5,0.6,0,0.9c0.1,0.1,0,0.3-0.1,0.3c-0.8-0.1-0.9,0.7-1.1,1c-0.4,0.8-1,1.6-1.3,2.4C223.4,210.7,223,211.2,222.3,211.2z
		 M185.8,193.1c0.2,0.2,0.3,0.1,0.4,0.1c1.5,0.1,2.9-0.1,4.4,0c1.4,0.1,2.6,0.7,4,0.7c0.2,0,0.5,0.1,0.7,0.1c1-0.1,1.9,0.2,2.8,0.4
		c0.8,0.2,1.7,0.5,2.5,0.4c0.2,0,0.5,0,0.7,0.1c1.5,0.3,3,0.4,4.5,0.2c0.2,0,0.4-0.1,0.6,0.1c0.3,0.6,1,0.8,1.5,1.2
		c1.2,1,2.1,2.2,3.4,3c0.5,0.3,0.7,1,1.2,1.3c0.9,0.5,1.4,1.3,2.2,1.9c1.3,0.9,2.4,2.1,3.6,3.2c1.1,1,2.3,2,3.5,2.8
		c0.5,0.4,1,0.2,1.1-0.4c0.1-0.4,0.3-0.7,0.5-1c0.4-0.5,0.7-1,1-1.5c1.1-1.8,2.1-3.6,3.3-5.3c1.2-1.6,2.3-3.4,3.8-4.8
		c1.3-1.2,2.2-2.7,3.3-4.1c1.8-2.3,4.2-3.7,6.5-5.4c1.2-0.9,2.2-2.1,3.4-3.1c0.3-0.2,0.3-0.5-0.1-0.6c-0.9-0.4-1.6-1.1-2.2-1.8
		c-0.7-0.7-1.8-0.9-2.5-1.7c-0.7-0.8-1.6-1.3-2.4-1.9c-1.7-1.4-3.6-2.5-5.3-4c-0.3-0.3-0.6-0.7-1.1-0.8c-0.5-0.1-0.9-0.4-1.3-0.8
		c-0.6-0.7-1.5-1.3-2.3-1.8c-1.1-0.7-2.1-1.5-3.1-2.2c-1.5-1.1-2.9-2.5-4.3-3.7c-0.9-0.8-1.7-1.9-3.1-1.8c-0.1,0-0.3-0.2-0.4-0.2
		c-1.5-0.9-3-1.6-4.6-2.3c-0.5-0.2-0.8,0-1.1,0.4c-1.4,2.1-2.9,4.1-4.7,5.9c-0.6,0.6-1.1,1.4-1.7,2c-0.8,0.8-1.4,1.7-2,2.6
		c-0.6,1-1.1,2.1-1.8,3c-0.8,1-1.5,2-2.2,3c-1.4,1.9-2.6,4-4.5,5.6c-0.3,0.3-0.3,0.5,0.1,0.7c0.7,0.5,1.2,1.1,1.5,1.8
		c0.1,0.2,0.2,0.5,0.4,0.6c0.7,0.4,1,1.1,1.5,1.7c0.3,0.4,0.3,0.8-0.1,1.2c-1.3,1.2-2.9,1.9-4.6,2.5c-0.3,0.1-0.7,0.1-1,0.2
		c-1.4,0.5-2.8,1.1-4.2,1.7C187.1,192.6,186.5,192.8,185.8,193.1z"/>
	<path d="M72.9,41c-0.3,0-0.7-0.1-0.9-0.3c-0.3-0.2-0.5-0.4-0.9-0.2c-0.1,0-0.1,0-0.2,0C70,40,69,40.3,68,39.9
		c-0.6-0.2-1.3-0.1-1.9-0.3c-1.2-0.2-2.4,0-3.6,0c-1,0-2.1,0-3.1,0c-0.9,0-1.7,0.1-2.6,0.2c-1.4,0.1-2.7,0.1-4.1,0
		c-0.9,0-1.8-0.3-2.7-0.3c-0.5,0-0.9,0.1-1.3,0.5c-1.2,1.2-2.7,1.9-4.1,2.8c-1.6,0.9-3.2,1.8-4.5,3.2c-0.6,0.6-1.4,0.7-2,1.3
		c-0.2,0.2-0.5,0.4-0.8,0.6c-0.9,0.6-1.8,1.2-2.7,1.8c-0.9,0.6-1.9,1.2-2.8,1.9c-0.8,0.5-1.2,0.4-1.7-0.4c-0.5-0.9-0.8-1.9-1.2-2.8
		c-0.2-0.4-0.4-1.2-0.5-1.2c-0.8-0.3-0.4-0.8-0.5-1.2c-0.3-1.1-0.9-2.1-1.5-3c-0.5-0.8-0.7-1.6-1.2-2.4c-0.7-1.1-1.2-2.4-2.1-3.4
		c-0.6-0.8-1-1.6-1.4-2.4c-0.5-0.8-1-1.6-1.5-2.5c-1-1.7-2.2-3.3-3.7-4.6c-1.4-1.2-2.7-2.6-4-4c-0.8-0.9-1.5-1.9-2.2-2.8
		c-0.5-0.6-0.3-1.2,0.5-1.4c1.3-0.4,2.5-1,3.6-1.6c1-0.6,1.9-1.1,2.9-1.7c0.9-0.5,1.7-1,2.6-1.6c0.1-0.1,0.3-0.2,0.4-0.2
		c0.5,0.2,0.7,0,0.9-0.5c0-0.1,0.2-0.2,0.3-0.2c0.6,0.1,1.1-0.3,1.6-0.5c0.6-0.3,1.2-0.7,1.8-1.2c0.9-0.8,2-1.1,3-1.6
		c0.7-0.3,1.4-0.6,2.1-1.1c1-0.7,2.1-1.2,3.1-1.8c1.4-0.8,2.9-1.7,4.3-2.6c1-0.7,2.1-1.4,3.2-1.9c0.2-0.1,0.3-0.4,0.5-0.5
		c0.4-0.5,1-0.3,1.4-0.6c0.7-0.5,1.4-0.9,2.2-1.2c0.9-0.5,1.9-0.2,2.8-0.4c1.1-0.3,1.5,0.3,2,1.1C50.5,2.5,51.1,4,52,5.3
		c1.1,1.7,2.2,3.4,3.3,5.1c1.1,1.7,2.1,3.6,2.7,5.5c0.4,1.3,1.3,2.4,2,3.6c0.8,1.4,1.5,2.8,2.4,4.1c0.5,0.7,0.9,1.5,1.7,2
		c0.3,0.2,0.6,0.5,0.9,0.8c0.4,0.4,0.4,0.9-0.1,1.3c-0.4,0.3-0.9,0.6-1.4,0.8c-0.4,0.2-0.7,0.6-1,0.9c-0.6,0.7-1.1,1.4-1.9,1.9
		c-0.5,0.3-0.4,0.5,0,0.8c1,0.6,2,1.3,3.1,1.8c1.1,0.4,2.1,1.1,3.1,1.6c1,0.5,1.9,1.1,2.8,1.5c1,0.5,1.9,1.2,2.8,1.7
		c0.6,0.3,1,0.9,1.2,1.6C73.9,40.7,73.5,41,72.9,41z M69.9,38.5c-1.7-0.9-3.3-1.8-4.8-2.7c-0.6-0.3-1.1-0.7-1.7-0.9
		c-0.6-0.2-1-0.4-1.5-0.7c-0.8-0.6-1.6-1.2-2.4-1.8c-1.1-0.8-1.1-1.4-0.1-2.3c0.7-0.7,1.7-1.2,2.3-2.2c0.2-0.4,0.7-0.8,1.2-1
		c0.6-0.2,0.5-0.4,0.2-0.8c-0.6-0.6-1.2-1.2-1.6-2c-0.8-1.5-1.6-3-2.4-4.5c-0.9-1.6-1.9-3.1-2.5-4.8c-0.7-2.1-1.9-4-3.2-5.8
		c-1.6-2.2-3-4.5-4.3-6.9c-0.3-0.6-0.6-0.8-1.2-0.6c-1.4,0.5-2.8,0.9-4.1,1.4c-0.5,0.2-1,0.7-1.7,0.3c-0.1,0-0.2,0-0.2,0.1
		c-0.7,0.3-1.3,0.7-2,1.1c-2.3,1.3-4.3,3-6.6,4.3c-1,0.5-2.1,1-3.1,1.7c-0.9,0.6-1.9,1.2-2.9,1.6c-1.3,0.5-2.5,1.4-3.8,2.1
		c-1.5,0.8-2.9,1.6-4.3,2.5c-0.3,0.2-0.6,0.4-0.8,0.6c-0.4,0.4-0.9,0.7-1.4,0.8c-0.7,0.1-1.2,0.4-1.7,0.8c-0.7,0.6-1.4,1-2.2,1.3
		c-0.4,0.2-0.6,0.4-0.2,0.8c0.9,1.1,1.8,2.2,2.8,3.3c1.3,1.3,2.7,2.4,3.9,3.8c0.9,1.1,1.8,2.3,2.6,3.6c0.4,0.7,0.7,1.4,1.2,2.1
		c1,1.5,2.1,2.8,2.9,4.4c1,1.9,2.1,3.8,2.9,5.8c0.2,0.5,0.4,1.1,0.7,1.6c0.5,1.1,1.3,2.1,1.5,3.4c0.1,0.3,0.3,0.7,0.8,0.5
		c0.6-0.4,1.3-0.6,1.9-1.1c1.8-1.3,3.7-2.4,5.5-3.8c0.9-0.7,1.9-1.3,2.9-1.9c0.8-0.5,1.5-1.3,2.4-1.7c1.1-0.5,1.9-1.5,3-2.1
		c0.4-0.2,1-0.2,1.3-0.7c0.2-0.4,0.5-0.3,0.8-0.2c0.8,0.2,1.7,0.4,2.5,0.4c1,0,2-0.1,3,0.1c1.1,0.2,2.1-0.1,3.2-0.2
		c1.2-0.1,2.3,0.3,3.4,0c0.3-0.1,0.4,0.3,0.7,0.2c0.5-0.3,1-0.2,1.5-0.3c1.2-0.2,2.4,0.2,3.7,0.3C68.3,38.4,69,38.6,69.9,38.5z"/>
	<path d="M167.7,50.4c-1.2,0-1.6,0.4-1.5,1.6c0.1,0.7,0,1.5-0.1,2.2c-0.2,1.8-0.4,3.5-0.6,5.3c0,0.1,0,0.2,0,0.3
		c0.7,0.6,0.4,0.9-0.2,1.3c-0.1,0.1-0.2,0.4-0.1,0.6c0.2,1.4-0.1,2.8-0.9,3.9c-0.9,1.2-0.5,2.5-0.6,3.7c-0.2,1.8,0,3.6-0.3,5.4
		c-0.1,0.4-0.2,0.8-0.8,0.8c-0.2,0-0.3,0.1-0.4,0.3c-0.2,0.5-0.6,0.6-1.1,0.5c-1.1-0.1-2.3-0.4-3.4-0.5c-1.3-0.1-2.6-0.1-3.9-0.2
		c-1.3-0.2-2.7-0.3-4-0.3c-0.3,0-0.6-0.1-0.8-0.2c-0.4-0.1-0.8-0.3-0.8-0.6c0-0.4,0-0.9,0.4-1.1c0.2-0.1,0.3-0.3,0.3-0.5
		c-0.2-1-0.1-1.9-0.1-2.9c0-0.6-0.2-1.1-0.2-1.7c0-0.9,0.4-1.8,0.2-2.8c0-0.2,0-0.4,0-0.7c0-0.7,0.3-1.1,1-1c2.3,0.1,4.7,0,7,0.5
		c0.9,0.2,1.9,0.1,2.8,0.1c0.5,0,1,0,1.6,0.2c0.7,0.3,1.6,0.1,2-0.3c0.6-0.5,0.9-1.4,0.5-2.3c-0.2-0.3,0.1-0.6,0.1-0.9
		c0.1-0.4,0.1-0.7-0.4-0.7c-1.2,0-2.5-0.2-3.7-0.2c-0.4,0-0.6,0.1-0.7,0.5c0,0.2-0.1,0.3-0.2,0.5c-0.1,0.2-0.1,0.6-0.4,0.6
		c-0.4-0.1-0.4-0.5-0.4-0.8c0.1-0.7-0.1-1-0.9-1c-1.2-0.1-2.4-0.5-3.6-0.5c-1,0-2.1-0.3-3-0.8c-0.5-0.2-0.9-0.8-1.3-1.2
		c-0.2-0.3,0-0.7,0.1-0.9c0.1-0.2,0.1-0.6,0.2-0.7c0.5-1-0.1-2.1,0.5-3c0.1-0.2,0.1-0.3,0-0.5c-0.1-0.6-0.2-1.1,0.1-1.7
		c0.3-0.8,0-1.7,0.1-2.5c0.1-0.4,0.1-0.8,0.1-1.2c0-0.2,0.2-0.3,0.4-0.4c0.2-0.1,0.4,0,0.5,0.1c0.1,0.1,0.2,0.2,0.2,0.3
		c0,1.1,0.8,0.9,1.5,1.1c1.4,0.3,2.8-0.2,4.2,0c1.7,0.2,3.4,0.3,5,0.5c0.7,0.1,1.3,0.2,2,0.1c1-0.2,2.1,0.1,3.1,0.2
		c0.1,0,0.3,0,0.4,0c0.2,0,0.5-0.3,0.7,0c0.2,0.2,0.1,0.6,0.1,0.8C168.5,50.7,168,50.4,167.7,50.4z M151,56.7c0,1.2-0.3,1.5,1.6,2
		c1.3,0.3,2.7,0.2,3.9,0.5c0.4,0.1,0.8,0.2,1.2,0.3c0.5,0.1,0.9-0.1,0.7-0.7c0-0.3-0.2-0.6,0-0.9c0.4-0.8,0.3-1.7,0.2-2.5
		c-0.1-1.4,0.3-2.7,0.6-4c0.1-0.6,0.5-0.9,1-0.7c0.6,0.2,0.4,0.7,0.3,1.1c-0.2,0.9-0.4,1.8-0.4,2.7c-0.1,1.5-0.3,2.9-0.5,4.4
		c-0.1,0.4,0.1,0.6,0.4,0.6c0.6,0,1.3,0.2,1.9,0.1c2.2,0,2,0.5,2.4-1.9c0.2-1.2,0.3-2.4,0.5-3.6c0.1-1,0.4-2.1,0-3.1
		c-0.2-0.5-0.3-0.7-0.8-0.8c-1.7-0.1-3.3-0.2-5-0.4c-1-0.1-1.9-0.3-2.9-0.2c-1.2,0.1-2.4,0.2-3.6-0.2c-0.1,0-0.2,0-0.2,0
		c-0.2,0.4-0.7,0.6-0.6,1.2c0.1,0.3-0.1,0.6-0.1,0.9C151.4,53.4,151,55,151,56.7z M156.3,74.2c0.1,0,0.3,0.1,0.4-0.1
		c0.1-0.2-0.1-0.3-0.2-0.4c-0.2-0.3-0.5-0.6-0.5-1c0-1.1,0-2.2,0.2-3.2c0.2-1.1,0-2.2,0.3-3.3c0.1-0.4,0-0.8-0.6-0.8
		c-1.6-0.1-3.1-0.3-4.7-0.5c-0.7-0.1-0.9,0-0.9,0.8c0,0.9,0,1.8,0,2.6c0,1.4-0.2,2.8-0.2,4.2c0,0.2,0,0.5-0.2,0.7
		c-0.5,0.6,0,0.6,0.4,0.8c0.9,0.3,1.8-0.1,2.7,0C154,74.1,155.1,74.2,156.3,74.2z M162,71c0.4-1.2-0.2-2.6,0.3-3.9
		c0.1-0.4,0.1-1-0.4-1.1c-1-0.2-2-0.2-3-0.3c-0.4,0-0.5,0.2-0.6,0.5c0,0.6-0.1,1.2-0.1,1.8c-0.1,2-0.5,3.9-1,5.8
		c-0.1,0.4,0,0.4,0.3,0.5c1.2,0.1,2.5,0.3,3.7,0.5c0.4,0.1,0.7-0.1,0.7-0.4C161.6,73.3,162.1,72.3,162,71z"/>
	<path d="M82.3,33.4c-0.1,1.6-0.1,3-0.3,4.4c-0.1,0.9-0.3,1.9-0.6,2.8c-0.2,1-0.7,2-0.6,3c0.1,1.1-0.3,2.3-0.5,3.4
		c-0.2,1.6-0.4,3.1-0.6,4.7c-0.1,0.9-0.4,1.8-0.5,2.7c-0.4,2-0.9,4.1-1,6.2c-0.1,1.3-0.4,2.5-0.6,3.8c-0.1,1-0.7,1.9-0.6,2.9
		c0,1.2-0.3,2.4-0.2,3.6c0,0.8-0.4,1.4-0.5,2.2c0,0.1-0.1,0.3-0.1,0.4c0.1,1.7-0.6,3.2-0.8,4.8c-0.2,1.5-0.3,3-0.8,4.4
		c-0.2,0.7-0.2,1.4-0.3,2.2c-0.2,1.7-0.6,3.4-0.8,5.2c-0.3,2.6-0.9,5.1-1.2,7.6c-0.2,1.3-0.3,2.6-0.4,3.9c-0.2,1.5-0.3,3-0.6,4.6
		c-0.3,1.5-0.3,3-0.5,4.5c-0.1,0.6-0.1,1.3-0.4,1.9c-0.3,0.5-0.1,1.2,0,1.7c0.2,1.2-0.1,2.3-0.2,3.4c-0.4,2.5-0.7,5.1-0.8,7.6
		c0,1.6-0.6,3.1-0.4,4.7c0.1,0.3-0.1,0.7-0.4,0.9c-0.3,0.4-0.8,0.7-1.3,0.5c-0.5-0.2-0.5-0.7-0.4-1.1c0.1-0.9,0.2-1.9,0.3-2.8
		c0.3-2.3,0.5-4.7,0.8-7c0.2-1.8,0.5-3.7,0.7-5.5c0.2-2,0.3-3.9,0.6-5.9c0.3-1.9,0.5-3.8,0.8-5.7c0.2-1,0.2-2,0.3-3
		c0.1-1.5,0.5-3,0.8-4.4c0.4-2.2,0.6-4.5,1-6.7c0.3-1.6,0.6-3.1,0.8-4.7c0.2-1.6,0.6-3.2,0.7-4.8c0-0.7,0.2-1.3,0.3-2
		c0.3-1.6,0.6-3.3,1.1-4.9c0.2-0.8,0.2-1.6,0.3-2.4c0.3-2.5,0.4-5.1,1.2-7.5c0.2-0.6,0.2-1.3,0.2-1.9c0.2-3.3,1.2-6.5,1.6-9.8
		c0.3-2.4,0.8-4.9,1-7.3c0.1-1.1,0.3-2.2,0.5-3.3c0.1-0.5,0.4-1,0.5-1.5c0.3-1.4,0.2-2.7,0.4-4.1c0.1-1,0.1-2,0.1-3
		c0-0.3-0.1-0.7,0.3-0.7c0.4-0.1,0.4,0.3,0.5,0.6C82.2,32.4,82.5,32.9,82.3,33.4z"/>
	<path d="M108.2,129.1c0-0.3-0.2-1-0.1-1.6c0.1-0.7,0.1-1.5,0.2-2.2c0.3-1.7,0.5-3.4,0.8-5.1c0.2-1,0.4-2.1,0.5-3.1
		c0.1-0.7,0.5-1.3,0.6-1.9c0.1-0.3,0.2-0.6,0.1-0.9c-0.1-0.5,0-1,0.2-1.6c0.3-0.9,0.4-1.9,0.2-2.9c-0.1-0.5,0.1-0.6,0.5-0.8
		c0.9-0.4,1.7-0.2,2.6,0.1c1.9,0.5,3.7,1.1,5.7,1.3c1.6,0.2,3.2,0.4,4.8,0.4c0.9,0,1,0.3,0.9,1.2c-0.1,0.8,0,1.6-0.4,2.3
		c-0.3,0.7-0.4,1.6-0.6,2.4c-0.1,0.6-0.4,1.1-0.4,1.8c-0.1,1.5-0.3,3-0.3,4.5c-0.1,2-0.2,4.1-0.2,6.1c0,1.5,0.2,3,0.2,4.6
		c0,0.5-0.2,0.7-0.5,0.8c-1,0.4-1.8-0.3-1.7-1.4c0.1-1.2,0.3-2.5-0.4-3.7c-0.1-0.2-0.1-0.5,0-0.8c0.3-1.2,0.3-2.4,0.2-3.6
		c0-0.6,0.1-1.1,0.3-1.6c0.3-0.8,0.3-1.7,0.2-2.5c-0.2-1.2-0.1-2.4,0.2-3.6c0.4-1.5,0.9-2.9,1.2-4.4c0.1-0.5,0.1-0.7-0.5-0.7
		c-2.3-0.1-4.6-0.4-6.8-1.2c-0.8-0.3-1.6-0.2-2.4-0.4c-0.2-0.1-0.3,0.1-0.3,0.3c-0.2,1.2-0.4,2.4-0.6,3.6c-0.2,1.3-0.1,2.7-0.6,4
		c-0.2,0.6-0.4,1.4-0.3,2.2c0.1,0.5-0.1,1-0.1,1.5c-0.2,2-0.5,3.9-0.7,5.9c0,0.6-0.2,1.3-0.1,2c0.1,0.6-0.3,0.8-0.8,0.7
		c-0.1,0-0.3-0.1-0.4-0.1C108.2,130.5,108.1,130.4,108.2,129.1z"/>
	<path d="M85.3,107.4c0.2,2.3-0.3,4.6-0.7,6.9c-0.1,0.8,0,1.1,0.9,1.1c1,0.1,1.9,0.4,2.8,0.5c0.6,0.1,0.7-0.2,0.7-0.6
		c0-1.5,0.2-2.9,0.3-4.4c0.1-1.1,0.2-2.1,0.5-3.1c0.1-0.4,0.4-0.6,0.8-0.6c0.3-0.1,0.6-0.1,0.9,0.1c0.2,0.3,0.2,0.6,0,0.9
		c-0.3,0.8-0.2,1.7-0.3,2.6c-0.1,1.2-0.2,2.4-0.2,3.6c-0.1,1.5-0.2,3-0.4,4.5c0,0.2-0.1,0.4-0.4,0.4c-0.5,0.2-1.4-0.1-1.7-0.6
		c-0.4-0.6-1.1-0.6-1.7-0.7c-2.3-0.5-4.6-0.4-6.9-0.8c-0.6-0.1-1.2,0.1-1.8,0c-0.2,0-0.3,0.1-0.4,0.2c-0.6,0.6-1.4,0.6-2-0.1
		c-0.2-0.2-0.3-0.5-0.6-0.7c-0.3-0.2,0-1,0.5-1.1c0.8-0.1,0.8-0.5,0.8-1.1c0-1.8,0.2-3.5,0.4-5.3c0.1-0.6,0.1-1.3,0-1.9
		c-0.1-0.8,0.3-1.5,0.3-2.2c0-0.3,0.2-0.6,0.1-1c-0.1-0.4,0.3-0.6,0.6-0.6c1.3,0.3,2.6,0.1,3.9,0.1c1.7-0.1,3.2,0.5,4.8,0.5
		c1.1,0,2.1,0.5,3.2,0.8c0.3,0.1,0.8,1.3,0.7,1.7c-0.1,0.5-0.6,0.6-1,0.3c-1-0.9-2.1-0.7-3.3-0.6C85.3,106.4,85.2,106.8,85.3,107.4z
		 M80.4,105.3c-0.5,0-0.8,0-1.1,0c-0.3,0-0.5,0.1-0.5,0.4c-0.2,1.3-0.2,2.6-0.3,3.8c-0.1,1.6-0.3,3.2-0.4,4.8c-0.1,1,0.2,1.3,1.2,1
		c0.9-0.3,1.8-0.2,2.8-0.1c0.5,0,0.7-0.1,0.7-0.6c0.1-0.6,0-1.3,0.2-1.8c0.3-1,0.2-2,0.4-3c0.3-1.3-0.1-2.6,0.3-3.8
		c0.1-0.3-0.1-0.4-0.4-0.4C82.3,105.4,81.3,105.2,80.4,105.3z"/>
	<path d="M138.4,126.2c0-0.3,0.1-1,0.2-1.6c0.2-1.4,0.2-2.8,0.3-4.2c0.1-1.2,0-2.4,0-3.6c0-0.3,0-0.5-0.1-0.8
		c-0.1-0.7,0.2-1.1,0.9-1.1c0.4,0,0.6-0.1,0.7-0.5c0.2-0.5,0.5-0.6,0.9-0.2c0.3,0.3,0.7,0.4,1.1,0.5c2.8,0.4,5.6,0.5,8.5,0.6
		c1.2,0,2.3,0.2,3.5,0.1c0.8-0.1,1.3,0.5,1.5,1.2c0,0.1,0,0.3,0.1,0.4c0.1,0.1,0.4,0.3,0.1,0.5c-0.2,0.2-0.4,0.2-0.6,0.1
		c-0.6-0.3-0.6,0-0.5,0.4c0,0.1,0,0.2,0,0.3c-0.3,1.6-0.1,3.3-0.3,4.9c-0.2,1.4-0.3,2.7-0.4,4.1c-0.1,1.4-1.3,1.9-2.4,1.2
		c-0.4-0.2-0.8-0.2-1.1-0.3c-0.9-0.1-1.7-0.4-2.6-0.4c-0.2,0-0.3-0.1-0.5-0.2c-0.2-0.1-0.3-0.2-0.5-0.1c-0.5,0.3-0.9,0-1.4-0.1
		c-0.8-0.2-1.7-0.3-2.5-0.2c-0.7,0.1-1.4,0.1-2.1,0c-0.4,0-0.7,0-1,0.1c-0.1,0-0.2,0.1-0.4,0.2C138.7,127.8,138.4,127.6,138.4,126.2
		z M140.8,115.7c-0.2,0.2,0,0.4,0,0.5c0,0.7,0.1,1.5,0,2.2c-0.3,1.5,0,3-0.2,4.5c-0.1,0.6,0,1.3-0.2,2c-0.1,0.2-0.2,0.5,0.1,0.6
		c0.3,0.1,0.6,0.6,1.1,0.3c0.5-0.4,1-0.4,1.6-0.4c0.7,0,1.5,0,2.2,0c0.3,0,0.6-0.1,0.5-0.5c-0.2-0.5-0.1-0.9,0-1.4
		c0.1-1.1-0.2-2.2,0-3.4c0.1-1,0-2,0-3c0-0.3-0.1-0.4-0.5-0.4C143.8,116.6,142.2,116.5,140.8,115.7z M153,118.4
		C153,118.4,153,118.4,153,118.4c0-0.2,0-0.4,0-0.5c0-0.6-0.2-0.8-0.7-0.6c-0.5,0.1-0.9,0-1.3-0.1c-0.9-0.1-1.8-0.3-2.8-0.1
		c-0.2,0-0.4,0-0.4,0.3c0,1.2-0.1,2.5,0,3.7c0.1,1.4-0.2,2.7-0.3,4.1c0,0.8,0.1,1,0.9,0.9c0.4,0,0.8-0.1,1.1,0.1
		c0.6,0.3,1.3,0.3,1.9,0.3c0.4,0.1,1,0.2,1-0.6c0-0.8,0.1-1.7,0.2-2.5C152.9,121.6,152.9,120,153,118.4z"/>
	<path d="M102.7,214.7c-0.1,0.4,0.1,1,0,1.5c-0.1,0.3,0.1,0.4,0.4,0.3c1-0.2,1.5,0.1,1.8,1c0.5,1.3,0.8,2.6,0.8,4
		c0,0.9-0.3,1.2-1.2,1c-0.2,0-0.5-0.1-0.7,0c-1.7,0.7-3.5,0.5-5.3,0.8c-1.1,0.2-2.3,0-3.4,0.1c-1.2,0.1-2.4,0.2-3.6,0.4
		c-0.2,0-0.3,0.1-0.4,0.1c-0.7,0.5-1.6,0.1-1.8-0.9c-0.2-1.2-0.4-2.4-1-3.5c-0.4-0.7,0-1.5,0.9-1.7c0.8-0.2,0.8-0.2,0.6-1
		c-0.6-1.9-1.3-3.9-1.9-5.8c-0.2-0.6-0.3-1.3-0.4-1.9c-0.1-0.6,0.2-0.8,0.7-0.8c2.4,0,4.8-0.4,7.2-0.7c0.7-0.1,1.5-0.3,2.1-0.7
		c0.8-0.4,1.7-0.6,2.5-0.7c0.7-0.1,1.1,0.6,1.4,1.1c0.5,1.1,0.8,2.2,1,3.4C102.7,212.1,102.8,213.3,102.7,214.7z M93.3,218.6
		c-1.3,0.1-2.5,0.2-3.7,0.6c-0.3,0.1-0.3,0.2-0.2,0.4c0.5,0.8,0.7,1.6,1.1,2.5c0.1,0.3,0.3,0.4,0.6,0.4c2.1-0.2,4.3-0.3,6.4-0.4
		c0.9,0,1.8-0.1,2.8-0.2c1.2-0.1,2.4-0.3,3.5-0.7c0.4-0.1,0.6-0.3,0.5-0.7c-0.1-0.7-0.1-1.3-0.3-2c-0.3-0.8-0.5-1-1.2-0.6
		c-0.5,0.3-1.1,0.3-1.6,0.1c-1.1-0.3-2.2-0.3-3.3,0C96.3,218.4,94.8,218.4,93.3,218.6z M101.4,213.8c0-2-0.3-3.7-0.9-5.3
		c-0.3-0.8-0.5-0.9-1.4-0.6c-0.2,0.1-0.3,0.2-0.5,0.2c-0.8,0.2-1.5,0.7-2.4,0.8c-0.7,0.1-1.2,0.6-1.1,1.3c0.1,1.3,0.3,2.6,0.5,3.9
		c0.1,0.7,0.5,1.4,0.6,2.2c0.1,0.5,0.5,0.6,0.9,0.5c0.5-0.2,1.1-0.1,1.6-0.1c0.6,0,1.2,0.1,1.9,0c0.5-0.1,0.7-0.3,0.7-0.8
		C101.3,215.1,101.3,214.4,101.4,213.8z M90.5,209.7c-1.4,0-1.5,0-1.2,1.1c0.2,0.7,0.3,1.4,0.5,2c0.3,0.6,0.3,1.3,0.6,1.9
		c0.3,0.7,0.7,1.4,0.9,2.1c0.1,0.6,0.4,0.7,0.9,0.6c0.9-0.1,1.7-0.3,2.6-0.4c0.2,0,0.2-0.1,0.2-0.3c-0.6-1.3-0.6-2.7-1-4.1
		c-0.3-0.8-0.3-1.7-0.3-2.6c0-0.9-0.1-1.1-1-0.8C91.8,209.6,91,209.7,90.5,209.7z"/>
	<path d="M82.8,69.6c2.2,0.4,4.6,0.8,6.9,1.2c0.9,0.1,1.8,0.2,2.6,0.6c0.4,0.2,0.8,0.2,1.3,0.1c0.8-0.2,1.6,0.1,2.3,0.3
		c0.4,0.1,0.7,0.8,1.1,1.1c0.2,0.2,0.1,0.6,0,0.9c-0.1,1.4-0.3,2.8-0.4,4.1c-0.1,1.5-0.2,3-0.2,4.4c0,0.5,0.2,1.1,0.1,1.6
		c-0.1,0.3-0.2,0.6-0.5,0.8c-0.6,0.4-1,0.2-1.1-0.5c-0.2-1.5-0.1-3.1,0-4.6c0.1-1.9,0.5-3.8,0.4-5.7c0-0.4-0.2-0.4-0.5-0.5
		c-1.2-0.4-2.4-0.3-3.6-0.8c-0.5-0.2-0.7,0-0.8,0.5c-0.1,0.8-0.2,1.5-0.4,2.3c-0.2,0.6-0.3,1.3-0.5,1.9c-0.4,1.3-0.5,2.6-0.7,4
		c-0.1,0.4,0.1,0.5,0.5,0.5c1.3,0.1,2.5,0.3,3.8,0.5c0.7,0.1,1.3,1.2,1.2,1.9c0,0.3-0.2,0.3-0.4,0.2c-0.7-0.6-1.6-0.5-2.5-0.6
		c-0.8-0.1-1.6-0.1-2.4-0.2c-0.4,0-0.6,0.2-0.6,0.5c0,0.3-0.1,0.6-0.4,0.8C87.6,85.3,87,85,87,84.2c-0.1-1.1-0.1-1.1-1.2-1.2
		c-0.9-0.1-1.8-0.2-2.8-0.2c-0.4,0-0.8,0.1-0.9,0.6c0,0.2-0.2,0.6-0.5,0.4c-0.3-0.2-1,0.1-1-0.6c0-0.7-0.3-1.5,0.3-2.2
		c0.4-0.6,0.2-1.3,0.2-2c0-1.3,0.4-2.4,0.6-3.7c0.3-1.4,0.3-2.9,0.8-4.2c0.1-0.2,0-0.3-0.2-0.4c-0.3-0.2-0.6-0.5-0.4-0.9
		C82.1,69.4,82.5,69.7,82.8,69.6z M82.5,80.5c-0.1,0.5,0.2,0.8,0.6,0.8c1.3-0.1,2.6,0.2,4,0.3c0.5,0.1,0.7-0.2,0.7-0.6
		c0.3-1.5,0.2-3.1,0.7-4.6c0.4-1.1,0.5-2.4,0.6-3.6c0-0.5-0.1-0.6-0.5-0.7c-1.5-0.3-3-0.3-4.5-0.9c-0.4-0.1-0.4,0.1-0.4,0.4
		c-0.1,1.6-0.4,3.2-0.8,4.8C82.6,77.8,82.6,79.2,82.5,80.5z"/>
	<path d="M90.5,100.9c0.1-1,1-1.9,0.7-3c-0.1-0.4,0.2-0.9,0.3-1.3c0.2-1.1,0.3-2.2,0.4-3.4c0.1-0.9,0.3-1.8,0.5-2.7
		c0-0.2,0.1-0.4,0.2-0.6c0.2-0.4,0.6-0.5,1-0.4c0.4,0.1,0.4,0.4,0.4,0.7c-0.2,1.1-0.2,2.3-0.5,3.4c-0.1,0.5-0.2,1.1-0.1,1.7
		c0,0.5,0.1,1-0.3,1.3c-0.3,0.2,0.1,0.5,0,0.7c-0.5,1.2-0.2,2.6-0.5,3.8c-0.1,0.4-0.3,0.7-0.7,0.8c-0.4,0.1-0.8,0.1-1.2-0.2
		c-0.6-0.5-1.2-1.1-2.2-1.1c-0.8,0-1.8,0-2.6-0.4c-0.1-0.1-0.2-0.1-0.3,0c-0.4,0.2-0.9,0.5-1.2-0.1c0-0.1-0.2-0.1-0.3-0.1
		c-0.8,0.2-1.7,0-2.5,0.1c-0.9,0.1-1.8,0-2.6-0.1c-0.4,0-0.6,0.1-0.6,0.5c-0.1,0.4-0.3,0.7-0.8,0.6c-0.4-0.1-0.9-0.1-0.8-0.8
		c0-0.2-0.1-0.3-0.2-0.4c-0.6-0.6-0.5-1,0.2-1.5c0.3-0.2,0.3-0.4,0.4-0.7c0.5-2.8,1.2-5.6,1.9-8.5c0.1-0.3,0.1-0.6,0.1-0.9
		c0-0.5,0.3-0.8,0.9-0.9c1-0.1,2.1,0,3.1,0c0.7,0,1.4,0.3,2.2,0.3c1.4,0,2.7,0.6,4.1,0.1c0.3-0.1,0.6,0,0.9,0.2
		c0.7,0.4,1.2,0.8,1.4,1.6c0.1,0.5-0.1,0.7-0.5,0.4c-1-0.6-2.1-0.3-3.2-0.4c-0.6-0.1-0.5,0.6-0.5,1c-0.1,1.7-0.3,3.4-0.7,5.1
		c-0.2,0.7-0.1,1.3-0.2,2c-0.1,0.6,0.4,0.7,0.8,0.8c0.5,0.2,1.1,0,1.6,0.1c0.9,0.2,1.4,0.7,1.5,1.6
		C90.4,100.5,90.5,100.7,90.5,100.9z M86,89.8c0-0.4-0.2-0.5-0.5-0.5c-1.2,0-2.4-0.2-3.6-0.2c-1.4,0-1.5,0.3-1.7,1.4
		c-0.4,2.3-1,4.6-1.5,6.9c-0.2,0.9-0.1,1,0.9,1c1.5,0,2.9,0,4.4,0.1c0.3,0,0.5,0,0.5-0.3c0.1-0.4,0.2-0.8,0.4-1.2
		c0.3-1.1,0.2-2.2,0.4-3.2C85.5,92.5,85.7,91.1,86,89.8z"/>
	<path d="M95.5,41.1c-0.2,1.3,0,2.9-0.1,4.4c-0.1,0.8,0,1.7,0,2.5c0,0.5,0.5,0.7,0.8,0.8c0.5,0,1,0.3,1.6,0.2
		c0.6-0.1,1.3,0.1,1.9,0.4c0.5,0.2,0.5,0,0.6-0.4c0.1-0.8,0-1.6,0.2-2.4c0.3-1.4,0.1-2.9,0.4-4.3c0.1-0.6,0.3-1.3,0.3-1.9
		c0-0.3,0.7-0.8,1-0.7c0.4,0.1,0.6,0.6,0.5,1c-0.2,0.9-0.3,1.8-0.3,2.6c-0.1,1.5-0.4,3-0.4,4.5c0,1-0.2,2-0.1,3
		c0,0.2-0.1,0.4-0.1,0.6c-0.2,0.6-0.7,0.8-1.1,0.3c-0.3-0.4-0.8-0.5-1.3-0.6c-1.2-0.2-2.4-0.3-3.5-0.8c-0.4-0.2-0.8-0.2-0.9,0.4
		c-0.1,0.3-0.2,0.5-0.5,0.5c-0.3,0-0.6-0.2-0.6-0.5c-0.2-0.9-0.7-0.9-1.5-1c-1-0.1-2.1-0.2-3.2-0.4c-0.6-0.1-1.4-0.3-2,0.4
		c-0.2,0.3-1.1-0.3-1.1-0.8c0-0.8,0.1-1.6,0.2-2.3c0.2-1.3,0.4-2.5,0.5-3.8c0-0.5-0.1-0.9-0.1-1.4c-0.1-1.1,0-2.1-0.1-3.2
		c-0.1-0.7,0.2-0.8,0.9-1c1-0.2,1.8,0.1,2.7,0.2c0.6,0.1,1.3,0,1.9,0.1c1.8,0.1,3.6,0.2,5.3,0.6c0.6,0.1,1.1,0.2,1.7,0.1
		c0.6-0.1,1.3,0.5,1.5,1.1c0.1,0.4-0.3,0.8-0.8,0.7c-1-0.3-2-0.3-2.9-0.4C95.6,39.4,95.4,39.6,95.5,41.1z M89.3,38.8
		c-0.2,0-0.4,0-0.6,0c-0.2,0-0.4,0-0.5,0.3c-0.1,0.4-0.1,0.8-0.2,1.2c-0.2,1.1,0,2.1,0,3.2c0,1.2-0.1,2.4-0.3,3.6
		c0,0.2-0.2,0.6,0.2,0.5c0.7,0,1.3,0.2,2,0.2c1.1,0.1,2.2,0.1,3.3,0.4c0.4,0.1,0.5,0,0.6-0.4c0.2-0.7,0-1.4,0-2c0-1.3,0.3-2.7,0.1-4
		c-0.1-0.6-0.2-1.2-0.1-1.8c0.1-0.7-0.2-0.8-0.7-0.9C91.9,38.8,90.6,39,89.3,38.8z"/>
	<path d="M150,102.4c0,1.2-0.1,2.4-0.3,3.6c-0.1,0.5-0.1,1-0.1,1.5c0,0.3,0.2,0.3,0.4,0.4c0.8,0.3,1.6,0.2,2.3,0.4
		c0.9,0.2,1.6,0.8,2.4,1.3c0.2,0.1,0.2,0.3-0.1,0.5c-0.3,0.2-0.7,0.2-1,0.2c-1-0.3-2.1-0.2-3-0.6c-0.6-0.3-1.4-0.4-1.9,0.3
		c-0.1,0.2-0.4,0.3-0.6,0.1c-0.4-0.8-1.2-0.6-1.8-0.5c-1,0.1-2-0.1-3-0.1c-0.7-0.1-1.4,0.1-2-0.1c-0.4-0.1-0.8-0.2-0.7-0.8
		c0-0.2,0-0.4-0.2-0.5c-0.6-0.3-0.5-0.8-0.4-1.2c0.1-1,0.2-2,0.4-2.9c0.1-0.4,0.1-0.7-0.1-1c-0.1-0.3-0.2-0.7-0.1-1
		c0.1-0.6,0.1-1.3,0-1.9c-0.1-0.4-0.2-0.8,0.2-1.1c0.4-0.3,0.9-0.5,1.5-0.2c0.7,0.4,1.6,0.1,2.3,0.1c1.4-0.1,2.7-0.1,4.1,0.3
		c0.9,0.3,1.8,0,2.6,0.1c1.4,0.2,2.8,0.2,4.1,0.9c0.1,0,0.1,0.1,0.2,0.1c0.5,0.7,1.1,0.9,2,0.7c0.4-0.1,0.7,0.2,0.7,0.7
		c0.1,1.1-0.1,2.3-0.1,3.4c-0.1,1.4-0.3,2.8-0.3,4.2c0,0.3,0.1,0.7-0.3,0.9c-0.5,0.1-1,0.2-1.4,0c-0.2-0.1-0.1-0.3-0.2-0.5
		c0-1.8,0.3-3.6,0.5-5.4c0.1-0.5,0.1-0.9,0.1-1.4c-0.1-1.1-0.1-1.1-1.2-1.3c-1.2-0.2-2.4-0.3-3.5-0.5c-1.1-0.2-1.4,0.1-1.4,1.2
		C150,102.1,150,102.2,150,102.4z M141.6,106.5c0.1,0.4-0.4,1.1,0.5,1.1c0.6-0.1,1.2,0,1.8,0.1c1.1,0.1,2.2-0.3,3.3,0.1
		c0.4,0.1,0.7-0.1,0.7-0.6c0.1-0.5,0-1,0.1-1.5c0.2-1.5,0.2-3.1,0.2-4.6c0-0.4-0.1-0.5-0.5-0.6c-0.9-0.3-1.9,0-2.8-0.2
		c-0.8-0.1-1.7-0.3-2.5-0.3c-0.6,0-0.7,0.3-0.6,0.7c0.1,0.6,0.1,1.3,0.1,1.9C141.9,103.9,141.8,105.2,141.6,106.5z"/>
	<path d="M156.4,195.8c1.7,0,3.5-0.2,5.1-0.7c1.1-0.3,2.3-0.2,3.3-0.8c0.4-0.2,1,0,1.4,0.5c0.1,0.1,0.1,0.3,0,0.4
		c-0.4,0.4-0.3,0.8-0.1,1.2c0.6,1.7,0.6,3.5,1,5.3c0.1,0.7,0.4,1.2,0.7,1.9c0.2,0.4,0.5,0.5,0.9,0.4c0.8-0.1,0.9,0.1,0.6,0.8
		c-0.1,0.2,0,0.3,0.1,0.3c0.8,0.8,1.1,2,1.7,3c0.4,0.8,0,1.1-0.9,1.2c-1.7,0.1-3.4,0-5.1,0.5c-1.5,0.4-2.9,1.1-4.5,1.4
		c-0.3,0.1-0.7,0.1-1,0.2c-1,0.2-1.9,0.5-2.8,0.8c-0.9,0.3-1.3,0.2-1.4-0.7c-0.1-1.4-0.8-2.6-1.2-3.9c-0.2-0.6-0.1-0.8,0.6-0.8
		c0.7,0,1.3-0.5,2-0.5c0.3,0,0.3-0.4,0.2-0.6c-0.5-1.6-0.7-3.3-1-5c-0.2-1.1-0.6-2.2-0.9-3.3c0-0.1-0.1-0.2-0.2-0.4
		c-0.1-0.2-0.5-0.4-0.3-0.7c0.2-0.3,0.5-0.6,1-0.5C156,195.9,156.2,195.8,156.4,195.8z M168.6,208.3c0.4,0.1,0.7,0,1.1,0
		c0.4,0,0.4-0.2,0.2-0.5c-0.4-0.8-0.9-1.5-1.3-2.3c-0.1-0.2-0.2-0.3-0.5-0.3c-2.2,0.3-4.3,0.8-6.4,1.3c-1.5,0.4-3,0.7-4.5,1
		c-0.4,0.1-0.9,0.2-1.3,0.2c-0.3,0.1-0.5,0.2-0.4,0.6c0.2,0.8,0.7,1.5,1,2.3c0.1,0.2,0.2,0.2,0.4,0.1c0.7-0.1,1.3-0.5,2-0.5
		c1.6-0.2,3.2-0.6,4.7-1.1C165.4,208.6,166.9,208.3,168.6,208.3z M156.6,196.8c-0.6,0-0.6,0.3-0.4,0.7c0.3,0.6,0.4,1.3,0.6,1.9
		c0.5,2,0.8,4,1.2,6c0.1,0.3,0.1,0.6,0.5,0.5c0.7-0.2,1.4-0.2,2.2-0.4c0.7-0.1,0.9-0.4,0.8-1.1c-0.2-1.8-0.5-3.6-0.8-5.4
		c-0.1-0.8-0.3-1.6-0.7-2.3c-0.2-0.3-0.3-0.4-0.6-0.3C158.4,196.8,157.5,196.8,156.6,196.8z M162.3,201.8c-0.1,0-0.1,0-0.2,0
		c0.2,0.9,0.4,1.9,0.6,2.8c0.1,0.3,0.3,0.3,0.6,0.3c1-0.3,2.1-0.4,3.1-0.7c0.4-0.1,0.5-0.3,0.3-0.7c-0.5-1.1-0.8-2.3-1-3.5
		c-0.2-1.2-0.4-2.4-0.7-3.6c-0.1-0.4-0.3-0.7-0.8-0.6c-0.8,0.1-1.6,0.3-2.4,0.4c-0.5,0.1-0.7,0.3-0.5,0.8c0.3,0.8,0.5,1.5,0.6,2.4
		C161.9,200.2,161.9,201,162.3,201.8z"/>
	<path d="M128.1,220.5c0.2,0.8,0.1,1.7,0.3,2.6c0.2,0.9,0.4,1.8,0.7,2.7c0,0.1,0,0.3,0.1,0.4c0.1,0.3,0.6,0.5,0.3,0.9
		c-0.4,0.4-0.7,0.8-1.4,0.8c-1.2,0.1-2.4,0.5-3.6,0.6c-0.5,0-0.9,0-1.4,0c-0.7,0-1.3,0-1.7,0.6c-0.2,0.3-0.6,0.5-0.9,0.1
		c-0.5-0.7-1.1-0.5-1.7-0.4c-0.4,0-0.7,0.2-1.1,0.3c-1,0.3-2,0.5-3,0.7c-0.5,0.1-0.9,0.2-1.3,0.5c-0.8,0.8-1.2,0.7-1.5-0.4
		c-0.6-2.1-1.1-4.3-1.6-6.4c-0.1-0.4-0.1-0.8-0.7-0.7c-0.3,0-0.4-0.2-0.4-0.4c0-0.7,0.2-1.3,0.6-1.8c0.1-0.1,0.3-0.2,0.4-0.2
		c1.6,0,3-0.7,4.6-0.9c2.1-0.2,4.2-0.4,6.3-0.6c1.6-0.2,3.1-0.4,4.6-0.8c0.5-0.1,1,0,1.5-0.1c0.3,0,0.4,0.3,0.5,0.5
		C127.9,219.2,128,219.9,128.1,220.5z M111.5,223.1c0.1,0.7,0.3,1.5,0.5,2.3c0.2,0.9,0.6,1.8,0.8,2.7c0.1,0.5,0.3,0.6,0.7,0.5
		c1.1-0.2,2.1-0.6,3.1-0.8c0.8-0.2,1.7-0.2,2.5-0.4c0.3,0,0.5-0.1,0.5-0.5c-0.4-2-0.5-4.1-0.9-6.1c-0.1-0.5-0.4-0.6-0.8-0.4
		c-0.5,0.2-1,0.4-1.5,0.4c-1.1,0.1-2.3,0.3-3.4,0.4c-0.4,0-0.8,0.4-1.2,0.2c-0.2-0.1-0.4-0.1-0.5,0.1c-0.1,0.2-0.1,0.4,0.1,0.6
		C111.6,222.4,111.6,222.7,111.5,223.1z M122.5,227.2c1.6,0,3.1-0.2,4.6-0.6c0.3-0.1,0.6-0.2,0.4-0.6c-0.3-0.6-0.2-1.3-0.3-1.9
		c-0.2-1.5-0.4-3.1-0.5-4.6c0-0.4-0.2-0.3-0.4-0.2c-0.5,0.2-0.9,0.4-1.4,0.5c-1.3,0.2-2.5,0.5-3.9,0.5c-0.6,0-0.8,0.4-0.6,0.9
		c0.1,0.2,0.2,0.4,0.2,0.6c0,1.4,0.3,2.7,0.6,4.1C121.3,227.2,121.3,227.2,122.5,227.2z"/>
	<path d="M135.9,182.5c1.8-0.3,3.8-0.6,5.7-1.3c0.9-0.3,1.8-0.3,2.8-0.3c0,0,0.1,0,0.1,0c1.2-0.4,1.6,0.5,2.1,1.3
		c0.8,1.5,1.1,3.2,1.4,4.8c0.2,1.4,0.4,2.7,0.6,4.1c0.1,0.5,0,0.8-0.6,0.8c-0.2,0-0.3,0-0.4,0.2c-0.3,0.4-0.7,0.6-1.2,0.5
		c-1.4-0.1-2.8,0.6-4.3,0.4c-0.1,0-0.2,0-0.3,0c-1.3,0.3-2.7,0.3-4,0.3c-1.3,0-2.5,0.4-3.8,0.5c-1,0.1-1.9,0.2-2.9,0.3
		c-0.5,0.1-0.7-0.1-0.8-0.6c-0.3-1.4-0.5-2.8-0.8-4.1c-0.3-1.2-0.6-2.5-0.9-3.7c-0.1-0.4,0.1-0.9,0-1.3c0-0.3,0.2-0.3,0.4-0.4
		c0.9-0.4,1.8-0.6,2.7-0.7C133,182.9,134.3,182.5,135.9,182.5z M146.8,188.2c-0.2-1.9-0.7-3.8-1.4-5.7c-0.1-0.3-0.4-0.3-0.6-0.3
		c-2,0.2-3.8,0.8-5.7,1.2c-0.3,0.1-0.4,0.3-0.4,0.5c0.1,0.5,0.1,1.1,0.3,1.6c0.3,1.1,0.6,2.1,1,3.2c0.1,0.3,0.2,0.5,0.2,0.8
		c-0.1,0.8,0.4,1.4,0.6,2.1c0,0.2,0.3,0.1,0.5,0.2c0.9,0.2,1.7-0.1,2.5-0.3c1.1-0.2,2.2-0.5,3.3-0.8c0.4-0.1,0.5-0.4,0.3-0.7
		C146.7,189.5,147,188.8,146.8,188.2z M133.4,192.7c0.1,0,0.3,0,0.4-0.1c1.3-0.6,2.8-0.5,4.2-0.7c1.2-0.2,1.2-0.2,0.9-1.3
		c-0.6-2.1-1.4-4.2-1.5-6.4c0-0.5-0.3-0.6-0.7-0.5c-2,0.3-3.9,0.7-5.8,1.2c-0.8,0.2-0.9,0.4-0.6,1.1c0.3,0.7,0.5,1.5,0.7,2.3
		c0.2,1.3,0.5,2.5,0.7,3.7c0.1,0.4,0.2,0.7,0.7,0.7C132.7,192.6,133,192.7,133.4,192.7z"/>
	<path d="M146.4,222.5c1.9,0,3.6-0.4,5.4-0.9c0.4-0.1,0.8-0.4,1.1,0.2c0.2,0.4-0.2,1-0.7,1.2c-2,0.6-4,1-6.1,1.1c-0.4,0-0.7,0-1-0.3
		c-0.2-0.2-0.4-0.2-0.5-0.2c-1.1,0.5-2.4,0-3.6,0.5c-1,0.4-2.1,0.2-3.1,0.6c-0.4,0.1-0.6,0.3-0.8,0.6c-0.1,0.4-0.4,0.7-0.7,1
		c-0.4,0.4-0.7,0.4-0.8-0.2c-0.2-0.6-0.3-1.3-0.3-1.9c-0.1-1.6-0.5-3-1-4.5c-0.3-1.1-0.5-2.1-0.6-3.2c0-0.3,0.2-0.4,0.4-0.5
		c2.4-0.7,4.8-1.1,7.2-1.4c0.7-0.1,1.4-0.1,1.8-0.8c0.2-0.3,0.6-0.3,0.8,0c0.2,0.3,0.5,0.3,0.8,0.3c1.8-0.3,3.6-0.6,5.4-1
		c0.6-0.1,1.3-0.4,2-0.3c0.5,0.1,0.8,0.3,0.9,0.6c0.2,0.3,0,0.7-0.4,0.9c-0.3,0.2-0.2,0.6-0.1,0.9c0.2,0.7,0.2,1.4,0.2,2
		c0,0.7,0.2,1.4,0.3,2.1c0.1,0.5-0.2,1.2-0.6,1.4c-0.4,0.2-0.4-0.1-0.5-0.4c-0.2-1.1-0.4-2.2-0.5-3.3c-0.1-0.7-0.2-1.3-0.3-2
		c0-0.3-0.2-0.5-0.5-0.4c-2.1,0.3-4.1,0.5-6.1,1c-0.4,0.1-0.4,0.5-0.3,0.8c0.3,1.3,0.8,2.6,0.8,4.1c0,0.5,0.3,1,0.5,1.4
		C145.6,222.6,146,222.5,146.4,222.5z M142.1,222.7c0.2,0,0.4,0.1,0.6,0.1c1,0.1,1.3-0.3,1.1-1.2c-0.1-0.6-0.2-1.2-0.3-1.8
		c-0.1-1-0.5-2-0.6-3c0-0.2,0-0.6-0.3-0.7c-0.6-0.1-1.2-0.2-1.7,0.1c-0.6,0.3-1.2,0.4-1.9,0.4c-1.1,0-2.3,0.2-3.3,0.6
		c-0.3,0.1-0.4,0.3-0.3,0.7c0.4,1.7,1.1,3.3,1.2,5.1c0,0.7,0.3,0.8,1,0.6C139,223.1,140.6,222.9,142.1,222.7z"/>
	<path d="M125.7,211.8c-0.5-0.1-0.9,0.1-1.2,0.2c-1.1,0.5-2.2,0.8-3.5,0.6c-0.3-0.1-0.6,0.2-1,0.2c-2.7,0.2-5.4,0.6-8.1,1.1
		c-0.3,0-0.6,0.1-0.9,0.1c-0.5,0-0.9,0.1-1.1,0.6c-0.2,0.4-0.5,0.7-0.9,0.1c-0.1-0.1-0.3-0.2-0.4-0.2c-0.6-0.3-0.6-0.6-0.1-1.1
		c0.2-0.2,0.2-0.3,0.2-0.6c-0.3-2.2-0.9-4.3-1.5-6.4c-0.1-0.2-0.2-0.4-0.3-0.5c-0.4-0.8-0.2-0.9,0.4-1.5c1-0.9,2.2-0.8,3.4-0.9
		c1.2-0.1,2.4-0.1,3.6-0.1c0,0,0.1,0,0.1,0c1.8-0.7,3.7-0.3,5.5-0.9c1.3-0.4,2.6-0.4,4-0.7c0.5-0.1,0.8,0.4,1,0.8
		c0.4,0.7,0.4,0.7-0.4,0.8c-0.3,0-0.4,0.2-0.4,0.4c0,0.5,0.2,1,0.3,1.4c0.5,2,1.2,4,1.8,6C126.5,211.6,126.2,211.8,125.7,211.8z
		 M108.2,204.9c0,1.3,0.5,2.5,0.9,3.6c0.3,1,0.3,2.1,0.6,3.2c0,0.1,0,0.2-0.1,0.3c-0.1,0.7,0.2,1,1,0.8c0.5-0.2,1-0.3,1.5-0.4
		c1.5-0.1,2.9-0.7,4.4-0.7c0.3,0,0.6-0.1,0.5-0.6c-0.3-1.3-0.5-2.6-0.5-3.9c0-0.6-0.3-1.2-0.5-1.8c-0.2-0.5-1.2,0.1-1.2-0.8
		c0,0-0.1,0-0.1,0c-1.1,0.1-2.1,0.1-3.2,0.2C110.5,204.9,109.4,205.2,108.2,204.9z M118.1,207.8c0.1,1.2,0.4,2.3,0.9,3.4
		c0.1,0.2,0.2,0.2,0.4,0.1c1.3-0.3,2.7-0.1,4-0.7c0.4-0.2,0.9,0.1,1.2-0.3c0.2-0.4-0.1-0.8-0.3-1.3c-0.5-1.7-0.8-3.4-0.9-5.1
		c0-0.4-0.2-0.5-0.6-0.4c-1.7,0.3-3.3,0.7-5,0.8c-0.3,0-0.4,0.1-0.3,0.5C117.9,205.8,118.1,206.8,118.1,207.8z"/>
	<path d="M143.6,208.3c-0.5-0.2-1,0-1.5,0.3c-0.2,0.1-0.4,0.2-0.6,0.1c-0.9-0.5-1.8-0.2-2.7,0c-1,0.2-2,0.5-3.1,0.5
		c-0.4,0-0.6-0.1-0.7-0.5c-0.1-0.4,0.2-0.5,0.5-0.6c1.1-0.4,2.2-0.7,3.4-0.9c0.4-0.1,0.8-0.2,1.2-0.2c0.8,0,0.8-0.4,0.6-1
		c-0.4-1.4-0.4-2.9-0.7-4.4c-0.1-0.5-0.3-0.7-0.7-0.5c-1.6,0.5-3.2,0.5-4.8,1.1c-0.7,0.2-0.8,0.4-0.7,1.2c0.2,0.9,0.2,1.8,0.4,2.6
		c0.2,0.7,0.1,1.3,0.3,2c0.2,0.5,0.3,0.9,0,1.4c-0.1,0.1,0,0.2,0,0.4c0.2,0.4-0.1,1.1-0.5,1.1c-0.6,0.1-0.5-0.5-0.6-0.9
		c-0.1-1.6-0.5-3.1-0.7-4.7c-0.2-1-0.3-2.1-0.6-3.1c-0.1-0.4,0.3-0.9,1-1.1c2.5-0.6,5.1-1.3,7.7-1.7c2.1-0.3,4.3-0.7,6.4-1.2
		c0.2-0.1,0.5-0.1,0.6-0.2c0.8-0.5,1.5-0.1,2.2,0.1c0.3,0.1,0.3,0.6,0,0.8c-0.4,0.3-0.3,0.6-0.3,1c0.1,1.5,0.8,2.9,0.7,4.4
		c0,0.3,0.2,0.6,0.2,1c0.1,1.2-0.1,1.5-1.2,1.9c-1.8,0.6-3.8,0.6-5.6,1.1C143.8,208.3,143.7,208.3,143.6,208.3z M142.8,206.8
		c0.2,0,0.4,0,0.7,0c1.5-0.3,3.1-0.5,4.6-0.8c0.7-0.1,1.1-0.5,1.1-1.1c-0.2-1.7-0.5-3.4-0.8-5.1c-0.1-0.3-0.1-0.2-0.3-0.2
		c-0.7,0-1.3,0.2-1.9,0.4c-1.4,0.3-2.9,0.3-4.4,0.6c-0.3,0.1-0.4,0.2-0.5,0.5c-0.1,0.6,0.4,1.1,0.4,1.7c0,1,0.1,2,0.3,3.1
		C142.1,206.5,142.2,206.8,142.8,206.8z"/>
	<path d="M103.7,225.8c0.2,0,0.5,0,0.7,0c0.3,0,0.5,0.2,0.6,0.5c0.4,1.6,0.4,3.3,0.8,4.9c0.2,1.2,0.3,2.4,0.6,3.6
		c0.1,0.3,0.1,0.7,0.2,1c0.1,0.8,0.3,1.5,0.6,2.3c0.6,2,1.1,4.1,1.5,6.2c0.1,0.4,0.2,0.8,0.3,1.2c0.1,0.6-0.1,1-0.7,1.2
		c-0.4,0.1-1-0.2-1.1-0.7c-0.2-0.9-0.4-1.8-0.6-2.7c-0.6-2.4-1.2-4.7-1.7-7.1c-0.3-1.4-0.2-2.8-0.6-4.2c-0.4-1.5-0.3-3.1-0.7-4.5
		c-0.1-0.5-0.4-0.8-0.9-0.7c-1.9,0.4-3.8,0.2-5.6,1.2c-0.4,0.2-0.9,0.3-1.4,0.4c-0.4,0.1-0.5,0.2-0.4,0.6c0.3,1.2,0.4,2.4,0.8,3.6
		c0.2,0.5,0.1,1,0.2,1.5c0.5,1.8,0.9,3.6,1.1,5.5c0,0.1,0,0.1,0,0.2c0.7,1.1,0.5,2.5,0.8,3.7c0.2,0.8,0.3,1.7,0.6,2.5
		c0.1,0.3,0.2,0.7,0,1c-0.2,0.3-0.6,0.4-0.9,0.3c-0.4-0.1-0.5-0.5-0.5-0.8c-0.3-1.8-0.6-3.7-1-5.5c-0.2-0.9-0.3-1.9-0.5-2.8
		c-0.1-0.3-0.1-0.7-0.3-1c-0.6-1.4-0.5-3-1-4.4c-0.4-1.4-0.4-2.9-0.9-4.2c-0.1-0.3-0.1-0.7,0.3-0.7c2.1-0.2,4.1-1.1,6.1-1.4
		C101.3,226.2,102.5,225.9,103.7,225.8z"/>
	<path d="M112.4,197c-0.9,0.3-1.8,0.2-2.8,0.5c-1,0.3-2,0.4-2.9,0.6c-0.6,0.2-1-0.3-0.7-0.9c0.1-0.1,0.1-0.3,0-0.4
		c-0.7-1.4-0.9-2.8-1.2-4.3c-0.2-1-0.4-2-0.9-3c0-0.1-0.1-0.2-0.1-0.3c-0.4-1.1-0.1-1.4,1-1.5c1.7-0.1,3.3-0.3,5-0.5
		c2.1-0.3,4.3-0.5,6.4-0.9c1-0.2,2.1-0.3,3.1-0.6c1.2-0.3,1.8,0.1,2.2,1.3c0.4,1.1,0.8,2.3,1.1,3.5c0.2,0.8,0.4,1.6,0.6,2.4
		c0.2,0.6-0.2,0.8-0.6,0.9c-0.5,0.2-0.6-0.2-0.7-0.5c-0.4-1.5-0.9-3-1.3-4.5c-0.1-0.3-0.1-0.5-0.3-0.8c-0.4-0.9-0.4-0.8-1.5-0.7
		c-1.9,0.1-3.7,1-5.7,0.8c-0.6-0.1-0.9,0.3-0.7,1c0.2,0.5,0.1,0.9,0.1,1.4c0,0.6,0.2,1.3,0.3,1.9c0.1,0.8,0.4,1.6,0.7,2.4
		c0.2,0.5,0.4,0.6,0.9,0.5c2-0.5,4.1-1,6.2-1.2c0.6-0.1,1.2-0.2,1.6,0.5c0.2,0.4,0.2,0.7-0.3,0.7c-2.1,0.2-4.2,0.7-6.2,0.9
		c-0.8,0.1-1.6,0.4-2.4,0.6C113.1,197,112.8,197.1,112.4,197z M111.6,190.1c0-1.6,0-1.6-1.5-1.4c-1.6,0.2-3.3,0.3-4.9,0.4
		c-0.4,0-0.5,0.2-0.3,0.5c0.2,0.4,0.4,0.8,0.5,1.2c0.4,1.6,0.7,3.3,1.1,4.9c0.1,0.3,0,0.8,0.2,1c0.3,0.4,0.7-0.2,1-0.1
		c0,0,0.1,0,0.1,0c1.3-0.2,2.6-0.4,3.9-0.6c1-0.2,1-0.3,0.7-1.2C111.9,193.2,111.6,191.7,111.6,190.1z"/>
	<path d="M94.7,67c-1.3-0.1-2.6-0.4-3.9-0.5c-1.7-0.1-3.3-0.1-5,0c-0.6,0-1.1,0.1-1.7,0.2c-0.7,0.2-1.2-0.4-1.1-1.1
		c0.2-1.3,0.5-2.6,0.7-3.9c0.3-1.8,0.7-3.6,0.5-5.5c-0.1-0.7-0.1-1.7,0.7-2.3c0.2-0.1,0.4-0.2,0.6-0.2c2.1,0.3,4.3,0.5,6.4,0.7
		c1.5,0.2,3,0.3,4.5,0.6c0.8,0.2,1,0.8,1.4,1.3c0,0.1,0,0.2,0,0.2c-0.1,0.1-0.3,0.1-0.5,0c-1.3-0.4-2.6-0.5-3.9-0.6
		c-0.4,0-0.4,0-0.5,0.4c-0.2,0.8,0,1.6-0.2,2.4c-0.4,1.6-0.5,3.3-0.9,4.9c-0.3,1.2,0.1,1.7,1.4,1.7c0.8,0,1.5,0.2,2.3,0.2
		c0.5,0,0.8,0.5,1,0.9c0.1,0.2,0,0.4-0.3,0.4C95.7,66.9,95.2,67.1,94.7,67z M84.6,64.2c0,0.6,0,0.8,0.6,0.8c1.5,0,2.9,0,4.4,0
		c0.3,0,0.5,0,0.5-0.4c0-1.1,0.3-2.2,0.5-3.2c0.3-1.6,0.4-3.2,0.5-4.8c0.1-0.9,0.1-0.9-0.9-1c-1.1-0.1-2.3-0.2-3.4-0.4
		c-0.9-0.2-1.1,0-1.2,0.9c-0.1,1.1-0.2,2.3-0.4,3.4C85,61.1,85.1,62.8,84.6,64.2z"/>
	<path d="M159.7,84.2c-0.9,0.2-1.8-0.2-2.7-0.3c-1-0.1-2-0.3-2.9-0.4c-0.5,0-0.6,0.2-0.6,0.6c0,1.1,0.1,2.3-0.1,3.4
		c-0.2,1.3-0.2,2.5-0.3,3.8c0,0.4,0.2,0.5,0.5,0.6c0.3,0.1,0.6,0.1,0.9,0.1c0.8-0.1,1.5,0.1,2.1,0.6c0.2,0.1,0.4,0.2,0.2,0.5
		c-0.1,0.2-0.3,0.4-0.6,0.4c-1.2-0.1-2.3-0.2-3.5-0.3c-1.2-0.1-2.4-0.2-3.6-0.3c-0.4,0-0.7,0.1-1.1,0.2c-0.9,0.1-1.7-0.3-2.5-0.2
		c-0.9,0.1-1.3-0.4-1.3-1.3c0-0.2-0.1-0.4-0.1-0.6c-0.3-1.4-0.3-2.9-0.2-4.3c0.1-1.2-0.1-2.3-0.2-3.4c-0.1-0.8,0.3-1.4,1-1.4
		c0.7,0,1,0.3,1,1.2c-0.1,2.5,0.2,5-0.2,7.4c-0.1,0.6,0.2,0.9,0.8,0.9c1.5,0,3-0.1,4.5,0.2c0.4,0.1,0.6,0,0.6-0.4
		c0-1.8,0.1-3.7,0.2-5.5c0-0.4,0.1-0.9,0.2-1.3c0.1-0.7-0.1-1-0.8-1c-1.2,0-2.3-0.1-3.5-0.1c-0.3,0-0.6-0.1-0.9-0.3
		c-0.2-0.1-0.4-0.3-0.3-0.5c0.1-0.3,0.3-0.5,0.6-0.5c1.1,0,2.3,0.1,3.4,0c1.5,0,2.9,0.4,4.3,0.4c0.7,0,1.4,0.2,2,0.1
		c0.1,0,0.2,0,0.3,0c0.7,0.8,1.8,0.8,2.5,1.5C159.6,84,159.7,84.1,159.7,84.2L159.7,84.2z"/>
	<path d="M174,221.5c0.1,2.1,0.4,4.2,0.8,6.2c0.3,1.8,1.1,3.3,1.6,4.9c0.1,0.4,0.2,0.8,0.3,1.2c0,0.4-0.4,0.6-0.7,0.6
		c-0.5,0.1-0.9-0.2-1.1-0.6c-0.1-0.4-0.2-0.8-0.3-1.1c-0.6-2.2-1-4.4-1.6-6.6c0-0.1-0.1-0.3-0.1-0.5c-0.1-2.2-0.2-4.4-0.7-6.5
		c-0.2-0.8-0.4-1.5-0.6-2.3c-0.1-0.3-0.2-0.3-0.5-0.3c-2.8,0.4-5.6,0.7-8.5,0.6c-0.4,0-0.4,0.1-0.4,0.4c0.1,1,0.2,1.9,0.5,2.9
		c0.4,1.3,0.4,2.7,0.4,4.1c0.1,1.6,0.4,3.1,0.8,4.6c0.5,2.1,1,4.2,1.4,6.4c0.1,0.5-0.2,0.8-0.7,0.9c-0.5,0.1-0.6-0.3-0.7-0.7
		c-0.3-1.3-0.4-2.7-0.7-4.1c-0.3-1.7-0.9-3.2-1.1-4.9c-0.1-0.7-0.1-1.3-0.1-2c-0.2-2.5-0.8-4.9-1.2-7.4c-0.2-1.1,0.1-1.3,1.1-1.1
		c1.3,0.2,2.5,0,3.8-0.1c1.4-0.1,2.9-0.1,4.3-0.4c0.7-0.1,1.4-0.4,2.1-0.4c0.5,0,0.8,0.2,0.9,0.7c0.2,1.4,0.5,2.8,0.8,4.2
		C174,220.8,174,221.2,174,221.5z"/>
	<path d="M128.2,80.4c0,0.8-0.4,1.7-0.7,2.5c-0.5,1.6-1.1,3.2-1.7,4.8c-0.3,0.8-0.5,1.7-0.9,2.5c-0.3,0.7-0.7,0.9-1.4,0.8
		c-0.6-0.1-1.2-0.2-1.7-0.5c-0.6-0.4-1.4-0.3-2-0.4c-0.6,0-1-0.3-1.5-0.5c-0.6-0.2-0.6-0.9-0.1-1.6c0.8-0.9,1-2,0.9-3.2
		c0-0.1,0-0.3,0-0.4c0.3-1.3,0.9-2.6,1-3.9c0.1-0.9,0.5-1.8,0.3-2.8c-0.1-0.3,0.2-1,0.6-1.4c0.5-0.4,1.1-0.2,1.2,0.4
		c0.1,0.4,0.3,0.6,0.7,0.7c1.1,0.4,2.3,0.6,3.4,1c0.6,0.2,1.1,0.7,1.7,1C128.3,79.7,128.2,80.1,128.2,80.4z M126.4,80.6
		c0.1-0.3,0.1-0.5,0-0.5c-0.3-0.2-0.5-0.5-0.9-0.6c-0.5-0.1-1-0.2-1.3-0.4c-0.5-0.3-1.1-0.2-1.6-0.3c-0.2-0.1-0.3,0.1-0.3,0.3
		c-0.3,2.4-1.1,4.7-1.1,7.2c0,0.9-0.7,1.5-0.9,2.2c-0.1,0.4-0.1,0.6,0.3,0.7c0.7,0.1,1.4,0.3,2.1,0.5c0.3,0.1,0.5,0.1,0.6-0.2
		c0.5-1,0.8-2.1,1.2-3.2c0.4-1,0.7-2,1-3C125.9,82.3,125.9,81.3,126.4,80.6z"/>
	<path d="M91,191.6c0,0.9,0.4,1.7,0.6,2.5c0.3,1.4,0.5,2.9,0.5,4.3c0,0.7,0.1,0.8,0.8,0.7c0.9-0.2,1.9-0.4,2.8-0.6
		c0.2,0,0.5,0,0.3-0.4c-0.5-1.2-0.3-2.5-0.5-3.7c-0.3-1.6-0.6-3.3-1.1-4.9c-0.2-0.5-0.4-1-0.4-1.6c0-0.4,0.1-0.4,0.4-0.3
		c0.6,0.3,1,0.8,1.2,1.5c0.6,1.9,0.9,3.8,1.1,5.8c0.1,1,0.3,1.9,0.2,2.9c0,0.4,0.1,0.4,0.4,0.4c0.4-0.1,0.8-0.2,1.2,0
		c0.3,0.1,0.6,0.2,0.5,0.6c0,0.3-0.3,0.4-0.6,0.5c-1.6,0.2-3.2,0.6-4.8,1.1c-1.1,0.3-2.3,0.4-3.3,0.7c-1.4,0.5-2.9,0.4-4.3,1
		c-0.4,0.2-0.8,0.2-1.1-0.1c-0.4-0.4-0.4-0.8,0.2-1c0.5-0.2,0.6-0.5,0.5-0.9c-0.4-2-0.7-4-1.4-6c-0.2-0.6-0.4-1.2-0.6-1.8
		c-0.2-0.5-0.6-0.9-0.7-1.4c0-0.3-0.1-0.5,0.3-0.6c0.4-0.1,0.4,0.1,0.5,0.4c0.1,0.2,0.3,0.4,0.5,0.6c0.7,0.8,0.9,1.7,1.2,2.6
		c0.5,1.7,1.2,3.4,1.2,5.3c0,0.2,0.1,0.4,0.1,0.6c0.2,0.8,0.2,0.8,1,0.6c1-0.2,2-0.4,3-0.7c0.5-0.1,0.6-0.3,0.4-0.8
		c-0.3-0.5-0.3-1.2-0.3-1.8c-0.1-2.1-0.7-4.1-1.1-6.1c-0.1-0.4-0.2-0.8-0.8-0.8c-0.4,0-0.5-0.3-0.4-0.6c0.2-0.3,0.2-0.9,0.6-0.9
		c0.4-0.1,0.8,0.3,1,0.7C90.6,190,91,190.7,91,191.6z"/>
	<path d="M132.2,100.4c0.2,1.1,0,2.2,0,3.3c0,1.3,0.2,2.6-0.1,3.9c-0.1,0.4-0.2,0.6-0.8,0.6c-1.3,0-2.4-0.5-3.5-0.9
		c-0.2-0.1-0.5-0.2-0.6,0.1c-0.2,0.6-0.6,0.6-1.1,0.5c-0.6-0.1-0.9-0.4-1-1.1c-0.1-0.9,0.2-1.8,0.1-2.6c-0.1-1.1,0.3-2.2,0.4-3.3
		c0.1-1.3,0.2-2.6,0.7-3.8c0.1-0.2,0.2-0.3,0.1-0.5c-0.4-0.6-0.1-1.2,0-1.7c0.1-0.6,0.9-1,1.5-0.6c0.7,0.6,1.5,0.6,2.4,0.6
		c1,0,1,0.2,1.4,1.1C132.2,97.5,132.1,98.9,132.2,100.4z M128.2,95.8c0,0.2,0,0.4,0,0.6c-0.2,1.6-0.5,3.3-0.7,4.9
		c-0.2,1.4-0.3,2.8-0.3,4.3c0,0.2,0,0.5,0.3,0.5c0.8,0.2,1.5,0.3,2.3,0.5c0.4,0.1,0.5-0.1,0.4-0.5c-0.1-0.5,0-1.1,0.1-1.7
		c0.1-0.9,0.2-1.7,0.1-2.6c-0.1-1.2-0.3-2.5-0.2-3.7c0-0.7-0.3-1.2-0.4-1.9c0-0.1-0.1-0.2-0.2-0.2C129.1,96.1,128.7,95.9,128.2,95.8
		z"/>
	<path d="M129.1,71.7c0.4-1.2,0.1-2.5,0.5-3.9c0.5-2.1,1-4.2,1-6.4c0-0.5,0.1-1,0.7-1.2c0.4-0.1,0.8,0,1,0.4
		c0.1,0.3,0.4,0.4,0.7,0.4c1.3,0,2.5,0.3,3.8,0c0.6-0.1,1.1,0.4,0.7,1c-0.9,1.5-0.9,3.1-1,4.8c0,1-0.2,2.1-0.1,3.1
		c0,0.6,0.1,1.1,0.1,1.7c0,0.4,0,0.8-0.2,1.2c-0.1,0.2-0.1,0.3,0,0.5c0.2,0.3,0.4,0.7,0,1c-0.3,0.3-0.8,0.5-1.2,0.3
		c-1.3-0.7-2.7-0.5-4-0.9c-0.3-0.1-0.6-0.2-0.9-0.3C129.2,73.1,129.2,73.2,129.1,71.7z M133.9,73c0.2,0,0.5,0.1,0.5-0.3
		c0.1-0.9,0.3-1.9,0.1-2.8c-0.1-0.8,0-1.5,0.1-2.2c0.1-0.7-0.1-1.3,0.1-2c0.3-0.8,0-1.8,0.4-2.7c0.2-0.4,0.1-0.8-0.6-0.8
		c-0.6,0-1.1-0.1-1.7-0.2c-0.5-0.1-0.8,0.2-0.8,0.6c-0.1,0.8-0.2,1.6-0.4,2.3c-0.2,0.9-0.2,1.8-0.4,2.7c-0.2,0.8-0.3,1.5-0.1,2.3
		c0.2,0.6,0,1.3-0.2,1.9c-0.1,0.6,0.1,0.5,0.4,0.6C132.2,72.9,133.1,72.9,133.9,73z"/>
	<path d="M111,97.3c0.1-0.3,0-0.6-0.1-0.8c-0.2-0.6,0-1.2,0.2-1.8c0.2-0.4,0.6-0.7,1.1-0.5c0.5,0.1,0.3,0.6,0.3,0.9
		c0,1.9-0.4,3.8-0.6,5.7c-0.2,1.5,0.1,3,0.3,4.5c0,0.4,0.4,0.9,0,1.2c-0.5,0.4-1.2,0.4-1.7,0.2c-1-0.4-2.1-0.7-3.2-0.8
		c-0.9-0.1-1.1-0.4-0.8-1.2c0.5-1.1,0.3-2.3,0.5-3.5c0.1-0.4-0.2-0.7-0.2-1.1c0-0.6,0.3-1.1,0.3-1.6c0-0.7-0.1-1.3,0.1-2
		c0.2-0.8-0.1-1.6-0.2-2.4c0-0.5,0.1-1-0.1-1.4c0-0.1,0-0.2,0.1-0.2c0.5-0.2,1-0.6,1.7-0.5c1.1,0.2,2.1,0.3,3.2,0
		c0.1,0,0.3-0.1,0.4-0.1c0.2,0,0.5-0.1,0.6,0.2c0.1,0.3-0.1,0.5-0.3,0.6c-0.8,0.5-1.5,0.8-2.5,0.7c-1-0.2-1.2,0.1-0.9,1.1
		c0.2,0.7-0.1,1.4-0.2,2c-0.2,1.4-0.2,2.8-0.2,4.3c0.1,1-0.1,2-0.3,3.1c-0.1,0.8,0,1,0.8,1.1c1.1,0.2,1,0.2,1.1-0.9
		c0.1-1.1,0.2-2.1,0-3.2c-0.1-0.8,0.3-1.6,0.5-2.4C110.9,98,111,97.7,111,97.3z"/>
	<path d="M116.8,104.8c0-0.1,0.1-0.3,0.2-0.4c0.2-0.3,0.1-0.6,0.1-1c-0.1-0.6,0-1.3,0.1-2c0.1-0.5,0.2-1,0.2-1.6
		c0-0.2,0-0.4,0.1-0.5c0.4-1,0.2-2.1,0.3-3.1c0.2-0.9-0.5-1.7-0.2-2.6c0.2-0.5,0.4-0.7,0.9-0.5c1.8,0.5,3.6,1.1,5.5,1.3
		c0.5,0.1,0.6,0.4,0.5,0.9c-0.5,2.1-0.8,4.3-1.2,6.4c-0.3,1.5-0.3,3-0.4,4.5c0,0.1,0,0.2,0,0.3c0.2,0.7-0.1,1-0.7,0.8
		c-1.4-0.5-2.8-0.7-4.3-1.1C117,105.9,116.8,105.6,116.8,104.8z M119.1,94.2c0,0.3,0.2,0.5,0.2,0.8c0,1.3-0.1,2.7-0.2,4
		c-0.2,1.5-0.4,3.1-0.6,4.6c-0.2,1.5-0.1,1.5,1.3,1.9c0.1,0,0.2,0,0.3,0.1c0.7,0.4,1,0.1,1.2-0.6c0.1-0.5,0.3-0.9,0.3-1.4
		c0-0.4,0.2-0.8,0.1-1.2c-0.3-0.7,0-1.4,0-2.1c0-1,1-1.7,0.5-2.8c-0.1-0.1,0-0.3,0.2-0.4c0.1-0.1,0.2-0.2,0.1-0.3
		c-0.3-0.4-0.1-0.7,0.2-1.1c0.3-0.3,0.3-0.5-0.2-0.6C121.4,94.7,120.3,94.5,119.1,94.2z"/>
	<path d="M130.3,78.8c1.4,0.1,2.7,0.2,4,0c0.4-0.1,0.7,0.1,1,0.1c0.3,0.1,0.5,0.3,0.5,0.6c-0.2,0.8,0.2,1.5,0.1,2.2
		c-0.1,0.4,0,0.8-0.2,1.1c-0.3,0.6-0.1,1.2,0,1.7c0.1,0.8-0.1,1.6-0.3,2.4c-0.1,0.3,0.2,0.6,0.2,0.9c0.3,1.2-0.2,1.8-1.5,1.6
		c0,0-0.1,0-0.1,0c-1.1,0.3-2.3,0.2-3.4,0.6c-0.6,0.2-1.1,0.2-1.6-0.1c-0.5-0.3-0.3-0.8-0.3-1.2c0.1-1,0.3-2.1,0.5-3.1
		c0.3-1.6,0.1-3.1,0-4.7c0-0.5,0.2-1.1-0.1-1.4c-0.4-0.6,0.1-0.7,0.4-0.9C129.7,78.8,130,78.7,130.3,78.8z M134.2,80.2
		c0.2-0.5-0.3-0.5-0.8-0.4c-0.6,0.1-1.2,0.1-1.8,0.1c-0.4,0-0.6,0.2-0.6,0.5c0,1,0,2,0,3c0,1.2,0.3,2.4-0.1,3.6
		c-0.1,0.4-0.1,0.8-0.2,1.2c0,0.7,0.2,0.9,0.8,0.8c0.5-0.1,1-0.2,1.5-0.2c0.5,0,0.6-0.2,0.6-0.7c-0.1-1.3,0.2-2.7,0.2-4
		C133.8,82.9,133.9,81.7,134.2,80.2z"/>
	<path d="M125.1,72.8c-1.5-0.7-3.2,0-4.7-0.5c-0.6-0.2-0.7-0.5-0.7-1.1c0-1.3,0.4-2.5,0.5-3.7c0.1-1.5,0.4-3,0.8-4.5
		c0.2-0.6,0.3-1.3,0.4-1.9c0.1-0.5,0.4-0.7,0.9-0.5c0,0,0,0,0.1,0c1.2,0.9,2.7,0.7,4,0.7c0.3,0,0.6,0.1,0.9,0.1
		c0.8,0.2,0.7,0.3,0.6,1c-0.1,1.1-0.7,1.9-0.9,2.9c-0.1,0.6,0.1,1.2-0.1,1.8c-0.5,1.2-0.3,2.7-0.8,3.9c-0.1,0.2,0,0.5,0.1,0.8
		C126.1,72.8,126.1,72.8,125.1,72.8z M123,62.9c0.1,0.5-0.1,0.8-0.2,1.2c-0.4,1.5-0.7,3-0.8,4.5c-0.1,0.8,0.1,1.6-0.2,2.3
		c-0.2,0.4,0.1,0.6,0.4,0.6c0.6-0.1,1.2,0,1.8,0c0.3,0,0.4,0,0.5-0.3c0.2-1.1,0.5-2.1,0.7-3.2c0.2-1,0.4-2,0.5-3
		c0.1-0.5,0.4-0.9,0.5-1.3c0-0.4-0.1-0.9,0.3-1.2c0.1-0.1,0.1-0.2,0-0.3c-0.1-0.1-0.2-0.1-0.4-0.1c-0.7,0.3-1.4,0.2-2.1,0
		C123.1,62.1,123,62.1,123,62.9z"/>
	<path d="M112.9,61.6c-0.3,1.3,0.1,2.7-0.1,4.2c-0.1,0.6-0.2,1.2-0.1,1.9c0,0.2,0.1,0.5,0,0.6c-0.7,0.8-0.3,1.8-0.6,2.7
		c-0.1,0.5,0,0.7,0.6,0.7c0.7,0,1.4,0,2.1,0.1c0.5,0.1,0.7-0.1,0.7-0.5c0.1-0.7,0.3-1.5,0.2-2.2c-0.1-1.2,0.5-2.3,0.4-3.5
		c-0.1-1,0.4-2,0.3-3c-0.1-0.6,0.4-0.9,1-0.8c0.6,0.1,0.8,0.5,0.6,0.9c-0.3,1.1-0.2,2.3-0.4,3.4c-0.3,2.1-0.4,4.2-0.9,6.3
		c-0.1,0.6-0.8,0.9-1.6,0.6c-1.2-0.5-2.5-0.3-3.7-0.3c-0.8,0-1-0.1-1-1c0.1-1.1,0-2.1,0.5-3.2c0.3-0.7,0.2-1.6,0.1-2.4
		c0-0.5,0-1,0.1-1.5c0.1-0.7,0-1.4,0-2.1c0-0.7,0-1.4,0-2.1c-0.1-0.7,0.3-0.8,0.9-0.8c0.5,0,1,0.1,1.5,0.2c0.8,0.1,1.7,0,2.6,0.2
		c0.1,0,0.3,0,0.4,0c0.2,0,0.4-0.6,0.7-0.1c0.2,0.3,0.5,0.5,0.3,0.9c-0.2,0.3-0.6,0.4-1,0.3c-0.9-0.3-1.8-0.3-2.8-0.4
		C112.9,60.5,112.9,60.5,112.9,61.6z"/>
	<path d="M109.9,87.8c-1,0-1.2-0.1-1.1-1c0.3-1.5,0.3-2.9,0.4-4.4c0.1-1.3,0.2-2.7-0.3-4c-0.4-1.1,0.5-1.8,1.8-1.5
		c0.3,0.1,0.7,0.2,1,0.5c0.7,0.5,1.5,0.7,2.2,1.1c0.2,0.1,0.4,0,0.6-0.1c0.3-0.1,0.6-0.2,1-0.1c0.2,0.1,0.3,0.1,0.3,0.4
		c-0.2,1.1-0.6,2.2-0.5,3.3c0,1.2-0.2,2.4-0.1,3.6c0,0.4,0,0.7,0.1,1c0.2,0.7-0.3,1.4-1.1,1.2c-0.7-0.2-1.4-0.1-2-0.1
		C111.3,87.8,110.5,88,109.9,87.8z M110.8,78.8c0,2.1,0,4.2,0,6.2c0,0.6-0.3,1.3,0.1,1.7c0.4,0.4,1.1,0,1.7,0.1c0.1,0,0.3,0,0.4,0
		c0.2-0.1,0.3-0.2,0.4-0.5c0.2-1.3,0.1-2.6,0.2-3.8c0.1-0.7-0.1-1.5,0.4-2.2c0.2-0.3,0-0.6-0.3-0.6
		C112.7,79.6,111.9,78.9,110.8,78.8z"/>
	<path d="M138.5,56c0.1,0.8-0.2,1.4-0.5,2c-0.2,0.4-0.7,0.3-1,0.2c-0.5-0.2-1-0.4-1.5-0.7c-0.9-0.4-1.7-0.8-2.5-1.3
		c-0.4-0.2-0.6-0.5-0.4-0.9c0.2-0.5,0.6-0.3,1-0.2c0.9,0.4,1.9,0.8,2.9,1.2c0.7,0.3,0.8,0.2,0.9-0.5c0.3-1.9,0.4-3.7,0.5-5.6
		c0.1-1.2,0.4-2.3,0.6-3.4c0.2-1.3,0-1.7-1.3-1.7c-1,0-2-0.3-2.9-0.5c-0.2,0-0.4-0.2-0.5,0c-0.1,0.1,0,0.3,0.1,0.4
		c0.4,1.2,0.3,2.5,0.2,3.8c0,0.2-0.1,0.3-0.1,0.5c0.2,1.4-0.4,2.8-0.3,4.3c0,0.3-0.1,0.7-0.4,0.6c-0.4,0-0.8-0.3-0.7-0.8
		c0.1-1.1,0.2-2.2,0.3-3.2c0.1-1.5,0.3-3,0.1-4.5c-0.1-0.5,0-1,0.1-1.5c0.1-0.6,0.6-0.9,1.4-0.7c1.4,0.3,2.9,0.3,4.3,0.6
		c0.9,0.2,1.2,0.7,1.2,1.6c0,1.3-0.4,2.5-0.7,3.7c-0.2,1.1-0.2,2.1-0.2,3.2c0,1,0,2-0.3,2.9C138.5,55.8,138.5,56,138.5,56z"/>
	<path d="M124.4,43.7c0.5,1.5,0.3,2.9,0.3,4.4c-0.1,1.4-0.2,2.8,0,4.2c0.1,0.5-0.1,1-0.1,1.5c0,0.3-0.2,0.6-0.5,0.5
		c-0.4,0-0.5-0.3-0.5-0.6c0.1-0.9,0.1-1.7,0-2.6c-0.2-2.1,0-4.2,0.1-6.4c0-0.3-0.1-0.6-0.2-0.9c-0.3-0.7-0.2-0.9,0.6-1
		c0.9-0.2,1.8-0.1,2.6-0.1c1,0,2,0.2,3,0.2c0.8,0.1,1.4,1,1.1,1.8c-0.4,0.9-0.5,1.9-0.6,2.9c-0.1,0.5-0.3,1-0.4,1.5
		c-0.4,1.8-1,3.7-1.2,5.5c-0.1,0.5-0.1,1.1-0.2,1.6c0,0.7-0.5,0.9-1.1,0.5c-0.7-0.6-1.5-0.9-2.4-1c-0.4,0-0.7-0.2-0.6-0.6
		c0.1-0.4,0.4-0.6,0.8-0.5c0.6,0.1,1.1,0.2,1.7,0.5c0.3,0.1,0.6,0.1,0.6-0.3c0.2-2.2,1.1-4.2,1.4-6.4c0.2-1.2,0.4-2.3,0.7-3.5
		c0.1-0.5,0-0.7-0.6-0.8c-0.7-0.1-1.5,0-2.2-0.2c-0.4-0.1-0.5,0.3-0.6,0.5c-0.1,0.2-0.4,0.3-0.4,0C125.5,43.6,124.9,43.7,124.4,43.7
		z"/>
	<path d="M115.2,42.3c0-0.6,0.3-0.8,0.9-0.8c1,0,2,0.2,3,0.4c0.3,0.1,0.6,0.1,1,0.1c0.8-0.1,1.5,0.5,1.4,1.4
		c-0.1,1.2-0.2,2.4-0.7,3.5c-0.2,0.5-0.2,1-0.3,1.5c0,1.4-0.4,2.6-0.8,3.9c-0.2,0.6-0.5,1.3-0.4,2c0,0.5-0.2,0.7-0.7,0.7
		c-1.3,0.1-2.6,0.1-3.9-0.1c-1-0.1-1.4-0.4-1.4-1.5c0-1.3,0.5-2.6,0.6-3.9c0.2-2.1,0.9-4.1,0.7-6.2
		C114.6,42.9,114.6,42.4,115.2,42.3c0.6,1.3,0.5,2.7,0.3,4c-0.3,2-0.7,4-1.1,6.1c-0.1,0.4-0.2,0.9-0.1,1.3c0,0.2,0.1,0.3,0.3,0.3
		c1.1-0.3,2.2,0.2,3.3,0c0.5-0.1,0.6-0.2,0.7-0.6c0.4-1.8,0.9-3.5,1-5.3c0.1-1.4,0.6-2.7,0.7-4c0.1-0.9,0-0.9-0.8-1.1
		C118.1,42.5,116.6,42.6,115.2,42.3z"/>
	<path d="M100.3,202.7c0,0.7-0.1,1-0.6,0.8c-0.3-0.1-0.6,0-0.8,0.1c-0.5,0.2-1.1,0.1-1.6,0.2c-2.1,0.4-4.2,0.5-6.2,1
		c-0.4,0.1-0.8,0.1-1.2,0.1c-1.5,0-2.8,0.7-4.2,0.8c-0.7,0.1-1.3-0.3-1.5-1c-0.2-0.8-0.7-1.5-0.9-2.3c-0.1-0.3-0.3-0.7,0.1-0.9
		c0.3-0.2,0.6,0.1,0.8,0.4c0.5,0.5,0.6,1.1,0.7,1.7c0.1,0.6,0.4,0.8,1,0.7c2.3-0.4,4.8-0.5,7.1-1c1.6-0.4,3.3-0.5,5-0.7
		c1.2-0.1,1.1-0.4,0.7-1.1c-0.2-0.4-0.3-0.9-0.5-1.3c-0.1-0.1-0.1-0.3,0-0.4c0.1-0.1,0.3,0,0.4,0c0.2,0.1,0.4,0.2,0.5,0.3
		C99.8,200.8,100,201.9,100.3,202.7z"/>
	<path d="M159.7,84.2c0.3-0.4,0.2-0.9,0.2-1.4c0.1-0.8,0.6-1.2,1.4-1.1c0.4,0,0.5,0.3,0.4,0.6c-0.2,1.6-0.2,3.2-0.4,4.9
		c-0.1,1-0.2,2-0.1,3c0.1,0.9,0,1.9-0.1,2.8c-0.1,0.7-0.8,0.4-1.2,0.4c-0.5,0-0.6-0.3-0.6-0.7c0.1-2.1,0.2-4.3,0.3-6.4
		C159.8,85.6,160.1,84.9,159.7,84.2C159.7,84.2,159.7,84.2,159.7,84.2z"/>
	<path d="M97.2,65.2c0.1-1.5,0.3-2.8,0.4-4.1c0.1-1.4,0.5-2.8,0.6-4.3c0.1-0.7,0.5-0.6,1-0.6c0.6,0.1,0.5,0.5,0.5,0.9
		c-0.2,1.3-0.4,2.6-0.6,3.9c-0.2,1.6-0.2,3.2-0.3,4.8c0,0.4-0.1,0.7-0.1,1.1c-0.1,0.4-0.4,0.5-0.7,0.5c-0.4,0-0.6-0.2-0.6-0.6
		C97.3,66.2,97.1,65.7,97.2,65.2z"/>
	<path d="M236,30.8c0.3,0.3,0.7,0.5,0.4,1c-0.2,0.5-0.6,0.4-1.1,0.4c-1.4-0.2-2.8-0.3-4.3-0.5c-0.9-0.1-0.9-0.1-1.1,0.8
		c-0.1,0.4-0.2,0.8-0.4,1.1c-0.2,0.5-0.4,0.9-0.4,1.4c0,0.7-0.4,1.4-0.7,2c-0.5,1.1-0.9,2.3-1,3.5c-0.3,1.6-1.1,3-1.2,4.5
		c-0.1,0.9-0.5,1.7-0.5,2.6c0,0.6-0.9,1-1.4,0.8c-1.8-0.8-3.8-1.2-5.7-1.7c-1.7-0.4-3.3-0.8-5-0.9c-0.6,0-0.8-0.5-0.6-1.1
		c0.6-2.2,1.4-4.3,2.5-6.3c0.1-0.2,0.2-0.3,0.2-0.5c0.1-0.3,0-0.5-0.3-0.5c-0.7-0.1-1.5-0.3-2.2-0.4c-0.5-0.1-0.8,0-0.9,0.6
		c0,0.4-0.2,0.8-0.4,1.2c-0.2,0.3-0.4,0.7-0.4,1.1c0.1,1-0.6,1.8-0.8,2.8c-0.2,0.8-0.7,1.6-1,2.4c-0.4,0.8-0.9,1-1.6,0.6
		c-1.3-0.7-2.8-0.9-4.2-1.3c-1.2-0.4-2.5-0.3-3.6-0.8c-0.8-0.4-0.8-0.5-0.2-1c0.4-0.3,0.3-0.7,0.3-1.1c-0.1-0.8-0.2-1.5-0.2-2.3
		c0-1.9,0.3-3.8,0.5-5.7c0.2-1.2,0.3-2.3,0.5-3.5c0.2-1.5,0.8-2.8,1.3-4.2c0,0,0-0.1,0.1-0.1c0.5-1,0.5-1.1-0.6-1.1
		c-1.1-0.1-2.3-0.3-3.3-0.7c-0.4-0.2-0.8-0.3-0.9-0.8c0-0.6,0.4-1.2,0.9-1.4c0.5-0.2,1.1-0.3,1.6-0.3c1,0,2,0,2.9-0.4
		c0.4-0.2,1-0.2,1.4-0.1c0.8,0.1,1.4-0.3,2.1-0.5c0.6-0.2,1.2-0.6,1.9-0.5c0.2,0,0.5,0,0.6-0.2c0.8-0.8,1.9-0.7,2.9-0.9
		c1.6-0.4,3.1-0.9,4.6-1.6c0.7-0.3,1.3-0.6,2-0.8c0.4-0.2,0.7-0.1,1,0.2c0.5,0.6,1.1,1.1,1.7,1.5c0.9,0.7,1.7,1.5,2.9,1.9
		c1.1,0.4,2.2,1,2.9,1.8c0.7,0.9,1.8,1.2,2.6,2c0.4,0.3,0.8,0.7,1.3,0.9c0.6,0.3,1,0.7,1.2,1.3c0.2,0.4,0.6,0.7,1,0.9
		c1.1,0.4,1.9,1.3,2.9,1.9C236.9,29.3,236.8,30.2,236,30.8z M203.8,22.6c0.2,0.2,0.5,0.4,0.7,0.7c0.2,0.2,0.4,0.4,0.2,0.7
		c-0.8,1.3-1.2,2.8-1.8,4.3c-0.3,0.7-0.4,1.5-0.6,2.2c-0.2,0.8-0.1,1.7-0.3,2.5c-0.4,1.6-0.4,3.3-0.5,5c-0.1,1.4,0.2,2.9,0.4,4.3
		c0,0.4,0.3,0.5,0.6,0.6c0.9,0.1,1.8,0.3,2.6,0.6c0.9,0.3,1.9,0.6,2.8,0.9c0.3,0.1,0.5,0,0.6-0.3c0.7-1.4,1.3-2.8,1.6-4.3
		c0.3-1.4,0.9-2.6,1.2-4c0.1-0.4,0.4-0.7,0.9-0.5c1.3,0.6,2.9,0.4,4.1,1.2c0.1,0.1,0.2,0.1,0.3,0.1c0.6,0,0.7,0.5,0.7,0.9
		c0,0.3-0.1,0.6-0.3,0.9c-1,1.7-1.7,3.6-2.3,5.5c-0.1,0.4,0,0.5,0.4,0.5c0.7,0,1.3,0.1,1.9,0.3c1.2,0.5,2.5,0.7,3.8,1.1
		c1,0.3,2,0.5,2.9,1c0.3,0.2,0.4-0.1,0.4-0.3c0.4-1.6,0.8-3.2,1.2-4.7c0.3-1.3,0.7-2.6,1.1-3.9c0.6-1.9,1.5-3.8,1.9-5.8
		c0.2-0.8,0.6-1.5,0.9-2.2c0.1-0.2,0.3-0.5,0.6-0.3c1.7,0.8,3.5,0.9,5.4,1.4c-1.1-1.1-2.3-1.8-3.3-2.7c-0.7-0.6-1.6-1.1-2.3-1.8
		c-1-1-2.1-2-3.4-2.8c-0.6-0.4-1.2-0.7-1.8-1.1c-0.8-0.7-1.7-1.2-2.7-1.7c-1.2-0.6-2.4-1.3-3.4-2.3c-0.2-0.2-0.3-0.4-0.6-0.2
		c-0.5,0.4-1.2,0.3-1.7,0.6c-1,0.6-2.1,0.8-3.2,1.1c-1.9,0.6-3.8,1-5.7,1.7c-1,0.3-1.9,1-3,0.8C204.3,22.3,204,22.4,203.8,22.6z"/>
	<path d="M227.9,106.4c0-0.5,0.2-1,0.3-1.5c0.5-1.4,1.4-2.6,2.6-3.5c1.3-0.9,2.9-1.3,4.3-0.9c1.3,0.4,2.7,0.5,3.9,1.2
		c1.5,0.8,2.1,2.3,2.4,3.8c0.1,0.5-0.3,1.1-0.4,1.8c0,0.5,0.1,1-0.1,1.6c-0.4,1.1-1.1,2-2.1,2.5c-0.7,0.4-1.4,0.9-2.2,1.2
		c-2.3,0.9-4.4,0.3-6.4-1.1C228.7,110.3,228.2,108.4,227.9,106.4z M240.3,106.8c0.1-0.7-0.3-1.4-0.3-2.2c0-0.6-0.3-1-0.8-1.4
		c-1.1-0.8-2.3-1.2-3.6-1.4c-1.3-0.2-2.6-0.1-3.8,0.6c-1.5,0.8-2.2,2.4-2.6,3.9c-0.4,1.5,0.1,2.8,1.2,3.8c0.8,0.7,1.8,1.1,2.8,1.4
		c0.5,0.2,1,0.4,1.6,0.2c1-0.3,1.9-0.5,2.9-1C239.6,109.9,240.5,108.8,240.3,106.8z"/>
	<path d="M53.5,230.2c-0.8,0-1.6,0-2.4-0.1c-2.4-0.5-3.8-2-4.7-4.2c-0.8-1.9-0.2-3.6,0.7-5.3c0.3-0.6,1-1,1.6-1.4
		c2.3-1.3,4.7-1.6,6.9,0.1c1.1,0.9,2.3,1.9,3,3.3c0.6,1.3,0.4,2.6,0,3.9c0,0.1-0.1,0.1-0.1,0.2c-0.8,0.4-1,1.2-1.4,1.9
		c-0.7,0.9-1.7,1.5-2.9,1.6C53.9,230.1,53.7,230.1,53.5,230.2C53.5,230.1,53.5,230.1,53.5,230.2z M52.2,219.3
		c-1.4,0-2.2,0.3-3.9,1.6c-1.2,0.9-1.7,2.5-1.3,4c0.3,1.1,1,1.9,1.7,2.7c0.4,0.4,0.7,0.8,1.3,1c1.1,0.3,2.3,0.5,3.4,0.6
		c1.1,0,2.2-0.2,2.9-1.3c0.6-1,1-2,1.3-3c0.1-0.4,0.1-0.8,0-1.2c-0.7-1.5-1.8-2.5-3.1-3.4C53.8,219.7,52.9,219.5,52.2,219.3z"/>
	<path d="M44.6,117.4c0.7,0,1.3-0.2,1.8,0.3c0.1,0.1,0.2,0,0.4,0c0.8-0.4,1.6,0.1,1.7,1c0.2,1.3-0.2,2.1-1.3,2.6
		c-0.9,0.4-2.5,0-3-0.8c-0.6-0.8-0.4-1.7-0.1-2.5c0.2-0.5,0-0.6-0.4-0.6c-0.9,0-1.7,0.3-2.6,0.4c-0.4,0.1-0.9,0.1-1.3,0
		c-0.6-0.1-1.3-0.1-1.9,0.2c-0.9,0.4-1.9,0.6-2.9,0.6c-0.5,0-0.8-0.1-0.9-0.7c-0.7-3.4-1.5-6.8-2.1-10.2c-0.4-2.1-0.5-4.3-0.8-6.4
		c-0.4-3-1-6.1-1.7-9c-0.2-0.8-0.5-1.5-0.8-2.2c-0.2-0.4-0.1-0.5,0.3-0.7c1.8-0.5,3.6-0.8,5.4-1.1c1.3-0.2,2.7-0.4,4-0.8
		c0.6-0.2,1.3-0.2,1.9-0.5c0.3-0.1,1.1,0.5,1.1,0.8c0,0.2-0.1,0.3-0.3,0.3c-0.2,0-0.4,0-0.6,0.1c1,0.8,1.1,2,1.2,3.1
		c0.2,1.5,0.5,3,0.7,4.5c0.2,1.3,0.3,2.6,0.3,3.9c0,0.5,0,1,0.1,1.5c0.3,2,0.6,3.9,0.9,5.9c0.3,1.7,0.7,3.3,0.8,5.1
		c0.1,1.3,0.4,2.5,0.7,3.8C45.3,116.6,45.3,117.1,44.6,117.4z M41.5,101.3c0,0,0.1,0,0.1,0c-0.1-1.4-0.2-2.9-0.4-4.3
		c-0.3-2.1-0.6-4.1-0.9-6.2c-0.1-0.8-0.2-1.7-0.7-2.2c-0.4-0.4-1.2,0.1-1.8,0.2c-2.5,0.4-4.9,1-7.4,1.4c-0.4,0.1-0.4,0.2-0.3,0.6
		c0.6,2.1,1.3,4.1,1.6,6.2c0.2,1.3,0.4,2.6,0.6,3.9c0.3,2.1,0.4,4.2,0.8,6.3c0.6,3.3,1.1,6.5,1.9,9.7c0.1,0.6,0.4,0.8,1,0.6
		c1.1-0.2,2.2-0.7,3.4-0.6c0.9,0.1,1.7,0,2.5-0.2c0.4-0.1,0.8-0.1,1.3-0.1c0.9,0,1-0.1,0.6-1c-0.1-0.1-0.1-0.2-0.1-0.4
		c-0.2-1.4-0.5-2.8-0.7-4.2c-0.2-1.9-0.6-3.7-0.9-5.6C41.8,104.3,41.7,102.8,41.5,101.3z M46.8,118.1c-0.2,0.6-0.5,0.4-0.8,0.2
		c-0.2-0.1-0.5-0.2-0.7,0c-0.3,0.5-0.2,1.6,0.3,2c0.7,0.5,1.2,0.4,1.4-0.5C47.2,119.3,47.1,118.7,46.8,118.1z"/>
	<path d="M31,152.1c-0.1-0.8-0.3-1.9-0.6-2.9c-0.4-1.2-0.6-2.4-0.8-3.6c-0.3-1.5-0.6-3.1-0.8-4.6c-0.4-2.6-0.7-5.3-1.1-8
		c-0.3-2-0.6-4.1-1.1-6.1c-0.1-0.5-0.4-0.6-0.8-0.4c-2,0.7-4,1.3-6.1,1.5c-0.4,0-0.8,0-1.2-0.2c-0.1-0.1-0.2-0.2-0.2-0.3
		c0-0.2,0.2-0.1,0.3-0.2c0.6-0.1,1.2-0.2,1.8-0.2c1.4-0.2,2.7-0.7,4.1-1c0.7-0.2,1.3-0.6,2.1-0.6c0.8,0,1.2,0.3,1.2,1.1
		c0,0.4,0.1,0.7,0.2,1.1c0.5,2.3,0.9,4.5,1,6.9c0,0.5,0.2,1,0.3,1.6c0.3,1.9,0.4,3.8,0.8,5.6c0.5,2.3,0.7,4.7,1.4,7
		c0.5,1.4,0.6,2.8,0.9,4.3c0.1,0.6-0.2,0.9-0.7,1.1c-1.5,0.4-3,0.9-4.4,1.4c-1.6,0.6-3.3,0.9-5,1.2c-0.6,0.1-1-0.1-1-0.8
		c0-1.7-0.5-3.4-0.6-5.1c-0.1-1.4-0.5-2.7-0.7-4.1c-0.2-0.9-0.3-1.8-0.5-2.7c-0.3-1.4-0.4-2.8-0.6-4.2c-0.2-1-0.2-2-0.4-2.9
		c-0.1-0.5,0-1.1-0.1-1.6c-0.2-1.8-0.9-3.4-1.4-5.1c-0.1-0.4-0.2-0.8-0.3-1.2c-0.1-0.4-0.1-0.7,0.4-0.8c0.5-0.1,0.8,0.1,0.9,0.5
		c0.3,1.5,1,2.9,1.4,4.4c0.3,1,0.4,2,0.4,3c0,1,0.3,2,0.4,3.1c0.1,1.7,0.5,3.4,0.7,5.1c0.3,1.7,0.6,3.3,0.9,5
		c0.3,1.8,0.6,3.6,0.6,5.4c0,0.7,0.2,0.8,0.9,0.7c2.5-0.3,4.9-1.3,7.3-2C31.1,153.1,31.1,153.1,31,152.1z"/>
	<path d="M45.2,152.8c-1.2-0.1-2.2,0.4-3.4,0.6c-0.6,0.1-1.2,0.3-1.7,0.4c-0.5,0.1-0.7-0.1-0.8-0.6c-0.3-1.2-0.3-2.4-0.5-3.5
		c-0.2-1-0.5-2-0.8-3.1c-0.2-0.7-0.3-1.4-0.5-2.1c-0.3-0.7-0.3-1.5-0.6-2.3c-0.4-0.9-0.3-1.9-0.5-2.8c-0.3-1.3-0.7-2.5-1-3.8
		c-0.3-1.4-0.5-2.8-0.9-4.2c-0.3-1.3-0.8-2.5-1.1-3.8c-0.2-0.6-0.3-1.2-0.4-1.7c-0.1-0.5,0.2-1,0.7-0.9c0.8,0.1,1.6-0.2,2.3-0.3
		c2.3-0.5,4.6-0.6,6.8-0.9c0.4-0.1,0.8-0.1,1.2-0.2c0.8-0.2,1.2,0.1,1.2,0.9c0.2,1.9,0.3,3.9,0.4,5.8c0.1,1.2,0.3,2.4,0.6,3.6
		c0.3,0.9,0.5,1.8,0.7,2.8c0.5,1.8,0.9,3.6,1.3,5.3c0.5,2.5,1.1,5,1.5,7.5c0.1,0.6,0,1.2,0.2,1.7c0.1,0.4-0.1,0.7-0.5,0.8
		C48.1,152.3,46.7,152.9,45.2,152.8z M45.3,152c1.1,0.2,2-0.4,3-0.5c0.3-0.1,0.4-0.4,0.3-0.6c-0.1-1.5-0.3-3-0.5-4.5
		c-0.2-1.2-0.8-2.4-0.9-3.6c-0.2-1.2-0.6-2.2-0.8-3.4c-0.4-2.5-1.5-4.8-1.8-7.3c-0.1-1-0.2-2-0.3-3c-0.1-1.3-0.1-2.6-0.3-4
		c-0.1-0.6-0.4-0.6-0.9-0.5c-2.2,0.4-4.5,0.4-6.8,0.8c-0.6,0.1-1.1,0.3-1.6,0.5c-0.3,0.1-0.4,0.4-0.3,0.7c0.3,1,0.6,1.9,0.8,2.9
		c0.4,1.8,0.9,3.6,1.4,5.5c0.5,1.9,1,3.9,1.4,5.9c0.2,1.1,0.4,2.3,0.7,3.4c0.8,2.5,1.3,5,1.6,7.6c0.1,1.1,0.3,1.2,1.3,0.9
		C42.8,152.3,44,152,45.3,152z"/>
	<path d="M17.2,118.5c0-1.4-0.2-2.5-0.4-3.5c-0.6-3-1.3-5.9-1.9-8.9c-0.3-1.5-0.8-2.9-1-4.4c-0.3-2.9-1.4-5.6-2.5-8.3
		c-0.2-0.4-0.1-0.5,0.3-0.6c0.4-0.1,0.8,0.1,1.2,0.1c2.6-0.3,5.1-0.9,7.5-1.7c0.8-0.3,1.6-0.3,2.5-0.5c0.3-0.1,0.6,0.1,0.8,0.4
		c0.2,0.3-0.1,0.4-0.3,0.5c-0.1,0.1-0.1,0.2-0.1,0.3c0.3,2.4,0.6,4.7,1,7.1c0.1,0.9,0.4,1.8,0.6,2.6c0.2,1,0.3,2,0.4,2.9
		c0.3,1.5,0.6,3,0.9,4.5c0.1,0.4,0.1,0.9,0.1,1.3c0.1,2,0.9,3.9,1.4,5.8c0.2,0.9,0.5,1.7,0.8,2.6c0.1,0.4,0.1,0.7-0.5,0.8
		c-0.9,0.2-1.8,0.2-2.6,0.6c-0.8,0.4-1.6,0-2.3,0.2c-1.6,0.3-3.3,0.5-4.9,0.8c-0.5,0.1-0.7-0.1-0.7-0.6
		C17.3,119.8,17.2,119,17.2,118.5z M23.2,119.7c0.9,0.2,1.8-0.3,2.7-0.5c1.3-0.2,1.3-0.3,0.9-1.6c-0.4-1.4-0.9-2.9-1.2-4.3
		c-0.4-1.6-0.4-3.3-0.8-5c-0.4-1.9-0.9-3.7-1.1-5.6c-0.2-1.8-0.8-3.5-0.9-5.3c-0.1-1.5-0.4-2.9-0.5-4.3c-0.1-1-0.3-1.1-1.2-0.9
		c-1,0.3-2,0.5-2.9,0.8c-1.2,0.3-2.4,0.5-3.6,0.7c-0.2,0-0.4-0.1-0.4,0.2c0,0.5-0.2,0.2-0.4,0.1c-0.2-0.1-0.4-0.1-0.6-0.2
		c-0.4-0.1-0.5,0-0.4,0.4c0.3,0.7,0.5,1.5,0.8,2.2c0.6,1.4,1.1,2.8,1.2,4.3c0,0.4,0,0.8,0.1,1.1c0.3,0.8,0.5,1.7,0.6,2.5
		c0.2,1.2,0.6,2.3,0.8,3.5c0.5,2.1,0.9,4.3,1.5,6.4c0.4,1.8,0.6,3.6,0.6,5.5c0,0.5,0.2,0.5,0.6,0.5
		C20.4,120.2,21.7,119.7,23.2,119.7z"/>
	<path d="M233.8,188.1c0,0.4,0,0.7-0.6,0.7c-0.2,0-0.2,0.1-0.2,0.3c0,0.7-0.2,0.9-0.9,0.6c-0.8-0.4-1.6-0.9-2.3-1.4
		c-1-0.7-1-0.7-1.9,0.2c-1,1.2-2.2,2.2-3.2,3.4c-1.1,1.4-2.4,2.7-3.3,4.3c-0.2,0.4-0.6,0.7-0.8,1.1c-0.3,0.4-1,0.5-1.3,0.1
		c-1.9-2-4.2-3.5-6.4-5c-0.5-0.4-0.6-0.6-0.2-1.1c1.1-1.3,2.3-2.4,3.6-3.5c0.4-0.3,0.6-0.6,0-0.9c-0.4-0.2-0.7-0.5-1.1-0.8
		c-0.3-0.2-0.6-0.2-0.9,0.1c-1.1,1.1-2,2.4-3.2,3.5c-0.4,0.3-0.8,0.7-1.2,1c-0.3,0.3-0.6,0.2-0.9-0.1c-1.2-1.4-2.6-2.4-4.1-3.4
		c-0.3-0.2-0.6-0.5-0.8-0.8c-0.2-0.2-0.2-0.5,0.1-0.6c0.7-0.2,0.8-0.8,0.9-1.3c0.4-1.7,1.4-3.1,2.3-4.5c0.7-1.3,1.5-2.5,2.4-3.6
		c0.5-0.6,1.1-1.1,1.7-1.7c0.3-0.3,0.4-0.5-0.1-0.7c-0.8-0.4-1.7-0.9-2.3-1.7c-0.2-0.3-0.5-0.5-0.3-0.9c0.2-0.3,0.5-0.7,1-0.6
		c0.4,0.1,0.9,0.2,1.3,0.4c0.9,0.5,2,0.6,2.9,0.9c1.4,0.5,2.9,0.6,4.4,0.5c0.5,0,0.9,0.3,1.4,0.4c1.5,0.2,3.1,0.4,4.6,0.3
		c1.1-0.1,1.6,0.4,1.9,1.2c0.6,1.7,1.7,3,2.7,4.4c0.3,0.4,0.7,0.9,0.7,1.5c0,0.1,0.1,0.3,0.2,0.4c0.7,0.6,0.9,1.5,1.4,2.2
		c0.3,0.3,0.4,0.7,0.4,1.2c0,0.4,0.3,0.8,0.5,1.1c0.4,0.7,0.8,1.3,1.2,2C233.8,187.6,233.7,187.8,233.8,188.1z M213.2,173.1
		c0.6,1,0.5,1.1-0.1,1.6c-0.9,0.7-1.7,1.5-2.4,2.4c-0.7,0.8-1.3,1.8-1.9,2.7c-1.3,2-2.4,4.1-3,6.4c-0.1,0.3,0,0.4,0.2,0.6
		c1.2,0.7,2.2,1.7,3.2,2.6c0.3,0.3,0.5,0.3,0.8,0c0.6-0.6,1.3-1.2,1.9-1.9c0.9-0.9,1.7-1.9,2.5-2.8c0.3-0.3,0.6-0.4,0.9-0.1
		c0.7,0.9,1.9,1.2,2.5,2.2c0.3,0.5,0.4,0.8-0.1,1.1c-0.4,0.4-0.9,0.8-1.4,1.2c-0.8,0.6-1.5,1.4-2.2,2.2c-0.1,0.1-0.4,0.4,0,0.5
		c0.9,0.2,1.4,0.9,2,1.4c1.1,1,2.3,1.7,3.3,2.8c0.2,0.2,0.3,0.2,0.5,0c1.7-2.1,3.4-4.3,5.3-6.3c0.7-0.7,1.4-1.4,2-2.2
		c0.4-0.5,0.8-1,1.3-1.3c0.3-0.2,0.6-0.2,0.9,0.1c0.7,0.7,1.5,1.2,2.3,1.8c0.2,0.1,0.4,0.4,0.6,0.2c0.2-0.2-0.1-0.4-0.1-0.5
		c-0.5-0.9-1.1-1.8-1.5-2.8c-0.9-2-1.9-4-3.1-5.9c-0.9-1.4-2.2-2.6-2.8-4.2c-0.1-0.2-0.3-0.2-0.6-0.3c-0.6-0.2-1.2,0-1.8-0.1
		c-2.3-0.2-4.5-0.8-6.8-0.8C214.9,173.6,214.1,173.3,213.2,173.1z"/>
	<path d="M33,14c1.3,0.1,2.4,0.3,3.6,0.3c0.8,0,1.6,0.1,2.3-0.1c1.1-0.2,2.2,0,3.2,0c0.9,0,1.8-0.1,2.7-0.2c1.1-0.1,2.1-0.4,3.1-0.6
		c0.5-0.1,1.1-0.2,1.5,0.4c0.3,0.5,0.2,0.7-0.2,1.1c-0.7,0.7-1.6,1.1-2.5,1.4c-0.4,0.1-0.5,0.3-0.2,0.6c2.3,2.6,3.3,5.8,4.7,8.8
		c0.3,0.7,0.3,1.6,0.5,2.3c0.1,0.4,0.2,0.7,0.5,0.8c0.5,0.2,0.4,0.5,0.1,0.8c-0.3,0.2-0.6,0.4-0.9,0.6c-1.5,0.8-3,1.6-4.3,2.7
		c-0.4,0.4-0.8,0.4-1.2,0c-0.7-0.7-1.2-1.4-1.7-2.2c-0.6-1-1.3-1.9-2-2.9c-0.2-0.2-0.4-0.2-0.6-0.2c-0.6,0.2-1.2,0.6-1.8,0.9
		c-0.3,0.2,0,0.4,0.1,0.5c0.8,0.8,1.6,1.8,2.3,2.7c0.3,0.5,0.7,0.9,1,1.4c0.3,0.4,0.1,0.8-0.3,1c-1.8,0.8-3.5,1.8-5.1,2.7
		c-0.6,0.4-1.3,0.8-1.8,1.3c-0.5,0.5-1.2,0.4-1.5-0.2c-0.7-1.6-1.8-3-2.6-4.6c-1.1-2-2.7-3.6-3.8-5.6c-0.3-0.5-0.8-0.4-1.2-0.1
		c-0.9,0.6-1.9,0.8-2.8,1.3c-0.6,0.3-0.9,0.1-0.9-0.6c0-0.1,0-0.2-0.1-0.3c-0.6-0.5-0.6-1-0.1-1.6c0.5-0.7,1.1-1.4,1.7-2
		c0.3-0.3,0.5-0.6,0.4-1c0-0.3,0.2-0.5,0.3-0.7c1-1.2,2-2.4,2.8-3.7c0.2-0.3,0.4-0.5,0.6-0.7c1.4-1.1,2.3-2.6,3.2-4.1
		C32.4,14.1,32.7,13.9,33,14z M45,15.4c-0.2-0.2-0.4-0.2-0.6-0.1c-0.9,0.2-1.7,0.1-2.6,0c-0.5-0.1-1.1-0.1-1.6-0.1
		c-1.9,0-3.7,0.2-5.6,0C34,15.1,33.4,15.1,33,16c-0.2,0.5-0.7,1.1-1.2,1.5c-1.2,1-2,2.2-3,3.4c-0.4,0.4-0.8,0.9-1.1,1.4
		c-0.9,1.7-2,3.2-3.1,4.8c-0.2,0.3-0.6,0.5-0.6,1c1.2-0.5,2.2-1.1,3.2-1.8c0.4-0.3,0.6-0.2,0.9,0.1c0.7,0.6,0.9,1.4,1.4,2.1
		c1.2,1.6,2.4,3.2,3.4,4.9c0.8,1.2,1.6,2.5,2.3,3.8c0.1,0.1,0.1,0.5,0.4,0.2c1-0.9,2.1-1.4,3.2-2.2c0.8-0.5,1.5-1.2,2.4-1.4
		c0.6-0.1,0.5-0.3,0.2-0.7c-0.8-1.3-1.8-2.3-2.8-3.4c-0.3-0.3-0.7-0.6-0.4-1c0.3-0.4,0.6-1,1.2-1.1c0.4-0.1,0.7-0.2,1-0.5
		c0.3-0.3,0.7-0.5,1.1-0.7c0.3-0.1,0.5-0.1,0.7,0.2c0.5,0.8,1.1,1.5,1.6,2.4c0.7,1.1,1.5,2,2.3,3c0.2,0.3,0.4,0.2,0.7,0
		c1.1-0.8,2.3-1.6,3.5-2.2c0.3-0.1,0.3-0.3,0.2-0.6c-0.3-1.6-0.6-3.2-1.3-4.6C49,23.3,48.5,22.1,48,21c-0.7-1.6-1.8-2.9-2.9-4.2
		C44.6,16.4,44.5,15.9,45,15.4z"/>
</g>
</svg>
