<?xml version="1.0" encoding="utf-8"?>
<!-- Generator: Adobe Illustrator 18.1.1, SVG Export Plug-In . SVG Version: 6.00 Build 0)  -->
<svg version="1.1" id="Ebene_1" xmlns="http://www.w3.org/2000/svg" xmlns:xlink="http://www.w3.org/1999/xlink" x="0px" y="0px"
	 width="250px" height="250px" viewBox="0 0 250 250" style="enable-background:new 0 0 250 250;" xml:space="preserve">
<g>
	<path d="M127.9,154.4c1.6,10.3,1.7,20.4,1.6,30.5c-0.1,5.3,2.1,6.4,6.7,6.9c7.3,0.8,14.6-1,21.9,0.2c2.9,0.5,5.8,0.4,8.6,1.1
		c6.2,1.5,4,7.1,4.8,11.1c0.4,2.2-0.4,4.7,0.1,7c0.5,2.3-0.6,3.1-2.5,3.5c-7.1,1.5-14.2,1.9-21.4,0.6c-6.7-1.3-13.3,0.4-19.9,1.2
		c-2,0.2-1.6,2-1.7,3.2c-0.6,8.3-2.1,16.6-0.1,24.9c0.4,1.7,0.7,3.2-1.5,3.6c-4.2,0.8-8.3,2.1-12.6,1.9c-3.2-0.1-4.5-1.5-4.4-4.8
		c0.2-7.2-0.1-14.4,0.2-21.6c0.2-4.3-1.2-5.6-5.5-5.6c-9.6,0-19.2,0.3-28.5-2.7c-4.9-1.6-8-4.2-8.3-9.6c-0.1-1.5-0.6-3-1-4.5
		c-1.6-5.7-0.5-6.6,5.2-5.8c10.6,1.5,21.3,2.6,32,3.9c4.9,0.6,7.2-0.1,6.5-6.3c-0.6-6.1,1.3-12.5,1.8-18.8
		c0.5-6.2,1.5-12.4-0.4-18.5c-0.3-1-1.3-2.5,0.6-2.9c1.8-0.4,1.6,1.1,1.9,2.2c2.4,8.1,1.5,16.3,0.8,24.5c-0.5,5.6-2.3,11-0.9,16.7
		c0.9,3.7-0.9,5.5-4.7,6.2c-5.4,1-10.8,0.1-15.8-1.1c-7.1-1.7-14.4-0.8-21.4-2.5c-0.8-0.2-1.7-0.4-2.2,0.6c-1.1,2.1,2.4,11,4.8,11.9
		c4.2,1.6,8.5,2.6,13,2.4c5.6-0.3,11.1,1.1,16.8,0.8c6.7-0.4,9.6,3.8,9.5,11.6c-0.1,6.1,0.1,12.3-0.3,18.3c-0.2,2,0.1,2.3,1.8,2.4
		c5.7,0.4,7.6-1.4,7.8-7.1c0.1-7.4,0.7-14.7,0.9-22.1c0.1-3.4,2.4-3.8,4.7-4.3c9.4-1.8,19-2.4,28.4-0.5c3.5,0.7,6.7-0.6,10-1
		c1.8-0.2,2.2-1.1,2.2-2.7c0.1-12.9,1.8-12.9-11.6-13.8c-8-0.6-16,1.1-24-0.8c-3.7-0.9-5.2-2.1-5.7-6.1c-1.5-11.2,0.6-22.5-2.2-33.6
		c-1-3.8,1.1-5.2,5.6-4.3c15.7,3.3,28.3-2,39.4-13c19.8-19.6,25.8-44,26-70.6c0.2-20.1-9.7-34.6-24.5-47.2
		C155.5,7,138.3,2.5,119.6,2.8C102.3,3,88,9.9,76.5,23.2c-13,15.1-19.2,33-21.6,52.2c-1.3,10.8,3.4,20.5,8.8,29.4
		c8.3,13.7,19.4,25.1,33,33.9c3.6,2.4,7.5,3.9,11.4,5.7c1.5,0.7,3.6,0.7,3.7,2.9c0,0.7-0.6,1.9-1.1,2.2c-1.8,0.6-2.4-1.6-3.7-2
		c-9.7-3.5-17.7-9.5-25.4-16.1c-11.2-9.6-20.9-20.4-25.7-34.9c-1.4-4.3-3.6-8.2-4.4-12.9C50.1,75,52.1,67,54,58.9
		c3.5-15.7,11.7-29,22.1-40.7C86.1,7.1,98.3-0.2,114.1,0.1c7.5,0.1,14.9-0.4,22.4,0.4c11.4,1.3,21.1,6.1,30,12.9
		c9.7,7.4,19,15.1,24.8,26.2c3.9,7.4,6.7,15.3,7.4,23.7c1.6,19.9-2.4,38.9-11.5,56.3c-9,17.1-21.6,31.1-42.1,35.1
		C139.3,155.8,133.8,153.6,127.9,154.4z"/>
	<path d="M180.8,74.3c-1.5,12.7-5.2,28-15,41.6c-7,9.7-16.6,13.2-27.4,15.3c-11,2.2-21.6,0.1-31.7-4.4
		c-16.7-7.5-24.1-22.1-29.1-38.5c-3.7-12.1-4.3-24.2-0.9-36.3c2.2-7.8,6.2-14.6,12.5-20c8-6.9,15.8-13.5,26.9-15.9
		c12.8-2.7,23.8-0.2,34.7,6.4c9.1,5.5,16.3,12.9,22.5,21.2C178.4,50.5,181.1,62.1,180.8,74.3z M131.3,128.2c10.7-1,21.4-2,29.2-10.9
		c6.9-7.9,10.4-17.5,13.2-27.4c3.1-10.9,4.3-21.9,0.7-32.8c-5.7-17.4-18.6-28.3-34.4-35.9c-5.1-2.4-10.8-3.8-16.9-2.9
		c-11,1.6-19.9,6.4-28.5,13.6c-14.3,12-17.5,27.5-14.9,43.8c2.4,15,7.5,29.7,19.9,40.6c2.8,2.4,5.2,5.6,8.7,6.8
		C115.7,125.6,123.1,128.9,131.3,128.2z"/>
</g>
</svg>
