<?xml version="1.0" encoding="utf-8"?>
<!-- Generator: Adobe Illustrator 18.1.1, SVG Export Plug-In . SVG Version: 6.00 Build 0)  -->
<svg version="1.1" id="Ebene_1" xmlns="http://www.w3.org/2000/svg" xmlns:xlink="http://www.w3.org/1999/xlink" x="0px" y="0px"
	 width="250px" height="250px" viewBox="0 0 250 250" style="enable-background:new 0 0 250 250;" xml:space="preserve">
<g>
	<path d="M70.8,187.2c-13.6,3.7-26.9,3.6-40.1-5.4c5.8-1.4,9.7,1.5,15.4,2.4c-3.8-3.5-6.7-5.9-9.4-8.6c-1.4-1.4-3.4-3.1-1.8-5.3
		c1.5-1.9,3.2,0.1,4.6,0.7c6.3,2.8,12.7,5.3,19.5,6.6c1.3,0.3,2.6,0.7,4.5-0.1c-5.5-4.2-9.9-8.9-14.3-13.7c-1-1.1-2.9-2.4-1.6-3.9
		c1.3-1.6,3.2-0.3,4.6,0.7c3.1,2.2,6.3,4.3,9.1,6.8c8,7.2,17.9,10.5,27.4,14.8c0.5,0.2,1.3-0.1,2.8-0.2c-2.1-3-4-5.6-5.7-8.2
		c-6.6-10.1-13.1-20.2-19.6-30.4c-0.8-1.2-3.3-2.6-1.1-4.2c1.7-1.2,3.1,0.8,4.2,2c0.4,0.5,0.9,1,1.8,1.2c-1.5-3-3-6-4.4-9
		c-0.5-1-1.7-2.3-0.3-3.2c1.4-1,2.5,0.4,3.5,1.3c1.7,1.6,2.3,4.3,5.2,5.5c-2-4.5-3.8-8.7-5.6-12.9c-0.7-1.8-2.7-3.9-0.7-5.5
		c2-1.6,3.3,1.3,5.4,2.8c-1.3-3.9-2.8-7.1-3.4-10.4c-0.6-3-3.7-6.1-0.1-9.4c0.5-0.5-1.2-3.3-1.8-5.1c-0.5-1.3-2.3-2.8-0.5-4.1
		c1.4-1,2.9,0.1,3.9,1.5c0.4,0.5,0.9,1,1.7,1.9c0.5-2.4-0.4-3.9-1.5-5c-4.5-4.7-7.7-10-8.4-16.6c-0.1-0.8-1-1.6-0.1-2.3
		c0.9-0.7,1.9-0.1,2.8,0.4c1.7,1,3.2,3.8,5.1,2.7c2.1-1.3-1.1-3.6-0.4-5.6c0.6-1.8-1.9-4.8,0.9-5.3c2.6-0.5,2.6,2.7,3,4.6
		c0.6,2.7,1.5,4.8,4.5,5.7c2.1,0.6,2.6,2.6,3.1,4.4c0.6,2.1,1.3,4.2,2,6.1c1.6,0,1.9-0.9,2.3-1.6c0.7-1.2,0.1-3.6,2.4-3.4
		c2.5,0.2,2.7,2.8,2.6,4.4c-0.1,3.9-0.9,7.8-1.5,11.7c5.8-0.4,7,2.5,4.5,10c-0.5,1.5-1.4,2.8-1.8,4.3c-0.5,2.4-3.3,6.7,3.1,4.1
		c1.9-0.8,3,0.5,3.2,2.8c0.4,4.1-0.8,7.8-1.8,11.6c-0.6,2.1-1.6,4.1,2.2,4.6c2.9,0.4,2.5,3.4,2.4,5.5c-0.3,7.5-1,15.1-1.5,22.8
		c0.3-0.8,0.8-1.5,1-2.3c3.2-15.1,5.1-30.7,9.4-45.3c3.6-12.3,3.1-25,7.2-36.9c1.9-5.5,1-11.5,0.9-17.3c0-0.8-0.4-1.7-0.5-2.5
		c0-2-1.3-4.5,1-5.6c2.6-1.3,2.7,2.4,4.6,3.3c0.5-8,0.4-16,1.7-23.7c1.1-6.3,2.1-12.5,2.5-18.8c0.1-1.5,0.7-2.4,2.3-1.7
		c1.2,0.6,1.8-0.1,2.6-0.9c3.3-3.5,4.7-3.2,6.3,1.5c0.8,2.3,1.4,4.6,2.1,7.3c3.5-2.6,5.5-6.2,7.6-9.5c1-1.6,1.5-3.5,2.6-5.1
		c1.2-1.7,2.1-4.6,4.7-4.1c2.9,0.6,1.6,3.2,1.4,5.2c-0.1,0.6,0,1.6,0.5,1.9c4.1,3.3,1.9,6.1-0.3,9.3c-1.3,1.8-7,4.8,1,5.6
		c2.9,0.3,2.3,3.5,1.2,5.5c-1.4,2.8-3.7,5-6.2,6.8c-2.1,1.6-3.3,3.7-4.3,6.3c2.9,0.2,6.2-3,7.7,0.3c1.2,2.7-1.7,5-3.5,7.3
		c-2.7,3.5-6.1,6.4-8.1,10.5c-0.4,0.8-1.8,1.4-0.8,2.4c0.4,0.4,1.6,0.2,2.4,0.2c1.9-0.1,4.2-1.9,5.6,0.6c1.4,2.3-0.5,4.2-1.5,6.2
		c-3.5,6.9-10.1,11.4-14,18.1c-2.1,3.5-1.2,3.6,2.1,3.5c4-0.1,4.6,1.8,3,5.3c-3.1,6.5-7.9,11.6-12.1,17.3c-0.7,0.9-2.1,1.8-1.5,3
		c0.7,1.5,2.1,0.5,3.2,0.3c1.5-0.3,3.4-0.9,4.3,0.6c1.1,1.9-0.9,3-1.9,4.3c-3.3,4.2-8.1,6.9-11.8,10.7c-2,2.1-4.5,3.7-5.4,6.6
		c0.4,0.4,0.7,0.7,0.9,0.7c2.4,0,5.4-2.2,7,0.9c1.4,2.6-1.4,4.3-2.9,6c-5,5.9-10.1,11.8-15,17.7c-0.9,1.1-2.7,2.7-1.2,4
		c1.8,1.6,3.1-0.6,4.1-1.8c6.4-7.3,12.6-14.8,19-22.3c1.8,2.6-0.5,3.6-1.5,4.9c-6.6,9-13.3,17.9-19.9,26.9c-0.9,1.2-2.6,2.4-1.4,4
		c1.3,1.7,3.1,0.6,4.7,0c18.8-7.6,36-18.4,53.7-28c0.2-0.1,0.3-0.5,0.5-1c-2.8-0.2-5,1.3-7.4,1.9c-1.5,0.4-3.8,1.2-4.6-0.8
		c-0.7-1.8,1.5-2.5,2.7-3.3c8.3-5.2,16.8-10.2,25.2-15.3c2.2-1.3,4.4-2.6,7.2-4.2c-3.7-1.8-7-0.5-10.2-0.4c-1.5,0.1-3.5,0.5-3.8-1.5
		c-0.3-1.7,1.6-2,2.8-2.5c6.7-3.1,13.5-6,20.3-9c1.6-0.7,3.1-1.4,4.8-3.2c-2.5,0.1-4.1,0.9-5.7,1.7c-1.3,0.7-2.7,1.1-3.6-0.4
		c-1.1-1.9,0.8-2.3,1.9-2.9c4.3-2.6,8.6-5.2,12.6-8.4c-4,0.2-7.8,0.8-11.2,2.7c-0.6,0.3-1.1,1-1.7,1.1c-2.4,0.5-5.7,3-7,0.4
		c-1.4-2.8,2.7-3.2,4.5-4c5.6-2.7,10.7-6.3,16.8-7.7c1.1-0.3,2.2-1,2-2.7c-0.5,0-1-0.2-1.4,0c-7.7,3.9-15.9,5.5-24.4,6.1
		c-2.3,0.2-3.7,2.5-5.6,3.6c-9.1,5.3-16,13.1-23.4,20.2c-1.5,1.5-2.5,3-5.1,2.3c-3.8-0.9-5.2,2.7-7.5,4.6c-1.1,1-1.7,2.7-4.1,2.2
		c1.2-4.6,5.6-6.5,8.1-10c2-2.8,4.8-4.9,7.2-7.3c0.6-0.6,1.5-1.6,2-1.5c8.8,2.3,10.5-7,16.1-9.9c6.6-3.4,12-9.2,18.9-12.5
		c2.6-1.2,5.3,1.5,8.4,0.2c2.1-0.9,4.4-1.2,5.5-3.2c2-3.7,6.1-3.6,9.2-5.2c1.9-1,3.4,0.5,3.6,2.4c0.8,6.3-2.7,11.3-9.3,13.4
		c-1.1,0.4-2.2,0.8-3.9,1.5c1.1,0.6,1.7,0.9,2.3,1.2c1.4,0.9,3.9-1.7,4.5,0.8c0.6,2.2-1.8,3.6-3.3,4.9c-1.5,1.3-3.4,2.2-5.4,3.5
		c2.6,2.4,6.1,4.1-0.5,6.3c-7,2.3-13.3,6.4-20.3,9.9c2.2,0,4.1,0,6,0c1.9,0.1,4.2-0.3,4.6,2.2c0.4,2.2-1.7,3.3-3.4,4.1
		c-7.7,3.7-15,8.2-22.4,12.5c-2.2,1.3-4.4,2.6-7.2,4.3c2.5,1.1,4.1,0,5.8-0.3c1.3-0.2,2.5-0.2,3.2,1c0.9,1.6-0.3,2.6-1.5,3.3
		c-3.4,2-7,3.7-10.3,6c-12.2,8.3-25,15.4-38.4,21.6c-6.5,3-13.5,5-20,8.2c-1.9,0.9-4,0.9-6.4,0.1c-4.7-1.5-9.8-1.6-14.7-1.2
		c-1.1,0.1-2.7-0.1-3,1.5c-0.3,1.4,1.1,2,1.9,2.8c2.1,2.2,4.9,2.7,7.6,2.8c12.4,0.1,24.9,0.1,36.7-4.5c4.9-1.9,9.9-3.9,9.1-10.7
		c-0.1-1,0.3-1.8,1.4-1.6c1,0.1,1.5,0.9,1.6,1.8c0.2,7.7,1.8,15.4-0.7,23.1c-4.4,13.6-8.8,27.2-12.7,40.9c-1.6,5.6-4.3,8.1-10.2,7.5
		c-6.3-0.6-12.7-0.8-19.1-1c-2.7-0.1-3.8-1.7-4.5-4.1c-2.5-7.7-2.7-15.9-5.8-23.5c-1.9-4.6-3.5-9.3-5.8-13.8
		C71.6,201.3,71.4,194.4,70.8,187.2z M75.5,194.7c0,2.8,0.1,5.8,1.5,8.4c6.5,11.8,9.8,24.5,12.1,37.6c0.5,2.7,1.7,3.8,4.4,3.8
		c7,0,14.1,0.2,21.1,0.4c2.4,0.1,2.7-1.5,3.2-3.2c2.4-8.2,5.5-16.3,7.1-24.7c1.6-8.4,5.9-16.2,5.6-25c-0.1-3.4-0.3-4.6-4.2-2.9
		C110.2,196.4,93.2,196.6,75.5,194.7z M137.2,12.6c-2.4,6.8-6.6,13.3-4.4,20.9c0.3,1.2,0.1,2.9-1.3,2.9c-3.3,0-2.6,2.4-2.8,4.3
		c-0.5,5.6,0.6,11.3-0.5,16.9c-0.6,2.8-0.6,6.3-3.6,7.3c-2.7,0.9-2.6,2.1-2.2,4.2c1.3,6.5,1.2,13-1.8,19c-1,2.1-0.7,4.5-1.4,6.3
		c-1.9,5.3-1.3,10.8-1.8,16.1c-0.5,5.6-4.8,9.5-5.1,14.9c-0.6,10.7-4.8,20.6-6.6,31.1c-0.3,1.6-1.3,3.1-0.1,5.4
		c5.3-7.7,12.7-13.2,18.2-21.6c-3.2,0.5-5.2,0.9-7.2,1.1c-1.5,0.1-3.4,0.1-4.1-1.5c-0.6-1.5,0.6-2.6,1.6-3.5c2.6-2.5,5.3-5,7.9-7.4
		c3.4-3.1,6.9-6.2,11.2-10.1c-2,0-2.7-0.1-3.3,0c-1.8,0.4-3.6,0.4-4.7-1.2c-1-1.6,0.6-2.9,1.4-4.1c2.1-3.1,4.6-6,6.7-9.1
		c2.6-3.9,6.4-7,7.4-12.4c-1.1,0.1-1.7,0.2-2.4,0.3c-2.1,0.3-4.4,0.9-5.7-1.2c-1.4-2.3,0.8-3.8,2-5.4c4.4-5.9,9.1-11.7,13.5-17.6
		c0.8-1.1,3-2.2,1.6-3.8c-1-1.2-2.5,0.2-3.6,0.9c-1.9,1.2-3.9,0.6-5.2-0.7c-1.6-1.6,0.1-3.1,0.9-4.5c1.7-3.2,3.9-6,6.1-8.9
		c1.8-2.3,4.5-4.1,5.3-7.8c-3.3,0.4-5.3,2.4-7.5,3.9c-1.3,0.9-2.7,1.9-4.1,0.5c-1.4-1.5-0.3-2.9,0.7-4.1c4-4.5,8-8.9,12-13.4
		c0.8-0.9,2.1-1.4,1.2-3.1c-3-0.3-4.3,2.2-6.3,3.7c-1,0.8-2.2,2.2-3.5,0.7c-1.1-1.2-1.5-2.6,0.1-4.1c3.4-3.2,0.8-4.9-2-4.7
		c-4.3,0.4-4.9-2.5-5.9-5.1C137.5,16.1,137.5,14.3,137.2,12.6z M68.4,77.3c5.3,7.5,7.8,15,10.9,22.2c0.7,1.7,2.5,4.1-1.7,4.2
		c-2.4,0-1.7,1.7-1.1,2.8c0.8,1.7,2.2,3.1,2.8,4.9c0.6,1.5,2.4,3,1.6,4.7c-0.9,2-3.2-0.6-4.8,0.9c1.2,3.4,2.6,6.7,3.7,10.1
		c0.5,1.5,2.8,2.7,0.9,4.5c-1.8,1.8-3.1-1.1-5.4-1.2c1.7,2.9,3.4,5.2,4.4,7.7c0.9,2.2,4,4.9,2.1,6.7c-2.1,2-4.5-1.1-6.7-2.3
		c-0.1-0.1-0.5,0.2-0.9,0.4c2.4,3.6,4.8,7.1,7.2,10.7c0.9,1.4,3.3,2.2,2.6,4.1c-0.9,2.6-3.3-1-5,0.8c4.7,8.3,10.2,16.2,16,23.9
		c2.5,3.4,4.7,0.3,6.7-0.6c3.5-1.7,0-2-0.8-3.1c-0.8-1,0.3-1.9,0.8-2.7c0.7-1,1.4-2,0-3.1c-3.8-3.1-3.9-7.5-3.6-11.8
		c0.4-7.7,1-15.4,1.6-23.3c-2.2,0.4-3.6,2.7-5.5,1.1c-1.9-1.6-1-3.8-0.7-5.8c0.4-2.4,0.8-4.7,1.3-7.1c0.5-2.3-0.3-3.4-2.6-3
		c-3.9,0.6-4.3-1.9-4-4.8c0.5-5.4,4.1-11.1-1.3-16.1c1.9-6.3-3-10.3-5.8-14.5C78.6,83.9,75.7,78.8,68.4,77.3z M59.6,169.9
		c2,4.5,6.7,5.6,10.2,8.2c0.9,0.7,2.5,1,1.8,2.6c-0.6,1.4-2.1,1.1-3.2,0.8c-7-1.5-14.3-2-21.1-4.7c-1.5-0.6-3-1.9-5.6-0.1
		c5.7,3.2,9.2,9.9,15.8,10c8.7,0.1,17.4-1.7,27.5-2.8C75.4,179.5,67.1,175.5,59.6,169.9z"/>
	<path d="M140.7,132.7c-2.7,3.2-5.5,6.4-8.2,9.6C133.2,137.4,135.5,133.8,140.7,132.7z"/>
</g>
</svg>
